<svg width="740" height="219" viewBox="0 0 740 219" fill="none" xmlns="http://www.w3.org/2000/svg">
<path d="M13.138 26.1761C11.3769 26.1761 9.78011 25.8239 8.34773 25.1194C6.91535 24.415 5.67082 23.464 4.61415 22.2664C3.58095 21.0454 2.78258 19.6834 2.21902 18.1806C1.65546 16.6543 1.37368 15.0928 1.37368 13.496C1.37368 11.8288 1.6672 10.2438 2.25424 8.74098C2.86476 7.21467 3.69836 5.86448 4.75504 4.69039C5.83519 3.49283 7.09146 2.55356 8.52384 1.87259C9.95622 1.16814 11.5178 0.81592 13.2084 0.81592C14.9696 0.81592 16.5663 1.17989 17.9987 1.90782C19.4311 2.63575 20.6639 3.61024 21.6971 4.83128C22.7302 6.05233 23.5286 7.41427 24.0922 8.91709C24.6557 10.4199 24.9375 11.958 24.9375 13.5312C24.9375 15.1984 24.644 16.7952 24.057 18.3215C23.4699 19.8243 22.6363 21.1745 21.5562 22.3721C20.4995 23.5462 19.255 24.4737 17.8226 25.1547C16.3902 25.8356 14.8287 26.1761 13.138 26.1761ZM4.57892 13.496C4.57892 14.764 4.77852 15.9968 5.17771 17.1944C5.60038 18.3685 6.18742 19.4134 6.93883 20.3292C7.69024 21.245 8.59429 21.9729 9.65096 22.513C10.7076 23.0531 11.8817 23.3231 13.1732 23.3231C14.5117 23.3231 15.7092 23.0413 16.7659 22.4778C17.8226 21.9142 18.7149 21.1628 19.4428 20.2235C20.1942 19.2842 20.7578 18.2276 21.1335 17.0535C21.5327 15.8794 21.7323 14.6936 21.7323 13.496C21.7323 12.228 21.5209 11.007 21.0983 9.83288C20.6991 8.65879 20.112 7.61386 19.3371 6.69808C18.5857 5.75881 17.6817 5.03088 16.625 4.51428C15.5918 3.9742 14.4412 3.70416 13.1732 3.70416C11.8348 3.70416 10.6372 3.98594 9.58052 4.5495C8.52384 5.08958 7.6198 5.82925 6.86839 6.76852C6.14045 7.70779 5.57689 8.76446 5.17771 9.93854C4.77852 11.0891 4.57892 12.275 4.57892 13.496ZM28.9193 0.287583H32.0189V21.245C32.0189 22.2547 32.1598 22.8769 32.4416 23.1118C32.7233 23.3466 33.0638 23.464 33.463 23.464C33.9561 23.464 34.4258 23.417 34.8719 23.3231C35.3181 23.2057 35.6938 23.0883 35.999 22.9709L36.4921 25.5069C35.9756 25.7182 35.365 25.8943 34.6606 26.0352C33.9561 26.1761 33.3339 26.2466 32.7938 26.2466C31.5962 26.2466 30.6452 25.9061 29.9408 25.2251C29.2598 24.5441 28.9193 23.5931 28.9193 22.3721V0.287583ZM37.4831 20.6814C37.4831 19.5073 37.8118 18.4976 38.4693 17.6523C39.1503 16.7834 40.0778 16.1142 41.2519 15.6446C42.4259 15.175 43.7879 14.9401 45.3377 14.9401C46.1595 14.9401 47.0284 15.0106 47.9441 15.1515C48.8599 15.2689 49.67 15.4567 50.3745 15.715V14.3766C50.3745 12.9677 49.9518 11.864 49.1065 11.0657C48.2611 10.2438 47.0636 9.83288 45.5138 9.83288C44.5041 9.83288 43.5296 10.0207 42.5903 10.3964C41.6745 10.7487 40.7 11.2653 39.6669 11.9462L38.5397 9.76243C39.7373 8.94057 40.9349 8.33005 42.1324 7.93086C43.33 7.50819 44.5745 7.29686 45.866 7.29686C48.2142 7.29686 50.0692 7.95434 51.4312 9.26932C52.7931 10.5608 53.4741 12.3689 53.4741 14.6936V22.4778C53.4741 22.8535 53.5445 23.1352 53.6854 23.3231C53.8498 23.4875 54.1081 23.5814 54.4603 23.6049V26C54.155 26.047 53.885 26.0822 53.6502 26.1057C53.4388 26.1291 53.2627 26.1409 53.1218 26.1409C52.3939 26.1409 51.8421 25.9413 51.4664 25.5421C51.1142 25.1429 50.9146 24.7202 50.8676 24.2741L50.7972 23.1118C49.9988 24.1449 48.9538 24.9433 47.6624 25.5069C46.3709 26.0704 45.0911 26.3522 43.8231 26.3522C42.6021 26.3522 41.5102 26.1057 40.5474 25.6126C39.5847 25.096 38.8333 24.415 38.2932 23.5696C37.7531 22.7008 37.4831 21.7381 37.4831 20.6814ZM49.4587 21.9846C49.7405 21.6559 49.9636 21.3271 50.1279 20.9984C50.2923 20.6462 50.3745 20.3527 50.3745 20.1178V17.8284C49.6466 17.5466 48.8834 17.3353 48.085 17.1944C47.2867 17.03 46.5 16.9478 45.7251 16.9478C44.1519 16.9478 42.8721 17.2648 41.8859 17.8988C40.9231 18.5094 40.4417 19.3547 40.4417 20.4348C40.4417 21.0219 40.5944 21.5972 40.8996 22.1607C41.2284 22.7008 41.698 23.147 42.3085 23.4992C42.9425 23.8514 43.7174 24.0275 44.6332 24.0275C45.596 24.0275 46.5118 23.8397 47.3806 23.464C48.2494 23.0648 48.9421 22.5717 49.4587 21.9846ZM46.8875 4.5495L44.8446 3.84505L46.8875 0.287583H49.987L46.8875 4.5495ZM58.5359 28.853L59.2404 25.7182H58.1837V22.0551H61.1072V25.7182L60.0505 28.853H58.5359ZM82.9052 26.3522C81.5198 26.3522 80.2518 26.1057 79.1012 25.6126C77.9741 25.096 76.9878 24.4032 76.1425 23.5344C75.3206 22.6421 74.6749 21.6207 74.2052 20.4701C73.7591 19.3195 73.536 18.0984 73.536 16.8069C73.536 15.0693 73.9352 13.4843 74.7336 12.0519C75.532 10.6195 76.6356 9.46891 78.0445 8.60009C79.4769 7.73127 81.1089 7.29686 82.9404 7.29686C84.7955 7.29686 86.404 7.74301 87.7659 8.63531C89.1513 9.50413 90.2197 10.6547 90.9712 12.0871C91.746 13.496 92.1335 15.0223 92.1335 16.666C92.1335 16.9009 92.1218 17.1357 92.0983 17.3705C92.0983 17.5818 92.0865 17.7462 92.0631 17.8636H76.8117C76.9056 19.0612 77.2344 20.1296 77.7979 21.0689C78.385 21.9846 79.1364 22.7126 80.0522 23.2526C80.968 23.7692 81.9542 24.0275 83.0109 24.0275C84.138 24.0275 85.1947 23.7458 86.1809 23.1822C87.1906 22.6186 87.8833 21.879 88.259 20.9632L90.9359 21.7029C90.5367 22.5952 89.938 23.3935 89.1396 24.098C88.3647 24.8024 87.4372 25.3543 86.357 25.7534C85.3003 26.1526 84.1497 26.3522 82.9052 26.3522ZM76.706 15.715H89.2453C89.1513 14.5175 88.8108 13.4608 88.2238 12.545C87.6368 11.6292 86.8853 10.913 85.9696 10.3964C85.0538 9.87984 84.0441 9.62154 82.9404 9.62154C81.8603 9.62154 80.8623 9.87984 79.9465 10.3964C79.0307 10.913 78.2793 11.6292 77.6923 12.545C77.1287 13.4608 76.8 14.5175 76.706 15.715ZM95.4029 18.6385V7.61386H98.5024V18.0397C98.5024 19.9182 98.8312 21.3271 99.4887 22.2664C100.146 23.2057 101.121 23.6753 102.412 23.6753C103.257 23.6753 104.068 23.4992 104.842 23.147C105.641 22.7713 106.357 22.2429 106.991 21.562C107.625 20.881 108.118 20.0709 108.47 19.1316V7.61386H111.57V22.4778C111.57 22.8535 111.64 23.1352 111.781 23.3231C111.946 23.4875 112.204 23.5814 112.556 23.6049V26C112.204 26.047 111.922 26.0704 111.711 26.0704C111.523 26.0939 111.335 26.1057 111.147 26.1057C110.56 26.1057 110.055 25.9296 109.633 25.5773C109.21 25.2016 108.987 24.7437 108.964 24.2037L108.893 22.0551C108.095 23.417 107.015 24.4737 105.653 25.2251C104.314 25.9765 102.847 26.3522 101.25 26.3522C99.3243 26.3522 97.8684 25.7065 96.8822 24.415C95.896 23.1 95.4029 21.1745 95.4029 18.6385ZM131.947 26.3522C130.42 26.3522 128.988 26.1057 127.65 25.6126C126.311 25.096 125.161 24.3328 124.198 23.3231L125.395 21.1393C126.452 22.1255 127.509 22.83 128.565 23.2526C129.622 23.6753 130.702 23.8867 131.806 23.8867C133.074 23.8867 134.107 23.6518 134.905 23.1822C135.704 22.6891 136.103 21.9729 136.103 21.0336C136.103 20.3527 135.892 19.8478 135.469 19.5191C135.07 19.1903 134.495 18.9203 133.743 18.7089C132.992 18.4741 132.099 18.2158 131.066 17.934C129.798 17.5583 128.73 17.1592 127.861 16.7365C126.992 16.3138 126.335 15.7855 125.888 15.1515C125.442 14.5175 125.219 13.7191 125.219 12.7563C125.219 11.5823 125.525 10.596 126.135 9.79766C126.746 8.9758 127.579 8.35353 128.636 7.93086C129.716 7.50819 130.937 7.29686 132.299 7.29686C133.661 7.29686 134.894 7.50819 135.997 7.93086C137.101 8.35353 138.052 8.9758 138.85 9.79766L137.441 11.9462C136.714 11.1948 135.915 10.643 135.046 10.2908C134.178 9.91506 133.203 9.72721 132.123 9.72721C131.489 9.72721 130.867 9.8094 130.256 9.97377C129.646 10.1147 129.141 10.3847 128.741 10.7839C128.342 11.1596 128.143 11.6997 128.143 12.4041C128.143 12.9912 128.295 13.4608 128.601 13.813C128.929 14.1418 129.399 14.4235 130.01 14.6584C130.644 14.8932 131.407 15.1515 132.299 15.4333C133.684 15.8324 134.882 16.2316 135.892 16.6308C136.925 17.03 137.723 17.5466 138.287 18.1806C138.85 18.8146 139.132 19.6952 139.132 20.8223C139.132 22.5599 138.475 23.9219 137.16 24.9081C135.845 25.8709 134.107 26.3522 131.947 26.3522ZM150.871 26.3522C149.486 26.3522 148.229 26.1057 147.102 25.6126C145.975 25.096 145.001 24.4032 144.179 23.5344C143.357 22.6421 142.723 21.6207 142.277 20.4701C141.831 19.3195 141.608 18.1102 141.608 16.8422C141.608 15.5507 141.831 14.3296 142.277 13.179C142.723 12.0284 143.357 11.0187 144.179 10.1499C145.001 9.25758 145.975 8.56487 147.102 8.07175C148.253 7.55516 149.509 7.29686 150.871 7.29686C152.257 7.29686 153.513 7.55516 154.64 8.07175C155.767 8.56487 156.742 9.25758 157.563 10.1499C158.409 11.0187 159.054 12.0284 159.501 13.179C159.947 14.3296 160.17 15.5507 160.17 16.8422C160.17 18.1102 159.947 19.3195 159.501 20.4701C159.054 21.6207 158.42 22.6421 157.599 23.5344C156.777 24.4032 155.791 25.096 154.64 25.6126C153.513 26.1057 152.257 26.3522 150.871 26.3522ZM144.778 16.8774C144.778 18.1454 145.048 19.296 145.588 20.3292C146.151 21.3624 146.891 22.1842 147.807 22.7948C148.723 23.3818 149.744 23.6753 150.871 23.6753C151.998 23.6753 153.02 23.3701 153.935 22.7595C154.875 22.149 155.614 21.3271 156.154 20.294C156.718 19.2373 157 18.0749 157 16.8069C157 15.5389 156.718 14.3883 156.154 13.3551C155.614 12.3219 154.875 11.5001 153.935 10.8896C153.02 10.279 151.998 9.97377 150.871 9.97377C149.744 9.97377 148.723 10.2908 147.807 10.9248C146.891 11.5353 146.151 12.3572 145.588 13.3903C145.048 14.4235 144.778 15.5859 144.778 16.8774ZM163.75 18.6385V7.61386H166.849V18.0397C166.849 19.9182 167.178 21.3271 167.835 22.2664C168.493 23.2057 169.467 23.6753 170.759 23.6753C171.604 23.6753 172.414 23.4992 173.189 23.147C173.988 22.7713 174.704 22.2429 175.338 21.562C175.972 20.881 176.465 20.0709 176.817 19.1316V7.61386H179.917V22.4778C179.917 22.8535 179.987 23.1352 180.128 23.3231C180.292 23.4875 180.551 23.5814 180.903 23.6049V26C180.551 26.047 180.269 26.0704 180.058 26.0704C179.87 26.0939 179.682 26.1057 179.494 26.1057C178.907 26.1057 178.402 25.9296 177.98 25.5773C177.557 25.2016 177.334 24.7437 177.31 24.2037L177.24 22.0551C176.441 23.417 175.361 24.4737 173.999 25.2251C172.661 25.9765 171.193 26.3522 169.597 26.3522C167.671 26.3522 166.215 25.7065 165.229 24.415C164.243 23.1 163.75 21.1745 163.75 18.6385ZM192.545 20.6814C192.545 19.5073 192.873 18.4976 193.531 17.6523C194.212 16.7834 195.139 16.1142 196.313 15.6446C197.487 15.175 198.849 14.9401 200.399 14.9401C201.221 14.9401 202.09 15.0106 203.006 15.1515C203.921 15.2689 204.732 15.4567 205.436 15.715V14.3766C205.436 12.9677 205.013 11.864 204.168 11.0657C203.323 10.2438 202.125 9.83288 200.575 9.83288C199.566 9.83288 198.591 10.0207 197.652 10.3964C196.736 10.7487 195.762 11.2653 194.728 11.9462L193.601 9.76243C194.799 8.94057 195.996 8.33005 197.194 7.93086C198.391 7.50819 199.636 7.29686 200.928 7.29686C203.276 7.29686 205.131 7.95434 206.493 9.26932C207.855 10.5608 208.536 12.3689 208.536 14.6936V22.4778C208.536 22.8535 208.606 23.1352 208.747 23.3231C208.911 23.4875 209.17 23.5814 209.522 23.6049V26C209.217 26.047 208.946 26.0822 208.712 26.1057C208.5 26.1291 208.324 26.1409 208.183 26.1409C207.455 26.1409 206.904 25.9413 206.528 25.5421C206.176 25.1429 205.976 24.7202 205.929 24.2741L205.859 23.1118C205.06 24.1449 204.015 24.9433 202.724 25.5069C201.432 26.0704 200.153 26.3522 198.885 26.3522C197.664 26.3522 196.572 26.1057 195.609 25.6126C194.646 25.096 193.895 24.415 193.355 23.5696C192.815 22.7008 192.545 21.7381 192.545 20.6814ZM204.52 21.9846C204.802 21.6559 205.025 21.3271 205.189 20.9984C205.354 20.6462 205.436 20.3527 205.436 20.1178V17.8284C204.708 17.5466 203.945 17.3353 203.147 17.1944C202.348 17.03 201.562 16.9478 200.787 16.9478C199.213 16.9478 197.934 17.2648 196.947 17.8988C195.985 18.5094 195.503 19.3547 195.503 20.4348C195.503 21.0219 195.656 21.5972 195.961 22.1607C196.29 22.7008 196.76 23.147 197.37 23.4992C198.004 23.8514 198.779 24.0275 199.695 24.0275C200.657 24.0275 201.573 23.8397 202.442 23.464C203.311 23.0648 204.004 22.5717 204.52 21.9846Z" fill="#990DCE"/>
<path d="M42.1876 175.709C42.1876 172.929 42.0384 170.398 41.7402 168.116C41.4419 165.835 40.8027 163.732 39.8225 161.807C38.885 159.882 37.5001 157.957 35.6677 156.032C33.8779 154.107 31.5342 152.11 28.6364 150.043C25.1847 147.619 21.8395 145.052 18.6009 142.343C15.3623 139.562 12.4432 136.354 9.84377 132.718C7.24434 129.082 5.17757 124.804 3.64347 119.885C2.15199 114.894 1.40625 109.048 1.40625 102.346C1.40625 95.7867 2.10938 89.8335 3.51563 84.4863C4.9645 79.1391 7.00996 74.5762 9.65201 70.7975C12.2941 66.9475 15.3836 63.9887 18.9205 61.9212C22.5001 59.8536 26.4844 58.8198 30.8737 58.8198C36.8396 58.8198 41.9958 60.8874 46.3424 65.0225C50.7317 69.1577 54.1194 74.8257 56.5058 82.0266C58.9348 89.2275 60.1493 97.4978 60.1493 106.838H41.4845C41.4845 102.417 41.1009 98.5316 40.3339 95.1807C39.6095 91.7585 38.4376 89.0849 36.8183 87.1599C35.1989 85.2349 33.1109 84.2724 30.554 84.2724C28.1677 84.2724 26.1861 85.0923 24.6094 86.7321C23.0753 88.3006 21.9248 90.4751 21.1577 93.2557C20.4333 95.9649 20.0711 99.0306 20.0711 102.453C20.0711 105.019 20.4333 107.337 21.1577 109.404C21.9248 111.4 22.9688 113.219 24.2898 114.858C25.6109 116.427 27.1663 117.96 28.956 119.457C30.7884 120.954 32.7913 122.416 34.9646 123.842C39.1833 126.622 42.912 129.688 46.1507 133.039C49.3893 136.318 52.0953 140.026 54.2686 144.161C56.4419 148.225 58.0825 152.823 59.1905 157.957C60.2984 163.09 60.8524 168.936 60.8524 175.495C60.8524 181.983 60.1706 187.901 58.807 193.248C57.4859 198.524 55.547 203.087 52.9902 206.937C50.4334 210.716 47.3439 213.639 43.7217 215.706C40.1421 217.774 36.1364 218.808 31.7046 218.808C27.4006 218.808 23.331 217.81 19.4958 215.813C15.6605 213.746 12.2728 210.644 9.33241 206.509C6.43467 202.303 4.15484 196.991 2.4929 190.574C0.830968 184.087 0 176.422 0 167.582H18.7287C18.7287 172.287 19.0057 176.315 19.5597 179.666C20.1137 182.946 20.966 185.584 22.1165 187.58C23.2671 189.505 24.6734 190.967 26.3353 191.965C28.0398 192.892 29.9788 193.355 32.1521 193.355C34.6237 193.355 36.5839 192.571 38.0328 191.002C39.5242 189.434 40.5896 187.331 41.2288 184.693C41.868 182.055 42.1876 179.06 42.1876 175.709Z" fill="url(#paint0_linear_1363_2656)"/>
<path d="M64.0229 162.769V154.962C64.0229 145.908 64.6621 137.887 65.9405 130.9C67.2615 123.913 69.1365 118.067 71.5655 113.361C73.9945 108.584 76.9135 104.984 80.3226 102.56C83.7743 100.064 87.6309 98.8167 91.8923 98.8167C96.1962 98.8167 100.053 100.064 103.462 102.56C106.914 104.984 109.854 108.584 112.283 113.361C114.755 118.067 116.651 123.913 117.972 130.9C119.293 137.887 119.953 145.908 119.953 154.962V162.769C119.953 171.752 119.293 179.738 117.972 186.725C116.651 193.712 114.755 199.593 112.283 204.37C109.854 209.147 106.935 212.748 103.526 215.172C100.117 217.596 96.2815 218.808 92.0201 218.808C87.7587 218.808 83.9022 217.596 80.4505 215.172C77.0414 212.748 74.101 209.147 71.6294 204.37C69.1578 199.593 67.2615 193.712 65.9405 186.725C64.6621 179.738 64.0229 171.752 64.0229 162.769ZM81.9206 154.962V162.769C81.9206 168.116 82.1337 172.751 82.5598 176.672C83.0286 180.593 83.6891 183.837 84.5414 186.404C85.4363 188.97 86.5016 190.86 87.7374 192.072C88.9732 193.284 90.4008 193.89 92.0201 193.89C93.6394 193.89 95.0883 193.284 96.3667 192.072C97.6451 190.86 98.6892 188.97 99.4988 186.404C100.351 183.837 100.969 180.593 101.353 176.672C101.779 172.751 101.992 168.116 101.992 162.769V154.962C101.992 149.758 101.757 145.195 101.289 141.273C100.82 137.281 100.159 134.037 99.307 131.542C98.4548 128.975 97.3894 127.05 96.111 125.767C94.8752 124.412 93.469 123.735 91.8923 123.735C90.3155 123.735 88.9093 124.412 87.6735 125.767C86.4803 127.05 85.4363 128.975 84.5414 131.542C83.6891 134.037 83.0286 137.281 82.5598 141.273C82.1337 145.195 81.9206 149.758 81.9206 154.962Z" fill="url(#paint1_linear_1363_2656)"/>
<path d="M146.327 216.669H128.429V96.1432C128.429 86.1617 129.473 77.7845 131.561 71.0114C133.692 64.167 136.76 58.998 140.766 55.5045C144.814 51.9397 149.651 50.1573 155.276 50.1573C158.515 50.1573 161.583 50.7634 164.48 51.9754C167.421 53.1161 170.446 54.6133 173.557 56.467L171 81.9196C169.125 80.7789 167.016 79.7095 164.672 78.7113C162.371 77.6419 159.644 77.1072 156.49 77.1072C153.039 77.1072 150.482 78.7113 148.82 81.9196C147.158 85.1279 146.327 89.8691 146.327 96.1432V216.669ZM157.002 100.956V123.521H119.992V100.956H157.002ZM181.803 100.956V216.669H163.841V100.956H181.803Z" fill="url(#paint2_linear_1363_2656)"/>
<path d="M220.002 190.04V136.568C220.002 133.074 219.746 130.294 219.235 128.226C218.766 126.159 218.042 124.661 217.062 123.735C216.124 122.736 214.973 122.237 213.61 122.237C212.076 122.237 210.797 122.772 209.775 123.842C208.752 124.911 207.985 126.444 207.473 128.44C207.005 130.436 206.77 132.825 206.77 135.605H188.809C188.809 130.615 189.384 125.909 190.535 121.489C191.685 116.997 193.368 113.076 195.584 109.725C197.843 106.303 200.527 103.629 203.638 101.704C206.749 99.7792 210.243 98.8167 214.121 98.8167C218.724 98.8167 222.814 100.136 226.394 102.774C229.974 105.34 232.807 109.44 234.895 115.072C236.983 120.705 238.028 128.012 238.028 136.996V188.543C238.028 195.03 238.219 200.306 238.603 204.37C239.029 208.434 239.647 211.928 240.457 214.851V216.669H222.431C221.621 213.46 221.003 209.468 220.577 204.691C220.194 199.843 220.002 194.959 220.002 190.04ZM222.175 145.979L222.239 163.945H215.655C213.951 163.945 212.459 164.409 211.181 165.336C209.945 166.263 208.901 167.582 208.049 169.293C207.196 170.932 206.557 172.857 206.131 175.068C205.748 177.278 205.556 179.631 205.556 182.126C205.556 184.906 205.79 187.259 206.259 189.184C206.728 191.109 207.431 192.571 208.368 193.569C209.306 194.567 210.414 195.066 211.692 195.066C213.652 195.066 215.357 194.389 216.806 193.034C218.255 191.68 219.32 190.04 220.002 188.115C220.726 186.19 220.961 184.407 220.705 182.768L224.796 194.424C224.285 197.062 223.581 199.807 222.687 202.659C221.834 205.511 220.748 208.149 219.427 210.573C218.106 212.997 216.465 214.993 214.505 216.562C212.587 218.059 210.307 218.808 207.665 218.808C203.958 218.808 200.57 217.382 197.502 214.53C194.434 211.678 192.005 207.686 190.215 202.552C188.468 197.419 187.594 191.323 187.594 184.265C187.594 178.419 188.148 173.143 189.256 168.437C190.407 163.66 192.111 159.632 194.37 156.352C196.628 153.002 199.483 150.435 202.935 148.653C206.387 146.87 210.435 145.979 215.08 145.979H222.175Z" fill="url(#paint3_linear_1363_2656)"/>
<path d="M300.619 148.759H281.57L281.506 126.087H297.742C300.299 126.087 302.387 125.374 304.006 123.949C305.668 122.451 306.883 120.277 307.65 117.425C308.46 114.502 308.864 110.973 308.864 106.838C308.864 102.061 308.502 98.2464 307.778 95.3945C307.053 92.4714 305.881 90.3325 304.262 88.9779C302.643 87.6233 300.533 86.946 297.934 86.946H287.962V216.669H269.234V60.9587H297.934C302.579 60.9587 306.734 61.8142 310.398 63.5253C314.063 65.2364 317.174 67.8387 319.731 71.3322C322.288 74.8257 324.227 79.246 325.548 84.5932C326.911 89.9404 327.593 96.2501 327.593 103.522C327.593 109.939 326.826 115.856 325.292 121.275C323.758 126.693 321.35 131.114 318.069 134.536C314.83 137.958 310.59 139.883 305.349 140.311L300.619 148.759ZM299.979 216.669H276.265L283.744 190.788H299.979C302.451 190.788 304.454 189.897 305.988 188.115C307.522 186.332 308.63 183.944 309.312 180.95C309.994 177.884 310.335 174.39 310.335 170.469C310.335 166.049 310.015 162.199 309.376 158.919C308.779 155.64 307.778 153.144 306.371 151.433C304.965 149.651 303.069 148.759 300.682 148.759H284.575L284.702 126.087H304.262L308.673 135.071C313.658 134.786 317.643 136.39 320.626 139.883C323.609 143.305 325.739 147.797 327.018 153.358C328.339 158.848 328.999 164.694 328.999 170.897C328.999 180.878 327.87 189.291 325.612 196.136C323.396 202.909 320.136 208.042 315.832 211.535C311.528 214.958 306.244 216.669 299.979 216.669Z" fill="url(#paint4_linear_1363_2656)"/>
<path d="M365.792 190.04V136.568C365.792 133.074 365.536 130.294 365.025 128.226C364.556 126.159 363.832 124.661 362.852 123.735C361.914 122.736 360.764 122.237 359.4 122.237C357.866 122.237 356.587 122.772 355.565 123.842C354.542 124.911 353.775 126.444 353.264 128.44C352.795 130.436 352.56 132.825 352.56 135.605H334.599C334.599 130.615 335.174 125.909 336.325 121.489C337.475 116.997 339.158 113.076 341.374 109.725C343.633 106.303 346.318 103.629 349.428 101.704C352.539 99.7792 356.033 98.8167 359.911 98.8167C364.514 98.8167 368.605 100.136 372.184 102.774C375.764 105.34 378.597 109.44 380.686 115.072C382.774 120.705 383.818 128.012 383.818 136.996V188.543C383.818 195.03 384.009 200.306 384.393 204.37C384.819 208.434 385.437 211.928 386.247 214.851V216.669H368.221C367.411 213.46 366.793 209.468 366.367 204.691C365.984 199.843 365.792 194.959 365.792 190.04ZM367.965 145.979L368.029 163.945H361.445C359.741 163.945 358.249 164.409 356.971 165.336C355.735 166.263 354.691 167.582 353.839 169.293C352.987 170.932 352.347 172.857 351.921 175.068C351.538 177.278 351.346 179.631 351.346 182.126C351.346 184.906 351.58 187.259 352.049 189.184C352.518 191.109 353.221 192.571 354.159 193.569C355.096 194.567 356.204 195.066 357.482 195.066C359.443 195.066 361.147 194.389 362.596 193.034C364.045 191.68 365.11 190.04 365.792 188.115C366.516 186.19 366.751 184.407 366.495 182.768L370.586 194.424C370.075 197.062 369.372 199.807 368.477 202.659C367.624 205.511 366.538 208.149 365.217 210.573C363.896 212.997 362.255 214.993 360.295 216.562C358.377 218.059 356.097 218.808 353.455 218.808C349.748 218.808 346.36 217.382 343.292 214.53C340.224 211.678 337.795 207.686 336.005 202.552C334.258 197.419 333.384 191.323 333.384 184.265C333.384 178.419 333.938 173.143 335.046 168.437C336.197 163.66 337.901 159.632 340.16 156.352C342.418 153.002 345.274 150.435 348.725 148.653C352.177 146.87 356.225 145.979 360.87 145.979H367.965Z" fill="url(#paint5_linear_1363_2656)"/>
<path d="M421.186 185.441C421.186 183.445 420.781 181.663 419.971 180.094C419.162 178.526 417.883 176.921 416.136 175.282C414.389 173.57 412.066 171.681 409.169 169.614C406.015 167.475 403.224 165.264 400.795 162.983C398.366 160.702 396.299 158.171 394.595 155.39C392.933 152.609 391.676 149.437 390.823 145.872C389.971 142.307 389.545 138.243 389.545 133.68C389.545 128.761 390.078 124.234 391.143 120.099C392.251 115.892 393.828 112.22 395.873 109.083C397.919 105.875 400.411 103.38 403.352 101.597C406.335 99.7436 409.68 98.8167 413.387 98.8167C418.586 98.8167 423.039 100.35 426.747 103.415C430.497 106.41 433.373 110.616 435.376 116.035C437.379 121.453 438.38 127.763 438.38 134.964H420.483C420.483 132.397 420.248 130.116 419.779 128.119C419.311 126.052 418.544 124.448 417.478 123.307C416.456 122.166 415.071 121.596 413.323 121.596C412.045 121.596 410.894 122.059 409.872 122.986C408.892 123.913 408.103 125.161 407.507 126.729C406.953 128.226 406.676 130.009 406.676 132.076C406.676 133.645 406.867 135.035 407.251 136.247C407.677 137.459 408.338 138.635 409.232 139.776C410.127 140.917 411.321 142.129 412.812 143.412C414.346 144.624 416.221 145.979 418.437 147.476C423.039 150.328 426.811 153.394 429.751 156.673C432.734 159.953 434.95 163.803 436.399 168.223C437.848 172.572 438.572 177.955 438.572 184.372C438.572 189.505 437.975 194.175 436.782 198.381C435.632 202.588 433.948 206.224 431.733 209.29C429.517 212.355 426.853 214.708 423.742 216.348C420.674 217.988 417.244 218.808 413.451 218.808C407.869 218.808 403.16 216.954 399.325 213.247C395.49 209.539 392.592 204.798 390.632 199.023C388.671 193.177 387.691 187.117 387.691 180.843H404.694C404.779 184.693 405.205 187.723 405.973 189.933C406.782 192.072 407.869 193.569 409.232 194.424C410.596 195.28 412.109 195.708 413.771 195.708C415.433 195.708 416.796 195.351 417.862 194.638C418.97 193.854 419.801 192.678 420.355 191.109C420.909 189.469 421.186 187.58 421.186 185.441Z" fill="url(#paint6_linear_1363_2656)"/>
<path d="M473.575 100.956V123.521H438.291V100.956H473.575ZM446.409 72.4016H464.243V181.377C464.243 184.586 464.434 187.045 464.818 188.756C465.201 190.468 465.777 191.68 466.544 192.393C467.353 193.034 468.419 193.355 469.74 193.355C470.635 193.355 471.466 193.284 472.233 193.141C473 192.927 473.575 192.713 473.958 192.499V215.92C472.552 216.847 471.061 217.56 469.484 218.059C467.95 218.558 466.118 218.808 463.987 218.808C460.407 218.808 457.297 217.667 454.654 215.385C452.055 213.104 450.031 209.468 448.582 204.477C447.133 199.415 446.409 192.785 446.409 184.586V72.4016Z" fill="url(#paint7_linear_1363_2656)"/>
<path d="M473.038 162.769V154.962C473.038 145.908 473.677 137.887 474.956 130.9C476.277 123.913 478.152 118.067 480.581 113.361C483.01 108.584 485.929 104.984 489.338 102.56C492.79 100.064 496.646 98.8167 500.907 98.8167C505.211 98.8167 509.068 100.064 512.477 102.56C515.929 104.984 518.869 108.584 521.298 113.361C523.77 118.067 525.666 123.913 526.987 130.9C528.308 137.887 528.969 145.908 528.969 154.962V162.769C528.969 171.752 528.308 179.738 526.987 186.725C525.666 193.712 523.77 199.593 521.298 204.37C518.869 209.147 515.95 212.748 512.541 215.172C509.132 217.596 505.297 218.808 501.035 218.808C496.774 218.808 492.917 217.596 489.466 215.172C486.057 212.748 483.116 209.147 480.645 204.37C478.173 199.593 476.277 193.712 474.956 186.725C473.677 179.738 473.038 171.752 473.038 162.769ZM490.936 154.962V162.769C490.936 168.116 491.149 172.751 491.575 176.672C492.044 180.593 492.704 183.837 493.557 186.404C494.451 188.97 495.517 190.86 496.753 192.072C497.988 193.284 499.416 193.89 501.035 193.89C502.655 193.89 504.103 193.284 505.382 192.072C506.66 190.86 507.704 188.97 508.514 186.404C509.366 183.837 509.984 180.593 510.368 176.672C510.794 172.751 511.007 168.116 511.007 162.769V154.962C511.007 149.758 510.772 145.195 510.304 141.273C509.835 137.281 509.174 134.037 508.322 131.542C507.47 128.975 506.405 127.05 505.126 125.767C503.89 124.412 502.484 123.735 500.907 123.735C499.331 123.735 497.924 124.412 496.689 125.767C495.495 127.05 494.451 128.975 493.557 131.542C492.704 134.037 492.044 137.281 491.575 141.273C491.149 145.195 490.936 149.758 490.936 154.962Z" fill="url(#paint8_linear_1363_2656)"/>
<path d="M564.419 185.441C564.419 183.445 564.014 181.663 563.204 180.094C562.395 178.526 561.116 176.921 559.369 175.282C557.622 173.57 555.3 171.681 552.402 169.614C549.248 167.475 546.457 165.264 544.028 162.983C541.599 160.702 539.532 158.171 537.828 155.39C536.166 152.609 534.909 149.437 534.057 145.872C533.204 142.307 532.778 138.243 532.778 133.68C532.778 128.761 533.311 124.234 534.376 120.099C535.484 115.892 537.061 112.22 539.106 109.083C541.152 105.875 543.645 103.38 546.585 101.597C549.568 99.7436 552.913 98.8167 556.621 98.8167C561.819 98.8167 566.273 100.35 569.98 103.415C573.73 106.41 576.606 110.616 578.609 116.035C580.612 121.453 581.614 127.763 581.614 134.964H563.716C563.716 132.397 563.481 130.116 563.013 128.119C562.544 126.052 561.777 124.448 560.712 123.307C559.689 122.166 558.304 121.596 556.557 121.596C555.278 121.596 554.128 122.059 553.105 122.986C552.125 123.913 551.336 125.161 550.74 126.729C550.186 128.226 549.909 130.009 549.909 132.076C549.909 133.645 550.101 135.035 550.484 136.247C550.91 137.459 551.571 138.635 552.466 139.776C553.361 140.917 554.554 142.129 556.045 143.412C557.579 144.624 559.454 145.979 561.67 147.476C566.273 150.328 570.044 153.394 572.984 156.673C575.967 159.953 578.183 163.803 579.632 168.223C581.081 172.572 581.805 177.955 581.805 184.372C581.805 189.505 581.209 194.175 580.016 198.381C578.865 202.588 577.182 206.224 574.966 209.29C572.75 212.355 570.087 214.708 566.976 216.348C563.908 217.988 560.477 218.808 556.685 218.808C551.102 218.808 546.393 216.954 542.558 213.247C538.723 209.539 535.825 204.798 533.865 199.023C531.905 193.177 530.925 187.117 530.925 180.843H547.927C548.013 184.693 548.439 187.723 549.206 189.933C550.015 192.072 551.102 193.569 552.466 194.424C553.829 195.28 555.342 195.708 557.004 195.708C558.666 195.708 560.03 195.351 561.095 194.638C562.203 193.854 563.034 192.678 563.588 191.109C564.142 189.469 564.419 187.58 564.419 185.441Z" fill="url(#paint9_linear_1363_2656)"/>
<path d="M696.007 95.5862C696.544 96.0272 697.077 96.4718 697.607 96.9197C697.881 97.149 698.155 97.3784 698.437 97.6146C700.489 99.3918 702.199 101.329 703.844 103.485C704.035 103.729 704.227 103.973 704.424 104.224C711.461 113.679 713.735 125.459 712.05 136.966C710.578 146.164 706.002 154.362 699.364 160.81C697.191 162.99 695.514 165.309 694.325 168.149C694.207 168.43 694.09 168.711 693.969 169.001C692.327 173.394 691.938 178.234 691.823 182.89C691.749 185.282 691.749 185.282 691.042 186.203C690.014 186.839 689.225 186.942 688.025 186.945C687.508 186.948 687.508 186.948 686.981 186.952C686.604 186.951 686.228 186.95 685.84 186.949C685.442 186.951 685.044 186.953 684.635 186.955C683.545 186.958 682.455 186.959 681.365 186.958C680.455 186.958 679.544 186.96 678.634 186.961C676.486 186.965 674.338 186.965 672.19 186.963C669.976 186.961 667.761 186.965 665.546 186.972C663.644 186.978 661.741 186.98 659.838 186.979C658.702 186.978 657.567 186.979 656.431 186.983C655.164 186.988 653.897 186.985 652.631 186.981C652.255 186.984 651.879 186.986 651.492 186.989C650.974 186.986 650.974 186.986 650.445 186.982C649.996 186.982 649.996 186.982 649.538 186.982C648.515 186.832 647.895 186.469 647.057 185.875C646.419 184.937 646.317 184.17 646.3 183.05C646.292 182.757 646.285 182.464 646.277 182.162C646.27 181.85 646.264 181.539 646.257 181.218C645.953 172.212 643.543 165.401 637.005 159.122C629.314 151.486 625.899 140.152 625.639 129.56C625.961 117.279 630.82 106.208 639.706 97.7302C646.09 91.8225 653.976 88.262 662.485 86.744C662.837 86.6806 663.189 86.6171 663.552 86.5517C675.293 85.2553 686.703 88.3126 696.007 95.5862ZM644.431 100.859C644.186 101.054 643.94 101.25 643.687 101.451C641.809 102.999 640.33 104.843 638.851 106.767C638.552 107.152 638.552 107.152 638.246 107.544C632.488 115.317 630.229 125.28 631.467 134.819C631.669 136.101 631.962 137.351 632.286 138.607C632.368 138.927 632.368 138.927 632.452 139.253C634.321 146.355 638.096 152.084 643.344 157.194C649.787 163.578 651.073 172.327 651.981 180.951C663.247 180.951 674.512 180.951 686.119 180.951C686.444 178.459 686.769 175.968 687.104 173.401C688.632 166.844 690.526 161.491 695.529 156.804C701.572 151.088 705.077 143.436 706.47 135.325C706.513 135.083 706.556 134.84 706.601 134.591C707.96 125.117 705.312 115.125 699.746 107.392C696.992 103.747 693.656 100.267 689.73 97.9044C689.546 97.79 689.363 97.6755 689.174 97.5576C685.797 95.461 682.392 94.0494 678.569 92.9807C678.191 92.869 677.813 92.7573 677.424 92.6422C665.72 89.7262 653.52 93.3444 644.431 100.859Z" fill="url(#paint10_linear_1363_2656)"/>
<path d="M651.548 189.439C652.021 189.436 652.021 189.436 652.504 189.433C652.85 189.433 653.196 189.433 653.552 189.432C653.917 189.431 654.281 189.429 654.657 189.427C655.866 189.423 657.075 189.42 658.285 189.419C659.124 189.417 659.963 189.415 660.803 189.413C662.339 189.41 663.875 189.408 665.412 189.407C667.67 189.405 669.928 189.4 672.186 189.39C674.145 189.382 676.103 189.38 678.061 189.379C678.893 189.378 679.725 189.375 680.556 189.371C681.721 189.366 682.885 189.366 684.05 189.368C684.393 189.365 684.736 189.362 685.09 189.359C687.453 189.373 689.061 189.659 690.94 191.188C692.153 192.663 693.072 194.121 693.156 196.071C692.9 198.371 692.017 199.999 690.386 201.63C688.602 202.554 686.937 202.982 684.938 202.989C684.645 202.991 684.352 202.993 684.05 202.995C683.733 202.996 683.416 202.996 683.089 202.996C682.751 202.998 682.414 203 682.066 203.001C680.95 203.006 679.835 203.008 678.719 203.01C677.942 203.012 677.165 203.014 676.387 203.016C674.757 203.019 673.128 203.021 671.498 203.022C669.414 203.024 667.331 203.032 665.247 203.041C663.641 203.047 662.035 203.049 660.429 203.05C659.662 203.051 658.894 203.053 658.126 203.058C657.049 203.063 655.972 203.063 654.895 203.06C654.581 203.063 654.267 203.066 653.944 203.07C651.6 203.055 649.153 202.81 647.242 201.346C645.455 199.049 644.736 197.364 645.088 194.409C645.7 192.213 647.106 190.954 649.027 189.814C649.971 189.499 650.567 189.443 651.548 189.439ZM650.668 195.394C650.831 196.298 650.831 196.298 651.325 197.035C651.786 197.066 652.248 197.075 652.71 197.074C653.009 197.075 653.307 197.075 653.615 197.076C653.946 197.075 654.276 197.073 654.616 197.072C654.962 197.072 655.308 197.072 655.664 197.072C656.813 197.072 657.962 197.07 659.112 197.067C659.906 197.066 660.7 197.066 661.495 197.066C663.59 197.064 665.685 197.061 667.781 197.057C669.917 197.054 672.053 197.053 674.19 197.051C678.385 197.047 682.58 197.042 686.775 197.035C686.884 196.493 686.992 195.952 687.104 195.394C686.084 194.714 685.868 194.655 684.713 194.654C684.427 194.652 684.14 194.65 683.844 194.648C683.531 194.65 683.217 194.651 682.894 194.652C682.563 194.651 682.232 194.65 681.891 194.649C680.794 194.646 679.698 194.648 678.601 194.65C677.84 194.65 677.08 194.649 676.319 194.648C674.723 194.647 673.127 194.649 671.531 194.652C669.485 194.655 667.438 194.653 665.391 194.649C663.819 194.647 662.248 194.648 660.676 194.649C659.922 194.65 659.167 194.649 658.412 194.648C657.357 194.646 656.303 194.649 655.248 194.652C654.935 194.651 654.622 194.65 654.3 194.648C653.869 194.651 653.869 194.651 653.428 194.654C653.179 194.654 652.93 194.654 652.673 194.655C651.888 194.748 651.351 195.004 650.668 195.394Z" fill="url(#paint11_linear_1363_2656)"/>
<path d="M657.634 205.141C657.905 205.138 658.177 205.135 658.456 205.132C659.353 205.124 660.25 205.121 661.146 205.119C661.771 205.116 662.396 205.113 663.021 205.11C664.331 205.105 665.641 205.102 666.951 205.101C668.626 205.1 670.3 205.087 671.975 205.072C673.266 205.063 674.557 205.06 675.848 205.06C676.465 205.058 677.082 205.054 677.699 205.048C678.565 205.039 679.43 205.04 680.296 205.044C680.548 205.039 680.801 205.035 681.061 205.03C683.214 205.058 684.763 205.89 686.305 207.379C687.821 209.093 687.879 210.661 687.85 212.873C687.632 215.068 686.335 216.3 684.702 217.661C683.403 218.559 682.003 218.422 680.493 218.424C680.22 218.425 679.948 218.427 679.667 218.429C678.766 218.434 677.864 218.436 676.963 218.438C676.336 218.44 675.709 218.441 675.082 218.443C673.767 218.447 672.453 218.449 671.138 218.45C669.454 218.452 667.771 218.46 666.088 218.469C664.793 218.475 663.498 218.477 662.203 218.477C661.582 218.478 660.962 218.481 660.341 218.485C659.472 218.491 658.604 218.49 657.735 218.488C657.479 218.491 657.224 218.494 656.961 218.497C654.907 218.481 653.628 217.956 652.084 216.627C650.463 214.744 650.156 213.236 650.226 210.791C650.444 208.963 651.262 207.824 652.638 206.616C654.351 205.367 655.519 205.142 657.634 205.141ZM655.92 211.15C655.92 211.583 655.92 212.016 655.92 212.463C656.888 212.947 657.869 212.839 658.931 212.838C659.173 212.84 659.415 212.841 659.665 212.842C660.468 212.845 661.272 212.846 662.075 212.846C662.632 212.847 663.188 212.848 663.745 212.849C664.913 212.851 666.081 212.852 667.248 212.852C668.747 212.852 670.246 212.856 671.745 212.862C672.895 212.865 674.045 212.866 675.196 212.866C675.748 212.866 676.301 212.868 676.854 212.87C677.626 212.873 678.397 212.873 679.169 212.871C679.399 212.872 679.629 212.874 679.866 212.876C681.169 212.901 681.169 212.901 682.18 212.134C682.125 211.45 682.125 211.45 681.852 210.821C680.891 210.341 679.924 210.445 678.871 210.445C678.632 210.444 678.393 210.443 678.146 210.442C677.354 210.439 676.561 210.438 675.769 210.438C675.219 210.437 674.67 210.436 674.12 210.435C672.968 210.433 671.816 210.432 670.663 210.432C669.184 210.432 667.705 210.428 666.226 210.422C665.091 210.418 663.956 210.418 662.822 210.418C662.276 210.418 661.731 210.416 661.185 210.414C660.424 210.41 659.662 210.411 658.901 210.413C658.56 210.411 658.56 210.411 658.213 210.408C656.922 210.384 656.922 210.384 655.92 211.15Z" fill="url(#paint12_linear_1363_2656)"/>
<path d="M678.569 98.5609C680.252 99.1243 681.873 99.8089 683.493 100.53C683.79 100.659 684.087 100.787 684.393 100.919C686.733 101.999 688.715 103.514 690.714 105.126C690.996 105.352 691.277 105.579 691.567 105.812C697.898 111.2 701.893 119 702.676 127.262C702.718 127.795 702.759 128.329 702.798 128.862C702.819 129.117 702.841 129.373 702.863 129.636C702.954 131.173 702.874 132.099 701.875 133.355C701.04 133.988 700.633 134.015 699.577 133.971C698.372 133.619 698.025 133.384 697.279 132.37C697.009 131.261 696.915 130.141 696.807 129.006C696.028 122.383 693.852 117.063 689.401 112.019C689.152 111.724 689.152 111.724 688.899 111.423C684.37 106.444 677.295 103.716 670.712 103.32C667.947 103.14 667.947 103.14 666.752 102.172C666.239 101.084 666.239 101.084 666.096 99.8739C667.65 95.6764 675.107 97.5716 678.569 98.5609Z" fill="url(#paint13_linear_1363_2656)"/>
<path d="M629.332 62.4538C630.993 64.169 632.187 66.249 633.456 68.2596C633.921 68.9952 634.387 69.7308 634.852 70.4663C635.082 70.8307 635.313 71.1951 635.55 71.5705C636.172 72.5453 636.805 73.5113 637.445 74.4745C637.628 74.7537 637.811 75.0329 638 75.3205C638.339 75.8373 638.683 76.3516 639.03 76.8629C639.994 78.3459 640.397 79.339 640.164 81.1638C639.692 82.1281 639.692 82.1281 638.851 82.8051C637.809 83.0617 636.921 83.1418 635.897 82.8051C634.374 81.2594 633.289 79.3862 632.143 77.5531C630.895 75.5632 629.644 73.5792 628.338 71.6267C628.021 71.1463 628.021 71.1463 627.697 70.6561C627.291 70.0427 626.881 69.4322 626.466 68.8251C625.294 67.0372 624.782 65.9122 625.065 63.7668C626.059 61.9197 627.427 61.9611 629.332 62.4538Z" fill="url(#paint14_linear_1363_2656)"/>
<path d="M737.654 90.3547C738.433 90.683 738.433 90.683 738.967 91.3395C739.264 92.2326 739.432 93.0307 739.295 93.9655C738.425 95.2201 737.611 95.9194 736.264 96.6222C735.923 96.8026 735.582 96.983 735.231 97.1689C734.866 97.3575 734.501 97.546 734.125 97.7403C733.551 98.0415 732.978 98.3427 732.404 98.6444C732.011 98.8513 731.617 99.0577 731.223 99.2636C729.871 99.9724 728.533 100.705 727.201 101.451C726.847 101.648 726.493 101.845 726.129 102.048C725.455 102.424 724.782 102.803 724.111 103.185C723.806 103.354 723.5 103.523 723.185 103.697C722.92 103.847 722.654 103.997 722.381 104.151C721.39 104.54 720.657 104.571 719.6 104.469C718.656 103.792 718.656 103.792 717.959 102.828C717.756 101.565 717.764 100.863 718.414 99.7521C719.659 98.5 721.105 97.8409 722.677 97.0633C723.356 96.719 724.034 96.3741 724.712 96.0285C725.06 95.8521 725.407 95.6757 725.765 95.494C727.467 94.6177 729.145 93.6979 730.822 92.7756C731.415 92.4498 732.007 92.1241 732.6 91.7985C732.848 91.662 733.096 91.5255 733.351 91.3848C733.579 91.2615 733.807 91.1383 734.043 91.0112C734.266 90.8888 734.488 90.7663 734.718 90.6402C735.722 90.1908 736.571 90.2581 737.654 90.3547Z" fill="url(#paint15_linear_1363_2656)"/>
<path d="M602.744 90.3547C603.708 90.7074 603.708 90.7074 604.714 91.2369C604.903 91.3355 605.092 91.4341 605.287 91.5357C607.921 92.9285 610.503 94.4248 613.09 95.9029C614.834 96.8959 616.6 97.8333 618.392 98.7366C619.218 99.2561 619.649 99.6919 620.141 100.53C620.267 101.701 620.272 102.518 619.813 103.608C618.829 104.407 617.762 104.487 616.53 104.469C615.658 104.156 614.986 103.859 614.196 103.408C613.983 103.293 613.77 103.178 613.551 103.06C612.865 102.689 612.185 102.307 611.504 101.925C611.034 101.667 610.563 101.409 610.092 101.152C608.94 100.521 607.793 99.8809 606.648 99.2375C605.763 98.7411 604.874 98.251 603.985 97.7595C603.427 97.4463 602.87 97.1322 602.313 96.8171C602.065 96.6778 601.817 96.5385 601.561 96.3949C599.436 95.1615 599.436 95.1615 598.805 93.9655C598.828 92.6988 598.961 91.9258 599.667 90.8676C600.748 90.1565 601.465 90.2635 602.744 90.3547Z" fill="url(#paint16_linear_1363_2656)"/>
<path d="M669.695 50.1573C670.682 50.3809 671.045 50.8413 671.676 51.6216C671.843 52.5558 671.843 52.5558 671.846 53.6482C671.85 54.0578 671.854 54.4675 671.858 54.8896C671.856 55.3355 671.853 55.7814 671.85 56.2273C671.851 56.686 671.852 57.1446 671.854 57.6032C671.856 58.5635 671.853 59.5236 671.847 60.4838C671.84 61.7135 671.844 62.9428 671.852 64.1725C671.857 65.1193 671.855 66.066 671.852 67.0127C671.851 67.466 671.852 67.9194 671.855 68.3727C671.858 69.0067 671.852 69.6407 671.846 70.2746C671.844 70.8154 671.844 70.8154 671.843 71.367C671.637 72.5185 671.269 72.898 670.363 73.6142C669.254 74.052 668.81 73.9737 667.675 73.5731C666.602 72.8575 666.466 72.5236 666.096 71.3164C666.012 70.4198 666.012 70.4198 666.011 69.4386C666.009 69.0695 666.007 68.7003 666.005 68.3199C666.006 67.9243 666.007 67.5287 666.009 67.121C666.008 66.5074 666.008 66.5074 666.007 65.8814C666.006 64.7963 666.009 63.7112 666.012 62.6261C666.014 61.962 666.012 61.2979 666.01 60.6338C666.006 59.3564 666.007 58.0792 666.009 56.8018C666.007 56.4061 666.006 56.0105 666.005 55.6029C666.007 55.2337 666.009 54.8645 666.011 54.4842C666.011 54.1604 666.012 53.8366 666.012 53.503C666.103 52.5279 666.303 51.8344 666.752 50.9651C667.807 50.2617 668.451 50.2101 669.695 50.1573Z" fill="url(#paint17_linear_1363_2656)"/>
<path d="M712.707 63.1103C713.486 63.4385 713.486 63.4385 714.02 64.095C714.39 65.4138 714.559 66.2223 714.019 67.498C713.502 68.3776 712.947 69.2162 712.367 70.056C712.16 70.3674 711.953 70.6788 711.739 70.9997C711.077 71.992 710.405 72.9773 709.732 73.9629C709.288 74.6269 708.845 75.2913 708.402 75.9561C703.492 83.2813 703.492 83.2813 702.204 83.6483C701.109 83.7093 700.349 83.5306 699.413 82.9692C698.719 81.8127 698.679 80.8193 698.92 79.5226C699.478 78.3204 700.208 77.2553 700.957 76.1645C701.165 75.8515 701.373 75.5386 701.587 75.2161C702.252 74.2201 702.925 73.2299 703.598 72.2396C704.046 71.57 704.493 70.9001 704.94 70.2298C709.838 62.9124 709.838 62.9124 712.707 63.1103Z" fill="url(#paint18_linear_1363_2656)"/>
<defs>
<linearGradient id="paint0_linear_1363_2656" x1="290.903" y1="50.1573" x2="290.903" y2="218.808" gradientUnits="userSpaceOnUse">
<stop stop-color="white"/>
<stop offset="1" stop-color="#999999"/>
</linearGradient>
<linearGradient id="paint1_linear_1363_2656" x1="290.903" y1="50.1573" x2="290.903" y2="218.808" gradientUnits="userSpaceOnUse">
<stop stop-color="white"/>
<stop offset="1" stop-color="#999999"/>
</linearGradient>
<linearGradient id="paint2_linear_1363_2656" x1="290.903" y1="50.1573" x2="290.903" y2="218.808" gradientUnits="userSpaceOnUse">
<stop stop-color="white"/>
<stop offset="1" stop-color="#999999"/>
</linearGradient>
<linearGradient id="paint3_linear_1363_2656" x1="290.903" y1="50.1573" x2="290.903" y2="218.808" gradientUnits="userSpaceOnUse">
<stop stop-color="white"/>
<stop offset="1" stop-color="#999999"/>
</linearGradient>
<linearGradient id="paint4_linear_1363_2656" x1="290.903" y1="50.1573" x2="290.903" y2="218.808" gradientUnits="userSpaceOnUse">
<stop stop-color="white"/>
<stop offset="1" stop-color="#999999"/>
</linearGradient>
<linearGradient id="paint5_linear_1363_2656" x1="290.903" y1="50.1573" x2="290.903" y2="218.808" gradientUnits="userSpaceOnUse">
<stop stop-color="white"/>
<stop offset="1" stop-color="#999999"/>
</linearGradient>
<linearGradient id="paint6_linear_1363_2656" x1="290.903" y1="50.1573" x2="290.903" y2="218.808" gradientUnits="userSpaceOnUse">
<stop stop-color="white"/>
<stop offset="1" stop-color="#999999"/>
</linearGradient>
<linearGradient id="paint7_linear_1363_2656" x1="290.903" y1="50.1573" x2="290.903" y2="218.808" gradientUnits="userSpaceOnUse">
<stop stop-color="white"/>
<stop offset="1" stop-color="#999999"/>
</linearGradient>
<linearGradient id="paint8_linear_1363_2656" x1="290.903" y1="50.1573" x2="290.903" y2="218.808" gradientUnits="userSpaceOnUse">
<stop stop-color="white"/>
<stop offset="1" stop-color="#999999"/>
</linearGradient>
<linearGradient id="paint9_linear_1363_2656" x1="290.903" y1="50.1573" x2="290.903" y2="218.808" gradientUnits="userSpaceOnUse">
<stop stop-color="white"/>
<stop offset="1" stop-color="#999999"/>
</linearGradient>
<linearGradient id="paint10_linear_1363_2656" x1="669.074" y1="50.1573" x2="669.074" y2="218.497" gradientUnits="userSpaceOnUse">
<stop stop-color="#D7FF01"/>
<stop offset="1" stop-color="#819901"/>
</linearGradient>
<linearGradient id="paint11_linear_1363_2656" x1="669.074" y1="50.1573" x2="669.074" y2="218.497" gradientUnits="userSpaceOnUse">
<stop stop-color="#D7FF01"/>
<stop offset="1" stop-color="#819901"/>
</linearGradient>
<linearGradient id="paint12_linear_1363_2656" x1="669.074" y1="50.1573" x2="669.074" y2="218.497" gradientUnits="userSpaceOnUse">
<stop stop-color="#D7FF01"/>
<stop offset="1" stop-color="#819901"/>
</linearGradient>
<linearGradient id="paint13_linear_1363_2656" x1="669.074" y1="50.1573" x2="669.074" y2="218.497" gradientUnits="userSpaceOnUse">
<stop stop-color="#D7FF01"/>
<stop offset="1" stop-color="#819901"/>
</linearGradient>
<linearGradient id="paint14_linear_1363_2656" x1="669.074" y1="50.1573" x2="669.074" y2="218.497" gradientUnits="userSpaceOnUse">
<stop stop-color="#D7FF01"/>
<stop offset="1" stop-color="#819901"/>
</linearGradient>
<linearGradient id="paint15_linear_1363_2656" x1="669.074" y1="50.1573" x2="669.074" y2="218.497" gradientUnits="userSpaceOnUse">
<stop stop-color="#D7FF01"/>
<stop offset="1" stop-color="#819901"/>
</linearGradient>
<linearGradient id="paint16_linear_1363_2656" x1="669.074" y1="50.1573" x2="669.074" y2="218.497" gradientUnits="userSpaceOnUse">
<stop stop-color="#D7FF01"/>
<stop offset="1" stop-color="#819901"/>
</linearGradient>
<linearGradient id="paint17_linear_1363_2656" x1="669.074" y1="50.1573" x2="669.074" y2="218.497" gradientUnits="userSpaceOnUse">
<stop stop-color="#D7FF01"/>
<stop offset="1" stop-color="#819901"/>
</linearGradient>
<linearGradient id="paint18_linear_1363_2656" x1="669.074" y1="50.1573" x2="669.074" y2="218.497" gradientUnits="userSpaceOnUse">
<stop stop-color="#D7FF01"/>
<stop offset="1" stop-color="#819901"/>
</linearGradient>
</defs>
</svg>
