<svg width="1584" height="396" viewBox="0 0 1584 396" fill="none" xmlns="http://www.w3.org/2000/svg">
<g clip-path="url(#clip0_1376_3708)">
<path d="M1487.78 98.9282L1487.78 0.000501254C1438.57 0.000494681 1390.64 40.6986 1390.64 98.9282L1487.78 98.9282Z" fill="url(#paint0_linear_1376_3708)"/>
<path d="M1584.63 0.000931805L1487.49 0.000923157C1487.49 50.1242 1527.46 98.9286 1584.63 98.9286L1584.63 0.000931805Z" fill="url(#paint1_linear_1376_3708)"/>
<path d="M1487.49 98.6343L1487.49 197.562C1536.71 197.562 1584.63 156.864 1584.63 98.6344L1487.49 98.6343Z" fill="url(#paint2_linear_1376_3708)"/>
<ellipse cx="48.5694" cy="49.4633" rx="48.5694" ry="49.4633" transform="matrix(1 8.90318e-08 8.58428e-08 -1 1390.64 197.463)" fill="url(#paint3_linear_1376_3708)"/>
<path d="M1388.65 395.814C1442.29 395.814 1485.79 352.324 1485.79 298.676L1485.79 296.887C1432.14 296.887 1388.65 340.377 1388.65 394.025L1388.65 395.814Z" fill="url(#paint4_linear_1376_3708)"/>
<path d="M1388.65 200.14C1388.65 253.789 1432.14 297.28 1485.79 297.28L1485.79 295.493C1485.79 241.844 1442.3 198.353 1388.65 198.353L1388.65 200.14Z" fill="url(#paint5_linear_1376_3708)"/>
<ellipse cx="48.5694" cy="49.4633" rx="48.5694" ry="49.4633" transform="matrix(1 8.90318e-08 8.58428e-08 -1 1485.5 297.28)" fill="url(#paint6_linear_1376_3708)"/>
<path d="M1485.5 296.986L1485.5 395.914C1534.71 395.914 1582.64 355.216 1582.64 296.986L1485.5 296.986Z" fill="url(#paint7_linear_1376_3708)"/>
<path d="M1291.44 395.863L1291.44 296.935C1242.22 296.935 1194.3 337.634 1194.3 395.863L1291.44 395.863Z" fill="url(#paint8_linear_1376_3708)"/>
<ellipse cx="48.5694" cy="49.4633" rx="48.5694" ry="49.4633" transform="matrix(-1 0 0 1 1388.29 297.034)" fill="url(#paint9_linear_1376_3708)"/>
<path d="M1097.85 297.934C1044.64 297.934 1001.5 341.072 1001.5 394.284L1001.5 396.059C1054.71 396.059 1097.85 352.921 1097.85 299.708L1097.85 297.934Z" fill="url(#paint10_linear_1376_3708)"/>
<path d="M1097.56 396.058H1193.91C1193.91 346.342 1154.27 297.933 1097.56 297.933V396.058Z" fill="url(#paint11_linear_1376_3708)"/>
<path d="M1291.51 297.864C1345.16 297.845 1388.63 254.339 1388.61 200.69L1388.61 198.901C1334.97 198.921 1291.49 242.427 1291.51 296.075L1291.51 297.864Z" fill="url(#paint12_linear_1376_3708)"/>
<path d="M1388.61 197.41C1388.59 143.761 1345.09 100.285 1291.44 100.305L1291.44 102.092C1291.46 155.74 1334.96 199.216 1388.61 199.196L1388.61 197.41Z" fill="url(#paint13_linear_1376_3708)"/>
<rect width="98.9265" height="97.1387" transform="matrix(-0.000347725 -1 -1 0.000360643 1291.41 199.524)" fill="url(#paint14_linear_1376_3708)"/>
<ellipse cx="49.4633" cy="48.5694" rx="49.4633" ry="48.5694" transform="matrix(-0.000347725 -1 -1 0.000360643 1291.15 297.865)" fill="url(#paint15_linear_1376_3708)"/>
<path d="M6.92051 174V116.193H26.9493C33.137 116.193 38.2935 117.496 42.4186 120.101C46.5981 122.653 49.7191 126.126 51.7817 130.523C53.8443 134.865 54.8755 139.696 54.8755 145.015C54.8755 150.877 53.7357 155.98 51.456 160.322C49.1763 164.664 45.9467 168.029 41.7673 170.418C37.5878 172.806 32.6485 174 26.9493 174H6.92051ZM47.4665 145.015C47.4665 140.673 46.6524 136.819 45.024 133.454C43.4499 130.089 41.1431 127.456 38.1035 125.556C35.0639 123.657 31.3458 122.707 26.9493 122.707H14.2481V167.487H26.9493C31.4001 167.487 35.1453 166.51 38.1849 164.556C41.2245 162.547 43.5313 159.86 45.1054 156.495C46.6795 153.076 47.4665 149.249 47.4665 145.015ZM82.8686 174.814C79.6662 174.814 76.7351 174.244 74.0755 173.104C71.4701 171.91 69.1904 170.309 67.2364 168.301C65.3367 166.238 63.844 163.877 62.7584 161.217C61.7271 158.558 61.2115 155.735 61.2115 152.75C61.2115 148.733 62.1342 145.07 63.9797 141.759C65.8252 138.448 68.3763 135.788 71.633 133.78C74.9439 131.771 78.7163 130.767 82.95 130.767C87.238 130.767 90.9561 131.798 94.1043 133.861C97.3067 135.869 99.7764 138.529 101.513 141.84C103.304 145.097 104.2 148.625 104.2 152.424C104.2 152.967 104.173 153.51 104.119 154.053C104.119 154.541 104.091 154.921 104.037 155.193H68.7833C69.0005 157.961 69.7604 160.43 71.063 162.602C72.42 164.718 74.1569 166.401 76.2738 167.649C78.3906 168.844 80.6703 169.441 83.1129 169.441C85.7182 169.441 88.1608 168.789 90.4405 167.487C92.7744 166.184 94.3756 164.474 95.2441 162.357L101.432 164.067C100.509 166.13 99.125 167.975 97.2795 169.603C95.4884 171.232 93.3444 172.507 90.8475 173.43C88.405 174.353 85.7454 174.814 82.8686 174.814ZM68.5391 150.226H97.5238C97.3067 147.458 96.5196 145.015 95.1627 142.898C93.8057 140.782 92.0688 139.126 89.952 137.932C87.8351 136.738 85.5011 136.141 82.95 136.141C80.4532 136.141 78.1464 136.738 76.0295 137.932C73.9127 139.126 72.1757 140.782 70.8188 142.898C69.5161 145.015 68.7562 147.458 68.5391 150.226ZM126.738 174.814C123.21 174.814 119.899 174.244 116.805 173.104C113.711 171.91 111.052 170.146 108.826 167.812L111.594 162.764C114.037 165.044 116.479 166.672 118.922 167.649C121.365 168.626 123.861 169.115 126.412 169.115C129.343 169.115 131.732 168.572 133.577 167.487C135.423 166.347 136.345 164.691 136.345 162.52C136.345 160.946 135.857 159.779 134.88 159.019C133.957 158.259 132.627 157.635 130.89 157.147C129.154 156.604 127.091 156.007 124.703 155.355C121.772 154.487 119.302 153.564 117.294 152.587C115.285 151.61 113.766 150.389 112.734 148.923C111.703 147.458 111.187 145.612 111.187 143.387C111.187 140.673 111.893 138.393 113.304 136.548C114.715 134.648 116.642 133.21 119.085 132.233C121.582 131.256 124.404 130.767 127.552 130.767C130.7 130.767 133.55 131.256 136.101 132.233C138.652 133.21 140.851 134.648 142.696 136.548L139.439 141.514C137.757 139.777 135.911 138.502 133.903 137.688C131.895 136.819 129.642 136.385 127.145 136.385C125.68 136.385 124.241 136.575 122.83 136.955C121.419 137.281 120.252 137.905 119.329 138.828C118.406 139.696 117.945 140.944 117.945 142.573C117.945 143.93 118.298 145.015 119.003 145.829C119.763 146.589 120.849 147.241 122.26 147.783C123.726 148.326 125.49 148.923 127.552 149.575C130.755 150.497 133.523 151.42 135.857 152.343C138.245 153.266 140.091 154.46 141.393 155.925C142.696 157.391 143.347 159.426 143.347 162.032C143.347 166.048 141.828 169.196 138.788 171.476C135.748 173.701 131.732 174.814 126.738 174.814ZM170.727 174.814C167.524 174.814 164.593 174.244 161.933 173.104C159.328 171.91 157.048 170.309 155.094 168.301C153.195 166.238 151.702 163.877 150.616 161.217C149.585 158.558 149.069 155.735 149.069 152.75C149.069 148.733 149.992 145.07 151.838 141.759C153.683 138.448 156.234 135.788 159.491 133.78C162.802 131.771 166.574 130.767 170.808 130.767C175.096 130.767 178.814 131.798 181.962 133.861C185.165 135.869 187.634 138.529 189.371 141.84C191.162 145.097 192.058 148.625 192.058 152.424C192.058 152.967 192.031 153.51 191.977 154.053C191.977 154.541 191.949 154.921 191.895 155.193H156.641C156.858 157.961 157.618 160.43 158.921 162.602C160.278 164.718 162.015 166.401 164.132 167.649C166.249 168.844 168.528 169.441 170.971 169.441C173.576 169.441 176.019 168.789 178.298 167.487C180.632 166.184 182.234 164.474 183.102 162.357L189.29 164.067C188.367 166.13 186.983 167.975 185.138 169.603C183.346 171.232 181.202 172.507 178.706 173.43C176.263 174.353 173.603 174.814 170.727 174.814ZM156.397 150.226H185.382C185.165 147.458 184.378 145.015 183.021 142.898C181.664 140.782 179.927 139.126 177.81 137.932C175.693 136.738 173.359 136.141 170.808 136.141C168.311 136.141 166.004 136.738 163.888 137.932C161.771 139.126 160.034 140.782 158.677 142.898C157.374 145.015 156.614 147.458 156.397 150.226ZM236.905 174H229.74V150.226C229.74 145.721 229.034 142.437 227.623 140.374C226.266 138.258 224.176 137.199 221.354 137.199C219.4 137.199 217.446 137.688 215.492 138.665C213.592 139.642 211.882 140.972 210.362 142.654C208.897 144.283 207.838 146.182 207.187 148.353V174H200.022V131.5H206.536V140.619C207.676 138.61 209.141 136.874 210.932 135.408C212.724 133.942 214.759 132.803 217.039 131.988C219.318 131.174 221.707 130.767 224.203 130.767C226.646 130.767 228.681 131.229 230.31 132.151C231.992 133.02 233.295 134.268 234.218 135.897C235.195 137.471 235.873 139.343 236.253 141.514C236.687 143.685 236.905 146.047 236.905 148.598V174ZM259.384 174L242.693 131.5H250.184L263.536 167.161L276.889 131.5H283.891L267.2 174H259.384ZM308.193 174.814C304.99 174.814 302.086 174.244 299.481 173.104C296.876 171.91 294.623 170.309 292.723 168.301C290.824 166.238 289.358 163.877 288.327 161.217C287.296 158.558 286.78 155.762 286.78 152.831C286.78 149.846 287.296 147.024 288.327 144.364C289.358 141.704 290.824 139.37 292.723 137.362C294.623 135.299 296.876 133.698 299.481 132.558C302.141 131.364 305.045 130.767 308.193 130.767C311.395 130.767 314.299 131.364 316.904 132.558C319.51 133.698 321.762 135.299 323.662 137.362C325.616 139.37 327.109 141.704 328.14 144.364C329.171 147.024 329.687 149.846 329.687 152.831C329.687 155.762 329.171 158.558 328.14 161.217C327.109 163.877 325.643 166.238 323.744 168.301C321.844 170.309 319.564 171.91 316.904 173.104C314.299 174.244 311.395 174.814 308.193 174.814ZM294.108 152.913C294.108 155.844 294.732 158.503 295.98 160.892C297.283 163.28 298.993 165.18 301.109 166.591C303.226 167.948 305.587 168.626 308.193 168.626C310.798 168.626 313.159 167.921 315.276 166.51C317.447 165.098 319.157 163.199 320.405 160.81C321.708 158.368 322.359 155.681 322.359 152.75C322.359 149.819 321.708 147.159 320.405 144.771C319.157 142.383 317.447 140.483 315.276 139.072C313.159 137.661 310.798 136.955 308.193 136.955C305.587 136.955 303.226 137.688 301.109 139.153C298.993 140.564 297.283 142.464 295.98 144.852C294.732 147.241 294.108 149.927 294.108 152.913ZM338.532 114.565H345.696V163.009C345.696 165.343 346.022 166.781 346.673 167.324C347.325 167.867 348.112 168.138 349.035 168.138C350.174 168.138 351.26 168.029 352.291 167.812C353.323 167.541 354.191 167.269 354.897 166.998L356.036 172.86C354.842 173.349 353.431 173.756 351.803 174.081C350.174 174.407 348.736 174.57 347.488 174.57C344.719 174.57 342.521 173.783 340.893 172.209C339.319 170.635 338.532 168.436 338.532 165.614V114.565ZM372.288 174L355.597 131.5H363.087L376.44 167.161L389.792 131.5H396.794L380.104 174H372.288ZM421.341 174.814C418.138 174.814 415.207 174.244 412.547 173.104C409.942 171.91 407.662 170.309 405.708 168.301C403.809 166.238 402.316 163.877 401.23 161.217C400.199 158.558 399.683 155.735 399.683 152.75C399.683 148.733 400.606 145.07 402.452 141.759C404.297 138.448 406.848 135.788 410.105 133.78C413.416 131.771 417.188 130.767 421.422 130.767C425.71 130.767 429.428 131.798 432.576 133.861C435.779 135.869 438.248 138.529 439.985 141.84C441.776 145.097 442.672 148.625 442.672 152.424C442.672 152.967 442.645 153.51 442.591 154.053C442.591 154.541 442.563 154.921 442.509 155.193H407.255C407.472 157.961 408.232 160.43 409.535 162.602C410.892 164.718 412.629 166.401 414.746 167.649C416.863 168.844 419.142 169.441 421.585 169.441C424.19 169.441 426.633 168.789 428.912 167.487C431.246 166.184 432.848 164.474 433.716 162.357L439.904 164.067C438.981 166.13 437.597 167.975 435.751 169.603C433.96 171.232 431.816 172.507 429.319 173.43C426.877 174.353 424.217 174.814 421.341 174.814ZM407.011 150.226H435.996C435.779 147.458 434.992 145.015 433.635 142.898C432.278 140.782 430.541 139.126 428.424 137.932C426.307 136.738 423.973 136.141 421.422 136.141C418.925 136.141 416.618 136.738 414.501 137.932C412.385 139.126 410.648 140.782 409.291 142.898C407.988 145.015 407.228 147.458 407.011 150.226ZM447.868 152.831C447.868 148.815 448.682 145.151 450.311 141.84C451.993 138.475 454.273 135.788 457.15 133.78C460.081 131.771 463.419 130.767 467.164 130.767C470.584 130.767 473.65 131.663 476.364 133.454C479.078 135.245 481.195 137.416 482.715 139.967V114.565H489.88V165.858C489.88 166.727 490.042 167.378 490.368 167.812C490.748 168.192 491.345 168.409 492.159 168.464V174C490.802 174.217 489.744 174.326 488.984 174.326C487.573 174.326 486.324 173.837 485.239 172.86C484.207 171.883 483.692 170.798 483.692 169.603V166.021C482.009 168.735 479.757 170.879 476.934 172.453C474.112 174.027 471.181 174.814 468.141 174.814C465.21 174.814 462.496 174.244 459.999 173.104C457.557 171.91 455.413 170.282 453.567 168.219C451.776 166.157 450.365 163.823 449.334 161.217C448.357 158.558 447.868 155.762 447.868 152.831ZM482.715 159.101V146.888C482.063 145.042 481.005 143.387 479.54 141.921C478.074 140.402 476.419 139.207 474.573 138.339C472.782 137.416 470.991 136.955 469.199 136.955C467.083 136.955 465.156 137.416 463.419 138.339C461.736 139.207 460.271 140.402 459.022 141.921C457.828 143.387 456.905 145.07 456.254 146.969C455.603 148.869 455.277 150.85 455.277 152.913C455.277 155.03 455.63 157.038 456.335 158.938C457.095 160.837 458.127 162.52 459.429 163.986C460.786 165.451 462.333 166.591 464.07 167.405C465.861 168.219 467.788 168.626 469.851 168.626C471.154 168.626 472.483 168.382 473.84 167.894C475.252 167.405 476.581 166.727 477.83 165.858C479.078 164.99 480.137 163.986 481.005 162.846C481.874 161.652 482.443 160.403 482.715 159.101ZM520.404 174.814C517.201 174.814 514.297 174.244 511.692 173.104C509.087 171.91 506.834 170.309 504.934 168.301C503.034 166.238 501.569 163.877 500.538 161.217C499.506 158.558 498.991 155.762 498.991 152.831C498.991 149.846 499.506 147.024 500.538 144.364C501.569 141.704 503.034 139.37 504.934 137.362C506.834 135.299 509.087 133.698 511.692 132.558C514.352 131.364 517.255 130.767 520.404 130.767C523.606 130.767 526.51 131.364 529.115 132.558C531.721 133.698 533.973 135.299 535.873 137.362C537.827 139.37 539.32 141.704 540.351 144.364C541.382 147.024 541.898 149.846 541.898 152.831C541.898 155.762 541.382 158.558 540.351 161.217C539.32 163.877 537.854 166.238 535.954 168.301C534.055 170.309 531.775 171.91 529.115 173.104C526.51 174.244 523.606 174.814 520.404 174.814ZM506.318 152.913C506.318 155.844 506.943 158.503 508.191 160.892C509.494 163.28 511.203 165.18 513.32 166.591C515.437 167.948 517.798 168.626 520.404 168.626C523.009 168.626 525.37 167.921 527.487 166.51C529.658 165.098 531.368 163.199 532.616 160.81C533.919 158.368 534.57 155.681 534.57 152.75C534.57 149.819 533.919 147.159 532.616 144.771C531.368 142.383 529.658 140.483 527.487 139.072C525.37 137.661 523.009 136.955 520.404 136.955C517.798 136.955 515.437 137.688 513.32 139.153C511.203 140.564 509.494 142.464 508.191 144.852C506.943 147.241 506.318 149.927 506.318 152.913ZM573.051 137.769C569.469 137.823 566.293 138.746 563.525 140.537C560.811 142.274 558.884 144.69 557.744 147.783V174H550.58V131.5H557.256V141.351C558.721 138.42 560.648 136.059 563.037 134.268C565.479 132.423 568.03 131.391 570.69 131.174C571.233 131.174 571.694 131.174 572.074 131.174C572.454 131.174 572.78 131.201 573.051 131.256V137.769ZM576.819 161.706C576.819 158.992 577.579 156.658 579.099 154.704C580.673 152.696 582.817 151.149 585.531 150.063C588.245 148.978 591.393 148.435 594.975 148.435C596.875 148.435 598.883 148.598 601 148.923C603.117 149.195 604.99 149.629 606.618 150.226V147.132C606.618 143.875 605.641 141.324 603.687 139.479C601.733 137.579 598.965 136.629 595.382 136.629C593.048 136.629 590.796 137.063 588.625 137.932C586.508 138.746 584.255 139.94 581.867 141.514L579.262 136.466C582.03 134.567 584.798 133.155 587.566 132.233C590.334 131.256 593.211 130.767 596.196 130.767C601.624 130.767 605.912 132.287 609.06 135.327C612.209 138.312 613.783 142.491 613.783 147.865V165.858C613.783 166.727 613.946 167.378 614.271 167.812C614.651 168.192 615.248 168.409 616.062 168.464V174C615.357 174.109 614.733 174.19 614.19 174.244C613.701 174.299 613.294 174.326 612.969 174.326C611.286 174.326 610.01 173.864 609.142 172.942C608.328 172.019 607.866 171.042 607.758 170.011L607.595 167.324C605.749 169.712 603.334 171.557 600.349 172.86C597.363 174.163 594.405 174.814 591.474 174.814C588.652 174.814 586.128 174.244 583.902 173.104C581.677 171.91 579.94 170.336 578.692 168.382C577.443 166.374 576.819 164.148 576.819 161.706ZM604.501 164.718C605.152 163.958 605.668 163.199 606.048 162.439C606.428 161.625 606.618 160.946 606.618 160.403V155.111C604.935 154.46 603.171 153.971 601.326 153.646C599.48 153.266 597.662 153.076 595.871 153.076C592.234 153.076 589.276 153.808 586.996 155.274C584.771 156.685 583.658 158.639 583.658 161.136C583.658 162.493 584.011 163.823 584.717 165.125C585.476 166.374 586.562 167.405 587.973 168.219C589.439 169.034 591.23 169.441 593.347 169.441C595.572 169.441 597.689 169.006 599.697 168.138C601.706 167.215 603.307 166.075 604.501 164.718Z" fill="#990DCE"/>
<path d="M4.32333 295.778V278.262H19.1568V209.61H4.32333V192.093H97.1258V224.071H77.2981V209.61H46.1404V233.612H68.5769V251.129H46.1404V278.262H62.0919V295.778H4.32333ZM101.449 209.61V192.093H150.944V209.61H140.732V256.496C140.732 262.757 140.98 267.279 141.477 270.062C142.024 272.795 143.415 275.056 145.651 276.845C147.888 278.634 150.72 279.529 154.149 279.529C157.677 279.529 160.609 278.684 162.945 276.994C165.28 275.305 166.771 273.193 167.417 270.658C168.113 268.124 168.461 262.956 168.461 255.154V209.61H158.398V192.093H199.693V209.61H187.021V261.49C187.021 268.546 186.649 273.69 185.903 276.92C185.158 280.1 183.443 283.281 180.76 286.461C178.076 289.592 174.175 292.151 169.057 294.139C163.988 296.077 158.149 297.046 151.54 297.046C143.887 297.046 137.353 295.977 131.936 293.84C126.569 291.654 122.569 288.772 119.935 285.194C117.301 281.616 115.612 278.063 114.866 274.535C114.121 271.006 113.748 264.993 113.748 256.496V209.61H101.449ZM206.253 295.778V278.262H221.086V209.61H206.253V192.093H263.201V209.61H248.07V278.262H278.706V246.209H298.906V295.778H206.253ZM304.944 295.778V278.262H319.777V209.61H304.944V192.093H361.892V209.61H346.761V278.262H377.397V246.209H397.597V295.778H304.944ZM404.828 269.764V249.638H446.495V269.764H404.828ZM459.242 295.778V260.446H476.833C477.032 266.907 478.722 271.677 481.902 274.758C485.082 277.789 488.71 279.305 492.785 279.305C495.965 279.305 498.649 278.212 500.835 276.025C503.022 273.789 504.115 271.18 504.115 268.199C504.115 265.018 503.047 262.36 500.91 260.223C498.773 258.036 494.872 255.552 489.207 252.769C477.231 246.955 469.081 241.836 464.758 237.414C460.484 232.991 458.347 227.028 458.347 219.524C458.347 210.48 461.18 203.473 466.845 198.504C472.51 193.534 478.945 191.05 486.151 191.05C494.4 191.05 500.786 194.255 505.308 200.665V192.093H522.825V223.624H505.308C504.761 218.754 503.071 215.002 500.239 212.368C497.456 209.685 494.201 208.343 490.474 208.343C487.592 208.343 485.157 209.113 483.169 210.654C481.181 212.194 480.188 214.207 480.188 216.691C480.188 218.828 481.008 220.866 482.647 222.804C484.287 224.692 489.083 227.4 497.034 230.929C504.686 234.357 510.55 237.463 514.625 240.246C518.75 242.979 522.005 246.557 524.39 250.98C526.775 255.353 527.968 260.422 527.968 266.186C527.968 276.423 524.986 284.125 519.023 289.293C513.06 294.462 506.003 297.046 497.854 297.046C488.76 297.046 481.753 293.691 476.833 286.983V295.778H459.242ZM555.622 295.778V278.262H571.201V209.61H555.622V233.761H537.807V192.093H631.802V233.761H614.211V209.61H598.185V278.262H613.764V295.778H555.622ZM738.544 278.262V295.778H687.558V278.262H700.826L695.907 260.446H668.998L663.482 278.262H677.346V295.778H631.43V278.262H644.251L664.451 209.61H650.661V192.093H718.343V209.61H704.404L726.17 278.262H738.544ZM691.658 245.24L683.011 214.008L673.694 245.24H691.658ZM828.514 192.093H846.031V228.618H828.514C823.544 215.499 814.923 208.939 802.648 208.939C792.511 208.939 784.833 212.393 779.615 219.3C774.447 226.208 771.863 234.482 771.863 244.122C771.863 254.21 774.596 262.384 780.063 268.646C785.579 274.858 792.585 277.963 801.083 277.963C808.04 277.963 814.128 275.603 819.345 270.882C824.563 266.161 828.091 259.602 829.93 251.203L850.354 260.968C842.602 285.02 825.532 297.046 799.145 297.046C780.51 297.046 766.447 292.027 756.955 281.989C747.513 271.95 742.793 259.254 742.793 243.899C742.793 232.966 745.252 223.4 750.172 215.201C755.092 207.001 761.701 200.839 770 196.715C778.348 192.54 787.492 190.453 797.431 190.453C809.804 190.453 820.165 193.683 828.514 200.143V192.093ZM857.584 295.778V278.262H871.523V209.61H857.584V192.093H911.626V209.61H898.507V278.262H910.582V295.778H857.584ZM918.633 295.778V278.262H930.708L899.327 241.364L933.168 209.61H920.794V192.093H971.407V209.61H958.735L929.516 238.233L963.506 278.262H974.24V295.778H918.633Z" fill="white"/>
</g>
<defs>
<linearGradient id="paint0_linear_1376_3708" x1="1487.71" y1="56.1899" x2="1403.94" y2="56.2606" gradientUnits="userSpaceOnUse">
<stop stop-color="white"/>
<stop offset="1" stop-color="#C6C6C6" stop-opacity="0.8"/>
</linearGradient>
<linearGradient id="paint1_linear_1376_3708" x1="1578.15" y1="49.4648" x2="1493.97" y2="49.4647" gradientUnits="userSpaceOnUse">
<stop stop-color="#819901"/>
<stop offset="1" stop-color="#D7FF01"/>
</linearGradient>
<linearGradient id="paint2_linear_1376_3708" x1="1495.05" y1="140.213" x2="1576.89" y2="140.4" gradientUnits="userSpaceOnUse">
<stop stop-color="#D7FF01"/>
<stop offset="1" stop-color="#819901"/>
</linearGradient>
<linearGradient id="paint3_linear_1376_3708" x1="48.5694" y1="98.9265" x2="48.5693" y2="-5.5039e-06" gradientUnits="userSpaceOnUse">
<stop stop-color="#990DCE"/>
<stop offset="1" stop-color="#4D0768"/>
</linearGradient>
<linearGradient id="paint4_linear_1376_3708" x1="1472.98" y1="346.398" x2="1401.36" y2="346.398" gradientUnits="userSpaceOnUse">
<stop stop-color="#990DCE"/>
<stop offset="1" stop-color="#4D0768"/>
</linearGradient>
<linearGradient id="paint5_linear_1376_3708" x1="1437.22" y1="284.081" x2="1437.22" y2="198.353" gradientUnits="userSpaceOnUse">
<stop stop-color="#990DCE"/>
<stop offset="1" stop-color="#4D0768"/>
</linearGradient>
<linearGradient id="paint6_linear_1376_3708" x1="0" y1="49.4633" x2="97.1387" y2="49.4633" gradientUnits="userSpaceOnUse">
<stop stop-color="#D7FF01"/>
<stop offset="1" stop-color="#819901"/>
</linearGradient>
<linearGradient id="paint7_linear_1376_3708" x1="1492.69" y1="338.954" x2="1575.28" y2="339.116" gradientUnits="userSpaceOnUse">
<stop stop-color="white"/>
<stop offset="1" stop-color="#C6C6C6" stop-opacity="0.8"/>
</linearGradient>
<linearGradient id="paint8_linear_1376_3708" x1="1243.06" y1="312.511" x2="1242.86" y2="395.863" gradientUnits="userSpaceOnUse">
<stop stop-color="#D7FF01"/>
<stop offset="1" stop-color="#819901"/>
</linearGradient>
<linearGradient id="paint9_linear_1376_3708" x1="97.1387" y1="49.4633" x2="0" y2="49.4633" gradientUnits="userSpaceOnUse">
<stop stop-color="#990DCE"/>
<stop offset="1" stop-color="#4D0768"/>
</linearGradient>
<linearGradient id="paint10_linear_1376_3708" x1="1049.48" y1="312.265" x2="1049.48" y2="382.38" gradientUnits="userSpaceOnUse">
<stop stop-color="white"/>
<stop offset="1" stop-color="#C6C6C6" stop-opacity="0.8"/>
</linearGradient>
<linearGradient id="paint11_linear_1376_3708" x1="1145.43" y1="311.518" x2="1145.75" y2="396.058" gradientUnits="userSpaceOnUse">
<stop stop-color="white"/>
<stop offset="1" stop-color="#C6C6C6"/>
</linearGradient>
<linearGradient id="paint12_linear_1376_3708" x1="1340.4" y1="284.122" x2="1340.38" y2="212.306" gradientUnits="userSpaceOnUse">
<stop stop-color="#D7FF01"/>
<stop offset="1" stop-color="#819901"/>
</linearGradient>
<linearGradient id="paint13_linear_1376_3708" x1="1304.68" y1="149.789" x2="1375.2" y2="149.715" gradientUnits="userSpaceOnUse">
<stop stop-color="#990DCE"/>
<stop offset="1" stop-color="#4D0768"/>
</linearGradient>
<linearGradient id="paint14_linear_1376_3708" x1="49.4633" y1="0" x2="49.4633" y2="97.1387" gradientUnits="userSpaceOnUse">
<stop stop-color="#D7FF01"/>
<stop offset="1" stop-color="#819901"/>
</linearGradient>
<linearGradient id="paint15_linear_1376_3708" x1="49.4633" y1="0" x2="49.4633" y2="97.1387" gradientUnits="userSpaceOnUse">
<stop stop-color="white"/>
<stop offset="1" stop-color="#C6C6C6"/>
</linearGradient>
<clipPath id="clip0_1376_3708">
<rect width="1584" height="396" fill="white"/>
</clipPath>
</defs>
</svg>
