<svg width="1584" height="396" viewBox="0 0 1584 396" fill="none" xmlns="http://www.w3.org/2000/svg">
<g clip-path="url(#clip0_1376_3708)">
<path d="M1487.78 98.9282L1487.78 0.000501254C1438.57 0.000494681 1390.64 40.6986 1390.64 98.9282L1487.78 98.9282Z" fill="url(#paint0_linear_1376_3708)"/>
<path d="M1584.63 0.000931805L1487.49 0.000923157C1487.49 50.1242 1527.46 98.9286 1584.63 98.9286L1584.63 0.000931805Z" fill="url(#paint1_linear_1376_3708)"/>
<path d="M1487.49 98.6343L1487.49 197.562C1536.71 197.562 1584.63 156.864 1584.63 98.6344L1487.49 98.6343Z" fill="url(#paint2_linear_1376_3708)"/>
<ellipse cx="48.5694" cy="49.4633" rx="48.5694" ry="49.4633" transform="matrix(1 8.90318e-08 8.58428e-08 -1 1390.64 197.463)" fill="url(#paint3_linear_1376_3708)"/>
<path d="M1388.65 395.814C1442.29 395.814 1485.79 352.324 1485.79 298.676L1485.79 296.887V296.887C1432.14 296.887 1388.65 340.377 1388.65 394.025L1388.65 395.814V395.814Z" fill="url(#paint4_linear_1376_3708)"/>
<path d="M1388.65 200.14C1388.65 253.789 1432.14 297.28 1485.79 297.28V297.28L1485.79 295.493C1485.79 241.844 1442.3 198.353 1388.65 198.353V198.353L1388.65 200.14Z" fill="url(#paint5_linear_1376_3708)"/>
<ellipse cx="48.5694" cy="49.4633" rx="48.5694" ry="49.4633" transform="matrix(1 8.90318e-08 8.58428e-08 -1 1485.5 297.28)" fill="url(#paint6_linear_1376_3708)"/>
<path d="M1485.5 296.986L1485.5 395.914C1534.71 395.914 1582.64 355.216 1582.64 296.986L1485.5 296.986Z" fill="url(#paint7_linear_1376_3708)"/>
<path d="M1291.44 395.863L1291.44 296.935C1242.22 296.935 1194.3 337.634 1194.3 395.863L1291.44 395.863Z" fill="url(#paint8_linear_1376_3708)"/>
<ellipse cx="48.5694" cy="49.4633" rx="48.5694" ry="49.4633" transform="matrix(-1 0 0 1 1388.29 297.034)" fill="url(#paint9_linear_1376_3708)"/>
<path d="M1097.85 297.934C1044.64 297.934 1001.5 341.072 1001.5 394.284L1001.5 396.059V396.059C1054.71 396.059 1097.85 352.921 1097.85 299.708L1097.85 297.934V297.934Z" fill="url(#paint10_linear_1376_3708)"/>
<path d="M1097.56 396.058H1193.91C1193.91 346.342 1154.27 297.933 1097.56 297.933V396.058Z" fill="url(#paint11_linear_1376_3708)"/>
<path d="M1291.51 297.864C1345.16 297.845 1388.63 254.339 1388.61 200.69L1388.61 198.901V198.901C1334.97 198.921 1291.49 242.427 1291.51 296.075L1291.51 297.864V297.864Z" fill="url(#paint12_linear_1376_3708)"/>
<path d="M1388.61 197.41C1388.59 143.761 1345.09 100.285 1291.44 100.305V100.305L1291.44 102.092C1291.46 155.74 1334.96 199.216 1388.61 199.196V199.196L1388.61 197.41Z" fill="url(#paint13_linear_1376_3708)"/>
<rect width="98.9265" height="97.1387" transform="matrix(-0.000347725 -1 -1 0.000360643 1291.41 199.524)" fill="url(#paint14_linear_1376_3708)"/>
<ellipse cx="49.4633" cy="48.5694" rx="49.4633" ry="48.5694" transform="matrix(-0.000347725 -1 -1 0.000360643 1291.15 297.865)" fill="url(#paint15_linear_1376_3708)"/>
<path d="M5.44 136V90.56H21.184C26.048 90.56 30.1013 91.584 33.344 93.632C36.6293 95.6373 39.0827 98.368 40.704 101.824C42.3253 105.237 43.136 109.035 43.136 113.216C43.136 117.824 42.24 121.835 40.448 125.248C38.656 128.661 36.1173 131.307 32.832 133.184C29.5467 135.061 25.664 136 21.184 136H5.44ZM37.312 113.216C37.312 109.803 36.672 106.773 35.392 104.128C34.1547 101.483 32.3413 99.4133 29.952 97.92C27.5627 96.4267 24.64 95.68 21.184 95.68H11.2V130.88H21.184C24.6827 130.88 27.6267 130.112 30.016 128.576C32.4053 126.997 34.2187 124.885 35.456 122.24C36.6933 119.552 37.312 116.544 37.312 113.216ZM65.1405 136.64C62.6232 136.64 60.3192 136.192 58.2285 135.296C56.1805 134.357 54.3885 133.099 52.8525 131.52C51.3592 129.899 50.1858 128.043 49.3325 125.952C48.5218 123.861 48.1165 121.643 48.1165 119.296C48.1165 116.139 48.8418 113.259 50.2925 110.656C51.7432 108.053 53.7485 105.963 56.3085 104.384C58.9112 102.805 61.8765 102.016 65.2045 102.016C68.5752 102.016 71.4978 102.827 73.9725 104.448C76.4898 106.027 78.4312 108.117 79.7965 110.72C81.2045 113.28 81.9085 116.053 81.9085 119.04C81.9085 119.467 81.8872 119.893 81.8445 120.32C81.8445 120.704 81.8232 121.003 81.7805 121.216H54.0685C54.2392 123.392 54.8365 125.333 55.8605 127.04C56.9272 128.704 58.2925 130.027 59.9565 131.008C61.6205 131.947 63.4125 132.416 65.3325 132.416C67.3805 132.416 69.3005 131.904 71.0925 130.88C72.9272 129.856 74.1858 128.512 74.8685 126.848L79.7325 128.192C79.0072 129.813 77.9192 131.264 76.4685 132.544C75.0605 133.824 73.3752 134.827 71.4125 135.552C69.4925 136.277 67.4018 136.64 65.1405 136.64ZM53.8765 117.312H76.6605C76.4898 115.136 75.8712 113.216 74.8045 111.552C73.7378 109.888 72.3725 108.587 70.7085 107.648C69.0445 106.709 67.2098 106.24 65.2045 106.24C63.2418 106.24 61.4285 106.709 59.7645 107.648C58.1005 108.587 56.7352 109.888 55.6685 111.552C54.6445 113.216 54.0472 115.136 53.8765 117.312ZM99.625 136.64C96.8517 136.64 94.249 136.192 91.817 135.296C89.385 134.357 87.2943 132.971 85.545 131.136L87.721 127.168C89.641 128.96 91.561 130.24 93.481 131.008C95.401 131.776 97.3637 132.16 99.369 132.16C101.673 132.16 103.55 131.733 105.001 130.88C106.452 129.984 107.177 128.683 107.177 126.976C107.177 125.739 106.793 124.821 106.025 124.224C105.3 123.627 104.254 123.136 102.889 122.752C101.524 122.325 99.9023 121.856 98.025 121.344C95.721 120.661 93.7797 119.936 92.201 119.168C90.6223 118.4 89.4277 117.44 88.617 116.288C87.8063 115.136 87.401 113.685 87.401 111.936C87.401 109.803 87.9557 108.011 89.065 106.56C90.1743 105.067 91.689 103.936 93.609 103.168C95.5717 102.4 97.7903 102.016 100.265 102.016C102.74 102.016 104.98 102.4 106.985 103.168C108.99 103.936 110.718 105.067 112.169 106.56L109.609 110.464C108.286 109.099 106.836 108.096 105.257 107.456C103.678 106.773 101.908 106.432 99.945 106.432C98.793 106.432 97.6623 106.581 96.553 106.88C95.4437 107.136 94.5263 107.627 93.801 108.352C93.0757 109.035 92.713 110.016 92.713 111.296C92.713 112.363 92.9903 113.216 93.545 113.856C94.1423 114.453 94.9957 114.965 96.105 115.392C97.257 115.819 98.6437 116.288 100.265 116.8C102.782 117.525 104.958 118.251 106.793 118.976C108.67 119.701 110.121 120.64 111.145 121.792C112.169 122.944 112.681 124.544 112.681 126.592C112.681 129.749 111.486 132.224 109.097 134.016C106.708 135.765 103.55 136.64 99.625 136.64ZM134.203 136.64C131.686 136.64 129.382 136.192 127.291 135.296C125.243 134.357 123.451 133.099 121.915 131.52C120.422 129.899 119.248 128.043 118.395 125.952C117.584 123.861 117.179 121.643 117.179 119.296C117.179 116.139 117.904 113.259 119.355 110.656C120.806 108.053 122.811 105.963 125.371 104.384C127.974 102.805 130.939 102.016 134.267 102.016C137.638 102.016 140.56 102.827 143.035 104.448C145.552 106.027 147.494 108.117 148.859 110.72C150.267 113.28 150.971 116.053 150.971 119.04C150.971 119.467 150.95 119.893 150.907 120.32C150.907 120.704 150.886 121.003 150.843 121.216H123.131C123.302 123.392 123.899 125.333 124.923 127.04C125.99 128.704 127.355 130.027 129.019 131.008C130.683 131.947 132.475 132.416 134.395 132.416C136.443 132.416 138.363 131.904 140.155 130.88C141.99 129.856 143.248 128.512 143.931 126.848L148.795 128.192C148.07 129.813 146.982 131.264 145.531 132.544C144.123 133.824 142.438 134.827 140.475 135.552C138.555 136.277 136.464 136.64 134.203 136.64ZM122.939 117.312H145.723C145.552 115.136 144.934 113.216 143.867 111.552C142.8 109.888 141.435 108.587 139.771 107.648C138.107 106.709 136.272 106.24 134.267 106.24C132.304 106.24 130.491 106.709 128.827 107.648C127.163 108.587 125.798 109.888 124.731 111.552C123.707 113.216 123.11 115.136 122.939 117.312ZM186.224 136H180.592V117.312C180.592 113.771 180.037 111.189 178.928 109.568C177.861 107.904 176.218 107.072 174 107.072C172.464 107.072 170.928 107.456 169.392 108.224C167.898 108.992 166.554 110.037 165.36 111.36C164.208 112.64 163.376 114.133 162.864 115.84V136H157.232V102.592H162.352V109.76C163.248 108.181 164.4 106.816 165.808 105.664C167.216 104.512 168.816 103.616 170.608 102.976C172.4 102.336 174.277 102.016 176.24 102.016C178.16 102.016 179.76 102.379 181.04 103.104C182.362 103.787 183.386 104.768 184.112 106.048C184.88 107.285 185.413 108.757 185.712 110.464C186.053 112.171 186.224 114.027 186.224 116.032V136ZM203.894 136L190.774 102.592H196.662L207.158 130.624L217.654 102.592H223.158L210.038 136H203.894ZM242.261 136.64C239.744 136.64 237.461 136.192 235.413 135.296C233.365 134.357 231.594 133.099 230.101 131.52C228.608 129.899 227.456 128.043 226.645 125.952C225.834 123.861 225.429 121.664 225.429 119.36C225.429 117.013 225.834 114.795 226.645 112.704C227.456 110.613 228.608 108.779 230.101 107.2C231.594 105.579 233.365 104.32 235.413 103.424C237.504 102.485 239.786 102.016 242.261 102.016C244.778 102.016 247.061 102.485 249.109 103.424C251.157 104.32 252.928 105.579 254.421 107.2C255.957 108.779 257.13 110.613 257.941 112.704C258.752 114.795 259.157 117.013 259.157 119.36C259.157 121.664 258.752 123.861 257.941 125.952C257.13 128.043 255.978 129.899 254.485 131.52C252.992 133.099 251.2 134.357 249.109 135.296C247.061 136.192 244.778 136.64 242.261 136.64ZM231.189 119.424C231.189 121.728 231.68 123.819 232.661 125.696C233.685 127.573 235.029 129.067 236.693 130.176C238.357 131.243 240.213 131.776 242.261 131.776C244.309 131.776 246.165 131.221 247.829 130.112C249.536 129.003 250.88 127.509 251.861 125.632C252.885 123.712 253.397 121.6 253.397 119.296C253.397 116.992 252.885 114.901 251.861 113.024C250.88 111.147 249.536 109.653 247.829 108.544C246.165 107.435 244.309 106.88 242.261 106.88C240.213 106.88 238.357 107.456 236.693 108.608C235.029 109.717 233.685 111.211 232.661 113.088C231.68 114.965 231.189 117.077 231.189 119.424ZM266.11 89.28H271.742V127.36C271.742 129.195 271.998 130.325 272.51 130.752C273.022 131.179 273.64 131.392 274.366 131.392C275.262 131.392 276.115 131.307 276.926 131.136C277.736 130.923 278.419 130.709 278.974 130.496L279.87 135.104C278.931 135.488 277.822 135.808 276.542 136.064C275.262 136.32 274.131 136.448 273.15 136.448C270.974 136.448 269.246 135.829 267.966 134.592C266.728 133.355 266.11 131.627 266.11 129.408V89.28ZM292.644 136L279.524 102.592H285.412L295.908 130.624L306.404 102.592H311.908L298.788 136H292.644ZM331.203 136.64C328.686 136.64 326.382 136.192 324.291 135.296C322.243 134.357 320.451 133.099 318.915 131.52C317.422 129.899 316.248 128.043 315.395 125.952C314.584 123.861 314.179 121.643 314.179 119.296C314.179 116.139 314.904 113.259 316.355 110.656C317.806 108.053 319.811 105.963 322.371 104.384C324.974 102.805 327.939 102.016 331.267 102.016C334.638 102.016 337.56 102.827 340.035 104.448C342.552 106.027 344.494 108.117 345.859 110.72C347.267 113.28 347.971 116.053 347.971 119.04C347.971 119.467 347.95 119.893 347.907 120.32C347.907 120.704 347.886 121.003 347.843 121.216H320.131C320.302 123.392 320.899 125.333 321.923 127.04C322.99 128.704 324.355 130.027 326.019 131.008C327.683 131.947 329.475 132.416 331.395 132.416C333.443 132.416 335.363 131.904 337.155 130.88C338.99 129.856 340.248 128.512 340.931 126.848L345.795 128.192C345.07 129.813 343.982 131.264 342.531 132.544C341.123 133.824 339.438 134.827 337.475 135.552C335.555 136.277 333.464 136.64 331.203 136.64ZM319.939 117.312H342.723C342.552 115.136 341.934 113.216 340.867 111.552C339.8 109.888 338.435 108.587 336.771 107.648C335.107 106.709 333.272 106.24 331.267 106.24C329.304 106.24 327.491 106.709 325.827 107.648C324.163 108.587 322.798 109.888 321.731 111.552C320.707 113.216 320.11 115.136 319.939 117.312ZM352.056 119.36C352.056 116.203 352.696 113.323 353.976 110.72C355.298 108.075 357.09 105.963 359.352 104.384C361.656 102.805 364.28 102.016 367.224 102.016C369.912 102.016 372.322 102.72 374.456 104.128C376.589 105.536 378.253 107.243 379.448 109.248V89.28H385.08V129.6C385.08 130.283 385.208 130.795 385.464 131.136C385.762 131.435 386.232 131.605 386.872 131.648V136C385.805 136.171 384.973 136.256 384.376 136.256C383.266 136.256 382.285 135.872 381.432 135.104C380.621 134.336 380.216 133.483 380.216 132.544V129.728C378.893 131.861 377.122 133.547 374.904 134.784C372.685 136.021 370.381 136.64 367.992 136.64C365.688 136.64 363.554 136.192 361.592 135.296C359.672 134.357 357.986 133.077 356.536 131.456C355.128 129.835 354.018 128 353.208 125.952C352.44 123.861 352.056 121.664 352.056 119.36ZM379.448 124.288V114.688C378.936 113.237 378.104 111.936 376.952 110.784C375.8 109.589 374.498 108.651 373.048 107.968C371.64 107.243 370.232 106.88 368.824 106.88C367.16 106.88 365.645 107.243 364.28 107.968C362.957 108.651 361.805 109.589 360.824 110.784C359.885 111.936 359.16 113.259 358.648 114.752C358.136 116.245 357.88 117.803 357.88 119.424C357.88 121.088 358.157 122.667 358.712 124.16C359.309 125.653 360.12 126.976 361.144 128.128C362.21 129.28 363.426 130.176 364.792 130.816C366.2 131.456 367.714 131.776 369.336 131.776C370.36 131.776 371.405 131.584 372.472 131.2C373.581 130.816 374.626 130.283 375.608 129.6C376.589 128.917 377.421 128.128 378.104 127.232C378.786 126.293 379.234 125.312 379.448 124.288ZM409.074 136.64C406.556 136.64 404.274 136.192 402.226 135.296C400.178 134.357 398.407 133.099 396.914 131.52C395.42 129.899 394.268 128.043 393.458 125.952C392.647 123.861 392.242 121.664 392.242 119.36C392.242 117.013 392.647 114.795 393.458 112.704C394.268 110.613 395.42 108.779 396.914 107.2C398.407 105.579 400.178 104.32 402.226 103.424C404.316 102.485 406.599 102.016 409.074 102.016C411.591 102.016 413.874 102.485 415.922 103.424C417.97 104.32 419.74 105.579 421.234 107.2C422.77 108.779 423.943 110.613 424.754 112.704C425.564 114.795 425.97 117.013 425.97 119.36C425.97 121.664 425.564 123.861 424.754 125.952C423.943 128.043 422.791 129.899 421.298 131.52C419.804 133.099 418.012 134.357 415.922 135.296C413.874 136.192 411.591 136.64 409.074 136.64ZM398.002 119.424C398.002 121.728 398.492 123.819 399.474 125.696C400.498 127.573 401.842 129.067 403.506 130.176C405.17 131.243 407.026 131.776 409.074 131.776C411.122 131.776 412.978 131.221 414.642 130.112C416.348 129.003 417.692 127.509 418.674 125.632C419.698 123.712 420.21 121.6 420.21 119.296C420.21 116.992 419.698 114.901 418.674 113.024C417.692 111.147 416.348 109.653 414.642 108.544C412.978 107.435 411.122 106.88 409.074 106.88C407.026 106.88 405.17 107.456 403.506 108.608C401.842 109.717 400.498 111.211 399.474 113.088C398.492 114.965 398.002 117.077 398.002 119.424ZM450.458 107.52C447.642 107.563 445.146 108.288 442.97 109.696C440.837 111.061 439.322 112.96 438.426 115.392V136H432.794V102.592H438.042V110.336C439.194 108.032 440.709 106.176 442.586 104.768C444.506 103.317 446.511 102.507 448.602 102.336C449.029 102.336 449.391 102.336 449.69 102.336C449.989 102.336 450.245 102.357 450.458 102.4V107.52ZM453.42 126.336C453.42 124.203 454.017 122.368 455.212 120.832C456.449 119.253 458.135 118.037 460.268 117.184C462.401 116.331 464.876 115.904 467.692 115.904C469.185 115.904 470.764 116.032 472.428 116.288C474.092 116.501 475.564 116.843 476.844 117.312V114.88C476.844 112.32 476.076 110.315 474.54 108.864C473.004 107.371 470.828 106.624 468.012 106.624C466.177 106.624 464.407 106.965 462.7 107.648C461.036 108.288 459.265 109.227 457.388 110.464L455.34 106.496C457.516 105.003 459.692 103.893 461.868 103.168C464.044 102.4 466.305 102.016 468.652 102.016C472.919 102.016 476.289 103.211 478.764 105.6C481.239 107.947 482.476 111.232 482.476 115.456V129.6C482.476 130.283 482.604 130.795 482.86 131.136C483.159 131.435 483.628 131.605 484.268 131.648V136C483.713 136.085 483.223 136.149 482.796 136.192C482.412 136.235 482.092 136.256 481.836 136.256C480.513 136.256 479.511 135.893 478.828 135.168C478.188 134.443 477.825 133.675 477.74 132.864L477.612 130.752C476.161 132.629 474.263 134.08 471.916 135.104C469.569 136.128 467.244 136.64 464.94 136.64C462.721 136.64 460.737 136.192 458.988 135.296C457.239 134.357 455.873 133.12 454.892 131.584C453.911 130.005 453.42 128.256 453.42 126.336ZM475.18 128.704C475.692 128.107 476.097 127.509 476.396 126.912C476.695 126.272 476.844 125.739 476.844 125.312V121.152C475.521 120.64 474.135 120.256 472.684 120C471.233 119.701 469.804 119.552 468.396 119.552C465.537 119.552 463.212 120.128 461.42 121.28C459.671 122.389 458.796 123.925 458.796 125.888C458.796 126.955 459.073 128 459.628 129.024C460.225 130.005 461.079 130.816 462.188 131.456C463.34 132.096 464.748 132.416 466.412 132.416C468.161 132.416 469.825 132.075 471.404 131.392C472.983 130.667 474.241 129.771 475.18 128.704Z" fill="#990DCE"/>
<path d="M3.39844 233V219.23H15.0586V165.266H3.39844V151.496H76.3477V176.633H60.7617V165.266H36.2695V184.133H53.9062V197.902H36.2695V219.23H48.8086V233H3.39844ZM79.7461 165.266V151.496H118.652V165.266H110.625V202.121C110.625 207.043 110.82 210.598 111.211 212.785C111.641 214.934 112.734 216.711 114.492 218.117C116.25 219.523 118.477 220.227 121.172 220.227C123.945 220.227 126.25 219.562 128.086 218.234C129.922 216.906 131.094 215.246 131.602 213.254C132.148 211.262 132.422 207.199 132.422 201.066V165.266H124.512V151.496H156.973V165.266H147.012V206.047C147.012 211.594 146.719 215.637 146.133 218.176C145.547 220.676 144.199 223.176 142.09 225.676C139.98 228.137 136.914 230.148 132.891 231.711C128.906 233.234 124.316 233.996 119.121 233.996C113.105 233.996 107.969 233.156 103.711 231.477C99.4922 229.758 96.3477 227.492 94.2773 224.68C92.207 221.867 90.8789 219.074 90.293 216.301C89.707 213.527 89.4141 208.801 89.4141 202.121V165.266H79.7461ZM162.129 233V219.23H173.789V165.266H162.129V151.496H206.895V165.266H195V219.23H219.082V194.035H234.961V233H162.129ZM239.707 233V219.23H251.367V165.266H239.707V151.496H284.473V165.266H272.578V219.23H296.66V194.035H312.539V233H239.707ZM318.223 212.551V196.73H350.977V212.551H318.223ZM360.996 233V205.227H374.824C374.98 210.305 376.309 214.055 378.809 216.477C381.309 218.859 384.16 220.051 387.363 220.051C389.863 220.051 391.973 219.191 393.691 217.473C395.41 215.715 396.27 213.664 396.27 211.32C396.27 208.82 395.43 206.73 393.75 205.051C392.07 203.332 389.004 201.379 384.551 199.191C375.137 194.621 368.73 190.598 365.332 187.121C361.973 183.645 360.293 178.957 360.293 173.059C360.293 165.949 362.52 160.441 366.973 156.535C371.426 152.629 376.484 150.676 382.148 150.676C388.633 150.676 393.652 153.195 397.207 158.234V151.496H410.977V176.281H397.207C396.777 172.453 395.449 169.504 393.223 167.434C391.035 165.324 388.477 164.27 385.547 164.27C383.281 164.27 381.367 164.875 379.805 166.086C378.242 167.297 377.461 168.879 377.461 170.832C377.461 172.512 378.105 174.113 379.395 175.637C380.684 177.121 384.453 179.25 390.703 182.023C396.719 184.719 401.328 187.16 404.531 189.348C407.773 191.496 410.332 194.309 412.207 197.785C414.082 201.223 415.02 205.207 415.02 209.738C415.02 217.785 412.676 223.84 407.988 227.902C403.301 231.965 397.754 233.996 391.348 233.996C384.199 233.996 378.691 231.359 374.824 226.086V233H360.996ZM436.758 233V219.23H449.004V165.266H436.758V184.25H422.754V151.496H496.641V184.25H482.812V165.266H470.215V219.23H482.461V233H436.758ZM580.547 219.23V233H540.469V219.23H550.898L547.031 205.227H525.879L521.543 219.23H532.441V233H496.348V219.23H506.426L522.305 165.266H511.465V151.496H564.668V165.266H553.711L570.82 219.23H580.547ZM543.691 193.273L536.895 168.723L529.57 193.273H543.691ZM651.27 151.496H665.039V180.207H651.27C647.363 169.895 640.586 164.738 630.938 164.738C622.969 164.738 616.934 167.453 612.832 172.883C608.77 178.312 606.738 184.816 606.738 192.395C606.738 200.324 608.887 206.75 613.184 211.672C617.52 216.555 623.027 218.996 629.707 218.996C635.176 218.996 639.961 217.141 644.062 213.43C648.164 209.719 650.938 204.562 652.383 197.961L668.438 205.637C662.344 224.543 648.926 233.996 628.184 233.996C613.535 233.996 602.48 230.051 595.02 222.16C587.598 214.27 583.887 204.289 583.887 192.219C583.887 183.625 585.82 176.105 589.688 169.66C593.555 163.215 598.75 158.371 605.273 155.129C611.836 151.848 619.023 150.207 626.836 150.207C636.562 150.207 644.707 152.746 651.27 157.824V151.496ZM674.121 233V219.23H685.078V165.266H674.121V151.496H716.602V165.266H706.289V219.23H715.781V233H674.121ZM722.109 233V219.23H731.602L706.934 190.227L733.535 165.266H723.809V151.496H763.594V165.266H753.633L730.664 187.766L757.383 219.23H765.82V233H722.109Z" fill="white"/>
<g opacity="0.7">
<path d="M26.4296 269.714H2.10652C1.54784 269.714 1.01204 269.94 0.616986 270.343C0.221937 270.745 0 271.291 0 271.86V296.63C0 297.199 0.221937 297.745 0.616986 298.147C1.01204 298.55 1.54784 298.776 2.10652 298.776H26.4296C26.9883 298.776 27.5241 298.55 27.9192 298.147C28.3142 297.745 28.5361 297.199 28.5361 296.63V271.86C28.5361 271.291 28.3142 270.745 27.9192 270.343C27.5241 269.94 26.9883 269.714 26.4296 269.714ZM8.50535 294.471H4.21503V280.592H8.50535V294.471ZM6.35722 278.669C5.87055 278.666 5.39561 278.516 4.99232 278.239C4.58903 277.962 4.27547 277.569 4.09122 277.11C3.90697 276.651 3.86028 276.147 3.95705 275.661C4.05381 275.176 4.2897 274.73 4.63493 274.381C4.98016 274.031 5.41927 273.794 5.89683 273.699C6.3744 273.603 6.86902 273.654 7.31827 273.845C7.76753 274.035 8.15128 274.357 8.42109 274.769C8.69091 275.182 8.8347 275.667 8.83431 276.162C8.8389 276.494 8.77785 276.823 8.65479 277.131C8.53173 277.438 8.34918 277.717 8.11802 277.951C7.88687 278.185 7.61184 278.369 7.30932 278.492C7.00681 278.616 6.68301 278.676 6.35722 278.669ZM24.3191 294.483H20.0308V286.901C20.0308 284.665 19.0974 283.974 17.8926 283.974C16.6203 283.974 15.3719 284.951 15.3719 286.957V294.483H11.0815V280.602H15.2074V282.525H15.2629C15.677 281.672 17.1276 280.213 19.3412 280.213C21.735 280.213 24.3211 281.66 24.3211 285.898L24.3191 294.483Z" fill="#D7FF01"/>
<path d="M47.9725 279.471C47.8635 279.362 47.661 279.214 47.365 279.027C47.0846 278.84 46.7341 278.661 46.3135 278.489C45.9085 278.318 45.4646 278.17 44.9817 278.045C44.4988 277.905 44.0082 277.835 43.5097 277.835C42.6374 277.835 41.9754 277.999 41.5236 278.326C41.0875 278.653 40.8694 279.112 40.8694 279.704C40.8694 280.156 41.0096 280.514 41.29 280.779C41.5704 281.044 41.9909 281.27 42.5517 281.457C43.1125 281.644 43.8134 281.846 44.6546 282.064C45.745 282.329 46.6874 282.656 47.4818 283.046C48.2918 283.419 48.9071 283.918 49.3277 284.541C49.7638 285.149 49.9819 285.959 49.9819 286.971C49.9819 287.859 49.8184 288.622 49.4912 289.261C49.1641 289.884 48.7124 290.39 48.1361 290.78C47.5597 291.169 46.9055 291.457 46.1734 291.644C45.4412 291.815 44.6624 291.901 43.8368 291.901C43.0112 291.901 42.1856 291.815 41.3601 291.644C40.5345 291.473 39.7401 291.231 38.9768 290.92C38.2135 290.593 37.5126 290.203 36.8739 289.752L38.2992 286.971C38.4394 287.111 38.6886 287.298 39.0469 287.532C39.4052 287.75 39.8413 287.976 40.3554 288.209C40.8694 288.427 41.4302 288.614 42.0377 288.77C42.6452 288.926 43.2605 289.004 43.8835 289.004C44.7558 289.004 45.4179 288.856 45.8696 288.56C46.3213 288.264 46.5472 287.843 46.5472 287.298C46.5472 286.8 46.3681 286.41 46.0098 286.13C45.6515 285.85 45.1531 285.608 44.5144 285.406C43.8758 285.187 43.1203 284.954 42.248 284.705C41.2043 284.409 40.332 284.082 39.631 283.723C38.9301 283.349 38.4082 282.882 38.0655 282.321C37.7228 281.761 37.5515 281.06 37.5515 280.218C37.5515 279.081 37.8163 278.131 38.3459 277.368C38.8911 276.589 39.6232 276.005 40.5423 275.615C41.4613 275.21 42.4816 275.008 43.6032 275.008C44.382 275.008 45.1141 275.094 45.7995 275.265C46.5005 275.436 47.1547 275.662 47.7622 275.943C48.3697 276.223 48.9149 276.527 49.3978 276.854L47.9725 279.471ZM57.7692 291.948C56.7723 291.948 55.8766 291.784 55.0822 291.457C54.2877 291.115 53.6101 290.647 53.0494 290.055C52.5042 289.463 52.0836 288.786 51.7876 288.022C51.4917 287.259 51.3437 286.457 51.3437 285.616C51.3437 284.759 51.4917 283.949 51.7876 283.186C52.0836 282.423 52.5042 281.745 53.0494 281.153C53.6101 280.561 54.2877 280.102 55.0822 279.774C55.8766 279.432 56.7723 279.26 57.7692 279.26C58.7661 279.26 59.654 279.432 60.4328 279.774C61.2273 280.102 61.9049 280.561 62.4656 281.153C63.0264 281.745 63.447 282.423 63.7274 283.186C64.0233 283.949 64.1713 284.759 64.1713 285.616C64.1713 286.457 64.0233 287.259 63.7274 288.022C63.447 288.786 63.0264 289.463 62.4656 290.055C61.9204 290.647 61.2506 291.115 60.4562 291.457C59.6618 291.784 58.7661 291.948 57.7692 291.948ZM54.5681 285.616C54.5681 286.332 54.7083 286.971 54.9887 287.532C55.2691 288.077 55.6507 288.505 56.1336 288.817C56.6165 289.128 57.1617 289.284 57.7692 289.284C58.3611 289.284 58.8985 289.128 59.3814 288.817C59.8643 288.49 60.2459 288.054 60.5263 287.508C60.8223 286.948 60.9703 286.309 60.9703 285.592C60.9703 284.892 60.8223 284.261 60.5263 283.7C60.2459 283.139 59.8643 282.703 59.3814 282.391C58.8985 282.08 58.3611 281.924 57.7692 281.924C57.1617 281.924 56.6165 282.088 56.1336 282.415C55.6507 282.726 55.2691 283.162 54.9887 283.723C54.7083 284.268 54.5681 284.899 54.5681 285.616ZM66.9182 282.508H65.306V280.125H66.9182V279.377C66.9182 278.692 67.0273 278.053 67.2453 277.461C67.479 276.869 67.8061 276.348 68.2267 275.896C68.6628 275.429 69.1847 275.07 69.7922 274.821C70.4153 274.556 71.1162 274.424 71.8951 274.424C72.487 274.424 73.04 274.486 73.554 274.611C74.0836 274.735 74.5821 274.914 75.0494 275.148C75.5323 275.382 75.9918 275.647 76.428 275.943L75.1896 278.279C74.7846 277.921 74.3095 277.633 73.7643 277.415C73.2191 277.196 72.6661 277.087 72.1054 277.087C71.6536 277.087 71.272 277.189 70.9604 277.391C70.6489 277.594 70.4153 277.859 70.2595 278.186C70.1193 278.513 70.0492 278.871 70.0492 279.26V280.125H76.6149V291.714H73.4839V282.508H70.0492V291.714H66.9182V282.508ZM78.6093 288.093C78.6093 287.298 78.8274 286.605 79.2636 286.013C79.7153 285.406 80.3384 284.938 81.1328 284.611C81.9272 284.284 82.8385 284.12 83.8666 284.12C84.3806 284.12 84.9024 284.159 85.4321 284.237C85.9617 284.315 86.4212 284.44 86.8106 284.611V283.957C86.8106 283.178 86.577 282.578 86.1097 282.158C85.6579 281.737 84.9803 281.527 84.0769 281.527C83.407 281.527 82.7684 281.644 82.1609 281.877C81.5534 282.111 80.9147 282.454 80.2449 282.905L79.2402 280.849C80.0502 280.32 80.8758 279.922 81.7169 279.658C82.5737 279.393 83.4694 279.26 84.404 279.26C86.1486 279.26 87.5038 279.697 88.4696 280.569C89.4509 281.441 89.9416 282.687 89.9416 284.307V288.209C89.9416 288.537 89.9961 288.77 90.1051 288.91C90.2298 289.051 90.4245 289.136 90.6893 289.167V291.714C90.4089 291.761 90.1519 291.8 89.9182 291.831C89.7001 291.862 89.5132 291.878 89.3575 291.878C88.7344 291.878 88.2593 291.738 87.9322 291.457C87.6206 291.177 87.4259 290.834 87.348 290.429L87.2779 289.798C86.7483 290.484 86.0863 291.013 85.2919 291.387C84.4974 291.761 83.6874 291.948 82.8619 291.948C82.0519 291.948 81.3197 291.784 80.6655 291.457C80.0268 291.115 79.5206 290.655 79.1467 290.079C78.7885 289.487 78.6093 288.825 78.6093 288.093ZM86.2265 288.723C86.3978 288.537 86.538 288.35 86.6471 288.163C86.7561 287.976 86.8106 287.804 86.8106 287.649V286.41C86.4368 286.255 86.0318 286.138 85.5956 286.06C85.1595 285.966 84.7467 285.92 84.3572 285.92C83.5472 285.92 82.8774 286.099 82.3478 286.457C81.8338 286.8 81.5768 287.259 81.5768 287.836C81.5768 288.147 81.6624 288.443 81.8338 288.723C82.0051 289.004 82.2544 289.23 82.5815 289.401C82.9086 289.572 83.298 289.658 83.7497 289.658C84.2171 289.658 84.6766 289.572 85.1283 289.401C85.58 289.214 85.9461 288.988 86.2265 288.723ZM112.149 287.438C112.149 288.373 111.908 289.16 111.425 289.798C110.942 290.421 110.288 290.896 109.462 291.224C108.652 291.551 107.764 291.714 106.799 291.714H98.7843V275.125H107.663C108.442 275.125 109.112 275.335 109.673 275.756C110.249 276.161 110.685 276.69 110.981 277.344C111.293 277.983 111.448 278.653 111.448 279.354C111.448 280.148 111.246 280.904 110.841 281.62C110.436 282.337 109.844 282.867 109.065 283.209C110.015 283.49 110.763 283.996 111.308 284.728C111.869 285.46 112.149 286.364 112.149 287.438ZM108.902 286.831C108.902 286.41 108.816 286.036 108.645 285.709C108.473 285.367 108.24 285.102 107.944 284.915C107.663 284.712 107.336 284.611 106.962 284.611H102.009V288.98H106.799C107.188 288.98 107.539 288.887 107.85 288.7C108.177 288.498 108.434 288.233 108.621 287.906C108.808 287.579 108.902 287.22 108.902 286.831ZM102.009 277.882V282.064H106.308C106.666 282.064 106.993 281.979 107.289 281.807C107.585 281.636 107.819 281.394 107.99 281.083C108.177 280.771 108.271 280.398 108.271 279.961C108.271 279.541 108.185 279.175 108.014 278.863C107.858 278.552 107.64 278.31 107.359 278.139C107.095 277.968 106.791 277.882 106.448 277.882H102.009ZM113.521 288.093C113.521 287.298 113.739 286.605 114.175 286.013C114.627 285.406 115.25 284.938 116.044 284.611C116.839 284.284 117.75 284.12 118.778 284.12C119.292 284.12 119.814 284.159 120.343 284.237C120.873 284.315 121.332 284.44 121.722 284.611V283.957C121.722 283.178 121.488 282.578 121.021 282.158C120.569 281.737 119.892 281.527 118.988 281.527C118.318 281.527 117.68 281.644 117.072 281.877C116.465 282.111 115.826 282.454 115.156 282.905L114.151 280.849C114.961 280.32 115.787 279.922 116.628 279.658C117.485 279.393 118.381 279.26 119.315 279.26C121.06 279.26 122.415 279.697 123.381 280.569C124.362 281.441 124.853 282.687 124.853 284.307V288.209C124.853 288.537 124.907 288.77 125.016 288.91C125.141 289.051 125.336 289.136 125.601 289.167V291.714C125.32 291.761 125.063 291.8 124.829 291.831C124.611 291.862 124.424 291.878 124.269 291.878C123.646 291.878 123.171 291.738 122.843 291.457C122.532 291.177 122.337 290.834 122.259 290.429L122.189 289.798C121.66 290.484 120.998 291.013 120.203 291.387C119.409 291.761 118.599 291.948 117.773 291.948C116.963 291.948 116.231 291.784 115.577 291.457C114.938 291.115 114.432 290.655 114.058 290.079C113.7 289.487 113.521 288.825 113.521 288.093ZM121.138 288.723C121.309 288.537 121.449 288.35 121.558 288.163C121.667 287.976 121.722 287.804 121.722 287.649V286.41C121.348 286.255 120.943 286.138 120.507 286.06C120.071 285.966 119.658 285.92 119.269 285.92C118.459 285.92 117.789 286.099 117.259 286.457C116.745 286.8 116.488 287.259 116.488 287.836C116.488 288.147 116.574 288.443 116.745 288.723C116.916 289.004 117.166 289.23 117.493 289.401C117.82 289.572 118.209 289.658 118.661 289.658C119.128 289.658 119.588 289.572 120.04 289.401C120.491 289.214 120.857 288.988 121.138 288.723ZM132.288 291.948C131.245 291.948 130.248 291.777 129.297 291.434C128.347 291.091 127.529 290.585 126.844 289.915L127.966 287.882C128.698 288.474 129.414 288.91 130.115 289.191C130.832 289.471 131.517 289.611 132.171 289.611C132.779 289.611 133.262 289.502 133.62 289.284C133.994 289.066 134.181 288.739 134.181 288.303C134.181 288.007 134.08 287.781 133.877 287.625C133.675 287.454 133.379 287.306 132.989 287.181C132.615 287.057 132.156 286.917 131.611 286.761C130.707 286.465 129.952 286.177 129.344 285.896C128.737 285.616 128.277 285.265 127.966 284.845C127.67 284.409 127.522 283.856 127.522 283.186C127.522 282.376 127.724 281.683 128.129 281.106C128.55 280.514 129.126 280.055 129.858 279.728C130.606 279.401 131.478 279.237 132.475 279.237C133.347 279.237 134.173 279.377 134.952 279.658C135.731 279.922 136.439 280.359 137.078 280.966L135.816 282.952C135.193 282.469 134.601 282.119 134.041 281.901C133.48 281.667 132.911 281.55 132.335 281.55C132.008 281.55 131.696 281.589 131.4 281.667C131.12 281.745 130.886 281.877 130.699 282.064C130.528 282.236 130.442 282.485 130.442 282.812C130.442 283.108 130.52 283.342 130.676 283.513C130.847 283.669 131.097 283.809 131.424 283.934C131.766 284.058 132.179 284.198 132.662 284.354C133.643 284.635 134.469 284.923 135.139 285.219C135.824 285.515 136.338 285.881 136.681 286.317C137.024 286.737 137.195 287.322 137.195 288.069C137.195 289.284 136.751 290.234 135.863 290.92C134.975 291.605 133.784 291.948 132.288 291.948ZM146.593 291.083C146.328 291.192 146.009 291.317 145.635 291.457C145.261 291.597 144.856 291.706 144.42 291.784C143.999 291.878 143.571 291.925 143.135 291.925C142.558 291.925 142.029 291.823 141.546 291.621C141.063 291.418 140.674 291.099 140.378 290.663C140.097 290.211 139.957 289.627 139.957 288.91V281.877H138.345V279.471H139.957V275.499H143.088V279.471H145.658V281.877H143.088V287.859C143.104 288.28 143.22 288.583 143.438 288.77C143.657 288.957 143.929 289.051 144.256 289.051C144.583 289.051 144.903 288.996 145.214 288.887C145.526 288.778 145.775 288.685 145.962 288.607L146.593 291.083ZM153.741 291.948C152.744 291.948 151.848 291.784 151.054 291.457C150.259 291.115 149.582 290.647 149.021 290.055C148.476 289.463 148.055 288.786 147.759 288.022C147.463 287.259 147.315 286.457 147.315 285.616C147.315 284.759 147.463 283.949 147.759 283.186C148.055 282.423 148.476 281.745 149.021 281.153C149.582 280.561 150.259 280.102 151.054 279.774C151.848 279.432 152.744 279.26 153.741 279.26C154.738 279.26 155.626 279.432 156.405 279.774C157.199 280.102 157.877 280.561 158.437 281.153C158.998 281.745 159.419 282.423 159.699 283.186C159.995 283.949 160.143 284.759 160.143 285.616C160.143 286.457 159.995 287.259 159.699 288.022C159.419 288.786 158.998 289.463 158.437 290.055C157.892 290.647 157.222 291.115 156.428 291.457C155.634 291.784 154.738 291.948 153.741 291.948ZM150.54 285.616C150.54 286.332 150.68 286.971 150.96 287.532C151.241 288.077 151.622 288.505 152.105 288.817C152.588 289.128 153.133 289.284 153.741 289.284C154.333 289.284 154.87 289.128 155.353 288.817C155.836 288.49 156.218 288.054 156.498 287.508C156.794 286.948 156.942 286.309 156.942 285.592C156.942 284.892 156.794 284.261 156.498 283.7C156.218 283.139 155.836 282.703 155.353 282.391C154.87 282.08 154.333 281.924 153.741 281.924C153.133 281.924 152.588 282.088 152.105 282.415C151.622 282.726 151.241 283.162 150.96 283.723C150.68 284.268 150.54 284.899 150.54 285.616ZM166.766 291.948C165.722 291.948 164.725 291.777 163.775 291.434C162.825 291.091 162.007 290.585 161.322 289.915L162.443 287.882C163.175 288.474 163.892 288.91 164.593 289.191C165.309 289.471 165.995 289.611 166.649 289.611C167.257 289.611 167.739 289.502 168.098 289.284C168.472 289.066 168.659 288.739 168.659 288.303C168.659 288.007 168.557 287.781 168.355 287.625C168.152 287.454 167.856 287.306 167.467 287.181C167.093 287.057 166.634 286.917 166.088 286.761C165.185 286.465 164.429 286.177 163.822 285.896C163.214 285.616 162.755 285.265 162.443 284.845C162.147 284.409 161.999 283.856 161.999 283.186C161.999 282.376 162.202 281.683 162.607 281.106C163.027 280.514 163.604 280.055 164.336 279.728C165.084 279.401 165.956 279.237 166.953 279.237C167.825 279.237 168.651 279.377 169.43 279.658C170.208 279.922 170.917 280.359 171.556 280.966L170.294 282.952C169.671 282.469 169.079 282.119 168.518 281.901C167.958 281.667 167.389 281.55 166.813 281.55C166.486 281.55 166.174 281.589 165.878 281.667C165.598 281.745 165.364 281.877 165.177 282.064C165.006 282.236 164.92 282.485 164.92 282.812C164.92 283.108 164.998 283.342 165.154 283.513C165.325 283.669 165.574 283.809 165.901 283.934C166.244 284.058 166.657 284.198 167.14 284.354C168.121 284.635 168.947 284.923 169.616 285.219C170.302 285.515 170.816 285.881 171.159 286.317C171.501 286.737 171.673 287.322 171.673 288.069C171.673 289.284 171.229 290.234 170.341 290.92C169.453 291.605 168.261 291.948 166.766 291.948Z" fill="white"/>
</g>
<g opacity="0.7">
<g clip-path="url(#clip1_1376_3708)">
<path d="M231.126 284.242C231.126 291.78 225.13 297.863 217.768 297.863C210.406 297.863 204.409 291.78 204.409 284.242C204.409 276.703 210.406 270.621 217.768 270.621C225.13 270.621 231.126 276.703 231.126 284.242Z" stroke="white" stroke-width="1.81311"/>
<path d="M219.677 286.853H216.773C215.799 286.853 214.986 286.047 214.986 285.017V283.88C214.986 282.85 215.799 282.044 216.773 282.044H217.89C218.863 282.044 219.677 282.85 219.677 283.88V286.853Z" stroke="#D7FF01" stroke-width="1.72696" stroke-miterlimit="10" stroke-linecap="round" stroke-linejoin="round"/>
<path d="M217.213 287.152C224.687 288.376 224.687 284.473 224.687 284.473C225.019 280.426 221.812 276.756 217.611 276.756C213.41 276.756 210.007 280.222 210.007 284.5C210.007 288.779 213.41 292.244 217.611 292.244C219.412 292.244 221.071 291.606 222.376 290.537" stroke="#D7FF01" stroke-width="1.72696" stroke-miterlimit="10" stroke-linecap="round" stroke-linejoin="round"/>
</g>
<path d="M245.792 291.948C244.748 291.948 243.751 291.777 242.801 291.434C241.851 291.091 241.033 290.585 240.348 289.915L241.469 287.882C242.201 288.474 242.918 288.91 243.619 289.191C244.335 289.471 245.021 289.611 245.675 289.611C246.282 289.611 246.765 289.502 247.124 289.284C247.497 289.066 247.684 288.739 247.684 288.303C247.684 288.007 247.583 287.781 247.381 287.625C247.178 287.454 246.882 287.306 246.493 287.181C246.119 287.057 245.659 286.917 245.114 286.761C244.211 286.465 243.455 286.177 242.848 285.896C242.24 285.616 241.781 285.265 241.469 284.845C241.173 284.409 241.025 283.856 241.025 283.186C241.025 282.376 241.228 281.683 241.633 281.106C242.053 280.514 242.63 280.055 243.362 279.728C244.109 279.401 244.982 279.237 245.979 279.237C246.851 279.237 247.677 279.377 248.455 279.658C249.234 279.922 249.943 280.359 250.582 280.966L249.32 282.952C248.697 282.469 248.105 282.119 247.544 281.901C246.983 281.667 246.415 281.55 245.838 281.55C245.511 281.55 245.2 281.589 244.904 281.667C244.623 281.745 244.39 281.877 244.203 282.064C244.032 282.236 243.946 282.485 243.946 282.812C243.946 283.108 244.024 283.342 244.18 283.513C244.351 283.669 244.6 283.809 244.927 283.934C245.27 284.058 245.683 284.198 246.166 284.354C247.147 284.635 247.973 284.923 248.642 285.219C249.328 285.515 249.842 285.881 250.184 286.317C250.527 286.737 250.699 287.322 250.699 288.069C250.699 289.284 250.255 290.234 249.367 290.92C248.479 291.605 247.287 291.948 245.792 291.948ZM258.482 291.948C257.486 291.948 256.59 291.784 255.795 291.457C255.001 291.115 254.323 290.647 253.763 290.055C253.217 289.463 252.797 288.786 252.501 288.022C252.205 287.259 252.057 286.457 252.057 285.616C252.057 284.759 252.205 283.949 252.501 283.186C252.797 282.423 253.217 281.745 253.763 281.153C254.323 280.561 255.001 280.102 255.795 279.774C256.59 279.432 257.486 279.26 258.482 279.26C259.479 279.26 260.367 279.432 261.146 279.774C261.941 280.102 262.618 280.561 263.179 281.153C263.74 281.745 264.16 282.423 264.441 283.186C264.737 283.949 264.885 284.759 264.885 285.616C264.885 286.457 264.737 287.259 264.441 288.022C264.16 288.786 263.74 289.463 263.179 290.055C262.634 290.647 261.964 291.115 261.17 291.457C260.375 291.784 259.479 291.948 258.482 291.948ZM255.281 285.616C255.281 286.332 255.422 286.971 255.702 287.532C255.982 288.077 256.364 288.505 256.847 288.817C257.33 289.128 257.875 289.284 258.482 289.284C259.074 289.284 259.612 289.128 260.095 288.817C260.578 288.49 260.959 288.054 261.24 287.508C261.536 286.948 261.684 286.309 261.684 285.592C261.684 284.892 261.536 284.261 261.24 283.7C260.959 283.139 260.578 282.703 260.095 282.391C259.612 282.08 259.074 281.924 258.482 281.924C257.875 281.924 257.33 282.088 256.847 282.415C256.364 282.726 255.982 283.162 255.702 283.723C255.422 284.268 255.281 284.899 255.281 285.616ZM267.632 282.508H266.019V280.125H267.632V279.377C267.632 278.692 267.741 278.053 267.959 277.461C268.192 276.869 268.519 276.348 268.94 275.896C269.376 275.429 269.898 275.07 270.505 274.821C271.129 274.556 271.83 274.424 272.608 274.424C273.2 274.424 273.753 274.486 274.267 274.611C274.797 274.735 275.295 274.914 275.763 275.148C276.246 275.382 276.705 275.647 277.141 275.943L275.903 278.279C275.498 277.921 275.023 277.633 274.478 277.415C273.932 277.196 273.379 277.087 272.819 277.087C272.367 277.087 271.985 277.189 271.674 277.391C271.362 277.594 271.129 277.859 270.973 278.186C270.833 278.513 270.762 278.871 270.762 279.26V280.125H277.328V291.714H274.197V282.508H270.762V291.714H267.632V282.508ZM279.323 288.093C279.323 287.298 279.541 286.605 279.977 286.013C280.429 285.406 281.052 284.938 281.846 284.611C282.641 284.284 283.552 284.12 284.58 284.12C285.094 284.12 285.616 284.159 286.145 284.237C286.675 284.315 287.134 284.44 287.524 284.611V283.957C287.524 283.178 287.29 282.578 286.823 282.158C286.371 281.737 285.694 281.527 284.79 281.527C284.12 281.527 283.482 281.644 282.874 281.877C282.267 282.111 281.628 282.454 280.958 282.905L279.954 280.849C280.764 280.32 281.589 279.922 282.43 279.658C283.287 279.393 284.183 279.26 285.117 279.26C286.862 279.26 288.217 279.697 289.183 280.569C290.164 281.441 290.655 282.687 290.655 284.307V288.209C290.655 288.537 290.709 288.77 290.818 288.91C290.943 289.051 291.138 289.136 291.403 289.167V291.714C291.122 291.761 290.865 291.8 290.632 291.831C290.413 291.862 290.227 291.878 290.071 291.878C289.448 291.878 288.973 291.738 288.645 291.457C288.334 291.177 288.139 290.834 288.061 290.429L287.991 289.798C287.462 290.484 286.8 291.013 286.005 291.387C285.211 291.761 284.401 291.948 283.575 291.948C282.765 291.948 282.033 291.784 281.379 291.457C280.74 291.115 280.234 290.655 279.86 290.079C279.502 289.487 279.323 288.825 279.323 288.093ZM286.94 288.723C287.111 288.537 287.251 288.35 287.36 288.163C287.469 287.976 287.524 287.804 287.524 287.649V286.41C287.15 286.255 286.745 286.138 286.309 286.06C285.873 285.966 285.46 285.92 285.071 285.92C284.261 285.92 283.591 286.099 283.061 286.457C282.547 286.8 282.29 287.259 282.29 287.836C282.29 288.147 282.376 288.443 282.547 288.723C282.718 289.004 282.968 289.23 283.295 289.401C283.622 289.572 284.011 289.658 284.463 289.658C284.93 289.658 285.39 289.572 285.842 289.401C286.293 289.214 286.659 288.988 286.94 288.723ZM296.442 291.714L291.932 279.471H295.18L298.264 288.864L301.372 279.471H304.339L299.853 291.714H296.442ZM312.956 291.948C312.022 291.948 311.188 291.738 310.456 291.317C309.724 290.896 309.148 290.32 308.727 289.588V291.714H305.994V274.657H309.125V281.62C309.561 280.888 310.129 280.312 310.83 279.891C311.547 279.471 312.38 279.26 313.33 279.26C314.125 279.26 314.849 279.432 315.503 279.774C316.158 280.102 316.718 280.561 317.186 281.153C317.669 281.745 318.035 282.423 318.284 283.186C318.549 283.949 318.681 284.767 318.681 285.639C318.681 286.512 318.533 287.329 318.237 288.093C317.957 288.856 317.559 289.533 317.045 290.125C316.531 290.702 315.924 291.153 315.223 291.481C314.538 291.792 313.782 291.948 312.956 291.948ZM312.092 289.284C312.59 289.284 313.042 289.191 313.447 289.004C313.868 288.801 314.226 288.537 314.522 288.209C314.833 287.882 315.067 287.501 315.223 287.065C315.394 286.613 315.48 286.145 315.48 285.663C315.48 284.993 315.34 284.377 315.059 283.817C314.795 283.24 314.421 282.781 313.938 282.438C313.471 282.095 312.918 281.924 312.279 281.924C311.827 281.924 311.391 282.033 310.97 282.251C310.565 282.454 310.199 282.734 309.872 283.092C309.561 283.451 309.311 283.856 309.125 284.307V287.228C309.218 287.54 309.366 287.82 309.568 288.069C309.787 288.318 310.036 288.537 310.316 288.723C310.597 288.895 310.885 289.035 311.181 289.144C311.492 289.237 311.796 289.284 312.092 289.284ZM319.961 288.093C319.961 287.298 320.179 286.605 320.615 286.013C321.067 285.406 321.69 284.938 322.485 284.611C323.279 284.284 324.19 284.12 325.218 284.12C325.732 284.12 326.254 284.159 326.784 284.237C327.314 284.315 327.773 284.44 328.162 284.611V283.957C328.162 283.178 327.929 282.578 327.461 282.158C327.01 281.737 326.332 281.527 325.429 281.527C324.759 281.527 324.12 281.644 323.513 281.877C322.905 282.111 322.267 282.454 321.597 282.905L320.592 280.849C321.402 280.32 322.228 279.922 323.069 279.658C323.926 279.393 324.821 279.26 325.756 279.26C327.5 279.26 328.856 279.697 329.821 280.569C330.803 281.441 331.293 282.687 331.293 284.307V288.209C331.293 288.537 331.348 288.77 331.457 288.91C331.582 289.051 331.776 289.136 332.041 289.167V291.714C331.761 291.761 331.504 291.8 331.27 291.831C331.052 291.862 330.865 291.878 330.709 291.878C330.086 291.878 329.611 291.738 329.284 291.457C328.972 291.177 328.778 290.834 328.7 290.429L328.63 289.798C328.1 290.484 327.438 291.013 326.644 291.387C325.849 291.761 325.039 291.948 324.214 291.948C323.404 291.948 322.672 291.784 322.017 291.457C321.379 291.115 320.872 290.655 320.499 290.079C320.14 289.487 319.961 288.825 319.961 288.093ZM327.578 288.723C327.75 288.537 327.89 288.35 327.999 288.163C328.108 287.976 328.162 287.804 328.162 287.649V286.41C327.789 286.255 327.384 286.138 326.947 286.06C326.511 285.966 326.099 285.92 325.709 285.92C324.899 285.92 324.229 286.099 323.7 286.457C323.186 286.8 322.929 287.259 322.929 287.836C322.929 288.147 323.014 288.443 323.186 288.723C323.357 289.004 323.606 289.23 323.933 289.401C324.26 289.572 324.65 289.658 325.102 289.658C325.569 289.658 326.028 289.572 326.48 289.401C326.932 289.214 327.298 288.988 327.578 288.723ZM338.729 291.948C337.685 291.948 336.688 291.777 335.738 291.434C334.788 291.091 333.97 290.585 333.285 289.915L334.406 287.882C335.138 288.474 335.855 288.91 336.556 289.191C337.272 289.471 337.958 289.611 338.612 289.611C339.219 289.611 339.702 289.502 340.061 289.284C340.434 289.066 340.621 288.739 340.621 288.303C340.621 288.007 340.52 287.781 340.318 287.625C340.115 287.454 339.819 287.306 339.43 287.181C339.056 287.057 338.596 286.917 338.051 286.761C337.148 286.465 336.392 286.177 335.785 285.896C335.177 285.616 334.718 285.265 334.406 284.845C334.11 284.409 333.962 283.856 333.962 283.186C333.962 282.376 334.165 281.683 334.57 281.106C334.99 280.514 335.567 280.055 336.299 279.728C337.046 279.401 337.919 279.237 338.916 279.237C339.788 279.237 340.614 279.377 341.392 279.658C342.171 279.922 342.88 280.359 343.519 280.966L342.257 282.952C341.634 282.469 341.042 282.119 340.481 281.901C339.92 281.667 339.352 281.55 338.775 281.55C338.448 281.55 338.137 281.589 337.841 281.667C337.56 281.745 337.327 281.877 337.14 282.064C336.969 282.236 336.883 282.485 336.883 282.812C336.883 283.108 336.961 283.342 337.117 283.513C337.288 283.669 337.537 283.809 337.864 283.934C338.207 284.058 338.62 284.198 339.103 284.354C340.084 284.635 340.91 284.923 341.579 285.219C342.265 285.515 342.779 285.881 343.121 286.317C343.464 286.737 343.635 287.322 343.635 288.069C343.635 289.284 343.192 290.234 342.304 290.92C341.416 291.605 340.224 291.948 338.729 291.948ZM353.033 291.083C352.769 291.192 352.449 291.317 352.075 291.457C351.701 291.597 351.296 291.706 350.86 291.784C350.44 291.878 350.011 291.925 349.575 291.925C348.999 291.925 348.469 291.823 347.986 291.621C347.504 291.418 347.114 291.099 346.818 290.663C346.538 290.211 346.398 289.627 346.398 288.91V281.877H344.785V279.471H346.398V275.499H349.529V279.471H352.099V281.877H349.529V287.859C349.544 288.28 349.661 288.583 349.879 288.77C350.097 288.957 350.37 289.051 350.697 289.051C351.024 289.051 351.343 288.996 351.655 288.887C351.966 288.778 352.216 288.685 352.402 288.607L353.033 291.083ZM360.182 291.948C359.185 291.948 358.289 291.784 357.494 291.457C356.7 291.115 356.022 290.647 355.462 290.055C354.917 289.463 354.496 288.786 354.2 288.022C353.904 287.259 353.756 286.457 353.756 285.616C353.756 284.759 353.904 283.949 354.2 283.186C354.496 282.423 354.917 281.745 355.462 281.153C356.022 280.561 356.7 280.102 357.494 279.774C358.289 279.432 359.185 279.26 360.182 279.26C361.178 279.26 362.066 279.432 362.845 279.774C363.64 280.102 364.317 280.561 364.878 281.153C365.439 281.745 365.859 282.423 366.14 283.186C366.436 283.949 366.584 284.759 366.584 285.616C366.584 286.457 366.436 287.259 366.14 288.022C365.859 288.786 365.439 289.463 364.878 290.055C364.333 290.647 363.663 291.115 362.869 291.457C362.074 291.784 361.178 291.948 360.182 291.948ZM356.98 285.616C356.98 286.332 357.121 286.971 357.401 287.532C357.681 288.077 358.063 288.505 358.546 288.817C359.029 289.128 359.574 289.284 360.182 289.284C360.773 289.284 361.311 289.128 361.794 288.817C362.277 288.49 362.658 288.054 362.939 287.508C363.235 286.948 363.383 286.309 363.383 285.592C363.383 284.892 363.235 284.261 362.939 283.7C362.658 283.139 362.277 282.703 361.794 282.391C361.311 282.08 360.773 281.924 360.182 281.924C359.574 281.924 359.029 282.088 358.546 282.415C358.063 282.726 357.681 283.162 357.401 283.723C357.121 284.268 356.98 284.899 356.98 285.616ZM373.206 291.948C372.163 291.948 371.166 291.777 370.216 291.434C369.266 291.091 368.448 290.585 367.762 289.915L368.884 287.882C369.616 288.474 370.333 288.91 371.033 289.191C371.75 289.471 372.435 289.611 373.09 289.611C373.697 289.611 374.18 289.502 374.538 289.284C374.912 289.066 375.099 288.739 375.099 288.303C375.099 288.007 374.998 287.781 374.795 287.625C374.593 287.454 374.297 287.306 373.907 287.181C373.534 287.057 373.074 286.917 372.529 286.761C371.625 286.465 370.87 286.177 370.262 285.896C369.655 285.616 369.195 285.265 368.884 284.845C368.588 284.409 368.44 283.856 368.44 283.186C368.44 282.376 368.642 281.683 369.047 281.106C369.468 280.514 370.044 280.055 370.776 279.728C371.524 279.401 372.396 279.237 373.393 279.237C374.266 279.237 375.091 279.377 375.87 279.658C376.649 279.922 377.358 280.359 377.996 280.966L376.735 282.952C376.112 282.469 375.52 282.119 374.959 281.901C374.398 281.667 373.83 281.55 373.253 281.55C372.926 281.55 372.615 281.589 372.319 281.667C372.038 281.745 371.805 281.877 371.618 282.064C371.446 282.236 371.361 282.485 371.361 282.812C371.361 283.108 371.438 283.342 371.594 283.513C371.766 283.669 372.015 283.809 372.342 283.934C372.685 284.058 373.097 284.198 373.58 284.354C374.562 284.635 375.387 284.923 376.057 285.219C376.742 285.515 377.256 285.881 377.599 286.317C377.942 286.737 378.113 287.322 378.113 288.069C378.113 289.284 377.669 290.234 376.781 290.92C375.894 291.605 374.702 291.948 373.206 291.948ZM388.678 277.625C389.83 277.625 390.929 277.82 391.972 278.209C393.016 278.583 393.943 279.151 394.753 279.915C395.578 280.662 396.225 281.597 396.692 282.719C397.159 283.824 397.393 285.094 397.393 286.527C397.393 286.792 397.37 287.15 397.323 287.602C397.292 288.054 397.214 288.537 397.089 289.051C396.965 289.565 396.77 290.055 396.505 290.523C396.256 290.974 395.905 291.348 395.454 291.644C395.018 291.94 394.465 292.088 393.795 292.088C393.234 292.088 392.798 291.987 392.486 291.784C392.19 291.597 391.972 291.356 391.832 291.06C391.707 290.764 391.622 290.468 391.575 290.172C391.092 290.655 390.508 291.044 389.823 291.34C389.137 291.621 388.397 291.761 387.603 291.761C386.45 291.761 385.562 291.457 384.939 290.85C384.332 290.227 384.028 289.44 384.028 288.49C384.028 287.633 384.238 286.963 384.659 286.48C385.095 285.982 385.648 285.624 386.318 285.406C387.003 285.187 387.696 285.078 388.397 285.078C389.02 285.078 389.558 285.141 390.01 285.265C390.461 285.374 390.804 285.483 391.038 285.592C391.038 285.032 390.96 284.533 390.804 284.097C390.664 283.661 390.399 283.326 390.01 283.092C389.62 282.843 389.075 282.719 388.374 282.719C387.735 282.719 387.151 282.812 386.622 282.999C386.092 283.186 385.64 283.435 385.266 283.747L384.659 282.088C385.235 281.698 385.858 281.41 386.528 281.223C387.213 281.021 387.93 280.919 388.678 280.919C389.69 280.919 390.485 281.075 391.061 281.387C391.637 281.683 392.05 282.08 392.299 282.578C392.564 283.061 392.728 283.591 392.79 284.167C392.868 284.728 392.907 285.273 392.907 285.803V288.046C392.907 288.498 392.93 288.926 392.977 289.331C393.024 289.736 393.133 290.063 393.304 290.312C393.475 290.562 393.74 290.686 394.098 290.686C394.519 290.686 394.862 290.538 395.127 290.242C395.391 289.931 395.594 289.541 395.734 289.074C395.874 288.607 395.968 288.139 396.014 287.672C396.061 287.189 396.085 286.792 396.085 286.48C396.085 285.39 395.905 284.385 395.547 283.466C395.189 282.532 394.675 281.722 394.005 281.036C393.335 280.351 392.541 279.821 391.622 279.447C390.718 279.074 389.706 278.887 388.584 278.887C387.494 278.887 386.489 279.074 385.57 279.447C384.651 279.806 383.857 280.32 383.187 280.989C382.533 281.659 382.019 282.454 381.645 283.373C381.286 284.276 381.107 285.265 381.107 286.34C381.107 287.384 381.279 288.365 381.621 289.284C381.964 290.188 382.447 290.982 383.07 291.668C383.709 292.353 384.472 292.89 385.36 293.28C386.248 293.669 387.237 293.864 388.327 293.864C389.059 293.864 389.706 293.778 390.267 293.607C390.827 293.435 391.396 293.225 391.972 292.976L392.346 294.191C391.707 294.503 391.038 294.736 390.337 294.892C389.651 295.048 388.966 295.126 388.28 295.126C387.112 295.126 386.014 294.915 384.986 294.495C383.958 294.074 383.054 293.474 382.276 292.696C381.512 291.917 380.905 290.99 380.453 289.915C380.017 288.84 379.799 287.649 379.799 286.34C379.799 284.954 380.04 283.723 380.523 282.648C381.006 281.558 381.66 280.647 382.486 279.915C383.311 279.167 384.254 278.598 385.313 278.209C386.388 277.82 387.509 277.625 388.678 277.625ZM389.823 289.681C390.103 289.541 390.329 289.385 390.5 289.214C390.687 289.027 390.82 288.832 390.897 288.63C390.975 288.412 391.014 288.186 391.014 287.952V287.065C390.796 287.002 390.453 286.909 389.986 286.784C389.519 286.644 388.989 286.574 388.397 286.574C387.914 286.574 387.486 286.636 387.112 286.761C386.738 286.87 386.442 287.065 386.224 287.345C386.006 287.625 385.897 287.984 385.897 288.42C385.897 288.778 385.975 289.09 386.131 289.354C386.287 289.604 386.505 289.798 386.785 289.938C387.065 290.079 387.4 290.149 387.79 290.149C388.101 290.149 388.444 290.11 388.818 290.032C389.192 289.954 389.527 289.837 389.823 289.681ZM405.635 291.948C404.638 291.948 403.742 291.784 402.948 291.457C402.153 291.115 401.476 290.647 400.915 290.055C400.37 289.463 399.949 288.786 399.653 288.022C399.357 287.259 399.209 286.457 399.209 285.616C399.209 284.759 399.357 283.949 399.653 283.186C399.949 282.423 400.37 281.745 400.915 281.153C401.476 280.561 402.153 280.102 402.948 279.774C403.742 279.432 404.638 279.26 405.635 279.26C406.632 279.26 407.519 279.432 408.298 279.774C409.093 280.102 409.77 280.561 410.331 281.153C410.892 281.745 411.312 282.423 411.593 283.186C411.889 283.949 412.037 284.759 412.037 285.616C412.037 286.457 411.889 287.259 411.593 288.022C411.312 288.786 410.892 289.463 410.331 290.055C409.786 290.647 409.116 291.115 408.322 291.457C407.527 291.784 406.632 291.948 405.635 291.948ZM402.434 285.616C402.434 286.332 402.574 286.971 402.854 287.532C403.135 288.077 403.516 288.505 403.999 288.817C404.482 289.128 405.027 289.284 405.635 289.284C406.227 289.284 406.764 289.128 407.247 288.817C407.73 288.49 408.111 288.054 408.392 287.508C408.688 286.948 408.836 286.309 408.836 285.592C408.836 284.892 408.688 284.261 408.392 283.7C408.111 283.139 407.73 282.703 407.247 282.391C406.764 282.08 406.227 281.924 405.635 281.924C405.027 281.924 404.482 282.088 403.999 282.415C403.516 282.726 403.135 283.162 402.854 283.723C402.574 284.268 402.434 284.899 402.434 285.616ZM414.033 287.135V279.471H417.164V286.457C417.164 287.392 417.336 288.1 417.678 288.583C418.021 289.051 418.527 289.284 419.197 289.284C419.602 289.284 419.999 289.206 420.389 289.051C420.794 288.879 421.16 288.63 421.487 288.303C421.829 287.976 422.118 287.563 422.351 287.065V279.471H425.482V288.209C425.482 288.537 425.537 288.77 425.646 288.91C425.77 289.051 425.965 289.136 426.23 289.167V291.714C425.918 291.761 425.654 291.792 425.436 291.808C425.233 291.839 425.046 291.854 424.875 291.854C424.314 291.854 423.854 291.73 423.496 291.481C423.154 291.216 422.951 290.858 422.889 290.406L422.819 289.424C422.273 290.25 421.572 290.881 420.716 291.317C419.859 291.738 418.917 291.948 417.889 291.948C416.627 291.948 415.669 291.543 415.015 290.733C414.36 289.907 414.033 288.708 414.033 287.135ZM435.885 291.083C435.62 291.192 435.301 291.317 434.927 291.457C434.553 291.597 434.148 291.706 433.712 291.784C433.291 291.878 432.863 291.925 432.427 291.925C431.85 291.925 431.321 291.823 430.838 291.621C430.355 291.418 429.966 291.099 429.67 290.663C429.389 290.211 429.249 289.627 429.249 288.91V281.877H427.637V279.471H429.249V275.499H432.38V279.471H434.95V281.877H432.38V287.859C432.396 288.28 432.512 288.583 432.731 288.77C432.949 288.957 433.221 289.051 433.548 289.051C433.875 289.051 434.195 288.996 434.506 288.887C434.818 288.778 435.067 288.685 435.254 288.607L435.885 291.083ZM437.492 274.657H440.623V287.789C440.623 288.35 440.717 288.731 440.903 288.934C441.09 289.121 441.347 289.214 441.675 289.214C441.924 289.214 442.181 289.183 442.446 289.121C442.71 289.058 442.944 288.98 443.147 288.887L443.567 291.27C443.147 291.473 442.656 291.629 442.095 291.738C441.534 291.847 441.028 291.901 440.576 291.901C439.595 291.901 438.832 291.644 438.287 291.13C437.757 290.6 437.492 289.853 437.492 288.887V274.657ZM450.586 291.948C449.589 291.948 448.693 291.784 447.899 291.457C447.104 291.115 446.427 290.647 445.866 290.055C445.321 289.463 444.9 288.786 444.604 288.022C444.308 287.259 444.16 286.457 444.16 285.616C444.16 284.759 444.308 283.949 444.604 283.186C444.9 282.423 445.321 281.745 445.866 281.153C446.427 280.561 447.104 280.102 447.899 279.774C448.693 279.432 449.589 279.26 450.586 279.26C451.583 279.26 452.471 279.432 453.249 279.774C454.044 280.102 454.721 280.561 455.282 281.153C455.843 281.745 456.264 282.423 456.544 283.186C456.84 283.949 456.988 284.759 456.988 285.616C456.988 286.457 456.84 287.259 456.544 288.022C456.264 288.786 455.843 289.463 455.282 290.055C454.737 290.647 454.067 291.115 453.273 291.457C452.478 291.784 451.583 291.948 450.586 291.948ZM447.385 285.616C447.385 286.332 447.525 286.971 447.805 287.532C448.086 288.077 448.467 288.505 448.95 288.817C449.433 289.128 449.978 289.284 450.586 289.284C451.178 289.284 451.715 289.128 452.198 288.817C452.681 288.49 453.062 288.054 453.343 287.508C453.639 286.948 453.787 286.309 453.787 285.592C453.787 284.892 453.639 284.261 453.343 283.7C453.062 283.139 452.681 282.703 452.198 282.391C451.715 282.08 451.178 281.924 450.586 281.924C449.978 281.924 449.433 282.088 448.95 282.415C448.467 282.726 448.086 283.162 447.805 283.723C447.525 284.268 447.385 284.899 447.385 285.616ZM464.756 291.948C463.759 291.948 462.863 291.784 462.069 291.457C461.274 291.115 460.597 290.647 460.036 290.055C459.491 289.463 459.07 288.786 458.774 288.022C458.478 287.259 458.33 286.457 458.33 285.616C458.33 284.759 458.478 283.949 458.774 283.186C459.07 282.423 459.491 281.745 460.036 281.153C460.597 280.561 461.274 280.102 462.069 279.774C462.863 279.432 463.759 279.26 464.756 279.26C465.753 279.26 466.64 279.432 467.419 279.774C468.214 280.102 468.891 280.561 469.452 281.153C470.013 281.745 470.433 282.423 470.714 283.186C471.01 283.949 471.158 284.759 471.158 285.616C471.158 286.457 471.01 287.259 470.714 288.022C470.433 288.786 470.013 289.463 469.452 290.055C468.907 290.647 468.237 291.115 467.443 291.457C466.648 291.784 465.753 291.948 464.756 291.948ZM461.555 285.616C461.555 286.332 461.695 286.971 461.975 287.532C462.255 288.077 462.637 288.505 463.12 288.817C463.603 289.128 464.148 289.284 464.756 289.284C465.348 289.284 465.885 289.128 466.368 288.817C466.851 288.49 467.232 288.054 467.513 287.508C467.809 286.948 467.957 286.309 467.957 285.592C467.957 284.892 467.809 284.261 467.513 283.7C467.232 283.139 466.851 282.703 466.368 282.391C465.885 282.08 465.348 281.924 464.756 281.924C464.148 281.924 463.603 282.088 463.12 282.415C462.637 282.726 462.255 283.162 461.975 283.723C461.695 284.268 461.555 284.899 461.555 285.616ZM481.636 291.714L478.061 286.434L476.402 288.069V291.714H473.271V274.657H476.402V284.985L481.332 279.494H484.65L480.094 284.681L484.977 291.714H481.636ZM486.23 291.714V288.35H488.8V291.714H486.23ZM496.998 291.948C496.001 291.948 495.106 291.784 494.311 291.457C493.517 291.115 492.839 290.647 492.278 290.055C491.718 289.448 491.282 288.762 490.97 287.999C490.674 287.236 490.526 286.434 490.526 285.592C490.526 284.44 490.783 283.388 491.297 282.438C491.827 281.472 492.574 280.701 493.54 280.125C494.506 279.549 495.651 279.26 496.975 279.26C498.299 279.26 499.436 279.549 500.386 280.125C501.336 280.701 502.045 281.457 502.513 282.391L499.452 283.326C499.187 282.874 498.836 282.532 498.4 282.298C497.964 282.049 497.481 281.924 496.952 281.924C496.36 281.924 495.814 282.08 495.316 282.391C494.833 282.687 494.451 283.116 494.171 283.677C493.891 284.222 493.75 284.86 493.75 285.592C493.75 286.309 493.891 286.948 494.171 287.508C494.467 288.054 494.856 288.49 495.339 288.817C495.822 289.128 496.36 289.284 496.952 289.284C497.325 289.284 497.676 289.222 498.003 289.097C498.346 288.973 498.649 288.801 498.914 288.583C499.179 288.365 499.374 288.116 499.498 287.836L502.559 288.77C502.279 289.378 501.866 289.923 501.321 290.406C500.791 290.889 500.16 291.27 499.428 291.551C498.712 291.815 497.902 291.948 496.998 291.948ZM510.026 291.948C509.029 291.948 508.134 291.784 507.339 291.457C506.545 291.115 505.867 290.647 505.306 290.055C504.761 289.463 504.341 288.786 504.045 288.022C503.749 287.259 503.601 286.457 503.601 285.616C503.601 284.759 503.749 283.949 504.045 283.186C504.341 282.423 504.761 281.745 505.306 281.153C505.867 280.561 506.545 280.102 507.339 279.774C508.134 279.432 509.029 279.26 510.026 279.26C511.023 279.26 511.911 279.432 512.69 279.774C513.484 280.102 514.162 280.561 514.723 281.153C515.283 281.745 515.704 282.423 515.984 283.186C516.28 283.949 516.428 284.759 516.428 285.616C516.428 286.457 516.28 287.259 515.984 288.022C515.704 288.786 515.283 289.463 514.723 290.055C514.177 290.647 513.508 291.115 512.713 291.457C511.919 291.784 511.023 291.948 510.026 291.948ZM506.825 285.616C506.825 286.332 506.965 286.971 507.246 287.532C507.526 288.077 507.908 288.505 508.391 288.817C508.873 289.128 509.419 289.284 510.026 289.284C510.618 289.284 511.155 289.128 511.638 288.817C512.121 288.49 512.503 288.054 512.783 287.508C513.079 286.948 513.227 286.309 513.227 285.592C513.227 284.892 513.079 284.261 512.783 283.7C512.503 283.139 512.121 282.703 511.638 282.391C511.155 282.08 510.618 281.924 510.026 281.924C509.419 281.924 508.873 282.088 508.391 282.415C507.908 282.726 507.526 283.162 507.246 283.723C506.965 284.268 506.825 284.899 506.825 285.616ZM537.561 291.714H534.43V284.845C534.43 283.879 534.259 283.17 533.916 282.719C533.589 282.251 533.129 282.018 532.538 282.018C531.93 282.018 531.346 282.259 530.785 282.742C530.24 283.209 529.85 283.824 529.617 284.588V291.714H526.486V284.845C526.486 283.863 526.315 283.147 525.972 282.695C525.645 282.243 525.185 282.018 524.593 282.018C523.986 282.018 523.402 282.251 522.841 282.719C522.296 283.186 521.906 283.801 521.673 284.564V291.714H518.542V279.471H521.369V281.737C521.836 280.943 522.459 280.335 523.238 279.915C524.017 279.479 524.913 279.26 525.925 279.26C526.938 279.26 527.724 279.51 528.285 280.008C528.861 280.507 529.227 281.122 529.383 281.854C529.882 281.013 530.512 280.374 531.276 279.938C532.055 279.486 532.927 279.26 533.893 279.26C534.656 279.26 535.271 279.401 535.739 279.681C536.221 279.946 536.595 280.312 536.86 280.779C537.125 281.231 537.304 281.745 537.398 282.321C537.507 282.898 537.561 283.482 537.561 284.074V291.714Z" fill="white"/>
</g>
</g>
<defs>
<linearGradient id="paint0_linear_1376_3708" x1="1487.71" y1="56.1899" x2="1403.94" y2="56.2606" gradientUnits="userSpaceOnUse">
<stop stop-color="white"/>
<stop offset="1" stop-color="#C6C6C6" stop-opacity="0.8"/>
</linearGradient>
<linearGradient id="paint1_linear_1376_3708" x1="1578.15" y1="49.4648" x2="1493.97" y2="49.4647" gradientUnits="userSpaceOnUse">
<stop stop-color="#819901"/>
<stop offset="1" stop-color="#D7FF01"/>
</linearGradient>
<linearGradient id="paint2_linear_1376_3708" x1="1495.05" y1="140.213" x2="1576.89" y2="140.4" gradientUnits="userSpaceOnUse">
<stop stop-color="#D7FF01"/>
<stop offset="1" stop-color="#819901"/>
</linearGradient>
<linearGradient id="paint3_linear_1376_3708" x1="48.5694" y1="98.9265" x2="48.5693" y2="-5.5039e-06" gradientUnits="userSpaceOnUse">
<stop stop-color="#990DCE"/>
<stop offset="1" stop-color="#4D0768"/>
</linearGradient>
<linearGradient id="paint4_linear_1376_3708" x1="1472.98" y1="346.398" x2="1401.36" y2="346.398" gradientUnits="userSpaceOnUse">
<stop stop-color="#990DCE"/>
<stop offset="1" stop-color="#4D0768"/>
</linearGradient>
<linearGradient id="paint5_linear_1376_3708" x1="1437.22" y1="284.081" x2="1437.22" y2="198.353" gradientUnits="userSpaceOnUse">
<stop stop-color="#990DCE"/>
<stop offset="1" stop-color="#4D0768"/>
</linearGradient>
<linearGradient id="paint6_linear_1376_3708" x1="0" y1="49.4633" x2="97.1387" y2="49.4633" gradientUnits="userSpaceOnUse">
<stop stop-color="#D7FF01"/>
<stop offset="1" stop-color="#819901"/>
</linearGradient>
<linearGradient id="paint7_linear_1376_3708" x1="1492.69" y1="338.954" x2="1575.28" y2="339.116" gradientUnits="userSpaceOnUse">
<stop stop-color="white"/>
<stop offset="1" stop-color="#C6C6C6" stop-opacity="0.8"/>
</linearGradient>
<linearGradient id="paint8_linear_1376_3708" x1="1243.06" y1="312.511" x2="1242.86" y2="395.863" gradientUnits="userSpaceOnUse">
<stop stop-color="#D7FF01"/>
<stop offset="1" stop-color="#819901"/>
</linearGradient>
<linearGradient id="paint9_linear_1376_3708" x1="97.1387" y1="49.4633" x2="0" y2="49.4633" gradientUnits="userSpaceOnUse">
<stop stop-color="#990DCE"/>
<stop offset="1" stop-color="#4D0768"/>
</linearGradient>
<linearGradient id="paint10_linear_1376_3708" x1="1049.48" y1="312.265" x2="1049.48" y2="382.38" gradientUnits="userSpaceOnUse">
<stop stop-color="white"/>
<stop offset="1" stop-color="#C6C6C6" stop-opacity="0.8"/>
</linearGradient>
<linearGradient id="paint11_linear_1376_3708" x1="1145.43" y1="311.518" x2="1145.75" y2="396.058" gradientUnits="userSpaceOnUse">
<stop stop-color="white"/>
<stop offset="1" stop-color="#C6C6C6"/>
</linearGradient>
<linearGradient id="paint12_linear_1376_3708" x1="1340.4" y1="284.122" x2="1340.38" y2="212.306" gradientUnits="userSpaceOnUse">
<stop stop-color="#D7FF01"/>
<stop offset="1" stop-color="#819901"/>
</linearGradient>
<linearGradient id="paint13_linear_1376_3708" x1="1304.68" y1="149.789" x2="1375.2" y2="149.715" gradientUnits="userSpaceOnUse">
<stop stop-color="#990DCE"/>
<stop offset="1" stop-color="#4D0768"/>
</linearGradient>
<linearGradient id="paint14_linear_1376_3708" x1="49.4633" y1="0" x2="49.4633" y2="97.1387" gradientUnits="userSpaceOnUse">
<stop stop-color="#D7FF01"/>
<stop offset="1" stop-color="#819901"/>
</linearGradient>
<linearGradient id="paint15_linear_1376_3708" x1="49.4633" y1="0" x2="49.4633" y2="97.1387" gradientUnits="userSpaceOnUse">
<stop stop-color="white"/>
<stop offset="1" stop-color="#C6C6C6"/>
</linearGradient>
<clipPath id="clip0_1376_3708">
<rect width="1584" height="396" fill="white"/>
</clipPath>
<clipPath id="clip1_1376_3708">
<rect width="28.5301" height="29.0552" fill="white" transform="translate(203.503 269.714)"/>
</clipPath>
</defs>
</svg>
