<svg width="1584" height="396" viewBox="0 0 1584 396" fill="none" xmlns="http://www.w3.org/2000/svg">
<g clip-path="url(#clip0_1361_2516)">
<path d="M1485.34 98.9494L1485.34 0.000135046C1435.21 0.000128472 1386.4 40.7071 1386.4 98.9493L1485.34 98.9494Z" fill="url(#paint0_linear_1361_2516)"/>
<path d="M1584 0.000619002L1485.05 0.000610352C1485.05 50.1348 1525.76 98.9498 1584 98.9498L1584 0.000619002Z" fill="url(#paint1_linear_1361_2516)"/>
<path d="M1485.05 98.6554L1485.05 197.605C1535.18 197.605 1584 156.898 1584 98.6554L1485.05 98.6554Z" fill="url(#paint2_linear_1361_2516)"/>
<circle cx="49.474" cy="49.474" r="49.474" transform="matrix(1 8.74228e-08 8.74228e-08 -1 1386.4 197.506)" fill="url(#paint3_linear_1361_2516)"/>
<path d="M1384.36 395.901C1439.01 395.901 1483.31 351.599 1483.31 296.951V296.951V296.951C1428.66 296.951 1384.36 341.253 1384.36 395.901V395.901V395.901Z" fill="url(#paint4_linear_1361_2516)"/>
<path d="M1384.36 198.396C1384.36 253.044 1428.66 297.344 1483.31 297.344V297.344V297.344C1483.31 242.697 1439.01 198.396 1384.36 198.396V198.396V198.396Z" fill="url(#paint5_linear_1361_2516)"/>
<circle cx="49.474" cy="49.474" r="49.474" transform="matrix(1 8.74228e-08 8.74228e-08 -1 1483.02 297.344)" fill="url(#paint6_linear_1361_2516)"/>
<path d="M1483.02 297.051L1483.02 396C1533.15 396 1581.96 355.293 1581.96 297.051L1483.02 297.051Z" fill="url(#paint7_linear_1361_2516)"/>
<path d="M1285.05 395.655L1285.05 494.605C1335.18 494.605 1384 453.898 1384 395.655L1285.05 395.655Z" fill="url(#paint8_linear_1361_2516)"/>
<path d="M1186.4 494.604H1285.34C1285.34 444.47 1244.64 395.655 1186.4 395.655V494.604Z" fill="url(#paint9_linear_1361_2516)"/>
<path d="M1285.34 395.949L1285.34 297C1235.21 297 1186.4 337.707 1186.4 395.949L1285.34 395.949Z" fill="url(#paint10_linear_1361_2516)"/>
<circle cx="49.474" cy="49.474" r="49.474" transform="matrix(-1 0 0 1 1384 297.099)" fill="url(#paint11_linear_1361_2516)"/>
<path d="M1088.15 297.999C1033.94 297.999 990 341.941 990 396.145V396.145V396.145C1044.2 396.145 1088.15 352.203 1088.15 297.999V297.999V297.999Z" fill="url(#paint12_linear_1361_2516)"/>
<path d="M1087.85 396.145H1186C1186 346.418 1145.62 297.999 1087.85 297.999V396.145Z" fill="url(#paint13_linear_1361_2516)"/>
<path d="M1186 395.854C1131.8 395.854 1087.85 439.796 1087.85 494V494V494C1142.06 494 1186 450.058 1186 395.854V395.854V395.854Z" fill="url(#paint14_linear_1361_2516)"/>
<rect width="98.145" height="98.145" transform="matrix(-1 0 0 1 1088.15 395.854)" fill="url(#paint15_linear_1361_2516)"/>
<path d="M1285.41 297.929C1340.06 297.91 1384.35 253.593 1384.33 198.945V198.945V198.945C1329.68 198.965 1285.39 243.282 1285.41 297.929V297.929V297.929Z" fill="url(#paint16_linear_1361_2516)"/>
<path d="M1384.33 199.24C1384.31 144.592 1339.99 100.307 1285.34 100.327V100.327V100.327C1285.36 154.974 1329.68 199.259 1384.33 199.24V199.24V199.24Z" fill="url(#paint17_linear_1361_2516)"/>
<rect width="98.9481" height="98.9481" transform="matrix(-0.000354125 -1 -1 0.000354125 1285.31 199.567)" fill="url(#paint18_linear_1361_2516)"/>
<circle cx="49.474" cy="49.474" r="49.474" transform="matrix(-0.000354125 -1 -1 0.000354125 1285.05 297.93)" fill="url(#paint19_linear_1361_2516)"/>
<path d="M3.61023 124V93.844H14.0586C17.2866 93.844 19.9766 94.5236 22.1286 95.8827C24.3089 97.2135 25.937 99.0257 27.013 101.319C28.089 103.585 28.627 106.105 28.627 108.88C28.627 111.938 28.0323 114.599 26.8431 116.864C25.6538 119.13 23.9691 120.885 21.7888 122.131C19.6085 123.377 17.0318 124 14.0586 124H3.61023ZM24.7619 108.88C24.7619 106.614 24.3372 104.604 23.4877 102.848C22.6666 101.093 21.4632 99.7195 19.8775 98.7284C18.2918 97.7374 16.3522 97.2418 14.0586 97.2418H7.43282V120.602H14.0586C16.3805 120.602 18.3343 120.092 19.92 119.073C21.5056 118.025 22.709 116.624 23.5302 114.868C24.3513 113.084 24.7619 111.088 24.7619 108.88ZM43.2301 124.425C41.5595 124.425 40.0305 124.127 38.643 123.533C37.2839 122.91 36.0946 122.075 35.0753 121.027C34.0842 119.951 33.3056 118.719 32.7392 117.332C32.2012 115.944 31.9323 114.472 31.9323 112.914C31.9323 110.819 32.4136 108.908 33.3763 107.181C34.3391 105.453 35.6699 104.066 37.3688 103.018C39.0961 101.971 41.064 101.447 43.2726 101.447C45.5095 101.447 47.4491 101.985 49.0914 103.061C50.7621 104.108 52.0504 105.496 52.9565 107.223C53.8909 108.922 54.3581 110.763 54.3581 112.745C54.3581 113.028 54.344 113.311 54.3157 113.594C54.3157 113.849 54.3015 114.047 54.2732 114.189H35.8823C35.9955 115.633 36.3919 116.921 37.0715 118.054C37.7794 119.158 38.6855 120.036 39.7898 120.687C40.8941 121.31 42.0834 121.621 43.3576 121.621C44.7167 121.621 45.9909 121.282 47.1802 120.602C48.3977 119.923 49.233 119.031 49.6861 117.926L52.914 118.818C52.4327 119.894 51.7106 120.857 50.7479 121.706C49.8135 122.556 48.695 123.221 47.3925 123.703C46.1183 124.184 44.7309 124.425 43.2301 124.425ZM35.7548 111.598H50.8753C50.7621 110.154 50.3515 108.88 49.6436 107.775C48.9357 106.671 48.0296 105.807 46.9253 105.184C45.821 104.561 44.6034 104.25 43.2726 104.25C41.9701 104.25 40.7667 104.561 39.6624 105.184C38.5581 105.807 37.652 106.671 36.9441 107.775C36.2645 108.88 35.8681 110.154 35.7548 111.598ZM66.1156 124.425C64.2751 124.425 62.5478 124.127 60.9339 123.533C59.3199 122.91 57.9324 121.99 56.7715 120.772L58.2156 118.139C59.4898 119.328 60.764 120.177 62.0382 120.687C63.3124 121.197 64.6149 121.452 65.9457 121.452C67.4747 121.452 68.7206 121.168 69.6833 120.602C70.6461 120.008 71.1274 119.144 71.1274 118.011C71.1274 117.19 70.8726 116.581 70.3629 116.185C69.8816 115.789 69.1878 115.463 68.2817 115.208C67.3756 114.925 66.2996 114.613 65.0538 114.274C63.5247 113.821 62.2364 113.339 61.1887 112.83C60.141 112.32 59.3482 111.683 58.8102 110.918C58.2722 110.154 58.0032 109.191 58.0032 108.03C58.0032 106.614 58.3713 105.425 59.1075 104.462C59.8437 103.471 60.8489 102.721 62.1231 102.211C63.4256 101.702 64.898 101.447 66.5403 101.447C68.1826 101.447 69.6692 101.702 71 102.211C72.3308 102.721 73.4776 103.471 74.4403 104.462L72.7414 107.053C71.8636 106.147 70.9009 105.482 69.8532 105.057C68.8056 104.604 67.6305 104.377 66.328 104.377C65.5634 104.377 64.8131 104.476 64.0769 104.675C63.3407 104.845 62.7319 105.17 62.2505 105.652C61.7692 106.105 61.5285 106.756 61.5285 107.605C61.5285 108.313 61.7125 108.88 62.0806 109.304C62.477 109.701 63.0434 110.04 63.7796 110.324C64.5441 110.607 65.4643 110.918 66.5403 111.258C68.2109 111.739 69.655 112.221 70.8726 112.702C72.1185 113.183 73.0812 113.806 73.7608 114.571C74.4403 115.335 74.7801 116.397 74.7801 117.756C74.7801 119.852 73.9873 121.494 72.4016 122.683C70.816 123.844 68.7206 124.425 66.1156 124.425ZM89.0631 124.425C87.3925 124.425 85.8634 124.127 84.476 123.533C83.1168 122.91 81.9276 122.075 80.9082 121.027C79.9172 119.951 79.1385 118.719 78.5722 117.332C78.0342 115.944 77.7652 114.472 77.7652 112.914C77.7652 110.819 78.2466 108.908 79.2093 107.181C80.172 105.453 81.5029 104.066 83.2018 103.018C84.929 101.971 86.897 101.447 89.1056 101.447C91.3425 101.447 93.2821 101.985 94.9244 103.061C96.595 104.108 97.8834 105.496 98.7895 107.223C99.7239 108.922 100.191 110.763 100.191 112.745C100.191 113.028 100.177 113.311 100.149 113.594C100.149 113.849 100.134 114.047 100.106 114.189H81.7152C81.8285 115.633 82.2249 116.921 82.9045 118.054C83.6124 119.158 84.5185 120.036 85.6228 120.687C86.7271 121.31 87.9163 121.621 89.1905 121.621C90.5497 121.621 91.8239 121.282 93.0131 120.602C94.2307 119.923 95.066 119.031 95.519 117.926L98.747 118.818C98.2656 119.894 97.5436 120.857 96.5809 121.706C95.6464 122.556 94.528 123.221 93.2255 123.703C91.9513 124.184 90.5638 124.425 89.0631 124.425ZM81.5878 111.598H96.7083C96.595 110.154 96.1844 108.88 95.4766 107.775C94.7687 106.671 93.8626 105.807 92.7583 105.184C91.654 104.561 90.4364 104.25 89.1056 104.25C87.8031 104.25 86.5996 104.561 85.4953 105.184C84.391 105.807 83.4849 106.671 82.777 107.775C82.0975 108.88 81.7011 110.154 81.5878 111.598ZM123.586 124H119.849V111.598C119.849 109.248 119.48 107.535 118.744 106.459C118.036 105.354 116.946 104.802 115.474 104.802C114.454 104.802 113.435 105.057 112.416 105.567C111.425 106.076 110.533 106.77 109.74 107.648C108.975 108.497 108.423 109.488 108.083 110.621V124H104.346V101.829H107.744V106.586C108.338 105.538 109.103 104.632 110.037 103.868C110.972 103.103 112.033 102.509 113.223 102.084C114.412 101.659 115.658 101.447 116.96 101.447C118.235 101.447 119.296 101.687 120.146 102.169C121.024 102.622 121.703 103.273 122.185 104.123C122.694 104.944 123.048 105.921 123.246 107.053C123.473 108.186 123.586 109.418 123.586 110.748V124ZM135.313 124L126.606 101.829H130.514L137.479 120.432L144.445 101.829H148.098L139.391 124H135.313ZM160.775 124.425C159.105 124.425 157.59 124.127 156.231 123.533C154.871 122.91 153.696 122.075 152.705 121.027C151.714 119.951 150.95 118.719 150.412 117.332C149.874 115.944 149.605 114.486 149.605 112.957C149.605 111.4 149.874 109.927 150.412 108.54C150.95 107.152 151.714 105.935 152.705 104.887C153.696 103.811 154.871 102.976 156.231 102.381C157.618 101.758 159.133 101.447 160.775 101.447C162.446 101.447 163.961 101.758 165.32 102.381C166.679 102.976 167.854 103.811 168.845 104.887C169.864 105.935 170.643 107.152 171.181 108.54C171.719 109.927 171.988 111.4 171.988 112.957C171.988 114.486 171.719 115.944 171.181 117.332C170.643 118.719 169.879 119.951 168.888 121.027C167.897 122.075 166.707 122.91 165.32 123.533C163.961 124.127 162.446 124.425 160.775 124.425ZM153.427 112.999C153.427 114.528 153.753 115.916 154.404 117.162C155.084 118.408 155.976 119.399 157.08 120.135C158.184 120.843 159.416 121.197 160.775 121.197C162.134 121.197 163.366 120.829 164.47 120.092C165.603 119.356 166.495 118.365 167.146 117.119C167.826 115.845 168.166 114.444 168.166 112.914C168.166 111.385 167.826 109.998 167.146 108.752C166.495 107.506 165.603 106.515 164.47 105.779C163.366 105.043 162.134 104.675 160.775 104.675C159.416 104.675 158.184 105.057 157.08 105.821C155.976 106.558 155.084 107.549 154.404 108.795C153.753 110.04 153.427 111.442 153.427 112.999ZM176.602 92.9945H180.34V118.266C180.34 119.484 180.51 120.234 180.849 120.517C181.189 120.8 181.6 120.942 182.081 120.942C182.676 120.942 183.242 120.885 183.78 120.772C184.318 120.63 184.771 120.489 185.139 120.347L185.734 123.405C185.111 123.66 184.375 123.873 183.525 124.042C182.676 124.212 181.925 124.297 181.274 124.297C179.83 124.297 178.683 123.887 177.834 123.066C177.013 122.244 176.602 121.098 176.602 119.625V92.9945ZM194.212 124L185.505 101.829H189.412L196.378 120.432L203.343 101.829H206.996L198.289 124H194.212ZM219.801 124.425C218.13 124.425 216.601 124.127 215.214 123.533C213.855 122.91 212.666 122.075 211.646 121.027C210.655 119.951 209.876 118.719 209.31 117.332C208.772 115.944 208.503 114.472 208.503 112.914C208.503 110.819 208.985 108.908 209.947 107.181C210.91 105.453 212.241 104.066 213.94 103.018C215.667 101.971 217.635 101.447 219.844 101.447C222.08 101.447 224.02 101.985 225.662 103.061C227.333 104.108 228.621 105.496 229.527 107.223C230.462 108.922 230.929 110.763 230.929 112.745C230.929 113.028 230.915 113.311 230.887 113.594C230.887 113.849 230.872 114.047 230.844 114.189H212.453C212.566 115.633 212.963 116.921 213.642 118.054C214.35 119.158 215.256 120.036 216.361 120.687C217.465 121.31 218.654 121.621 219.928 121.621C221.288 121.621 222.562 121.282 223.751 120.602C224.969 119.923 225.804 119.031 226.257 117.926L229.485 118.818C229.004 119.894 228.282 120.857 227.319 121.706C226.384 122.556 225.266 123.221 223.963 123.703C222.689 124.184 221.302 124.425 219.801 124.425ZM212.326 111.598H227.446C227.333 110.154 226.922 108.88 226.215 107.775C225.507 106.671 224.601 105.807 223.496 105.184C222.392 104.561 221.174 104.25 219.844 104.25C218.541 104.25 217.338 104.561 216.233 105.184C215.129 105.807 214.223 106.671 213.515 107.775C212.835 108.88 212.439 110.154 212.326 111.598ZM233.64 112.957C233.64 110.862 234.064 108.95 234.914 107.223C235.792 105.468 236.981 104.066 238.482 103.018C240.011 101.971 241.752 101.447 243.706 101.447C245.49 101.447 247.09 101.914 248.505 102.848C249.921 103.783 251.025 104.915 251.818 106.246V92.9945H255.556V119.753C255.556 120.206 255.641 120.546 255.811 120.772C256.009 120.97 256.32 121.084 256.745 121.112V124C256.037 124.113 255.485 124.17 255.089 124.17C254.353 124.17 253.701 123.915 253.135 123.405C252.597 122.896 252.328 122.329 252.328 121.706V119.838C251.45 121.253 250.275 122.372 248.803 123.193C247.33 124.014 245.801 124.425 244.216 124.425C242.687 124.425 241.271 124.127 239.968 123.533C238.694 122.91 237.576 122.06 236.613 120.984C235.678 119.908 234.942 118.691 234.404 117.332C233.895 115.944 233.64 114.486 233.64 112.957ZM251.818 116.227V109.856C251.478 108.894 250.926 108.03 250.162 107.266C249.397 106.473 248.534 105.85 247.571 105.397C246.637 104.915 245.702 104.675 244.768 104.675C243.663 104.675 242.658 104.915 241.752 105.397C240.874 105.85 240.11 106.473 239.459 107.266C238.836 108.03 238.354 108.908 238.014 109.899C237.675 110.89 237.505 111.923 237.505 112.999C237.505 114.104 237.689 115.151 238.057 116.142C238.453 117.133 238.991 118.011 239.671 118.776C240.379 119.54 241.186 120.135 242.092 120.56C243.026 120.984 244.032 121.197 245.107 121.197C245.787 121.197 246.481 121.069 247.189 120.815C247.925 120.56 248.619 120.206 249.27 119.753C249.921 119.3 250.473 118.776 250.926 118.181C251.379 117.558 251.677 116.907 251.818 116.227ZM271.479 124.425C269.809 124.425 268.294 124.127 266.935 123.533C265.576 122.91 264.401 122.075 263.409 121.027C262.418 119.951 261.654 118.719 261.116 117.332C260.578 115.944 260.309 114.486 260.309 112.957C260.309 111.4 260.578 109.927 261.116 108.54C261.654 107.152 262.418 105.935 263.409 104.887C264.401 103.811 265.576 102.976 266.935 102.381C268.322 101.758 269.837 101.447 271.479 101.447C273.15 101.447 274.665 101.758 276.024 102.381C277.383 102.976 278.558 103.811 279.549 104.887C280.569 105.935 281.347 107.152 281.885 108.54C282.423 109.927 282.692 111.4 282.692 112.957C282.692 114.486 282.423 115.944 281.885 117.332C281.347 118.719 280.583 119.951 279.592 121.027C278.601 122.075 277.412 122.91 276.024 123.533C274.665 124.127 273.15 124.425 271.479 124.425ZM264.132 112.999C264.132 114.528 264.457 115.916 265.108 117.162C265.788 118.408 266.68 119.399 267.784 120.135C268.889 120.843 270.12 121.197 271.479 121.197C272.839 121.197 274.07 120.829 275.175 120.092C276.307 119.356 277.199 118.365 277.85 117.119C278.53 115.845 278.87 114.444 278.87 112.914C278.87 111.385 278.53 109.998 277.85 108.752C277.199 107.506 276.307 106.515 275.175 105.779C274.07 105.043 272.839 104.675 271.479 104.675C270.12 104.675 268.889 105.057 267.784 105.821C266.68 106.558 265.788 107.549 265.108 108.795C264.457 110.04 264.132 111.442 264.132 112.999ZM298.944 105.099C297.075 105.128 295.419 105.609 293.975 106.543C292.559 107.45 291.554 108.71 290.959 110.324V124H287.221V101.829H290.704V106.968C291.469 105.439 292.474 104.207 293.72 103.273C294.994 102.31 296.325 101.772 297.712 101.659C297.995 101.659 298.236 101.659 298.434 101.659C298.633 101.659 298.802 101.673 298.944 101.702V105.099ZM300.91 117.587C300.91 116.171 301.306 114.953 302.099 113.934C302.92 112.886 304.039 112.079 305.454 111.513C306.87 110.947 308.512 110.663 310.381 110.663C311.372 110.663 312.42 110.748 313.524 110.918C314.629 111.06 315.605 111.286 316.455 111.598V109.984C316.455 108.285 315.945 106.954 314.926 105.991C313.907 105 312.462 104.505 310.594 104.505C309.376 104.505 308.201 104.731 307.068 105.184C305.964 105.609 304.789 106.232 303.543 107.053L302.184 104.42C303.628 103.429 305.072 102.693 306.516 102.211C307.96 101.702 309.461 101.447 311.018 101.447C313.85 101.447 316.087 102.24 317.729 103.825C319.371 105.383 320.193 107.563 320.193 110.366V119.753C320.193 120.206 320.278 120.546 320.447 120.772C320.646 120.97 320.957 121.084 321.382 121.112V124C321.014 124.057 320.688 124.099 320.405 124.127C320.15 124.156 319.938 124.17 319.768 124.17C318.89 124.17 318.225 123.929 317.772 123.448C317.347 122.966 317.106 122.457 317.05 121.919L316.965 120.517C316.002 121.763 314.742 122.726 313.184 123.405C311.627 124.085 310.084 124.425 308.555 124.425C307.083 124.425 305.766 124.127 304.605 123.533C303.444 122.91 302.538 122.089 301.887 121.069C301.235 120.022 300.91 118.861 300.91 117.587ZM315.351 119.158C315.69 118.762 315.959 118.365 316.158 117.969C316.356 117.544 316.455 117.19 316.455 116.907V114.146C315.577 113.806 314.657 113.552 313.694 113.382C312.731 113.183 311.783 113.084 310.848 113.084C308.951 113.084 307.408 113.467 306.219 114.231C305.058 114.967 304.477 115.987 304.477 117.289C304.477 117.997 304.662 118.691 305.03 119.37C305.426 120.022 305.992 120.56 306.729 120.984C307.493 121.409 308.427 121.621 309.532 121.621C310.693 121.621 311.797 121.395 312.845 120.942C313.892 120.461 314.728 119.866 315.351 119.158Z" fill="#990DCE"/>
<path d="M2.24043 209V199.922H9.92742V164.346H2.24043V155.268H50.3324V171.84H40.0573V164.346H23.9108V176.784H35.5379V185.862H23.9108V199.922H32.1772V209H2.24043ZM52.5729 164.346V155.268H78.2219V164.346H72.9299V188.643C72.9299 191.888 73.0586 194.231 73.3162 195.673C73.5994 197.09 74.3205 198.261 75.4793 199.188C76.6382 200.116 78.106 200.579 79.8829 200.579C81.7113 200.579 83.2307 200.141 84.441 199.266C85.6514 198.39 86.424 197.296 86.7587 195.982C87.1193 194.669 87.2995 191.991 87.2995 187.948V164.346H82.0847V155.268H103.485V164.346H96.9179V191.231C96.9179 194.888 96.7248 197.553 96.3385 199.227C95.9522 200.875 95.0638 202.523 93.6732 204.171C92.2826 205.794 90.261 207.12 87.6086 208.15C84.9818 209.155 81.956 209.657 78.5309 209.657C74.5651 209.657 71.1787 209.103 68.3718 207.996C65.5905 206.863 63.5175 205.369 62.1526 203.515C60.7878 201.661 59.9122 199.819 59.5259 197.991C59.1396 196.163 58.9465 193.047 58.9465 188.643V164.346H52.5729ZM106.884 209V199.922H114.571V164.346H106.884V155.268H136.396V164.346H128.554V199.922H144.43V183.312H154.899V209H106.884ZM158.028 209V199.922H165.715V164.346H158.028V155.268H187.539V164.346H179.698V199.922H195.574V183.312H206.042V209H158.028ZM209.789 195.519V185.089H231.382V195.519H209.789ZM237.988 209V190.69H247.104C247.207 194.038 248.083 196.51 249.731 198.107C251.379 199.678 253.259 200.463 255.37 200.463C257.019 200.463 258.409 199.897 259.542 198.764C260.675 197.605 261.242 196.253 261.242 194.708C261.242 193.059 260.688 191.682 259.581 190.574C258.474 189.441 256.452 188.154 253.516 186.712C247.31 183.699 243.087 181.046 240.846 178.754C238.632 176.462 237.524 173.372 237.524 169.483C237.524 164.797 238.992 161.166 241.928 158.59C244.864 156.015 248.198 154.728 251.933 154.728C256.207 154.728 259.517 156.389 261.86 159.711V155.268H270.938V171.608H261.86C261.577 169.084 260.701 167.14 259.233 165.775C257.791 164.385 256.104 163.689 254.173 163.689C252.679 163.689 251.417 164.088 250.387 164.887C249.357 165.685 248.842 166.728 248.842 168.016C248.842 169.123 249.267 170.179 250.117 171.183C250.967 172.162 253.452 173.565 257.572 175.394C261.538 177.17 264.577 178.78 266.688 180.222C268.826 181.638 270.513 183.493 271.749 185.785C272.985 188.051 273.603 190.677 273.603 193.665C273.603 198.97 272.058 202.961 268.968 205.639C265.877 208.318 262.22 209.657 257.997 209.657C253.285 209.657 249.653 207.918 247.104 204.442V209H237.988ZM287.934 209V199.922H296.007V164.346H287.934V176.861H278.702V155.268H327.412V176.861H318.296V164.346H309.991V199.922H318.064V209H287.934ZM382.727 199.922V209H356.306V199.922H363.181L360.632 190.69H346.687L343.829 199.922H351.014V209H327.219V199.922H333.863L344.331 164.346H337.185V155.268H372.259V164.346H365.036L376.315 199.922H382.727ZM358.43 182.81L353.949 166.625L349.121 182.81H358.43ZM429.351 155.268H438.429V174.196H429.351C426.776 167.398 422.308 163.998 415.947 163.998C410.694 163.998 406.715 165.788 404.011 169.368C401.333 172.947 399.994 177.235 399.994 182.231C399.994 187.458 401.41 191.695 404.243 194.939C407.102 198.158 410.733 199.768 415.136 199.768C418.742 199.768 421.896 198.545 424.6 196.098C427.304 193.652 429.133 190.252 430.085 185.9L440.669 190.961C436.652 203.425 427.806 209.657 414.132 209.657C404.475 209.657 397.187 207.056 392.268 201.854C387.376 196.652 384.929 190.072 384.929 182.115C384.929 176.449 386.204 171.492 388.753 167.243C391.303 162.994 394.728 159.801 399.028 157.663C403.355 155.5 408.093 154.418 413.243 154.418C419.656 154.418 425.025 156.092 429.351 159.44V155.268ZM444.416 209V199.922H451.64V164.346H444.416V155.268H472.422V164.346H465.623V199.922H471.881V209H444.416ZM476.053 209V199.922H482.311L466.048 180.801L483.585 164.346H477.173V155.268H503.402V164.346H496.835L481.693 179.179L499.307 199.922H504.869V209H476.053Z" fill="white"/>
<g opacity="0.7">
<path d="M27.2734 306H2.17377C1.59725 306 1.04435 306.229 0.636684 306.637C0.229022 307.044 0 307.597 0 308.174V333.273C0 333.85 0.229022 334.403 0.636684 334.81C1.04435 335.218 1.59725 335.447 2.17377 335.447H27.2734C27.8499 335.447 28.4028 335.218 28.8105 334.81C29.2182 334.403 29.4472 333.85 29.4472 333.273V308.174C29.4472 307.597 29.2182 307.044 28.8105 306.637C28.4028 306.229 27.8499 306 27.2734 306ZM8.77689 331.085H4.34959V317.022H8.77689V331.085ZM6.56018 315.073C6.05798 315.071 5.56787 314.919 5.1517 314.638C4.73554 314.357 4.41197 313.959 4.22184 313.494C4.0317 313.029 3.98352 312.518 4.08338 312.026C4.18323 311.534 4.42665 311.082 4.7829 310.728C5.13916 310.374 5.59228 310.134 6.08509 310.037C6.57791 309.941 7.08832 309.992 7.55191 310.185C8.01551 310.378 8.41151 310.704 8.68994 311.122C8.96837 311.54 9.11675 312.031 9.11635 312.534C9.12109 312.87 9.05809 313.204 8.9311 313.515C8.80411 313.826 8.61573 314.109 8.37719 314.346C8.13866 314.583 7.85485 314.769 7.54268 314.894C7.23051 315.019 6.89637 315.08 6.56018 315.073ZM25.0955 331.098H20.6703V323.415C20.6703 321.149 19.7071 320.45 18.4638 320.45C17.1509 320.45 15.8626 321.439 15.8626 323.472V331.098H11.4353V317.032H15.6929V318.981H15.7502C16.1775 318.116 17.6744 316.638 19.9586 316.638C22.4289 316.638 25.0976 318.104 25.0976 322.398L25.0955 331.098Z" fill="#D7FF01"/>
<path d="M49.3219 315.48C49.2104 315.369 49.0033 315.217 48.7007 315.026C48.4139 314.835 48.0556 314.652 47.6255 314.477C47.2114 314.302 46.7574 314.15 46.2636 314.023C45.7698 313.88 45.2681 313.808 44.7584 313.808C43.8664 313.808 43.1894 313.975 42.7275 314.31C42.2815 314.644 42.0585 315.114 42.0585 315.719C42.0585 316.181 42.2019 316.548 42.4886 316.818C42.7753 317.089 43.2054 317.32 43.7788 317.511C44.3522 317.702 45.069 317.909 45.9291 318.132C47.0441 318.403 48.0078 318.738 48.8201 319.136C49.6484 319.518 50.2776 320.028 50.7076 320.665C51.1536 321.286 51.3766 322.114 51.3766 323.15C51.3766 324.058 51.2094 324.838 50.8749 325.491C50.5404 326.128 50.0785 326.646 49.4891 327.044C48.8998 327.443 48.2308 327.737 47.4821 327.928C46.7335 328.104 45.9371 328.191 45.0929 328.191C44.2487 328.191 43.4045 328.104 42.5603 327.928C41.7161 327.753 40.9037 327.506 40.1232 327.188C39.3427 326.853 38.626 326.455 37.9729 325.993L39.4303 323.15C39.5737 323.293 39.8286 323.484 40.1949 323.723C40.5613 323.946 41.0073 324.177 41.5329 324.416C42.0585 324.639 42.6319 324.83 43.2532 324.99C43.8744 325.149 44.5035 325.228 45.1407 325.228C46.0327 325.228 46.7096 325.077 47.1715 324.775C47.6335 324.472 47.8644 324.042 47.8644 323.484C47.8644 322.975 47.6812 322.576 47.3149 322.29C46.9485 322.003 46.4388 321.756 45.7858 321.549C45.1327 321.326 44.3602 321.087 43.4682 320.832C42.401 320.53 41.509 320.195 40.7922 319.829C40.0754 319.446 39.5418 318.969 39.1914 318.395C38.841 317.822 38.6658 317.105 38.6658 316.245C38.6658 315.082 38.9366 314.11 39.4781 313.33C40.0356 312.534 40.7843 311.936 41.724 311.538C42.6638 311.124 43.7071 310.917 44.854 310.917C45.6504 310.917 46.399 311.004 47.0999 311.18C47.8166 311.355 48.4856 311.586 49.1068 311.873C49.728 312.159 50.2855 312.47 50.7793 312.804L49.3219 315.48ZM59.3396 328.239C58.3201 328.239 57.4043 328.072 56.5919 327.737C55.7796 327.387 55.0867 326.909 54.5133 326.304C53.9558 325.698 53.5257 325.005 53.2231 324.225C52.9204 323.444 52.7691 322.624 52.7691 321.764C52.7691 320.888 52.9204 320.06 53.2231 319.279C53.5257 318.499 53.9558 317.806 54.5133 317.201C55.0867 316.595 55.7796 316.125 56.5919 315.791C57.4043 315.44 58.3201 315.265 59.3396 315.265C60.359 315.265 61.2669 315.44 62.0633 315.791C62.8757 316.125 63.5685 316.595 64.142 317.201C64.7154 317.806 65.1454 318.499 65.4322 319.279C65.7348 320.06 65.8861 320.888 65.8861 321.764C65.8861 322.624 65.7348 323.444 65.4322 324.225C65.1454 325.005 64.7154 325.698 64.142 326.304C63.5845 326.909 62.8995 327.387 62.0872 327.737C61.2749 328.072 60.359 328.239 59.3396 328.239ZM56.0663 321.764C56.0663 322.497 56.2096 323.15 56.4963 323.723C56.7831 324.281 57.1733 324.719 57.6671 325.037C58.1609 325.356 58.7183 325.515 59.3396 325.515C59.9448 325.515 60.4944 325.356 60.9881 325.037C61.4819 324.703 61.8722 324.257 62.1589 323.699C62.4615 323.126 62.6128 322.473 62.6128 321.74C62.6128 321.023 62.4615 320.378 62.1589 319.805C61.8722 319.231 61.4819 318.785 60.9881 318.467C60.4944 318.148 59.9448 317.989 59.3396 317.989C58.7183 317.989 58.1609 318.156 57.6671 318.491C57.1733 318.809 56.7831 319.255 56.4963 319.829C56.2096 320.386 56.0663 321.031 56.0663 321.764ZM68.695 318.586H67.0464V316.149H68.695V315.385C68.695 314.684 68.8065 314.031 69.0295 313.426C69.2684 312.82 69.6029 312.287 70.033 311.825C70.479 311.347 71.0126 310.981 71.6338 310.726C72.2709 310.455 72.9877 310.32 73.7841 310.32C74.3894 310.32 74.9548 310.383 75.4805 310.511C76.022 310.638 76.5317 310.821 77.0096 311.06C77.5034 311.299 77.9733 311.57 78.4192 311.873L77.1529 314.262C76.7388 313.895 76.253 313.601 75.6955 313.378C75.138 313.155 74.5725 313.043 73.9991 313.043C73.5372 313.043 73.147 313.147 72.8284 313.354C72.5098 313.561 72.2709 313.832 72.1116 314.166C71.9683 314.501 71.8966 314.867 71.8966 315.265V316.149H78.6104V328H75.4088V318.586H71.8966V328H68.695V318.586ZM80.6498 324.297C80.6498 323.484 80.8728 322.775 81.3188 322.17C81.7808 321.549 82.4179 321.071 83.2302 320.737C84.0426 320.402 84.9744 320.235 86.0257 320.235C86.5513 320.235 87.0849 320.275 87.6265 320.354C88.168 320.434 88.6379 320.561 89.0361 320.737V320.068C89.0361 319.271 88.7972 318.658 88.3193 318.228C87.8574 317.798 87.1645 317.583 86.2407 317.583C85.5558 317.583 84.9027 317.702 84.2815 317.941C83.6603 318.18 83.0072 318.531 82.3223 318.993L81.2949 316.89C82.1232 316.348 82.9674 315.942 83.8275 315.671C84.7036 315.401 85.6195 315.265 86.5752 315.265C88.3592 315.265 89.7449 315.711 90.7325 316.603C91.736 317.495 92.2377 318.77 92.2377 320.426V324.416C92.2377 324.751 92.2935 324.99 92.405 325.133C92.5324 325.276 92.7315 325.364 93.0023 325.396V328C92.7156 328.048 92.4528 328.088 92.2138 328.119C91.9908 328.151 91.7997 328.167 91.6404 328.167C91.0033 328.167 90.5175 328.024 90.183 327.737C89.8644 327.45 89.6653 327.1 89.5856 326.686L89.514 326.041C88.9724 326.742 88.2955 327.283 87.4831 327.666C86.6708 328.048 85.8425 328.239 84.9983 328.239C84.17 328.239 83.4214 328.072 82.7524 327.737C82.0993 327.387 81.5816 326.917 81.1994 326.328C80.833 325.722 80.6498 325.045 80.6498 324.297ZM88.4388 324.942C88.614 324.751 88.7574 324.559 88.8689 324.368C88.9804 324.177 89.0361 324.002 89.0361 323.843V322.576C88.6538 322.417 88.2397 322.298 87.7937 322.218C87.3477 322.122 86.9256 322.075 86.5274 322.075C85.6991 322.075 85.0142 322.258 84.4726 322.624C83.947 322.975 83.6842 323.444 83.6842 324.034C83.6842 324.352 83.7718 324.655 83.947 324.942C84.1222 325.228 84.3771 325.459 84.7116 325.635C85.0461 325.81 85.4443 325.897 85.9062 325.897C86.384 325.897 86.8539 325.81 87.3159 325.635C87.7778 325.443 88.1521 325.213 88.4388 324.942ZM114.946 323.628C114.946 324.583 114.7 325.388 114.206 326.041C113.712 326.678 113.043 327.164 112.199 327.498C111.371 327.833 110.463 328 109.475 328H101.28V311.036H110.359C111.156 311.036 111.84 311.251 112.414 311.681C113.003 312.096 113.449 312.637 113.752 313.306C114.07 313.959 114.23 314.644 114.23 315.361C114.23 316.173 114.023 316.946 113.608 317.678C113.194 318.411 112.589 318.953 111.793 319.303C112.764 319.59 113.529 320.107 114.086 320.856C114.66 321.605 114.946 322.529 114.946 323.628ZM111.625 323.006C111.625 322.576 111.538 322.194 111.363 321.86C111.187 321.509 110.948 321.238 110.646 321.047C110.359 320.84 110.025 320.737 109.642 320.737H104.577V325.205H109.475C109.873 325.205 110.232 325.109 110.55 324.918C110.885 324.711 111.148 324.44 111.339 324.106C111.53 323.771 111.625 323.405 111.625 323.006ZM104.577 313.856V318.132H108.973C109.34 318.132 109.674 318.045 109.977 317.87C110.279 317.694 110.518 317.447 110.694 317.129C110.885 316.81 110.98 316.428 110.98 315.982C110.98 315.552 110.893 315.178 110.717 314.859C110.558 314.541 110.335 314.294 110.048 314.118C109.778 313.943 109.467 313.856 109.117 313.856H104.577ZM116.349 324.297C116.349 323.484 116.572 322.775 117.018 322.17C117.48 321.549 118.117 321.071 118.929 320.737C119.741 320.402 120.673 320.235 121.724 320.235C122.25 320.235 122.784 320.275 123.325 320.354C123.867 320.434 124.337 320.561 124.735 320.737V320.068C124.735 319.271 124.496 318.658 124.018 318.228C123.556 317.798 122.863 317.583 121.94 317.583C121.255 317.583 120.602 317.702 119.98 317.941C119.359 318.18 118.706 318.531 118.021 318.993L116.994 316.89C117.822 316.348 118.666 315.942 119.526 315.671C120.402 315.401 121.318 315.265 122.274 315.265C124.058 315.265 125.444 315.711 126.431 316.603C127.435 317.495 127.937 318.77 127.937 320.426V324.416C127.937 324.751 127.992 324.99 128.104 325.133C128.231 325.276 128.43 325.364 128.701 325.396V328C128.414 328.048 128.152 328.088 127.913 328.119C127.69 328.151 127.499 328.167 127.339 328.167C126.702 328.167 126.216 328.024 125.882 327.737C125.563 327.45 125.364 327.1 125.284 326.686L125.213 326.041C124.671 326.742 123.994 327.283 123.182 327.666C122.37 328.048 121.541 328.239 120.697 328.239C119.869 328.239 119.12 328.072 118.451 327.737C117.798 327.387 117.28 326.917 116.898 326.328C116.532 325.722 116.349 325.045 116.349 324.297ZM124.138 324.942C124.313 324.751 124.456 324.559 124.568 324.368C124.679 324.177 124.735 324.002 124.735 323.843V322.576C124.353 322.417 123.939 322.298 123.493 322.218C123.047 322.122 122.624 322.075 122.226 322.075C121.398 322.075 120.713 322.258 120.171 322.624C119.646 322.975 119.383 323.444 119.383 324.034C119.383 324.352 119.471 324.655 119.646 324.942C119.821 325.228 120.076 325.459 120.41 325.635C120.745 325.81 121.143 325.897 121.605 325.897C122.083 325.897 122.553 325.81 123.015 325.635C123.477 325.443 123.851 325.213 124.138 324.942ZM135.54 328.239C134.472 328.239 133.453 328.064 132.481 327.713C131.51 327.363 130.673 326.845 129.973 326.16L131.119 324.082C131.868 324.687 132.601 325.133 133.318 325.42C134.05 325.706 134.751 325.85 135.42 325.85C136.041 325.85 136.535 325.738 136.901 325.515C137.284 325.292 137.475 324.958 137.475 324.512C137.475 324.209 137.371 323.978 137.164 323.819C136.957 323.644 136.655 323.492 136.256 323.365C135.874 323.237 135.404 323.094 134.847 322.935C133.923 322.632 133.15 322.337 132.529 322.051C131.908 321.764 131.438 321.406 131.119 320.976C130.817 320.53 130.666 319.964 130.666 319.279C130.666 318.451 130.873 317.742 131.287 317.153C131.717 316.548 132.306 316.078 133.055 315.743C133.819 315.409 134.711 315.241 135.731 315.241C136.623 315.241 137.467 315.385 138.263 315.671C139.06 315.942 139.785 316.388 140.438 317.009L139.147 319.04C138.51 318.547 137.905 318.188 137.332 317.965C136.758 317.726 136.177 317.607 135.587 317.607C135.253 317.607 134.934 317.647 134.632 317.726C134.345 317.806 134.106 317.941 133.915 318.132C133.74 318.308 133.652 318.562 133.652 318.897C133.652 319.2 133.732 319.439 133.891 319.614C134.066 319.773 134.321 319.916 134.656 320.044C135.006 320.171 135.428 320.315 135.922 320.474C136.925 320.761 137.77 321.055 138.454 321.358C139.155 321.661 139.681 322.035 140.031 322.481C140.382 322.911 140.557 323.508 140.557 324.273C140.557 325.515 140.103 326.487 139.195 327.188C138.287 327.889 137.069 328.239 135.54 328.239ZM150.167 327.355C149.896 327.466 149.57 327.594 149.187 327.737C148.805 327.881 148.391 327.992 147.945 328.072C147.515 328.167 147.077 328.215 146.631 328.215C146.041 328.215 145.5 328.111 145.006 327.904C144.512 327.697 144.114 327.371 143.811 326.925C143.525 326.463 143.381 325.866 143.381 325.133V317.941H141.733V315.48H143.381V311.419H146.583V315.48H149.211V317.941H146.583V324.058C146.599 324.488 146.718 324.798 146.941 324.99C147.164 325.181 147.443 325.276 147.778 325.276C148.112 325.276 148.439 325.221 148.757 325.109C149.076 324.998 149.331 324.902 149.522 324.822L150.167 327.355ZM157.476 328.239C156.457 328.239 155.541 328.072 154.729 327.737C153.916 327.387 153.223 326.909 152.65 326.304C152.093 325.698 151.662 325.005 151.36 324.225C151.057 323.444 150.906 322.624 150.906 321.764C150.906 320.888 151.057 320.06 151.36 319.279C151.662 318.499 152.093 317.806 152.65 317.201C153.223 316.595 153.916 316.125 154.729 315.791C155.541 315.44 156.457 315.265 157.476 315.265C158.496 315.265 159.404 315.44 160.2 315.791C161.012 316.125 161.705 316.595 162.279 317.201C162.852 317.806 163.282 318.499 163.569 319.279C163.872 320.06 164.023 320.888 164.023 321.764C164.023 322.624 163.872 323.444 163.569 324.225C163.282 325.005 162.852 325.698 162.279 326.304C161.721 326.909 161.036 327.387 160.224 327.737C159.412 328.072 158.496 328.239 157.476 328.239ZM154.203 321.764C154.203 322.497 154.346 323.15 154.633 323.723C154.92 324.281 155.31 324.719 155.804 325.037C156.298 325.356 156.855 325.515 157.476 325.515C158.082 325.515 158.631 325.356 159.125 325.037C159.619 324.703 160.009 324.257 160.296 323.699C160.598 323.126 160.75 322.473 160.75 321.74C160.75 321.023 160.598 320.378 160.296 319.805C160.009 319.231 159.619 318.785 159.125 318.467C158.631 318.148 158.082 317.989 157.476 317.989C156.855 317.989 156.298 318.156 155.804 318.491C155.31 318.809 154.92 319.255 154.633 319.829C154.346 320.386 154.203 321.031 154.203 321.764ZM170.795 328.239C169.728 328.239 168.708 328.064 167.737 327.713C166.765 327.363 165.929 326.845 165.228 326.16L166.375 324.082C167.124 324.687 167.856 325.133 168.573 325.42C169.306 325.706 170.007 325.85 170.676 325.85C171.297 325.85 171.791 325.738 172.157 325.515C172.539 325.292 172.73 324.958 172.73 324.512C172.73 324.209 172.627 323.978 172.42 323.819C172.213 323.644 171.91 323.492 171.512 323.365C171.13 323.237 170.66 323.094 170.102 322.935C169.178 322.632 168.406 322.337 167.785 322.051C167.163 321.764 166.694 321.406 166.375 320.976C166.072 320.53 165.921 319.964 165.921 319.279C165.921 318.451 166.128 317.742 166.542 317.153C166.972 316.548 167.562 316.078 168.31 315.743C169.075 315.409 169.967 315.241 170.986 315.241C171.878 315.241 172.722 315.385 173.519 315.671C174.315 315.942 175.04 316.388 175.693 317.009L174.403 319.04C173.766 318.547 173.16 318.188 172.587 317.965C172.014 317.726 171.432 317.607 170.843 317.607C170.508 317.607 170.19 317.647 169.887 317.726C169.6 317.806 169.362 317.941 169.17 318.132C168.995 318.308 168.908 318.562 168.908 318.897C168.908 319.2 168.987 319.439 169.147 319.614C169.322 319.773 169.577 319.916 169.911 320.044C170.262 320.171 170.684 320.315 171.177 320.474C172.181 320.761 173.025 321.055 173.71 321.358C174.411 321.661 174.936 322.035 175.287 322.481C175.637 322.911 175.813 323.508 175.813 324.273C175.813 325.515 175.359 326.487 174.451 327.188C173.543 327.889 172.324 328.239 170.795 328.239Z" fill="white"/>
</g>
<g opacity="0.7">
<g clip-path="url(#clip1_1361_2516)">
<path d="M289.514 320.72C289.514 328.338 283.338 334.514 275.72 334.514C268.103 334.514 261.927 328.338 261.927 320.72C261.927 313.103 268.103 306.927 275.72 306.927C283.338 306.927 289.514 313.103 289.514 320.72Z" stroke="white" stroke-width="1.85402"/>
<path d="M277.698 323.358H274.693C273.669 323.358 272.841 322.53 272.841 321.506V320.353C272.841 319.329 273.669 318.501 274.693 318.501H275.846C276.87 318.501 277.698 319.329 277.698 320.353V323.358Z" stroke="#D7FF01" stroke-width="1.76592" stroke-miterlimit="10" stroke-linecap="round" stroke-linejoin="round"/>
<path d="M275.147 323.67C282.86 324.909 282.86 320.955 282.86 320.955C283.202 316.854 279.893 313.136 275.558 313.136C271.223 313.136 267.711 316.647 267.711 320.982C267.711 325.317 271.223 328.829 275.558 328.829C277.416 328.829 279.128 328.182 280.475 327.1" stroke="#D7FF01" stroke-width="1.76592" stroke-miterlimit="10" stroke-linecap="round" stroke-linejoin="round"/>
</g>
<path d="M304.51 328.239C303.442 328.239 302.423 328.064 301.451 327.713C300.48 327.363 299.644 326.845 298.943 326.16L300.09 324.082C300.838 324.687 301.571 325.133 302.288 325.42C303.02 325.706 303.721 325.85 304.39 325.85C305.011 325.85 305.505 325.738 305.871 325.515C306.254 325.292 306.445 324.958 306.445 324.512C306.445 324.209 306.341 323.978 306.134 323.819C305.927 323.644 305.625 323.492 305.226 323.365C304.844 323.237 304.374 323.094 303.817 322.935C302.893 322.632 302.12 322.337 301.499 322.051C300.878 321.764 300.408 321.406 300.09 320.976C299.787 320.53 299.636 319.964 299.636 319.279C299.636 318.451 299.843 317.742 300.257 317.153C300.687 316.548 301.276 316.078 302.025 315.743C302.789 315.409 303.681 315.241 304.701 315.241C305.593 315.241 306.437 315.385 307.233 315.671C308.03 315.942 308.755 316.388 309.408 317.009L308.117 319.04C307.48 318.547 306.875 318.188 306.302 317.965C305.728 317.726 305.147 317.607 304.557 317.607C304.223 317.607 303.904 317.647 303.602 317.726C303.315 317.806 303.076 317.941 302.885 318.132C302.71 318.308 302.622 318.562 302.622 318.897C302.622 319.2 302.702 319.439 302.861 319.614C303.036 319.773 303.291 319.916 303.626 320.044C303.976 320.171 304.398 320.315 304.892 320.474C305.895 320.761 306.74 321.055 307.425 321.358C308.125 321.661 308.651 322.035 309.001 322.481C309.352 322.911 309.527 323.508 309.527 324.273C309.527 325.515 309.073 326.487 308.165 327.188C307.257 327.889 306.039 328.239 304.51 328.239ZM317.487 328.239C316.467 328.239 315.551 328.072 314.739 327.737C313.927 327.387 313.234 326.909 312.66 326.304C312.103 325.698 311.673 325.005 311.37 324.225C311.068 323.444 310.916 322.624 310.916 321.764C310.916 320.888 311.068 320.06 311.37 319.279C311.673 318.499 312.103 317.806 312.66 317.201C313.234 316.595 313.927 316.125 314.739 315.791C315.551 315.44 316.467 315.265 317.487 315.265C318.506 315.265 319.414 315.44 320.21 315.791C321.023 316.125 321.716 316.595 322.289 317.201C322.862 317.806 323.293 318.499 323.579 319.279C323.882 320.06 324.033 320.888 324.033 321.764C324.033 322.624 323.882 323.444 323.579 324.225C323.293 325.005 322.862 325.698 322.289 326.304C321.732 326.909 321.047 327.387 320.234 327.737C319.422 328.072 318.506 328.239 317.487 328.239ZM314.213 321.764C314.213 322.497 314.357 323.15 314.643 323.723C314.93 324.281 315.32 324.719 315.814 325.037C316.308 325.356 316.865 325.515 317.487 325.515C318.092 325.515 318.641 325.356 319.135 325.037C319.629 324.703 320.019 324.257 320.306 323.699C320.609 323.126 320.76 322.473 320.76 321.74C320.76 321.023 320.609 320.378 320.306 319.805C320.019 319.231 319.629 318.785 319.135 318.467C318.641 318.148 318.092 317.989 317.487 317.989C316.865 317.989 316.308 318.156 315.814 318.491C315.32 318.809 314.93 319.255 314.643 319.829C314.357 320.386 314.213 321.031 314.213 321.764ZM326.842 318.586H325.193V316.149H326.842V315.385C326.842 314.684 326.954 314.031 327.177 313.426C327.415 312.82 327.75 312.287 328.18 311.825C328.626 311.347 329.16 310.981 329.781 310.726C330.418 310.455 331.135 310.32 331.931 310.32C332.536 310.32 333.102 310.383 333.628 310.511C334.169 310.638 334.679 310.821 335.157 311.06C335.65 311.299 336.12 311.57 336.566 311.873L335.3 314.262C334.886 313.895 334.4 313.601 333.843 313.378C333.285 313.155 332.72 313.043 332.146 313.043C331.684 313.043 331.294 313.147 330.975 313.354C330.657 313.561 330.418 313.832 330.259 314.166C330.115 314.501 330.044 314.867 330.044 315.265V316.149H336.757V328H333.556V318.586H330.044V328H326.842V318.586ZM338.797 324.297C338.797 323.484 339.02 322.775 339.466 322.17C339.928 321.549 340.565 321.071 341.377 320.737C342.19 320.402 343.121 320.235 344.173 320.235C344.698 320.235 345.232 320.275 345.774 320.354C346.315 320.434 346.785 320.561 347.183 320.737V320.068C347.183 319.271 346.944 318.658 346.466 318.228C346.005 317.798 345.312 317.583 344.388 317.583C343.703 317.583 343.05 317.702 342.429 317.941C341.807 318.18 341.154 318.531 340.469 318.993L339.442 316.89C340.27 316.348 341.114 315.942 341.975 315.671C342.851 315.401 343.767 315.265 344.722 315.265C346.506 315.265 347.892 315.711 348.88 316.603C349.883 317.495 350.385 318.77 350.385 320.426V324.416C350.385 324.751 350.441 324.99 350.552 325.133C350.679 325.276 350.879 325.364 351.149 325.396V328C350.863 328.048 350.6 328.088 350.361 328.119C350.138 328.151 349.947 328.167 349.787 328.167C349.15 328.167 348.665 328.024 348.33 327.737C348.011 327.45 347.812 327.1 347.733 326.686L347.661 326.041C347.119 326.742 346.443 327.283 345.63 327.666C344.818 328.048 343.99 328.239 343.145 328.239C342.317 328.239 341.568 328.072 340.899 327.737C340.246 327.387 339.729 326.917 339.346 326.328C338.98 325.722 338.797 325.045 338.797 324.297ZM346.586 324.942C346.761 324.751 346.904 324.559 347.016 324.368C347.127 324.177 347.183 324.002 347.183 323.843V322.576C346.801 322.417 346.387 322.298 345.941 322.218C345.495 322.122 345.073 322.075 344.674 322.075C343.846 322.075 343.161 322.258 342.62 322.624C342.094 322.975 341.831 323.444 341.831 324.034C341.831 324.352 341.919 324.655 342.094 324.942C342.269 325.228 342.524 325.459 342.859 325.635C343.193 325.81 343.591 325.897 344.053 325.897C344.531 325.897 345.001 325.81 345.463 325.635C345.925 325.443 346.299 325.213 346.586 324.942ZM356.302 328L351.691 315.48H355.012L358.166 325.085L361.343 315.48H364.378L359.79 328H356.302ZM373.189 328.239C372.234 328.239 371.382 328.024 370.633 327.594C369.884 327.164 369.295 326.574 368.865 325.826V328H366.07V310.558H369.271V317.678C369.717 316.93 370.298 316.34 371.015 315.91C371.748 315.48 372.6 315.265 373.572 315.265C374.384 315.265 375.125 315.44 375.794 315.791C376.463 316.125 377.036 316.595 377.514 317.201C378.008 317.806 378.382 318.499 378.637 319.279C378.908 320.06 379.043 320.896 379.043 321.788C379.043 322.68 378.892 323.516 378.589 324.297C378.302 325.077 377.896 325.77 377.371 326.375C376.845 326.965 376.224 327.427 375.507 327.761C374.806 328.08 374.034 328.239 373.189 328.239ZM372.305 325.515C372.815 325.515 373.277 325.42 373.691 325.228C374.121 325.021 374.488 324.751 374.79 324.416C375.109 324.082 375.348 323.691 375.507 323.245C375.682 322.783 375.77 322.306 375.77 321.812C375.77 321.127 375.627 320.498 375.34 319.924C375.069 319.335 374.687 318.865 374.193 318.515C373.715 318.164 373.15 317.989 372.497 317.989C372.035 317.989 371.589 318.101 371.159 318.324C370.744 318.531 370.37 318.817 370.036 319.184C369.717 319.55 369.462 319.964 369.271 320.426V323.413C369.367 323.731 369.518 324.018 369.725 324.273C369.948 324.528 370.203 324.751 370.49 324.942C370.776 325.117 371.071 325.26 371.374 325.372C371.692 325.467 372.003 325.515 372.305 325.515ZM380.352 324.297C380.352 323.484 380.575 322.775 381.021 322.17C381.483 321.549 382.12 321.071 382.933 320.737C383.745 320.402 384.677 320.235 385.728 320.235C386.254 320.235 386.787 320.275 387.329 320.354C387.87 320.434 388.34 320.561 388.738 320.737V320.068C388.738 319.271 388.5 318.658 388.022 318.228C387.56 317.798 386.867 317.583 385.943 317.583C385.258 317.583 384.605 317.702 383.984 317.941C383.363 318.18 382.71 318.531 382.025 318.993L380.997 316.89C381.826 316.348 382.67 315.942 383.53 315.671C384.406 315.401 385.322 315.265 386.278 315.265C388.062 315.265 389.447 315.711 390.435 316.603C391.438 317.495 391.94 318.77 391.94 320.426V324.416C391.94 324.751 391.996 324.99 392.107 325.133C392.235 325.276 392.434 325.364 392.705 325.396V328C392.418 328.048 392.155 328.088 391.916 328.119C391.693 328.151 391.502 328.167 391.343 328.167C390.706 328.167 390.22 328.024 389.885 327.737C389.567 327.45 389.368 327.1 389.288 326.686L389.216 326.041C388.675 326.742 387.998 327.283 387.185 327.666C386.373 328.048 385.545 328.239 384.701 328.239C383.872 328.239 383.124 328.072 382.455 327.737C381.802 327.387 381.284 326.917 380.902 326.328C380.535 325.722 380.352 325.045 380.352 324.297ZM388.141 324.942C388.316 324.751 388.46 324.559 388.571 324.368C388.683 324.177 388.738 324.002 388.738 323.843V322.576C388.356 322.417 387.942 322.298 387.496 322.218C387.05 322.122 386.628 322.075 386.23 322.075C385.402 322.075 384.717 322.258 384.175 322.624C383.649 322.975 383.387 323.444 383.387 324.034C383.387 324.352 383.474 324.655 383.649 324.942C383.825 325.228 384.079 325.459 384.414 325.635C384.748 325.81 385.147 325.897 385.609 325.897C386.086 325.897 386.556 325.81 387.018 325.635C387.48 325.443 387.854 325.213 388.141 324.942ZM399.543 328.239C398.476 328.239 397.457 328.064 396.485 327.713C395.513 327.363 394.677 326.845 393.976 326.16L395.123 324.082C395.872 324.687 396.604 325.133 397.321 325.42C398.054 325.706 398.755 325.85 399.424 325.85C400.045 325.85 400.539 325.738 400.905 325.515C401.287 325.292 401.478 324.958 401.478 324.512C401.478 324.209 401.375 323.978 401.168 323.819C400.961 323.644 400.658 323.492 400.26 323.365C399.878 323.237 399.408 323.094 398.85 322.935C397.926 322.632 397.154 322.337 396.533 322.051C395.911 321.764 395.442 321.406 395.123 320.976C394.82 320.53 394.669 319.964 394.669 319.279C394.669 318.451 394.876 317.742 395.29 317.153C395.72 316.548 396.31 316.078 397.058 315.743C397.823 315.409 398.715 315.241 399.734 315.241C400.626 315.241 401.47 315.385 402.267 315.671C403.063 315.942 403.788 316.388 404.441 317.009L403.151 319.04C402.514 318.547 401.909 318.188 401.335 317.965C400.762 317.726 400.18 317.607 399.591 317.607C399.256 317.607 398.938 317.647 398.635 317.726C398.349 317.806 398.11 317.941 397.918 318.132C397.743 318.308 397.656 318.562 397.656 318.897C397.656 319.2 397.735 319.439 397.895 319.614C398.07 319.773 398.325 319.916 398.659 320.044C399.01 320.171 399.432 320.315 399.925 320.474C400.929 320.761 401.773 321.055 402.458 321.358C403.159 321.661 403.685 322.035 404.035 322.481C404.385 322.911 404.561 323.508 404.561 324.273C404.561 325.515 404.107 326.487 403.199 327.188C402.291 327.889 401.072 328.239 399.543 328.239ZM414.17 327.355C413.9 327.466 413.573 327.594 413.191 327.737C412.809 327.881 412.394 327.992 411.948 328.072C411.518 328.167 411.08 328.215 410.634 328.215C410.045 328.215 409.503 328.111 409.01 327.904C408.516 327.697 408.118 327.371 407.815 326.925C407.528 326.463 407.385 325.866 407.385 325.133V317.941H405.736V315.48H407.385V311.419H410.587V315.48H413.215V317.941H410.587V324.058C410.602 324.488 410.722 324.798 410.945 324.99C411.168 325.181 411.447 325.276 411.781 325.276C412.116 325.276 412.442 325.221 412.761 325.109C413.079 324.998 413.334 324.902 413.525 324.822L414.17 327.355ZM421.48 328.239C420.46 328.239 419.545 328.072 418.732 327.737C417.92 327.387 417.227 326.909 416.654 326.304C416.096 325.698 415.666 325.005 415.363 324.225C415.061 323.444 414.909 322.624 414.909 321.764C414.909 320.888 415.061 320.06 415.363 319.279C415.666 318.499 416.096 317.806 416.654 317.201C417.227 316.595 417.92 316.125 418.732 315.791C419.545 315.44 420.46 315.265 421.48 315.265C422.499 315.265 423.407 315.44 424.204 315.791C425.016 316.125 425.709 316.595 426.282 317.201C426.856 317.806 427.286 318.499 427.572 319.279C427.875 320.06 428.026 320.888 428.026 321.764C428.026 322.624 427.875 323.444 427.572 324.225C427.286 325.005 426.856 325.698 426.282 326.304C425.725 326.909 425.04 327.387 424.228 327.737C423.415 328.072 422.499 328.239 421.48 328.239ZM418.207 321.764C418.207 322.497 418.35 323.15 418.637 323.723C418.923 324.281 419.314 324.719 419.807 325.037C420.301 325.356 420.859 325.515 421.48 325.515C422.085 325.515 422.635 325.356 423.128 325.037C423.622 324.703 424.012 324.257 424.299 323.699C424.602 323.126 424.753 322.473 424.753 321.74C424.753 321.023 424.602 320.378 424.299 319.805C424.012 319.231 423.622 318.785 423.128 318.467C422.635 318.148 422.085 317.989 421.48 317.989C420.859 317.989 420.301 318.156 419.807 318.491C419.314 318.809 418.923 319.255 418.637 319.829C418.35 320.386 418.207 321.031 418.207 321.764ZM434.799 328.239C433.731 328.239 432.712 328.064 431.74 327.713C430.769 327.363 429.933 326.845 429.232 326.16L430.379 324.082C431.127 324.687 431.86 325.133 432.577 325.42C433.309 325.706 434.01 325.85 434.679 325.85C435.3 325.85 435.794 325.738 436.161 325.515C436.543 325.292 436.734 324.958 436.734 324.512C436.734 324.209 436.63 323.978 436.423 323.819C436.216 323.644 435.914 323.492 435.515 323.365C435.133 323.237 434.663 323.094 434.106 322.935C433.182 322.632 432.409 322.337 431.788 322.051C431.167 321.764 430.697 321.406 430.379 320.976C430.076 320.53 429.925 319.964 429.925 319.279C429.925 318.451 430.132 317.742 430.546 317.153C430.976 316.548 431.565 316.078 432.314 315.743C433.078 315.409 433.97 315.241 434.99 315.241C435.882 315.241 436.726 315.385 437.522 315.671C438.319 315.942 439.044 316.388 439.697 317.009L438.406 319.04C437.769 318.547 437.164 318.188 436.591 317.965C436.017 317.726 435.436 317.607 434.846 317.607C434.512 317.607 434.193 317.647 433.891 317.726C433.604 317.806 433.365 317.941 433.174 318.132C432.999 318.308 432.911 318.562 432.911 318.897C432.911 319.2 432.991 319.439 433.15 319.614C433.325 319.773 433.58 319.916 433.915 320.044C434.265 320.171 434.687 320.315 435.181 320.474C436.184 320.761 437.029 321.055 437.714 321.358C438.414 321.661 438.94 322.035 439.29 322.481C439.641 322.911 439.816 323.508 439.816 324.273C439.816 325.515 439.362 326.487 438.454 327.188C437.546 327.889 436.328 328.239 434.799 328.239ZM450.619 313.593C451.798 313.593 452.921 313.792 453.988 314.19C455.055 314.572 456.003 315.154 456.831 315.934C457.675 316.699 458.336 317.655 458.814 318.801C459.292 319.932 459.531 321.23 459.531 322.696C459.531 322.967 459.507 323.333 459.459 323.795C459.427 324.257 459.348 324.751 459.22 325.276C459.093 325.802 458.894 326.304 458.623 326.781C458.368 327.243 458.01 327.626 457.548 327.928C457.102 328.231 456.536 328.382 455.851 328.382C455.278 328.382 454.832 328.279 454.513 328.072C454.211 327.881 453.988 327.634 453.844 327.331C453.717 327.028 453.629 326.726 453.582 326.423C453.088 326.917 452.49 327.315 451.79 327.618C451.089 327.904 450.332 328.048 449.52 328.048C448.341 328.048 447.433 327.737 446.796 327.116C446.175 326.479 445.864 325.674 445.864 324.703C445.864 323.827 446.079 323.142 446.509 322.648C446.955 322.138 447.521 321.772 448.206 321.549C448.907 321.326 449.615 321.215 450.332 321.215C450.969 321.215 451.519 321.278 451.981 321.406C452.443 321.517 452.793 321.629 453.032 321.74C453.032 321.167 452.952 320.657 452.793 320.211C452.65 319.765 452.379 319.423 451.981 319.184C451.583 318.929 451.025 318.801 450.308 318.801C449.655 318.801 449.058 318.897 448.516 319.088C447.975 319.279 447.513 319.534 447.131 319.853L446.509 318.156C447.099 317.758 447.736 317.463 448.421 317.272C449.122 317.065 449.854 316.962 450.619 316.962C451.654 316.962 452.467 317.121 453.056 317.439C453.645 317.742 454.067 318.148 454.322 318.658C454.593 319.152 454.76 319.693 454.824 320.283C454.904 320.856 454.943 321.414 454.943 321.955V324.249C454.943 324.711 454.967 325.149 455.015 325.563C455.063 325.977 455.174 326.312 455.35 326.566C455.525 326.821 455.796 326.949 456.162 326.949C456.592 326.949 456.942 326.797 457.213 326.495C457.484 326.176 457.691 325.778 457.834 325.3C457.978 324.822 458.073 324.344 458.121 323.867C458.169 323.373 458.193 322.967 458.193 322.648C458.193 321.533 458.01 320.506 457.643 319.566C457.277 318.61 456.751 317.782 456.066 317.081C455.381 316.38 454.569 315.839 453.629 315.456C452.705 315.074 451.67 314.883 450.523 314.883C449.408 314.883 448.381 315.074 447.441 315.456C446.501 315.823 445.689 316.348 445.004 317.033C444.335 317.718 443.81 318.531 443.427 319.47C443.061 320.394 442.878 321.406 442.878 322.505C442.878 323.572 443.053 324.575 443.403 325.515C443.754 326.439 444.248 327.251 444.885 327.952C445.538 328.653 446.318 329.203 447.226 329.601C448.134 329.999 449.146 330.198 450.26 330.198C451.009 330.198 451.67 330.111 452.244 329.935C452.817 329.76 453.398 329.545 453.988 329.29L454.37 330.533C453.717 330.851 453.032 331.09 452.315 331.249C451.614 331.409 450.914 331.488 450.213 331.488C449.018 331.488 447.895 331.273 446.844 330.843C445.793 330.413 444.869 329.8 444.072 329.003C443.292 328.207 442.671 327.259 442.209 326.16C441.763 325.061 441.54 323.843 441.54 322.505C441.54 321.087 441.787 319.829 442.28 318.73C442.774 317.615 443.443 316.683 444.287 315.934C445.132 315.17 446.095 314.588 447.178 314.19C448.277 313.792 449.424 313.593 450.619 313.593ZM451.79 325.921C452.076 325.778 452.307 325.619 452.482 325.443C452.674 325.252 452.809 325.053 452.889 324.846C452.968 324.623 453.008 324.392 453.008 324.153V323.245C452.785 323.182 452.435 323.086 451.957 322.959C451.479 322.815 450.937 322.744 450.332 322.744C449.838 322.744 449.4 322.807 449.018 322.935C448.636 323.046 448.333 323.245 448.11 323.532C447.887 323.819 447.776 324.185 447.776 324.631C447.776 324.998 447.855 325.316 448.015 325.587C448.174 325.842 448.397 326.041 448.684 326.184C448.97 326.328 449.313 326.399 449.711 326.399C450.03 326.399 450.38 326.359 450.762 326.28C451.145 326.2 451.487 326.081 451.79 325.921ZM467.958 328.239C466.939 328.239 466.023 328.072 465.211 327.737C464.398 327.387 463.705 326.909 463.132 326.304C462.575 325.698 462.144 325.005 461.842 324.225C461.539 323.444 461.388 322.624 461.388 321.764C461.388 320.888 461.539 320.06 461.842 319.279C462.144 318.499 462.575 317.806 463.132 317.201C463.705 316.595 464.398 316.125 465.211 315.791C466.023 315.44 466.939 315.265 467.958 315.265C468.978 315.265 469.886 315.44 470.682 315.791C471.494 316.125 472.187 316.595 472.761 317.201C473.334 317.806 473.764 318.499 474.051 319.279C474.354 320.06 474.505 320.888 474.505 321.764C474.505 322.624 474.354 323.444 474.051 324.225C473.764 325.005 473.334 325.698 472.761 326.304C472.203 326.909 471.518 327.387 470.706 327.737C469.894 328.072 468.978 328.239 467.958 328.239ZM464.685 321.764C464.685 322.497 464.828 323.15 465.115 323.723C465.402 324.281 465.792 324.719 466.286 325.037C466.78 325.356 467.337 325.515 467.958 325.515C468.564 325.515 469.113 325.356 469.607 325.037C470.101 324.703 470.491 324.257 470.778 323.699C471.08 323.126 471.232 322.473 471.232 321.74C471.232 321.023 471.08 320.378 470.778 319.805C470.491 319.231 470.101 318.785 469.607 318.467C469.113 318.148 468.564 317.989 467.958 317.989C467.337 317.989 466.78 318.156 466.286 318.491C465.792 318.809 465.402 319.255 465.115 319.829C464.828 320.386 464.685 321.031 464.685 321.764ZM476.546 323.317V315.48H479.748V322.624C479.748 323.58 479.923 324.305 480.274 324.798C480.624 325.276 481.142 325.515 481.827 325.515C482.241 325.515 482.647 325.436 483.045 325.276C483.459 325.101 483.834 324.846 484.168 324.512C484.519 324.177 484.813 323.755 485.052 323.245V315.48H488.254V324.416C488.254 324.751 488.309 324.99 488.421 325.133C488.548 325.276 488.748 325.364 489.018 325.396V328C488.7 328.048 488.429 328.08 488.206 328.096C487.999 328.127 487.808 328.143 487.633 328.143C487.059 328.143 486.589 328.016 486.223 327.761C485.872 327.49 485.665 327.124 485.602 326.662L485.53 325.659C484.972 326.503 484.256 327.148 483.38 327.594C482.504 328.024 481.54 328.239 480.489 328.239C479.198 328.239 478.219 327.825 477.55 326.997C476.881 326.152 476.546 324.926 476.546 323.317ZM498.891 327.355C498.62 327.466 498.294 327.594 497.911 327.737C497.529 327.881 497.115 327.992 496.669 328.072C496.239 328.167 495.801 328.215 495.355 328.215C494.766 328.215 494.224 328.111 493.73 327.904C493.236 327.697 492.838 327.371 492.536 326.925C492.249 326.463 492.105 325.866 492.105 325.133V317.941H490.457V315.48H492.105V311.419H495.307V315.48H497.935V317.941H495.307V324.058C495.323 324.488 495.442 324.798 495.665 324.99C495.888 325.181 496.167 325.276 496.502 325.276C496.836 325.276 497.163 325.221 497.481 325.109C497.8 324.998 498.055 324.902 498.246 324.822L498.891 327.355ZM500.535 310.558H503.736V323.986C503.736 324.559 503.832 324.95 504.023 325.157C504.214 325.348 504.477 325.443 504.811 325.443C505.066 325.443 505.329 325.412 505.6 325.348C505.871 325.284 506.109 325.205 506.317 325.109L506.747 327.546C506.317 327.753 505.815 327.912 505.241 328.024C504.668 328.135 504.15 328.191 503.688 328.191C502.685 328.191 501.904 327.928 501.347 327.403C500.805 326.861 500.535 326.097 500.535 325.109V310.558ZM513.923 328.239C512.904 328.239 511.988 328.072 511.176 327.737C510.363 327.387 509.671 326.909 509.097 326.304C508.54 325.698 508.11 325.005 507.807 324.225C507.504 323.444 507.353 322.624 507.353 321.764C507.353 320.888 507.504 320.06 507.807 319.279C508.11 318.499 508.54 317.806 509.097 317.201C509.671 316.595 510.363 316.125 511.176 315.791C511.988 315.44 512.904 315.265 513.923 315.265C514.943 315.265 515.851 315.44 516.647 315.791C517.46 316.125 518.152 316.595 518.726 317.201C519.299 317.806 519.729 318.499 520.016 319.279C520.319 320.06 520.47 320.888 520.47 321.764C520.47 322.624 520.319 323.444 520.016 324.225C519.729 325.005 519.299 325.698 518.726 326.304C518.168 326.909 517.483 327.387 516.671 327.737C515.859 328.072 514.943 328.239 513.923 328.239ZM510.65 321.764C510.65 322.497 510.794 323.15 511.08 323.723C511.367 324.281 511.757 324.719 512.251 325.037C512.745 325.356 513.302 325.515 513.923 325.515C514.529 325.515 515.078 325.356 515.572 325.037C516.066 324.703 516.456 324.257 516.743 323.699C517.045 323.126 517.197 322.473 517.197 321.74C517.197 321.023 517.045 320.378 516.743 319.805C516.456 319.231 516.066 318.785 515.572 318.467C515.078 318.148 514.529 317.989 513.923 317.989C513.302 317.989 512.745 318.156 512.251 318.491C511.757 318.809 511.367 319.255 511.08 319.829C510.794 320.386 510.65 321.031 510.65 321.764ZM528.413 328.239C527.394 328.239 526.478 328.072 525.665 327.737C524.853 327.387 524.16 326.909 523.587 326.304C523.029 325.698 522.599 325.005 522.297 324.225C521.994 323.444 521.843 322.624 521.843 321.764C521.843 320.888 521.994 320.06 522.297 319.279C522.599 318.499 523.029 317.806 523.587 317.201C524.16 316.595 524.853 316.125 525.665 315.791C526.478 315.44 527.394 315.265 528.413 315.265C529.432 315.265 530.34 315.44 531.137 315.791C531.949 316.125 532.642 316.595 533.215 317.201C533.789 317.806 534.219 318.499 534.506 319.279C534.808 320.06 534.96 320.888 534.96 321.764C534.96 322.624 534.808 323.444 534.506 324.225C534.219 325.005 533.789 325.698 533.215 326.304C532.658 326.909 531.973 327.387 531.161 327.737C530.348 328.072 529.432 328.239 528.413 328.239ZM525.14 321.764C525.14 322.497 525.283 323.15 525.57 323.723C525.856 324.281 526.247 324.719 526.741 325.037C527.234 325.356 527.792 325.515 528.413 325.515C529.018 325.515 529.568 325.356 530.062 325.037C530.555 324.703 530.946 324.257 531.232 323.699C531.535 323.126 531.686 322.473 531.686 321.74C531.686 321.023 531.535 320.378 531.232 319.805C530.946 319.231 530.555 318.785 530.062 318.467C529.568 318.148 529.018 317.989 528.413 317.989C527.792 317.989 527.234 318.156 526.741 318.491C526.247 318.809 525.856 319.255 525.57 319.829C525.283 320.386 525.14 321.031 525.14 321.764ZM545.674 328L542.018 322.6L540.322 324.273V328H537.121V310.558H540.322V321.119L545.363 315.504H548.756L544.097 320.808L549.091 328H545.674ZM550.372 328V324.559H553V328H550.372ZM561.383 328.239C560.364 328.239 559.448 328.072 558.635 327.737C557.823 327.387 557.13 326.909 556.557 326.304C555.983 325.682 555.537 324.982 555.219 324.201C554.916 323.421 554.765 322.6 554.765 321.74C554.765 320.561 555.028 319.486 555.553 318.515C556.095 317.527 556.859 316.739 557.847 316.149C558.834 315.56 560.005 315.265 561.359 315.265C562.713 315.265 563.876 315.56 564.847 316.149C565.819 316.739 566.544 317.511 567.022 318.467L563.892 319.423C563.621 318.961 563.263 318.61 562.817 318.371C562.371 318.116 561.877 317.989 561.335 317.989C560.73 317.989 560.172 318.148 559.663 318.467C559.169 318.77 558.779 319.208 558.492 319.781C558.205 320.338 558.062 320.992 558.062 321.74C558.062 322.473 558.205 323.126 558.492 323.699C558.795 324.257 559.193 324.703 559.687 325.037C560.18 325.356 560.73 325.515 561.335 325.515C561.718 325.515 562.076 325.451 562.41 325.324C562.761 325.197 563.071 325.021 563.342 324.798C563.613 324.575 563.812 324.321 563.94 324.034L567.069 324.99C566.783 325.611 566.361 326.168 565.803 326.662C565.262 327.156 564.616 327.546 563.868 327.833C563.135 328.104 562.307 328.239 561.383 328.239ZM574.705 328.239C573.685 328.239 572.77 328.072 571.957 327.737C571.145 327.387 570.452 326.909 569.879 326.304C569.321 325.698 568.891 325.005 568.588 324.225C568.286 323.444 568.134 322.624 568.134 321.764C568.134 320.888 568.286 320.06 568.588 319.279C568.891 318.499 569.321 317.806 569.879 317.201C570.452 316.595 571.145 316.125 571.957 315.791C572.77 315.44 573.685 315.265 574.705 315.265C575.724 315.265 576.632 315.44 577.429 315.791C578.241 316.125 578.934 316.595 579.507 317.201C580.081 317.806 580.511 318.499 580.797 319.279C581.1 320.06 581.251 320.888 581.251 321.764C581.251 322.624 581.1 323.444 580.797 324.225C580.511 325.005 580.081 325.698 579.507 326.304C578.95 326.909 578.265 327.387 577.452 327.737C576.64 328.072 575.724 328.239 574.705 328.239ZM571.432 321.764C571.432 322.497 571.575 323.15 571.862 323.723C572.148 324.281 572.539 324.719 573.032 325.037C573.526 325.356 574.084 325.515 574.705 325.515C575.31 325.515 575.86 325.356 576.353 325.037C576.847 324.703 577.237 324.257 577.524 323.699C577.827 323.126 577.978 322.473 577.978 321.74C577.978 321.023 577.827 320.378 577.524 319.805C577.237 319.231 576.847 318.785 576.353 318.467C575.86 318.148 575.31 317.989 574.705 317.989C574.084 317.989 573.526 318.156 573.032 318.491C572.539 318.809 572.148 319.255 571.862 319.829C571.575 320.386 571.432 321.031 571.432 321.764ZM602.861 328H599.659V320.976C599.659 319.988 599.484 319.263 599.134 318.801C598.799 318.324 598.329 318.085 597.724 318.085C597.103 318.085 596.505 318.331 595.932 318.825C595.375 319.303 594.976 319.932 594.737 320.713V328H591.536V320.976C591.536 319.972 591.361 319.239 591.01 318.777C590.676 318.316 590.206 318.085 589.601 318.085C588.979 318.085 588.382 318.324 587.809 318.801C587.251 319.279 586.853 319.908 586.614 320.689V328H583.412V315.48H586.303V317.798C586.781 316.986 587.418 316.364 588.215 315.934C589.011 315.488 589.927 315.265 590.962 315.265C591.998 315.265 592.802 315.52 593.376 316.03C593.965 316.54 594.339 317.169 594.498 317.917C595.008 317.057 595.653 316.404 596.434 315.958C597.23 315.496 598.122 315.265 599.11 315.265C599.89 315.265 600.519 315.409 600.997 315.695C601.491 315.966 601.873 316.34 602.144 316.818C602.415 317.28 602.598 317.806 602.694 318.395C602.805 318.985 602.861 319.582 602.861 320.187V328Z" fill="white"/>
</g>
</g>
<defs>
<linearGradient id="paint0_linear_1361_2516" x1="1485.27" y1="56.2017" x2="1399.93" y2="56.2751" gradientUnits="userSpaceOnUse">
<stop stop-color="white"/>
<stop offset="1" stop-color="#C6C6C6" stop-opacity="0.8"/>
</linearGradient>
<linearGradient id="paint1_linear_1361_2516" x1="1577.4" y1="49.4753" x2="1491.65" y2="49.4752" gradientUnits="userSpaceOnUse">
<stop stop-color="#819901"/>
<stop offset="1" stop-color="#D7FF01"/>
</linearGradient>
<linearGradient id="paint2_linear_1361_2516" x1="1492.74" y1="140.243" x2="1576.11" y2="140.438" gradientUnits="userSpaceOnUse">
<stop stop-color="#D7FF01"/>
<stop offset="1" stop-color="#819901"/>
</linearGradient>
<linearGradient id="paint3_linear_1361_2516" x1="49.4741" y1="98.9481" x2="49.474" y2="-5.5051e-06" gradientUnits="userSpaceOnUse">
<stop stop-color="#990DCE"/>
<stop offset="1" stop-color="#4D0768"/>
</linearGradient>
<linearGradient id="paint4_linear_1361_2516" x1="1470.27" y1="346.473" x2="1397.31" y2="346.473" gradientUnits="userSpaceOnUse">
<stop stop-color="#990DCE"/>
<stop offset="1" stop-color="#4D0768"/>
</linearGradient>
<linearGradient id="paint5_linear_1361_2516" x1="1433.83" y1="284.143" x2="1433.83" y2="198.396" gradientUnits="userSpaceOnUse">
<stop stop-color="#990DCE"/>
<stop offset="1" stop-color="#4D0768"/>
</linearGradient>
<linearGradient id="paint6_linear_1361_2516" x1="0" y1="49.4741" x2="98.9481" y2="49.474" gradientUnits="userSpaceOnUse">
<stop stop-color="#D7FF01"/>
<stop offset="1" stop-color="#819901"/>
</linearGradient>
<linearGradient id="paint7_linear_1361_2516" x1="1490.34" y1="339.028" x2="1574.47" y2="339.196" gradientUnits="userSpaceOnUse">
<stop stop-color="white"/>
<stop offset="1" stop-color="#C6C6C6" stop-opacity="0.8"/>
</linearGradient>
<linearGradient id="paint8_linear_1361_2516" x1="1334.52" y1="395.655" x2="1334.6" y2="481.066" gradientUnits="userSpaceOnUse">
<stop stop-color="white"/>
<stop offset="1" stop-color="#C6C6C6" stop-opacity="0.8"/>
</linearGradient>
<linearGradient id="paint9_linear_1361_2516" x1="1235.87" y1="408.857" x2="1235.87" y2="494.604" gradientUnits="userSpaceOnUse">
<stop stop-color="#D7FF01"/>
<stop offset="1" stop-color="#819901"/>
</linearGradient>
<linearGradient id="paint10_linear_1361_2516" x1="1236.06" y1="312.58" x2="1235.87" y2="395.949" gradientUnits="userSpaceOnUse">
<stop stop-color="#D7FF01"/>
<stop offset="1" stop-color="#819901"/>
</linearGradient>
<linearGradient id="paint11_linear_1361_2516" x1="98.9481" y1="49.474" x2="0" y2="49.474" gradientUnits="userSpaceOnUse">
<stop stop-color="#990DCE"/>
<stop offset="1" stop-color="#4D0768"/>
</linearGradient>
<linearGradient id="paint12_linear_1361_2516" x1="1038.88" y1="312.333" x2="1038.88" y2="382.463" gradientUnits="userSpaceOnUse">
<stop stop-color="white"/>
<stop offset="1" stop-color="#C6C6C6" stop-opacity="0.8"/>
</linearGradient>
<linearGradient id="paint13_linear_1361_2516" x1="1136.61" y1="311.587" x2="1136.93" y2="396.145" gradientUnits="userSpaceOnUse">
<stop stop-color="white"/>
<stop offset="1" stop-color="#C6C6C6"/>
</linearGradient>
<linearGradient id="paint14_linear_1361_2516" x1="1136.93" y1="410.068" x2="1136.93" y2="480.198" gradientUnits="userSpaceOnUse">
<stop stop-color="#D7FF01"/>
<stop offset="1" stop-color="#819901"/>
</linearGradient>
<linearGradient id="paint15_linear_1361_2516" x1="49.0725" y1="0" x2="49.0725" y2="98.145" gradientUnits="userSpaceOnUse">
<stop stop-color="#990DCE"/>
<stop offset="1" stop-color="#4D0768"/>
</linearGradient>
<linearGradient id="paint16_linear_1361_2516" x1="1335.22" y1="284.185" x2="1335.19" y2="212.353" gradientUnits="userSpaceOnUse">
<stop stop-color="#D7FF01"/>
<stop offset="1" stop-color="#819901"/>
</linearGradient>
<linearGradient id="paint17_linear_1361_2516" x1="1298.83" y1="149.822" x2="1370.67" y2="149.745" gradientUnits="userSpaceOnUse">
<stop stop-color="#990DCE"/>
<stop offset="1" stop-color="#4D0768"/>
</linearGradient>
<linearGradient id="paint18_linear_1361_2516" x1="49.474" y1="0" x2="49.474" y2="98.9481" gradientUnits="userSpaceOnUse">
<stop stop-color="#D7FF01"/>
<stop offset="1" stop-color="#819901"/>
</linearGradient>
<linearGradient id="paint19_linear_1361_2516" x1="49.474" y1="0" x2="49.474" y2="98.9481" gradientUnits="userSpaceOnUse">
<stop stop-color="white"/>
<stop offset="1" stop-color="#C6C6C6"/>
</linearGradient>
<clipPath id="clip0_1361_2516">
<rect width="1584" height="396" fill="white"/>
</clipPath>
<clipPath id="clip1_1361_2516">
<rect width="29.441" height="29.441" fill="white" transform="translate(261 306)"/>
</clipPath>
</defs>
</svg>
