<svg width="1584" height="396" viewBox="0 0 1584 396" fill="none" xmlns="http://www.w3.org/2000/svg">
<g clip-path="url(#clip0_1361_2557)">
<path d="M1487.78 98.9283L1487.78 0.000623324C1438.57 0.000616751 1390.64 40.6987 1390.64 98.9283L1487.78 98.9283Z" fill="url(#paint0_linear_1361_2557)"/>
<path d="M1584.63 0.000931805L1487.49 0.000923157C1487.49 50.1242 1527.46 98.9286 1584.63 98.9286L1584.63 0.000931805Z" fill="url(#paint1_linear_1361_2557)"/>
<path d="M1487.5 98.6343L1487.5 197.562C1536.71 197.562 1584.64 156.864 1584.64 98.6344L1487.5 98.6343Z" fill="url(#paint2_linear_1361_2557)"/>
<ellipse cx="48.5694" cy="49.4633" rx="48.5694" ry="49.4633" transform="matrix(1 8.90318e-08 8.58428e-08 -1 1390.64 197.463)" fill="url(#paint3_linear_1361_2557)"/>
<path d="M1388.65 395.814C1442.29 395.814 1485.79 352.324 1485.79 298.676L1485.79 296.887V296.887C1432.14 296.887 1388.65 340.377 1388.65 394.025L1388.65 395.814V395.814Z" fill="url(#paint4_linear_1361_2557)"/>
<path d="M1388.65 200.14C1388.65 253.788 1432.14 297.279 1485.79 297.28V297.28L1485.79 295.493C1485.79 241.844 1442.3 198.353 1388.65 198.353V198.353L1388.65 200.14Z" fill="url(#paint5_linear_1361_2557)"/>
<ellipse cx="48.5694" cy="49.4633" rx="48.5694" ry="49.4633" transform="matrix(1 8.90318e-08 8.58428e-08 -1 1485.5 297.279)" fill="url(#paint6_linear_1361_2557)"/>
<path d="M1485.5 296.986L1485.5 395.914C1534.71 395.914 1582.64 355.216 1582.64 296.986L1485.5 296.986Z" fill="url(#paint7_linear_1361_2557)"/>
<path d="M1291.44 395.863L1291.44 296.935C1242.22 296.935 1194.3 337.633 1194.3 395.863L1291.44 395.863Z" fill="url(#paint8_linear_1361_2557)"/>
<ellipse cx="48.5694" cy="49.4633" rx="48.5694" ry="49.4633" transform="matrix(-1 0 0 1 1388.29 297.034)" fill="url(#paint9_linear_1361_2557)"/>
<path d="M1097.85 297.934C1044.64 297.934 1001.5 341.072 1001.5 394.284L1001.5 396.059V396.059C1054.71 396.059 1097.85 352.921 1097.85 299.709L1097.85 297.934V297.934Z" fill="url(#paint10_linear_1361_2557)"/>
<path d="M1097.56 396.058H1193.91C1193.91 346.342 1154.27 297.933 1097.56 297.933V396.058Z" fill="url(#paint11_linear_1361_2557)"/>
<path d="M1291.51 297.864C1345.16 297.845 1388.63 254.339 1388.61 200.69L1388.61 198.901V198.901C1334.97 198.921 1291.49 242.427 1291.51 296.075L1291.51 297.864V297.864Z" fill="url(#paint12_linear_1361_2557)"/>
<path d="M1388.61 197.41C1388.59 143.761 1345.09 100.285 1291.44 100.305V100.305L1291.44 102.092C1291.46 155.74 1334.96 199.216 1388.61 199.196V199.196L1388.61 197.41Z" fill="url(#paint13_linear_1361_2557)"/>
<rect width="98.9265" height="97.1387" transform="matrix(-0.000347725 -1 -1 0.000360643 1291.41 199.524)" fill="url(#paint14_linear_1361_2557)"/>
<ellipse cx="49.4633" cy="48.5694" rx="49.4633" ry="48.5694" transform="matrix(-0.000347725 -1 -1 0.000360643 1291.15 297.865)" fill="url(#paint15_linear_1361_2557)"/>
<path d="M5.44 179.406V133.966H21.184C26.048 133.966 30.1013 134.99 33.344 137.038C36.6293 139.043 39.0827 141.774 40.704 145.23C42.3253 148.643 43.136 152.44 43.136 156.622C43.136 161.23 42.24 165.24 40.448 168.654C38.656 172.067 36.1173 174.712 32.832 176.59C29.5467 178.467 25.664 179.406 21.184 179.406H5.44ZM37.312 156.622C37.312 153.208 36.672 150.179 35.392 147.534C34.1547 144.888 32.3413 142.819 29.952 141.326C27.5627 139.832 24.64 139.086 21.184 139.086H11.2V174.286H21.184C24.6827 174.286 27.6267 173.518 30.016 171.982C32.4053 170.403 34.2187 168.291 35.456 165.646C36.6933 162.958 37.312 159.95 37.312 156.622ZM65.1405 180.046C62.6232 180.046 60.3192 179.598 58.2285 178.702C56.1805 177.763 54.3885 176.504 52.8525 174.926C51.3592 173.304 50.1858 171.448 49.3325 169.358C48.5218 167.267 48.1165 165.048 48.1165 162.702C48.1165 159.544 48.8418 156.664 50.2925 154.062C51.7432 151.459 53.7485 149.368 56.3085 147.79C58.9112 146.211 61.8765 145.422 65.2045 145.422C68.5752 145.422 71.4978 146.232 73.9725 147.854C76.4898 149.432 78.4312 151.523 79.7965 154.126C81.2045 156.686 81.9085 159.459 81.9085 162.446C81.9085 162.872 81.8872 163.299 81.8445 163.726C81.8445 164.11 81.8232 164.408 81.7805 164.622H54.0685C54.2392 166.798 54.8365 168.739 55.8605 170.446C56.9272 172.11 58.2925 173.432 59.9565 174.414C61.6205 175.352 63.4125 175.822 65.3325 175.822C67.3805 175.822 69.3005 175.31 71.0925 174.286C72.9272 173.262 74.1858 171.918 74.8685 170.254L79.7325 171.598C79.0072 173.219 77.9192 174.67 76.4685 175.95C75.0605 177.23 73.3752 178.232 71.4125 178.958C69.4925 179.683 67.4018 180.046 65.1405 180.046ZM53.8765 160.718H76.6605C76.4898 158.542 75.8712 156.622 74.8045 154.958C73.7378 153.294 72.3725 151.992 70.7085 151.054C69.0445 150.115 67.2098 149.646 65.2045 149.646C63.2418 149.646 61.4285 150.115 59.7645 151.054C58.1005 151.992 56.7352 153.294 55.6685 154.958C54.6445 156.622 54.0472 158.542 53.8765 160.718ZM99.625 180.046C96.8517 180.046 94.249 179.598 91.817 178.702C89.385 177.763 87.2943 176.376 85.545 174.542L87.721 170.574C89.641 172.366 91.561 173.646 93.481 174.414C95.401 175.182 97.3637 175.566 99.369 175.566C101.673 175.566 103.55 175.139 105.001 174.286C106.452 173.39 107.177 172.088 107.177 170.382C107.177 169.144 106.793 168.227 106.025 167.63C105.3 167.032 104.254 166.542 102.889 166.158C101.524 165.731 99.9023 165.262 98.025 164.75C95.721 164.067 93.7797 163.342 92.201 162.574C90.6223 161.806 89.4277 160.846 88.617 159.694C87.8063 158.542 87.401 157.091 87.401 155.342C87.401 153.208 87.9557 151.416 89.065 149.966C90.1743 148.472 91.689 147.342 93.609 146.574C95.5717 145.806 97.7903 145.422 100.265 145.422C102.74 145.422 104.98 145.806 106.985 146.574C108.99 147.342 110.718 148.472 112.169 149.966L109.609 153.87C108.286 152.504 106.836 151.502 105.257 150.862C103.678 150.179 101.908 149.838 99.945 149.838C98.793 149.838 97.6623 149.987 96.553 150.286C95.4437 150.542 94.5263 151.032 93.801 151.758C93.0757 152.44 92.713 153.422 92.713 154.702C92.713 155.768 92.9903 156.622 93.545 157.262C94.1423 157.859 94.9957 158.371 96.105 158.798C97.257 159.224 98.6437 159.694 100.265 160.206C102.782 160.931 104.958 161.656 106.793 162.382C108.67 163.107 110.121 164.046 111.145 165.198C112.169 166.35 112.681 167.95 112.681 169.998C112.681 173.155 111.486 175.63 109.097 177.422C106.708 179.171 103.55 180.046 99.625 180.046ZM134.203 180.046C131.686 180.046 129.382 179.598 127.291 178.702C125.243 177.763 123.451 176.504 121.915 174.926C120.422 173.304 119.248 171.448 118.395 169.358C117.584 167.267 117.179 165.048 117.179 162.702C117.179 159.544 117.904 156.664 119.355 154.062C120.806 151.459 122.811 149.368 125.371 147.79C127.974 146.211 130.939 145.422 134.267 145.422C137.638 145.422 140.56 146.232 143.035 147.854C145.552 149.432 147.494 151.523 148.859 154.126C150.267 156.686 150.971 159.459 150.971 162.446C150.971 162.872 150.95 163.299 150.907 163.726C150.907 164.11 150.886 164.408 150.843 164.622H123.131C123.302 166.798 123.899 168.739 124.923 170.446C125.99 172.11 127.355 173.432 129.019 174.414C130.683 175.352 132.475 175.822 134.395 175.822C136.443 175.822 138.363 175.31 140.155 174.286C141.99 173.262 143.248 171.918 143.931 170.254L148.795 171.598C148.07 173.219 146.982 174.67 145.531 175.95C144.123 177.23 142.438 178.232 140.475 178.958C138.555 179.683 136.464 180.046 134.203 180.046ZM122.939 160.718H145.723C145.552 158.542 144.934 156.622 143.867 154.958C142.8 153.294 141.435 151.992 139.771 151.054C138.107 150.115 136.272 149.646 134.267 149.646C132.304 149.646 130.491 150.115 128.827 151.054C127.163 151.992 125.798 153.294 124.731 154.958C123.707 156.622 123.11 158.542 122.939 160.718ZM186.224 179.406H180.592V160.718C180.592 157.176 180.037 154.595 178.928 152.974C177.861 151.31 176.218 150.478 174 150.478C172.464 150.478 170.928 150.862 169.392 151.63C167.898 152.398 166.554 153.443 165.36 154.766C164.208 156.046 163.376 157.539 162.864 159.246V179.406H157.232V145.998H162.352V153.166C163.248 151.587 164.4 150.222 165.808 149.07C167.216 147.918 168.816 147.022 170.608 146.382C172.4 145.742 174.277 145.422 176.24 145.422C178.16 145.422 179.76 145.784 181.04 146.51C182.362 147.192 183.386 148.174 184.112 149.454C184.88 150.691 185.413 152.163 185.712 153.87C186.053 155.576 186.224 157.432 186.224 159.438V179.406ZM203.894 179.406L190.774 145.998H196.662L207.158 174.03L217.654 145.998H223.158L210.038 179.406H203.894ZM242.261 180.046C239.744 180.046 237.461 179.598 235.413 178.702C233.365 177.763 231.594 176.504 230.101 174.926C228.608 173.304 227.456 171.448 226.645 169.358C225.834 167.267 225.429 165.07 225.429 162.766C225.429 160.419 225.834 158.2 226.645 156.11C227.456 154.019 228.608 152.184 230.101 150.606C231.594 148.984 233.365 147.726 235.413 146.83C237.504 145.891 239.786 145.422 242.261 145.422C244.778 145.422 247.061 145.891 249.109 146.83C251.157 147.726 252.928 148.984 254.421 150.606C255.957 152.184 257.13 154.019 257.941 156.11C258.752 158.2 259.157 160.419 259.157 162.766C259.157 165.07 258.752 167.267 257.941 169.358C257.13 171.448 255.978 173.304 254.485 174.926C252.992 176.504 251.2 177.763 249.109 178.702C247.061 179.598 244.778 180.046 242.261 180.046ZM231.189 162.83C231.189 165.134 231.68 167.224 232.661 169.102C233.685 170.979 235.029 172.472 236.693 173.582C238.357 174.648 240.213 175.182 242.261 175.182C244.309 175.182 246.165 174.627 247.829 173.518C249.536 172.408 250.88 170.915 251.861 169.038C252.885 167.118 253.397 165.006 253.397 162.702C253.397 160.398 252.885 158.307 251.861 156.43C250.88 154.552 249.536 153.059 247.829 151.95C246.165 150.84 244.309 150.286 242.261 150.286C240.213 150.286 238.357 150.862 236.693 152.014C235.029 153.123 233.685 154.616 232.661 156.494C231.68 158.371 231.189 160.483 231.189 162.83ZM266.11 132.686H271.742V170.766C271.742 172.6 271.998 173.731 272.51 174.158C273.022 174.584 273.64 174.798 274.366 174.798C275.262 174.798 276.115 174.712 276.926 174.542C277.736 174.328 278.419 174.115 278.974 173.902L279.87 178.51C278.931 178.894 277.822 179.214 276.542 179.47C275.262 179.726 274.131 179.854 273.15 179.854C270.974 179.854 269.246 179.235 267.966 177.998C266.728 176.76 266.11 175.032 266.11 172.814V132.686ZM292.644 179.406L279.524 145.998H285.412L295.908 174.03L306.404 145.998H311.908L298.788 179.406H292.644ZM331.203 180.046C328.686 180.046 326.382 179.598 324.291 178.702C322.243 177.763 320.451 176.504 318.915 174.926C317.422 173.304 316.248 171.448 315.395 169.358C314.584 167.267 314.179 165.048 314.179 162.702C314.179 159.544 314.904 156.664 316.355 154.062C317.806 151.459 319.811 149.368 322.371 147.79C324.974 146.211 327.939 145.422 331.267 145.422C334.638 145.422 337.56 146.232 340.035 147.854C342.552 149.432 344.494 151.523 345.859 154.126C347.267 156.686 347.971 159.459 347.971 162.446C347.971 162.872 347.95 163.299 347.907 163.726C347.907 164.11 347.886 164.408 347.843 164.622H320.131C320.302 166.798 320.899 168.739 321.923 170.446C322.99 172.11 324.355 173.432 326.019 174.414C327.683 175.352 329.475 175.822 331.395 175.822C333.443 175.822 335.363 175.31 337.155 174.286C338.99 173.262 340.248 171.918 340.931 170.254L345.795 171.598C345.07 173.219 343.982 174.67 342.531 175.95C341.123 177.23 339.438 178.232 337.475 178.958C335.555 179.683 333.464 180.046 331.203 180.046ZM319.939 160.718H342.723C342.552 158.542 341.934 156.622 340.867 154.958C339.8 153.294 338.435 151.992 336.771 151.054C335.107 150.115 333.272 149.646 331.267 149.646C329.304 149.646 327.491 150.115 325.827 151.054C324.163 151.992 322.798 153.294 321.731 154.958C320.707 156.622 320.11 158.542 319.939 160.718ZM352.056 162.766C352.056 159.608 352.696 156.728 353.976 154.126C355.298 151.48 357.09 149.368 359.352 147.79C361.656 146.211 364.28 145.422 367.224 145.422C369.912 145.422 372.322 146.126 374.456 147.534C376.589 148.942 378.253 150.648 379.448 152.654V132.686H385.08V173.006C385.08 173.688 385.208 174.2 385.464 174.542C385.762 174.84 386.232 175.011 386.872 175.054V179.406C385.805 179.576 384.973 179.662 384.376 179.662C383.266 179.662 382.285 179.278 381.432 178.51C380.621 177.742 380.216 176.888 380.216 175.95V173.134C378.893 175.267 377.122 176.952 374.904 178.19C372.685 179.427 370.381 180.046 367.992 180.046C365.688 180.046 363.554 179.598 361.592 178.702C359.672 177.763 357.986 176.483 356.536 174.862C355.128 173.24 354.018 171.406 353.208 169.358C352.44 167.267 352.056 165.07 352.056 162.766ZM379.448 167.694V158.094C378.936 156.643 378.104 155.342 376.952 154.19C375.8 152.995 374.498 152.056 373.048 151.374C371.64 150.648 370.232 150.286 368.824 150.286C367.16 150.286 365.645 150.648 364.28 151.374C362.957 152.056 361.805 152.995 360.824 154.19C359.885 155.342 359.16 156.664 358.648 158.158C358.136 159.651 357.88 161.208 357.88 162.83C357.88 164.494 358.157 166.072 358.712 167.566C359.309 169.059 360.12 170.382 361.144 171.534C362.21 172.686 363.426 173.582 364.792 174.222C366.2 174.862 367.714 175.182 369.336 175.182C370.36 175.182 371.405 174.99 372.472 174.606C373.581 174.222 374.626 173.688 375.608 173.006C376.589 172.323 377.421 171.534 378.104 170.638C378.786 169.699 379.234 168.718 379.448 167.694ZM409.074 180.046C406.556 180.046 404.274 179.598 402.226 178.702C400.178 177.763 398.407 176.504 396.914 174.926C395.42 173.304 394.268 171.448 393.458 169.358C392.647 167.267 392.242 165.07 392.242 162.766C392.242 160.419 392.647 158.2 393.458 156.11C394.268 154.019 395.42 152.184 396.914 150.606C398.407 148.984 400.178 147.726 402.226 146.83C404.316 145.891 406.599 145.422 409.074 145.422C411.591 145.422 413.874 145.891 415.922 146.83C417.97 147.726 419.74 148.984 421.234 150.606C422.77 152.184 423.943 154.019 424.754 156.11C425.564 158.2 425.97 160.419 425.97 162.766C425.97 165.07 425.564 167.267 424.754 169.358C423.943 171.448 422.791 173.304 421.298 174.926C419.804 176.504 418.012 177.763 415.922 178.702C413.874 179.598 411.591 180.046 409.074 180.046ZM398.002 162.83C398.002 165.134 398.492 167.224 399.474 169.102C400.498 170.979 401.842 172.472 403.506 173.582C405.17 174.648 407.026 175.182 409.074 175.182C411.122 175.182 412.978 174.627 414.642 173.518C416.348 172.408 417.692 170.915 418.674 169.038C419.698 167.118 420.21 165.006 420.21 162.702C420.21 160.398 419.698 158.307 418.674 156.43C417.692 154.552 416.348 153.059 414.642 151.95C412.978 150.84 411.122 150.286 409.074 150.286C407.026 150.286 405.17 150.862 403.506 152.014C401.842 153.123 400.498 154.616 399.474 156.494C398.492 158.371 398.002 160.483 398.002 162.83ZM450.458 150.926C447.642 150.968 445.146 151.694 442.97 153.102C440.837 154.467 439.322 156.366 438.426 158.798V179.406H432.794V145.998H438.042V153.742C439.194 151.438 440.709 149.582 442.586 148.174C444.506 146.723 446.511 145.912 448.602 145.742C449.029 145.742 449.391 145.742 449.69 145.742C449.989 145.742 450.245 145.763 450.458 145.806V150.926ZM453.42 169.742C453.42 167.608 454.017 165.774 455.212 164.238C456.449 162.659 458.135 161.443 460.268 160.59C462.401 159.736 464.876 159.31 467.692 159.31C469.185 159.31 470.764 159.438 472.428 159.694C474.092 159.907 475.564 160.248 476.844 160.718V158.286C476.844 155.726 476.076 153.72 474.54 152.27C473.004 150.776 470.828 150.03 468.012 150.03C466.177 150.03 464.407 150.371 462.7 151.054C461.036 151.694 459.265 152.632 457.388 153.87L455.34 149.902C457.516 148.408 459.692 147.299 461.868 146.574C464.044 145.806 466.305 145.422 468.652 145.422C472.919 145.422 476.289 146.616 478.764 149.006C481.239 151.352 482.476 154.638 482.476 158.862V173.006C482.476 173.688 482.604 174.2 482.86 174.542C483.159 174.84 483.628 175.011 484.268 175.054V179.406C483.713 179.491 483.223 179.555 482.796 179.598C482.412 179.64 482.092 179.662 481.836 179.662C480.513 179.662 479.511 179.299 478.828 178.574C478.188 177.848 477.825 177.08 477.74 176.27L477.612 174.158C476.161 176.035 474.263 177.486 471.916 178.51C469.569 179.534 467.244 180.046 464.94 180.046C462.721 180.046 460.737 179.598 458.988 178.702C457.239 177.763 455.873 176.526 454.892 174.99C453.911 173.411 453.42 171.662 453.42 169.742ZM475.18 172.11C475.692 171.512 476.097 170.915 476.396 170.318C476.695 169.678 476.844 169.144 476.844 168.718V164.558C475.521 164.046 474.135 163.662 472.684 163.406C471.233 163.107 469.804 162.958 468.396 162.958C465.537 162.958 463.212 163.534 461.42 164.686C459.671 165.795 458.796 167.331 458.796 169.294C458.796 170.36 459.073 171.406 459.628 172.43C460.225 173.411 461.079 174.222 462.188 174.862C463.34 175.502 464.748 175.822 466.412 175.822C468.161 175.822 469.825 175.48 471.404 174.798C472.983 174.072 474.241 173.176 475.18 172.11Z" fill="#990DCE"/>
<path d="M3.39844 276.406V262.636H15.0586V208.671H3.39844V194.902H76.3477V220.039H60.7617V208.671H36.2695V227.539H53.9062V241.308H36.2695V262.636H48.8086V276.406H3.39844ZM79.7461 208.671V194.902H118.652V208.671H110.625V245.527C110.625 250.449 110.82 254.003 111.211 256.191C111.641 258.339 112.734 260.117 114.492 261.523C116.25 262.929 118.477 263.632 121.172 263.632C123.945 263.632 126.25 262.968 128.086 261.64C129.922 260.312 131.094 258.652 131.602 256.66C132.148 254.667 132.422 250.605 132.422 244.472V208.671H124.512V194.902H156.973V208.671H147.012V249.453C147.012 254.999 146.719 259.042 146.133 261.582C145.547 264.082 144.199 266.582 142.09 269.082C139.98 271.542 136.914 273.554 132.891 275.117C128.906 276.64 124.316 277.402 119.121 277.402C113.105 277.402 107.969 276.562 103.711 274.882C99.4922 273.164 96.3477 270.898 94.2773 268.085C92.207 265.273 90.8789 262.48 90.293 259.707C89.707 256.933 89.4141 252.207 89.4141 245.527V208.671H79.7461ZM162.129 276.406V262.636H173.789V208.671H162.129V194.902H206.895V208.671H195V262.636H219.082V237.441H234.961V276.406H162.129ZM239.707 276.406V262.636H251.367V208.671H239.707V194.902H284.473V208.671H272.578V262.636H296.66V237.441H312.539V276.406H239.707ZM318.223 255.957V240.136H350.977V255.957H318.223ZM360.996 276.406V248.632H374.824C374.98 253.71 376.309 257.46 378.809 259.882C381.309 262.265 384.16 263.457 387.363 263.457C389.863 263.457 391.973 262.597 393.691 260.878C395.41 259.121 396.27 257.07 396.27 254.726C396.27 252.226 395.43 250.136 393.75 248.457C392.07 246.738 389.004 244.785 384.551 242.597C375.137 238.027 368.73 234.003 365.332 230.527C361.973 227.05 360.293 222.363 360.293 216.464C360.293 209.355 362.52 203.847 366.973 199.941C371.426 196.035 376.484 194.082 382.148 194.082C388.633 194.082 393.652 196.601 397.207 201.64V194.902H410.977V219.687H397.207C396.777 215.859 395.449 212.91 393.223 210.839C391.035 208.73 388.477 207.675 385.547 207.675C383.281 207.675 381.367 208.281 379.805 209.492C378.242 210.703 377.461 212.285 377.461 214.238C377.461 215.917 378.105 217.519 379.395 219.042C380.684 220.527 384.453 222.656 390.703 225.429C396.719 228.124 401.328 230.566 404.531 232.753C407.773 234.902 410.332 237.714 412.207 241.191C414.082 244.628 415.02 248.613 415.02 253.144C415.02 261.191 412.676 267.246 407.988 271.308C403.301 275.371 397.754 277.402 391.348 277.402C384.199 277.402 378.691 274.765 374.824 269.492V276.406H360.996ZM436.758 276.406V262.636H449.004V208.671H436.758V227.656H422.754V194.902H496.641V227.656H482.812V208.671H470.215V262.636H482.461V276.406H436.758ZM580.547 262.636V276.406H540.469V262.636H550.898L547.031 248.632H525.879L521.543 262.636H532.441V276.406H496.348V262.636H506.426L522.305 208.671H511.465V194.902H564.668V208.671H553.711L570.82 262.636H580.547ZM543.691 236.679L536.895 212.128L529.57 236.679H543.691ZM651.27 194.902H665.039V223.613H651.27C647.363 213.3 640.586 208.144 630.938 208.144C622.969 208.144 616.934 210.859 612.832 216.289C608.77 221.718 606.738 228.222 606.738 235.8C606.738 243.73 608.887 250.156 613.184 255.078C617.52 259.96 623.027 262.402 629.707 262.402C635.176 262.402 639.961 260.546 644.062 256.835C648.164 253.124 650.938 247.968 652.383 241.367L668.438 249.042C662.344 267.949 648.926 277.402 628.184 277.402C613.535 277.402 602.48 273.457 595.02 265.566C587.598 257.675 583.887 247.695 583.887 235.624C583.887 227.031 585.82 219.511 589.688 213.066C593.555 206.621 598.75 201.777 605.273 198.535C611.836 195.253 619.023 193.613 626.836 193.613C636.562 193.613 644.707 196.152 651.27 201.23V194.902ZM674.121 276.406V262.636H685.078V208.671H674.121V194.902H716.602V208.671H706.289V262.636H715.781V276.406H674.121ZM722.109 276.406V262.636H731.602L706.934 233.632L733.535 208.671H723.809V194.902H763.594V208.671H753.633L730.664 231.171L757.383 262.636H765.82V276.406H722.109Z" fill="white"/>
<g opacity="0.7">
<path d="M26.4296 313.12H2.10652C1.54784 313.12 1.01204 313.346 0.616986 313.748C0.221937 314.151 0 314.696 0 315.265V340.036C0 340.605 0.221937 341.151 0.616986 341.553C1.01204 341.955 1.54784 342.181 2.10652 342.181H26.4296C26.9883 342.181 27.5241 341.955 27.9192 341.553C28.3142 341.151 28.5361 340.605 28.5361 340.036V315.265C28.5361 314.696 28.3142 314.151 27.9192 313.748C27.5241 313.346 26.9883 313.12 26.4296 313.12ZM8.50535 337.877H4.21503V323.998H8.50535V337.877ZM6.35722 322.075C5.87055 322.072 5.39561 321.922 4.99232 321.645C4.58903 321.367 4.27547 320.974 4.09122 320.516C3.90697 320.057 3.86028 319.553 3.95705 319.067C4.05381 318.582 4.2897 318.136 4.63493 317.787C4.98016 317.437 5.41927 317.2 5.89683 317.104C6.3744 317.009 6.86902 317.06 7.31827 317.25C7.76753 317.441 8.15128 317.763 8.42109 318.175C8.69091 318.588 8.8347 319.072 8.83431 319.568C8.8389 319.9 8.77785 320.229 8.65479 320.536C8.53173 320.844 8.34918 321.123 8.11802 321.357C7.88687 321.59 7.61184 321.775 7.30932 321.898C7.00681 322.021 6.68301 322.081 6.35722 322.075ZM24.3191 337.889H20.0308V330.307C20.0308 328.07 19.0974 327.38 17.8926 327.38C16.6203 327.38 15.3719 328.357 15.3719 330.363V337.889H11.0815V324.008H15.2074V325.931H15.2629C15.677 325.078 17.1276 323.618 19.3412 323.618C21.735 323.618 24.3211 325.065 24.3211 329.304L24.3191 337.889Z" fill="#D7FF01"/>
<path d="M47.9725 322.877C47.8635 322.768 47.661 322.62 47.365 322.433C47.0846 322.246 46.7341 322.067 46.3135 321.895C45.9085 321.724 45.4646 321.576 44.9817 321.451C44.4988 321.311 44.0082 321.241 43.5097 321.241C42.6374 321.241 41.9754 321.405 41.5236 321.732C41.0875 322.059 40.8694 322.518 40.8694 323.11C40.8694 323.562 41.0096 323.92 41.29 324.185C41.5704 324.45 41.9909 324.676 42.5517 324.863C43.1125 325.05 43.8134 325.252 44.6546 325.47C45.745 325.735 46.6874 326.062 47.4818 326.451C48.2918 326.825 48.9071 327.324 49.3277 327.947C49.7638 328.554 49.9819 329.364 49.9819 330.377C49.9819 331.265 49.8184 332.028 49.4912 332.667C49.1641 333.29 48.7124 333.796 48.1361 334.185C47.5597 334.575 46.9055 334.863 46.1734 335.05C45.4412 335.221 44.6624 335.307 43.8368 335.307C43.0112 335.307 42.1856 335.221 41.3601 335.05C40.5345 334.879 39.7401 334.637 38.9768 334.326C38.2135 333.998 37.5126 333.609 36.8739 333.157L38.2992 330.377C38.4394 330.517 38.6886 330.704 39.0469 330.938C39.4052 331.156 39.8413 331.382 40.3554 331.615C40.8694 331.833 41.4302 332.02 42.0377 332.176C42.6452 332.332 43.2605 332.41 43.8835 332.41C44.7558 332.41 45.4179 332.262 45.8696 331.966C46.3213 331.67 46.5472 331.249 46.5472 330.704C46.5472 330.206 46.3681 329.816 46.0098 329.536C45.6515 329.255 45.1531 329.014 44.5144 328.811C43.8758 328.593 43.1203 328.36 42.248 328.11C41.2043 327.814 40.332 327.487 39.631 327.129C38.9301 326.755 38.4082 326.288 38.0655 325.727C37.7228 325.166 37.5515 324.465 37.5515 323.624C37.5515 322.487 37.8163 321.537 38.3459 320.774C38.8911 319.995 39.6232 319.411 40.5423 319.021C41.4613 318.616 42.4816 318.414 43.6032 318.414C44.382 318.414 45.1141 318.499 45.7995 318.671C46.5005 318.842 47.1547 319.068 47.7622 319.348C48.3697 319.629 48.9149 319.932 49.3978 320.26L47.9725 322.877ZM57.7692 335.354C56.7723 335.354 55.8766 335.19 55.0822 334.863C54.2877 334.52 53.6101 334.053 53.0494 333.461C52.5042 332.869 52.0836 332.192 51.7876 331.428C51.4917 330.665 51.3437 329.863 51.3437 329.022C51.3437 328.165 51.4917 327.355 51.7876 326.592C52.0836 325.828 52.5042 325.151 53.0494 324.559C53.6101 323.967 54.2877 323.507 55.0822 323.18C55.8766 322.838 56.7723 322.666 57.7692 322.666C58.7661 322.666 59.654 322.838 60.4328 323.18C61.2273 323.507 61.9049 323.967 62.4656 324.559C63.0264 325.151 63.447 325.828 63.7274 326.592C64.0233 327.355 64.1713 328.165 64.1713 329.022C64.1713 329.863 64.0233 330.665 63.7274 331.428C63.447 332.192 63.0264 332.869 62.4656 333.461C61.9204 334.053 61.2506 334.52 60.4562 334.863C59.6618 335.19 58.7661 335.354 57.7692 335.354ZM54.5681 329.022C54.5681 329.738 54.7083 330.377 54.9887 330.938C55.2691 331.483 55.6507 331.911 56.1336 332.223C56.6165 332.534 57.1617 332.69 57.7692 332.69C58.3611 332.69 58.8985 332.534 59.3814 332.223C59.8643 331.896 60.2459 331.459 60.5263 330.914C60.8223 330.353 60.9703 329.715 60.9703 328.998C60.9703 328.297 60.8223 327.666 60.5263 327.106C60.2459 326.545 59.8643 326.109 59.3814 325.797C58.8985 325.486 58.3611 325.33 57.7692 325.33C57.1617 325.33 56.6165 325.493 56.1336 325.821C55.6507 326.132 55.2691 326.568 54.9887 327.129C54.7083 327.674 54.5681 328.305 54.5681 329.022ZM66.9182 325.914H65.306V323.531H66.9182V322.783C66.9182 322.098 67.0273 321.459 67.2453 320.867C67.479 320.275 67.8061 319.753 68.2267 319.302C68.6628 318.834 69.1847 318.476 69.7922 318.227C70.4153 317.962 71.1162 317.83 71.8951 317.83C72.487 317.83 73.04 317.892 73.554 318.017C74.0836 318.141 74.5821 318.32 75.0494 318.554C75.5323 318.788 75.9918 319.052 76.428 319.348L75.1896 321.685C74.7846 321.327 74.3095 321.038 73.7643 320.82C73.2191 320.602 72.6661 320.493 72.1054 320.493C71.6536 320.493 71.272 320.595 70.9604 320.797C70.6489 321 70.4153 321.264 70.2595 321.591C70.1193 321.919 70.0492 322.277 70.0492 322.666V323.531H76.6149V335.12H73.4839V325.914H70.0492V335.12H66.9182V325.914ZM78.6093 331.498C78.6093 330.704 78.8274 330.011 79.2636 329.419C79.7153 328.811 80.3384 328.344 81.1328 328.017C81.9272 327.69 82.8385 327.526 83.8666 327.526C84.3806 327.526 84.9024 327.565 85.4321 327.643C85.9617 327.721 86.4212 327.846 86.8106 328.017V327.363C86.8106 326.584 86.577 325.984 86.1097 325.564C85.6579 325.143 84.9803 324.933 84.0769 324.933C83.407 324.933 82.7684 325.05 82.1609 325.283C81.5534 325.517 80.9147 325.86 80.2449 326.311L79.2402 324.255C80.0502 323.725 80.8758 323.328 81.7169 323.063C82.5737 322.799 83.4694 322.666 84.404 322.666C86.1486 322.666 87.5038 323.102 88.4696 323.975C89.4509 324.847 89.9416 326.093 89.9416 327.713V331.615C89.9416 331.942 89.9961 332.176 90.1051 332.316C90.2298 332.456 90.4245 332.542 90.6893 332.573V335.12C90.4089 335.167 90.1519 335.206 89.9182 335.237C89.7001 335.268 89.5132 335.284 89.3575 335.284C88.7344 335.284 88.2593 335.143 87.9322 334.863C87.6206 334.583 87.4259 334.24 87.348 333.835L87.2779 333.204C86.7483 333.889 86.0863 334.419 85.2919 334.793C84.4974 335.167 83.6874 335.354 82.8619 335.354C82.0519 335.354 81.3197 335.19 80.6655 334.863C80.0268 334.52 79.5206 334.061 79.1467 333.484C78.7885 332.893 78.6093 332.231 78.6093 331.498ZM86.2265 332.129C86.3978 331.942 86.538 331.755 86.6471 331.568C86.7561 331.382 86.8106 331.21 86.8106 331.054V329.816C86.4368 329.66 86.0318 329.543 85.5956 329.466C85.1595 329.372 84.7467 329.325 84.3572 329.325C83.5472 329.325 82.8774 329.505 82.3478 329.863C81.8338 330.206 81.5768 330.665 81.5768 331.241C81.5768 331.553 81.6624 331.849 81.8338 332.129C82.0051 332.41 82.2544 332.636 82.5815 332.807C82.9086 332.978 83.298 333.064 83.7497 333.064C84.2171 333.064 84.6766 332.978 85.1283 332.807C85.58 332.62 85.9461 332.394 86.2265 332.129ZM112.149 330.844C112.149 331.779 111.908 332.565 111.425 333.204C110.942 333.827 110.288 334.302 109.462 334.629C108.652 334.956 107.764 335.12 106.799 335.12H98.7843V318.531H107.663C108.442 318.531 109.112 318.741 109.673 319.161C110.249 319.566 110.685 320.096 110.981 320.75C111.293 321.389 111.448 322.059 111.448 322.76C111.448 323.554 111.246 324.31 110.841 325.026C110.436 325.743 109.844 326.272 109.065 326.615C110.015 326.895 110.763 327.402 111.308 328.134C111.869 328.866 112.149 329.769 112.149 330.844ZM108.902 330.237C108.902 329.816 108.816 329.442 108.645 329.115C108.473 328.772 108.24 328.508 107.944 328.321C107.663 328.118 107.336 328.017 106.962 328.017H102.009V332.386H106.799C107.188 332.386 107.539 332.293 107.85 332.106C108.177 331.903 108.434 331.639 108.621 331.311C108.808 330.984 108.902 330.626 108.902 330.237ZM102.009 321.288V325.47H106.308C106.666 325.47 106.993 325.384 107.289 325.213C107.585 325.042 107.819 324.8 107.99 324.489C108.177 324.177 108.271 323.803 108.271 323.367C108.271 322.947 108.185 322.581 108.014 322.269C107.858 321.958 107.64 321.716 107.359 321.545C107.095 321.373 106.791 321.288 106.448 321.288H102.009ZM113.521 331.498C113.521 330.704 113.739 330.011 114.175 329.419C114.627 328.811 115.25 328.344 116.044 328.017C116.839 327.69 117.75 327.526 118.778 327.526C119.292 327.526 119.814 327.565 120.343 327.643C120.873 327.721 121.332 327.846 121.722 328.017V327.363C121.722 326.584 121.488 325.984 121.021 325.564C120.569 325.143 119.892 324.933 118.988 324.933C118.318 324.933 117.68 325.05 117.072 325.283C116.465 325.517 115.826 325.86 115.156 326.311L114.151 324.255C114.961 323.725 115.787 323.328 116.628 323.063C117.485 322.799 118.381 322.666 119.315 322.666C121.06 322.666 122.415 323.102 123.381 323.975C124.362 324.847 124.853 326.093 124.853 327.713V331.615C124.853 331.942 124.907 332.176 125.016 332.316C125.141 332.456 125.336 332.542 125.601 332.573V335.12C125.32 335.167 125.063 335.206 124.829 335.237C124.611 335.268 124.424 335.284 124.269 335.284C123.646 335.284 123.171 335.143 122.843 334.863C122.532 334.583 122.337 334.24 122.259 333.835L122.189 333.204C121.66 333.889 120.998 334.419 120.203 334.793C119.409 335.167 118.599 335.354 117.773 335.354C116.963 335.354 116.231 335.19 115.577 334.863C114.938 334.52 114.432 334.061 114.058 333.484C113.7 332.893 113.521 332.231 113.521 331.498ZM121.138 332.129C121.309 331.942 121.449 331.755 121.558 331.568C121.667 331.382 121.722 331.21 121.722 331.054V329.816C121.348 329.66 120.943 329.543 120.507 329.466C120.071 329.372 119.658 329.325 119.269 329.325C118.459 329.325 117.789 329.505 117.259 329.863C116.745 330.206 116.488 330.665 116.488 331.241C116.488 331.553 116.574 331.849 116.745 332.129C116.916 332.41 117.166 332.636 117.493 332.807C117.82 332.978 118.209 333.064 118.661 333.064C119.128 333.064 119.588 332.978 120.04 332.807C120.491 332.62 120.857 332.394 121.138 332.129ZM132.288 335.354C131.245 335.354 130.248 335.182 129.297 334.84C128.347 334.497 127.529 333.991 126.844 333.321L127.966 331.288C128.698 331.88 129.414 332.316 130.115 332.597C130.832 332.877 131.517 333.017 132.171 333.017C132.779 333.017 133.262 332.908 133.62 332.69C133.994 332.472 134.181 332.145 134.181 331.709C134.181 331.413 134.08 331.187 133.877 331.031C133.675 330.86 133.379 330.712 132.989 330.587C132.615 330.463 132.156 330.322 131.611 330.167C130.707 329.871 129.952 329.582 129.344 329.302C128.737 329.022 128.277 328.671 127.966 328.251C127.67 327.814 127.522 327.261 127.522 326.592C127.522 325.782 127.724 325.088 128.129 324.512C128.55 323.92 129.126 323.461 129.858 323.134C130.606 322.806 131.478 322.643 132.475 322.643C133.347 322.643 134.173 322.783 134.952 323.063C135.731 323.328 136.439 323.764 137.078 324.372L135.816 326.358C135.193 325.875 134.601 325.525 134.041 325.307C133.48 325.073 132.911 324.956 132.335 324.956C132.008 324.956 131.696 324.995 131.4 325.073C131.12 325.151 130.886 325.283 130.699 325.47C130.528 325.641 130.442 325.891 130.442 326.218C130.442 326.514 130.52 326.747 130.676 326.919C130.847 327.075 131.097 327.215 131.424 327.339C131.766 327.464 132.179 327.604 132.662 327.76C133.643 328.04 134.469 328.328 135.139 328.624C135.824 328.92 136.338 329.286 136.681 329.723C137.024 330.143 137.195 330.727 137.195 331.475C137.195 332.69 136.751 333.64 135.863 334.326C134.975 335.011 133.784 335.354 132.288 335.354ZM146.593 334.489C146.328 334.598 146.009 334.723 145.635 334.863C145.261 335.003 144.856 335.112 144.42 335.19C143.999 335.284 143.571 335.33 143.135 335.33C142.558 335.33 142.029 335.229 141.546 335.027C141.063 334.824 140.674 334.505 140.378 334.069C140.097 333.617 139.957 333.033 139.957 332.316V325.283H138.345V322.877H139.957V318.904H143.088V322.877H145.658V325.283H143.088V331.265C143.104 331.685 143.22 331.989 143.438 332.176C143.657 332.363 143.929 332.456 144.256 332.456C144.583 332.456 144.903 332.402 145.214 332.293C145.526 332.184 145.775 332.09 145.962 332.012L146.593 334.489ZM153.741 335.354C152.744 335.354 151.848 335.19 151.054 334.863C150.259 334.52 149.582 334.053 149.021 333.461C148.476 332.869 148.055 332.192 147.759 331.428C147.463 330.665 147.315 329.863 147.315 329.022C147.315 328.165 147.463 327.355 147.759 326.592C148.055 325.828 148.476 325.151 149.021 324.559C149.582 323.967 150.259 323.507 151.054 323.18C151.848 322.838 152.744 322.666 153.741 322.666C154.738 322.666 155.626 322.838 156.405 323.18C157.199 323.507 157.877 323.967 158.437 324.559C158.998 325.151 159.419 325.828 159.699 326.592C159.995 327.355 160.143 328.165 160.143 329.022C160.143 329.863 159.995 330.665 159.699 331.428C159.419 332.192 158.998 332.869 158.437 333.461C157.892 334.053 157.222 334.52 156.428 334.863C155.634 335.19 154.738 335.354 153.741 335.354ZM150.54 329.022C150.54 329.738 150.68 330.377 150.96 330.938C151.241 331.483 151.622 331.911 152.105 332.223C152.588 332.534 153.133 332.69 153.741 332.69C154.333 332.69 154.87 332.534 155.353 332.223C155.836 331.896 156.218 331.459 156.498 330.914C156.794 330.353 156.942 329.715 156.942 328.998C156.942 328.297 156.794 327.666 156.498 327.106C156.218 326.545 155.836 326.109 155.353 325.797C154.87 325.486 154.333 325.33 153.741 325.33C153.133 325.33 152.588 325.493 152.105 325.821C151.622 326.132 151.241 326.568 150.96 327.129C150.68 327.674 150.54 328.305 150.54 329.022ZM166.766 335.354C165.722 335.354 164.725 335.182 163.775 334.84C162.825 334.497 162.007 333.991 161.322 333.321L162.443 331.288C163.175 331.88 163.892 332.316 164.593 332.597C165.309 332.877 165.995 333.017 166.649 333.017C167.257 333.017 167.739 332.908 168.098 332.69C168.472 332.472 168.659 332.145 168.659 331.709C168.659 331.413 168.557 331.187 168.355 331.031C168.152 330.86 167.856 330.712 167.467 330.587C167.093 330.463 166.634 330.322 166.088 330.167C165.185 329.871 164.429 329.582 163.822 329.302C163.214 329.022 162.755 328.671 162.443 328.251C162.147 327.814 161.999 327.261 161.999 326.592C161.999 325.782 162.202 325.088 162.607 324.512C163.027 323.92 163.604 323.461 164.336 323.134C165.084 322.806 165.956 322.643 166.953 322.643C167.825 322.643 168.651 322.783 169.43 323.063C170.208 323.328 170.917 323.764 171.556 324.372L170.294 326.358C169.671 325.875 169.079 325.525 168.518 325.307C167.958 325.073 167.389 324.956 166.813 324.956C166.486 324.956 166.174 324.995 165.878 325.073C165.598 325.151 165.364 325.283 165.177 325.47C165.006 325.641 164.92 325.891 164.92 326.218C164.92 326.514 164.998 326.747 165.154 326.919C165.325 327.075 165.574 327.215 165.901 327.339C166.244 327.464 166.657 327.604 167.14 327.76C168.121 328.04 168.947 328.328 169.616 328.624C170.302 328.92 170.816 329.286 171.159 329.723C171.501 330.143 171.673 330.727 171.673 331.475C171.673 332.69 171.229 333.64 170.341 334.326C169.453 335.011 168.261 335.354 166.766 335.354Z" fill="white"/>
</g>
<g opacity="0.7">
<g clip-path="url(#clip1_1361_2557)">
<path d="M231.126 327.648C231.126 335.186 225.13 341.269 217.768 341.269C210.406 341.269 204.409 335.186 204.409 327.648C204.409 320.109 210.406 314.027 217.768 314.027C225.13 314.027 231.126 320.109 231.126 327.648Z" stroke="white" stroke-width="1.81311"/>
<path d="M219.677 330.259H216.773C215.799 330.259 214.986 329.453 214.986 328.423V327.285C214.986 326.255 215.799 325.449 216.773 325.449H217.89C218.863 325.449 219.677 326.255 219.677 327.285V330.259Z" stroke="#D7FF01" stroke-width="1.72696" stroke-miterlimit="10" stroke-linecap="round" stroke-linejoin="round"/>
<path d="M217.212 330.558C224.687 331.781 224.687 327.879 224.687 327.879C225.019 323.831 221.812 320.162 217.611 320.162C213.41 320.162 210.007 323.628 210.007 327.906C210.007 332.184 213.41 335.65 217.611 335.65C219.412 335.65 221.07 335.011 222.376 333.943" stroke="#D7FF01" stroke-width="1.72696" stroke-miterlimit="10" stroke-linecap="round" stroke-linejoin="round"/>
</g>
<path d="M245.792 335.354C244.748 335.354 243.751 335.182 242.801 334.84C241.851 334.497 241.033 333.991 240.347 333.321L241.469 331.288C242.201 331.88 242.918 332.316 243.619 332.597C244.335 332.877 245.02 333.017 245.675 333.017C246.282 333.017 246.765 332.908 247.123 332.69C247.497 332.472 247.684 332.145 247.684 331.709C247.684 331.413 247.583 331.187 247.38 331.031C247.178 330.86 246.882 330.712 246.492 330.587C246.119 330.463 245.659 330.322 245.114 330.167C244.21 329.871 243.455 329.582 242.847 329.302C242.24 329.022 241.78 328.671 241.469 328.251C241.173 327.814 241.025 327.261 241.025 326.592C241.025 325.782 241.227 325.088 241.632 324.512C242.053 323.92 242.629 323.461 243.362 323.134C244.109 322.806 244.982 322.643 245.978 322.643C246.851 322.643 247.676 322.783 248.455 323.063C249.234 323.328 249.943 323.764 250.581 324.372L249.32 326.358C248.697 325.875 248.105 325.525 247.544 325.307C246.983 325.073 246.415 324.956 245.838 324.956C245.511 324.956 245.2 324.995 244.904 325.073C244.623 325.151 244.39 325.283 244.203 325.47C244.031 325.641 243.946 325.891 243.946 326.218C243.946 326.514 244.024 326.747 244.179 326.919C244.351 327.075 244.6 327.215 244.927 327.339C245.27 327.464 245.682 327.604 246.165 327.76C247.147 328.04 247.972 328.328 248.642 328.624C249.327 328.92 249.842 329.286 250.184 329.723C250.527 330.143 250.698 330.727 250.698 331.475C250.698 332.69 250.254 333.64 249.366 334.326C248.479 335.011 247.287 335.354 245.792 335.354ZM258.482 335.354C257.485 335.354 256.59 335.19 255.795 334.863C255.001 334.52 254.323 334.053 253.762 333.461C253.217 332.869 252.797 332.192 252.501 331.428C252.205 330.665 252.057 329.863 252.057 329.022C252.057 328.165 252.205 327.355 252.501 326.592C252.797 325.828 253.217 325.151 253.762 324.559C254.323 323.967 255.001 323.507 255.795 323.18C256.59 322.838 257.485 322.666 258.482 322.666C259.479 322.666 260.367 322.838 261.146 323.18C261.94 323.507 262.618 323.967 263.179 324.559C263.739 325.151 264.16 325.828 264.44 326.592C264.736 327.355 264.884 328.165 264.884 329.022C264.884 329.863 264.736 330.665 264.44 331.428C264.16 332.192 263.739 332.869 263.179 333.461C262.634 334.053 261.964 334.52 261.169 334.863C260.375 335.19 259.479 335.354 258.482 335.354ZM255.281 329.022C255.281 329.738 255.421 330.377 255.702 330.938C255.982 331.483 256.364 331.911 256.847 332.223C257.33 332.534 257.875 332.69 258.482 332.69C259.074 332.69 259.612 332.534 260.094 332.223C260.577 331.896 260.959 331.459 261.239 330.914C261.535 330.353 261.683 329.715 261.683 328.998C261.683 328.297 261.535 327.666 261.239 327.106C260.959 326.545 260.577 326.109 260.094 325.797C259.612 325.486 259.074 325.33 258.482 325.33C257.875 325.33 257.33 325.493 256.847 325.821C256.364 326.132 255.982 326.568 255.702 327.129C255.421 327.674 255.281 328.305 255.281 329.022ZM267.631 325.914H266.019V323.531H267.631V322.783C267.631 322.098 267.74 321.459 267.958 320.867C268.192 320.275 268.519 319.753 268.94 319.302C269.376 318.834 269.898 318.476 270.505 318.227C271.128 317.962 271.829 317.83 272.608 317.83C273.2 317.83 273.753 317.892 274.267 318.017C274.797 318.141 275.295 318.32 275.762 318.554C276.245 318.788 276.705 319.052 277.141 319.348L275.903 321.685C275.498 321.327 275.023 321.038 274.477 320.82C273.932 320.602 273.379 320.493 272.818 320.493C272.367 320.493 271.985 320.595 271.673 320.797C271.362 321 271.128 321.264 270.973 321.591C270.832 321.919 270.762 322.277 270.762 322.666V323.531H277.328V335.12H274.197V325.914H270.762V335.12H267.631V325.914ZM279.322 331.498C279.322 330.704 279.54 330.011 279.977 329.419C280.428 328.811 281.051 328.344 281.846 328.017C282.64 327.69 283.552 327.526 284.58 327.526C285.094 327.526 285.615 327.565 286.145 327.643C286.675 327.721 287.134 327.846 287.524 328.017V327.363C287.524 326.584 287.29 325.984 286.823 325.564C286.371 325.143 285.693 324.933 284.79 324.933C284.12 324.933 283.481 325.05 282.874 325.283C282.266 325.517 281.628 325.86 280.958 326.311L279.953 324.255C280.763 323.725 281.589 323.328 282.43 323.063C283.287 322.799 284.182 322.666 285.117 322.666C286.862 322.666 288.217 323.102 289.183 323.975C290.164 324.847 290.655 326.093 290.655 327.713V331.615C290.655 331.942 290.709 332.176 290.818 332.316C290.943 332.456 291.138 332.542 291.402 332.573V335.12C291.122 335.167 290.865 335.206 290.631 335.237C290.413 335.268 290.226 335.284 290.071 335.284C289.447 335.284 288.972 335.143 288.645 334.863C288.334 334.583 288.139 334.24 288.061 333.835L287.991 333.204C287.461 333.889 286.799 334.419 286.005 334.793C285.21 335.167 284.4 335.354 283.575 335.354C282.765 335.354 282.033 335.19 281.379 334.863C280.74 334.52 280.234 334.061 279.86 333.484C279.502 332.893 279.322 332.231 279.322 331.498ZM286.94 332.129C287.111 331.942 287.251 331.755 287.36 331.568C287.469 331.382 287.524 331.21 287.524 331.054V329.816C287.15 329.66 286.745 329.543 286.309 329.466C285.873 329.372 285.46 329.325 285.07 329.325C284.26 329.325 283.59 329.505 283.061 329.863C282.547 330.206 282.29 330.665 282.29 331.241C282.29 331.553 282.375 331.849 282.547 332.129C282.718 332.41 282.967 332.636 283.295 332.807C283.622 332.978 284.011 333.064 284.463 333.064C284.93 333.064 285.39 332.978 285.841 332.807C286.293 332.62 286.659 332.394 286.94 332.129ZM296.441 335.12L291.932 322.877H295.18L298.264 332.269L301.372 322.877H304.339L299.853 335.12H296.441ZM312.956 335.354C312.022 335.354 311.188 335.143 310.456 334.723C309.724 334.302 309.148 333.726 308.727 332.994V335.12H305.993V318.063H309.124V325.026C309.56 324.294 310.129 323.718 310.83 323.297C311.547 322.877 312.38 322.666 313.33 322.666C314.125 322.666 314.849 322.838 315.503 323.18C316.157 323.507 316.718 323.967 317.185 324.559C317.668 325.151 318.034 325.828 318.284 326.592C318.548 327.355 318.681 328.173 318.681 329.045C318.681 329.917 318.533 330.735 318.237 331.498C317.956 332.262 317.559 332.939 317.045 333.531C316.531 334.108 315.924 334.559 315.223 334.886C314.537 335.198 313.782 335.354 312.956 335.354ZM312.092 332.69C312.59 332.69 313.042 332.597 313.447 332.41C313.867 332.207 314.226 331.942 314.522 331.615C314.833 331.288 315.067 330.906 315.223 330.47C315.394 330.019 315.48 329.551 315.48 329.068C315.48 328.399 315.34 327.783 315.059 327.223C314.794 326.646 314.42 326.187 313.938 325.844C313.47 325.501 312.917 325.33 312.279 325.33C311.827 325.33 311.391 325.439 310.97 325.657C310.565 325.86 310.199 326.14 309.872 326.498C309.56 326.856 309.311 327.261 309.124 327.713V330.634C309.218 330.945 309.366 331.226 309.568 331.475C309.786 331.724 310.036 331.942 310.316 332.129C310.596 332.301 310.884 332.441 311.18 332.55C311.492 332.643 311.796 332.69 312.092 332.69ZM319.961 331.498C319.961 330.704 320.179 330.011 320.615 329.419C321.067 328.811 321.69 328.344 322.484 328.017C323.279 327.69 324.19 327.526 325.218 327.526C325.732 327.526 326.254 327.565 326.784 327.643C327.313 327.721 327.773 327.846 328.162 328.017V327.363C328.162 326.584 327.929 325.984 327.461 325.564C327.01 325.143 326.332 324.933 325.428 324.933C324.759 324.933 324.12 325.05 323.512 325.283C322.905 325.517 322.266 325.86 321.597 326.311L320.592 324.255C321.402 323.725 322.227 323.328 323.069 323.063C323.925 322.799 324.821 322.666 325.756 322.666C327.5 322.666 328.855 323.102 329.821 323.975C330.803 324.847 331.293 326.093 331.293 327.713V331.615C331.293 331.942 331.348 332.176 331.457 332.316C331.581 332.456 331.776 332.542 332.041 332.573V335.12C331.76 335.167 331.503 335.206 331.27 335.237C331.052 335.268 330.865 335.284 330.709 335.284C330.086 335.284 329.611 335.143 329.284 334.863C328.972 334.583 328.778 334.24 328.7 333.835L328.63 333.204C328.1 333.889 327.438 334.419 326.643 334.793C325.849 335.167 325.039 335.354 324.213 335.354C323.403 335.354 322.671 335.19 322.017 334.863C321.378 334.52 320.872 334.061 320.498 333.484C320.14 332.893 319.961 332.231 319.961 331.498ZM327.578 332.129C327.749 331.942 327.89 331.755 327.999 331.568C328.108 331.382 328.162 331.21 328.162 331.054V329.816C327.788 329.66 327.383 329.543 326.947 329.466C326.511 329.372 326.098 329.325 325.709 329.325C324.899 329.325 324.229 329.505 323.699 329.863C323.185 330.206 322.928 330.665 322.928 331.241C322.928 331.553 323.014 331.849 323.185 332.129C323.357 332.41 323.606 332.636 323.933 332.807C324.26 332.978 324.65 333.064 325.101 333.064C325.569 333.064 326.028 332.978 326.48 332.807C326.932 332.62 327.298 332.394 327.578 332.129ZM338.729 335.354C337.685 335.354 336.688 335.182 335.738 334.84C334.788 334.497 333.97 333.991 333.284 333.321L334.406 331.288C335.138 331.88 335.855 332.316 336.556 332.597C337.272 332.877 337.957 333.017 338.612 333.017C339.219 333.017 339.702 332.908 340.06 332.69C340.434 332.472 340.621 332.145 340.621 331.709C340.621 331.413 340.52 331.187 340.317 331.031C340.115 330.86 339.819 330.712 339.429 330.587C339.056 330.463 338.596 330.322 338.051 330.167C337.147 329.871 336.392 329.582 335.784 329.302C335.177 329.022 334.717 328.671 334.406 328.251C334.11 327.814 333.962 327.261 333.962 326.592C333.962 325.782 334.164 325.088 334.569 324.512C334.99 323.92 335.566 323.461 336.298 323.134C337.046 322.806 337.919 322.643 338.915 322.643C339.788 322.643 340.613 322.783 341.392 323.063C342.171 323.328 342.88 323.764 343.518 324.372L342.257 326.358C341.634 325.875 341.042 325.525 340.481 325.307C339.92 325.073 339.352 324.956 338.775 324.956C338.448 324.956 338.137 324.995 337.841 325.073C337.56 325.151 337.327 325.283 337.14 325.47C336.968 325.641 336.883 325.891 336.883 326.218C336.883 326.514 336.961 326.747 337.116 326.919C337.288 327.075 337.537 327.215 337.864 327.339C338.207 327.464 338.619 327.604 339.102 327.76C340.084 328.04 340.909 328.328 341.579 328.624C342.264 328.92 342.779 329.286 343.121 329.723C343.464 330.143 343.635 330.727 343.635 331.475C343.635 332.69 343.191 333.64 342.303 334.326C341.416 335.011 340.224 335.354 338.729 335.354ZM353.033 334.489C352.768 334.598 352.449 334.723 352.075 334.863C351.701 335.003 351.296 335.112 350.86 335.19C350.44 335.284 350.011 335.33 349.575 335.33C348.999 335.33 348.469 335.229 347.986 335.027C347.503 334.824 347.114 334.505 346.818 334.069C346.537 333.617 346.397 333.033 346.397 332.316V325.283H344.785V322.877H346.397V318.904H349.528V322.877H352.098V325.283H349.528V331.265C349.544 331.685 349.661 331.989 349.879 332.176C350.097 332.363 350.369 332.456 350.697 332.456C351.024 332.456 351.343 332.402 351.655 332.293C351.966 332.184 352.215 332.09 352.402 332.012L353.033 334.489ZM360.181 335.354C359.184 335.354 358.289 335.19 357.494 334.863C356.7 334.52 356.022 334.053 355.461 333.461C354.916 332.869 354.496 332.192 354.2 331.428C353.904 330.665 353.756 329.863 353.756 329.022C353.756 328.165 353.904 327.355 354.2 326.592C354.496 325.828 354.916 325.151 355.461 324.559C356.022 323.967 356.7 323.507 357.494 323.18C358.289 322.838 359.184 322.666 360.181 322.666C361.178 322.666 362.066 322.838 362.845 323.18C363.639 323.507 364.317 323.967 364.878 324.559C365.438 325.151 365.859 325.828 366.139 326.592C366.435 327.355 366.583 328.165 366.583 329.022C366.583 329.863 366.435 330.665 366.139 331.428C365.859 332.192 365.438 332.869 364.878 333.461C364.333 334.053 363.663 334.52 362.868 334.863C362.074 335.19 361.178 335.354 360.181 335.354ZM356.98 329.022C356.98 329.738 357.12 330.377 357.401 330.938C357.681 331.483 358.063 331.911 358.546 332.223C359.029 332.534 359.574 332.69 360.181 332.69C360.773 332.69 361.311 332.534 361.793 332.223C362.276 331.896 362.658 331.459 362.938 330.914C363.234 330.353 363.382 329.715 363.382 328.998C363.382 328.297 363.234 327.666 362.938 327.106C362.658 326.545 362.276 326.109 361.793 325.797C361.311 325.486 360.773 325.33 360.181 325.33C359.574 325.33 359.029 325.493 358.546 325.821C358.063 326.132 357.681 326.568 357.401 327.129C357.12 327.674 356.98 328.305 356.98 329.022ZM373.206 335.354C372.163 335.354 371.166 335.182 370.215 334.84C369.265 334.497 368.447 333.991 367.762 333.321L368.884 331.288C369.616 331.88 370.332 332.316 371.033 332.597C371.75 332.877 372.435 333.017 373.089 333.017C373.697 333.017 374.18 332.908 374.538 332.69C374.912 332.472 375.099 332.145 375.099 331.709C375.099 331.413 374.998 331.187 374.795 331.031C374.593 330.86 374.297 330.712 373.907 330.587C373.533 330.463 373.074 330.322 372.529 330.167C371.625 329.871 370.87 329.582 370.262 329.302C369.655 329.022 369.195 328.671 368.884 328.251C368.588 327.814 368.44 327.261 368.44 326.592C368.44 325.782 368.642 325.088 369.047 324.512C369.468 323.92 370.044 323.461 370.776 323.134C371.524 322.806 372.396 322.643 373.393 322.643C374.265 322.643 375.091 322.783 375.87 323.063C376.649 323.328 377.357 323.764 377.996 324.372L376.734 326.358C376.111 325.875 375.519 325.525 374.959 325.307C374.398 325.073 373.829 324.956 373.253 324.956C372.926 324.956 372.614 324.995 372.318 325.073C372.038 325.151 371.804 325.283 371.617 325.47C371.446 325.641 371.36 325.891 371.36 326.218C371.36 326.514 371.438 326.747 371.594 326.919C371.765 327.075 372.015 327.215 372.342 327.339C372.684 327.464 373.097 327.604 373.58 327.76C374.561 328.04 375.387 328.328 376.057 328.624C376.742 328.92 377.256 329.286 377.599 329.723C377.942 330.143 378.113 330.727 378.113 331.475C378.113 332.69 377.669 333.64 376.781 334.326C375.893 335.011 374.702 335.354 373.206 335.354ZM388.677 321.031C389.83 321.031 390.928 321.225 391.972 321.615C393.016 321.989 393.942 322.557 394.752 323.32C395.578 324.068 396.224 325.003 396.692 326.124C397.159 327.23 397.393 328.5 397.393 329.933C397.393 330.198 397.369 330.556 397.323 331.008C397.292 331.459 397.214 331.942 397.089 332.456C396.964 332.97 396.77 333.461 396.505 333.928C396.256 334.38 395.905 334.754 395.453 335.05C395.017 335.346 394.464 335.494 393.794 335.494C393.234 335.494 392.798 335.393 392.486 335.19C392.19 335.003 391.972 334.762 391.832 334.466C391.707 334.17 391.621 333.874 391.575 333.578C391.092 334.061 390.508 334.45 389.822 334.746C389.137 335.027 388.397 335.167 387.603 335.167C386.45 335.167 385.562 334.863 384.939 334.256C384.331 333.632 384.028 332.846 384.028 331.896C384.028 331.039 384.238 330.369 384.659 329.886C385.095 329.388 385.648 329.029 386.318 328.811C387.003 328.593 387.696 328.484 388.397 328.484C389.02 328.484 389.558 328.547 390.009 328.671C390.461 328.78 390.804 328.889 391.037 328.998C391.037 328.438 390.959 327.939 390.804 327.503C390.664 327.067 390.399 326.732 390.009 326.498C389.62 326.249 389.075 326.124 388.374 326.124C387.735 326.124 387.151 326.218 386.621 326.405C386.092 326.592 385.64 326.841 385.266 327.152L384.659 325.493C385.235 325.104 385.858 324.816 386.528 324.629C387.213 324.426 387.93 324.325 388.677 324.325C389.69 324.325 390.484 324.481 391.061 324.793C391.637 325.088 392.05 325.486 392.299 325.984C392.564 326.467 392.727 326.997 392.79 327.573C392.868 328.134 392.907 328.679 392.907 329.209V331.452C392.907 331.903 392.93 332.332 392.977 332.737C393.023 333.142 393.132 333.469 393.304 333.718C393.475 333.967 393.74 334.092 394.098 334.092C394.519 334.092 394.862 333.944 395.126 333.648C395.391 333.336 395.594 332.947 395.734 332.48C395.874 332.012 395.967 331.545 396.014 331.078C396.061 330.595 396.084 330.198 396.084 329.886C396.084 328.796 395.905 327.791 395.547 326.872C395.189 325.937 394.675 325.127 394.005 324.442C393.335 323.757 392.541 323.227 391.621 322.853C390.718 322.479 389.706 322.292 388.584 322.292C387.494 322.292 386.489 322.479 385.57 322.853C384.651 323.211 383.856 323.725 383.187 324.395C382.532 325.065 382.018 325.86 381.644 326.779C381.286 327.682 381.107 328.671 381.107 329.746C381.107 330.79 381.278 331.771 381.621 332.69C381.964 333.593 382.447 334.388 383.07 335.073C383.708 335.759 384.472 336.296 385.36 336.686C386.247 337.075 387.237 337.27 388.327 337.27C389.059 337.27 389.706 337.184 390.266 337.013C390.827 336.841 391.396 336.631 391.972 336.382L392.346 337.597C391.707 337.908 391.037 338.142 390.336 338.298C389.651 338.454 388.966 338.531 388.28 338.531C387.112 338.531 386.014 338.321 384.986 337.901C383.958 337.48 383.054 336.88 382.275 336.101C381.512 335.323 380.905 334.396 380.453 333.321C380.017 332.246 379.799 331.054 379.799 329.746C379.799 328.36 380.04 327.129 380.523 326.054C381.006 324.964 381.66 324.053 382.486 323.32C383.311 322.573 384.254 322.004 385.313 321.615C386.388 321.225 387.509 321.031 388.677 321.031ZM389.822 333.087C390.103 332.947 390.329 332.791 390.5 332.62C390.687 332.433 390.819 332.238 390.897 332.036C390.975 331.818 391.014 331.592 391.014 331.358V330.47C390.796 330.408 390.453 330.315 389.986 330.19C389.519 330.05 388.989 329.98 388.397 329.98C387.914 329.98 387.486 330.042 387.112 330.167C386.738 330.276 386.442 330.47 386.224 330.751C386.006 331.031 385.897 331.389 385.897 331.826C385.897 332.184 385.975 332.495 386.131 332.76C386.286 333.009 386.504 333.204 386.785 333.344C387.065 333.484 387.4 333.555 387.79 333.555C388.101 333.555 388.444 333.516 388.818 333.438C389.191 333.36 389.526 333.243 389.822 333.087ZM405.634 335.354C404.637 335.354 403.742 335.19 402.947 334.863C402.153 334.52 401.475 334.053 400.915 333.461C400.369 332.869 399.949 332.192 399.653 331.428C399.357 330.665 399.209 329.863 399.209 329.022C399.209 328.165 399.357 327.355 399.653 326.592C399.949 325.828 400.369 325.151 400.915 324.559C401.475 323.967 402.153 323.507 402.947 323.18C403.742 322.838 404.637 322.666 405.634 322.666C406.631 322.666 407.519 322.838 408.298 323.18C409.092 323.507 409.77 323.967 410.331 324.559C410.892 325.151 411.312 325.828 411.593 326.592C411.889 327.355 412.037 328.165 412.037 329.022C412.037 329.863 411.889 330.665 411.593 331.428C411.312 332.192 410.892 332.869 410.331 333.461C409.786 334.053 409.116 334.52 408.321 334.863C407.527 335.19 406.631 335.354 405.634 335.354ZM402.433 329.022C402.433 329.738 402.573 330.377 402.854 330.938C403.134 331.483 403.516 331.911 403.999 332.223C404.482 332.534 405.027 332.69 405.634 332.69C406.226 332.69 406.764 332.534 407.247 332.223C407.729 331.896 408.111 331.459 408.391 330.914C408.687 330.353 408.835 329.715 408.835 328.998C408.835 328.297 408.687 327.666 408.391 327.106C408.111 326.545 407.729 326.109 407.247 325.797C406.764 325.486 406.226 325.33 405.634 325.33C405.027 325.33 404.482 325.493 403.999 325.821C403.516 326.132 403.134 326.568 402.854 327.129C402.573 327.674 402.433 328.305 402.433 329.022ZM414.033 330.54V322.877H417.164V329.863C417.164 330.797 417.335 331.506 417.678 331.989C418.021 332.456 418.527 332.69 419.197 332.69C419.602 332.69 419.999 332.612 420.388 332.456C420.793 332.285 421.159 332.036 421.487 331.709C421.829 331.382 422.117 330.969 422.351 330.47V322.877H425.482V331.615C425.482 331.942 425.537 332.176 425.646 332.316C425.77 332.456 425.965 332.542 426.23 332.573V335.12C425.918 335.167 425.653 335.198 425.435 335.214C425.233 335.245 425.046 335.26 424.875 335.26C424.314 335.26 423.854 335.136 423.496 334.886C423.153 334.622 422.951 334.263 422.888 333.812L422.818 332.83C422.273 333.656 421.572 334.287 420.715 334.723C419.859 335.143 418.916 335.354 417.888 335.354C416.627 335.354 415.669 334.949 415.014 334.139C414.36 333.313 414.033 332.114 414.033 330.54ZM435.885 334.489C435.62 334.598 435.3 334.723 434.927 334.863C434.553 335.003 434.148 335.112 433.712 335.19C433.291 335.284 432.863 335.33 432.427 335.33C431.85 335.33 431.321 335.229 430.838 335.027C430.355 334.824 429.965 334.505 429.669 334.069C429.389 333.617 429.249 333.033 429.249 332.316V325.283H427.637V322.877H429.249V318.904H432.38V322.877H434.95V325.283H432.38V331.265C432.395 331.685 432.512 331.989 432.73 332.176C432.948 332.363 433.221 332.456 433.548 332.456C433.875 332.456 434.195 332.402 434.506 332.293C434.818 332.184 435.067 332.09 435.254 332.012L435.885 334.489ZM437.492 318.063H440.623V331.195C440.623 331.755 440.716 332.137 440.903 332.34C441.09 332.526 441.347 332.62 441.674 332.62C441.924 332.62 442.181 332.589 442.445 332.526C442.71 332.464 442.944 332.386 443.146 332.293L443.567 334.676C443.146 334.879 442.656 335.034 442.095 335.143C441.534 335.252 441.028 335.307 440.576 335.307C439.595 335.307 438.832 335.05 438.286 334.536C437.757 334.006 437.492 333.259 437.492 332.293V318.063ZM450.585 335.354C449.589 335.354 448.693 335.19 447.898 334.863C447.104 334.52 446.426 334.053 445.866 333.461C445.32 332.869 444.9 332.192 444.604 331.428C444.308 330.665 444.16 329.863 444.16 329.022C444.16 328.165 444.308 327.355 444.604 326.592C444.9 325.828 445.32 325.151 445.866 324.559C446.426 323.967 447.104 323.507 447.898 323.18C448.693 322.838 449.589 322.666 450.585 322.666C451.582 322.666 452.47 322.838 453.249 323.18C454.044 323.507 454.721 323.967 455.282 324.559C455.843 325.151 456.263 325.828 456.544 326.592C456.84 327.355 456.988 328.165 456.988 329.022C456.988 329.863 456.84 330.665 456.544 331.428C456.263 332.192 455.843 332.869 455.282 333.461C454.737 334.053 454.067 334.52 453.273 334.863C452.478 335.19 451.582 335.354 450.585 335.354ZM447.384 329.022C447.384 329.738 447.525 330.377 447.805 330.938C448.085 331.483 448.467 331.911 448.95 332.223C449.433 332.534 449.978 332.69 450.585 332.69C451.177 332.69 451.715 332.534 452.198 332.223C452.681 331.896 453.062 331.459 453.343 330.914C453.639 330.353 453.787 329.715 453.787 328.998C453.787 328.297 453.639 327.666 453.343 327.106C453.062 326.545 452.681 326.109 452.198 325.797C451.715 325.486 451.177 325.33 450.585 325.33C449.978 325.33 449.433 325.493 448.95 325.821C448.467 326.132 448.085 326.568 447.805 327.129C447.525 327.674 447.384 328.305 447.384 329.022ZM464.755 335.354C463.758 335.354 462.863 335.19 462.068 334.863C461.274 334.52 460.596 334.053 460.036 333.461C459.49 332.869 459.07 332.192 458.774 331.428C458.478 330.665 458.33 329.863 458.33 329.022C458.33 328.165 458.478 327.355 458.774 326.592C459.07 325.828 459.49 325.151 460.036 324.559C460.596 323.967 461.274 323.507 462.068 323.18C462.863 322.838 463.758 322.666 464.755 322.666C465.752 322.666 466.64 322.838 467.419 323.18C468.213 323.507 468.891 323.967 469.452 324.559C470.013 325.151 470.433 325.828 470.714 326.592C471.009 327.355 471.157 328.165 471.157 329.022C471.157 329.863 471.009 330.665 470.714 331.428C470.433 332.192 470.013 332.869 469.452 333.461C468.907 334.053 468.237 334.52 467.442 334.863C466.648 335.19 465.752 335.354 464.755 335.354ZM461.554 329.022C461.554 329.738 461.694 330.377 461.975 330.938C462.255 331.483 462.637 331.911 463.12 332.223C463.603 332.534 464.148 332.69 464.755 332.69C465.347 332.69 465.885 332.534 466.368 332.223C466.85 331.896 467.232 331.459 467.512 330.914C467.808 330.353 467.956 329.715 467.956 328.998C467.956 328.297 467.808 327.666 467.512 327.106C467.232 326.545 466.85 326.109 466.368 325.797C465.885 325.486 465.347 325.33 464.755 325.33C464.148 325.33 463.603 325.493 463.12 325.821C462.637 326.132 462.255 326.568 461.975 327.129C461.694 327.674 461.554 328.305 461.554 329.022ZM481.636 335.12L478.061 329.839L476.402 331.475V335.12H473.271V318.063H476.402V328.391L481.332 322.9H484.65L480.093 328.087L484.977 335.12H481.636ZM486.23 335.12V331.755H488.8V335.12H486.23ZM496.998 335.354C496.001 335.354 495.105 335.19 494.311 334.863C493.517 334.52 492.839 334.053 492.278 333.461C491.717 332.854 491.281 332.168 490.97 331.405C490.674 330.642 490.526 329.839 490.526 328.998C490.526 327.846 490.783 326.794 491.297 325.844C491.826 324.878 492.574 324.107 493.54 323.531C494.506 322.954 495.651 322.666 496.975 322.666C498.299 322.666 499.436 322.954 500.386 323.531C501.336 324.107 502.045 324.863 502.512 325.797L499.451 326.732C499.187 326.28 498.836 325.937 498.4 325.704C497.964 325.455 497.481 325.33 496.951 325.33C496.359 325.33 495.814 325.486 495.316 325.797C494.833 326.093 494.451 326.522 494.171 327.082C493.89 327.628 493.75 328.266 493.75 328.998C493.75 329.715 493.89 330.353 494.171 330.914C494.467 331.459 494.856 331.896 495.339 332.223C495.822 332.534 496.359 332.69 496.951 332.69C497.325 332.69 497.676 332.628 498.003 332.503C498.345 332.378 498.649 332.207 498.914 331.989C499.179 331.771 499.374 331.522 499.498 331.241L502.559 332.176C502.279 332.783 501.866 333.329 501.321 333.812C500.791 334.294 500.16 334.676 499.428 334.956C498.711 335.221 497.901 335.354 496.998 335.354ZM510.026 335.354C509.029 335.354 508.133 335.19 507.339 334.863C506.544 334.52 505.867 334.053 505.306 333.461C504.761 332.869 504.34 332.192 504.044 331.428C503.748 330.665 503.6 329.863 503.6 329.022C503.6 328.165 503.748 327.355 504.044 326.592C504.34 325.828 504.761 325.151 505.306 324.559C505.867 323.967 506.544 323.507 507.339 323.18C508.133 322.838 509.029 322.666 510.026 322.666C511.023 322.666 511.911 322.838 512.69 323.18C513.484 323.507 514.162 323.967 514.722 324.559C515.283 325.151 515.704 325.828 515.984 326.592C516.28 327.355 516.428 328.165 516.428 329.022C516.428 329.863 516.28 330.665 515.984 331.428C515.704 332.192 515.283 332.869 514.722 333.461C514.177 334.053 513.507 334.52 512.713 334.863C511.919 335.19 511.023 335.354 510.026 335.354ZM506.825 329.022C506.825 329.738 506.965 330.377 507.245 330.938C507.526 331.483 507.907 331.911 508.39 332.223C508.873 332.534 509.418 332.69 510.026 332.69C510.618 332.69 511.155 332.534 511.638 332.223C512.121 331.896 512.503 331.459 512.783 330.914C513.079 330.353 513.227 329.715 513.227 328.998C513.227 328.297 513.079 327.666 512.783 327.106C512.503 326.545 512.121 326.109 511.638 325.797C511.155 325.486 510.618 325.33 510.026 325.33C509.418 325.33 508.873 325.493 508.39 325.821C507.907 326.132 507.526 326.568 507.245 327.129C506.965 327.674 506.825 328.305 506.825 329.022ZM537.561 335.12H534.43V328.251C534.43 327.285 534.259 326.576 533.916 326.124C533.589 325.657 533.129 325.423 532.537 325.423C531.93 325.423 531.346 325.665 530.785 326.148C530.24 326.615 529.85 327.23 529.617 327.994V335.12H526.486V328.251C526.486 327.269 526.314 326.553 525.972 326.101C525.644 325.649 525.185 325.423 524.593 325.423C523.986 325.423 523.401 325.657 522.841 326.124C522.295 326.592 521.906 327.207 521.672 327.97V335.12H518.541V322.877H521.369V325.143C521.836 324.349 522.459 323.741 523.238 323.32C524.017 322.884 524.912 322.666 525.925 322.666C526.937 322.666 527.724 322.915 528.285 323.414C528.861 323.912 529.227 324.528 529.383 325.26C529.881 324.419 530.512 323.78 531.276 323.344C532.054 322.892 532.927 322.666 533.892 322.666C534.656 322.666 535.271 322.806 535.738 323.087C536.221 323.352 536.595 323.718 536.86 324.185C537.125 324.637 537.304 325.151 537.397 325.727C537.506 326.303 537.561 326.888 537.561 327.48V335.12Z" fill="white"/>
</g>
</g>
<defs>
<linearGradient id="paint0_linear_1361_2557" x1="1487.71" y1="56.19" x2="1403.94" y2="56.2607" gradientUnits="userSpaceOnUse">
<stop stop-color="white"/>
<stop offset="1" stop-color="#C6C6C6" stop-opacity="0.8"/>
</linearGradient>
<linearGradient id="paint1_linear_1361_2557" x1="1578.15" y1="49.4648" x2="1493.97" y2="49.4647" gradientUnits="userSpaceOnUse">
<stop stop-color="#819901"/>
<stop offset="1" stop-color="#D7FF01"/>
</linearGradient>
<linearGradient id="paint2_linear_1361_2557" x1="1495.05" y1="140.213" x2="1576.89" y2="140.4" gradientUnits="userSpaceOnUse">
<stop stop-color="#D7FF01"/>
<stop offset="1" stop-color="#819901"/>
</linearGradient>
<linearGradient id="paint3_linear_1361_2557" x1="48.5694" y1="98.9265" x2="48.5693" y2="-5.5039e-06" gradientUnits="userSpaceOnUse">
<stop stop-color="#990DCE"/>
<stop offset="1" stop-color="#4D0768"/>
</linearGradient>
<linearGradient id="paint4_linear_1361_2557" x1="1472.98" y1="346.398" x2="1401.36" y2="346.398" gradientUnits="userSpaceOnUse">
<stop stop-color="#990DCE"/>
<stop offset="1" stop-color="#4D0768"/>
</linearGradient>
<linearGradient id="paint5_linear_1361_2557" x1="1437.22" y1="284.081" x2="1437.22" y2="198.353" gradientUnits="userSpaceOnUse">
<stop stop-color="#990DCE"/>
<stop offset="1" stop-color="#4D0768"/>
</linearGradient>
<linearGradient id="paint6_linear_1361_2557" x1="0" y1="49.4633" x2="97.1387" y2="49.4633" gradientUnits="userSpaceOnUse">
<stop stop-color="#D7FF01"/>
<stop offset="1" stop-color="#819901"/>
</linearGradient>
<linearGradient id="paint7_linear_1361_2557" x1="1492.69" y1="338.954" x2="1575.28" y2="339.116" gradientUnits="userSpaceOnUse">
<stop stop-color="white"/>
<stop offset="1" stop-color="#C6C6C6" stop-opacity="0.8"/>
</linearGradient>
<linearGradient id="paint8_linear_1361_2557" x1="1243.06" y1="312.511" x2="1242.86" y2="395.863" gradientUnits="userSpaceOnUse">
<stop stop-color="#D7FF01"/>
<stop offset="1" stop-color="#819901"/>
</linearGradient>
<linearGradient id="paint9_linear_1361_2557" x1="97.1387" y1="49.4633" x2="0" y2="49.4633" gradientUnits="userSpaceOnUse">
<stop stop-color="#990DCE"/>
<stop offset="1" stop-color="#4D0768"/>
</linearGradient>
<linearGradient id="paint10_linear_1361_2557" x1="1049.48" y1="312.265" x2="1049.48" y2="382.38" gradientUnits="userSpaceOnUse">
<stop stop-color="white"/>
<stop offset="1" stop-color="#C6C6C6" stop-opacity="0.8"/>
</linearGradient>
<linearGradient id="paint11_linear_1361_2557" x1="1145.43" y1="311.518" x2="1145.75" y2="396.058" gradientUnits="userSpaceOnUse">
<stop stop-color="white"/>
<stop offset="1" stop-color="#C6C6C6"/>
</linearGradient>
<linearGradient id="paint12_linear_1361_2557" x1="1340.4" y1="284.122" x2="1340.38" y2="212.306" gradientUnits="userSpaceOnUse">
<stop stop-color="#D7FF01"/>
<stop offset="1" stop-color="#819901"/>
</linearGradient>
<linearGradient id="paint13_linear_1361_2557" x1="1304.68" y1="149.789" x2="1375.2" y2="149.715" gradientUnits="userSpaceOnUse">
<stop stop-color="#990DCE"/>
<stop offset="1" stop-color="#4D0768"/>
</linearGradient>
<linearGradient id="paint14_linear_1361_2557" x1="49.4633" y1="0" x2="49.4633" y2="97.1387" gradientUnits="userSpaceOnUse">
<stop stop-color="#D7FF01"/>
<stop offset="1" stop-color="#819901"/>
</linearGradient>
<linearGradient id="paint15_linear_1361_2557" x1="49.4633" y1="0" x2="49.4633" y2="97.1387" gradientUnits="userSpaceOnUse">
<stop stop-color="white"/>
<stop offset="1" stop-color="#C6C6C6"/>
</linearGradient>
<clipPath id="clip0_1361_2557">
<rect width="1584" height="396" fill="white"/>
</clipPath>
<clipPath id="clip1_1361_2557">
<rect width="28.5301" height="29.0552" fill="white" transform="translate(203.503 313.12)"/>
</clipPath>
</defs>
</svg>
