<svg width="1584" height="396" viewBox="0 0 1584 396" fill="none" xmlns="http://www.w3.org/2000/svg">
<g clip-path="url(#clip0_1357_2421)">
<rect width="1584" height="396" fill="#101010"/>
<path d="M1485.34 98.9494L1485.34 0.000135046C1435.21 0.000128472 1386.4 40.7071 1386.4 98.9493L1485.34 98.9494Z" fill="url(#paint0_linear_1357_2421)"/>
<path d="M1584 0.000619002L1485.05 0.000610352C1485.05 50.1348 1525.76 98.9498 1584 98.9498L1584 0.000619002Z" fill="url(#paint1_linear_1357_2421)"/>
<path d="M1485.05 98.6554L1485.05 197.605C1535.18 197.605 1584 156.898 1584 98.6554L1485.05 98.6554Z" fill="url(#paint2_linear_1357_2421)"/>
<circle cx="49.474" cy="49.474" r="49.474" transform="matrix(1 8.74228e-08 8.74228e-08 -1 1386.4 197.506)" fill="url(#paint3_linear_1357_2421)"/>
<path d="M1384.36 395.901C1439.01 395.901 1483.31 351.599 1483.31 296.951V296.951V296.951C1428.66 296.951 1384.36 341.253 1384.36 395.901V395.901V395.901Z" fill="url(#paint4_linear_1357_2421)"/>
<path d="M1384.36 198.396C1384.36 253.044 1428.66 297.344 1483.31 297.344V297.344V297.344C1483.31 242.697 1439.01 198.396 1384.36 198.396V198.396V198.396Z" fill="url(#paint5_linear_1357_2421)"/>
<circle cx="49.474" cy="49.474" r="49.474" transform="matrix(1 8.74228e-08 8.74228e-08 -1 1483.02 297.344)" fill="url(#paint6_linear_1357_2421)"/>
<path d="M1483.02 297.051L1483.02 396C1533.15 396 1581.96 355.293 1581.96 297.051L1483.02 297.051Z" fill="url(#paint7_linear_1357_2421)"/>
<path d="M1285.05 395.655L1285.05 494.605C1335.18 494.605 1384 453.898 1384 395.655L1285.05 395.655Z" fill="url(#paint8_linear_1357_2421)"/>
<path d="M1186.4 494.604H1285.34C1285.34 444.47 1244.64 395.655 1186.4 395.655V494.604Z" fill="url(#paint9_linear_1357_2421)"/>
<path d="M1285.34 395.949L1285.34 297C1235.21 297 1186.4 337.707 1186.4 395.949L1285.34 395.949Z" fill="url(#paint10_linear_1357_2421)"/>
<circle cx="49.474" cy="49.474" r="49.474" transform="matrix(-1 0 0 1 1384 297.099)" fill="url(#paint11_linear_1357_2421)"/>
<path d="M1088.15 297.999C1033.94 297.999 990 341.941 990 396.145V396.145V396.145C1044.2 396.145 1088.15 352.203 1088.15 297.999V297.999V297.999Z" fill="url(#paint12_linear_1357_2421)"/>
<path d="M1087.85 396.145H1186C1186 346.418 1145.62 297.999 1087.85 297.999V396.145Z" fill="url(#paint13_linear_1357_2421)"/>
<path d="M1186 395.854C1131.8 395.854 1087.85 439.796 1087.85 494V494V494C1142.06 494 1186 450.058 1186 395.854V395.854V395.854Z" fill="url(#paint14_linear_1357_2421)"/>
<rect width="98.145" height="98.145" transform="matrix(-1 0 0 1 1088.15 395.854)" fill="url(#paint15_linear_1357_2421)"/>
<path d="M1285.41 297.929C1340.06 297.91 1384.35 253.593 1384.33 198.945V198.945V198.945C1329.68 198.965 1285.39 243.282 1285.41 297.929V297.929V297.929Z" fill="url(#paint16_linear_1357_2421)"/>
<path d="M1384.33 199.24C1384.31 144.592 1339.99 100.307 1285.34 100.327V100.327V100.327C1285.36 154.974 1329.68 199.259 1384.33 199.24V199.24V199.24Z" fill="url(#paint17_linear_1357_2421)"/>
<rect width="98.9481" height="98.9481" transform="matrix(-0.000354125 -1 -1 0.000354125 1285.31 199.567)" fill="url(#paint18_linear_1357_2421)"/>
<circle cx="49.474" cy="49.474" r="49.474" transform="matrix(-0.000354125 -1 -1 0.000354125 1285.05 297.93)" fill="url(#paint19_linear_1357_2421)"/>
<path d="M84.6102 124V93.844H95.0586C98.2866 93.844 100.977 94.5236 103.129 95.8827C105.309 97.2135 106.937 99.0257 108.013 101.319C109.089 103.585 109.627 106.105 109.627 108.88C109.627 111.938 109.032 114.599 107.843 116.864C106.654 119.13 104.969 120.885 102.789 122.131C100.608 123.377 98.0318 124 95.0586 124H84.6102ZM105.762 108.88C105.762 106.614 105.337 104.604 104.488 102.848C103.667 101.093 102.463 99.7195 100.877 98.7284C99.2918 97.7374 97.3522 97.2418 95.0586 97.2418H88.4328V120.602H95.0586C97.3805 120.602 99.3343 120.092 100.92 119.073C102.506 118.025 103.709 116.624 104.53 114.868C105.351 113.084 105.762 111.088 105.762 108.88ZM124.23 124.425C122.56 124.425 121.03 124.127 119.643 123.533C118.284 122.91 117.095 122.075 116.075 121.027C115.084 119.951 114.306 118.719 113.739 117.332C113.201 115.944 112.932 114.472 112.932 112.914C112.932 110.819 113.414 108.908 114.376 107.181C115.339 105.453 116.67 104.066 118.369 103.018C120.096 101.971 122.064 101.447 124.273 101.447C126.51 101.447 128.449 101.985 130.091 103.061C131.762 104.108 133.05 105.496 133.957 107.223C134.891 108.922 135.358 110.763 135.358 112.745C135.358 113.028 135.344 113.311 135.316 113.594C135.316 113.849 135.301 114.047 135.273 114.189H116.882C116.996 115.633 117.392 116.921 118.072 118.054C118.779 119.158 119.685 120.036 120.79 120.687C121.894 121.31 123.083 121.621 124.358 121.621C125.717 121.621 126.991 121.282 128.18 120.602C129.398 119.923 130.233 119.031 130.686 117.926L133.914 118.818C133.433 119.894 132.711 120.857 131.748 121.706C130.813 122.556 129.695 123.221 128.393 123.703C127.118 124.184 125.731 124.425 124.23 124.425ZM116.755 111.598H131.875C131.762 110.154 131.351 108.88 130.644 107.775C129.936 106.671 129.03 105.807 127.925 105.184C126.821 104.561 125.603 104.25 124.273 104.25C122.97 104.25 121.767 104.561 120.662 105.184C119.558 105.807 118.652 106.671 117.944 107.775C117.265 108.88 116.868 110.154 116.755 111.598ZM147.116 124.425C145.275 124.425 143.548 124.127 141.934 123.533C140.32 122.91 138.932 121.99 137.771 120.772L139.216 118.139C140.49 119.328 141.764 120.177 143.038 120.687C144.312 121.197 145.615 121.452 146.946 121.452C148.475 121.452 149.721 121.168 150.683 120.602C151.646 120.008 152.127 119.144 152.127 118.011C152.127 117.19 151.873 116.581 151.363 116.185C150.882 115.789 150.188 115.463 149.282 115.208C148.376 114.925 147.3 114.613 146.054 114.274C144.525 113.821 143.236 113.339 142.189 112.83C141.141 112.32 140.348 111.683 139.81 110.918C139.272 110.154 139.003 109.191 139.003 108.03C139.003 106.614 139.371 105.425 140.108 104.462C140.844 103.471 141.849 102.721 143.123 102.211C144.426 101.702 145.898 101.447 147.54 101.447C149.183 101.447 150.669 101.702 152 102.211C153.331 102.721 154.478 103.471 155.44 104.462L153.741 107.053C152.864 106.147 151.901 105.482 150.853 105.057C149.806 104.604 148.63 104.377 147.328 104.377C146.563 104.377 145.813 104.476 145.077 104.675C144.341 104.845 143.732 105.17 143.251 105.652C142.769 106.105 142.528 106.756 142.528 107.605C142.528 108.313 142.713 108.88 143.081 109.304C143.477 109.701 144.043 110.04 144.78 110.324C145.544 110.607 146.464 110.918 147.54 111.258C149.211 111.739 150.655 112.221 151.873 112.702C153.118 113.183 154.081 113.806 154.761 114.571C155.44 115.335 155.78 116.397 155.78 117.756C155.78 119.852 154.987 121.494 153.402 122.683C151.816 123.844 149.721 124.425 147.116 124.425ZM170.063 124.425C168.392 124.425 166.863 124.127 165.476 123.533C164.117 122.91 162.928 122.075 161.908 121.027C160.917 119.951 160.139 118.719 159.572 117.332C159.034 115.944 158.765 114.472 158.765 112.914C158.765 110.819 159.247 108.908 160.209 107.181C161.172 105.453 162.503 104.066 164.202 103.018C165.929 101.971 167.897 101.447 170.106 101.447C172.342 101.447 174.282 101.985 175.924 103.061C177.595 104.108 178.883 105.496 179.789 107.223C180.724 108.922 181.191 110.763 181.191 112.745C181.191 113.028 181.177 113.311 181.149 113.594C181.149 113.849 181.134 114.047 181.106 114.189H162.715C162.828 115.633 163.225 116.921 163.904 118.054C164.612 119.158 165.518 120.036 166.623 120.687C167.727 121.31 168.916 121.621 170.191 121.621C171.55 121.621 172.824 121.282 174.013 120.602C175.231 119.923 176.066 119.031 176.519 117.926L179.747 118.818C179.266 119.894 178.544 120.857 177.581 121.706C176.646 122.556 175.528 123.221 174.225 123.703C172.951 124.184 171.564 124.425 170.063 124.425ZM162.588 111.598H177.708C177.595 110.154 177.184 108.88 176.477 107.775C175.769 106.671 174.863 105.807 173.758 105.184C172.654 104.561 171.436 104.25 170.106 104.25C168.803 104.25 167.6 104.561 166.495 105.184C165.391 105.807 164.485 106.671 163.777 107.775C163.097 108.88 162.701 110.154 162.588 111.598ZM204.586 124H200.849V111.598C200.849 109.248 200.48 107.535 199.744 106.459C199.036 105.354 197.946 104.802 196.474 104.802C195.454 104.802 194.435 105.057 193.416 105.567C192.425 106.076 191.533 106.77 190.74 107.648C189.975 108.497 189.423 109.488 189.083 110.621V124H185.346V101.829H188.744V106.586C189.338 105.538 190.103 104.632 191.037 103.868C191.972 103.103 193.033 102.509 194.223 102.084C195.412 101.659 196.658 101.447 197.96 101.447C199.235 101.447 200.296 101.687 201.146 102.169C202.024 102.622 202.703 103.273 203.185 104.123C203.694 104.944 204.048 105.921 204.246 107.053C204.473 108.186 204.586 109.418 204.586 110.748V124ZM216.313 124L207.606 101.829H211.514L218.479 120.432L225.445 101.829H229.098L220.391 124H216.313ZM241.775 124.425C240.105 124.425 238.59 124.127 237.231 123.533C235.871 122.91 234.696 122.075 233.705 121.027C232.714 119.951 231.95 118.719 231.412 117.332C230.874 115.944 230.605 114.486 230.605 112.957C230.605 111.4 230.874 109.927 231.412 108.54C231.95 107.152 232.714 105.935 233.705 104.887C234.696 103.811 235.871 102.976 237.231 102.381C238.618 101.758 240.133 101.447 241.775 101.447C243.446 101.447 244.961 101.758 246.32 102.381C247.679 102.976 248.854 103.811 249.845 104.887C250.864 105.935 251.643 107.152 252.181 108.54C252.719 109.927 252.988 111.4 252.988 112.957C252.988 114.486 252.719 115.944 252.181 117.332C251.643 118.719 250.879 119.951 249.888 121.027C248.897 122.075 247.707 122.91 246.32 123.533C244.961 124.127 243.446 124.425 241.775 124.425ZM234.427 112.999C234.427 114.528 234.753 115.916 235.404 117.162C236.084 118.408 236.976 119.399 238.08 120.135C239.184 120.843 240.416 121.197 241.775 121.197C243.134 121.197 244.366 120.829 245.47 120.092C246.603 119.356 247.495 118.365 248.146 117.119C248.826 115.845 249.166 114.444 249.166 112.914C249.166 111.385 248.826 109.998 248.146 108.752C247.495 107.506 246.603 106.515 245.47 105.779C244.366 105.043 243.134 104.675 241.775 104.675C240.416 104.675 239.184 105.057 238.08 105.821C236.976 106.558 236.084 107.549 235.404 108.795C234.753 110.04 234.427 111.442 234.427 112.999ZM257.602 92.9945H261.34V118.266C261.34 119.484 261.51 120.234 261.849 120.517C262.189 120.8 262.6 120.942 263.081 120.942C263.676 120.942 264.242 120.885 264.78 120.772C265.318 120.63 265.771 120.489 266.139 120.347L266.734 123.405C266.111 123.66 265.375 123.873 264.525 124.042C263.676 124.212 262.925 124.297 262.274 124.297C260.83 124.297 259.683 123.887 258.834 123.066C258.013 122.244 257.602 121.098 257.602 119.625V92.9945ZM275.212 124L266.505 101.829H270.412L277.378 120.432L284.343 101.829H287.996L279.289 124H275.212ZM300.801 124.425C299.13 124.425 297.601 124.127 296.214 123.533C294.855 122.91 293.666 122.075 292.646 121.027C291.655 119.951 290.876 118.719 290.31 117.332C289.772 115.944 289.503 114.472 289.503 112.914C289.503 110.819 289.985 108.908 290.947 107.181C291.91 105.453 293.241 104.066 294.94 103.018C296.667 101.971 298.635 101.447 300.844 101.447C303.08 101.447 305.02 101.985 306.662 103.061C308.333 104.108 309.621 105.496 310.527 107.223C311.462 108.922 311.929 110.763 311.929 112.745C311.929 113.028 311.915 113.311 311.887 113.594C311.887 113.849 311.872 114.047 311.844 114.189H293.453C293.566 115.633 293.963 116.921 294.642 118.054C295.35 119.158 296.256 120.036 297.361 120.687C298.465 121.31 299.654 121.621 300.928 121.621C302.288 121.621 303.562 121.282 304.751 120.602C305.969 119.923 306.804 119.031 307.257 117.926L310.485 118.818C310.004 119.894 309.282 120.857 308.319 121.706C307.384 122.556 306.266 123.221 304.963 123.703C303.689 124.184 302.302 124.425 300.801 124.425ZM293.326 111.598H308.446C308.333 110.154 307.922 108.88 307.215 107.775C306.507 106.671 305.601 105.807 304.496 105.184C303.392 104.561 302.174 104.25 300.844 104.25C299.541 104.25 298.338 104.561 297.233 105.184C296.129 105.807 295.223 106.671 294.515 107.775C293.835 108.88 293.439 110.154 293.326 111.598ZM314.64 112.957C314.64 110.862 315.064 108.95 315.914 107.223C316.792 105.468 317.981 104.066 319.482 103.018C321.011 101.971 322.752 101.447 324.706 101.447C326.49 101.447 328.09 101.914 329.505 102.848C330.921 103.783 332.025 104.915 332.818 106.246V92.9945H336.556V119.753C336.556 120.206 336.641 120.546 336.811 120.772C337.009 120.97 337.32 121.084 337.745 121.112V124C337.037 124.113 336.485 124.17 336.089 124.17C335.353 124.17 334.701 123.915 334.135 123.405C333.597 122.896 333.328 122.329 333.328 121.706V119.838C332.45 121.253 331.275 122.372 329.803 123.193C328.33 124.014 326.801 124.425 325.216 124.425C323.687 124.425 322.271 124.127 320.968 123.533C319.694 122.91 318.576 122.06 317.613 120.984C316.678 119.908 315.942 118.691 315.404 117.332C314.895 115.944 314.64 114.486 314.64 112.957ZM332.818 116.227V109.856C332.478 108.894 331.926 108.03 331.162 107.266C330.397 106.473 329.534 105.85 328.571 105.397C327.637 104.915 326.702 104.675 325.768 104.675C324.663 104.675 323.658 104.915 322.752 105.397C321.874 105.85 321.11 106.473 320.459 107.266C319.836 108.03 319.354 108.908 319.014 109.899C318.675 110.89 318.505 111.923 318.505 112.999C318.505 114.104 318.689 115.151 319.057 116.142C319.453 117.133 319.991 118.011 320.671 118.776C321.379 119.54 322.186 120.135 323.092 120.56C324.026 120.984 325.032 121.197 326.107 121.197C326.787 121.197 327.481 121.069 328.189 120.815C328.925 120.56 329.619 120.206 330.27 119.753C330.921 119.3 331.473 118.776 331.926 118.181C332.379 117.558 332.677 116.907 332.818 116.227ZM352.479 124.425C350.809 124.425 349.294 124.127 347.935 123.533C346.576 122.91 345.401 122.075 344.409 121.027C343.418 119.951 342.654 118.719 342.116 117.332C341.578 115.944 341.309 114.486 341.309 112.957C341.309 111.4 341.578 109.927 342.116 108.54C342.654 107.152 343.418 105.935 344.409 104.887C345.401 103.811 346.576 102.976 347.935 102.381C349.322 101.758 350.837 101.447 352.479 101.447C354.15 101.447 355.665 101.758 357.024 102.381C358.383 102.976 359.558 103.811 360.549 104.887C361.569 105.935 362.347 107.152 362.885 108.54C363.423 109.927 363.692 111.4 363.692 112.957C363.692 114.486 363.423 115.944 362.885 117.332C362.347 118.719 361.583 119.951 360.592 121.027C359.601 122.075 358.412 122.91 357.024 123.533C355.665 124.127 354.15 124.425 352.479 124.425ZM345.132 112.999C345.132 114.528 345.457 115.916 346.108 117.162C346.788 118.408 347.68 119.399 348.784 120.135C349.889 120.843 351.12 121.197 352.479 121.197C353.839 121.197 355.07 120.829 356.175 120.092C357.307 119.356 358.199 118.365 358.85 117.119C359.53 115.845 359.87 114.444 359.87 112.914C359.87 111.385 359.53 109.998 358.85 108.752C358.199 107.506 357.307 106.515 356.175 105.779C355.07 105.043 353.839 104.675 352.479 104.675C351.12 104.675 349.889 105.057 348.784 105.821C347.68 106.558 346.788 107.549 346.108 108.795C345.457 110.04 345.132 111.442 345.132 112.999ZM379.944 105.099C378.075 105.128 376.419 105.609 374.975 106.543C373.559 107.45 372.554 108.71 371.959 110.324V124H368.221V101.829H371.704V106.968C372.469 105.439 373.474 104.207 374.72 103.273C375.994 102.31 377.325 101.772 378.712 101.659C378.995 101.659 379.236 101.659 379.434 101.659C379.633 101.659 379.802 101.673 379.944 101.702V105.099ZM381.91 117.587C381.91 116.171 382.306 114.953 383.099 113.934C383.92 112.886 385.039 112.079 386.454 111.513C387.87 110.947 389.512 110.663 391.381 110.663C392.372 110.663 393.42 110.748 394.524 110.918C395.629 111.06 396.605 111.286 397.455 111.598V109.984C397.455 108.285 396.945 106.954 395.926 105.991C394.907 105 393.462 104.505 391.594 104.505C390.376 104.505 389.201 104.731 388.068 105.184C386.964 105.609 385.789 106.232 384.543 107.053L383.184 104.42C384.628 103.429 386.072 102.693 387.516 102.211C388.96 101.702 390.461 101.447 392.018 101.447C394.85 101.447 397.087 102.24 398.729 103.825C400.371 105.383 401.193 107.563 401.193 110.366V119.753C401.193 120.206 401.278 120.546 401.447 120.772C401.646 120.97 401.957 121.084 402.382 121.112V124C402.014 124.057 401.688 124.099 401.405 124.127C401.15 124.156 400.938 124.17 400.768 124.17C399.89 124.17 399.225 123.929 398.772 123.448C398.347 122.966 398.106 122.457 398.05 121.919L397.965 120.517C397.002 121.763 395.742 122.726 394.184 123.405C392.627 124.085 391.084 124.425 389.555 124.425C388.083 124.425 386.766 124.127 385.605 123.533C384.444 122.91 383.538 122.089 382.887 121.069C382.235 120.022 381.91 118.861 381.91 117.587ZM396.351 119.158C396.69 118.762 396.959 118.365 397.158 117.969C397.356 117.544 397.455 117.19 397.455 116.907V114.146C396.577 113.806 395.657 113.552 394.694 113.382C393.731 113.183 392.783 113.084 391.848 113.084C389.951 113.084 388.408 113.467 387.219 114.231C386.058 114.967 385.477 115.987 385.477 117.289C385.477 117.997 385.662 118.691 386.03 119.37C386.426 120.022 386.992 120.56 387.729 120.984C388.493 121.409 389.427 121.621 390.532 121.621C391.693 121.621 392.797 121.395 393.845 120.942C394.892 120.461 395.728 119.866 396.351 119.158Z" fill="#990DCE"/>
<path d="M83.2404 209V199.922H90.9274V164.346H83.2404V155.268H131.332V171.84H121.057V164.346H104.911V176.784H116.538V185.862H104.911V199.922H113.177V209H83.2404ZM133.573 164.346V155.268H159.222V164.346H153.93V188.643C153.93 191.888 154.059 194.231 154.316 195.673C154.599 197.09 155.32 198.261 156.479 199.188C157.638 200.116 159.106 200.579 160.883 200.579C162.711 200.579 164.231 200.141 165.441 199.266C166.651 198.39 167.424 197.296 167.759 195.982C168.119 194.669 168.3 191.991 168.3 187.948V164.346H163.085V155.268H184.485V164.346H177.918V191.231C177.918 194.888 177.725 197.553 177.339 199.227C176.952 200.875 176.064 202.523 174.673 204.171C173.283 205.794 171.261 207.12 168.609 208.15C165.982 209.155 162.956 209.657 159.531 209.657C155.565 209.657 152.179 209.103 149.372 207.996C146.591 206.863 144.517 205.369 143.153 203.515C141.788 201.661 140.912 199.819 140.526 197.991C140.14 196.163 139.946 193.047 139.946 188.643V164.346H133.573ZM187.884 209V199.922H195.571V164.346H187.884V155.268H217.396V164.346H209.554V199.922H225.43V183.312H235.899V209H187.884ZM239.028 209V199.922H246.715V164.346H239.028V155.268H268.539V164.346H260.698V199.922H276.574V183.312H287.042V209H239.028ZM290.789 195.519V185.089H312.382V195.519H290.789ZM318.988 209V190.69H328.104C328.207 194.038 329.083 196.51 330.731 198.107C332.379 199.678 334.259 200.463 336.37 200.463C338.019 200.463 339.409 199.897 340.542 198.764C341.675 197.605 342.242 196.253 342.242 194.708C342.242 193.059 341.688 191.682 340.581 190.574C339.474 189.441 337.452 188.154 334.516 186.712C328.31 183.699 324.087 181.046 321.846 178.754C319.632 176.462 318.524 173.372 318.524 169.483C318.524 164.797 319.992 161.166 322.928 158.59C325.864 156.015 329.198 154.728 332.933 154.728C337.207 154.728 340.517 156.389 342.86 159.711V155.268H351.938V171.608H342.86C342.577 169.084 341.701 167.14 340.233 165.775C338.791 164.385 337.104 163.689 335.173 163.689C333.679 163.689 332.417 164.088 331.387 164.887C330.357 165.685 329.842 166.728 329.842 168.016C329.842 169.123 330.267 170.179 331.117 171.183C331.967 172.162 334.452 173.565 338.572 175.394C342.538 177.17 345.577 178.78 347.688 180.222C349.826 181.638 351.513 183.493 352.749 185.785C353.985 188.051 354.603 190.677 354.603 193.665C354.603 198.97 353.058 202.961 349.968 205.639C346.877 208.318 343.22 209.657 338.997 209.657C334.285 209.657 330.653 207.918 328.104 204.442V209H318.988ZM368.934 209V199.922H377.007V164.346H368.934V176.861H359.702V155.268H408.412V176.861H399.296V164.346H390.991V199.922H399.064V209H368.934ZM463.727 199.922V209H437.306V199.922H444.181L441.632 190.69H427.687L424.829 199.922H432.014V209H408.219V199.922H414.863L425.331 164.346H418.185V155.268H453.259V164.346H446.036L457.315 199.922H463.727ZM439.43 182.81L434.949 166.625L430.121 182.81H439.43ZM510.351 155.268H519.429V174.196H510.351C507.776 167.398 503.308 163.998 496.947 163.998C491.694 163.998 487.715 165.788 485.011 169.368C482.333 172.947 480.994 177.235 480.994 182.231C480.994 187.458 482.41 191.695 485.243 194.939C488.102 198.158 491.733 199.768 496.136 199.768C499.742 199.768 502.896 198.545 505.6 196.098C508.304 193.652 510.133 190.252 511.085 185.9L521.669 190.961C517.652 203.425 508.806 209.657 495.132 209.657C485.475 209.657 478.187 207.056 473.268 201.854C468.376 196.652 465.929 190.072 465.929 182.115C465.929 176.449 467.204 171.492 469.753 167.243C472.303 162.994 475.728 159.801 480.028 157.663C484.355 155.5 489.093 154.418 494.243 154.418C500.656 154.418 506.025 156.092 510.351 159.44V155.268ZM525.416 209V199.922H532.64V164.346H525.416V155.268H553.422V164.346H546.623V199.922H552.881V209H525.416ZM557.053 209V199.922H563.311L547.048 180.801L564.585 164.346H558.173V155.268H584.402V164.346H577.835L562.693 179.179L580.307 199.922H585.869V209H557.053Z" fill="white"/>
<g opacity="0.7">
<path d="M108.273 306H83.1738C82.5973 306 82.0443 306.229 81.6367 306.637C81.229 307.044 81 307.597 81 308.174V333.273C81 333.85 81.229 334.403 81.6367 334.81C82.0443 335.218 82.5973 335.447 83.1738 335.447H108.273C108.85 335.447 109.403 335.218 109.81 334.81C110.218 334.403 110.447 333.85 110.447 333.273V308.174C110.447 307.597 110.218 307.044 109.81 306.637C109.403 306.229 108.85 306 108.273 306ZM89.7769 331.085H85.3496V317.022H89.7769V331.085ZM87.5602 315.073C87.058 315.071 86.5679 314.919 86.1517 314.638C85.7355 314.357 85.412 313.959 85.2218 313.494C85.0317 313.029 84.9835 312.518 85.0834 312.026C85.1832 311.534 85.4266 311.082 85.7829 310.728C86.1392 310.374 86.5923 310.134 87.0851 310.037C87.5779 309.941 88.0883 309.992 88.5519 310.185C89.0155 310.378 89.4115 310.704 89.6899 311.122C89.9684 311.54 90.1168 312.031 90.1164 312.534C90.1211 312.87 90.0581 313.204 89.9311 313.515C89.8041 313.826 89.6157 314.109 89.3772 314.346C89.1387 314.583 88.8548 314.769 88.5427 314.894C88.2305 315.019 87.8964 315.08 87.5602 315.073ZM106.096 331.098H101.67V323.415C101.67 321.149 100.707 320.45 99.4638 320.45C98.1509 320.45 96.8626 321.439 96.8626 323.472V331.098H92.4353V317.032H96.6929V318.981H96.7502C97.1775 318.116 98.6744 316.638 100.959 316.638C103.429 316.638 106.098 318.104 106.098 322.398L106.096 331.098Z" fill="#D7FF01"/>
<path d="M130.322 315.48C130.21 315.369 130.003 315.217 129.701 315.026C129.414 314.835 129.056 314.652 128.625 314.477C128.211 314.302 127.757 314.15 127.264 314.023C126.77 313.88 126.268 313.808 125.758 313.808C124.866 313.808 124.189 313.975 123.728 314.31C123.282 314.644 123.059 315.114 123.059 315.719C123.059 316.181 123.202 316.548 123.489 316.818C123.775 317.089 124.205 317.32 124.779 317.511C125.352 317.702 126.069 317.909 126.929 318.132C128.044 318.403 129.008 318.738 129.82 319.136C130.648 319.518 131.278 320.028 131.708 320.665C132.154 321.286 132.377 322.114 132.377 323.15C132.377 324.058 132.209 324.838 131.875 325.491C131.54 326.128 131.078 326.646 130.489 327.044C129.9 327.443 129.231 327.737 128.482 327.928C127.734 328.104 126.937 328.191 126.093 328.191C125.249 328.191 124.404 328.104 123.56 327.928C122.716 327.753 121.904 327.506 121.123 327.188C120.343 326.853 119.626 326.455 118.973 325.993L120.43 323.15C120.574 323.293 120.829 323.484 121.195 323.723C121.561 323.946 122.007 324.177 122.533 324.416C123.059 324.639 123.632 324.83 124.253 324.99C124.874 325.149 125.504 325.228 126.141 325.228C127.033 325.228 127.71 325.077 128.172 324.775C128.633 324.472 128.864 324.042 128.864 323.484C128.864 322.975 128.681 322.576 128.315 322.29C127.949 322.003 127.439 321.756 126.786 321.549C126.133 321.326 125.36 321.087 124.468 320.832C123.401 320.53 122.509 320.195 121.792 319.829C121.075 319.446 120.542 318.969 120.191 318.395C119.841 317.822 119.666 317.105 119.666 316.245C119.666 315.082 119.937 314.11 120.478 313.33C121.036 312.534 121.784 311.936 122.724 311.538C123.664 311.124 124.707 310.917 125.854 310.917C126.65 310.917 127.399 311.004 128.1 311.18C128.817 311.355 129.486 311.586 130.107 311.873C130.728 312.159 131.286 312.47 131.779 312.804L130.322 315.48ZM140.34 328.239C139.32 328.239 138.404 328.072 137.592 327.737C136.78 327.387 136.087 326.909 135.513 326.304C134.956 325.698 134.526 325.005 134.223 324.225C133.92 323.444 133.769 322.624 133.769 321.764C133.769 320.888 133.92 320.06 134.223 319.279C134.526 318.499 134.956 317.806 135.513 317.201C136.087 316.595 136.78 316.125 137.592 315.791C138.404 315.44 139.32 315.265 140.34 315.265C141.359 315.265 142.267 315.44 143.063 315.791C143.876 316.125 144.569 316.595 145.142 317.201C145.715 317.806 146.145 318.499 146.432 319.279C146.735 320.06 146.886 320.888 146.886 321.764C146.886 322.624 146.735 323.444 146.432 324.225C146.145 325.005 145.715 325.698 145.142 326.304C144.584 326.909 143.9 327.387 143.087 327.737C142.275 328.072 141.359 328.239 140.34 328.239ZM137.066 321.764C137.066 322.497 137.21 323.15 137.496 323.723C137.783 324.281 138.173 324.719 138.667 325.037C139.161 325.356 139.718 325.515 140.34 325.515C140.945 325.515 141.494 325.356 141.988 325.037C142.482 324.703 142.872 324.257 143.159 323.699C143.462 323.126 143.613 322.473 143.613 321.74C143.613 321.023 143.462 320.378 143.159 319.805C142.872 319.231 142.482 318.785 141.988 318.467C141.494 318.148 140.945 317.989 140.34 317.989C139.718 317.989 139.161 318.156 138.667 318.491C138.173 318.809 137.783 319.255 137.496 319.829C137.21 320.386 137.066 321.031 137.066 321.764ZM149.695 318.586H148.046V316.149H149.695V315.385C149.695 314.684 149.806 314.031 150.029 313.426C150.268 312.82 150.603 312.287 151.033 311.825C151.479 311.347 152.013 310.981 152.634 310.726C153.271 310.455 153.988 310.32 154.784 310.32C155.389 310.32 155.955 310.383 156.48 310.511C157.022 310.638 157.532 310.821 158.01 311.06C158.503 311.299 158.973 311.57 159.419 311.873L158.153 314.262C157.739 313.895 157.253 313.601 156.695 313.378C156.138 313.155 155.573 313.043 154.999 313.043C154.537 313.043 154.147 313.147 153.828 313.354C153.51 313.561 153.271 313.832 153.112 314.166C152.968 314.501 152.897 314.867 152.897 315.265V316.149H159.61V328H156.409V318.586H152.897V328H149.695V318.586ZM161.65 324.297C161.65 323.484 161.873 322.775 162.319 322.17C162.781 321.549 163.418 321.071 164.23 320.737C165.043 320.402 165.974 320.235 167.026 320.235C167.551 320.235 168.085 320.275 168.626 320.354C169.168 320.434 169.638 320.561 170.036 320.737V320.068C170.036 319.271 169.797 318.658 169.319 318.228C168.857 317.798 168.165 317.583 167.241 317.583C166.556 317.583 165.903 317.702 165.282 317.941C164.66 318.18 164.007 318.531 163.322 318.993L162.295 316.89C163.123 316.348 163.967 315.942 164.828 315.671C165.704 315.401 166.619 315.265 167.575 315.265C169.359 315.265 170.745 315.711 171.732 316.603C172.736 317.495 173.238 318.77 173.238 320.426V324.416C173.238 324.751 173.293 324.99 173.405 325.133C173.532 325.276 173.732 325.364 174.002 325.396V328C173.716 328.048 173.453 328.088 173.214 328.119C172.991 328.151 172.8 328.167 172.64 328.167C172.003 328.167 171.517 328.024 171.183 327.737C170.864 327.45 170.665 327.1 170.586 326.686L170.514 326.041C169.972 326.742 169.295 327.283 168.483 327.666C167.671 328.048 166.842 328.239 165.998 328.239C165.17 328.239 164.421 328.072 163.752 327.737C163.099 327.387 162.582 326.917 162.199 326.328C161.833 325.722 161.65 325.045 161.65 324.297ZM169.439 324.942C169.614 324.751 169.757 324.559 169.869 324.368C169.98 324.177 170.036 324.002 170.036 323.843V322.576C169.654 322.417 169.24 322.298 168.794 322.218C168.348 322.122 167.926 322.075 167.527 322.075C166.699 322.075 166.014 322.258 165.473 322.624C164.947 322.975 164.684 323.444 164.684 324.034C164.684 324.352 164.772 324.655 164.947 324.942C165.122 325.228 165.377 325.459 165.712 325.635C166.046 325.81 166.444 325.897 166.906 325.897C167.384 325.897 167.854 325.81 168.316 325.635C168.778 325.443 169.152 325.213 169.439 324.942ZM195.946 323.628C195.946 324.583 195.7 325.388 195.206 326.041C194.712 326.678 194.043 327.164 193.199 327.498C192.371 327.833 191.463 328 190.475 328H182.28V311.036H191.359C192.156 311.036 192.84 311.251 193.414 311.681C194.003 312.096 194.449 312.637 194.752 313.306C195.07 313.959 195.23 314.644 195.23 315.361C195.23 316.173 195.023 316.946 194.608 317.678C194.194 318.411 193.589 318.953 192.793 319.303C193.764 319.59 194.529 320.107 195.086 320.856C195.66 321.605 195.946 322.529 195.946 323.628ZM192.625 323.006C192.625 322.576 192.538 322.194 192.363 321.86C192.187 321.509 191.948 321.238 191.646 321.047C191.359 320.84 191.025 320.737 190.642 320.737H185.577V325.205H190.475C190.873 325.205 191.232 325.109 191.55 324.918C191.885 324.711 192.148 324.44 192.339 324.106C192.53 323.771 192.625 323.405 192.625 323.006ZM185.577 313.856V318.132H189.973C190.34 318.132 190.674 318.045 190.977 317.87C191.279 317.694 191.518 317.447 191.694 317.129C191.885 316.81 191.98 316.428 191.98 315.982C191.98 315.552 191.893 315.178 191.717 314.859C191.558 314.541 191.335 314.294 191.048 314.118C190.778 313.943 190.467 313.856 190.117 313.856H185.577ZM197.349 324.297C197.349 323.484 197.572 322.775 198.018 322.17C198.48 321.549 199.117 321.071 199.929 320.737C200.741 320.402 201.673 320.235 202.724 320.235C203.25 320.235 203.784 320.275 204.325 320.354C204.867 320.434 205.337 320.561 205.735 320.737V320.068C205.735 319.271 205.496 318.658 205.018 318.228C204.556 317.798 203.863 317.583 202.94 317.583C202.255 317.583 201.602 317.702 200.98 317.941C200.359 318.18 199.706 318.531 199.021 318.993L197.994 316.89C198.822 316.348 199.666 315.942 200.526 315.671C201.402 315.401 202.318 315.265 203.274 315.265C205.058 315.265 206.444 315.711 207.431 316.603C208.435 317.495 208.937 318.77 208.937 320.426V324.416C208.937 324.751 208.992 324.99 209.104 325.133C209.231 325.276 209.43 325.364 209.701 325.396V328C209.414 328.048 209.152 328.088 208.913 328.119C208.69 328.151 208.499 328.167 208.339 328.167C207.702 328.167 207.216 328.024 206.882 327.737C206.563 327.45 206.364 327.1 206.284 326.686L206.213 326.041C205.671 326.742 204.994 327.283 204.182 327.666C203.37 328.048 202.541 328.239 201.697 328.239C200.869 328.239 200.12 328.072 199.451 327.737C198.798 327.387 198.28 326.917 197.898 326.328C197.532 325.722 197.349 325.045 197.349 324.297ZM205.138 324.942C205.313 324.751 205.456 324.559 205.568 324.368C205.679 324.177 205.735 324.002 205.735 323.843V322.576C205.353 322.417 204.939 322.298 204.493 322.218C204.047 322.122 203.624 322.075 203.226 322.075C202.398 322.075 201.713 322.258 201.171 322.624C200.646 322.975 200.383 323.444 200.383 324.034C200.383 324.352 200.471 324.655 200.646 324.942C200.821 325.228 201.076 325.459 201.41 325.635C201.745 325.81 202.143 325.897 202.605 325.897C203.083 325.897 203.553 325.81 204.015 325.635C204.477 325.443 204.851 325.213 205.138 324.942ZM216.54 328.239C215.472 328.239 214.453 328.064 213.481 327.713C212.51 327.363 211.673 326.845 210.973 326.16L212.119 324.082C212.868 324.687 213.601 325.133 214.318 325.42C215.05 325.706 215.751 325.85 216.42 325.85C217.041 325.85 217.535 325.738 217.901 325.515C218.284 325.292 218.475 324.958 218.475 324.512C218.475 324.209 218.371 323.978 218.164 323.819C217.957 323.644 217.655 323.492 217.256 323.365C216.874 323.237 216.404 323.094 215.847 322.935C214.923 322.632 214.15 322.337 213.529 322.051C212.908 321.764 212.438 321.406 212.119 320.976C211.817 320.53 211.666 319.964 211.666 319.279C211.666 318.451 211.873 317.742 212.287 317.153C212.717 316.548 213.306 316.078 214.055 315.743C214.819 315.409 215.711 315.241 216.731 315.241C217.623 315.241 218.467 315.385 219.263 315.671C220.06 315.942 220.785 316.388 221.438 317.009L220.147 319.04C219.51 318.547 218.905 318.188 218.332 317.965C217.758 317.726 217.177 317.607 216.587 317.607C216.253 317.607 215.934 317.647 215.632 317.726C215.345 317.806 215.106 317.941 214.915 318.132C214.74 318.308 214.652 318.562 214.652 318.897C214.652 319.2 214.732 319.439 214.891 319.614C215.066 319.773 215.321 319.916 215.656 320.044C216.006 320.171 216.428 320.315 216.922 320.474C217.925 320.761 218.77 321.055 219.454 321.358C220.155 321.661 220.681 322.035 221.031 322.481C221.382 322.911 221.557 323.508 221.557 324.273C221.557 325.515 221.103 326.487 220.195 327.188C219.287 327.889 218.069 328.239 216.54 328.239ZM231.167 327.355C230.896 327.466 230.57 327.594 230.187 327.737C229.805 327.881 229.391 327.992 228.945 328.072C228.515 328.167 228.077 328.215 227.631 328.215C227.041 328.215 226.5 328.111 226.006 327.904C225.512 327.697 225.114 327.371 224.811 326.925C224.525 326.463 224.381 325.866 224.381 325.133V317.941H222.733V315.48H224.381V311.419H227.583V315.48H230.211V317.941H227.583V324.058C227.599 324.488 227.718 324.798 227.941 324.99C228.164 325.181 228.443 325.276 228.778 325.276C229.112 325.276 229.439 325.221 229.757 325.109C230.076 324.998 230.331 324.902 230.522 324.822L231.167 327.355ZM238.476 328.239C237.457 328.239 236.541 328.072 235.729 327.737C234.916 327.387 234.223 326.909 233.65 326.304C233.093 325.698 232.662 325.005 232.36 324.225C232.057 323.444 231.906 322.624 231.906 321.764C231.906 320.888 232.057 320.06 232.36 319.279C232.662 318.499 233.093 317.806 233.65 317.201C234.223 316.595 234.916 316.125 235.729 315.791C236.541 315.44 237.457 315.265 238.476 315.265C239.496 315.265 240.404 315.44 241.2 315.791C242.012 316.125 242.705 316.595 243.279 317.201C243.852 317.806 244.282 318.499 244.569 319.279C244.872 320.06 245.023 320.888 245.023 321.764C245.023 322.624 244.872 323.444 244.569 324.225C244.282 325.005 243.852 325.698 243.279 326.304C242.721 326.909 242.036 327.387 241.224 327.737C240.412 328.072 239.496 328.239 238.476 328.239ZM235.203 321.764C235.203 322.497 235.346 323.15 235.633 323.723C235.92 324.281 236.31 324.719 236.804 325.037C237.298 325.356 237.855 325.515 238.476 325.515C239.082 325.515 239.631 325.356 240.125 325.037C240.619 324.703 241.009 324.257 241.296 323.699C241.598 323.126 241.75 322.473 241.75 321.74C241.75 321.023 241.598 320.378 241.296 319.805C241.009 319.231 240.619 318.785 240.125 318.467C239.631 318.148 239.082 317.989 238.476 317.989C237.855 317.989 237.298 318.156 236.804 318.491C236.31 318.809 235.92 319.255 235.633 319.829C235.346 320.386 235.203 321.031 235.203 321.764ZM251.795 328.239C250.728 328.239 249.708 328.064 248.737 327.713C247.765 327.363 246.929 326.845 246.228 326.16L247.375 324.082C248.124 324.687 248.856 325.133 249.573 325.42C250.306 325.706 251.007 325.85 251.676 325.85C252.297 325.85 252.791 325.738 253.157 325.515C253.539 325.292 253.73 324.958 253.73 324.512C253.73 324.209 253.627 323.978 253.42 323.819C253.213 323.644 252.91 323.492 252.512 323.365C252.13 323.237 251.66 323.094 251.102 322.935C250.178 322.632 249.406 322.337 248.785 322.051C248.163 321.764 247.694 321.406 247.375 320.976C247.072 320.53 246.921 319.964 246.921 319.279C246.921 318.451 247.128 317.742 247.542 317.153C247.972 316.548 248.562 316.078 249.31 315.743C250.075 315.409 250.967 315.241 251.986 315.241C252.878 315.241 253.722 315.385 254.519 315.671C255.315 315.942 256.04 316.388 256.693 317.009L255.403 319.04C254.766 318.547 254.16 318.188 253.587 317.965C253.014 317.726 252.432 317.607 251.843 317.607C251.508 317.607 251.19 317.647 250.887 317.726C250.6 317.806 250.362 317.941 250.17 318.132C249.995 318.308 249.908 318.562 249.908 318.897C249.908 319.2 249.987 319.439 250.147 319.614C250.322 319.773 250.577 319.916 250.911 320.044C251.262 320.171 251.684 320.315 252.177 320.474C253.181 320.761 254.025 321.055 254.71 321.358C255.411 321.661 255.936 322.035 256.287 322.481C256.637 322.911 256.813 323.508 256.813 324.273C256.813 325.515 256.359 326.487 255.451 327.188C254.543 327.889 253.324 328.239 251.795 328.239Z" fill="white"/>
</g>
<g opacity="0.7">
<g clip-path="url(#clip1_1357_2421)">
<path d="M370.514 320.72C370.514 328.338 364.338 334.514 356.72 334.514C349.103 334.514 342.927 328.338 342.927 320.72C342.927 313.103 349.103 306.927 356.72 306.927C364.338 306.927 370.514 313.103 370.514 320.72Z" stroke="white" stroke-width="1.85402"/>
<path d="M358.698 323.358H355.693C354.669 323.358 353.841 322.53 353.841 321.506V320.353C353.841 319.329 354.669 318.501 355.693 318.501H356.846C357.87 318.501 358.698 319.329 358.698 320.353V323.358Z" stroke="#D7FF01" stroke-width="1.76592" stroke-miterlimit="10" stroke-linecap="round" stroke-linejoin="round"/>
<path d="M356.147 323.67C363.86 324.909 363.86 320.955 363.86 320.955C364.202 316.854 360.893 313.136 356.558 313.136C352.223 313.136 348.711 316.647 348.711 320.982C348.711 325.317 352.223 328.829 356.558 328.829C358.416 328.829 360.128 328.182 361.475 327.1" stroke="#D7FF01" stroke-width="1.76592" stroke-miterlimit="10" stroke-linecap="round" stroke-linejoin="round"/>
</g>
<path d="M385.51 328.239C384.442 328.239 383.423 328.064 382.451 327.713C381.48 327.363 380.644 326.845 379.943 326.16L381.09 324.082C381.838 324.687 382.571 325.133 383.288 325.42C384.02 325.706 384.721 325.85 385.39 325.85C386.011 325.85 386.505 325.738 386.871 325.515C387.254 325.292 387.445 324.958 387.445 324.512C387.445 324.209 387.341 323.978 387.134 323.819C386.927 323.644 386.625 323.492 386.226 323.365C385.844 323.237 385.374 323.094 384.817 322.935C383.893 322.632 383.12 322.337 382.499 322.051C381.878 321.764 381.408 321.406 381.09 320.976C380.787 320.53 380.636 319.964 380.636 319.279C380.636 318.451 380.843 317.742 381.257 317.153C381.687 316.548 382.276 316.078 383.025 315.743C383.789 315.409 384.681 315.241 385.701 315.241C386.593 315.241 387.437 315.385 388.233 315.671C389.03 315.942 389.755 316.388 390.408 317.009L389.117 319.04C388.48 318.547 387.875 318.188 387.302 317.965C386.728 317.726 386.147 317.607 385.557 317.607C385.223 317.607 384.904 317.647 384.602 317.726C384.315 317.806 384.076 317.941 383.885 318.132C383.71 318.308 383.622 318.562 383.622 318.897C383.622 319.2 383.702 319.439 383.861 319.614C384.036 319.773 384.291 319.916 384.626 320.044C384.976 320.171 385.398 320.315 385.892 320.474C386.895 320.761 387.74 321.055 388.425 321.358C389.125 321.661 389.651 322.035 390.001 322.481C390.352 322.911 390.527 323.508 390.527 324.273C390.527 325.515 390.073 326.487 389.165 327.188C388.257 327.889 387.039 328.239 385.51 328.239ZM398.487 328.239C397.467 328.239 396.551 328.072 395.739 327.737C394.927 327.387 394.234 326.909 393.66 326.304C393.103 325.698 392.673 325.005 392.37 324.225C392.068 323.444 391.916 322.624 391.916 321.764C391.916 320.888 392.068 320.06 392.37 319.279C392.673 318.499 393.103 317.806 393.66 317.201C394.234 316.595 394.927 316.125 395.739 315.791C396.551 315.44 397.467 315.265 398.487 315.265C399.506 315.265 400.414 315.44 401.21 315.791C402.023 316.125 402.716 316.595 403.289 317.201C403.862 317.806 404.293 318.499 404.579 319.279C404.882 320.06 405.033 320.888 405.033 321.764C405.033 322.624 404.882 323.444 404.579 324.225C404.293 325.005 403.862 325.698 403.289 326.304C402.732 326.909 402.047 327.387 401.234 327.737C400.422 328.072 399.506 328.239 398.487 328.239ZM395.213 321.764C395.213 322.497 395.357 323.15 395.643 323.723C395.93 324.281 396.32 324.719 396.814 325.037C397.308 325.356 397.865 325.515 398.487 325.515C399.092 325.515 399.641 325.356 400.135 325.037C400.629 324.703 401.019 324.257 401.306 323.699C401.609 323.126 401.76 322.473 401.76 321.74C401.76 321.023 401.609 320.378 401.306 319.805C401.019 319.231 400.629 318.785 400.135 318.467C399.641 318.148 399.092 317.989 398.487 317.989C397.865 317.989 397.308 318.156 396.814 318.491C396.32 318.809 395.93 319.255 395.643 319.829C395.357 320.386 395.213 321.031 395.213 321.764ZM407.842 318.586H406.193V316.149H407.842V315.385C407.842 314.684 407.954 314.031 408.177 313.426C408.415 312.82 408.75 312.287 409.18 311.825C409.626 311.347 410.16 310.981 410.781 310.726C411.418 310.455 412.135 310.32 412.931 310.32C413.536 310.32 414.102 310.383 414.628 310.511C415.169 310.638 415.679 310.821 416.157 311.06C416.65 311.299 417.12 311.57 417.566 311.873L416.3 314.262C415.886 313.895 415.4 313.601 414.843 313.378C414.285 313.155 413.72 313.043 413.146 313.043C412.684 313.043 412.294 313.147 411.975 313.354C411.657 313.561 411.418 313.832 411.259 314.166C411.115 314.501 411.044 314.867 411.044 315.265V316.149H417.757V328H414.556V318.586H411.044V328H407.842V318.586ZM419.797 324.297C419.797 323.484 420.02 322.775 420.466 322.17C420.928 321.549 421.565 321.071 422.377 320.737C423.19 320.402 424.121 320.235 425.173 320.235C425.698 320.235 426.232 320.275 426.774 320.354C427.315 320.434 427.785 320.561 428.183 320.737V320.068C428.183 319.271 427.944 318.658 427.466 318.228C427.005 317.798 426.312 317.583 425.388 317.583C424.703 317.583 424.05 317.702 423.429 317.941C422.807 318.18 422.154 318.531 421.469 318.993L420.442 316.89C421.27 316.348 422.114 315.942 422.975 315.671C423.851 315.401 424.767 315.265 425.722 315.265C427.506 315.265 428.892 315.711 429.88 316.603C430.883 317.495 431.385 318.77 431.385 320.426V324.416C431.385 324.751 431.441 324.99 431.552 325.133C431.679 325.276 431.879 325.364 432.149 325.396V328C431.863 328.048 431.6 328.088 431.361 328.119C431.138 328.151 430.947 328.167 430.787 328.167C430.15 328.167 429.665 328.024 429.33 327.737C429.011 327.45 428.812 327.1 428.733 326.686L428.661 326.041C428.119 326.742 427.443 327.283 426.63 327.666C425.818 328.048 424.99 328.239 424.145 328.239C423.317 328.239 422.568 328.072 421.899 327.737C421.246 327.387 420.729 326.917 420.346 326.328C419.98 325.722 419.797 325.045 419.797 324.297ZM427.586 324.942C427.761 324.751 427.904 324.559 428.016 324.368C428.127 324.177 428.183 324.002 428.183 323.843V322.576C427.801 322.417 427.387 322.298 426.941 322.218C426.495 322.122 426.073 322.075 425.674 322.075C424.846 322.075 424.161 322.258 423.62 322.624C423.094 322.975 422.831 323.444 422.831 324.034C422.831 324.352 422.919 324.655 423.094 324.942C423.269 325.228 423.524 325.459 423.859 325.635C424.193 325.81 424.591 325.897 425.053 325.897C425.531 325.897 426.001 325.81 426.463 325.635C426.925 325.443 427.299 325.213 427.586 324.942ZM437.302 328L432.691 315.48H436.012L439.166 325.085L442.343 315.48H445.378L440.79 328H437.302ZM454.189 328.239C453.234 328.239 452.382 328.024 451.633 327.594C450.884 327.164 450.295 326.574 449.865 325.826V328H447.07V310.558H450.271V317.678C450.717 316.93 451.298 316.34 452.015 315.91C452.748 315.48 453.6 315.265 454.572 315.265C455.384 315.265 456.125 315.44 456.794 315.791C457.463 316.125 458.036 316.595 458.514 317.201C459.008 317.806 459.382 318.499 459.637 319.279C459.908 320.06 460.043 320.896 460.043 321.788C460.043 322.68 459.892 323.516 459.589 324.297C459.302 325.077 458.896 325.77 458.371 326.375C457.845 326.965 457.224 327.427 456.507 327.761C455.806 328.08 455.034 328.239 454.189 328.239ZM453.305 325.515C453.815 325.515 454.277 325.42 454.691 325.228C455.121 325.021 455.488 324.751 455.79 324.416C456.109 324.082 456.348 323.691 456.507 323.245C456.682 322.783 456.77 322.306 456.77 321.812C456.77 321.127 456.627 320.498 456.34 319.924C456.069 319.335 455.687 318.865 455.193 318.515C454.715 318.164 454.15 317.989 453.497 317.989C453.035 317.989 452.589 318.101 452.159 318.324C451.744 318.531 451.37 318.817 451.036 319.184C450.717 319.55 450.462 319.964 450.271 320.426V323.413C450.367 323.731 450.518 324.018 450.725 324.273C450.948 324.528 451.203 324.751 451.49 324.942C451.776 325.117 452.071 325.26 452.374 325.372C452.692 325.467 453.003 325.515 453.305 325.515ZM461.352 324.297C461.352 323.484 461.575 322.775 462.021 322.17C462.483 321.549 463.12 321.071 463.933 320.737C464.745 320.402 465.677 320.235 466.728 320.235C467.254 320.235 467.787 320.275 468.329 320.354C468.87 320.434 469.34 320.561 469.738 320.737V320.068C469.738 319.271 469.5 318.658 469.022 318.228C468.56 317.798 467.867 317.583 466.943 317.583C466.258 317.583 465.605 317.702 464.984 317.941C464.363 318.18 463.71 318.531 463.025 318.993L461.997 316.89C462.826 316.348 463.67 315.942 464.53 315.671C465.406 315.401 466.322 315.265 467.278 315.265C469.062 315.265 470.447 315.711 471.435 316.603C472.438 317.495 472.94 318.77 472.94 320.426V324.416C472.94 324.751 472.996 324.99 473.107 325.133C473.235 325.276 473.434 325.364 473.705 325.396V328C473.418 328.048 473.155 328.088 472.916 328.119C472.693 328.151 472.502 328.167 472.343 328.167C471.706 328.167 471.22 328.024 470.885 327.737C470.567 327.45 470.368 327.1 470.288 326.686L470.216 326.041C469.675 326.742 468.998 327.283 468.185 327.666C467.373 328.048 466.545 328.239 465.701 328.239C464.872 328.239 464.124 328.072 463.455 327.737C462.802 327.387 462.284 326.917 461.902 326.328C461.535 325.722 461.352 325.045 461.352 324.297ZM469.141 324.942C469.316 324.751 469.46 324.559 469.571 324.368C469.683 324.177 469.738 324.002 469.738 323.843V322.576C469.356 322.417 468.942 322.298 468.496 322.218C468.05 322.122 467.628 322.075 467.23 322.075C466.402 322.075 465.717 322.258 465.175 322.624C464.649 322.975 464.387 323.444 464.387 324.034C464.387 324.352 464.474 324.655 464.649 324.942C464.825 325.228 465.079 325.459 465.414 325.635C465.748 325.81 466.147 325.897 466.609 325.897C467.086 325.897 467.556 325.81 468.018 325.635C468.48 325.443 468.854 325.213 469.141 324.942ZM480.543 328.239C479.476 328.239 478.457 328.064 477.485 327.713C476.513 327.363 475.677 326.845 474.976 326.16L476.123 324.082C476.872 324.687 477.604 325.133 478.321 325.42C479.054 325.706 479.755 325.85 480.424 325.85C481.045 325.85 481.539 325.738 481.905 325.515C482.287 325.292 482.478 324.958 482.478 324.512C482.478 324.209 482.375 323.978 482.168 323.819C481.961 323.644 481.658 323.492 481.26 323.365C480.878 323.237 480.408 323.094 479.85 322.935C478.926 322.632 478.154 322.337 477.533 322.051C476.911 321.764 476.442 321.406 476.123 320.976C475.82 320.53 475.669 319.964 475.669 319.279C475.669 318.451 475.876 317.742 476.29 317.153C476.72 316.548 477.31 316.078 478.058 315.743C478.823 315.409 479.715 315.241 480.734 315.241C481.626 315.241 482.47 315.385 483.267 315.671C484.063 315.942 484.788 316.388 485.441 317.009L484.151 319.04C483.514 318.547 482.909 318.188 482.335 317.965C481.762 317.726 481.18 317.607 480.591 317.607C480.256 317.607 479.938 317.647 479.635 317.726C479.349 317.806 479.11 317.941 478.918 318.132C478.743 318.308 478.656 318.562 478.656 318.897C478.656 319.2 478.735 319.439 478.895 319.614C479.07 319.773 479.325 319.916 479.659 320.044C480.01 320.171 480.432 320.315 480.925 320.474C481.929 320.761 482.773 321.055 483.458 321.358C484.159 321.661 484.685 322.035 485.035 322.481C485.385 322.911 485.561 323.508 485.561 324.273C485.561 325.515 485.107 326.487 484.199 327.188C483.291 327.889 482.072 328.239 480.543 328.239ZM495.17 327.355C494.9 327.466 494.573 327.594 494.191 327.737C493.809 327.881 493.394 327.992 492.948 328.072C492.518 328.167 492.08 328.215 491.634 328.215C491.045 328.215 490.503 328.111 490.01 327.904C489.516 327.697 489.118 327.371 488.815 326.925C488.528 326.463 488.385 325.866 488.385 325.133V317.941H486.736V315.48H488.385V311.419H491.587V315.48H494.215V317.941H491.587V324.058C491.602 324.488 491.722 324.798 491.945 324.99C492.168 325.181 492.447 325.276 492.781 325.276C493.116 325.276 493.442 325.221 493.761 325.109C494.079 324.998 494.334 324.902 494.525 324.822L495.17 327.355ZM502.48 328.239C501.46 328.239 500.545 328.072 499.732 327.737C498.92 327.387 498.227 326.909 497.654 326.304C497.096 325.698 496.666 325.005 496.363 324.225C496.061 323.444 495.909 322.624 495.909 321.764C495.909 320.888 496.061 320.06 496.363 319.279C496.666 318.499 497.096 317.806 497.654 317.201C498.227 316.595 498.92 316.125 499.732 315.791C500.545 315.44 501.46 315.265 502.48 315.265C503.499 315.265 504.407 315.44 505.204 315.791C506.016 316.125 506.709 316.595 507.282 317.201C507.856 317.806 508.286 318.499 508.572 319.279C508.875 320.06 509.026 320.888 509.026 321.764C509.026 322.624 508.875 323.444 508.572 324.225C508.286 325.005 507.856 325.698 507.282 326.304C506.725 326.909 506.04 327.387 505.228 327.737C504.415 328.072 503.499 328.239 502.48 328.239ZM499.207 321.764C499.207 322.497 499.35 323.15 499.637 323.723C499.923 324.281 500.314 324.719 500.807 325.037C501.301 325.356 501.859 325.515 502.48 325.515C503.085 325.515 503.635 325.356 504.128 325.037C504.622 324.703 505.012 324.257 505.299 323.699C505.602 323.126 505.753 322.473 505.753 321.74C505.753 321.023 505.602 320.378 505.299 319.805C505.012 319.231 504.622 318.785 504.128 318.467C503.635 318.148 503.085 317.989 502.48 317.989C501.859 317.989 501.301 318.156 500.807 318.491C500.314 318.809 499.923 319.255 499.637 319.829C499.35 320.386 499.207 321.031 499.207 321.764ZM515.799 328.239C514.731 328.239 513.712 328.064 512.74 327.713C511.769 327.363 510.933 326.845 510.232 326.16L511.379 324.082C512.127 324.687 512.86 325.133 513.577 325.42C514.309 325.706 515.01 325.85 515.679 325.85C516.3 325.85 516.794 325.738 517.161 325.515C517.543 325.292 517.734 324.958 517.734 324.512C517.734 324.209 517.63 323.978 517.423 323.819C517.216 323.644 516.914 323.492 516.515 323.365C516.133 323.237 515.663 323.094 515.106 322.935C514.182 322.632 513.409 322.337 512.788 322.051C512.167 321.764 511.697 321.406 511.379 320.976C511.076 320.53 510.925 319.964 510.925 319.279C510.925 318.451 511.132 317.742 511.546 317.153C511.976 316.548 512.565 316.078 513.314 315.743C514.078 315.409 514.97 315.241 515.99 315.241C516.882 315.241 517.726 315.385 518.522 315.671C519.319 315.942 520.044 316.388 520.697 317.009L519.406 319.04C518.769 318.547 518.164 318.188 517.591 317.965C517.017 317.726 516.436 317.607 515.846 317.607C515.512 317.607 515.193 317.647 514.891 317.726C514.604 317.806 514.365 317.941 514.174 318.132C513.999 318.308 513.911 318.562 513.911 318.897C513.911 319.2 513.991 319.439 514.15 319.614C514.325 319.773 514.58 319.916 514.915 320.044C515.265 320.171 515.687 320.315 516.181 320.474C517.184 320.761 518.029 321.055 518.714 321.358C519.414 321.661 519.94 322.035 520.29 322.481C520.641 322.911 520.816 323.508 520.816 324.273C520.816 325.515 520.362 326.487 519.454 327.188C518.546 327.889 517.328 328.239 515.799 328.239ZM531.619 313.593C532.798 313.593 533.921 313.792 534.988 314.19C536.055 314.572 537.003 315.154 537.831 315.934C538.675 316.699 539.336 317.655 539.814 318.801C540.292 319.932 540.531 321.23 540.531 322.696C540.531 322.967 540.507 323.333 540.459 323.795C540.427 324.257 540.348 324.751 540.22 325.276C540.093 325.802 539.894 326.304 539.623 326.781C539.368 327.243 539.01 327.626 538.548 327.928C538.102 328.231 537.536 328.382 536.851 328.382C536.278 328.382 535.832 328.279 535.513 328.072C535.211 327.881 534.988 327.634 534.844 327.331C534.717 327.028 534.629 326.726 534.582 326.423C534.088 326.917 533.49 327.315 532.79 327.618C532.089 327.904 531.332 328.048 530.52 328.048C529.341 328.048 528.433 327.737 527.796 327.116C527.175 326.479 526.864 325.674 526.864 324.703C526.864 323.827 527.079 323.142 527.509 322.648C527.955 322.138 528.521 321.772 529.206 321.549C529.907 321.326 530.615 321.215 531.332 321.215C531.969 321.215 532.519 321.278 532.981 321.406C533.443 321.517 533.793 321.629 534.032 321.74C534.032 321.167 533.952 320.657 533.793 320.211C533.65 319.765 533.379 319.423 532.981 319.184C532.583 318.929 532.025 318.801 531.308 318.801C530.655 318.801 530.058 318.897 529.516 319.088C528.975 319.279 528.513 319.534 528.131 319.853L527.509 318.156C528.099 317.758 528.736 317.463 529.421 317.272C530.122 317.065 530.854 316.962 531.619 316.962C532.654 316.962 533.467 317.121 534.056 317.439C534.645 317.742 535.067 318.148 535.322 318.658C535.593 319.152 535.76 319.693 535.824 320.283C535.904 320.856 535.943 321.414 535.943 321.955V324.249C535.943 324.711 535.967 325.149 536.015 325.563C536.063 325.977 536.174 326.312 536.35 326.566C536.525 326.821 536.796 326.949 537.162 326.949C537.592 326.949 537.942 326.797 538.213 326.495C538.484 326.176 538.691 325.778 538.834 325.3C538.978 324.822 539.073 324.344 539.121 323.867C539.169 323.373 539.193 322.967 539.193 322.648C539.193 321.533 539.01 320.506 538.643 319.566C538.277 318.61 537.751 317.782 537.066 317.081C536.381 316.38 535.569 315.839 534.629 315.456C533.705 315.074 532.67 314.883 531.523 314.883C530.408 314.883 529.381 315.074 528.441 315.456C527.501 315.823 526.689 316.348 526.004 317.033C525.335 317.718 524.81 318.531 524.427 319.47C524.061 320.394 523.878 321.406 523.878 322.505C523.878 323.572 524.053 324.575 524.403 325.515C524.754 326.439 525.248 327.251 525.885 327.952C526.538 328.653 527.318 329.203 528.226 329.601C529.134 329.999 530.146 330.198 531.26 330.198C532.009 330.198 532.67 330.111 533.244 329.935C533.817 329.76 534.398 329.545 534.988 329.29L535.37 330.533C534.717 330.851 534.032 331.09 533.315 331.249C532.614 331.409 531.914 331.488 531.213 331.488C530.018 331.488 528.895 331.273 527.844 330.843C526.793 330.413 525.869 329.8 525.072 329.003C524.292 328.207 523.671 327.259 523.209 326.16C522.763 325.061 522.54 323.843 522.54 322.505C522.54 321.087 522.787 319.829 523.28 318.73C523.774 317.615 524.443 316.683 525.287 315.934C526.132 315.17 527.095 314.588 528.178 314.19C529.277 313.792 530.424 313.593 531.619 313.593ZM532.79 325.921C533.076 325.778 533.307 325.619 533.482 325.443C533.674 325.252 533.809 325.053 533.889 324.846C533.968 324.623 534.008 324.392 534.008 324.153V323.245C533.785 323.182 533.435 323.086 532.957 322.959C532.479 322.815 531.937 322.744 531.332 322.744C530.838 322.744 530.4 322.807 530.018 322.935C529.636 323.046 529.333 323.245 529.11 323.532C528.887 323.819 528.776 324.185 528.776 324.631C528.776 324.998 528.855 325.316 529.015 325.587C529.174 325.842 529.397 326.041 529.684 326.184C529.97 326.328 530.313 326.399 530.711 326.399C531.03 326.399 531.38 326.359 531.762 326.28C532.145 326.2 532.487 326.081 532.79 325.921ZM548.958 328.239C547.939 328.239 547.023 328.072 546.211 327.737C545.398 327.387 544.705 326.909 544.132 326.304C543.575 325.698 543.144 325.005 542.842 324.225C542.539 323.444 542.388 322.624 542.388 321.764C542.388 320.888 542.539 320.06 542.842 319.279C543.144 318.499 543.575 317.806 544.132 317.201C544.705 316.595 545.398 316.125 546.211 315.791C547.023 315.44 547.939 315.265 548.958 315.265C549.978 315.265 550.886 315.44 551.682 315.791C552.494 316.125 553.187 316.595 553.761 317.201C554.334 317.806 554.764 318.499 555.051 319.279C555.354 320.06 555.505 320.888 555.505 321.764C555.505 322.624 555.354 323.444 555.051 324.225C554.764 325.005 554.334 325.698 553.761 326.304C553.203 326.909 552.518 327.387 551.706 327.737C550.894 328.072 549.978 328.239 548.958 328.239ZM545.685 321.764C545.685 322.497 545.828 323.15 546.115 323.723C546.402 324.281 546.792 324.719 547.286 325.037C547.78 325.356 548.337 325.515 548.958 325.515C549.564 325.515 550.113 325.356 550.607 325.037C551.101 324.703 551.491 324.257 551.778 323.699C552.08 323.126 552.232 322.473 552.232 321.74C552.232 321.023 552.08 320.378 551.778 319.805C551.491 319.231 551.101 318.785 550.607 318.467C550.113 318.148 549.564 317.989 548.958 317.989C548.337 317.989 547.78 318.156 547.286 318.491C546.792 318.809 546.402 319.255 546.115 319.829C545.828 320.386 545.685 321.031 545.685 321.764ZM557.546 323.317V315.48H560.748V322.624C560.748 323.58 560.923 324.305 561.274 324.798C561.624 325.276 562.142 325.515 562.827 325.515C563.241 325.515 563.647 325.436 564.045 325.276C564.459 325.101 564.834 324.846 565.168 324.512C565.519 324.177 565.813 323.755 566.052 323.245V315.48H569.254V324.416C569.254 324.751 569.309 324.99 569.421 325.133C569.548 325.276 569.748 325.364 570.018 325.396V328C569.7 328.048 569.429 328.08 569.206 328.096C568.999 328.127 568.808 328.143 568.633 328.143C568.059 328.143 567.589 328.016 567.223 327.761C566.872 327.49 566.665 327.124 566.602 326.662L566.53 325.659C565.972 326.503 565.256 327.148 564.38 327.594C563.504 328.024 562.54 328.239 561.489 328.239C560.198 328.239 559.219 327.825 558.55 326.997C557.881 326.152 557.546 324.926 557.546 323.317ZM579.891 327.355C579.62 327.466 579.294 327.594 578.911 327.737C578.529 327.881 578.115 327.992 577.669 328.072C577.239 328.167 576.801 328.215 576.355 328.215C575.766 328.215 575.224 328.111 574.73 327.904C574.236 327.697 573.838 327.371 573.536 326.925C573.249 326.463 573.105 325.866 573.105 325.133V317.941H571.457V315.48H573.105V311.419H576.307V315.48H578.935V317.941H576.307V324.058C576.323 324.488 576.442 324.798 576.665 324.99C576.888 325.181 577.167 325.276 577.502 325.276C577.836 325.276 578.163 325.221 578.481 325.109C578.8 324.998 579.055 324.902 579.246 324.822L579.891 327.355ZM581.535 310.558H584.736V323.986C584.736 324.559 584.832 324.95 585.023 325.157C585.214 325.348 585.477 325.443 585.811 325.443C586.066 325.443 586.329 325.412 586.6 325.348C586.871 325.284 587.109 325.205 587.317 325.109L587.747 327.546C587.317 327.753 586.815 327.912 586.241 328.024C585.668 328.135 585.15 328.191 584.688 328.191C583.685 328.191 582.904 327.928 582.347 327.403C581.805 326.861 581.535 326.097 581.535 325.109V310.558ZM594.923 328.239C593.904 328.239 592.988 328.072 592.176 327.737C591.363 327.387 590.671 326.909 590.097 326.304C589.54 325.698 589.11 325.005 588.807 324.225C588.504 323.444 588.353 322.624 588.353 321.764C588.353 320.888 588.504 320.06 588.807 319.279C589.11 318.499 589.54 317.806 590.097 317.201C590.671 316.595 591.363 316.125 592.176 315.791C592.988 315.44 593.904 315.265 594.923 315.265C595.943 315.265 596.851 315.44 597.647 315.791C598.46 316.125 599.152 316.595 599.726 317.201C600.299 317.806 600.729 318.499 601.016 319.279C601.319 320.06 601.47 320.888 601.47 321.764C601.47 322.624 601.319 323.444 601.016 324.225C600.729 325.005 600.299 325.698 599.726 326.304C599.168 326.909 598.483 327.387 597.671 327.737C596.859 328.072 595.943 328.239 594.923 328.239ZM591.65 321.764C591.65 322.497 591.794 323.15 592.08 323.723C592.367 324.281 592.757 324.719 593.251 325.037C593.745 325.356 594.302 325.515 594.923 325.515C595.529 325.515 596.078 325.356 596.572 325.037C597.066 324.703 597.456 324.257 597.743 323.699C598.045 323.126 598.197 322.473 598.197 321.74C598.197 321.023 598.045 320.378 597.743 319.805C597.456 319.231 597.066 318.785 596.572 318.467C596.078 318.148 595.529 317.989 594.923 317.989C594.302 317.989 593.745 318.156 593.251 318.491C592.757 318.809 592.367 319.255 592.08 319.829C591.794 320.386 591.65 321.031 591.65 321.764ZM609.413 328.239C608.394 328.239 607.478 328.072 606.665 327.737C605.853 327.387 605.16 326.909 604.587 326.304C604.029 325.698 603.599 325.005 603.297 324.225C602.994 323.444 602.843 322.624 602.843 321.764C602.843 320.888 602.994 320.06 603.297 319.279C603.599 318.499 604.029 317.806 604.587 317.201C605.16 316.595 605.853 316.125 606.665 315.791C607.478 315.44 608.394 315.265 609.413 315.265C610.432 315.265 611.34 315.44 612.137 315.791C612.949 316.125 613.642 316.595 614.215 317.201C614.789 317.806 615.219 318.499 615.506 319.279C615.808 320.06 615.96 320.888 615.96 321.764C615.96 322.624 615.808 323.444 615.506 324.225C615.219 325.005 614.789 325.698 614.215 326.304C613.658 326.909 612.973 327.387 612.161 327.737C611.348 328.072 610.432 328.239 609.413 328.239ZM606.14 321.764C606.14 322.497 606.283 323.15 606.57 323.723C606.856 324.281 607.247 324.719 607.741 325.037C608.234 325.356 608.792 325.515 609.413 325.515C610.018 325.515 610.568 325.356 611.062 325.037C611.555 324.703 611.946 324.257 612.232 323.699C612.535 323.126 612.686 322.473 612.686 321.74C612.686 321.023 612.535 320.378 612.232 319.805C611.946 319.231 611.555 318.785 611.062 318.467C610.568 318.148 610.018 317.989 609.413 317.989C608.792 317.989 608.234 318.156 607.741 318.491C607.247 318.809 606.856 319.255 606.57 319.829C606.283 320.386 606.14 321.031 606.14 321.764ZM626.674 328L623.018 322.6L621.322 324.273V328H618.121V310.558H621.322V321.119L626.363 315.504H629.756L625.097 320.808L630.091 328H626.674ZM631.372 328V324.559H634V328H631.372ZM642.383 328.239C641.364 328.239 640.448 328.072 639.635 327.737C638.823 327.387 638.13 326.909 637.557 326.304C636.983 325.682 636.537 324.982 636.219 324.201C635.916 323.421 635.765 322.6 635.765 321.74C635.765 320.561 636.028 319.486 636.553 318.515C637.095 317.527 637.859 316.739 638.847 316.149C639.834 315.56 641.005 315.265 642.359 315.265C643.713 315.265 644.876 315.56 645.847 316.149C646.819 316.739 647.544 317.511 648.022 318.467L644.892 319.423C644.621 318.961 644.263 318.61 643.817 318.371C643.371 318.116 642.877 317.989 642.335 317.989C641.73 317.989 641.172 318.148 640.663 318.467C640.169 318.77 639.779 319.208 639.492 319.781C639.205 320.338 639.062 320.992 639.062 321.74C639.062 322.473 639.205 323.126 639.492 323.699C639.795 324.257 640.193 324.703 640.687 325.037C641.18 325.356 641.73 325.515 642.335 325.515C642.718 325.515 643.076 325.451 643.41 325.324C643.761 325.197 644.071 325.021 644.342 324.798C644.613 324.575 644.812 324.321 644.94 324.034L648.069 324.99C647.783 325.611 647.361 326.168 646.803 326.662C646.262 327.156 645.616 327.546 644.868 327.833C644.135 328.104 643.307 328.239 642.383 328.239ZM655.705 328.239C654.685 328.239 653.77 328.072 652.957 327.737C652.145 327.387 651.452 326.909 650.879 326.304C650.321 325.698 649.891 325.005 649.588 324.225C649.286 323.444 649.134 322.624 649.134 321.764C649.134 320.888 649.286 320.06 649.588 319.279C649.891 318.499 650.321 317.806 650.879 317.201C651.452 316.595 652.145 316.125 652.957 315.791C653.77 315.44 654.685 315.265 655.705 315.265C656.724 315.265 657.632 315.44 658.429 315.791C659.241 316.125 659.934 316.595 660.507 317.201C661.081 317.806 661.511 318.499 661.797 319.279C662.1 320.06 662.251 320.888 662.251 321.764C662.251 322.624 662.1 323.444 661.797 324.225C661.511 325.005 661.081 325.698 660.507 326.304C659.95 326.909 659.265 327.387 658.452 327.737C657.64 328.072 656.724 328.239 655.705 328.239ZM652.432 321.764C652.432 322.497 652.575 323.15 652.862 323.723C653.148 324.281 653.539 324.719 654.032 325.037C654.526 325.356 655.084 325.515 655.705 325.515C656.31 325.515 656.86 325.356 657.353 325.037C657.847 324.703 658.237 324.257 658.524 323.699C658.827 323.126 658.978 322.473 658.978 321.74C658.978 321.023 658.827 320.378 658.524 319.805C658.237 319.231 657.847 318.785 657.353 318.467C656.86 318.148 656.31 317.989 655.705 317.989C655.084 317.989 654.526 318.156 654.032 318.491C653.539 318.809 653.148 319.255 652.862 319.829C652.575 320.386 652.432 321.031 652.432 321.764ZM683.861 328H680.659V320.976C680.659 319.988 680.484 319.263 680.134 318.801C679.799 318.324 679.329 318.085 678.724 318.085C678.103 318.085 677.505 318.331 676.932 318.825C676.375 319.303 675.976 319.932 675.737 320.713V328H672.536V320.976C672.536 319.972 672.361 319.239 672.01 318.777C671.676 318.316 671.206 318.085 670.601 318.085C669.979 318.085 669.382 318.324 668.809 318.801C668.251 319.279 667.853 319.908 667.614 320.689V328H664.412V315.48H667.303V317.798C667.781 316.986 668.418 316.364 669.215 315.934C670.011 315.488 670.927 315.265 671.962 315.265C672.998 315.265 673.802 315.52 674.376 316.03C674.965 316.54 675.339 317.169 675.498 317.917C676.008 317.057 676.653 316.404 677.434 315.958C678.23 315.496 679.122 315.265 680.11 315.265C680.89 315.265 681.519 315.409 681.997 315.695C682.491 315.966 682.873 316.34 683.144 316.818C683.415 317.28 683.598 317.806 683.694 318.395C683.805 318.985 683.861 319.582 683.861 320.187V328Z" fill="white"/>
</g>
</g>
<defs>
<linearGradient id="paint0_linear_1357_2421" x1="1485.27" y1="56.2017" x2="1399.93" y2="56.2751" gradientUnits="userSpaceOnUse">
<stop stop-color="white"/>
<stop offset="1" stop-color="#C6C6C6" stop-opacity="0.8"/>
</linearGradient>
<linearGradient id="paint1_linear_1357_2421" x1="1577.4" y1="49.4753" x2="1491.65" y2="49.4752" gradientUnits="userSpaceOnUse">
<stop stop-color="#819901"/>
<stop offset="1" stop-color="#D7FF01"/>
</linearGradient>
<linearGradient id="paint2_linear_1357_2421" x1="1492.74" y1="140.243" x2="1576.11" y2="140.438" gradientUnits="userSpaceOnUse">
<stop stop-color="#D7FF01"/>
<stop offset="1" stop-color="#819901"/>
</linearGradient>
<linearGradient id="paint3_linear_1357_2421" x1="49.4741" y1="98.9481" x2="49.474" y2="-5.5051e-06" gradientUnits="userSpaceOnUse">
<stop stop-color="#990DCE"/>
<stop offset="1" stop-color="#4D0768"/>
</linearGradient>
<linearGradient id="paint4_linear_1357_2421" x1="1470.27" y1="346.473" x2="1397.31" y2="346.473" gradientUnits="userSpaceOnUse">
<stop stop-color="#990DCE"/>
<stop offset="1" stop-color="#4D0768"/>
</linearGradient>
<linearGradient id="paint5_linear_1357_2421" x1="1433.83" y1="284.143" x2="1433.83" y2="198.396" gradientUnits="userSpaceOnUse">
<stop stop-color="#990DCE"/>
<stop offset="1" stop-color="#4D0768"/>
</linearGradient>
<linearGradient id="paint6_linear_1357_2421" x1="0" y1="49.4741" x2="98.9481" y2="49.474" gradientUnits="userSpaceOnUse">
<stop stop-color="#D7FF01"/>
<stop offset="1" stop-color="#819901"/>
</linearGradient>
<linearGradient id="paint7_linear_1357_2421" x1="1490.34" y1="339.028" x2="1574.47" y2="339.196" gradientUnits="userSpaceOnUse">
<stop stop-color="white"/>
<stop offset="1" stop-color="#C6C6C6" stop-opacity="0.8"/>
</linearGradient>
<linearGradient id="paint8_linear_1357_2421" x1="1334.52" y1="395.655" x2="1334.6" y2="481.066" gradientUnits="userSpaceOnUse">
<stop stop-color="white"/>
<stop offset="1" stop-color="#C6C6C6" stop-opacity="0.8"/>
</linearGradient>
<linearGradient id="paint9_linear_1357_2421" x1="1235.87" y1="408.857" x2="1235.87" y2="494.604" gradientUnits="userSpaceOnUse">
<stop stop-color="#D7FF01"/>
<stop offset="1" stop-color="#819901"/>
</linearGradient>
<linearGradient id="paint10_linear_1357_2421" x1="1236.06" y1="312.58" x2="1235.87" y2="395.949" gradientUnits="userSpaceOnUse">
<stop stop-color="#D7FF01"/>
<stop offset="1" stop-color="#819901"/>
</linearGradient>
<linearGradient id="paint11_linear_1357_2421" x1="98.9481" y1="49.474" x2="0" y2="49.474" gradientUnits="userSpaceOnUse">
<stop stop-color="#990DCE"/>
<stop offset="1" stop-color="#4D0768"/>
</linearGradient>
<linearGradient id="paint12_linear_1357_2421" x1="1038.88" y1="312.333" x2="1038.88" y2="382.463" gradientUnits="userSpaceOnUse">
<stop stop-color="white"/>
<stop offset="1" stop-color="#C6C6C6" stop-opacity="0.8"/>
</linearGradient>
<linearGradient id="paint13_linear_1357_2421" x1="1136.61" y1="311.587" x2="1136.93" y2="396.145" gradientUnits="userSpaceOnUse">
<stop stop-color="white"/>
<stop offset="1" stop-color="#C6C6C6"/>
</linearGradient>
<linearGradient id="paint14_linear_1357_2421" x1="1136.93" y1="410.068" x2="1136.93" y2="480.198" gradientUnits="userSpaceOnUse">
<stop stop-color="#D7FF01"/>
<stop offset="1" stop-color="#819901"/>
</linearGradient>
<linearGradient id="paint15_linear_1357_2421" x1="49.0725" y1="0" x2="49.0725" y2="98.145" gradientUnits="userSpaceOnUse">
<stop stop-color="#990DCE"/>
<stop offset="1" stop-color="#4D0768"/>
</linearGradient>
<linearGradient id="paint16_linear_1357_2421" x1="1335.22" y1="284.185" x2="1335.19" y2="212.353" gradientUnits="userSpaceOnUse">
<stop stop-color="#D7FF01"/>
<stop offset="1" stop-color="#819901"/>
</linearGradient>
<linearGradient id="paint17_linear_1357_2421" x1="1298.83" y1="149.822" x2="1370.67" y2="149.745" gradientUnits="userSpaceOnUse">
<stop stop-color="#990DCE"/>
<stop offset="1" stop-color="#4D0768"/>
</linearGradient>
<linearGradient id="paint18_linear_1357_2421" x1="49.474" y1="0" x2="49.474" y2="98.9481" gradientUnits="userSpaceOnUse">
<stop stop-color="#D7FF01"/>
<stop offset="1" stop-color="#819901"/>
</linearGradient>
<linearGradient id="paint19_linear_1357_2421" x1="49.474" y1="0" x2="49.474" y2="98.9481" gradientUnits="userSpaceOnUse">
<stop stop-color="white"/>
<stop offset="1" stop-color="#C6C6C6"/>
</linearGradient>
<clipPath id="clip0_1357_2421">
<rect width="1584" height="396" fill="white"/>
</clipPath>
<clipPath id="clip1_1357_2421">
<rect width="29.441" height="29.441" fill="white" transform="translate(342 306)"/>
</clipPath>
</defs>
</svg>
