<svg width="1255" height="281" viewBox="0 0 1255 281" fill="none" xmlns="http://www.w3.org/2000/svg">
<path d="M96.0189 134.798C96.0189 165.085 93.662 190.823 88.9483 212.012C84.2983 233.201 77.5462 249.404 68.6921 260.621C59.8379 271.714 49.0728 277.261 36.3967 277.261H0.374939V3.92615H38.6899C50.9201 3.92615 61.303 8.97405 69.8386 19.0699C78.3743 29.1657 84.8716 43.9355 89.3305 63.3792C93.7894 82.823 96.0189 106.629 96.0189 134.798ZM61.6215 137.415C61.6215 118.968 60.7297 104.074 58.9461 92.7319C57.2262 81.3897 54.6146 73.1634 51.1111 68.0532C47.6714 62.8184 43.3399 60.2009 38.1166 60.2009H33.6258V220.612H36.2056C44.9961 220.612 51.4296 213.882 55.5064 200.42C59.5831 186.959 61.6215 165.958 61.6215 137.415Z" fill="white"/>
<path d="M182.49 277.261H115.224V3.92615H182.49V59.0792H148.475V108.436H180.006V163.589H148.475V221.36H182.49V277.261Z" fill="white"/>
<path d="M300.015 3.92615L264.375 277.261H225.678L190.421 3.92615H225.296L239.342 138.724C239.979 144.707 240.679 152.06 241.444 160.785C242.272 169.51 243.004 178.172 243.641 186.772C244.278 195.373 244.724 202.415 244.979 207.899C245.361 202.415 245.871 195.435 246.508 186.959C247.208 178.359 247.941 169.759 248.705 161.159C249.533 152.434 250.266 145.08 250.903 139.098L265.14 3.92615H300.015Z" fill="white"/>
<path d="M422.81 20.3786L329.906 270.509H292.276L385 20.3786H422.81Z" fill="#D7FF01"/>
<path d="M451.099 3.92615H491.612C507.345 3.92615 519.034 9.41029 526.678 20.3786C534.322 31.3469 538.144 48.5471 538.144 71.9794C538.144 82.0752 537.38 91.2985 535.851 99.6494C534.322 107.876 532.188 114.793 529.449 120.402C526.774 126.011 523.621 129.937 519.99 132.18V134.05C524.831 136.917 528.748 141.217 531.742 146.95C534.736 152.559 536.934 159.601 538.335 168.077C539.8 176.427 540.533 186.149 540.533 197.242C540.533 213.695 538.717 227.904 535.086 239.869C531.456 251.834 526.264 261.058 519.512 267.539C512.824 274.02 504.829 277.261 495.529 277.261H451.099V3.92615ZM484.35 110.306H491.612C495.752 110.306 498.937 107.938 501.167 103.202C503.396 98.4653 504.511 91.4231 504.511 82.0752C504.511 73.5997 503.396 67.2431 501.167 63.0053C498.937 58.7676 495.561 56.6487 491.039 56.6487H484.35V110.306ZM484.35 161.159V223.23H492.95C497.472 223.23 500.848 220.674 503.078 215.564C505.307 210.329 506.422 202.415 506.422 191.82C506.422 185.339 505.88 179.855 504.798 175.368C503.778 170.756 502.218 167.266 500.116 164.898C498.077 162.405 495.561 161.159 492.567 161.159H484.35Z" fill="white"/>
<path d="M625.571 277.261L620.316 223.977H590.122L584.867 277.261H548.845L582.861 3.92615H626.717L661.21 277.261H625.571ZM615.156 168.077L609.519 106.941C608.882 100.086 608.276 93.4174 607.703 86.9361C607.194 80.4549 606.716 74.2852 606.27 68.4271C605.888 62.4444 605.537 56.898 605.219 51.7878C604.964 56.6487 604.614 62.0082 604.168 67.8663C603.786 73.7243 603.308 79.894 602.735 86.3752C602.161 92.7319 601.556 99.3378 600.919 106.193L594.995 168.077H615.156Z" fill="white"/>
<path d="M723.795 55.9009C720.546 55.9009 717.648 57.8951 715.1 61.8836C712.552 65.7474 710.418 71.4185 708.698 78.8969C706.978 86.2506 705.672 95.2247 704.78 105.819C703.889 116.413 703.443 128.379 703.443 141.715C703.443 160.162 704.239 175.555 705.831 187.894C707.488 200.234 709.94 209.457 713.189 215.564C716.437 221.672 720.514 224.725 725.419 224.725C729.941 224.725 734.273 223.043 738.413 219.677C742.617 216.312 746.822 212.261 751.026 207.525V265.856C746.567 270.966 741.726 274.768 736.502 277.261C731.343 279.754 725.865 281 720.068 281C708.984 281 699.621 275.64 691.977 264.921C684.397 254.202 678.632 238.436 674.683 217.621C670.797 196.806 668.854 171.379 668.854 141.341C668.854 120.277 670.033 101.083 672.389 83.7578C674.81 66.4329 678.282 51.5385 682.804 39.0745C687.327 26.6106 692.773 17.0133 699.143 10.2828C705.577 3.42759 712.838 0 720.928 0C727.107 0 733.031 1.558 738.7 4.67399C744.433 7.78998 750.102 12.6509 755.708 19.2568L746.917 72.7272C743.223 67.617 739.496 63.5662 735.738 60.5748C731.98 57.4589 727.999 55.9009 723.795 55.9009Z" fill="white"/>
<path d="M870.175 277.261H833.389L813.037 175.368L805.202 185.838V277.261H771.951V3.92615H805.202V122.645C805.775 117.161 806.699 111.552 807.973 105.819C809.31 100.086 810.807 94.0406 812.464 87.684L834.917 3.92615H870.748L837.115 126.385L870.175 277.261Z" fill="white"/>
<path d="M873.997 176.49V145.454H926.262V176.49H873.997Z" fill="#990DCE"/>
<path d="M1010.82 277.261H943.556V3.92615H1010.82V59.0792H976.807V108.436H1008.34V163.589H976.807V221.36H1010.82V277.261Z" fill="white"/>
<path d="M1135.61 277.261H1096.82L1060.41 107.315H1059.65C1060.03 117.286 1060.32 126.572 1060.51 135.172C1060.76 143.647 1060.92 151.375 1060.98 158.355C1061.11 165.21 1061.18 171.255 1061.18 176.49V277.261H1030.31V3.92615H1068.82L1105.03 169.198H1105.8C1105.54 159.975 1105.32 151.375 1105.13 143.398C1104.94 135.421 1104.78 128.067 1104.65 121.337C1104.52 114.606 1104.46 108.499 1104.46 103.015V3.92615H1135.61V277.261Z" fill="white"/>
<path d="M1254.37 134.798C1254.37 165.085 1252.02 190.823 1247.3 212.012C1242.65 233.201 1235.9 249.404 1227.05 260.621C1218.19 271.714 1207.43 277.261 1194.75 277.261H1158.73V3.92615H1197.05C1209.28 3.92615 1219.66 8.97405 1228.19 19.0699C1236.73 29.1657 1243.23 43.9355 1247.69 63.3792C1252.15 82.823 1254.37 106.629 1254.37 134.798ZM1219.98 137.415C1219.98 118.968 1219.09 104.074 1217.3 92.7319C1215.58 81.3897 1212.97 73.1634 1209.47 68.0532C1206.03 62.8184 1201.7 60.2009 1196.47 60.2009H1191.98V220.612H1194.56C1203.35 220.612 1209.79 213.882 1213.86 200.42C1217.94 186.959 1219.98 165.958 1219.98 137.415Z" fill="white"/>
</svg>
