<svg width="1312" height="281" viewBox="0 0 1312 281" fill="none" xmlns="http://www.w3.org/2000/svg">
<path d="M100.068 134.798C100.068 165.085 97.6018 190.823 92.6701 212.012C87.805 233.201 80.7406 249.404 71.4769 260.621C62.2132 271.714 50.9502 277.261 37.6878 277.261H0V3.92615H40.0871C52.8829 3.92615 63.7461 8.97405 72.6765 19.0699C81.607 29.1657 88.4048 43.9355 93.07 63.3792C97.7351 82.823 100.068 106.629 100.068 134.798ZM64.0793 137.415C64.0793 118.968 63.1463 104.074 61.2802 92.7319C59.4808 81.3897 56.7483 73.1634 53.0829 68.0532C49.484 62.8184 44.9522 60.2009 39.4873 60.2009H34.7888V220.612H37.4879C46.6849 220.612 53.4161 213.882 57.6814 200.42C61.9467 186.959 64.0793 165.958 64.0793 137.415Z" fill="white"/>
<path d="M190.538 277.261H120.161V3.92615H190.538V59.0792H154.95V108.436H187.939V163.589H154.95V221.36H190.538V277.261Z" fill="white"/>
<path d="M313.499 3.92615L276.211 277.261H235.724L198.836 3.92615H235.324L250.019 138.724C250.686 144.707 251.419 152.06 252.219 160.785C253.085 169.51 253.851 178.172 254.518 186.772C255.184 195.373 255.651 202.415 255.917 207.899C256.317 202.415 256.85 195.435 257.517 186.959C258.25 178.359 259.016 169.759 259.816 161.159C260.682 152.434 261.449 145.08 262.115 139.098L277.011 3.92615H313.499Z" fill="white"/>
<path d="M441.973 20.3786L344.772 270.509H305.402L402.415 20.3786H441.973Z" fill="#D7FF01"/>
<path d="M471.571 3.92615H513.958C530.419 3.92615 542.648 9.41029 550.646 20.3786C558.643 31.3469 562.642 48.5471 562.642 71.9794C562.642 82.0752 561.842 91.2985 560.243 99.6494C558.643 107.876 556.411 114.793 553.545 120.402C550.746 126.011 547.447 129.937 543.648 132.18V134.05C548.713 136.917 552.812 141.217 555.944 146.95C559.076 152.559 561.376 159.601 562.842 168.077C564.375 176.427 565.141 186.149 565.141 197.242C565.141 213.695 563.242 227.904 559.443 239.869C555.644 251.834 550.213 261.058 543.148 267.539C536.15 274.02 527.786 277.261 518.056 277.261H471.571V3.92615ZM506.36 110.306H513.958C518.29 110.306 521.622 107.938 523.954 103.202C526.287 98.4653 527.453 91.4231 527.453 82.0752C527.453 73.5997 526.287 67.2431 523.954 63.0053C521.622 58.7676 518.09 56.6487 513.358 56.6487H506.36V110.306ZM506.36 161.159V223.23H515.357C520.089 223.23 523.621 220.674 525.954 215.564C528.286 210.329 529.453 202.415 529.453 191.82C529.453 185.339 528.886 179.855 527.753 175.368C526.687 170.756 525.054 167.266 522.855 164.898C520.722 162.405 518.09 161.159 514.957 161.159H506.36Z" fill="white"/>
<path d="M654.112 277.261L648.614 223.977H617.024L611.526 277.261H573.838L609.427 3.92615H655.312L691.4 277.261H654.112ZM643.216 168.077L637.318 106.941C636.651 100.086 636.018 93.4174 635.418 86.9361C634.885 80.4549 634.385 74.2852 633.919 68.4271C633.519 62.4444 633.152 56.898 632.819 51.7878C632.553 56.6487 632.186 62.0082 631.72 67.8663C631.32 73.7243 630.82 79.894 630.22 86.3752C629.62 92.7319 628.987 99.3378 628.321 106.193L622.123 168.077H643.216Z" fill="white"/>
<path d="M756.879 55.9009C753.48 55.9009 750.448 57.8951 747.782 61.8836C745.116 65.7474 742.884 71.4185 741.084 78.8969C739.285 86.2506 737.919 95.2247 736.986 105.819C736.053 116.413 735.586 128.379 735.586 141.715C735.586 160.162 736.419 175.555 738.085 187.894C739.818 200.234 742.384 209.457 745.783 215.564C749.182 221.672 753.447 224.725 758.579 224.725C763.31 224.725 767.842 223.043 772.174 219.677C776.573 216.312 780.971 212.261 785.37 207.525V265.856C780.705 270.966 775.64 274.768 770.175 277.261C764.777 279.754 759.045 281 752.98 281C741.384 281 731.587 275.64 723.59 264.921C715.659 254.202 709.628 238.436 705.496 217.621C701.43 196.806 699.398 171.379 699.398 141.341C699.398 120.277 700.631 101.083 703.097 83.7578C705.629 66.4329 709.261 51.5385 713.993 39.0745C718.725 26.6106 724.423 17.0133 731.088 10.2828C737.819 3.42759 745.416 0 753.88 0C760.345 0 766.543 1.558 772.474 4.67399C778.472 7.78998 784.404 12.6509 790.268 19.2568L781.071 72.7272C777.206 67.617 773.307 63.5662 769.375 60.5748C765.443 57.4589 761.278 55.9009 756.879 55.9009Z" fill="white"/>
<path d="M910.03 277.261H871.542L850.249 175.368L842.052 185.838V277.261H807.263V3.92615H842.052V122.645C842.651 117.161 843.618 111.552 844.951 105.819C846.35 100.086 847.917 94.0406 849.649 87.684L873.142 3.92615H910.63L875.441 126.385L910.03 277.261Z" fill="white"/>
<path d="M914.028 176.49V145.454H968.711V176.49H914.028Z" fill="#990DCE"/>
<path d="M1057.18 277.261H986.805V3.92615H1057.18V59.0792H1021.59V108.436H1054.58V163.589H1021.59V221.36H1057.18V277.261Z" fill="white"/>
<path d="M1187.74 277.261H1147.15L1109.07 107.315H1108.27C1108.67 117.286 1108.97 126.572 1109.17 135.172C1109.43 143.647 1109.6 151.375 1109.67 158.355C1109.8 165.21 1109.87 171.255 1109.87 176.49V277.261H1077.58V3.92615H1117.86L1155.75 169.198H1156.55C1156.28 159.975 1156.05 151.375 1155.85 143.398C1155.65 135.421 1155.48 128.067 1155.35 121.337C1155.22 114.606 1155.15 108.499 1155.15 103.015V3.92615H1187.74V277.261Z" fill="white"/>
<path d="M1312 134.798C1312 165.085 1309.53 190.823 1304.6 212.012C1299.74 233.201 1292.67 249.404 1283.41 260.621C1274.15 271.714 1262.88 277.261 1249.62 277.261H1211.93V3.92615H1252.02C1264.82 3.92615 1275.68 8.97405 1284.61 19.0699C1293.54 29.1657 1300.34 43.9355 1305 63.3792C1309.67 82.823 1312 106.629 1312 134.798ZM1276.01 137.415C1276.01 118.968 1275.08 104.074 1273.21 92.7319C1271.41 81.3897 1268.68 73.1634 1265.02 68.0532C1261.42 62.8184 1256.88 60.2009 1251.42 60.2009H1246.72V220.612H1249.42C1258.62 220.612 1265.35 213.882 1269.61 200.42C1273.88 186.959 1276.01 165.958 1276.01 137.415Z" fill="white"/>
</svg>
