<svg width="1312" height="281" viewBox="0 0 1312 281" fill="none" xmlns="http://www.w3.org/2000/svg">
<path d="M100.068 134.798C100.068 165.085 97.6018 190.823 92.6701 212.012C87.805 233.201 80.7406 249.404 71.4769 260.622C62.2132 271.714 50.9502 277.261 37.6878 277.261H0V3.92627H40.0871C52.8829 3.92627 63.7461 8.97417 72.6765 19.07C81.607 29.1658 88.4048 43.9356 93.07 63.3794C97.7351 82.8231 100.068 106.629 100.068 134.798ZM64.0793 137.415C64.0793 118.969 63.1463 104.074 61.2802 92.732C59.4808 81.3898 56.7483 73.1636 53.0829 68.0533C49.484 62.8185 44.9522 60.201 39.4873 60.201H34.7888V220.612H37.4879C46.6849 220.612 53.4161 213.882 57.6814 200.421C61.9467 186.96 64.0793 165.958 64.0793 137.415Z" fill="url(#paint0_linear_995_29)"/>
<path d="M190.538 277.261H120.161V3.92627H190.538V59.0793H154.95V108.437H187.939V163.59H154.95V221.36H190.538V277.261Z" fill="url(#paint1_linear_995_29)"/>
<path d="M313.499 3.92627L276.211 277.261H235.724L198.836 3.92627H235.324L250.019 138.724C250.686 144.707 251.419 152.06 252.219 160.785C253.085 169.51 253.851 178.172 254.518 186.773C255.184 195.373 255.651 202.415 255.917 207.899C256.317 202.415 256.85 195.435 257.517 186.96C258.25 178.359 259.016 169.759 259.816 161.159C260.682 152.434 261.449 145.081 262.115 139.098L277.011 3.92627H313.499Z" fill="url(#paint2_linear_995_29)"/>
<path d="M450.905 3.92627L330.5 277.261H291.13L411.347 3.92627H450.905Z" fill="url(#paint3_linear_995_29)"/>
<path d="M471.571 3.92627H513.958C530.419 3.92627 542.648 9.41041 550.646 20.3787C558.643 31.347 562.642 48.5472 562.642 71.9795C562.642 82.0753 561.842 91.2986 560.243 99.6495C558.643 107.876 556.411 114.793 553.545 120.402C550.746 126.011 547.447 129.937 543.648 132.18V134.05C548.713 136.917 552.812 141.217 555.944 146.95C559.076 152.559 561.376 159.601 562.842 168.077C564.375 176.427 565.141 186.149 565.141 197.242C565.141 213.695 563.242 227.904 559.443 239.869C555.644 251.834 550.213 261.058 543.148 267.539C536.15 274.02 527.786 277.261 518.056 277.261H471.571V3.92627ZM506.36 110.306H513.958C518.29 110.306 521.622 107.938 523.954 103.202C526.287 98.4654 527.453 91.4233 527.453 82.0753C527.453 73.5998 526.287 67.2432 523.954 63.0054C521.622 58.7677 518.09 56.6488 513.358 56.6488H506.36V110.306ZM506.36 161.159V223.23H515.357C520.089 223.23 523.621 220.675 525.954 215.564C528.286 210.329 529.453 202.415 529.453 191.82C529.453 185.339 528.886 179.855 527.753 175.368C526.687 170.756 525.054 167.266 522.855 164.898C520.722 162.406 518.09 161.159 514.957 161.159H506.36Z" fill="url(#paint4_linear_995_29)"/>
<path d="M654.112 277.261L648.614 223.977H617.024L611.526 277.261H573.838L609.427 3.92627H655.312L691.4 277.261H654.112ZM643.216 168.077L637.318 106.941C636.651 100.086 636.018 93.4175 635.418 86.9362C634.885 80.455 634.385 74.2853 633.919 68.4273C633.519 62.4446 633.153 56.8981 632.819 51.7879C632.553 56.6488 632.186 62.0083 631.72 67.8664C631.32 73.7244 630.82 79.8941 630.22 86.3754C629.62 92.732 628.987 99.3379 628.321 106.193L622.123 168.077H643.216Z" fill="url(#paint5_linear_995_29)"/>
<path d="M756.879 55.901C753.48 55.901 750.448 57.8952 747.782 61.8837C745.116 65.7475 742.884 71.4186 741.084 78.897C739.285 86.2507 737.919 95.2248 736.986 105.819C736.053 116.414 735.586 128.379 735.586 141.715C735.586 160.162 736.419 175.555 738.085 187.894C739.818 200.234 742.384 209.457 745.783 215.564C749.182 221.672 753.447 224.725 758.579 224.725C763.31 224.725 767.842 223.043 772.174 219.677C776.573 216.312 780.971 212.261 785.37 207.525V265.856C780.705 270.967 775.64 274.768 770.175 277.261C764.777 279.754 759.045 281 752.98 281C741.384 281 731.587 275.641 723.59 264.922C715.659 254.203 709.628 238.436 705.496 217.621C701.43 196.806 699.398 171.38 699.398 141.341C699.398 120.277 700.631 101.083 703.097 83.7579C705.629 66.433 709.261 51.5386 713.993 39.0746C718.725 26.6107 724.423 17.0134 731.088 10.2829C737.819 3.42771 745.416 0.00012207 753.88 0.00012207C760.345 0.00012207 766.543 1.55812 772.474 4.67411C778.472 7.7901 784.404 12.651 790.268 19.2569L781.071 72.7273C777.206 67.6171 773.307 63.5663 769.375 60.575C765.443 57.459 761.278 55.901 756.879 55.901Z" fill="url(#paint6_linear_995_29)"/>
<path d="M910.03 277.261H871.542L850.249 175.368L842.052 185.838V277.261H807.263V3.92627H842.052V122.645C842.652 117.161 843.618 111.553 844.951 105.819C846.35 100.086 847.917 94.0407 849.649 87.6841L873.142 3.92627H910.63L875.441 126.385L910.03 277.261Z" fill="url(#paint7_linear_995_29)"/>
<path d="M914.028 176.49V145.455H968.711V176.49H914.028Z" fill="url(#paint8_linear_995_29)"/>
<path d="M1057.18 277.261H986.805V3.92627H1057.18V59.0793H1021.59V108.437H1054.58V163.59H1021.59V221.36H1057.18V277.261Z" fill="url(#paint9_linear_995_29)"/>
<path d="M1187.74 277.261H1147.15L1109.07 107.315H1108.27C1108.67 117.286 1108.97 126.572 1109.17 135.172C1109.43 143.647 1109.6 151.375 1109.67 158.355C1109.8 165.21 1109.87 171.255 1109.87 176.49V277.261H1077.58V3.92627H1117.86L1155.75 169.198H1156.55C1156.28 159.975 1156.05 151.375 1155.85 143.398C1155.65 135.421 1155.48 128.067 1155.35 121.337C1155.22 114.606 1155.15 108.499 1155.15 103.015V3.92627H1187.74V277.261Z" fill="url(#paint10_linear_995_29)"/>
<path d="M1312 134.798C1312 165.085 1309.53 190.823 1304.6 212.012C1299.74 233.201 1292.67 249.404 1283.41 260.622C1274.15 271.714 1262.88 277.261 1249.62 277.261H1211.93V3.92627H1252.02C1264.82 3.92627 1275.68 8.97417 1284.61 19.07C1293.54 29.1658 1300.34 43.9356 1305 63.3794C1309.67 82.8231 1312 106.629 1312 134.798ZM1276.01 137.415C1276.01 118.969 1275.08 104.074 1273.21 92.732C1271.41 81.3898 1268.68 73.1636 1265.02 68.0533C1261.42 62.8185 1256.88 60.201 1251.42 60.201H1246.72V220.612H1249.42C1258.62 220.612 1265.35 213.882 1269.61 200.421C1273.88 186.96 1276.01 165.958 1276.01 137.415Z" fill="url(#paint11_linear_995_29)"/>
<defs>
<linearGradient id="paint0_linear_995_29" x1="656" y1="0.00012207" x2="656" y2="281" gradientUnits="userSpaceOnUse">
<stop offset="0.50438" stop-color="white"/>
<stop offset="1" stop-color="#6F6D6D"/>
</linearGradient>
<linearGradient id="paint1_linear_995_29" x1="656" y1="0.00012207" x2="656" y2="281" gradientUnits="userSpaceOnUse">
<stop offset="0.50438" stop-color="white"/>
<stop offset="1" stop-color="#6F6D6D"/>
</linearGradient>
<linearGradient id="paint2_linear_995_29" x1="656" y1="0.00012207" x2="656" y2="281" gradientUnits="userSpaceOnUse">
<stop offset="0.50438" stop-color="white"/>
<stop offset="1" stop-color="#6F6D6D"/>
</linearGradient>
<linearGradient id="paint3_linear_995_29" x1="421.5" y1="18.0001" x2="421.5" y2="268" gradientUnits="userSpaceOnUse">
<stop offset="0.49438" stop-color="#D7FF01"/>
<stop offset="1" stop-color="#7F940C"/>
</linearGradient>
<linearGradient id="paint4_linear_995_29" x1="656" y1="0.00012207" x2="656" y2="281" gradientUnits="userSpaceOnUse">
<stop offset="0.50438" stop-color="white"/>
<stop offset="1" stop-color="#6F6D6D"/>
</linearGradient>
<linearGradient id="paint5_linear_995_29" x1="656" y1="0.00012207" x2="656" y2="281" gradientUnits="userSpaceOnUse">
<stop offset="0.50438" stop-color="white"/>
<stop offset="1" stop-color="#6F6D6D"/>
</linearGradient>
<linearGradient id="paint6_linear_995_29" x1="656" y1="0.00012207" x2="656" y2="281" gradientUnits="userSpaceOnUse">
<stop offset="0.50438" stop-color="white"/>
<stop offset="1" stop-color="#6F6D6D"/>
</linearGradient>
<linearGradient id="paint7_linear_995_29" x1="656" y1="0.00012207" x2="656" y2="281" gradientUnits="userSpaceOnUse">
<stop offset="0.50438" stop-color="white"/>
<stop offset="1" stop-color="#6F6D6D"/>
</linearGradient>
<linearGradient id="paint8_linear_995_29" x1="939" y1="0.00012207" x2="939" y2="281" gradientUnits="userSpaceOnUse">
<stop offset="0.429849" stop-color="#990DCE"/>
<stop offset="0.621117" stop-color="#4D0768"/>
</linearGradient>
<linearGradient id="paint9_linear_995_29" x1="656" y1="0.00012207" x2="656" y2="281" gradientUnits="userSpaceOnUse">
<stop offset="0.50438" stop-color="white"/>
<stop offset="1" stop-color="#6F6D6D"/>
</linearGradient>
<linearGradient id="paint10_linear_995_29" x1="656" y1="0.00012207" x2="656" y2="281" gradientUnits="userSpaceOnUse">
<stop offset="0.50438" stop-color="white"/>
<stop offset="1" stop-color="#6F6D6D"/>
</linearGradient>
<linearGradient id="paint11_linear_995_29" x1="656" y1="0.00012207" x2="656" y2="281" gradientUnits="userSpaceOnUse">
<stop offset="0.50438" stop-color="white"/>
<stop offset="1" stop-color="#6F6D6D"/>
</linearGradient>
</defs>
</svg>
