<svg width="100" height="38" viewBox="0 0 100 38" fill="none" xmlns="http://www.w3.org/2000/svg">
<path d="M2.496 12.2907C2.496 10.2213 3.01867 8.728 4.064 7.81066C5.10933 6.89333 6.80533 6.43466 9.152 6.43466C10.7947 6.43466 12.1173 6.86133 13.12 7.71466C14.1227 8.568 14.848 9.86933 15.296 11.6187L12.32 13.8587H10.752L14.208 11.2667C13.76 9.83733 13.1093 8.83466 12.256 8.25866C11.424 7.68266 10.3893 7.39466 9.152 7.39466C8.29867 7.39466 7.57333 7.448 6.976 7.55466C6.4 7.66133 5.81333 7.87466 5.216 8.19466C4.64 8.49333 4.20267 8.984 3.904 9.66666C3.60533 10.3493 3.456 11.224 3.456 12.2907C3.456 13.2293 3.88267 14.0613 4.736 14.7867C5.61067 15.512 6.66667 16.1307 7.904 16.6427C9.14133 17.1547 10.3787 17.6773 11.616 18.2107C12.8747 18.744 13.9307 19.4267 14.784 20.2587C15.6587 21.0907 16.096 22.0507 16.096 23.1387C16.096 25.272 15.5627 26.8613 14.496 27.9067C13.4507 28.952 11.648 29.4747 9.088 29.4747C6.99733 29.4747 5.35467 29.0587 4.16 28.2267C2.96533 27.3733 2.144 26.0613 1.696 24.2907L2.592 23.9067C3.01867 25.6347 3.744 26.84 4.768 27.5227C5.81333 28.184 7.25333 28.5147 9.088 28.5147C11.136 28.5147 12.6507 28.12 13.632 27.3307C14.6347 26.5413 15.136 25.144 15.136 23.1387C15.136 22.2 14.6987 21.368 13.824 20.6427C12.9707 19.9173 11.9147 19.2987 10.656 18.7867C9.41867 18.2747 8.18133 17.752 6.944 17.2187C5.70667 16.6853 4.65067 16.0027 3.776 15.1707C2.92267 14.3387 2.496 13.3787 2.496 12.2907Z" fill="black"/>
<path d="M30.384 11.5867C29.6587 11.352 28.7627 11.2347 27.696 11.2347C26.6293 11.2347 25.7333 11.352 25.008 11.5867C24.2827 11.8 23.6107 12.216 22.992 12.8347C22.3947 13.432 21.9467 14.3173 21.648 15.4907C21.3493 16.6427 21.2 18.104 21.2 19.8747C21.2 21.6453 21.3493 23.1173 21.648 24.2907C21.9467 25.4427 22.3947 26.328 22.992 26.9467C23.6107 27.544 24.2827 27.96 25.008 28.1947C25.7333 28.408 26.6293 28.5147 27.696 28.5147C28.7627 28.5147 29.6587 28.408 30.384 28.1947C31.1093 27.96 31.7707 27.544 32.368 26.9467C32.9867 26.328 33.4453 25.4427 33.744 24.2907C34.0427 23.1173 34.192 21.6453 34.192 19.8747C34.192 18.104 34.0427 16.6427 33.744 15.4907C33.4453 14.3173 32.9867 13.432 32.368 12.8347C31.7707 12.216 31.1093 11.8 30.384 11.5867ZM33.424 27.2027C32.272 28.7173 30.3627 29.4747 27.696 29.4747C25.0293 29.4747 23.12 28.7173 21.968 27.2027C20.816 25.688 20.24 23.2453 20.24 19.8747C20.24 16.504 20.816 14.0613 21.968 12.5467C23.12 11.032 25.0293 10.2747 27.696 10.2747C30.3627 10.2747 32.272 11.032 33.424 12.5467C34.576 14.0613 35.152 16.504 35.152 19.8747C35.152 23.2453 34.576 25.688 33.424 27.2027Z" fill="black"/>
<path d="M40.72 29.1547V19.8747C40.72 16.504 41.296 14.0613 42.448 12.5467C43.6213 11.032 45.5307 10.2747 48.176 10.2747C51.2693 10.2747 53.3707 11.288 54.48 13.3147L47.792 18.9147H54.608V19.8747H45.136L53.232 13.1227C52.2933 11.864 50.608 11.2347 48.176 11.2347C47.1093 11.2347 46.2133 11.352 45.488 11.5867C44.7627 11.8 44.0907 12.216 43.472 12.8347C42.8747 13.432 42.4267 14.3173 42.128 15.4907C41.8293 16.6427 41.68 18.104 41.68 19.8747V29.1547H40.72Z" fill="black"/>
<path d="M70.8809 13.1223C70.9574 13.1853 71.0336 13.2487 71.1094 13.3127C71.1485 13.3455 71.1876 13.3782 71.2278 13.412C71.5209 13.6657 71.765 13.9424 72 14.2502C72.0273 14.2851 72.0546 14.3199 72.0828 14.3559C73.0878 15.7061 73.4125 17.3883 73.1719 19.0315C72.9616 20.345 72.3081 21.5157 71.3602 22.4365C71.05 22.7478 70.8105 23.079 70.6406 23.4846C70.6238 23.5247 70.607 23.5648 70.5897 23.6062C70.3553 24.2335 70.2997 24.9248 70.2834 25.5897C70.2728 25.9312 70.2728 25.9312 70.1719 26.0627C70.025 26.1536 69.9123 26.1683 69.741 26.1687C69.6671 26.1692 69.6671 26.1692 69.5918 26.1697C69.5381 26.1696 69.4843 26.1695 69.4289 26.1693C69.3721 26.1696 69.3153 26.1698 69.2568 26.1701C69.1012 26.1706 68.9455 26.1707 68.7899 26.1706C68.6599 26.1705 68.5299 26.1708 68.3999 26.171C68.0932 26.1715 67.7864 26.1715 67.4797 26.1713C67.1634 26.171 66.8472 26.1716 66.5309 26.1726C66.2592 26.1734 65.9875 26.1737 65.7158 26.1735C65.5536 26.1734 65.3914 26.1735 65.2292 26.1742C65.0483 26.1749 64.8674 26.1745 64.6865 26.1739C64.6329 26.1743 64.5792 26.1746 64.5239 26.175C64.4499 26.1745 64.4499 26.1745 64.3744 26.174C64.3102 26.174 64.3102 26.174 64.2448 26.174C64.0988 26.1526 64.0103 26.1007 63.8906 26.0158C63.7995 25.8819 63.7849 25.7724 63.7824 25.6125C63.7813 25.5706 63.7803 25.5288 63.7791 25.4856C63.7782 25.4411 63.7773 25.3966 63.7764 25.3508C63.7329 24.0648 63.3887 23.0921 62.4551 22.1955C61.3568 21.1051 60.8692 19.4865 60.832 17.9738C60.878 16.2201 61.5718 14.6391 62.8409 13.4285C63.7524 12.5848 64.8786 12.0764 66.0938 11.8596C66.144 11.8505 66.1943 11.8415 66.2461 11.8321C67.9228 11.647 69.5521 12.0836 70.8809 13.1223ZM63.5156 13.8752C63.4805 13.9031 63.4454 13.931 63.4092 13.9598C63.1411 14.1809 62.93 14.4442 62.7188 14.719C62.676 14.7739 62.676 14.7739 62.6323 14.8299C61.8101 15.9399 61.4875 17.3627 61.6642 18.7249C61.6931 18.9079 61.735 19.0865 61.7812 19.2658C61.7929 19.3115 61.7929 19.3115 61.8049 19.3581C62.0718 20.3722 62.6109 21.1905 63.3604 21.9201C64.2805 22.8318 64.4641 24.0812 64.5938 25.3127C66.2025 25.3127 67.8112 25.3127 69.4688 25.3127C69.5152 24.9569 69.5616 24.6012 69.6094 24.2346C69.8277 23.2982 70.0981 22.5337 70.8126 21.8645C71.6755 21.0481 72.176 19.9555 72.375 18.7971C72.3812 18.7625 72.3873 18.728 72.3937 18.6924C72.5877 17.3394 72.2096 15.9125 71.4147 14.8082C71.0215 14.2876 70.545 13.7907 69.9844 13.4533C69.9582 13.437 69.932 13.4206 69.905 13.4038C69.4228 13.1044 68.9366 12.9028 68.3906 12.7502C68.3367 12.7343 68.2827 12.7183 68.2271 12.7019C66.5557 12.2855 64.8136 12.8022 63.5156 13.8752Z" fill="#990DCE"/>
<path d="M64.5319 26.5249C64.5995 26.5245 64.5995 26.5245 64.6684 26.5241C64.7178 26.524 64.7672 26.524 64.8181 26.5239C64.8702 26.5237 64.9222 26.5234 64.9759 26.5232C65.1486 26.5225 65.3212 26.5222 65.4939 26.5219C65.6138 26.5217 65.7336 26.5214 65.8535 26.5211C66.0729 26.5207 66.2923 26.5204 66.5117 26.5203C66.8342 26.5201 67.1567 26.5192 67.4791 26.5179C67.7588 26.5167 68.0384 26.5164 68.3181 26.5163C68.4368 26.5162 68.5556 26.5158 68.6744 26.5152C68.8407 26.5144 69.007 26.5145 69.1733 26.5148C69.2223 26.5143 69.2713 26.5139 69.3218 26.5134C69.6593 26.5154 69.8889 26.5562 70.1572 26.7746C70.3304 26.9852 70.4618 27.1934 70.4736 27.4719C70.4371 27.8003 70.3111 28.0329 70.0781 28.2658C69.8234 28.3977 69.5856 28.4588 69.3002 28.4599C69.2583 28.4602 69.2165 28.4605 69.1734 28.4607C69.1281 28.4608 69.0827 28.4608 69.036 28.4609C68.9878 28.4611 68.9396 28.4614 68.89 28.4616C68.7307 28.4623 68.5714 28.4626 68.412 28.4629C68.3011 28.4631 68.1901 28.4634 68.0791 28.4637C67.8463 28.4642 67.6135 28.4644 67.3808 28.4646C67.0833 28.4649 66.7857 28.466 66.4882 28.4673C66.2589 28.4682 66.0295 28.4684 65.8002 28.4685C65.6906 28.4686 65.5809 28.469 65.4713 28.4696C65.3175 28.4704 65.1637 28.4704 65.0099 28.47C64.9651 28.4705 64.9202 28.4709 64.874 28.4714C64.5393 28.4693 64.1899 28.4343 63.917 28.2252C63.6618 27.8972 63.5591 27.6566 63.6094 27.2346C63.6968 26.921 63.8975 26.7411 64.1719 26.5783C64.3067 26.5334 64.3918 26.5254 64.5319 26.5249ZM64.4063 27.3752C64.4296 27.5044 64.4296 27.5044 64.5 27.6096C64.5658 27.6141 64.6319 27.6153 64.6978 27.6152C64.7405 27.6153 64.7832 27.6154 64.8271 27.6154C64.8743 27.6153 64.9214 27.6151 64.97 27.6149C65.0194 27.6149 65.0688 27.6149 65.1197 27.6149C65.2838 27.6149 65.4479 27.6145 65.612 27.6142C65.7254 27.6141 65.8389 27.614 65.9523 27.614C66.2515 27.6138 66.5508 27.6133 66.85 27.6128C67.1551 27.6123 67.4602 27.6121 67.7652 27.6119C68.3643 27.6114 68.9634 27.6106 69.5625 27.6096C69.578 27.5322 69.5934 27.4549 69.6094 27.3752C69.4638 27.2782 69.4329 27.2697 69.268 27.2696C69.2271 27.2693 69.1861 27.269 69.144 27.2688C69.0992 27.2689 69.0544 27.2691 69.0083 27.2693C68.961 27.2692 68.9137 27.269 68.865 27.2688C68.7084 27.2684 68.5518 27.2687 68.3952 27.269C68.2866 27.2689 68.1779 27.2689 68.0693 27.2687C67.8414 27.2686 67.6135 27.2688 67.3856 27.2692C67.0933 27.2698 66.801 27.2695 66.5087 27.2689C66.2843 27.2686 66.0599 27.2687 65.8355 27.2689C65.7277 27.269 65.6199 27.2689 65.5121 27.2687C65.3615 27.2684 65.2109 27.2688 65.0603 27.2693C65.0156 27.2691 64.9709 27.269 64.9249 27.2688C64.8633 27.2692 64.8633 27.2692 64.8004 27.2696C64.7648 27.2696 64.7292 27.2696 64.6926 27.2697C64.5804 27.2831 64.5038 27.3196 64.4063 27.3752Z" fill="#990DCE"/>
<path d="M65.401 28.7671C65.4398 28.7667 65.4785 28.7663 65.5184 28.7659C65.6465 28.7648 65.7745 28.7644 65.9026 28.7641C65.9918 28.7636 66.081 28.7632 66.1702 28.7628C66.3573 28.762 66.5444 28.7617 66.7315 28.7615C66.9707 28.7613 67.2098 28.7595 67.449 28.7574C67.6333 28.756 67.8176 28.7556 68.002 28.7556C68.0901 28.7554 68.1783 28.7548 68.2664 28.7538C68.39 28.7526 68.5136 28.7528 68.6372 28.7534C68.6733 28.7527 68.7093 28.752 68.7465 28.7513C69.054 28.7554 69.2751 28.8741 69.4953 29.0868C69.7118 29.3315 69.7201 29.5554 69.7159 29.8713C69.6848 30.1847 69.4996 30.3608 69.2664 30.555C69.0809 30.6833 68.881 30.6637 68.6653 30.664C68.6264 30.6642 68.5875 30.6645 68.5475 30.6647C68.4187 30.6654 68.29 30.6657 68.1612 30.666C68.0717 30.6663 67.9822 30.6665 67.8927 30.6668C67.7049 30.6673 67.5171 30.6676 67.3294 30.6677C67.089 30.668 66.8486 30.6691 66.6083 30.6704C66.4233 30.6713 66.2384 30.6716 66.0534 30.6716C65.9648 30.6718 65.8762 30.6721 65.7876 30.6728C65.6635 30.6736 65.5395 30.6735 65.4154 30.6732C65.3789 30.6736 65.3425 30.674 65.3049 30.6745C65.0115 30.6722 64.8289 30.5971 64.6084 30.4074C64.377 30.1385 64.3331 29.9231 64.3431 29.5739C64.3743 29.3129 64.4911 29.1502 64.6875 28.9778C64.9321 28.7994 65.099 28.7674 65.401 28.7671ZM65.1562 29.6252C65.1562 29.6871 65.1562 29.749 65.1562 29.8127C65.2945 29.8819 65.4346 29.8665 65.5862 29.8664C65.6208 29.8666 65.6554 29.8667 65.6911 29.8669C65.8058 29.8673 65.9205 29.8674 66.0352 29.8675C66.1147 29.8676 66.1942 29.8678 66.2737 29.8679C66.4405 29.8682 66.6072 29.8683 66.774 29.8683C66.9881 29.8683 67.2021 29.8689 67.4162 29.8697C67.5804 29.8702 67.7446 29.8703 67.9089 29.8703C67.9878 29.8704 68.0667 29.8706 68.1457 29.8709C68.2559 29.8714 68.3661 29.8713 68.4763 29.871C68.5091 29.8712 68.542 29.8715 68.5758 29.8718C68.7618 29.8754 68.7618 29.8754 68.9062 29.7658C68.8984 29.6682 68.8984 29.6682 68.8594 29.5783C68.7222 29.5097 68.5841 29.5246 68.4337 29.5247C68.3996 29.5245 68.3654 29.5243 68.3303 29.5242C68.2171 29.5237 68.1039 29.5236 67.9907 29.5236C67.9123 29.5234 67.8338 29.5233 67.7553 29.5231C67.5908 29.5228 67.4262 29.5227 67.2617 29.5228C67.0504 29.5228 66.8392 29.5221 66.628 29.5213C66.4659 29.5208 66.3039 29.5207 66.1418 29.5207C66.0639 29.5207 65.986 29.5205 65.9081 29.5201C65.7994 29.5197 65.6906 29.5198 65.5819 29.5201C65.5333 29.5197 65.5333 29.5197 65.4837 29.5193C65.2993 29.516 65.2993 29.516 65.1562 29.6252Z" fill="#990DCE"/>
<path d="M68.3906 13.5471C68.6309 13.6275 68.8624 13.7253 69.0938 13.8283C69.1362 13.8466 69.1786 13.865 69.2223 13.8838C69.5564 14.0381 69.8395 14.2544 70.125 14.4846C70.1652 14.5169 70.2054 14.5492 70.2468 14.5826C71.1509 15.352 71.7213 16.4658 71.8332 17.6457C71.8392 17.7219 71.845 17.798 71.8506 17.8742C71.8537 17.9107 71.8567 17.9471 71.8599 17.9847C71.8729 18.2042 71.8615 18.3364 71.7188 18.5158C71.5996 18.6062 71.5414 18.61 71.3906 18.6037C71.2185 18.5535 71.169 18.52 71.0625 18.3752C71.0239 18.2168 71.0105 18.0568 70.9951 17.8947C70.8839 16.949 70.5731 16.1892 69.9375 15.469C69.902 15.4268 69.902 15.4268 69.8657 15.3838C69.2191 14.6728 68.2086 14.2832 67.2686 14.2268C66.8737 14.201 66.8737 14.201 66.7031 14.0627C66.6299 13.9074 66.6299 13.9074 66.6094 13.7346C66.8314 13.1352 67.8962 13.4058 68.3906 13.5471Z" fill="#990DCE"/>
<path d="M61.3594 8.39084C61.5965 8.63578 61.767 8.93282 61.9482 9.21994C62.0147 9.32499 62.0812 9.43003 62.1476 9.53506C62.1805 9.5871 62.2134 9.63913 62.2473 9.69274C62.3361 9.83196 62.4265 9.96991 62.5179 10.1075C62.544 10.1473 62.5702 10.1872 62.5972 10.2283C62.6456 10.3021 62.6947 10.3755 62.7443 10.4485C62.882 10.6603 62.9394 10.8021 62.9062 11.0627C62.8389 11.2004 62.8389 11.2004 62.7188 11.2971C62.5699 11.3337 62.4431 11.3452 62.2969 11.2971C62.0794 11.0764 61.9244 10.8089 61.7607 10.5471C61.5826 10.2629 61.4039 9.97959 61.2175 9.70078C61.1721 9.63216 61.1721 9.63216 61.1259 9.56216C61.0679 9.47456 61.0094 9.38738 60.9501 9.30069C60.7827 9.04538 60.7095 8.88472 60.75 8.57834C60.892 8.31458 61.0874 8.32049 61.3594 8.39084Z" fill="#990DCE"/>
<path d="M76.8281 12.3752C76.9395 12.4221 76.9395 12.4221 77.0156 12.5158C77.0581 12.6434 77.0821 12.7573 77.0625 12.8908C76.9382 13.07 76.822 13.1699 76.6296 13.2702C76.581 13.296 76.5323 13.3218 76.4822 13.3483C76.4301 13.3752 76.3779 13.4022 76.3242 13.4299C76.2423 13.4729 76.1604 13.5159 76.0785 13.559C76.0223 13.5886 75.9661 13.618 75.9099 13.6474C75.7167 13.7487 75.5257 13.8533 75.3355 13.9598C75.2849 13.9879 75.2344 14.0161 75.1823 14.045C75.0861 14.0988 74.99 14.1529 74.8942 14.2075C74.8506 14.2316 74.8069 14.2557 74.762 14.2806C74.7241 14.302 74.6862 14.3233 74.6471 14.3453C74.5056 14.4009 74.4009 14.4053 74.25 14.3908C74.1152 14.2942 74.1152 14.2942 74.0156 14.1565C73.9866 13.976 73.9878 13.8759 74.0806 13.7172C74.2584 13.5384 74.465 13.4443 74.6895 13.3332C74.7864 13.2841 74.8832 13.2348 74.98 13.1855C75.0297 13.1603 75.0793 13.1351 75.1304 13.1091C75.3735 12.984 75.613 12.8526 75.8525 12.7209C75.9372 12.6744 76.0218 12.6279 76.1065 12.5814C76.1419 12.5619 76.1772 12.5424 76.2137 12.5223C76.2463 12.5047 76.2789 12.4871 76.3125 12.469C76.3443 12.4515 76.3761 12.434 76.4089 12.416C76.5523 12.3518 76.6735 12.3614 76.8281 12.3752Z" fill="#990DCE"/>
<path d="M57.5625 12.3752C57.7002 12.4256 57.7002 12.4256 57.8437 12.5012C57.8708 12.5153 57.8978 12.5293 57.9256 12.5439C58.3018 12.7428 58.6705 12.9564 59.04 13.1675C59.289 13.3093 59.5412 13.4432 59.7971 13.5722C59.915 13.6464 59.9765 13.7086 60.0469 13.8283C60.0648 13.9955 60.0655 14.1122 60 14.2678C59.8595 14.382 59.7072 14.3934 59.5312 14.3908C59.4066 14.3461 59.3106 14.3037 59.1978 14.2392C59.1674 14.2229 59.137 14.2065 59.1057 14.1896C59.0078 14.1365 58.9106 14.0821 58.8135 14.0276C58.7463 13.9907 58.679 13.9539 58.6118 13.9171C58.4473 13.8269 58.2835 13.7356 58.12 13.6437C57.9935 13.5728 57.8666 13.5028 57.7397 13.4326C57.6601 13.3879 57.5805 13.3431 57.501 13.2981C57.4655 13.2782 57.4301 13.2583 57.3935 13.2378C57.0901 13.0616 57.0901 13.0616 57 12.8908C57.0032 12.7099 57.0223 12.5996 57.123 12.4485C57.2774 12.3469 57.3798 12.3622 57.5625 12.3752Z" fill="#990DCE"/>
<path d="M67.1234 6.63486C67.2643 6.66678 67.3162 6.73253 67.4062 6.84396C67.4301 6.97736 67.4301 6.97736 67.4305 7.13336C67.4311 7.19187 67.4317 7.25037 67.4323 7.31065C67.432 7.37433 67.4316 7.438 67.4312 7.50168C67.4313 7.56717 67.4315 7.63266 67.4317 7.69816C67.432 7.83529 67.4316 7.97239 67.4307 8.10952C67.4296 8.28513 67.4302 8.46068 67.4314 8.63628C67.432 8.77149 67.4318 8.90667 67.4313 9.04188C67.4312 9.10661 67.4314 9.17135 67.4318 9.23609C67.4323 9.32662 67.4314 9.41716 67.4305 9.50769C67.4303 9.58491 67.4303 9.58491 67.4301 9.66369C67.4007 9.82812 67.3481 9.88232 67.2188 9.98459C67.0604 10.0471 66.9971 10.0359 66.835 9.97873C66.6817 9.87654 66.6622 9.82885 66.6094 9.65646C66.5975 9.52842 66.5975 9.52842 66.5972 9.38831C66.5969 9.33559 66.5967 9.28287 66.5963 9.22855C66.5965 9.17205 66.5967 9.11555 66.5969 9.05734C66.5968 8.96972 66.5968 8.96972 66.5967 8.88032C66.5966 8.72536 66.5969 8.57041 66.5975 8.41545C66.5977 8.32061 66.5975 8.22578 66.5972 8.13094C66.5966 7.94853 66.5966 7.76613 66.5969 7.58371C66.5967 7.52721 66.5965 7.47071 66.5963 7.4125C66.5966 7.35978 66.5969 7.30706 66.5972 7.25275C66.5973 7.20651 66.5974 7.16027 66.5975 7.11263C66.6104 6.97339 66.639 6.87434 66.7031 6.75021C66.8538 6.64976 66.9457 6.64239 67.1234 6.63486Z" fill="#990DCE"/>
<path d="M73.2656 8.48459C73.377 8.53146 73.377 8.53146 73.4531 8.62521C73.5059 8.81355 73.5301 8.929 73.4531 9.11118C73.3792 9.23679 73.2999 9.35654 73.2171 9.47647C73.1875 9.52094 73.158 9.56541 73.1275 9.61123C73.0329 9.75294 72.9369 9.89364 72.8408 10.0344C72.7774 10.1292 72.7141 10.2241 72.6508 10.319C71.9497 11.3651 71.9497 11.3651 71.7658 11.4175C71.6095 11.4262 71.5008 11.4007 71.3672 11.3205C71.2681 11.1554 71.2624 11.0135 71.2969 10.8283C71.3766 10.6567 71.4807 10.5046 71.5876 10.3488C71.6174 10.3041 71.6471 10.2594 71.6777 10.2134C71.7726 10.0711 71.8687 9.92972 71.9648 9.7883C72.0288 9.69268 72.0927 9.59701 72.1566 9.50128C72.8559 8.45633 72.8559 8.45633 73.2656 8.48459Z" fill="#990DCE"/>
<path d="M81.8054 28.1947H92.2374L85.6774 12.7387L78.7014 29.1547H77.6774L85.6774 10.2747L93.6774 29.1547H81.8054V28.1947Z" fill="black"/>
</svg>
