<svg width="100" height="37" viewBox="0 0 100 37" fill="none" xmlns="http://www.w3.org/2000/svg">
<path d="M2.496 12.136C2.496 10.0667 3.01867 8.57333 4.064 7.656C5.10933 6.73867 6.80533 6.28 9.152 6.28C10.7947 6.28 12.1173 6.70667 13.12 7.56C14.1227 8.41333 14.848 9.71467 15.296 11.464L12.32 13.704H10.752L14.208 11.112C13.76 9.68267 13.1093 8.68 12.256 8.104C11.424 7.528 10.3893 7.24 9.152 7.24C8.29867 7.24 7.57333 7.29333 6.976 7.4C6.4 7.50667 5.81333 7.72 5.216 8.04C4.64 8.33867 4.20267 8.82933 3.904 9.512C3.60533 10.1947 3.456 11.0693 3.456 12.136C3.456 13.0747 3.88267 13.9067 4.736 14.632C5.61067 15.3573 6.66667 15.976 7.904 16.488C9.14133 17 10.3787 17.5227 11.616 18.056C12.8747 18.5893 13.9307 19.272 14.784 20.104C15.6587 20.936 16.096 21.896 16.096 22.984C16.096 25.1173 15.5627 26.7067 14.496 27.752C13.4507 28.7973 11.648 29.32 9.088 29.32C6.99733 29.32 5.35467 28.904 4.16 28.072C2.96533 27.2187 2.144 25.9067 1.696 24.136L2.592 23.752C3.01867 25.48 3.744 26.6853 4.768 27.368C5.81333 28.0293 7.25333 28.36 9.088 28.36C11.136 28.36 12.6507 27.9653 13.632 27.176C14.6347 26.3867 15.136 24.9893 15.136 22.984C15.136 22.0453 14.6987 21.2133 13.824 20.488C12.9707 19.7627 11.9147 19.144 10.656 18.632C9.41867 18.12 8.18133 17.5973 6.944 17.064C5.70667 16.5307 4.65067 15.848 3.776 15.016C2.92267 14.184 2.496 13.224 2.496 12.136Z" fill="#D9D9D9" fill-opacity="0.8"/>
<path d="M4.064 7.656L3.80016 7.35535L3.80016 7.35535L4.064 7.656ZM13.12 7.56L12.8608 7.86462L12.8608 7.86462L13.12 7.56ZM15.296 11.464L15.5366 11.7836L15.7497 11.6232L15.6835 11.3648L15.296 11.464ZM12.32 13.704V14.104H12.4537L12.5606 14.0236L12.32 13.704ZM10.752 13.704L10.512 13.384L9.552 14.104H10.752V13.704ZM14.208 11.112L14.448 11.432L14.6743 11.2623L14.5897 10.9924L14.208 11.112ZM12.256 8.104L12.0283 8.4329L12.0322 8.43554L12.256 8.104ZM6.976 7.4L6.90568 7.00622L6.90316 7.00669L6.976 7.4ZM5.216 8.04L5.40014 8.39513L5.40489 8.39259L5.216 8.04ZM3.904 9.512L4.27046 9.67233L4.27046 9.67233L3.904 9.512ZM4.736 14.632L4.47692 14.9368L4.48067 14.9399L4.736 14.632ZM7.904 16.488L8.05694 16.1184L8.05694 16.1184L7.904 16.488ZM11.616 18.056L11.4577 18.4233L11.4599 18.4243L11.616 18.056ZM14.784 20.104L14.5047 20.3904L14.5083 20.3938L14.784 20.104ZM14.496 27.752L14.216 27.4663L14.2132 27.4692L14.496 27.752ZM4.16 28.072L3.92749 28.3975L3.9314 28.4002L4.16 28.072ZM1.696 24.136L1.53843 23.7683L1.22442 23.9029L1.30822 24.2341L1.696 24.136ZM2.592 23.752L2.98034 23.6561L2.86741 23.1988L2.43443 23.3843L2.592 23.752ZM4.768 27.368L4.54606 27.7009L4.55414 27.706L4.768 27.368ZM13.632 27.176L13.3846 26.8617L13.3813 26.8643L13.632 27.176ZM13.824 20.488L13.5649 20.7928L13.5687 20.7959L13.824 20.488ZM10.656 18.632L10.5031 19.0016L10.5053 19.0025L10.656 18.632ZM3.776 15.016L3.49674 15.3024L3.50031 15.3058L3.776 15.016ZM2.896 12.136C2.896 10.1249 3.40417 8.76721 4.32784 7.95665L3.80016 7.35535C2.63316 8.37945 2.096 10.0084 2.096 12.136H2.896ZM4.32784 7.95665C5.26437 7.13479 6.84082 6.68 9.152 6.68V5.88C6.76985 5.88 4.9543 6.34254 3.80016 7.35535L4.32784 7.95665ZM9.152 6.68C10.724 6.68 11.947 7.08695 12.8608 7.86462L13.3792 7.25538C12.2877 6.32638 10.8654 5.88 9.152 5.88V6.68ZM12.8608 7.86462C13.781 8.64777 14.4736 9.86492 14.9085 11.5632L15.6835 11.3648C15.2224 9.56441 14.4644 8.17889 13.3792 7.25538L12.8608 7.86462ZM15.0555 11.1444L12.0795 13.3844L12.5606 14.0236L15.5366 11.7836L15.0555 11.1444ZM12.32 13.304H10.752V14.104H12.32V13.304ZM10.992 14.024L14.448 11.432L13.968 10.792L10.512 13.384L10.992 14.024ZM14.5897 10.9924C14.1265 9.51467 13.4357 8.41773 12.4798 7.77246L12.0322 8.43554C12.7829 8.94227 13.3935 9.85066 13.8263 11.2316L14.5897 10.9924ZM12.4837 7.77512C11.5711 7.14336 10.4523 6.84 9.152 6.84V7.64C10.3263 7.64 11.2769 7.91264 12.0283 8.43288L12.4837 7.77512ZM9.152 6.84C8.28377 6.84 7.53344 6.89413 6.90568 7.00623L7.04632 7.79377C7.61322 7.69254 8.31356 7.64 9.152 7.64V6.84ZM6.90316 7.00669C6.28083 7.12193 5.65522 7.35092 5.02711 7.68741L5.40489 8.39259C5.97145 8.08908 6.51917 7.8914 7.04884 7.79331L6.90316 7.00669ZM5.03187 7.6849C4.36275 8.03185 3.86717 8.59823 3.53754 9.35167L4.27046 9.67233C4.53816 9.06044 4.91725 8.64548 5.40013 8.3951L5.03187 7.6849ZM3.53754 9.35167C3.20937 10.1018 3.056 11.0362 3.056 12.136H3.856C3.856 11.1025 4.0013 10.2876 4.27046 9.67233L3.53754 9.35167ZM3.056 12.136C3.056 13.2149 3.55321 14.1516 4.47694 14.9368L4.99506 14.3272C4.21212 13.6617 3.856 12.9345 3.856 12.136H3.056ZM4.48067 14.9399C5.39111 15.6949 6.48312 16.3329 7.75106 16.8576L8.05694 16.1184C6.85021 15.6191 5.83022 15.0198 4.99133 14.3241L4.48067 14.9399ZM7.75106 16.8576C8.98658 17.3689 10.2221 17.8908 11.4577 18.4233L11.7743 17.6887C10.5352 17.1546 9.29609 16.6311 8.05694 16.1184L7.75106 16.8576ZM11.4599 18.4243C12.6795 18.941 13.6919 19.5978 14.5048 20.3904L15.0632 19.8176C14.1695 18.9462 13.0699 18.2376 11.7721 17.6877L11.4599 18.4243ZM14.5083 20.3938C15.3132 21.1595 15.696 22.0181 15.696 22.984H16.496C16.496 21.7739 16.0041 20.7125 15.0597 19.8142L14.5083 20.3938ZM15.696 22.984C15.696 25.0564 15.1781 26.5235 14.216 27.4663L14.776 28.0377C15.9473 26.8898 16.496 25.1783 16.496 22.984H15.696ZM14.2132 27.4692C13.2818 28.4005 11.6141 28.92 9.088 28.92V29.72C11.6819 29.72 13.6195 29.1942 14.7788 28.0348L14.2132 27.4692ZM9.088 28.92C7.04491 28.92 5.49275 28.5127 4.3886 27.7438L3.9314 28.4002C5.21658 29.2953 6.94976 29.72 9.088 29.72V28.92ZM4.3925 27.7465C3.29228 26.9606 2.51441 25.7399 2.08378 24.0379L1.30822 24.2341C1.77359 26.0734 2.63838 27.4767 3.92751 28.3975L4.3925 27.7465ZM1.85357 24.5037L2.74957 24.1197L2.43443 23.3843L1.53843 23.7683L1.85357 24.5037ZM2.20366 23.8479C2.64371 25.6301 3.40842 26.9424 4.54612 27.7008L4.98988 27.0352C4.07958 26.4283 3.39363 25.3299 2.98034 23.6561L2.20366 23.8479ZM4.55414 27.706C5.68731 28.4229 7.21192 28.76 9.088 28.76V27.96C7.29475 27.96 5.93936 27.6357 4.98186 27.03L4.55414 27.706ZM9.088 28.76C11.1742 28.76 12.7978 28.3603 13.8827 27.4877L13.3813 26.8643C12.5035 27.5704 11.0978 27.96 9.088 27.96V28.76ZM13.8794 27.4903C15.0229 26.5901 15.536 25.0413 15.536 22.984H14.736C14.736 24.9374 14.2465 26.1832 13.3846 26.8617L13.8794 27.4903ZM15.536 22.984C15.536 21.9012 15.0244 20.9638 14.0793 20.1801L13.5687 20.7959C14.3729 21.4629 14.736 22.1895 14.736 22.984H15.536ZM14.0831 20.1832C13.1913 19.4252 12.0967 18.7862 10.8067 18.2615L10.5053 19.0025C11.7327 19.5018 12.7501 20.1001 13.5649 20.7928L14.0831 20.1832ZM10.8089 18.2624C9.57342 17.7511 8.33788 17.2292 7.10233 16.6967L6.78567 17.4313C8.02478 17.9654 9.26391 18.4889 10.5031 19.0016L10.8089 18.2624ZM7.10233 16.6967C5.90338 16.1799 4.88838 15.5221 4.05169 14.7262L3.50031 15.3058C4.41296 16.1739 5.50996 16.8815 6.78567 17.4313L7.10233 16.6967ZM4.05524 14.7296C3.27099 13.965 2.896 13.1053 2.896 12.136H2.096C2.096 13.3427 2.57435 14.403 3.49676 15.3024L4.05524 14.7296Z" fill="white" fill-opacity="0.8"/>
<path d="M30.384 11.432C29.6587 11.1973 28.7627 11.08 27.696 11.08C26.6293 11.08 25.7333 11.1973 25.008 11.432C24.2827 11.6453 23.6107 12.0613 22.992 12.68C22.3947 13.2773 21.9467 14.1627 21.648 15.336C21.3493 16.488 21.2 17.9493 21.2 19.72C21.2 21.4907 21.3493 22.9627 21.648 24.136C21.9467 25.288 22.3947 26.1733 22.992 26.792C23.6107 27.3893 24.2827 27.8053 25.008 28.04C25.7333 28.2533 26.6293 28.36 27.696 28.36C28.7627 28.36 29.6587 28.2533 30.384 28.04C31.1093 27.8053 31.7707 27.3893 32.368 26.792C32.9867 26.1733 33.4453 25.288 33.744 24.136C34.0427 22.9627 34.192 21.4907 34.192 19.72C34.192 17.9493 34.0427 16.488 33.744 15.336C33.4453 14.1627 32.9867 13.2773 32.368 12.68C31.7707 12.0613 31.1093 11.6453 30.384 11.432ZM33.424 27.048C32.272 28.5627 30.3627 29.32 27.696 29.32C25.0293 29.32 23.12 28.5627 21.968 27.048C20.816 25.5333 20.24 23.0907 20.24 19.72C20.24 16.3493 20.816 13.9067 21.968 12.392C23.12 10.8773 25.0293 10.12 27.696 10.12C30.3627 10.12 32.272 10.8773 33.424 12.392C34.576 13.9067 35.152 16.3493 35.152 19.72C35.152 23.0907 34.576 25.5333 33.424 27.048Z" fill="#D9D9D9" fill-opacity="0.8"/>
<path d="M30.384 11.432L30.2608 11.8127L30.2711 11.8157L30.384 11.432ZM25.008 11.432L25.1209 11.8159L25.1311 11.8126L25.008 11.432ZM22.992 12.68L22.7092 12.3972L22.7092 12.3972L22.992 12.68ZM21.648 15.336L22.0352 15.4364L22.0356 15.4347L21.648 15.336ZM21.648 24.136L21.2604 24.2347L21.2608 24.2364L21.648 24.136ZM22.992 26.792L22.7041 27.07L22.7142 27.0798L22.992 26.792ZM25.008 28.04L24.8848 28.4207L24.8951 28.4237L25.008 28.04ZM30.384 28.04L30.4969 28.4239L30.5071 28.4206L30.384 28.04ZM32.368 26.792L32.6508 27.0748L32.6508 27.0748L32.368 26.792ZM33.744 24.136L34.1312 24.2364L34.1316 24.2347L33.744 24.136ZM33.744 15.336L33.3564 15.4347L33.3568 15.4364L33.744 15.336ZM32.368 12.68L32.0801 12.958L32.0902 12.9678L32.368 12.68ZM33.424 27.048L33.1056 26.8059L33.1056 26.8059L33.424 27.048ZM21.968 27.048L22.2864 26.8059L22.2864 26.8059L21.968 27.048ZM21.968 12.392L21.6496 12.1499L21.6496 12.1499L21.968 12.392ZM33.424 12.392L33.7424 12.1499L33.7424 12.1499L33.424 12.392ZM30.5071 11.0514C29.7297 10.7999 28.7891 10.68 27.696 10.68V11.48C28.7362 11.48 29.5877 11.5948 30.2609 11.8126L30.5071 11.0514ZM27.696 10.68C26.6029 10.68 25.6623 10.7999 24.8849 11.0514L25.1311 11.8126C25.8043 11.5948 26.6558 11.48 27.696 11.48V10.68ZM24.8951 11.0483C24.0961 11.2833 23.3677 11.7387 22.7092 12.3972L23.2748 12.9628C23.8537 12.384 24.4692 12.0074 25.1209 11.8157L24.8951 11.0483ZM22.7092 12.3972C22.0436 13.0627 21.5695 14.0228 21.2604 15.2373L22.0356 15.4347C22.3238 14.3025 22.7458 13.4919 23.2748 12.9628L22.7092 12.3972ZM21.2608 15.2356C20.9506 16.4321 20.8 17.9302 20.8 19.72H21.6C21.6 17.9684 21.7481 16.5439 22.0352 15.4364L21.2608 15.2356ZM20.8 19.72C20.8 21.5101 20.9507 23.018 21.2604 24.2347L22.0356 24.0373C21.748 22.9073 21.6 21.4712 21.6 19.72H20.8ZM21.2608 24.2364C21.5704 25.4307 22.0441 26.3861 22.7042 27.0698L23.2798 26.5142C22.7452 25.9605 22.3229 25.1453 22.0352 24.0356L21.2608 24.2364ZM22.7142 27.0798C23.371 27.714 24.0945 28.1649 24.8849 28.4206L25.1311 27.6594C24.4708 27.4458 23.8503 27.0647 23.2698 26.5042L22.7142 27.0798ZM24.8951 28.4237C25.6687 28.6513 26.6055 28.76 27.696 28.76V27.96C26.6532 27.96 25.7979 27.8554 25.1209 27.6563L24.8951 28.4237ZM27.696 28.76C28.7865 28.76 29.7233 28.6513 30.4969 28.4237L30.2711 27.6563C29.5941 27.8554 28.7388 27.96 27.696 27.96V28.76ZM30.5071 28.4206C31.299 28.1644 32.0137 27.712 32.6508 27.0748L32.0852 26.5092C31.5277 27.0666 30.9197 27.4463 30.2609 27.6594L30.5071 28.4206ZM32.6508 27.0748C33.3349 26.3908 33.8208 25.4335 34.1312 24.2364L33.3568 24.0356C33.0698 25.1425 32.6384 25.9559 32.0852 26.5092L32.6508 27.0748ZM34.1316 24.2347C34.4413 23.018 34.592 21.5101 34.592 19.72H33.792C33.792 21.4712 33.644 22.9073 33.3564 24.0373L34.1316 24.2347ZM34.592 19.72C34.592 17.9302 34.4414 16.4321 34.1312 15.2356L33.3568 15.4364C33.6439 16.5439 33.792 17.9684 33.792 19.72H34.592ZM34.1316 15.2373C33.8218 14.02 33.3355 13.0581 32.6458 12.3922L32.0902 12.9678C32.6378 13.4965 33.0689 14.3053 33.3564 15.4347L34.1316 15.2373ZM32.6558 12.4022C32.017 11.7406 31.2974 11.2837 30.4969 11.0483L30.2711 11.8157C30.9213 12.007 31.5243 12.3821 32.0802 12.9578L32.6558 12.4022ZM33.1056 26.8059C32.0565 28.1852 30.291 28.92 27.696 28.92V29.72C30.4344 29.72 32.4875 28.9401 33.7424 27.2901L33.1056 26.8059ZM27.696 28.92C25.101 28.92 23.3355 28.1852 22.2864 26.8059L21.6496 27.2901C22.9045 28.9401 24.9576 29.72 27.696 29.72V28.92ZM22.2864 26.8059C21.2147 25.3968 20.64 23.0631 20.64 19.72H19.84C19.84 23.1183 20.4173 25.6698 21.6496 27.2901L22.2864 26.8059ZM20.64 19.72C20.64 16.3769 21.2147 14.0432 22.2864 12.6341L21.6496 12.1499C20.4173 13.7702 19.84 16.3217 19.84 19.72H20.64ZM22.2864 12.6341C23.3355 11.2548 25.101 10.52 27.696 10.52V9.72C24.9576 9.72 22.9045 10.4999 21.6496 12.1499L22.2864 12.6341ZM27.696 10.52C30.291 10.52 32.0565 11.2548 33.1056 12.6341L33.7424 12.1499C32.4875 10.4999 30.4344 9.72 27.696 9.72V10.52ZM33.1056 12.6341C34.1773 14.0432 34.752 16.3769 34.752 19.72H35.552C35.552 16.3217 34.9747 13.7702 33.7424 12.1499L33.1056 12.6341ZM34.752 19.72C34.752 23.0631 34.1773 25.3968 33.1056 26.8059L33.7424 27.2901C34.9747 25.6698 35.552 23.1183 35.552 19.72H34.752Z" fill="white" fill-opacity="0.8"/>
<path d="M40.72 29V19.72C40.72 16.3493 41.296 13.9067 42.448 12.392C43.6213 10.8773 45.5307 10.12 48.176 10.12C51.2693 10.12 53.3707 11.1333 54.48 13.16L47.792 18.76H54.608V19.72H45.136L53.232 12.968C52.2933 11.7093 50.608 11.08 48.176 11.08C47.1093 11.08 46.2133 11.1973 45.488 11.432C44.7627 11.6453 44.0907 12.0613 43.472 12.68C42.8747 13.2773 42.4267 14.1627 42.128 15.336C41.8293 16.488 41.68 17.9493 41.68 19.72V29H40.72Z" fill="#D9D9D9" fill-opacity="0.8"/>
<path d="M40.72 29H40.32V29.4H40.72V29ZM42.448 12.392L42.1318 12.147L42.1296 12.1499L42.448 12.392ZM54.48 13.16L54.7368 13.4667L54.9885 13.2559L54.8309 12.9679L54.48 13.16ZM47.792 18.76L47.5352 18.4533L46.6912 19.16H47.792V18.76ZM54.608 18.76H55.008V18.36H54.608V18.76ZM54.608 19.72V20.12H55.008V19.72H54.608ZM45.136 19.72L44.8798 19.4128L44.0319 20.12H45.136V19.72ZM53.232 12.968L53.4882 13.2752L53.7791 13.0326L53.5527 12.7289L53.232 12.968ZM45.488 11.432L45.6009 11.8159L45.6111 11.8126L45.488 11.432ZM43.472 12.68L43.1892 12.3972L43.1892 12.3972L43.472 12.68ZM42.128 15.336L42.5152 15.4364L42.5156 15.4347L42.128 15.336ZM41.68 29V29.4H42.08V29H41.68ZM41.12 29V19.72H40.32V29H41.12ZM41.12 19.72C41.12 16.3769 41.6947 14.0432 42.7664 12.6341L42.1296 12.1499C40.8973 13.7702 40.32 16.3217 40.32 19.72H41.12ZM42.7642 12.637C43.8356 11.2539 45.6042 10.52 48.176 10.52V9.72C45.4571 9.72 43.407 10.5008 42.1318 12.147L42.7642 12.637ZM48.176 10.52C51.18 10.52 53.1136 11.4968 54.1291 13.3521L54.8309 12.9679C53.6277 10.7699 51.3586 9.72 48.176 9.72V10.52ZM54.2232 12.8533L47.5352 18.4533L48.0488 19.0667L54.7368 13.4667L54.2232 12.8533ZM47.792 19.16H54.608V18.36H47.792V19.16ZM54.208 18.76V19.72H55.008V18.76H54.208ZM54.608 19.32H45.136V20.12H54.608V19.32ZM45.3922 20.0272L53.4882 13.2752L52.9758 12.6608L44.8798 19.4128L45.3922 20.0272ZM53.5527 12.7289C52.5043 11.3231 50.6633 10.68 48.176 10.68V11.48C50.5527 11.48 52.0824 12.0956 52.9113 13.2071L53.5527 12.7289ZM48.176 10.68C47.0829 10.68 46.1423 10.7999 45.3649 11.0514L45.6111 11.8126C46.2843 11.5948 47.1358 11.48 48.176 11.48V10.68ZM45.3751 11.0483C44.5761 11.2833 43.8477 11.7387 43.1892 12.3972L43.7548 12.9628C44.3337 12.384 44.9492 12.0074 45.6009 11.8157L45.3751 11.0483ZM43.1892 12.3972C42.5236 13.0627 42.0495 14.0228 41.7404 15.2373L42.5156 15.4347C42.8038 14.3025 43.2258 13.4919 43.7548 12.9628L43.1892 12.3972ZM41.7408 15.2356C41.4306 16.4321 41.28 17.9302 41.28 19.72H42.08C42.08 17.9684 42.2281 16.5439 42.5152 15.4364L41.7408 15.2356ZM41.28 19.72V29H42.08V19.72H41.28ZM41.68 28.6H40.72V29.4H41.68V28.6Z" fill="white" fill-opacity="0.8"/>
<path d="M70.8809 12.9677C70.9574 13.0306 71.0336 13.0941 71.1094 13.1581C71.1485 13.1908 71.1876 13.2236 71.2278 13.2573C71.5209 13.5111 71.765 13.7877 72 14.0956C72.0273 14.1304 72.0546 14.1653 72.0828 14.2012C73.0878 15.5514 73.4125 17.2336 73.1719 18.8768C72.9616 20.1904 72.3081 21.361 71.3602 22.2819C71.05 22.5932 70.8105 22.9243 70.6406 23.33C70.6238 23.3701 70.607 23.4102 70.5897 23.4515C70.3553 24.0789 70.2997 24.7702 70.2834 25.435C70.2728 25.7765 70.2728 25.7765 70.1719 25.9081C70.025 25.9989 69.9123 26.0137 69.741 26.014C69.6671 26.0145 69.6671 26.0145 69.5918 26.0151C69.5381 26.0149 69.4843 26.0148 69.4289 26.0147C69.3721 26.0149 69.3153 26.0152 69.2568 26.0154C69.1012 26.016 68.9455 26.0161 68.7899 26.016C68.6599 26.0159 68.5299 26.0161 68.3999 26.0164C68.0932 26.0169 67.7864 26.0169 67.4797 26.0166C67.1634 26.0163 66.8472 26.0169 66.5309 26.0179C66.2592 26.0187 65.9875 26.019 65.7158 26.0189C65.5536 26.0188 65.3914 26.0189 65.2292 26.0196C65.0483 26.0203 64.8674 26.0198 64.6865 26.0193C64.6329 26.0196 64.5792 26.02 64.5239 26.0204C64.4499 26.0199 64.4499 26.0199 64.3744 26.0194C64.3102 26.0194 64.3102 26.0194 64.2448 26.0194C64.0988 25.998 64.0103 25.9461 63.8906 25.8612C63.7995 25.7273 63.7849 25.6178 63.7824 25.4578C63.7813 25.416 63.7803 25.3741 63.7791 25.331C63.7782 25.2865 63.7773 25.242 63.7764 25.1962C63.7329 23.9101 63.3887 22.9375 62.4551 22.0409C61.3568 20.9504 60.8692 19.3319 60.832 17.8192C60.878 16.0654 61.5718 14.4844 62.8409 13.2738C63.7524 12.4302 64.8786 11.9217 66.0938 11.705C66.144 11.6959 66.1943 11.6868 66.2461 11.6775C67.9228 11.4924 69.5521 11.929 70.8809 12.9677ZM63.5156 13.7206C63.4805 13.7485 63.4454 13.7764 63.4092 13.8052C63.1411 14.0263 62.93 14.2896 62.7188 14.5643C62.676 14.6193 62.676 14.6193 62.6323 14.6753C61.8101 15.7853 61.4875 17.208 61.6642 18.5703C61.6931 18.7533 61.735 18.9318 61.7812 19.1112C61.7929 19.1569 61.7929 19.1569 61.8049 19.2035C62.0718 20.2176 62.6109 21.0358 63.3604 21.7655C64.2805 22.6771 64.4641 23.9266 64.5938 25.1581C66.2025 25.1581 67.8112 25.1581 69.4688 25.1581C69.5152 24.8023 69.5616 24.4465 69.6094 24.08C69.8277 23.1435 70.0981 22.3791 70.8126 21.7098C71.6755 20.8935 72.176 19.8009 72.375 18.6425C72.3812 18.6079 72.3873 18.5733 72.3937 18.5377C72.5877 17.1847 72.2096 15.7579 71.4147 14.6536C71.0215 14.133 70.545 13.6361 69.9844 13.2987C69.9582 13.2824 69.932 13.266 69.905 13.2492C69.4228 12.9498 68.9366 12.7482 68.3906 12.5956C68.3367 12.5796 68.2827 12.5637 68.2271 12.5472C66.5557 12.1308 64.8136 12.6475 63.5156 13.7206Z" fill="#D7FF01"/>
<path d="M64.5319 26.3702C64.5995 26.3698 64.5995 26.3698 64.6684 26.3694C64.7178 26.3694 64.7672 26.3693 64.8181 26.3693C64.8702 26.369 64.9222 26.3688 64.9759 26.3686C65.1486 26.3679 65.3212 26.3676 65.4939 26.3673C65.6138 26.367 65.7336 26.3668 65.8535 26.3665C66.0729 26.3661 66.2923 26.3658 66.5117 26.3656C66.8342 26.3654 67.1567 26.3646 67.4791 26.3632C67.7588 26.3621 68.0384 26.3617 68.3181 26.3617C68.4368 26.3615 68.5556 26.3611 68.6744 26.3605C68.8407 26.3597 69.007 26.3598 69.1733 26.3601C69.2223 26.3597 69.2713 26.3593 69.3218 26.3588C69.6593 26.3607 69.8889 26.4016 70.1572 26.62C70.3304 26.8306 70.4618 27.0388 70.4736 27.3173C70.4371 27.6457 70.3111 27.8783 70.0781 28.1112C69.8234 28.2431 69.5856 28.3042 69.3002 28.3053C69.2583 28.3056 69.2165 28.3058 69.1734 28.3061C69.1281 28.3062 69.0827 28.3062 69.036 28.3063C68.9878 28.3065 68.9396 28.3067 68.89 28.307C68.7307 28.3076 68.5714 28.308 68.412 28.3082C68.3011 28.3085 68.1901 28.3088 68.0791 28.309C67.8463 28.3095 67.6135 28.3098 67.3808 28.31C67.0833 28.3102 66.7857 28.3114 66.4882 28.3127C66.2589 28.3136 66.0295 28.3138 65.8002 28.3139C65.6906 28.314 65.5809 28.3144 65.4713 28.315C65.3175 28.3158 65.1637 28.3157 65.0099 28.3154C64.9651 28.3158 64.9202 28.3163 64.874 28.3167C64.5393 28.3147 64.1899 28.2796 63.917 28.0706C63.6618 27.7426 63.5591 27.5019 63.6094 27.08C63.6968 26.7664 63.8975 26.5865 64.1719 26.4237C64.3067 26.3787 64.3918 26.3707 64.5319 26.3702ZM64.4063 27.2206C64.4296 27.3498 64.4296 27.3498 64.5 27.455C64.5658 27.4594 64.6319 27.4607 64.6978 27.4606C64.7405 27.4607 64.7832 27.4607 64.8271 27.4608C64.8743 27.4606 64.9214 27.4605 64.97 27.4603C65.0194 27.4603 65.0688 27.4603 65.1197 27.4603C65.2838 27.4603 65.4479 27.4599 65.612 27.4595C65.7254 27.4594 65.8389 27.4594 65.9523 27.4593C66.2515 27.4592 66.5508 27.4587 66.85 27.4582C67.1551 27.4577 67.4602 27.4575 67.7652 27.4572C68.3643 27.4567 68.9634 27.4559 69.5625 27.455C69.578 27.3776 69.5934 27.3003 69.6094 27.2206C69.4638 27.1235 69.4329 27.1151 69.268 27.1149C69.2271 27.1147 69.1861 27.1144 69.144 27.1141C69.0992 27.1143 69.0544 27.1145 69.0083 27.1147C68.961 27.1145 68.9137 27.1144 68.865 27.1142C68.7084 27.1138 68.5518 27.1141 68.3952 27.1144C68.2866 27.1143 68.1779 27.1142 68.0693 27.1141C67.8414 27.114 67.6135 27.1142 67.3856 27.1146C67.0933 27.1151 66.801 27.1148 66.5087 27.1143C66.2843 27.1139 66.0599 27.114 65.8355 27.1143C65.7277 27.1143 65.6199 27.1143 65.5121 27.1141C65.3615 27.1138 65.2109 27.1142 65.0603 27.1147C65.0156 27.1145 64.9709 27.1143 64.9249 27.1141C64.8633 27.1145 64.8633 27.1145 64.8004 27.1149C64.7648 27.115 64.7292 27.115 64.6926 27.115C64.5804 27.1284 64.5038 27.1649 64.4063 27.2206Z" fill="#D7FF01"/>
<path d="M65.401 28.6125C65.4398 28.6121 65.4785 28.6117 65.5184 28.6113C65.6465 28.6102 65.7745 28.6097 65.9026 28.6094C65.9918 28.609 66.081 28.6086 66.1702 28.6082C66.3573 28.6074 66.5444 28.607 66.7315 28.6069C66.9707 28.6066 67.2098 28.6049 67.449 28.6027C67.6333 28.6013 67.8176 28.601 68.002 28.6009C68.0901 28.6007 68.1783 28.6002 68.2664 28.5992C68.39 28.5979 68.5136 28.5982 68.6372 28.5987C68.6733 28.598 68.7093 28.5973 68.7465 28.5966C69.054 28.6007 69.2751 28.7195 69.4953 28.9322C69.7118 29.1769 69.7201 29.4007 69.7159 29.7167C69.6848 30.0301 69.4996 30.2061 69.2664 30.4004C69.0809 30.5287 68.881 30.5091 68.6653 30.5094C68.6264 30.5096 68.5875 30.5098 68.5475 30.5101C68.4187 30.5108 68.29 30.5111 68.1612 30.5114C68.0717 30.5116 67.9822 30.5119 67.8927 30.5122C67.7049 30.5127 67.5171 30.5129 67.3294 30.5131C67.089 30.5133 66.8486 30.5145 66.6083 30.5158C66.4233 30.5167 66.2384 30.5169 66.0534 30.517C65.9648 30.5171 65.8762 30.5175 65.7876 30.5181C65.6635 30.5189 65.5395 30.5188 65.4154 30.5185C65.3789 30.519 65.3425 30.5194 65.3049 30.5198C65.0115 30.5176 64.8289 30.4425 64.6084 30.2528C64.377 29.9839 64.3331 29.7685 64.3431 29.4193C64.3743 29.1583 64.4911 28.9956 64.6875 28.8231C64.9321 28.6447 65.099 28.6127 65.401 28.6125ZM65.1562 29.4706C65.1562 29.5325 65.1562 29.5943 65.1562 29.6581C65.2945 29.7272 65.4346 29.7119 65.5862 29.7118C65.6208 29.7119 65.6554 29.7121 65.6911 29.7122C65.8058 29.7127 65.9205 29.7128 66.0352 29.7128C66.1147 29.713 66.1942 29.7131 66.2737 29.7133C66.4405 29.7136 66.6072 29.7137 66.774 29.7136C66.9881 29.7136 67.2021 29.7143 67.4162 29.7151C67.5804 29.7156 67.7446 29.7157 67.9089 29.7157C67.9878 29.7157 68.0667 29.7159 68.1457 29.7163C68.2559 29.7168 68.3661 29.7166 68.4763 29.7163C68.5091 29.7166 68.542 29.7169 68.5758 29.7171C68.7618 29.7207 68.7618 29.7207 68.9062 29.6112C68.8984 29.5135 68.8984 29.5135 68.8594 29.4237C68.7222 29.3551 68.5841 29.3699 68.4337 29.37C68.3996 29.3699 68.3654 29.3697 68.3303 29.3695C68.2171 29.3691 68.1039 29.369 67.9907 29.369C67.9123 29.3688 67.8338 29.3686 67.7553 29.3685C67.5908 29.3682 67.4262 29.3681 67.2617 29.3681C67.0504 29.3681 66.8392 29.3675 66.628 29.3667C66.4659 29.3662 66.3039 29.3661 66.1418 29.3661C66.0639 29.3661 65.986 29.3658 65.9081 29.3655C65.7994 29.365 65.6906 29.3652 65.5819 29.3654C65.5333 29.365 65.5333 29.365 65.4837 29.3646C65.2993 29.3613 65.2993 29.3613 65.1562 29.4706Z" fill="#D7FF01"/>
<path d="M68.3906 13.3925C68.6309 13.4729 68.8624 13.5707 69.0938 13.6737C69.1362 13.692 69.1786 13.7103 69.2223 13.7292C69.5564 13.8834 69.8395 14.0998 70.125 14.33C70.1652 14.3623 70.2054 14.3946 70.2468 14.4279C71.1509 15.1973 71.7213 16.3112 71.8332 17.4911C71.8392 17.5672 71.845 17.6434 71.8506 17.7196C71.8537 17.7561 71.8567 17.7925 71.8599 17.8301C71.8729 18.0496 71.8615 18.1818 71.7188 18.3612C71.5996 18.4516 71.5414 18.4554 71.3906 18.4491C71.2185 18.3989 71.169 18.3654 71.0625 18.2206C71.0239 18.0622 71.0105 17.9022 70.9951 17.7401C70.8839 16.7944 70.5731 16.0346 69.9375 15.3143C69.902 15.2722 69.902 15.2722 69.8657 15.2292C69.2191 14.5182 68.2086 14.1286 67.2686 14.0721C66.8737 14.0464 66.8737 14.0464 66.7031 13.9081C66.6299 13.7528 66.6299 13.7528 66.6094 13.58C66.8314 12.9805 67.8962 13.2512 68.3906 13.3925Z" fill="#D7FF01"/>
<path d="M61.3594 8.23621C61.5965 8.48115 61.767 8.77819 61.9482 9.06531C62.0147 9.17035 62.0812 9.27539 62.1476 9.38043C62.1805 9.43247 62.2134 9.4845 62.2473 9.53811C62.3361 9.67733 62.4265 9.81527 62.5179 9.95282C62.544 9.99269 62.5702 10.0326 62.5972 10.0736C62.6456 10.1474 62.6947 10.2209 62.7443 10.2939C62.882 10.5057 62.9394 10.6475 62.9062 10.9081C62.8389 11.0458 62.8389 11.0458 62.7188 11.1425C62.5699 11.1791 62.4431 11.1905 62.2969 11.1425C62.0794 10.9217 61.9244 10.6542 61.7607 10.3925C61.5826 10.1083 61.4039 9.82496 61.2175 9.54614C61.1721 9.47753 61.1721 9.47753 61.1259 9.40753C61.0679 9.31993 61.0094 9.23275 60.9501 9.14606C60.7827 8.89074 60.7095 8.73009 60.75 8.42371C60.892 8.15995 61.0874 8.16586 61.3594 8.23621Z" fill="#D7FF01"/>
<path d="M76.8281 12.2206C76.9395 12.2675 76.9395 12.2675 77.0156 12.3612C77.0581 12.4887 77.0821 12.6027 77.0625 12.7362C76.9382 12.9154 76.822 13.0152 76.6296 13.1156C76.581 13.1414 76.5323 13.1671 76.4822 13.1937C76.4301 13.2206 76.3779 13.2475 76.3242 13.2753C76.2423 13.3183 76.1604 13.3613 76.0785 13.4044C76.0223 13.4339 75.9661 13.4634 75.9099 13.4928C75.7167 13.594 75.5257 13.6986 75.3355 13.8052C75.2849 13.8333 75.2344 13.8614 75.1823 13.8904C75.0861 13.9441 74.99 13.9983 74.8942 14.0528C74.8506 14.077 74.8069 14.1011 74.762 14.126C74.7241 14.1473 74.6862 14.1687 74.6471 14.1907C74.5056 14.2463 74.4009 14.2507 74.25 14.2362C74.1152 14.1395 74.1152 14.1395 74.0156 14.0018C73.9866 13.8214 73.9878 13.7212 74.0806 13.5626C74.2584 13.3838 74.465 13.2896 74.6895 13.1786C74.7864 13.1294 74.8832 13.0802 74.98 13.0308C75.0297 13.0056 75.0793 12.9804 75.1304 12.9545C75.3735 12.8293 75.613 12.698 75.8525 12.5663C75.9372 12.5198 76.0218 12.4732 76.1065 12.4268C76.1419 12.4073 76.1772 12.3878 76.2137 12.3677C76.2463 12.3501 76.2789 12.3325 76.3125 12.3143C76.3443 12.2968 76.3761 12.2794 76.4089 12.2613C76.5523 12.1972 76.6735 12.2068 76.8281 12.2206Z" fill="#D7FF01"/>
<path d="M57.5625 12.2206C57.7002 12.2709 57.7002 12.2709 57.8437 12.3466C57.8708 12.3606 57.8978 12.3747 57.9256 12.3892C58.3018 12.5881 58.6705 12.8018 59.04 13.0129C59.289 13.1547 59.5412 13.2885 59.7971 13.4175C59.915 13.4917 59.9765 13.554 60.0469 13.6737C60.0648 13.8409 60.0655 13.9575 60 14.1132C59.8595 14.2273 59.7072 14.2388 59.5312 14.2362C59.4066 14.1915 59.3106 14.1491 59.1978 14.0846C59.1674 14.0682 59.137 14.0519 59.1057 14.035C59.0078 13.9819 58.9106 13.9275 58.8135 13.8729C58.7463 13.836 58.679 13.7992 58.6118 13.7625C58.4473 13.6723 58.2835 13.581 58.12 13.4891C57.9935 13.4182 57.8666 13.3482 57.7397 13.278C57.6601 13.2333 57.5805 13.1884 57.501 13.1434C57.4655 13.1235 57.4301 13.1036 57.3935 13.0831C57.0901 12.907 57.0901 12.907 57 12.7362C57.0032 12.5553 57.0223 12.4449 57.123 12.2938C57.2774 12.1923 57.3798 12.2076 57.5625 12.2206Z" fill="#D7FF01"/>
<path d="M67.1234 6.48022C67.2643 6.51215 67.3162 6.57789 67.4062 6.68933C67.4301 6.82273 67.4301 6.82273 67.4305 6.97873C67.4311 7.03723 67.4317 7.09574 67.4323 7.15602C67.432 7.21969 67.4316 7.28337 67.4312 7.34705C67.4313 7.41254 67.4315 7.47803 67.4317 7.54352C67.432 7.68065 67.4316 7.81776 67.4307 7.95489C67.4296 8.13049 67.4302 8.30605 67.4314 8.48165C67.432 8.61685 67.4318 8.75204 67.4313 8.88724C67.4312 8.95198 67.4314 9.01672 67.4318 9.08146C67.4323 9.17199 67.4314 9.26253 67.4305 9.35306C67.4303 9.43028 67.4303 9.43028 67.4301 9.50906C67.4007 9.67349 67.3481 9.72769 67.2188 9.82996C67.0604 9.89248 66.9971 9.8813 66.835 9.8241C66.6817 9.72191 66.6622 9.67422 66.6094 9.50183C66.5975 9.37379 66.5975 9.37379 66.5972 9.23367C66.5969 9.18095 66.5967 9.12824 66.5963 9.07392C66.5965 9.01742 66.5967 8.96092 66.5969 8.90271C66.5968 8.81508 66.5968 8.81508 66.5967 8.72569C66.5966 8.57073 66.5969 8.41578 66.5975 8.26082C66.5977 8.16598 66.5975 8.07115 66.5972 7.97631C66.5966 7.7939 66.5966 7.61149 66.5969 7.42908C66.5967 7.37258 66.5965 7.31608 66.5963 7.25787C66.5966 7.20515 66.5969 7.15243 66.5972 7.09811C66.5973 7.05188 66.5974 7.00564 66.5975 6.958C66.6104 6.81876 66.639 6.71971 66.7031 6.59558C66.8538 6.49513 66.9457 6.48776 67.1234 6.48022Z" fill="#D7FF01"/>
<path d="M73.2656 8.32996C73.377 8.37683 73.377 8.37683 73.4531 8.47058C73.5059 8.65892 73.5301 8.77437 73.4531 8.95654C73.3792 9.08216 73.2999 9.20191 73.2171 9.32184C73.1875 9.36631 73.158 9.41078 73.1275 9.4566C73.0329 9.59831 72.9369 9.73901 72.8408 9.87976C72.7774 9.97458 72.7141 10.0695 72.6508 10.1644C71.9497 11.2105 71.9497 11.2105 71.7658 11.2629C71.6095 11.2716 71.5008 11.2461 71.3672 11.1659C71.2681 11.0007 71.2624 10.8589 71.2969 10.6737C71.3766 10.502 71.4807 10.3499 71.5876 10.1942C71.6174 10.1495 71.6471 10.1048 71.6777 10.0587C71.7726 9.91648 71.8687 9.77509 71.9648 9.63367C72.0288 9.53805 72.0927 9.44237 72.1566 9.34665C72.8559 8.3017 72.8559 8.3017 73.2656 8.32996Z" fill="#D7FF01"/>
<path d="M81.8054 28.04H92.2374L85.6774 12.584L78.7014 29H77.6774L85.6774 10.12L93.6774 29H81.8054V28.04Z" fill="#D9D9D9" fill-opacity="0.8"/>
<path d="M81.8054 28.04V27.64H81.4054V28.04H81.8054ZM92.2374 28.04V28.44H92.8417L92.6056 27.8837L92.2374 28.04ZM85.6774 12.584L86.0456 12.4277L85.6776 11.5607L85.3093 12.4276L85.6774 12.584ZM78.7014 29V29.4H78.9661L79.0696 29.1564L78.7014 29ZM77.6774 29L77.3091 28.8439L77.0735 29.4H77.6774V29ZM85.6774 10.12L86.0457 9.96394L85.6774 9.09475L85.3091 9.96394L85.6774 10.12ZM93.6774 29V29.4H94.2813L94.0457 28.8439L93.6774 29ZM81.8054 29H81.4054V29.4H81.8054V29ZM81.8054 28.44H92.2374V27.64H81.8054V28.44ZM92.6056 27.8837L86.0456 12.4277L85.3092 12.7403L91.8692 28.1963L92.6056 27.8837ZM85.3093 12.4276L78.3333 28.8436L79.0696 29.1564L86.0456 12.7404L85.3093 12.4276ZM78.7014 28.6H77.6774V29.4H78.7014V28.6ZM78.0457 29.1561L86.0457 10.2761L85.3091 9.96394L77.3091 28.8439L78.0457 29.1561ZM85.3091 10.2761L93.3091 29.1561L94.0457 28.8439L86.0457 9.96394L85.3091 10.2761ZM93.6774 28.6H81.8054V29.4H93.6774V28.6ZM82.2054 29V28.04H81.4054V29H82.2054Z" fill="white" fill-opacity="0.8"/>
</svg>
