<svg width="93" height="25" viewBox="0 0 93 25" fill="none" xmlns="http://www.w3.org/2000/svg">
<path d="M1.496 6.13603C1.496 4.0667 2.01867 2.57336 3.064 1.65603C4.10933 0.738696 5.80533 0.280029 8.152 0.280029C9.79467 0.280029 11.1173 0.706696 12.12 1.56003C13.1227 2.41336 13.848 3.7147 14.296 5.46403L11.32 7.70403H9.752L13.208 5.11203C12.76 3.6827 12.1093 2.68003 11.256 2.10403C10.424 1.52803 9.38933 1.24003 8.152 1.24003C7.29867 1.24003 6.57333 1.29336 5.976 1.40003C5.4 1.5067 4.81333 1.72003 4.216 2.04003C3.64 2.3387 3.20267 2.82936 2.904 3.51203C2.60533 4.1947 2.456 5.06936 2.456 6.13603C2.456 7.0747 2.88267 7.9067 3.736 8.63203C4.61067 9.35736 5.66667 9.97603 6.904 10.488C8.14133 11 9.37867 11.5227 10.616 12.056C11.8747 12.5894 12.9307 13.272 13.784 14.104C14.6587 14.936 15.096 15.896 15.096 16.984C15.096 19.1174 14.5627 20.7067 13.496 21.752C12.4507 22.7974 10.648 23.32 8.088 23.32C5.99733 23.32 4.35467 22.904 3.16 22.072C1.96533 21.2187 1.144 19.9067 0.695999 18.136L1.592 17.752C2.01867 19.48 2.744 20.6854 3.768 21.368C4.81333 22.0294 6.25333 22.36 8.088 22.36C10.136 22.36 11.6507 21.9654 12.632 21.176C13.6347 20.3867 14.136 18.9894 14.136 16.984C14.136 16.0454 13.6987 15.2134 12.824 14.488C11.9707 13.7627 10.9147 13.144 9.656 12.632C8.41867 12.12 7.18133 11.5974 5.944 11.064C4.70667 10.5307 3.65067 9.84803 2.776 9.01603C1.92267 8.18403 1.496 7.22403 1.496 6.13603Z" fill="#D9D9D9"/>
<path d="M29.384 5.43203C28.6587 5.19736 27.7627 5.08003 26.696 5.08003C25.6293 5.08003 24.7333 5.19736 24.008 5.43203C23.2827 5.64536 22.6107 6.06136 21.992 6.68003C21.3947 7.27736 20.9467 8.1627 20.648 9.33603C20.3493 10.488 20.2 11.9494 20.2 13.72C20.2 15.4907 20.3493 16.9627 20.648 18.136C20.9467 19.288 21.3947 20.1734 21.992 20.792C22.6107 21.3894 23.2827 21.8054 24.008 22.04C24.7333 22.2534 25.6293 22.36 26.696 22.36C27.7627 22.36 28.6587 22.2534 29.384 22.04C30.1093 21.8054 30.7707 21.3894 31.368 20.792C31.9867 20.1734 32.4453 19.288 32.744 18.136C33.0427 16.9627 33.192 15.4907 33.192 13.72C33.192 11.9494 33.0427 10.488 32.744 9.33603C32.4453 8.1627 31.9867 7.27736 31.368 6.68003C30.7707 6.06136 30.1093 5.64536 29.384 5.43203ZM32.424 21.048C31.272 22.5627 29.3627 23.32 26.696 23.32C24.0293 23.32 22.12 22.5627 20.968 21.048C19.816 19.5334 19.24 17.0907 19.24 13.72C19.24 10.3494 19.816 7.9067 20.968 6.39203C22.12 4.87736 24.0293 4.12003 26.696 4.12003C29.3627 4.12003 31.272 4.87736 32.424 6.39203C33.576 7.9067 34.152 10.3494 34.152 13.72C34.152 17.0907 33.576 19.5334 32.424 21.048Z" fill="#D9D9D9"/>
<path d="M39.72 23V13.72C39.72 10.3494 40.296 7.9067 41.448 6.39203C42.6213 4.87736 44.5307 4.12003 47.176 4.12003C50.2693 4.12003 52.3707 5.13336 53.48 7.16003L46.792 12.76H53.608V13.72H44.136L52.232 6.96803C51.2933 5.70936 49.608 5.08003 47.176 5.08003C46.1093 5.08003 45.2133 5.19736 44.488 5.43203C43.7627 5.64536 43.0907 6.06136 42.472 6.68003C41.8747 7.27736 41.4267 8.1627 41.128 9.33603C40.8293 10.488 40.68 11.9494 40.68 13.72V23H39.72Z" fill="#D9D9D9"/>
<path d="M69.8809 6.96765C69.9574 7.03063 70.0336 7.09411 70.1094 7.15808C70.1485 7.19083 70.1876 7.22358 70.2278 7.25732C70.5209 7.5111 70.765 7.78772 71 8.09558C71.0273 8.13044 71.0546 8.16531 71.0828 8.20123C72.0878 9.55144 72.4125 11.2336 72.1719 12.8768C71.9616 14.1904 71.3081 15.361 70.3602 16.2819C70.05 16.5932 69.8105 16.9243 69.6406 17.33C69.6238 17.3701 69.607 17.4102 69.5897 17.4515C69.3553 18.0789 69.2997 18.7701 69.2833 19.435C69.2728 19.7765 69.2728 19.7765 69.1719 19.9081C69.025 19.9989 68.9123 20.0137 68.741 20.014C68.6671 20.0145 68.6671 20.0145 68.5918 20.0151C68.5381 20.0149 68.4843 20.0148 68.4289 20.0147C68.3721 20.0149 68.3153 20.0152 68.2568 20.0154C68.1012 20.016 67.9455 20.0161 67.7899 20.016C67.6599 20.0159 67.5299 20.0161 67.3999 20.0164C67.0932 20.0169 66.7864 20.0169 66.4797 20.0166C66.1634 20.0163 65.8472 20.0169 65.5309 20.0179C65.2592 20.0187 64.9875 20.019 64.7158 20.0189C64.5536 20.0188 64.3914 20.0189 64.2292 20.0196C64.0483 20.0203 63.8674 20.0198 63.6865 20.0193C63.6329 20.0196 63.5792 20.02 63.5239 20.0204C63.4499 20.0199 63.4499 20.0199 63.3744 20.0194C63.3102 20.0194 63.3102 20.0194 63.2448 20.0194C63.0988 19.998 63.0103 19.9461 62.8906 19.8612C62.7995 19.7273 62.7849 19.6178 62.7824 19.4578C62.7813 19.416 62.7803 19.3741 62.7791 19.331C62.7782 19.2865 62.7773 19.242 62.7764 19.1962C62.7329 17.9101 62.3887 16.9375 61.4551 16.0409C60.3568 14.9504 59.8692 13.3319 59.832 11.8192C59.878 10.0654 60.5718 8.48442 61.8409 7.27382C62.7524 6.43018 63.8786 5.92172 65.0938 5.70495C65.144 5.69589 65.1943 5.68682 65.2461 5.67748C66.9228 5.49235 68.5521 5.92894 69.8809 6.96765ZM62.5156 7.72058C62.4805 7.74849 62.4454 7.77641 62.4092 7.80517C62.1411 8.02627 61.93 8.28959 61.7188 8.56433C61.676 8.61925 61.676 8.61925 61.6323 8.67529C60.8101 9.78531 60.4875 11.208 60.6642 12.5703C60.6931 12.7533 60.735 12.9318 60.7812 13.1112C60.7929 13.1569 60.7929 13.1569 60.8049 13.2035C61.0718 14.2176 61.6109 15.0358 62.3604 15.7655C63.2805 16.6771 63.4641 17.9266 63.5938 19.1581C65.2025 19.1581 66.8112 19.1581 68.4688 19.1581C68.5152 18.8023 68.5616 18.4465 68.6094 18.0799C68.8277 17.1435 69.0981 16.3791 69.8126 15.7098C70.6755 14.8935 71.176 13.8009 71.375 12.6425C71.3812 12.6079 71.3873 12.5733 71.3937 12.5377C71.5877 11.1847 71.2096 9.7579 70.4147 8.65358C70.0215 8.133 69.545 7.63606 68.9844 7.2987C68.9582 7.28236 68.932 7.26601 68.905 7.24917C68.4228 6.94977 67.9366 6.74819 67.3906 6.59558C67.3367 6.57962 67.2827 6.56367 67.2271 6.54724C65.5557 6.13082 63.8136 6.64751 62.5156 7.72058Z" fill="#D7FF01"/>
<path d="M63.5319 20.3702C63.5995 20.3698 63.5995 20.3698 63.6684 20.3694C63.7178 20.3694 63.7672 20.3693 63.8181 20.3693C63.8702 20.369 63.9222 20.3688 63.9759 20.3686C64.1486 20.3679 64.3212 20.3676 64.4939 20.3673C64.6138 20.367 64.7336 20.3668 64.8535 20.3665C65.0729 20.3661 65.2923 20.3658 65.5117 20.3656C65.8342 20.3654 66.1567 20.3646 66.4791 20.3632C66.7588 20.3621 67.0384 20.3617 67.318 20.3617C67.4368 20.3615 67.5556 20.3611 67.6744 20.3605C67.8407 20.3597 68.007 20.3598 68.1733 20.3601C68.2223 20.3597 68.2713 20.3593 68.3218 20.3588C68.6593 20.3607 68.8889 20.4016 69.1572 20.62C69.3304 20.8306 69.4618 21.0388 69.4736 21.3173C69.4371 21.6457 69.3111 21.8782 69.0781 22.1112C68.8234 22.2431 68.5856 22.3042 68.3002 22.3053C68.2583 22.3056 68.2165 22.3058 68.1734 22.3061C68.128 22.3061 68.0827 22.3062 68.036 22.3063C67.9878 22.3065 67.9396 22.3067 67.89 22.307C67.7307 22.3076 67.5714 22.308 67.412 22.3082C67.3011 22.3085 67.1901 22.3088 67.0791 22.309C66.8463 22.3095 66.6135 22.3098 66.3808 22.31C66.0833 22.3102 65.7857 22.3113 65.4882 22.3127C65.2589 22.3136 65.0295 22.3138 64.8002 22.3139C64.6906 22.314 64.5809 22.3144 64.4713 22.315C64.3175 22.3158 64.1637 22.3157 64.0099 22.3154C63.9651 22.3158 63.9202 22.3163 63.874 22.3167C63.5393 22.3147 63.1899 22.2796 62.917 22.0706C62.6618 21.7426 62.5591 21.5019 62.6094 21.08C62.6968 20.7663 62.8975 20.5865 63.1719 20.4237C63.3067 20.3787 63.3918 20.3707 63.5319 20.3702ZM63.4062 21.2206C63.4296 21.3498 63.4296 21.3498 63.5 21.455C63.5658 21.4594 63.6319 21.4607 63.6978 21.4606C63.7405 21.4607 63.7831 21.4607 63.8271 21.4608C63.8743 21.4606 63.9214 21.4604 63.97 21.4603C64.0194 21.4603 64.0688 21.4603 64.1197 21.4603C64.2838 21.4603 64.4479 21.4599 64.612 21.4595C64.7254 21.4594 64.8389 21.4594 64.9523 21.4593C65.2515 21.4591 65.5508 21.4587 65.85 21.4582C66.1551 21.4577 66.4602 21.4575 66.7652 21.4572C67.3643 21.4567 67.9634 21.4559 68.5625 21.455C68.578 21.3776 68.5934 21.3003 68.6094 21.2206C68.4638 21.1235 68.4329 21.1151 68.268 21.1149C68.2271 21.1147 68.1861 21.1144 68.144 21.1141C68.0992 21.1143 68.0544 21.1145 68.0082 21.1147C67.961 21.1145 67.9137 21.1144 67.865 21.1142C67.7084 21.1138 67.5518 21.1141 67.3952 21.1144C67.2866 21.1143 67.1779 21.1142 67.0693 21.1141C66.8414 21.114 66.6135 21.1142 66.3856 21.1146C66.0933 21.1151 65.801 21.1148 65.5087 21.1143C65.2843 21.1139 65.0599 21.114 64.8354 21.1143C64.7277 21.1143 64.6199 21.1143 64.5121 21.114C64.3615 21.1138 64.2109 21.1142 64.0603 21.1147C64.0156 21.1145 63.9709 21.1143 63.9249 21.1141C63.8633 21.1145 63.8633 21.1145 63.8004 21.1149C63.7648 21.115 63.7292 21.115 63.6926 21.115C63.5804 21.1284 63.5038 21.1649 63.4062 21.2206Z" fill="#D7FF01"/>
<path d="M64.401 22.6125C64.4398 22.6121 64.4785 22.6117 64.5184 22.6113C64.6465 22.6102 64.7745 22.6097 64.9026 22.6094C64.9918 22.609 65.081 22.6086 65.1702 22.6081C65.3573 22.6074 65.5444 22.607 65.7315 22.6069C65.9707 22.6066 66.2098 22.6049 66.449 22.6027C66.6333 22.6013 66.8176 22.601 67.002 22.6009C67.0901 22.6007 67.1783 22.6002 67.2664 22.5992C67.39 22.5979 67.5136 22.5981 67.6372 22.5987C67.6733 22.598 67.7093 22.5973 67.7465 22.5966C68.054 22.6007 68.2751 22.7195 68.4953 22.9321C68.7118 23.1769 68.7201 23.4007 68.7159 23.7167C68.6848 24.0301 68.4996 24.2061 68.2664 24.4004C68.0809 24.5286 67.881 24.5091 67.6653 24.5094C67.6264 24.5096 67.5875 24.5098 67.5475 24.5101C67.4187 24.5108 67.29 24.5111 67.1612 24.5113C67.0717 24.5116 66.9822 24.5119 66.8927 24.5122C66.7049 24.5126 66.5171 24.5129 66.3294 24.5131C66.089 24.5133 65.8486 24.5145 65.6083 24.5158C65.4233 24.5167 65.2384 24.5169 65.0534 24.517C64.9648 24.5171 64.8762 24.5175 64.7876 24.5181C64.6635 24.5189 64.5395 24.5188 64.4154 24.5185C64.3789 24.519 64.3425 24.5194 64.3049 24.5198C64.0115 24.5176 63.8289 24.4425 63.6084 24.2528C63.377 23.9839 63.3331 23.7685 63.3431 23.4193C63.3743 23.1583 63.4911 22.9956 63.6875 22.8231C63.9321 22.6447 64.099 22.6127 64.401 22.6125ZM64.1562 23.4706C64.1562 23.5325 64.1562 23.5943 64.1562 23.6581C64.2945 23.7272 64.4346 23.7119 64.5862 23.7118C64.6208 23.7119 64.6554 23.7121 64.6911 23.7122C64.8058 23.7127 64.9205 23.7128 65.0352 23.7128C65.1147 23.713 65.1942 23.7131 65.2737 23.7133C65.4405 23.7136 65.6072 23.7137 65.774 23.7136C65.9881 23.7136 66.2021 23.7143 66.4162 23.7151C66.5804 23.7156 66.7446 23.7157 66.9089 23.7157C66.9878 23.7157 67.0667 23.7159 67.1457 23.7163C67.2559 23.7168 67.3661 23.7166 67.4763 23.7163C67.5091 23.7166 67.542 23.7169 67.5758 23.7171C67.7618 23.7207 67.7618 23.7207 67.9062 23.6112C67.8984 23.5135 67.8984 23.5135 67.8594 23.4237C67.7222 23.3551 67.5841 23.3699 67.4337 23.37C67.3996 23.3699 67.3654 23.3697 67.3303 23.3695C67.2171 23.3691 67.1039 23.369 66.9907 23.369C66.9123 23.3688 66.8338 23.3686 66.7553 23.3685C66.5908 23.3682 66.4262 23.3681 66.2617 23.3681C66.0504 23.3681 65.8392 23.3675 65.628 23.3667C65.4659 23.3662 65.3039 23.3661 65.1418 23.3661C65.0639 23.366 64.986 23.3658 64.9081 23.3655C64.7994 23.365 64.6906 23.3652 64.5819 23.3654C64.5333 23.365 64.5333 23.365 64.4837 23.3646C64.2993 23.3613 64.2993 23.3613 64.1562 23.4706Z" fill="#D7FF01"/>
<path d="M67.3906 7.39245C67.6309 7.47291 67.8624 7.57067 68.0938 7.6737C68.1362 7.69201 68.1786 7.71032 68.2223 7.72918C68.5564 7.88344 68.8395 8.09978 69.125 8.32995C69.1652 8.36228 69.2054 8.3946 69.2468 8.42791C70.1509 9.19734 70.7213 10.3112 70.8332 11.4911C70.8392 11.5672 70.845 11.6434 70.8506 11.7196C70.8537 11.7561 70.8567 11.7925 70.8599 11.8301C70.8729 12.0496 70.8615 12.1818 70.7188 12.3612C70.5996 12.4516 70.5414 12.4554 70.3906 12.4491C70.2185 12.3989 70.169 12.3654 70.0625 12.2206C70.0239 12.0622 70.0105 11.9022 69.9951 11.7401C69.8839 10.7944 69.5731 10.0346 68.9375 9.31433C68.902 9.27218 68.902 9.27218 68.8657 9.22918C68.2191 8.51821 67.2086 8.12856 66.2686 8.07214C65.8737 8.04639 65.8737 8.04639 65.7031 7.90808C65.6299 7.7528 65.6299 7.7528 65.6094 7.57995C65.8314 6.98053 66.8962 7.25118 67.3906 7.39245Z" fill="#D7FF01"/>
<path d="M60.3594 2.2362C60.5965 2.48114 60.767 2.77818 60.9482 3.0653C61.0147 3.17035 61.0812 3.27539 61.1476 3.38043C61.1805 3.43246 61.2134 3.48449 61.2473 3.5381C61.3361 3.67732 61.4265 3.81527 61.5179 3.95281C61.544 3.99268 61.5702 4.03255 61.5972 4.07363C61.6456 4.14743 61.6947 4.22087 61.7443 4.29388C61.882 4.50566 61.9394 4.64748 61.9062 4.90808C61.8389 5.04577 61.8389 5.04577 61.7188 5.14245C61.5699 5.17911 61.4431 5.19053 61.2969 5.14245C61.0794 4.92172 60.9244 4.65422 60.7607 4.39245C60.5826 4.10828 60.4039 3.82496 60.2175 3.54614C60.1721 3.47752 60.1721 3.47752 60.1259 3.40753C60.0679 3.31993 60.0094 3.23274 59.9501 3.14605C59.7827 2.89074 59.7095 2.73008 59.75 2.4237C59.892 2.15994 60.0874 2.16585 60.3594 2.2362Z" fill="#D7FF01"/>
<path d="M75.8281 6.22057C75.9395 6.26745 75.9395 6.26745 76.0156 6.3612C76.0581 6.48874 76.0821 6.60271 76.0625 6.7362C75.9382 6.91536 75.822 7.01523 75.6296 7.11559C75.581 7.14136 75.5323 7.16712 75.4822 7.19367C75.4301 7.22059 75.3779 7.24752 75.3242 7.27526C75.2423 7.31827 75.1604 7.36129 75.0785 7.40438C75.0223 7.43392 74.9661 7.46339 74.9099 7.4928C74.7167 7.59402 74.5257 7.69862 74.3354 7.80517C74.2849 7.8333 74.2344 7.86143 74.1823 7.89041C74.0861 7.94413 73.99 7.99825 73.8942 8.05282C73.8506 8.07696 73.8069 8.1011 73.762 8.12597C73.7241 8.14732 73.6862 8.16868 73.6471 8.19068C73.5056 8.24629 73.4009 8.25069 73.25 8.2362C73.1152 8.13952 73.1152 8.13952 73.0156 8.00182C72.9866 7.82139 72.9878 7.72121 73.0806 7.56255C73.2584 7.38375 73.465 7.28964 73.6895 7.17858C73.7864 7.12942 73.8832 7.08016 73.98 7.03082C74.0297 7.00563 74.0793 6.98044 74.1304 6.95448C74.3735 6.82934 74.613 6.69799 74.8525 6.56628C74.9372 6.51975 75.0218 6.47324 75.1065 6.42675C75.1419 6.40726 75.1772 6.38776 75.2137 6.36768C75.2463 6.35007 75.2789 6.33246 75.3125 6.31432C75.3443 6.29684 75.3761 6.27935 75.4089 6.26134C75.5523 6.19717 75.6735 6.20677 75.8281 6.22057Z" fill="#D7FF01"/>
<path d="M56.5625 6.22058C56.7002 6.27093 56.7002 6.27093 56.8438 6.34655C56.8708 6.36063 56.8978 6.37471 56.9256 6.38922C57.3018 6.58811 57.6705 6.80179 58.04 7.01287C58.289 7.15467 58.5412 7.28854 58.7971 7.41754C58.915 7.49172 58.9765 7.55396 59.0469 7.6737C59.0648 7.84089 59.0655 7.95754 59 8.11315C58.8595 8.22731 58.7072 8.23879 58.5312 8.2362C58.4066 8.19146 58.3106 8.14908 58.1978 8.08459C58.1674 8.06822 58.137 8.05185 58.1057 8.03498C58.0078 7.98189 57.9106 7.92746 57.8135 7.87292C57.7463 7.83604 57.679 7.79922 57.6118 7.76247C57.4473 7.6723 57.2835 7.58095 57.12 7.48908C56.9935 7.41818 56.8666 7.34819 56.7397 7.27801C56.6601 7.23328 56.5805 7.18843 56.501 7.14343C56.4655 7.12353 56.4301 7.10364 56.3935 7.08314C56.0901 6.907 56.0901 6.907 56 6.7362C56.0032 6.55531 56.0223 6.44493 56.123 6.29382C56.2774 6.19227 56.3798 6.20755 56.5625 6.22058Z" fill="#D7FF01"/>
<path d="M66.1234 0.480219C66.2643 0.512143 66.3162 0.577888 66.4062 0.689325C66.4301 0.822723 66.4301 0.822723 66.4305 0.978724C66.4311 1.03723 66.4317 1.09573 66.4323 1.15601C66.432 1.21969 66.4316 1.28336 66.4312 1.34704C66.4313 1.41253 66.4315 1.47803 66.4317 1.54352C66.432 1.68065 66.4316 1.81775 66.4307 1.95488C66.4296 2.13049 66.4302 2.30604 66.4314 2.48165C66.432 2.61685 66.4318 2.75204 66.4313 2.88724C66.4312 2.95197 66.4314 3.01671 66.4318 3.08145C66.4323 3.17198 66.4314 3.26252 66.4305 3.35305C66.4303 3.43027 66.4303 3.43027 66.4301 3.50905C66.4007 3.67349 66.3481 3.72768 66.2188 3.82995C66.0604 3.89247 65.9971 3.8813 65.835 3.82409C65.6817 3.7219 65.6622 3.67421 65.6094 3.50183C65.5975 3.37378 65.5975 3.37378 65.5972 3.23367C65.5969 3.18095 65.5966 3.12823 65.5963 3.07391C65.5965 3.01741 65.5967 2.96092 65.5969 2.9027C65.5968 2.81508 65.5968 2.81508 65.5966 2.72568C65.5966 2.57072 65.5969 2.41577 65.5975 2.26081C65.5977 2.16597 65.5975 2.07114 65.5972 1.97631C65.5966 1.79389 65.5966 1.61149 65.5969 1.42907C65.5967 1.37257 65.5965 1.31607 65.5963 1.25786C65.5966 1.20514 65.5969 1.15242 65.5972 1.09811C65.5973 1.05187 65.5974 1.00563 65.5975 0.957993C65.6104 0.818751 65.639 0.719703 65.7031 0.595575C65.8538 0.495126 65.9457 0.487751 66.1234 0.480219Z" fill="#D7FF01"/>
<path d="M72.2656 2.32995C72.377 2.37683 72.377 2.37683 72.4531 2.47058C72.5059 2.65891 72.5301 2.77436 72.4531 2.95654C72.3792 3.08215 72.2999 3.2019 72.2171 3.32183C72.1875 3.3663 72.158 3.41077 72.1275 3.45659C72.0329 3.59831 71.9369 3.739 71.8408 3.87976C71.7774 3.97457 71.7141 4.06945 71.6508 4.16439C70.9497 5.21045 70.9497 5.21045 70.7658 5.26287C70.6095 5.27158 70.5008 5.24606 70.3672 5.16589C70.2681 5.00073 70.2624 4.85887 70.2969 4.6737C70.3766 4.50202 70.4807 4.34991 70.5876 4.19415C70.6174 4.14945 70.6471 4.10476 70.6777 4.05871C70.7726 3.91648 70.8687 3.77508 70.9648 3.63366C71.0288 3.53804 71.0927 3.44237 71.1566 3.34664C71.8559 2.30169 71.8559 2.30169 72.2656 2.32995Z" fill="#D7FF01"/>
<path d="M80.8054 22.04H91.2374L84.6774 6.58403L77.7014 23H76.6774L84.6774 4.12003L92.6774 23H80.8054V22.04Z" fill="#D9D9D9"/>
</svg>
