<svg width="1312" height="284" viewBox="0 0 1312 284" fill="none" xmlns="http://www.w3.org/2000/svg">
<path d="M0 280.203V3.79691H48.0603L65.4155 139.722C65.939 144.152 66.4102 148.455 66.829 152.631C67.3002 156.808 67.6928 161.237 68.007 165.92H68.3996C68.7661 161.237 69.1587 156.808 69.5775 152.631C70.0487 148.455 70.5199 144.152 70.9911 139.722L88.2677 3.79691H136.328V280.203H102.796V137.254C102.796 132.951 102.796 128.142 102.796 122.826C102.848 117.511 102.953 112.702 103.11 108.399H102.639C102.325 112.955 101.932 117.827 101.461 123.016C100.99 128.079 100.518 132.825 100.047 137.254L83.0847 280.203H52.301L35.1814 137.254C34.7102 132.951 34.2129 127.952 33.6894 122.257C33.1658 116.435 32.7993 111.816 32.5899 108.399H32.1188C32.2235 111.816 32.302 116.435 32.3543 122.257C32.4591 127.952 32.5114 132.951 32.5114 137.254V280.203H0Z" fill="url(#paint0_linear_1162_25)"/>
<path d="M147.636 280.203V3.79691H226.637V46.8244H180.226V119.097H219.962V163.885H180.226L180 238.194H227.894V280.203H147.636Z" fill="url(#paint1_linear_1162_25)"/>
<path d="M234.648 177.12V3.79691H268.651V189.84C268.651 204.268 269.541 214.456 271.321 220.404C273.153 226.226 275.823 229.137 279.331 229.137C282.786 229.137 285.404 226.226 287.184 220.404C289.016 214.456 289.933 204.268 289.933 189.84V3.79691H324.015V177.12C324.015 213.443 320.14 240.337 312.392 257.802C304.644 275.268 293.781 284 279.802 284C265.353 284 254.201 275.268 246.348 257.802C238.548 240.337 234.648 213.443 234.648 177.12Z" fill="url(#paint2_linear_1162_25)"/>
<path d="M450.452 4.16139L367.464 280.203H333.85L416.677 4.16139H450.452Z" fill="url(#paint3_linear_1162_25)"/>
<path d="M460.343 280.203V3.79691H514.214C526.151 3.79691 535.313 12.9092 541.7 31.1338C548.087 49.2319 551.28 72.9618 551.28 102.324C551.28 131.686 548.165 155.415 541.935 173.514C535.758 191.485 526.282 200.471 513.507 200.471H494.425V280.203H460.343ZM494.425 145.987H505.105C509.607 145.987 512.748 142 514.528 134.027C516.308 125.927 517.198 115.992 517.198 104.222C517.198 92.452 516.308 82.5803 514.528 74.6071C512.748 66.5073 509.607 62.3941 505.105 62.2675H494.425V145.987Z" fill="url(#paint4_linear_1162_25)"/>
<path d="M557.092 149.404V134.596C557.092 87.5162 561.725 53.3451 570.991 32.083C580.258 10.6944 592.064 0.00012207 606.408 0.00012207C620.858 0.00012207 632.69 10.6944 641.904 32.083C651.17 53.3451 655.804 87.5162 655.804 134.596V149.404C655.804 196.484 651.17 230.718 641.904 252.107C632.69 273.369 620.858 284 606.408 284C592.064 284 580.258 273.369 570.991 252.107C561.725 230.718 557.092 196.484 557.092 149.404ZM592.666 175.602C592.666 195.092 593.87 208.95 596.278 217.177C598.686 225.403 602.063 229.516 606.408 229.516C610.806 229.516 614.209 225.403 616.617 217.177C619.026 208.95 620.23 195.092 620.23 175.602V108.968C620.23 89.6044 619.026 75.9359 616.617 67.9627C614.209 59.8629 610.806 55.813 606.408 55.813C602.063 55.813 598.686 59.8629 596.278 67.9627C593.87 75.9359 592.666 89.6044 592.666 108.968V175.602Z" fill="url(#paint5_linear_1162_25)"/>
<path d="M665.149 280.203V3.79691H717.45C728.601 3.79691 737.553 12.0866 744.307 28.6659C751.113 45.2452 754.516 66.8869 754.516 93.591C754.516 121.308 750.851 144.025 743.522 161.743C736.245 179.335 727.397 188.131 716.979 188.131H699.231V280.203H665.149ZM699.231 136.115H708.654C712.843 136.115 715.774 132.698 717.45 125.864C719.177 118.903 720.041 109.917 720.041 98.9065C720.041 87.8958 719.177 78.8468 717.45 71.7595C715.774 64.5456 712.843 60.9386 708.654 60.9386H699.231V136.115ZM722.319 280.203L703.707 162.693L733.156 140.102L759.306 280.203H722.319Z" fill="url(#paint6_linear_1162_25)"/>
<path d="M754.594 46.8244V3.79691H847.26V46.8244H818.361V280.203H783.729V46.8244H754.594Z" fill="url(#paint7_linear_1162_25)"/>
<path d="M854.249 280.203V3.79691H888.881V280.203H854.249Z" fill="url(#paint8_linear_1162_25)"/>
<path d="M900.582 280.203V3.79691H973.457V46.8244H934.664V119.476H968.274V163.545H934.664V280.203H900.582Z" fill="url(#paint9_linear_1162_25)"/>
<path d="M978.012 149.404V134.596C978.012 87.5162 982.645 53.3451 991.912 32.083C1001.18 10.6944 1012.98 0.00012207 1027.33 0.00012207C1041.78 0.00012207 1053.61 10.6944 1062.82 32.083C1072.09 53.3451 1076.72 87.5162 1076.72 134.596V149.404C1076.72 196.484 1072.09 230.718 1062.82 252.107C1053.61 273.369 1041.78 284 1027.33 284C1012.98 284 1001.18 273.369 991.912 252.107C982.645 230.718 978.012 196.484 978.012 149.404ZM1013.59 175.602C1013.59 195.092 1014.79 208.95 1017.2 217.177C1019.61 225.403 1022.98 229.516 1027.33 229.516C1031.73 229.516 1035.13 225.403 1037.54 217.177C1039.95 208.95 1041.15 195.092 1041.15 175.602V108.968C1041.15 89.6044 1039.95 75.9359 1037.54 67.9627C1035.13 59.8629 1031.73 55.813 1027.33 55.813C1022.98 55.813 1019.61 59.8629 1017.2 67.9627C1014.79 75.9359 1013.59 89.6044 1013.59 108.968V175.602Z" fill="url(#paint10_linear_1162_25)"/>
<path d="M1086.07 280.203V3.79691H1120.15V238.194H1161.3V280.203H1086.07Z" fill="url(#paint11_linear_1162_25)"/>
<path d="M1169 280.203V3.79691H1203.63V280.203H1169Z" fill="url(#paint12_linear_1162_25)"/>
<path d="M1213.29 149.404V134.596C1213.29 87.5162 1217.92 53.3451 1227.19 32.083C1236.45 10.6944 1248.26 0.00012207 1262.6 0.00012207C1277.05 0.00012207 1288.89 10.6944 1298.1 32.083C1307.37 53.3451 1312 87.5162 1312 134.596V149.404C1312 196.484 1307.37 230.718 1298.1 252.107C1288.89 273.369 1277.05 284 1262.6 284C1248.26 284 1236.45 273.369 1227.19 252.107C1217.92 230.718 1213.29 196.484 1213.29 149.404ZM1248.86 175.602C1248.86 195.092 1250.07 208.95 1252.47 217.177C1254.88 225.403 1258.26 229.516 1262.6 229.516C1267 229.516 1270.41 225.403 1272.81 217.177C1275.22 208.95 1276.43 195.092 1276.43 175.602V108.968C1276.43 89.6044 1275.22 75.9359 1272.81 67.9627C1270.41 59.8629 1267 55.813 1262.6 55.813C1258.26 55.813 1254.88 59.8629 1252.47 67.9627C1250.07 75.9359 1248.86 89.6044 1248.86 108.968V175.602Z" fill="url(#paint13_linear_1162_25)"/>
<defs>
<linearGradient id="paint0_linear_1162_25" x1="656" y1="0.000121335" x2="656" y2="284" gradientUnits="userSpaceOnUse">
<stop offset="0.42938" stop-color="white"/>
<stop offset="1" stop-color="#6F6D6D"/>
</linearGradient>
<linearGradient id="paint1_linear_1162_25" x1="656" y1="0.000121335" x2="656" y2="284" gradientUnits="userSpaceOnUse">
<stop offset="0.42938" stop-color="white"/>
<stop offset="1" stop-color="#6F6D6D"/>
</linearGradient>
<linearGradient id="paint2_linear_1162_25" x1="656" y1="0.000121335" x2="656" y2="284" gradientUnits="userSpaceOnUse">
<stop offset="0.42938" stop-color="white"/>
<stop offset="1" stop-color="#6F6D6D"/>
</linearGradient>
<linearGradient id="paint3_linear_1162_25" x1="656" y1="0.00012207" x2="656" y2="284" gradientUnits="userSpaceOnUse">
<stop offset="0.42938" stop-color="#D7FF01"/>
<stop offset="1" stop-color="#607103"/>
</linearGradient>
<linearGradient id="paint4_linear_1162_25" x1="656" y1="0.000121335" x2="656" y2="284" gradientUnits="userSpaceOnUse">
<stop offset="0.42938" stop-color="white"/>
<stop offset="1" stop-color="#6F6D6D"/>
</linearGradient>
<linearGradient id="paint5_linear_1162_25" x1="656" y1="0.000121335" x2="656" y2="284" gradientUnits="userSpaceOnUse">
<stop offset="0.42938" stop-color="white"/>
<stop offset="1" stop-color="#6F6D6D"/>
</linearGradient>
<linearGradient id="paint6_linear_1162_25" x1="656" y1="0.000121335" x2="656" y2="284" gradientUnits="userSpaceOnUse">
<stop offset="0.42938" stop-color="white"/>
<stop offset="1" stop-color="#6F6D6D"/>
</linearGradient>
<linearGradient id="paint7_linear_1162_25" x1="656" y1="0.000121335" x2="656" y2="284" gradientUnits="userSpaceOnUse">
<stop offset="0.42938" stop-color="white"/>
<stop offset="1" stop-color="#6F6D6D"/>
</linearGradient>
<linearGradient id="paint8_linear_1162_25" x1="656" y1="0.000121335" x2="656" y2="284" gradientUnits="userSpaceOnUse">
<stop offset="0.42938" stop-color="white"/>
<stop offset="1" stop-color="#6F6D6D"/>
</linearGradient>
<linearGradient id="paint9_linear_1162_25" x1="656" y1="0.000121335" x2="656" y2="284" gradientUnits="userSpaceOnUse">
<stop offset="0.42938" stop-color="white"/>
<stop offset="1" stop-color="#6F6D6D"/>
</linearGradient>
<linearGradient id="paint10_linear_1162_25" x1="656" y1="0.000121335" x2="656" y2="284" gradientUnits="userSpaceOnUse">
<stop offset="0.42938" stop-color="white"/>
<stop offset="1" stop-color="#6F6D6D"/>
</linearGradient>
<linearGradient id="paint11_linear_1162_25" x1="656" y1="0.000121335" x2="656" y2="284" gradientUnits="userSpaceOnUse">
<stop offset="0.42938" stop-color="white"/>
<stop offset="1" stop-color="#6F6D6D"/>
</linearGradient>
<linearGradient id="paint12_linear_1162_25" x1="656" y1="0.000121335" x2="656" y2="284" gradientUnits="userSpaceOnUse">
<stop offset="0.42938" stop-color="white"/>
<stop offset="1" stop-color="#6F6D6D"/>
</linearGradient>
<linearGradient id="paint13_linear_1162_25" x1="656" y1="0.000121335" x2="656" y2="284" gradientUnits="userSpaceOnUse">
<stop offset="0.42938" stop-color="white"/>
<stop offset="1" stop-color="#6F6D6D"/>
</linearGradient>
</defs>
</svg>
