<svg width="934" height="628" viewBox="0 0 934 628" fill="none" xmlns="http://www.w3.org/2000/svg">
<path d="M0.000200809 291.247V0H52.7073L71.7404 143.223C72.3145 147.891 72.8312 152.425 73.2906 156.825C73.8073 161.226 74.2379 165.893 74.5824 170.828H75.013C75.4149 165.893 75.8455 161.226 76.3049 156.825C76.8216 152.425 77.3383 147.891 77.8551 143.223L96.802 0H149.509V291.247H112.735V140.623C112.735 136.089 112.735 131.021 112.735 125.42C112.792 119.819 112.907 114.752 113.079 110.218H112.562C112.218 115.019 111.787 120.153 111.271 125.62C110.754 130.954 110.237 135.955 109.72 140.623L91.118 291.247H57.3579L38.5831 140.623C38.0664 136.089 37.521 130.821 36.9468 124.82C36.3727 118.686 35.9708 113.818 35.7411 110.218H35.2244C35.3392 113.818 35.4253 118.686 35.4827 124.82C35.5976 130.821 35.655 136.089 35.655 140.623V291.247H0.000200809Z" fill="url(#paint0_linear_1217_149)"/>
<path d="M161.911 291.247V0H248.55V45.3377H197.652V121.49H241.23V168.684H197.652L197.404 246.982H249.928V291.247H161.911Z" fill="url(#paint1_linear_1217_149)"/>
<path d="M257.335 182.63V0H294.626V196.032C294.626 211.234 295.602 221.969 297.554 228.237C299.563 234.371 302.492 237.438 306.338 237.438C310.128 237.438 312.999 234.371 314.951 228.237C316.96 221.969 317.965 211.234 317.965 196.032V0H355.342V182.63C355.342 220.902 351.093 249.24 342.596 267.643C334.099 286.046 322.185 295.248 306.855 295.248C291.009 295.248 278.779 286.046 270.167 267.643C261.612 249.24 257.335 220.902 257.335 182.63Z" fill="url(#paint2_linear_1217_149)"/>
<path d="M494.004 0.384046L402.992 291.247H366.129L456.964 0.384046H494.004Z" fill="url(#paint3_linear_1217_149)"/>
<path d="M0 623.999V332.752H59.0802C72.1708 332.752 82.2185 342.354 89.2231 361.557C96.2278 380.627 99.7301 405.631 99.7301 436.569C99.7301 467.508 96.3139 492.512 89.4815 511.581C82.7065 530.518 72.3143 539.986 58.305 539.986H37.3773V623.999H0ZM37.3773 482.577H49.0899C54.0276 482.577 57.4725 478.376 59.4246 469.975C61.3767 461.44 62.3528 450.972 62.3528 438.57C62.3528 426.168 61.3767 415.766 59.4246 407.365C57.4725 398.83 54.0276 394.496 49.0899 394.362H37.3773V482.577Z" fill="url(#paint4_linear_1217_149)"/>
<path d="M106.103 486.177V470.575C106.103 420.967 111.184 384.961 121.347 362.557C131.509 340.02 144.456 328.752 160.188 328.752C176.035 328.752 189.011 340.02 199.116 362.557C209.278 384.961 214.359 420.967 214.359 470.575V486.177C214.359 535.785 209.278 571.858 199.116 594.395C189.011 616.798 176.035 628 160.188 628C144.456 628 131.509 616.798 121.347 594.395C111.184 571.858 106.103 535.785 106.103 486.177ZM145.117 513.782C145.117 534.318 146.437 548.921 149.078 557.589C151.719 566.257 155.423 570.591 160.188 570.591C165.011 570.591 168.743 566.257 171.384 557.589C174.025 548.921 175.346 534.318 175.346 513.782V443.57C175.346 423.167 174.025 408.765 171.384 400.363C168.743 391.829 165.011 387.561 160.188 387.561C155.423 387.561 151.719 391.829 149.078 400.363C146.437 408.765 145.117 423.167 145.117 443.57V513.782Z" fill="url(#paint5_linear_1217_149)"/>
<path d="M224.608 623.999V332.752H281.966C294.195 332.752 304.013 341.487 311.42 358.957C318.884 376.426 322.615 399.23 322.615 427.368C322.615 456.573 318.596 480.51 310.558 499.179C302.578 517.716 292.874 526.984 281.449 526.984H261.985V623.999H224.608ZM261.985 472.175H272.32C276.913 472.175 280.128 468.574 281.966 461.373C283.86 454.039 284.808 444.571 284.808 432.969C284.808 421.367 283.86 411.832 281.966 404.364C280.128 396.763 276.913 392.962 272.32 392.962H261.985V472.175ZM287.305 623.999L266.894 500.18L299.19 476.376L327.869 623.999H287.305Z" fill="url(#paint6_linear_1217_149)"/>
<path d="M322.702 378.09V332.752H424.326V378.09H392.633V623.999H354.653V378.09H322.702Z" fill="url(#paint7_linear_1217_149)"/>
<path d="M431.991 623.999V332.752H469.971V623.999H431.991Z" fill="url(#paint8_linear_1217_149)"/>
<path d="M482.804 623.999V332.752H562.725V378.09H520.181V454.642H557.041V501.078H520.181V623.999H482.804Z" fill="url(#paint9_linear_1217_149)"/>
<path d="M567.72 486.177V470.575C567.72 420.967 572.802 384.961 582.964 362.557C593.127 340.02 606.074 328.752 621.805 328.752C637.652 328.752 650.628 340.02 660.733 362.557C670.895 384.961 675.976 420.967 675.976 470.575V486.177C675.976 535.785 670.895 571.858 660.733 594.395C650.628 616.798 637.652 628 621.805 628C606.074 628 593.127 616.798 582.964 594.395C572.802 571.858 567.72 535.785 567.72 486.177ZM606.734 513.782C606.734 534.318 608.055 548.921 610.696 557.589C613.337 566.257 617.04 570.591 621.805 570.591C626.628 570.591 630.36 566.257 633.001 557.589C635.642 548.921 636.963 534.318 636.963 513.782V443.57C636.963 423.167 635.642 408.765 633.001 400.363C630.36 391.829 626.628 387.561 621.805 387.561C617.04 387.561 613.337 391.829 610.696 400.363C608.055 408.765 606.734 423.167 606.734 443.57V513.782Z" fill="url(#paint10_linear_1217_149)"/>
<path d="M686.225 623.999V332.752H723.602V579.734H768.731V623.999H686.225Z" fill="url(#paint11_linear_1217_149)"/>
<path d="M777.171 623.999V332.752H815.151V623.999H777.171Z" fill="url(#paint12_linear_1217_149)"/>
<path d="M825.744 486.177V470.575C825.744 420.967 830.825 384.961 840.988 362.557C851.15 340.02 864.097 328.752 879.829 328.752C895.676 328.752 908.651 340.02 918.756 362.557C928.919 384.961 934 420.967 934 470.575V486.177C934 535.785 928.919 571.858 918.756 594.395C908.651 616.798 895.676 628 879.829 628C864.097 628 851.15 616.798 840.988 594.395C830.825 571.858 825.744 535.785 825.744 486.177ZM864.758 513.782C864.758 534.318 866.078 548.921 868.719 557.589C871.36 566.257 875.064 570.591 879.829 570.591C884.652 570.591 888.384 566.257 891.025 557.589C893.666 548.921 894.987 534.318 894.987 513.782V443.57C894.987 423.167 893.666 408.765 891.025 400.363C888.384 391.829 884.652 387.561 879.829 387.561C875.064 387.561 871.36 391.829 868.719 400.363C866.078 408.765 864.758 423.167 864.758 443.57V513.782Z" fill="url(#paint13_linear_1217_149)"/>
<defs>
<linearGradient id="paint0_linear_1217_149" x1="214.575" y1="-0.630993" x2="214.575" y2="288.123" gradientUnits="userSpaceOnUse">
<stop offset="0.42938" stop-color="white"/>
<stop offset="1" stop-color="#949494"/>
</linearGradient>
<linearGradient id="paint1_linear_1217_149" x1="214.575" y1="-0.630993" x2="214.575" y2="288.123" gradientUnits="userSpaceOnUse">
<stop offset="0.42938" stop-color="white"/>
<stop offset="1" stop-color="#949494"/>
</linearGradient>
<linearGradient id="paint2_linear_1217_149" x1="214.575" y1="-0.630993" x2="214.575" y2="288.123" gradientUnits="userSpaceOnUse">
<stop offset="0.42938" stop-color="white"/>
<stop offset="1" stop-color="#949494"/>
</linearGradient>
<linearGradient id="paint3_linear_1217_149" x1="467" y1="0" x2="467" y2="288.123" gradientUnits="userSpaceOnUse">
<stop offset="0.42938" stop-color="#D7FF01"/>
<stop offset="1" stop-color="#607103"/>
</linearGradient>
<linearGradient id="paint4_linear_1217_149" x1="214.575" y1="328.752" x2="214.575" y2="628" gradientUnits="userSpaceOnUse">
<stop offset="0.42938" stop-color="white"/>
<stop offset="1" stop-color="#6F6D6D"/>
</linearGradient>
<linearGradient id="paint5_linear_1217_149" x1="214.575" y1="328.752" x2="214.575" y2="628" gradientUnits="userSpaceOnUse">
<stop offset="0.42938" stop-color="white"/>
<stop offset="1" stop-color="#6F6D6D"/>
</linearGradient>
<linearGradient id="paint6_linear_1217_149" x1="214.575" y1="328.752" x2="214.575" y2="628" gradientUnits="userSpaceOnUse">
<stop offset="0.42938" stop-color="white"/>
<stop offset="1" stop-color="#6F6D6D"/>
</linearGradient>
<linearGradient id="paint7_linear_1217_149" x1="214.575" y1="328.752" x2="214.575" y2="628" gradientUnits="userSpaceOnUse">
<stop offset="0.42938" stop-color="white"/>
<stop offset="1" stop-color="#6F6D6D"/>
</linearGradient>
<linearGradient id="paint8_linear_1217_149" x1="214.575" y1="328.752" x2="214.575" y2="628" gradientUnits="userSpaceOnUse">
<stop offset="0.42938" stop-color="white"/>
<stop offset="1" stop-color="#6F6D6D"/>
</linearGradient>
<linearGradient id="paint9_linear_1217_149" x1="214.575" y1="328.752" x2="214.575" y2="628" gradientUnits="userSpaceOnUse">
<stop offset="0.42938" stop-color="white"/>
<stop offset="1" stop-color="#6F6D6D"/>
</linearGradient>
<linearGradient id="paint10_linear_1217_149" x1="214.575" y1="328.752" x2="214.575" y2="628" gradientUnits="userSpaceOnUse">
<stop offset="0.42938" stop-color="white"/>
<stop offset="1" stop-color="#6F6D6D"/>
</linearGradient>
<linearGradient id="paint11_linear_1217_149" x1="214.575" y1="328.752" x2="214.575" y2="628" gradientUnits="userSpaceOnUse">
<stop offset="0.42938" stop-color="white"/>
<stop offset="1" stop-color="#6F6D6D"/>
</linearGradient>
<linearGradient id="paint12_linear_1217_149" x1="214.575" y1="328.752" x2="214.575" y2="628" gradientUnits="userSpaceOnUse">
<stop offset="0.42938" stop-color="white"/>
<stop offset="1" stop-color="#6F6D6D"/>
</linearGradient>
<linearGradient id="paint13_linear_1217_149" x1="214.575" y1="328.752" x2="214.575" y2="628" gradientUnits="userSpaceOnUse">
<stop offset="0.42938" stop-color="white"/>
<stop offset="1" stop-color="#6F6D6D"/>
</linearGradient>
</defs>
</svg>
