<svg width="852" height="596" viewBox="0 0 852 596" fill="none" xmlns="http://www.w3.org/2000/svg">
<path d="M0.000183105 276.406V0H48.0605L65.4156 135.925C65.9392 140.355 66.4104 144.658 66.8292 148.834C67.3004 153.011 67.693 157.44 68.0071 162.123H68.3998C68.7663 157.44 69.1589 153.011 69.5777 148.834C70.0489 144.658 70.5201 140.355 70.9913 135.925L88.2679 0H136.328V276.406H102.796V133.457C102.796 129.154 102.796 124.345 102.796 119.029C102.848 113.714 102.953 108.905 103.11 104.602H102.639C102.325 109.158 101.932 114.03 101.461 119.219C100.99 124.282 100.519 129.028 100.047 133.457L83.0849 276.406H52.3011L35.1816 133.457C34.7104 129.154 34.2131 124.155 33.6895 118.46C33.166 112.638 32.7995 108.019 32.5901 104.602H32.1189C32.2236 108.019 32.3022 112.638 32.3545 118.46C32.4592 124.155 32.5116 129.154 32.5116 133.457V276.406H0.000183105Z" fill="url(#paint0_linear_1162_25)"/>
<path d="M147.637 276.406V0H226.638V43.0275H180.226V115.3H219.963V160.088H180.226L180 234.397H227.894V276.406H147.637Z" fill="url(#paint1_linear_1162_25)"/>
<path d="M234.648 173.324V0H268.651V186.043C268.651 200.471 269.541 210.659 271.321 216.607C273.154 222.429 275.824 225.34 279.331 225.34C282.787 225.34 285.404 222.429 287.184 216.607C289.017 210.659 289.933 200.471 289.933 186.043V0H324.015V173.324C324.015 209.646 320.141 236.54 312.392 254.005C304.644 271.471 293.781 280.203 279.802 280.203C265.353 280.203 254.202 271.471 246.349 254.005C238.548 236.54 234.648 209.646 234.648 173.324Z" fill="url(#paint2_linear_1162_25)"/>
<path d="M450.452 0.364477L367.464 276.406H333.851L416.678 0.364477H450.452Z" fill="url(#paint3_linear_1162_25)"/>
<path d="M0 592.203V315.797H53.8716C65.8081 315.797 74.97 324.909 81.3571 343.134C87.7442 361.232 90.9378 384.962 90.9378 414.324C90.9378 443.686 87.8228 467.416 81.5927 485.514C75.415 503.485 65.939 512.471 53.1648 512.471H34.082V592.203H0ZM34.082 457.987H44.7621C49.2645 457.987 52.4057 454 54.1857 446.027C55.9657 437.927 56.8557 427.992 56.8557 416.222C56.8557 404.452 55.9657 394.58 54.1857 386.607C52.4057 378.507 49.2645 374.394 44.7621 374.268H34.082V457.987Z" fill="url(#paint4_linear_1162_25)"/>
<path d="M96.749 461.404V446.596C96.749 399.516 101.382 365.345 110.649 344.083C119.915 322.694 131.721 312 146.066 312C160.515 312 172.347 322.694 181.561 344.083C190.828 365.345 195.461 399.516 195.461 446.596V461.404C195.461 508.484 190.828 542.718 181.561 564.107C172.347 585.369 160.515 596 146.066 596C131.721 596 119.915 585.369 110.649 564.107C101.382 542.718 96.749 508.484 96.749 461.404ZM132.323 487.602C132.323 507.092 133.527 520.95 135.935 529.176C138.344 537.403 141.72 541.516 146.066 541.516C150.463 541.516 153.866 537.403 156.275 529.176C158.683 520.95 159.887 507.092 159.887 487.602V420.968C159.887 401.604 158.683 387.936 156.275 379.963C153.866 371.863 150.463 367.813 146.066 367.813C141.72 367.813 138.344 371.863 135.935 379.963C133.527 387.936 132.323 401.604 132.323 420.968V487.602Z" fill="url(#paint5_linear_1162_25)"/>
<path d="M204.806 592.203V315.797H257.107C268.258 315.797 277.211 324.087 283.964 340.666C290.77 357.245 294.173 378.887 294.173 405.591C294.173 433.308 290.509 456.025 283.179 473.743C275.902 491.335 267.054 500.131 256.636 500.131H238.888V592.203H204.806ZM238.888 448.115H248.312C252.5 448.115 255.432 444.698 257.107 437.864C258.835 430.903 259.699 421.917 259.699 410.907C259.699 399.896 258.835 390.847 257.107 383.759C255.432 376.546 252.5 372.939 248.312 372.939H238.888V448.115ZM261.976 592.203L243.364 474.693L272.813 452.102L298.964 592.203H261.976Z" fill="url(#paint6_linear_1162_25)"/>
<path d="M294.252 358.824V315.797H386.917V358.824H358.018V592.203H323.387V358.824H294.252Z" fill="url(#paint7_linear_1162_25)"/>
<path d="M393.906 592.203V315.797H428.538V592.203H393.906Z" fill="url(#paint8_linear_1162_25)"/>
<path d="M440.239 592.203V315.797H513.115V358.824H474.321V431.476H507.932V475.545H474.321V592.203H440.239Z" fill="url(#paint9_linear_1162_25)"/>
<path d="M517.67 461.404V446.596C517.67 399.516 522.303 365.345 531.569 344.083C540.836 322.694 552.642 312 566.986 312C581.436 312 593.268 322.694 602.482 344.083C611.748 365.345 616.382 399.516 616.382 446.596V461.404C616.382 508.484 611.748 542.718 602.482 564.107C593.268 585.369 581.436 596 566.986 596C552.642 596 540.836 585.369 531.569 564.107C522.303 542.718 517.67 508.484 517.67 461.404ZM553.244 487.602C553.244 507.092 554.448 520.95 556.856 529.176C559.264 537.403 562.641 541.516 566.986 541.516C571.384 541.516 574.787 537.403 577.195 529.176C579.603 520.95 580.808 507.092 580.808 487.602V420.968C580.808 401.604 579.603 387.936 577.195 379.963C574.787 371.863 571.384 367.813 566.986 367.813C562.641 367.813 559.264 371.863 556.856 379.963C554.448 387.936 553.244 401.604 553.244 420.968V487.602Z" fill="url(#paint10_linear_1162_25)"/>
<path d="M625.727 592.203V315.797H659.809V550.193H700.958V592.203H625.727Z" fill="url(#paint11_linear_1162_25)"/>
<path d="M708.654 592.203V315.797H743.286V592.203H708.654Z" fill="url(#paint12_linear_1162_25)"/>
<path d="M752.945 461.404V446.596C752.945 399.516 757.579 365.345 766.845 344.083C776.112 322.694 787.917 312 802.262 312C816.712 312 828.544 322.694 837.758 344.083C847.024 365.345 851.657 399.516 851.657 446.596V461.404C851.657 508.484 847.024 542.718 837.758 564.107C828.544 585.369 816.712 596 802.262 596C787.917 596 776.112 585.369 766.845 564.107C757.579 542.718 752.945 508.484 752.945 461.404ZM788.519 487.602C788.519 507.092 789.724 520.95 792.132 529.176C794.54 537.403 797.917 541.516 802.262 541.516C806.66 541.516 810.063 537.403 812.471 529.176C814.879 520.95 816.083 507.092 816.083 487.602V420.968C816.083 401.604 814.879 387.936 812.471 379.963C810.063 371.863 806.66 367.813 802.262 367.813C797.917 367.813 794.54 371.863 792.132 379.963C789.724 387.936 788.519 401.604 788.519 420.968V487.602Z" fill="url(#paint13_linear_1162_25)"/>
<defs>
<linearGradient id="paint0_linear_1162_25" x1="195.658" y1="312" x2="195.658" y2="596" gradientUnits="userSpaceOnUse">
<stop offset="0.42938" stop-color="white"/>
<stop offset="1" stop-color="#6F6D6D"/>
</linearGradient>
<linearGradient id="paint1_linear_1162_25" x1="195.658" y1="312" x2="195.658" y2="596" gradientUnits="userSpaceOnUse">
<stop offset="0.42938" stop-color="white"/>
<stop offset="1" stop-color="#6F6D6D"/>
</linearGradient>
<linearGradient id="paint2_linear_1162_25" x1="195.658" y1="312" x2="195.658" y2="596" gradientUnits="userSpaceOnUse">
<stop offset="0.42938" stop-color="white"/>
<stop offset="1" stop-color="#6F6D6D"/>
</linearGradient>
<linearGradient id="paint3_linear_1162_25" x1="425.829" y1="0" x2="425.829" y2="596" gradientUnits="userSpaceOnUse">
<stop offset="0.42938" stop-color="#D7FF01"/>
<stop offset="1" stop-color="#607103"/>
</linearGradient>
<linearGradient id="paint4_linear_1162_25" x1="195.658" y1="312" x2="195.658" y2="596" gradientUnits="userSpaceOnUse">
<stop offset="0.42938" stop-color="white"/>
<stop offset="1" stop-color="#6F6D6D"/>
</linearGradient>
<linearGradient id="paint5_linear_1162_25" x1="195.658" y1="312" x2="195.658" y2="596" gradientUnits="userSpaceOnUse">
<stop offset="0.42938" stop-color="white"/>
<stop offset="1" stop-color="#6F6D6D"/>
</linearGradient>
<linearGradient id="paint6_linear_1162_25" x1="195.658" y1="312" x2="195.658" y2="596" gradientUnits="userSpaceOnUse">
<stop offset="0.42938" stop-color="white"/>
<stop offset="1" stop-color="#6F6D6D"/>
</linearGradient>
<linearGradient id="paint7_linear_1162_25" x1="195.658" y1="312" x2="195.658" y2="596" gradientUnits="userSpaceOnUse">
<stop offset="0.42938" stop-color="white"/>
<stop offset="1" stop-color="#6F6D6D"/>
</linearGradient>
<linearGradient id="paint8_linear_1162_25" x1="195.658" y1="312" x2="195.658" y2="596" gradientUnits="userSpaceOnUse">
<stop offset="0.42938" stop-color="white"/>
<stop offset="1" stop-color="#6F6D6D"/>
</linearGradient>
<linearGradient id="paint9_linear_1162_25" x1="195.658" y1="312" x2="195.658" y2="596" gradientUnits="userSpaceOnUse">
<stop offset="0.42938" stop-color="white"/>
<stop offset="1" stop-color="#6F6D6D"/>
</linearGradient>
<linearGradient id="paint10_linear_1162_25" x1="195.658" y1="312" x2="195.658" y2="596" gradientUnits="userSpaceOnUse">
<stop offset="0.42938" stop-color="white"/>
<stop offset="1" stop-color="#6F6D6D"/>
</linearGradient>
<linearGradient id="paint11_linear_1162_25" x1="195.658" y1="312" x2="195.658" y2="596" gradientUnits="userSpaceOnUse">
<stop offset="0.42938" stop-color="white"/>
<stop offset="1" stop-color="#6F6D6D"/>
</linearGradient>
<linearGradient id="paint12_linear_1162_25" x1="195.658" y1="312" x2="195.658" y2="596" gradientUnits="userSpaceOnUse">
<stop offset="0.42938" stop-color="white"/>
<stop offset="1" stop-color="#6F6D6D"/>
</linearGradient>
<linearGradient id="paint13_linear_1162_25" x1="195.658" y1="312" x2="195.658" y2="596" gradientUnits="userSpaceOnUse">
<stop offset="0.42938" stop-color="white"/>
<stop offset="1" stop-color="#6F6D6D"/>
</linearGradient>
</defs>
</svg>
