<svg width="753" height="216" viewBox="0 0 753 216" fill="none" xmlns="http://www.w3.org/2000/svg">
<path d="M54.6012 160.802C54.6012 157.24 54.4082 153.999 54.0221 151.077C53.636 148.155 52.8087 145.461 51.5402 142.996C50.3269 140.53 48.5344 138.065 46.1628 135.599C43.8464 133.134 40.813 130.577 37.0626 127.929C32.5953 124.824 28.2658 121.537 24.0742 118.067C19.8826 114.506 16.1046 110.397 12.7403 105.74C9.37596 101.083 6.70105 95.6043 4.71556 89.3037C2.78521 82.9119 1.82004 75.4242 1.82004 66.8408C1.82004 58.4401 2.73006 50.8155 4.5501 43.967C6.42529 37.1186 9.07262 31.2746 12.4921 26.435C15.9116 21.5041 19.9101 17.7146 24.4878 15.0666C29.1206 12.4185 34.2774 11.0945 39.9581 11.0945C47.6795 11.0945 54.353 13.7425 59.9786 19.0387C65.6593 24.3348 70.0439 31.5942 73.1325 40.8167C76.2762 50.0393 77.8481 60.6316 77.8481 72.5935H53.6912C53.6912 66.9321 53.1948 61.9556 52.202 57.6639C51.2644 53.2809 49.7477 49.8567 47.6519 47.3913C45.5561 44.9258 42.8537 43.6931 39.5445 43.6931C36.4559 43.6931 33.8913 44.7432 31.8507 46.8434C29.8652 48.8522 28.3761 51.6373 27.3833 55.1985C26.4457 58.6684 25.9769 62.5948 25.9769 66.9778C25.9769 70.2651 26.4457 73.2327 27.3833 75.8808C28.3761 78.4375 29.7273 80.766 31.437 82.8662C33.1468 84.8751 35.1599 86.8383 37.4763 88.7559C39.8478 90.6734 42.44 92.5453 45.2528 94.3716C50.7129 97.9328 55.5388 101.859 59.7304 106.151C63.922 110.351 67.4242 115.1 70.237 120.396C73.0498 125.601 75.1731 131.49 76.6071 138.065C78.0411 144.639 78.7581 152.127 78.7581 160.528C78.7581 168.837 77.8756 176.416 76.1107 183.264C74.401 190.022 71.8916 195.866 68.5824 200.796C65.2732 205.636 61.2747 209.38 56.5867 212.028C51.9539 214.676 46.7695 216 41.0336 216C35.4632 216 30.1961 214.722 25.2324 212.165C20.2686 209.517 15.884 205.545 12.0784 200.249C8.32806 194.861 5.37739 188.058 3.22643 179.84C1.07548 171.531 0 161.715 0 150.392H24.2396C24.2396 156.419 24.5981 161.578 25.3151 165.869C26.0321 170.07 27.1351 173.448 28.6243 176.005C30.1134 178.471 31.9334 180.342 34.0844 181.621C36.2905 182.808 38.7999 183.401 41.6127 183.401C44.8116 183.401 47.3486 182.397 49.2238 180.388C51.1541 178.379 52.533 175.685 53.3603 172.307C54.1875 168.928 54.6012 165.093 54.6012 160.802Z" fill="url(#paint0_linear_834_454)"/>
<path d="M82.8614 144.228V134.23C82.8614 122.633 83.6887 112.36 85.3433 103.412C87.053 94.4629 89.4798 86.9753 92.6235 80.9486C95.7672 74.8307 99.5451 70.2194 103.957 67.1148C108.425 63.9188 113.416 62.3209 118.931 62.3209C124.502 62.3209 129.493 63.9188 133.905 67.1148C138.373 70.2194 142.178 74.8307 145.322 80.9486C148.521 86.9753 150.975 94.4629 152.685 103.412C154.395 112.36 155.249 122.633 155.249 134.23V144.228C155.249 155.734 154.395 165.961 152.685 174.909C150.975 183.858 148.521 191.391 145.322 197.509C142.178 203.627 138.4 208.238 133.988 211.343C129.576 214.448 124.612 216 119.097 216C113.581 216 108.59 214.448 104.123 211.343C99.7106 208.238 95.9051 203.627 92.7062 197.509C89.5073 191.391 87.053 183.858 85.3433 174.909C83.6887 165.961 82.8614 155.734 82.8614 144.228ZM106.026 134.23V144.228C106.026 151.077 106.301 157.012 106.853 162.034C107.46 167.056 108.314 171.211 109.417 174.498C110.576 177.786 111.954 180.205 113.554 181.758C115.153 183.31 117.001 184.086 119.097 184.086C121.193 184.086 123.068 183.31 124.722 181.758C126.377 180.205 127.728 177.786 128.776 174.498C129.879 171.211 130.679 167.056 131.175 162.034C131.727 157.012 132.003 151.077 132.003 144.228V134.23C132.003 127.564 131.699 121.72 131.092 116.698C130.486 111.584 129.631 107.429 128.528 104.233C127.425 100.946 126.046 98.4807 124.391 96.837C122.792 95.1021 120.972 94.2346 118.931 94.2346C116.891 94.2346 115.071 95.1021 113.471 96.837C111.927 98.4807 110.576 100.946 109.417 104.233C108.314 107.429 107.46 111.584 106.853 116.698C106.301 121.72 106.026 127.564 106.026 134.23Z" fill="url(#paint1_linear_834_454)"/>
<path d="M189.383 213.261H166.219V58.8966C166.219 46.1129 167.57 35.3836 170.273 26.7089C173.031 17.9429 177.002 11.3228 182.186 6.84845C187.425 2.28282 193.685 0 200.965 0C205.157 0 209.128 0.776157 212.878 2.32847C216.684 3.78947 220.6 5.70704 224.626 8.08117L221.317 40.6798C218.89 39.2188 216.16 37.8491 213.127 36.5707C210.148 35.201 206.619 34.5162 202.537 34.5162C198.07 34.5162 194.761 36.5707 192.61 40.6798C190.459 44.7888 189.383 50.8611 189.383 58.8966V213.261ZM203.199 65.0602V93.9607H155.299V65.0602H203.199ZM235.298 65.0602V213.261H212.051V65.0602H235.298Z" fill="url(#paint2_linear_834_454)"/>
<path d="M284.737 179.155V110.671C284.737 106.197 284.406 102.635 283.744 99.9873C283.137 97.3392 282.2 95.4217 280.931 94.2346C279.718 92.9562 278.229 92.3171 276.464 92.3171C274.478 92.3171 272.824 93.0019 271.5 94.3716C270.177 95.7413 269.184 97.7045 268.522 100.261C267.915 102.818 267.612 105.877 267.612 109.438H244.365C244.365 103.046 245.11 97.0197 246.599 91.3583C248.088 85.6056 250.266 80.5834 253.134 76.2917C256.057 71.9087 259.532 68.4845 263.558 66.019C267.584 63.5536 272.107 62.3209 277.126 62.3209C283.082 62.3209 288.377 64.0101 293.01 67.3887C297.643 70.676 301.31 75.9264 304.013 83.1401C306.715 90.3538 308.067 99.7134 308.067 111.219V177.238C308.067 185.547 308.315 192.304 308.811 197.509C309.363 202.714 310.162 207.188 311.21 210.932V213.261H287.881C286.833 209.152 286.033 204.038 285.481 197.92C284.985 191.711 284.737 185.456 284.737 179.155ZM287.55 122.724L287.632 145.735H279.111C276.905 145.735 274.975 146.328 273.32 147.516C271.721 148.703 270.37 150.392 269.267 152.583C268.164 154.684 267.336 157.149 266.785 159.98C266.288 162.81 266.04 165.824 266.04 169.02C266.04 172.581 266.343 175.594 266.95 178.06C267.557 180.525 268.467 182.397 269.68 183.675C270.894 184.954 272.328 185.593 273.982 185.593C276.519 185.593 278.725 184.725 280.6 182.99C282.476 181.256 283.854 179.155 284.737 176.69C285.674 174.224 285.978 171.942 285.647 169.841L290.942 184.771C290.28 188.15 289.37 191.665 288.212 195.318C287.108 198.97 285.702 202.349 283.992 205.453C282.283 208.558 280.159 211.115 277.622 213.124C275.14 215.041 272.19 216 268.77 216C263.972 216 259.587 214.174 255.616 210.521C251.645 206.869 248.502 201.755 246.185 195.181C243.924 188.606 242.793 180.799 242.793 171.759C242.793 164.271 243.51 157.514 244.944 151.488C246.433 145.37 248.639 140.211 251.563 136.01C254.486 131.718 258.181 128.431 262.648 126.148C267.116 123.866 272.355 122.724 278.367 122.724H287.55Z" fill="url(#paint3_linear_834_454)"/>
<path d="M389.075 126.285H364.422L364.339 97.2479H385.352C388.661 97.2479 391.364 96.3348 393.459 94.5086C395.61 92.591 397.182 89.806 398.175 86.1535C399.223 82.4096 399.747 77.8897 399.747 72.5935C399.747 66.4756 399.278 61.5904 398.34 57.9379C397.403 54.194 395.886 51.4547 393.79 49.7197C391.695 47.9848 388.965 47.1173 385.6 47.1173H372.694V213.261H348.455V13.8339H385.6C391.612 13.8339 396.989 14.9296 401.732 17.1211C406.475 19.3126 410.502 22.6455 413.811 27.1199C417.12 31.5942 419.629 37.2556 421.339 44.104C423.104 50.9524 423.986 59.0336 423.986 68.3475C423.986 76.5656 422.994 84.1446 421.008 91.0843C419.023 98.0241 415.907 103.685 411.66 108.068C407.468 112.451 401.981 114.917 395.197 115.465L389.075 126.285ZM388.248 213.261H357.555L367.234 180.114H388.248C391.446 180.114 394.039 178.973 396.024 176.69C398.01 174.407 399.444 171.348 400.326 167.513C401.208 163.587 401.65 159.112 401.65 154.09C401.65 148.429 401.236 143.498 400.409 139.297C399.637 135.097 398.34 131.901 396.52 129.71C394.7 127.427 392.246 126.285 389.158 126.285H368.31L368.475 97.2479H393.79L399.499 108.753C405.952 108.388 411.108 110.443 414.969 114.917C418.83 119.3 421.587 125.053 423.242 132.175C424.952 139.206 425.807 146.694 425.807 154.638C425.807 167.422 424.345 178.197 421.422 186.963C418.554 195.637 414.335 202.212 408.764 206.686C403.194 211.069 396.355 213.261 388.248 213.261Z" fill="url(#paint4_linear_834_454)"/>
<path d="M473.425 179.155V110.671C473.425 106.197 473.094 102.635 472.433 99.9873C471.826 97.3392 470.888 95.4217 469.62 94.2346C468.406 92.9562 466.917 92.3171 465.152 92.3171C463.167 92.3171 461.512 93.0019 460.189 94.3716C458.865 95.7413 457.872 97.7045 457.21 100.261C456.604 102.818 456.3 105.877 456.3 109.438H433.054C433.054 103.046 433.798 97.0197 435.287 91.3583C436.776 85.6056 438.955 80.5834 441.823 76.2917C444.746 71.9087 448.221 68.4845 452.247 66.019C456.273 63.5536 460.795 62.3209 465.814 62.3209C471.771 62.3209 477.065 64.0101 481.698 67.3887C486.331 70.676 489.999 75.9264 492.701 83.1401C495.404 90.3538 496.755 99.7134 496.755 111.219V177.238C496.755 185.547 497.003 192.304 497.5 197.509C498.051 202.714 498.851 207.188 499.899 210.932V213.261H476.569C475.521 209.152 474.721 204.038 474.17 197.92C473.674 191.711 473.425 185.456 473.425 179.155ZM476.238 122.724L476.321 145.735H467.8C465.594 145.735 463.663 146.328 462.009 147.516C460.409 148.703 459.058 150.392 457.955 152.583C456.852 154.684 456.025 157.149 455.473 159.98C454.977 162.81 454.729 165.824 454.729 169.02C454.729 172.581 455.032 175.594 455.639 178.06C456.245 180.525 457.155 182.397 458.369 183.675C459.582 184.954 461.016 185.593 462.671 185.593C465.208 185.593 467.414 184.725 469.289 182.99C471.164 181.256 472.543 179.155 473.425 176.69C474.363 174.224 474.666 171.942 474.335 169.841L479.63 184.771C478.968 188.15 478.058 191.665 476.9 195.318C475.797 198.97 474.391 202.349 472.681 205.453C470.971 208.558 468.848 211.115 466.311 213.124C463.829 215.041 460.878 216 457.459 216C452.66 216 448.276 214.174 444.305 210.521C440.334 206.869 437.19 201.755 434.874 195.181C432.612 188.606 431.482 180.799 431.482 171.759C431.482 164.271 432.199 157.514 433.633 151.488C435.122 145.37 437.328 140.211 440.251 136.01C443.174 131.718 446.869 128.431 451.337 126.148C455.804 123.866 461.044 122.724 467.055 122.724H476.238Z" fill="url(#paint5_linear_834_454)"/>
<path d="M545.118 173.266C545.118 170.709 544.594 168.426 543.547 166.417C542.499 164.408 540.844 162.354 538.583 160.254C536.321 158.062 533.316 155.642 529.565 152.994C525.484 150.255 521.872 147.424 518.728 144.502C515.584 141.58 512.909 138.339 510.703 134.777C508.552 131.216 506.925 127.153 505.822 122.587C504.719 118.022 504.167 112.817 504.167 106.973C504.167 100.672 504.857 94.8738 506.236 89.5777C507.67 84.1902 509.71 79.4876 512.358 75.4699C515.005 71.3608 518.231 68.1649 522.037 65.882C525.898 63.5079 530.227 62.3209 535.025 62.3209C541.754 62.3209 547.518 64.2841 552.316 68.2105C557.169 72.0457 560.892 77.4331 563.484 84.3729C566.076 91.3126 567.372 99.3938 567.372 108.616H544.208C544.208 105.329 543.905 102.407 543.298 99.8503C542.692 97.2023 541.699 95.1477 540.32 93.6867C538.996 92.2257 537.204 91.4952 534.943 91.4952C533.288 91.4952 531.799 92.0888 530.475 93.2758C529.207 94.4629 528.187 96.0609 527.414 98.0698C526.697 99.9873 526.339 102.27 526.339 104.918C526.339 106.927 526.587 108.708 527.083 110.26C527.635 111.812 528.49 113.319 529.648 114.78C530.806 116.241 532.351 117.793 534.281 119.437C536.266 120.989 538.693 122.724 541.561 124.642C547.518 128.294 552.399 132.221 556.204 136.421C560.065 140.621 562.933 145.552 564.808 151.214C566.683 156.784 567.621 163.678 567.621 171.896C567.621 178.471 566.849 184.452 565.304 189.839C563.815 195.226 561.637 199.883 558.769 203.81C555.901 207.736 552.454 210.75 548.427 212.85C544.456 214.95 540.017 216 535.108 216C527.883 216 521.789 213.626 516.825 208.878C511.861 204.129 508.111 198.057 505.574 190.661C503.037 183.173 501.768 175.412 501.768 167.376H523.774C523.885 172.307 524.436 176.188 525.429 179.018C526.477 181.758 527.883 183.675 529.648 184.771C531.413 185.867 533.371 186.415 535.522 186.415C537.673 186.415 539.438 185.958 540.816 185.045C542.25 184.041 543.326 182.534 544.043 180.525C544.76 178.425 545.118 176.005 545.118 173.266Z" fill="url(#paint6_linear_834_454)"/>
<path d="M612.923 65.0602V93.9607H567.257V65.0602H612.923ZM577.763 28.4895H600.845V168.061C600.845 172.17 601.093 175.32 601.589 177.512C602.086 179.703 602.83 181.256 603.823 182.169C604.871 182.99 606.25 183.401 607.959 183.401C609.118 183.401 610.193 183.31 611.186 183.127C612.179 182.854 612.923 182.58 613.419 182.306V212.302C611.599 213.489 609.669 214.402 607.628 215.041C605.643 215.68 603.271 216 600.514 216C595.881 216 591.855 214.539 588.435 211.617C585.071 208.695 582.451 204.038 580.576 197.646C578.701 191.163 577.763 182.671 577.763 172.17V28.4895Z" fill="url(#paint7_linear_834_454)"/>
<path d="M612.228 144.228V134.23C612.228 122.633 613.055 112.36 614.71 103.412C616.42 94.4629 618.847 86.9753 621.99 80.9486C625.134 74.8307 628.912 70.2194 633.324 67.1148C637.792 63.9188 642.783 62.3209 648.298 62.3209C653.869 62.3209 658.86 63.9188 663.272 67.1148C667.739 70.2194 671.545 74.8307 674.689 80.9486C677.888 86.9753 680.342 94.4629 682.052 103.412C683.761 112.36 684.616 122.633 684.616 134.23V144.228C684.616 155.734 683.761 165.961 682.052 174.909C680.342 183.858 677.888 191.391 674.689 197.509C671.545 203.627 667.767 208.238 663.355 211.343C658.943 214.448 653.979 216 648.464 216C642.948 216 637.957 214.448 633.49 211.343C629.077 208.238 625.272 203.627 622.073 197.509C618.874 191.391 616.42 183.858 614.71 174.909C613.055 165.961 612.228 155.734 612.228 144.228ZM635.392 134.23V144.228C635.392 151.077 635.668 157.012 636.22 162.034C636.826 167.056 637.681 171.211 638.784 174.498C639.943 177.786 641.321 180.205 642.921 181.758C644.52 183.31 646.368 184.086 648.464 184.086C650.559 184.086 652.435 183.31 654.089 181.758C655.744 180.205 657.095 177.786 658.143 174.498C659.246 171.211 660.046 167.056 660.542 162.034C661.094 157.012 661.369 151.077 661.369 144.228V134.23C661.369 127.564 661.066 121.72 660.459 116.698C659.853 111.584 658.998 107.429 657.895 104.233C656.792 100.946 655.413 98.4807 653.758 96.837C652.159 95.1021 650.339 94.2346 648.298 94.2346C646.257 94.2346 644.437 95.1021 642.838 96.837C641.294 98.4807 639.943 100.946 638.784 104.233C637.681 107.429 636.826 111.584 636.22 116.698C635.668 121.72 635.392 127.564 635.392 134.23Z" fill="url(#paint8_linear_834_454)"/>
<path d="M730.498 173.266C730.498 170.709 729.974 168.426 728.926 166.417C727.878 164.408 726.223 162.354 723.962 160.254C721.701 158.062 718.695 155.642 714.945 152.994C710.863 150.255 707.251 147.424 704.107 144.502C700.963 141.58 698.289 138.339 696.082 134.777C693.931 131.216 692.304 127.153 691.201 122.587C690.098 118.022 689.547 112.817 689.547 106.973C689.547 100.672 690.236 94.8738 691.615 89.5777C693.049 84.1902 695.09 79.4876 697.737 75.4699C700.384 71.3608 703.611 68.1649 707.416 65.882C711.277 63.5079 715.606 62.3209 720.405 62.3209C727.133 62.3209 732.897 64.2841 737.695 68.2105C742.549 72.0457 746.271 77.4331 748.864 84.3729C751.456 91.3126 752.752 99.3938 752.752 108.616H729.588C729.588 105.329 729.284 102.407 728.678 99.8503C728.071 97.2023 727.078 95.1477 725.699 93.6867C724.376 92.2257 722.583 91.4952 720.322 91.4952C718.667 91.4952 717.178 92.0888 715.855 93.2758C714.586 94.4629 713.566 96.0609 712.794 98.0698C712.077 99.9873 711.718 102.27 711.718 104.918C711.718 106.927 711.966 108.708 712.463 110.26C713.014 111.812 713.869 113.319 715.027 114.78C716.186 116.241 717.73 117.793 719.66 119.437C721.646 120.989 724.072 122.724 726.94 124.642C732.897 128.294 737.778 132.221 741.583 136.421C745.444 140.621 748.312 145.552 750.187 151.214C752.062 156.784 753 163.678 753 171.896C753 178.471 752.228 184.452 750.684 189.839C749.194 195.226 747.016 199.883 744.148 203.81C741.28 207.736 737.833 210.75 733.807 212.85C729.836 214.95 725.396 216 720.487 216C713.263 216 707.168 213.626 702.204 208.878C697.241 204.129 693.49 198.057 690.953 190.661C688.416 183.173 687.148 175.412 687.148 167.376H709.154C709.264 172.307 709.815 176.188 710.808 179.018C711.856 181.758 713.262 183.675 715.027 184.771C716.792 185.867 718.75 186.415 720.901 186.415C723.052 186.415 724.817 185.958 726.196 185.045C727.63 184.041 728.705 182.534 729.422 180.525C730.139 178.425 730.498 176.005 730.498 173.266Z" fill="url(#paint9_linear_834_454)"/>
<defs>
<linearGradient id="paint0_linear_834_454" x1="376.5" y1="0" x2="376.5" y2="216" gradientUnits="userSpaceOnUse">
<stop offset="0.595041" stop-color="#D7FF01"/>
<stop offset="1" stop-color="#819901"/>
</linearGradient>
<linearGradient id="paint1_linear_834_454" x1="376.5" y1="0" x2="376.5" y2="216" gradientUnits="userSpaceOnUse">
<stop offset="0.595041" stop-color="#D7FF01"/>
<stop offset="1" stop-color="#819901"/>
</linearGradient>
<linearGradient id="paint2_linear_834_454" x1="376.5" y1="0" x2="376.5" y2="216" gradientUnits="userSpaceOnUse">
<stop offset="0.595041" stop-color="#D7FF01"/>
<stop offset="1" stop-color="#819901"/>
</linearGradient>
<linearGradient id="paint3_linear_834_454" x1="376.5" y1="0" x2="376.5" y2="216" gradientUnits="userSpaceOnUse">
<stop offset="0.595041" stop-color="#D7FF01"/>
<stop offset="1" stop-color="#819901"/>
</linearGradient>
<linearGradient id="paint4_linear_834_454" x1="376.5" y1="0" x2="376.5" y2="216" gradientUnits="userSpaceOnUse">
<stop offset="0.595041" stop-color="#D7FF01"/>
<stop offset="1" stop-color="#819901"/>
</linearGradient>
<linearGradient id="paint5_linear_834_454" x1="376.5" y1="0" x2="376.5" y2="216" gradientUnits="userSpaceOnUse">
<stop offset="0.595041" stop-color="#D7FF01"/>
<stop offset="1" stop-color="#819901"/>
</linearGradient>
<linearGradient id="paint6_linear_834_454" x1="376.5" y1="0" x2="376.5" y2="216" gradientUnits="userSpaceOnUse">
<stop offset="0.595041" stop-color="#D7FF01"/>
<stop offset="1" stop-color="#819901"/>
</linearGradient>
<linearGradient id="paint7_linear_834_454" x1="376.5" y1="0" x2="376.5" y2="216" gradientUnits="userSpaceOnUse">
<stop offset="0.595041" stop-color="#D7FF01"/>
<stop offset="1" stop-color="#819901"/>
</linearGradient>
<linearGradient id="paint8_linear_834_454" x1="376.5" y1="0" x2="376.5" y2="216" gradientUnits="userSpaceOnUse">
<stop offset="0.595041" stop-color="#D7FF01"/>
<stop offset="1" stop-color="#819901"/>
</linearGradient>
<linearGradient id="paint9_linear_834_454" x1="376.5" y1="0" x2="376.5" y2="216" gradientUnits="userSpaceOnUse">
<stop offset="0.595041" stop-color="#D7FF01"/>
<stop offset="1" stop-color="#819901"/>
</linearGradient>
</defs>
</svg>
