<svg width="753" height="217" viewBox="0 0 753 217" fill="none" xmlns="http://www.w3.org/2000/svg">
<path d="M54.6012 160.956C54.6012 157.395 54.4082 154.153 54.0221 151.231C53.636 148.309 52.8087 145.616 51.5402 143.15C50.3269 140.685 48.5344 138.219 46.1628 135.754C43.8464 133.288 40.813 130.732 37.0626 128.084C32.5953 124.979 28.2658 121.692 24.0742 118.222C19.8826 114.661 16.1046 110.552 12.7403 105.895C9.37596 101.238 6.70105 95.759 4.71556 89.4584C2.78521 83.0665 1.82004 75.5789 1.82004 66.9955C1.82004 58.5947 2.73006 50.9701 4.5501 44.1217C6.42529 37.2732 9.07262 31.4292 12.4921 26.5897C15.9116 21.6588 19.9101 17.8693 24.4878 15.2212C29.1206 12.5732 34.2774 11.2491 39.9581 11.2491C47.6795 11.2491 54.353 13.8972 59.9786 19.1933C65.6593 24.4895 70.0439 31.7488 73.1325 40.9714C76.2762 50.194 77.8481 60.7862 77.8481 72.7482H53.6912C53.6912 67.0868 53.1948 62.1103 52.202 57.8186C51.2644 53.4356 49.7477 50.0114 47.6519 47.5459C45.5561 45.0805 42.8537 43.8478 39.5445 43.8478C36.4559 43.8478 33.8913 44.8978 31.8507 46.998C29.8652 49.0069 28.3761 51.7919 27.3833 55.3531C26.4457 58.823 25.9769 62.7495 25.9769 67.1325C25.9769 70.4197 26.4457 73.3874 27.3833 76.0355C28.3761 78.5922 29.7273 80.9207 31.437 83.0209C33.1468 85.0297 35.1599 86.993 37.4763 88.9105C39.8478 90.8281 42.44 92.7 45.2528 94.5263C50.7129 98.0874 55.5388 102.014 59.7304 106.306C63.922 110.506 67.4242 115.254 70.237 120.55C73.0498 125.755 75.1731 131.645 76.6071 138.219C78.0411 144.794 78.7581 152.281 78.7581 160.682C78.7581 168.992 77.8756 176.571 76.1107 183.419C74.401 190.176 71.8916 196.02 68.5824 200.951C65.2732 205.791 61.2747 209.535 56.5867 212.183C51.9539 214.831 46.7695 216.155 41.0336 216.155C35.4632 216.155 30.1961 214.876 25.2324 212.32C20.2686 209.671 15.884 205.699 12.0784 200.403C8.32806 195.016 5.37739 188.213 3.22643 179.995C1.07548 171.685 0 161.869 0 150.547H24.2396C24.2396 156.573 24.5981 161.732 25.3151 166.024C26.0321 170.224 27.1351 173.603 28.6243 176.16C30.1134 178.625 31.9334 180.497 34.0844 181.775C36.2905 182.963 38.7999 183.556 41.6127 183.556C44.8116 183.556 47.3486 182.552 49.2238 180.543C51.1541 178.534 52.533 175.84 53.3603 172.462C54.1875 169.083 54.6012 165.248 54.6012 160.956Z" fill="#D7FF01"/>
<path d="M82.8614 144.383V134.384C82.8614 122.788 83.6887 112.515 85.3433 103.566C87.053 94.6176 89.4798 87.1299 92.6235 81.1033C95.7672 74.9854 99.5451 70.3741 103.957 67.2694C108.425 64.0735 113.416 62.4755 118.931 62.4755C124.502 62.4755 129.493 64.0735 133.905 67.2694C138.373 70.3741 142.178 74.9854 145.322 81.1033C148.521 87.1299 150.975 94.6176 152.685 103.566C154.395 112.515 155.249 122.788 155.249 134.384V144.383C155.249 155.888 154.395 166.115 152.685 175.064C150.975 184.013 148.521 191.546 145.322 197.664C142.178 203.782 138.4 208.393 133.988 211.498C129.576 214.602 124.612 216.155 119.097 216.155C113.581 216.155 108.59 214.602 104.123 211.498C99.7106 208.393 95.9051 203.782 92.7062 197.664C89.5073 191.546 87.053 184.013 85.3433 175.064C83.6887 166.115 82.8614 155.888 82.8614 144.383ZM106.026 134.384V144.383C106.026 151.231 106.301 157.167 106.853 162.189C107.46 167.211 108.314 171.366 109.417 174.653C110.576 177.94 111.954 180.36 113.554 181.912C115.153 183.465 117.001 184.241 119.097 184.241C121.193 184.241 123.068 183.465 124.722 181.912C126.377 180.36 127.728 177.94 128.776 174.653C129.879 171.366 130.679 167.211 131.175 162.189C131.727 157.167 132.003 151.231 132.003 144.383V134.384C132.003 127.718 131.699 121.874 131.092 116.852C130.486 111.739 129.631 107.584 128.528 104.388C127.425 101.101 126.046 98.6353 124.391 96.9917C122.792 95.2568 120.972 94.3893 118.931 94.3893C116.891 94.3893 115.071 95.2568 113.471 96.9917C111.927 98.6353 110.576 101.101 109.417 104.388C108.314 107.584 107.46 111.739 106.853 116.852C106.301 121.874 106.026 127.718 106.026 134.384Z" fill="#D7FF01"/>
<path d="M189.383 213.415H166.219V59.0513C166.219 46.2675 167.57 35.5383 170.273 26.8636C173.031 18.0976 177.002 11.4774 182.186 7.00311C187.425 2.43748 193.685 0.154663 200.965 0.154663C205.157 0.154663 209.128 0.930821 212.878 2.48314C216.684 3.94414 220.6 5.8617 224.626 8.23583L221.317 40.8344C218.89 39.3734 216.16 38.0037 213.127 36.7254C210.148 35.3557 206.619 34.6708 202.537 34.6708C198.07 34.6708 194.761 36.7254 192.61 40.8344C190.459 44.9435 189.383 51.0158 189.383 59.0513V213.415ZM203.199 65.2149V94.1153H155.299V65.2149H203.199ZM235.298 65.2149V213.415H212.051V65.2149H235.298Z" fill="#D7FF01"/>
<path d="M284.737 179.31V110.826C284.737 106.351 284.406 102.79 283.744 100.142C283.137 97.4939 282.2 95.5763 280.931 94.3893C279.718 93.1109 278.229 92.4717 276.464 92.4717C274.478 92.4717 272.824 93.1566 271.5 94.5263C270.177 95.8959 269.184 97.8592 268.522 100.416C267.915 102.973 267.612 106.032 267.612 109.593H244.365C244.365 103.201 245.11 97.1743 246.599 91.5129C248.088 85.7602 250.266 80.738 253.134 76.4464C256.058 72.0633 259.532 68.6391 263.558 66.1737C267.584 63.7082 272.107 62.4755 277.126 62.4755C283.082 62.4755 288.377 64.1648 293.01 67.5434C297.643 70.8306 301.31 76.0811 304.013 83.2948C306.715 90.5085 308.067 99.868 308.067 111.373V177.392C308.067 185.702 308.315 192.459 308.811 197.664C309.363 202.869 310.162 207.343 311.21 211.087V213.415H287.881C286.833 209.306 286.033 204.193 285.481 198.075C284.985 191.865 284.737 185.611 284.737 179.31ZM287.55 122.879L287.632 145.89H279.111C276.905 145.89 274.975 146.483 273.32 147.67C271.721 148.857 270.37 150.547 269.267 152.738C268.164 154.838 267.336 157.304 266.785 160.134C266.288 162.965 266.04 165.978 266.04 169.174C266.04 172.736 266.343 175.749 266.95 178.214C267.557 180.68 268.467 182.552 269.68 183.83C270.894 185.108 272.328 185.748 273.982 185.748C276.519 185.748 278.725 184.88 280.6 183.145C282.476 181.41 283.854 179.31 284.737 176.845C285.675 174.379 285.978 172.096 285.647 169.996L290.942 184.926C290.28 188.304 289.37 191.82 288.212 195.472C287.108 199.125 285.702 202.503 283.992 205.608C282.283 208.713 280.159 211.269 277.622 213.278C275.14 215.196 272.19 216.155 268.77 216.155C263.972 216.155 259.587 214.328 255.616 210.676C251.645 207.023 248.502 201.91 246.185 195.335C243.924 188.761 242.793 180.954 242.793 171.914C242.793 164.426 243.51 157.669 244.944 151.642C246.433 145.524 248.639 140.365 251.563 136.165C254.486 131.873 258.181 128.586 262.648 126.303C267.116 124.02 272.355 122.879 278.367 122.879H287.55Z" fill="#D7FF01"/>
<path d="M389.075 126.44H364.422L364.339 97.4026H385.352C388.661 97.4026 391.364 96.4895 393.459 94.6632C395.61 92.7457 397.182 89.9606 398.175 86.3081C399.223 82.5643 399.747 78.0443 399.747 72.7482C399.747 66.6302 399.278 61.745 398.34 58.0925C397.403 54.3487 395.886 51.6093 393.79 49.8744C391.695 48.1394 388.965 47.272 385.6 47.272H372.694V213.415H348.455V13.9885H385.6C391.612 13.9885 396.989 15.0843 401.732 17.2758C406.475 19.4673 410.502 22.8002 413.811 27.2745C417.12 31.7488 419.629 37.4102 421.339 44.2587C423.104 51.1071 423.986 59.1883 423.986 68.5022C423.986 76.7203 422.994 84.2992 421.008 91.239C419.023 98.1788 415.907 103.84 411.66 108.223C407.468 112.606 401.981 115.072 395.197 115.619L389.075 126.44ZM388.248 213.415H357.555L367.234 180.269H388.248C391.446 180.269 394.039 179.127 396.024 176.845C398.01 174.562 399.444 171.503 400.326 167.668C401.208 163.741 401.65 159.267 401.65 154.245C401.65 148.583 401.236 143.652 400.409 139.452C399.637 135.252 398.34 132.056 396.52 129.864C394.7 127.581 392.246 126.44 389.158 126.44H368.31L368.475 97.4026H393.79L399.499 108.908C405.952 108.543 411.108 110.597 414.969 115.072C418.83 119.455 421.587 125.207 423.242 132.33C424.952 139.361 425.807 146.848 425.807 154.793C425.807 167.576 424.345 178.351 421.422 187.117C418.554 195.792 414.335 202.366 408.764 206.841C403.194 211.224 396.355 213.415 388.248 213.415Z" fill="#D7FF01"/>
<path d="M473.425 179.31V110.826C473.425 106.351 473.094 102.79 472.433 100.142C471.826 97.4939 470.888 95.5763 469.62 94.3893C468.406 93.1109 466.917 92.4717 465.152 92.4717C463.167 92.4717 461.512 93.1566 460.189 94.5263C458.865 95.8959 457.872 97.8592 457.21 100.416C456.604 102.973 456.3 106.032 456.3 109.593H433.054C433.054 103.201 433.798 97.1743 435.287 91.5129C436.776 85.7602 438.955 80.738 441.823 76.4464C444.746 72.0633 448.221 68.6391 452.247 66.1737C456.273 63.7082 460.795 62.4755 465.814 62.4755C471.771 62.4755 477.065 64.1648 481.698 67.5434C486.331 70.8306 489.999 76.0811 492.701 83.2948C495.404 90.5085 496.755 99.868 496.755 111.373V177.392C496.755 185.702 497.003 192.459 497.5 197.664C498.051 202.869 498.851 207.343 499.899 211.087V213.415H476.569C475.521 209.306 474.721 204.193 474.17 198.075C473.674 191.865 473.425 185.611 473.425 179.31ZM476.238 122.879L476.321 145.89H467.8C465.594 145.89 463.663 146.483 462.009 147.67C460.409 148.857 459.058 150.547 457.955 152.738C456.852 154.838 456.025 157.304 455.473 160.134C454.977 162.965 454.729 165.978 454.729 169.174C454.729 172.736 455.032 175.749 455.639 178.214C456.245 180.68 457.155 182.552 458.369 183.83C459.582 185.108 461.016 185.748 462.671 185.748C465.208 185.748 467.414 184.88 469.289 183.145C471.164 181.41 472.543 179.31 473.425 176.845C474.363 174.379 474.666 172.096 474.335 169.996L479.63 184.926C478.968 188.304 478.058 191.82 476.9 195.472C475.797 199.125 474.391 202.503 472.681 205.608C470.971 208.713 468.848 211.269 466.311 213.278C463.829 215.196 460.878 216.155 457.459 216.155C452.66 216.155 448.276 214.328 444.305 210.676C440.334 207.023 437.19 201.91 434.874 195.335C432.612 188.761 431.482 180.954 431.482 171.914C431.482 164.426 432.199 157.669 433.633 151.642C435.122 145.524 437.328 140.365 440.251 136.165C443.174 131.873 446.869 128.586 451.337 126.303C455.804 124.02 461.044 122.879 467.055 122.879H476.238Z" fill="#D7FF01"/>
<path d="M545.118 173.42C545.118 170.864 544.594 168.581 543.547 166.572C542.499 164.563 540.844 162.508 538.583 160.408C536.322 158.217 533.316 155.797 529.565 153.149C525.484 150.41 521.872 147.579 518.728 144.657C515.584 141.735 512.909 138.493 510.703 134.932C508.552 131.371 506.925 127.307 505.822 122.742C504.719 118.176 504.167 112.971 504.167 107.127C504.167 100.827 504.857 95.0285 506.236 89.7323C507.67 84.3449 509.71 79.6423 512.358 75.6245C515.005 71.5155 518.231 68.3195 522.037 66.0367C525.898 63.6626 530.227 62.4755 535.025 62.4755C541.754 62.4755 547.518 64.4387 552.316 68.3652C557.169 72.2003 560.892 77.5878 563.484 84.5275C566.076 91.4673 567.372 99.5485 567.372 108.771H544.208C544.208 105.484 543.905 102.562 543.298 100.005C542.692 97.3569 541.699 95.3024 540.32 93.8414C538.996 92.3804 537.204 91.6499 534.943 91.6499C533.288 91.6499 531.799 92.2434 530.475 93.4305C529.207 94.6176 528.187 96.2155 527.414 98.2244C526.697 100.142 526.339 102.425 526.339 105.073C526.339 107.082 526.587 108.862 527.083 110.415C527.635 111.967 528.49 113.474 529.648 114.935C530.806 116.396 532.351 117.948 534.281 119.592C536.266 121.144 538.693 122.879 541.561 124.796C547.518 128.449 552.399 132.375 556.204 136.576C560.065 140.776 562.933 145.707 564.808 151.368C566.683 156.938 567.621 163.833 567.621 172.051C567.621 178.625 566.849 184.606 565.304 189.994C563.815 195.381 561.637 200.038 558.769 203.964C555.901 207.891 552.454 210.904 548.427 213.004C544.456 215.105 540.017 216.155 535.108 216.155C527.883 216.155 521.789 213.781 516.825 209.032C511.861 204.284 508.111 198.212 505.574 190.815C503.037 183.328 501.768 175.566 501.768 167.531H523.774C523.885 172.462 524.436 176.342 525.429 179.173C526.477 181.912 527.883 183.83 529.648 184.926C531.413 186.022 533.371 186.569 535.522 186.569C537.673 186.569 539.438 186.113 540.816 185.2C542.25 184.195 543.326 182.689 544.043 180.68C544.76 178.58 545.118 176.16 545.118 173.42Z" fill="#D7FF01"/>
<path d="M612.923 65.2149V94.1153H567.257V65.2149H612.923ZM577.763 28.6442H600.845V168.216C600.845 172.325 601.093 175.475 601.589 177.666C602.086 179.858 602.83 181.41 603.823 182.323C604.871 183.145 606.25 183.556 607.959 183.556C609.118 183.556 610.193 183.465 611.186 183.282C612.179 183.008 612.923 182.734 613.419 182.46V212.457C611.599 213.644 609.669 214.557 607.628 215.196C605.643 215.835 603.271 216.155 600.514 216.155C595.881 216.155 591.855 214.694 588.435 211.772C585.071 208.85 582.451 204.193 580.576 197.801C578.701 191.318 577.763 182.826 577.763 172.325V28.6442Z" fill="#D7FF01"/>
<path d="M612.228 144.383V134.384C612.228 122.788 613.056 112.515 614.71 103.566C616.42 94.6176 618.847 87.1299 621.99 81.1033C625.134 74.9854 628.912 70.3741 633.324 67.2694C637.792 64.0735 642.783 62.4755 648.298 62.4755C653.869 62.4755 658.86 64.0735 663.272 67.2694C667.739 70.3741 671.545 74.9854 674.689 81.1033C677.888 87.1299 680.342 94.6176 682.052 103.566C683.761 112.515 684.616 122.788 684.616 134.384V144.383C684.616 155.888 683.761 166.115 682.052 175.064C680.342 184.013 677.888 191.546 674.689 197.664C671.545 203.782 667.767 208.393 663.355 211.498C658.943 214.602 653.979 216.155 648.464 216.155C642.948 216.155 637.957 214.602 633.49 211.498C629.077 208.393 625.272 203.782 622.073 197.664C618.874 191.546 616.42 184.013 614.71 175.064C613.056 166.115 612.228 155.888 612.228 144.383ZM635.392 134.384V144.383C635.392 151.231 635.668 157.167 636.22 162.189C636.826 167.211 637.681 171.366 638.784 174.653C639.943 177.94 641.321 180.36 642.921 181.912C644.52 183.465 646.368 184.241 648.464 184.241C650.559 184.241 652.435 183.465 654.089 181.912C655.744 180.36 657.095 177.94 658.143 174.653C659.246 171.366 660.046 167.211 660.542 162.189C661.094 157.167 661.369 151.231 661.369 144.383V134.384C661.369 127.718 661.066 121.874 660.459 116.852C659.853 111.739 658.998 107.584 657.895 104.388C656.792 101.101 655.413 98.6353 653.758 96.9917C652.159 95.2568 650.339 94.3893 648.298 94.3893C646.257 94.3893 644.437 95.2568 642.838 96.9917C641.294 98.6353 639.943 101.101 638.784 104.388C637.681 107.584 636.826 111.739 636.22 116.852C635.668 121.874 635.392 127.718 635.392 134.384Z" fill="#D7FF01"/>
<path d="M730.498 173.42C730.498 170.864 729.974 168.581 728.926 166.572C727.878 164.563 726.223 162.508 723.962 160.408C721.701 158.217 718.695 155.797 714.945 153.149C710.863 150.41 707.251 147.579 704.107 144.657C700.963 141.735 698.289 138.493 696.082 134.932C693.931 131.371 692.304 127.307 691.201 122.742C690.098 118.176 689.547 112.971 689.547 107.127C689.547 100.827 690.236 95.0285 691.615 89.7323C693.049 84.3449 695.09 79.6423 697.737 75.6245C700.384 71.5155 703.611 68.3195 707.416 66.0367C711.277 63.6626 715.606 62.4755 720.405 62.4755C727.133 62.4755 732.897 64.4387 737.695 68.3652C742.549 72.2003 746.271 77.5878 748.864 84.5275C751.456 91.4673 752.752 99.5485 752.752 108.771H729.588C729.588 105.484 729.284 102.562 728.678 100.005C728.071 97.3569 727.078 95.3024 725.699 93.8414C724.376 92.3804 722.583 91.6499 720.322 91.6499C718.667 91.6499 717.178 92.2434 715.855 93.4305C714.586 94.6176 713.566 96.2155 712.794 98.2244C712.077 100.142 711.718 102.425 711.718 105.073C711.718 107.082 711.966 108.862 712.463 110.415C713.014 111.967 713.869 113.474 715.027 114.935C716.186 116.396 717.73 117.948 719.66 119.592C721.646 121.144 724.072 122.879 726.94 124.796C732.897 128.449 737.778 132.375 741.583 136.576C745.444 140.776 748.312 145.707 750.187 151.368C752.062 156.938 753 163.833 753 172.051C753 178.625 752.228 184.606 750.684 189.994C749.194 195.381 747.016 200.038 744.148 203.964C741.28 207.891 737.833 210.904 733.807 213.004C729.836 215.105 725.396 216.155 720.487 216.155C713.262 216.155 707.168 213.781 702.204 209.032C697.241 204.284 693.49 198.212 690.953 190.815C688.416 183.328 687.148 175.566 687.148 167.531H709.154C709.264 172.462 709.815 176.342 710.808 179.173C711.856 181.912 713.262 183.83 715.027 184.926C716.792 186.022 718.75 186.569 720.901 186.569C723.052 186.569 724.817 186.113 726.196 185.2C727.63 184.195 728.705 182.689 729.422 180.68C730.139 178.58 730.498 176.16 730.498 173.42Z" fill="#D7FF01"/>
</svg>
