<svg width="1440" height="270" viewBox="0 0 1440 270" fill="none" xmlns="http://www.w3.org/2000/svg">
<g opacity="0.6" clip-path="url(#clip0_1495_1263)">
<g opacity="0.3">
<path d="M600.757 185.214C600.757 172.046 611.431 161.371 624.599 161.371C637.767 161.371 648.441 172.046 648.441 185.214L648.441 322.307C648.441 335.474 637.767 346.149 624.599 346.149C611.431 346.149 600.757 335.474 600.757 322.307L600.757 185.214Z" fill="url(#paint0_linear_1495_1263)"/>
<path d="M696.126 45.1404C696.126 31.9726 706.8 21.2981 719.968 21.2981C733.136 21.2981 743.81 31.9726 743.81 45.1404L743.81 462.38C743.81 475.548 733.136 486.222 719.968 486.222C706.8 486.222 696.126 475.548 696.126 462.38L696.126 45.1404Z" fill="url(#paint1_linear_1495_1263)"/>
<path d="M791.495 98.7855C791.495 85.6178 802.169 74.9432 815.337 74.9432C828.505 74.9432 839.179 85.6177 839.179 98.7855L839.179 408.735C839.179 421.903 828.505 432.577 815.337 432.577C802.169 432.577 791.495 421.903 791.495 408.735L791.495 98.7855Z" fill="url(#paint2_linear_1495_1263)"/>
<path d="M886.864 185.214C886.864 172.046 897.538 161.371 910.706 161.371C923.874 161.371 934.548 172.046 934.548 185.214L934.548 322.307C934.548 335.474 923.874 346.149 910.706 346.149C897.538 346.149 886.864 335.474 886.864 322.307L886.864 185.214Z" fill="url(#paint3_linear_1495_1263)"/>
<path d="M982.233 232.898C982.233 219.731 992.907 209.056 1006.08 209.056C1019.24 209.056 1029.92 219.73 1029.92 232.898L1029.92 274.622C1029.92 287.79 1019.24 298.464 1006.08 298.464C992.908 298.464 982.233 287.79 982.233 274.622L982.233 232.898Z" fill="url(#paint4_linear_1495_1263)"/>
<path d="M1077.6 185.214C1077.6 172.046 1088.28 161.371 1101.44 161.371C1114.61 161.371 1125.29 172.046 1125.29 185.214L1125.29 322.307C1125.29 335.474 1114.61 346.149 1101.44 346.149C1088.28 346.149 1077.6 335.474 1077.6 322.307L1077.6 185.214Z" fill="url(#paint5_linear_1495_1263)"/>
<path d="M1172.97 42.1601C1172.97 28.9924 1183.65 18.3178 1196.81 18.3178C1209.98 18.3178 1220.66 28.9924 1220.66 42.1601L1220.66 465.36C1220.66 478.528 1209.98 489.203 1196.81 489.203C1183.65 489.203 1172.97 478.528 1172.97 465.36L1172.97 42.1601Z" fill="url(#paint6_linear_1495_1263)"/>
<path d="M1268.34 42.1601C1268.34 28.9924 1279.01 18.3178 1292.18 18.3178C1305.35 18.3178 1316.02 28.9924 1316.02 42.1601L1316.02 465.36C1316.02 478.528 1305.35 489.203 1292.18 489.203C1279.01 489.203 1268.34 478.528 1268.34 465.36L1268.34 42.1601Z" fill="url(#paint7_linear_1495_1263)"/>
<path d="M1363.71 209.056C1363.71 195.888 1374.38 185.214 1387.55 185.214C1400.72 185.214 1411.39 195.888 1411.39 209.056L1411.39 298.464C1411.39 311.632 1400.72 322.307 1387.55 322.307C1374.38 322.307 1363.71 311.632 1363.71 298.464L1363.71 209.056Z" fill="url(#paint8_linear_1495_1263)"/>
<path d="M1459.08 42.1601C1459.08 28.9924 1469.75 18.3178 1482.92 18.3178C1496.09 18.3178 1506.76 28.9924 1506.76 42.1601L1506.76 465.36C1506.76 478.528 1496.09 489.203 1482.92 489.203C1469.75 489.203 1459.08 478.528 1459.08 465.36L1459.08 42.1601Z" fill="url(#paint9_linear_1495_1263)"/>
<path d="M1554.45 158.391C1554.45 145.223 1565.12 134.549 1578.29 134.549C1591.46 134.549 1602.13 145.223 1602.13 158.391L1602.13 349.129C1602.13 362.297 1591.46 372.972 1578.29 372.972C1565.12 372.972 1554.45 362.297 1554.45 349.129L1554.45 158.391Z" fill="url(#paint10_linear_1495_1263)"/>
<path d="M1649.82 179.253C1649.82 166.085 1660.49 155.411 1673.66 155.411C1686.83 155.411 1697.5 166.085 1697.5 179.253L1697.5 328.267C1697.5 341.435 1686.83 352.11 1673.66 352.11C1660.49 352.11 1649.82 341.435 1649.82 328.267L1649.82 179.253Z" fill="url(#paint11_linear_1495_1263)"/>
<path d="M1745.19 232.898C1745.19 219.73 1755.86 209.056 1769.03 209.056C1782.2 209.056 1792.87 219.73 1792.87 232.898L1792.87 274.622C1792.87 287.79 1782.2 298.464 1769.03 298.464C1755.86 298.464 1745.19 287.79 1745.19 274.622L1745.19 232.898Z" fill="url(#paint12_linear_1495_1263)"/>
<path d="M-352 229.6C-352 216.432 -341.325 205.758 -328.158 205.758C-314.99 205.758 -304.315 216.432 -304.315 229.6L-304.315 271.324C-304.315 284.492 -314.99 295.166 -328.158 295.166C-341.325 295.166 -352 284.492 -352 271.324L-352 229.6Z" fill="url(#paint13_linear_1495_1263)"/>
<path d="M-256.631 68.6648C-256.631 55.497 -245.956 44.8225 -232.789 44.8225C-219.621 44.8225 -208.946 55.497 -208.946 68.6648L-208.946 432.259C-208.946 445.427 -219.621 456.102 -232.789 456.102C-245.956 456.102 -256.631 445.427 -256.631 432.259L-256.631 68.6648Z" fill="url(#paint14_linear_1495_1263)"/>
<path d="M-161.262 229.6C-161.262 216.432 -150.587 205.758 -137.42 205.758C-124.252 205.758 -113.577 216.432 -113.577 229.6L-113.577 271.324C-113.577 284.492 -124.252 295.166 -137.42 295.166C-150.587 295.166 -161.262 284.492 -161.262 271.324L-161.262 229.6Z" fill="url(#paint15_linear_1495_1263)"/>
<path d="M-65.8929 68.6648C-65.8929 55.4971 -55.2183 44.8225 -42.0506 44.8225C-28.8829 44.8225 -18.2083 55.4971 -18.2083 68.6648L-18.2083 432.259C-18.2083 445.427 -28.8829 456.102 -42.0506 456.102C-55.2183 456.102 -65.8928 445.427 -65.8928 432.259L-65.8929 68.6648Z" fill="url(#paint16_linear_1495_1263)"/>
<path d="M29.4762 229.6C29.4762 216.432 40.1508 205.758 53.3185 205.758C66.4862 205.758 77.1607 216.432 77.1607 229.6L77.1607 271.324C77.1607 284.492 66.4862 295.166 53.3185 295.166C40.1508 295.166 29.4762 284.492 29.4762 271.324L29.4762 229.6Z" fill="url(#paint17_linear_1495_1263)"/>
<path d="M124.845 229.6C124.845 216.432 135.52 205.758 148.688 205.758C161.855 205.758 172.53 216.432 172.53 229.6L172.53 271.324C172.53 284.492 161.855 295.166 148.688 295.166C135.52 295.166 124.845 284.492 124.845 271.324L124.845 229.6Z" fill="url(#paint18_linear_1495_1263)"/>
<path d="M220.214 229.6C220.214 216.432 230.889 205.758 244.057 205.758C257.224 205.758 267.899 216.432 267.899 229.6L267.899 271.324C267.899 284.492 257.224 295.166 244.057 295.166C230.889 295.166 220.214 284.492 220.214 271.324L220.214 229.6Z" fill="url(#paint19_linear_1495_1263)"/>
<path d="M315.583 41.8423C315.583 28.6745 326.258 18 339.426 18C352.593 18 363.268 28.6745 363.268 41.8423L363.268 459.082C363.268 472.25 352.593 482.924 339.426 482.924C326.258 482.924 315.583 472.25 315.583 459.082L315.583 41.8423Z" fill="url(#paint20_linear_1495_1263)"/>
<path d="M410.952 95.4874C410.952 82.3197 421.627 71.6451 434.795 71.6451C447.962 71.6451 458.637 82.3196 458.637 95.4873L458.637 405.437C458.637 418.605 447.962 429.279 434.795 429.279C421.627 429.279 410.952 418.605 410.952 405.437L410.952 95.4874Z" fill="url(#paint21_linear_1495_1263)"/>
<path d="M506.322 95.4874C506.322 82.3197 516.996 71.6451 530.164 71.6451C543.331 71.6451 554.006 82.3196 554.006 95.4874L554.006 405.437C554.006 418.605 543.332 429.279 530.164 429.279C516.996 429.279 506.322 418.605 506.322 405.437L506.322 95.4874Z" fill="url(#paint22_linear_1495_1263)"/>
</g>
</g>
<defs>
<linearGradient id="paint0_linear_1495_1263" x1="830.286" y1="272.5" x2="830.287" y2="18" gradientUnits="userSpaceOnUse">
<stop stop-color="#99349F"/>
<stop offset="1" stop-color="#D7FF01"/>
</linearGradient>
<linearGradient id="paint1_linear_1495_1263" x1="830.286" y1="272.5" x2="830.287" y2="18" gradientUnits="userSpaceOnUse">
<stop stop-color="#99349F"/>
<stop offset="1" stop-color="#D7FF01"/>
</linearGradient>
<linearGradient id="paint2_linear_1495_1263" x1="830.286" y1="272.5" x2="830.287" y2="18" gradientUnits="userSpaceOnUse">
<stop stop-color="#99349F"/>
<stop offset="1" stop-color="#D7FF01"/>
</linearGradient>
<linearGradient id="paint3_linear_1495_1263" x1="830.286" y1="272.5" x2="830.287" y2="18" gradientUnits="userSpaceOnUse">
<stop stop-color="#99349F"/>
<stop offset="1" stop-color="#D7FF01"/>
</linearGradient>
<linearGradient id="paint4_linear_1495_1263" x1="830.286" y1="272.5" x2="830.287" y2="18" gradientUnits="userSpaceOnUse">
<stop stop-color="#99349F"/>
<stop offset="1" stop-color="#D7FF01"/>
</linearGradient>
<linearGradient id="paint5_linear_1495_1263" x1="830.286" y1="272.5" x2="830.287" y2="18" gradientUnits="userSpaceOnUse">
<stop stop-color="#99349F"/>
<stop offset="1" stop-color="#D7FF01"/>
</linearGradient>
<linearGradient id="paint6_linear_1495_1263" x1="830.286" y1="272.5" x2="830.287" y2="18" gradientUnits="userSpaceOnUse">
<stop stop-color="#99349F"/>
<stop offset="1" stop-color="#D7FF01"/>
</linearGradient>
<linearGradient id="paint7_linear_1495_1263" x1="830.286" y1="272.5" x2="830.287" y2="18" gradientUnits="userSpaceOnUse">
<stop stop-color="#99349F"/>
<stop offset="1" stop-color="#D7FF01"/>
</linearGradient>
<linearGradient id="paint8_linear_1495_1263" x1="830.286" y1="272.5" x2="830.287" y2="18" gradientUnits="userSpaceOnUse">
<stop stop-color="#99349F"/>
<stop offset="1" stop-color="#D7FF01"/>
</linearGradient>
<linearGradient id="paint9_linear_1495_1263" x1="830.286" y1="272.5" x2="830.287" y2="18" gradientUnits="userSpaceOnUse">
<stop stop-color="#99349F"/>
<stop offset="1" stop-color="#D7FF01"/>
</linearGradient>
<linearGradient id="paint10_linear_1495_1263" x1="830.286" y1="272.5" x2="830.287" y2="18" gradientUnits="userSpaceOnUse">
<stop stop-color="#99349F"/>
<stop offset="1" stop-color="#D7FF01"/>
</linearGradient>
<linearGradient id="paint11_linear_1495_1263" x1="830.286" y1="272.5" x2="830.287" y2="18" gradientUnits="userSpaceOnUse">
<stop stop-color="#99349F"/>
<stop offset="1" stop-color="#D7FF01"/>
</linearGradient>
<linearGradient id="paint12_linear_1495_1263" x1="830.286" y1="272.5" x2="830.287" y2="18" gradientUnits="userSpaceOnUse">
<stop stop-color="#99349F"/>
<stop offset="1" stop-color="#D7FF01"/>
</linearGradient>
<linearGradient id="paint13_linear_1495_1263" x1="830.286" y1="272.5" x2="830.287" y2="18" gradientUnits="userSpaceOnUse">
<stop stop-color="#99349F"/>
<stop offset="1" stop-color="#D7FF01"/>
</linearGradient>
<linearGradient id="paint14_linear_1495_1263" x1="830.286" y1="272.5" x2="830.287" y2="18" gradientUnits="userSpaceOnUse">
<stop stop-color="#99349F"/>
<stop offset="1" stop-color="#D7FF01"/>
</linearGradient>
<linearGradient id="paint15_linear_1495_1263" x1="830.286" y1="272.5" x2="830.287" y2="18" gradientUnits="userSpaceOnUse">
<stop stop-color="#99349F"/>
<stop offset="1" stop-color="#D7FF01"/>
</linearGradient>
<linearGradient id="paint16_linear_1495_1263" x1="830.286" y1="272.5" x2="830.287" y2="18" gradientUnits="userSpaceOnUse">
<stop stop-color="#99349F"/>
<stop offset="1" stop-color="#D7FF01"/>
</linearGradient>
<linearGradient id="paint17_linear_1495_1263" x1="830.286" y1="272.5" x2="830.287" y2="18" gradientUnits="userSpaceOnUse">
<stop stop-color="#99349F"/>
<stop offset="1" stop-color="#D7FF01"/>
</linearGradient>
<linearGradient id="paint18_linear_1495_1263" x1="830.286" y1="272.5" x2="830.287" y2="18" gradientUnits="userSpaceOnUse">
<stop stop-color="#99349F"/>
<stop offset="1" stop-color="#D7FF01"/>
</linearGradient>
<linearGradient id="paint19_linear_1495_1263" x1="830.286" y1="272.5" x2="830.287" y2="18" gradientUnits="userSpaceOnUse">
<stop stop-color="#99349F"/>
<stop offset="1" stop-color="#D7FF01"/>
</linearGradient>
<linearGradient id="paint20_linear_1495_1263" x1="830.286" y1="272.5" x2="830.287" y2="18" gradientUnits="userSpaceOnUse">
<stop stop-color="#99349F"/>
<stop offset="1" stop-color="#D7FF01"/>
</linearGradient>
<linearGradient id="paint21_linear_1495_1263" x1="830.286" y1="272.5" x2="830.287" y2="18" gradientUnits="userSpaceOnUse">
<stop stop-color="#99349F"/>
<stop offset="1" stop-color="#D7FF01"/>
</linearGradient>
<linearGradient id="paint22_linear_1495_1263" x1="830.286" y1="272.5" x2="830.287" y2="18" gradientUnits="userSpaceOnUse">
<stop stop-color="#99349F"/>
<stop offset="1" stop-color="#D7FF01"/>
</linearGradient>
<clipPath id="clip0_1495_1263">
<rect width="1440" height="270" fill="white"/>
</clipPath>
</defs>
</svg>
