<svg width="65" height="65" viewBox="0 0 65 65" fill="none" xmlns="http://www.w3.org/2000/svg">
<path fill-rule="evenodd" clip-rule="evenodd" d="M31.9287 0C32.9316 0 33.4395 0.0625 34.3154 0.3125C34.9248 0.4875 35.75 0.7875 36.1436 0.9875C36.5498 1.1875 37.2734 1.6625 37.7686 2.0375C38.2637 2.425 38.9492 3.1125 39.3047 3.5875C39.6729 4.05 40.1045 4.7125 40.2822 5.0625C40.4473 5.4 40.7266 6.075 40.8789 6.5625C41.0313 7.0625 41.1836 7.9375 41.2217 8.625C41.2725 9.475 41.2344 10.1125 41.082 10.875C40.9424 11.5375 40.6504 12.3625 40.3076 13.0625C40.0029 13.6875 39.4951 14.5125 39.1777 14.9C38.8477 15.3 38.2383 15.9 37.7939 16.25C37.3623 16.5875 36.6133 17.0625 36.1182 17.3C35.623 17.5375 34.8867 17.825 34.4678 17.9625C33.8711 18.1375 33.3125 18.1875 31.9287 18.1875C30.3291 18.175 30.0498 18.1375 29.1357 17.8375C28.5771 17.6375 27.7139 17.25 27.2314 16.975C26.749 16.6875 25.9365 16.0625 25.4414 15.575C24.9463 15.0875 24.3115 14.2875 24.0195 13.8125C23.7402 13.3375 23.3467 12.4875 23.1562 11.9375C22.9277 11.225 22.8008 10.575 22.75 9.6875C22.7119 8.7875 22.75 8.15 22.9023 7.375C23.0293 6.7875 23.334 5.8625 23.6006 5.3125C23.8672 4.7625 24.3623 3.95 24.7051 3.5125C25.0479 3.0625 25.6699 2.4375 26.0889 2.1C26.5078 1.775 27.2188 1.3 27.6758 1.075C28.1328 0.8375 28.9834 0.5 29.5801 0.325C30.4053 0.0875 30.9639 0.0125 31.9287 0V0ZM29.9609 2.325C29.5801 2.4375 28.8945 2.725 28.4375 2.975C27.9805 3.225 27.2695 3.7625 26.8506 4.1875C26.4316 4.6 25.9111 5.275 25.6826 5.6875C25.4541 6.1 25.1621 6.8875 25.0098 7.4375C24.8701 7.9875 24.7559 8.7125 24.7559 9.0625C24.7559 9.4 24.8193 10.025 24.8955 10.4375C24.9717 10.85 25.2637 11.6625 25.543 12.25C25.9365 13.0375 26.2793 13.525 26.9014 14.1375C27.5107 14.7375 28.0313 15.1 28.8184 15.4875C29.5801 15.85 30.1895 16.05 30.9131 16.15C31.7002 16.2625 32.1699 16.2625 33.0078 16.15C33.7822 16.0375 34.3789 15.85 35.1279 15.5C35.9023 15.1375 36.4102 14.775 37.0449 14.15C37.6543 13.5625 38.0479 13.025 38.3779 12.375C38.6445 11.8625 38.9365 11.0125 39.0508 10.5C39.1777 9.8875 39.2285 9.2625 39.1777 8.6875C39.1396 8.2125 39 7.45 38.8604 7C38.7207 6.55 38.3779 5.8375 38.0859 5.4C37.8066 4.975 37.3496 4.4 37.0703 4.125C36.791 3.85 36.2578 3.425 35.8896 3.1875C35.5342 2.95 34.8359 2.6125 34.3408 2.45C33.8076 2.2625 33.0586 2.1125 32.4365 2.075C31.8779 2.05 31.2559 2.05 31.04 2.075C30.8242 2.1125 30.3418 2.225 29.9609 2.325V2.325ZM64.3906 34.5625L65 35.25V52.125L64.3906 52.8125H47.125L46.4521 52.1875L46.4648 43.6875C46.4775 37.05 46.5029 35.1375 46.6299 34.975C46.7187 34.85 46.9346 34.7 47.0996 34.6375C47.3027 34.5625 50.6289 34.525 64.3906 34.5625ZM48.4961 50.75H62.9688V36.625H48.4961V50.75ZM10.2705 34.625C10.5244 34.625 10.8291 34.6875 10.9434 34.775C11.0576 34.8625 13.2793 38.65 15.8691 43.1875C19.3984 49.3875 20.5664 51.5375 20.5664 51.85C20.5664 52.075 20.4648 52.35 20.3125 52.5C20.1729 52.6375 19.8174 52.775 19.5254 52.825C19.2207 52.8625 14.8408 52.875 0.609375 52.8125L0.304688 52.475C0.139648 52.275 0 52 0 51.85C0 51.6875 2.12012 47.85 4.70996 43.3125C7.2998 38.775 9.50879 34.9625 9.61035 34.85C9.7373 34.7125 9.99121 34.625 10.2705 34.625V34.625ZM2.79297 50.75C14.4092 50.75 17.7734 50.7375 17.7734 50.725C17.7734 50.7 16.1738 47.875 14.2061 44.4375C12.251 41 10.5752 38.05 10.499 37.9C10.3594 37.625 10.042 38.125 6.57617 44.175L2.79297 50.75ZM10.2832 54.875C10.6768 54.875 10.9053 55.05 14.0918 58.1875L12.6318 59.625L12.0605 59.0625C11.7432 58.75 11.4385 58.5 11.3877 58.5C11.3369 58.5 11.2988 59.9625 11.2988 65H9.26758V58.3125L7.93457 59.625L6.46191 58.1875L8.16309 56.5375C9.67383 55.05 9.90234 54.875 10.2832 54.875ZM18.2686 1.375C18.3066 1.375 19.0303 2.0625 19.8936 2.9C20.7441 3.75 21.4932 4.575 21.5439 4.75C21.6074 4.925 21.6455 5.175 21.6074 5.3125C21.582 5.45 20.8203 6.3 18.2686 8.8125L16.8213 7.375L18.0908 6.125L11.3623 6.0625V4.0625L18.0908 4L16.8213 2.75L17.5068 2.0625C17.8877 1.6875 18.2305 1.375 18.2686 1.375ZM20.1221 9.8875C20.1855 9.875 20.4268 10.275 21.0742 11.625L20.2109 12.0875C19.7412 12.3375 19.043 12.75 18.6621 12.9875C18.2686 13.225 17.5322 13.725 17.0117 14.1125C16.4785 14.4875 15.4883 15.3375 14.8027 15.9875C14.1045 16.65 13.2158 17.5875 12.8223 18.0625C12.4287 18.55 11.8447 19.3 11.5146 19.75C11.1973 20.2 10.5879 21.2125 10.1689 22C9.75 22.7875 9.22949 23.8625 9.01367 24.375C8.79785 24.8875 8.44238 25.9 8.23926 26.625C8.02344 27.35 7.74414 28.5625 7.5918 29.3125C7.42676 30.2125 7.2998 31.525 7.17285 35.5H6.85547C6.67773 35.5 6.2207 35.55 5.16699 35.6875L5.23047 33C5.28125 31.0375 5.37012 29.9375 5.56055 28.9375C5.71289 28.1875 5.97949 27.025 6.15723 26.375C6.33496 25.725 6.74121 24.5375 7.05859 23.75C7.36328 22.9625 7.88379 21.8375 8.20117 21.25C8.51855 20.6625 9.10254 19.7125 9.4834 19.125C9.86426 18.5375 10.5625 17.5875 11.0449 17C11.5146 16.4125 12.5176 15.3375 13.2793 14.6125C14.041 13.8875 15.1963 12.9 15.8691 12.425C16.5293 11.9375 17.4941 11.2875 18.0273 10.975C18.5479 10.6625 19.208 10.2875 19.4873 10.15C19.7666 10 20.0459 9.8875 20.1221 9.8875V9.8875ZM43.8496 9.875C43.9258 9.875 44.4971 10.1625 45.1318 10.5125C45.7539 10.8625 46.7314 11.4625 47.29 11.85C47.8486 12.2375 48.7627 12.925 49.3213 13.3875C49.8799 13.85 50.7051 14.6125 51.1748 15.0875C51.6318 15.55 52.3428 16.3375 52.749 16.8125C53.1553 17.3 53.8789 18.275 54.3613 19C54.8564 19.725 55.4912 20.8 55.8086 21.4125C56.1133 22.0125 56.5576 22.9625 56.7988 23.5375C57.04 24.1 57.4336 25.2125 57.6748 26C57.916 26.7875 58.2334 28.1375 58.373 29C58.5127 29.8625 58.665 31 58.7793 32.5H56.748L56.6846 31.975C56.6465 31.675 56.5957 31.1 56.5449 30.6875C56.5068 30.275 56.3545 29.35 56.2148 28.625C56.0752 27.9 55.7324 26.6375 55.4531 25.8125C55.1738 24.9875 54.6152 23.6375 54.209 22.8125C53.8027 21.9875 53.0791 20.75 52.6094 20.0625C52.1396 19.375 51.4033 18.3875 50.959 17.875C50.5273 17.3625 49.7148 16.5125 49.1689 16C48.623 15.475 47.7979 14.7625 47.3535 14.425C46.8965 14.075 46.0967 13.5 45.5762 13.1625C45.043 12.8125 44.332 12.3875 43.9893 12.2125C43.6338 12.0375 43.2402 11.825 43.1133 11.725C42.8975 11.575 42.8975 11.525 43.291 10.725C43.5195 10.25 43.7734 9.875 43.8496 9.875V9.875ZM59.7949 13.25H61.9531L61.9404 19.8125L63.2227 18.5625L64.6826 20L62.9941 21.65C61.4961 23.1375 61.2803 23.3 60.874 23.3125C60.4678 23.3125 60.2773 23.1625 57.0654 20L58.5127 18.5625L59.7949 19.8125V13.25ZM29.6436 20.6125L31.3193 22.275C32.6523 23.5875 32.9951 24.0125 33.0078 24.2875C33.0078 24.475 32.5254 25.5875 30.8496 28.875L29.9609 28.4375C29.4658 28.2 29.0723 27.975 29.0723 27.9375C29.0723 27.9 29.3008 27.425 29.5801 26.875C29.8594 26.325 30.0879 25.825 30.0879 25.75C30.0879 25.675 29.8594 25.7125 29.542 25.8125C29.25 25.925 28.7549 26.1625 28.4375 26.3375C28.1201 26.5125 27.5869 26.9 27.2441 27.175C26.9014 27.4625 26.3428 28.1125 26 28.625C25.6572 29.1375 25.2637 29.9 25.1367 30.3125C25.0098 30.725 24.8574 31.4875 24.8066 32C24.7432 32.7125 24.7686 33.175 24.9463 33.9375C25.0732 34.4875 25.3779 35.3375 25.6318 35.8125C25.8857 36.3 26.3936 36.9875 26.7871 37.3875C27.168 37.7625 27.6758 38.2125 28.3486 38.6875L27.8535 39.5375C27.5742 40 27.333 40.375 27.2949 40.375C27.2568 40.375 26.8633 40.1 26.4062 39.7625C25.9492 39.4375 25.3398 38.8875 25.0479 38.55C24.7559 38.2125 24.3115 37.6 24.0576 37.1875C23.8164 36.775 23.4736 36.075 23.2959 35.625C23.1309 35.175 22.9277 34.5125 22.8643 34.1625C22.7881 33.8 22.7246 33.05 22.7246 32.5C22.7246 31.95 22.8008 31.0875 22.915 30.6C23.0166 30.1 23.3594 29.1875 23.6641 28.5625C23.9814 27.925 24.5527 27.075 24.9717 26.6C25.3779 26.125 26.0254 25.525 26.4062 25.2375C26.7871 24.9625 27.4219 24.575 27.8027 24.3875C28.1836 24.1875 28.7295 23.9625 29.0088 23.875C29.2881 23.7875 29.5547 23.6875 29.6055 23.6375C29.6562 23.6 29.3643 23.225 28.1836 22.0625L29.6436 20.6125ZM36.626 24.625C36.6641 24.625 36.9561 24.8 37.2861 25.025C37.6162 25.25 38.2383 25.775 38.6572 26.2C39.0762 26.625 39.5967 27.275 39.8252 27.6375C40.0537 28.0125 40.3838 28.65 40.5488 29.0625C40.7266 29.475 40.9551 30.2625 41.082 30.8125C41.2344 31.525 41.2725 32.1375 41.2217 33C41.1709 33.7625 41.0313 34.5375 40.8281 35.1875C40.6504 35.7375 40.2822 36.5375 40.0156 36.975C39.7617 37.4125 39.2539 38.1 38.9111 38.5C38.5557 38.9 38.0098 39.4125 37.7051 39.65C37.3877 39.8875 36.7529 40.2875 36.3086 40.525C35.8516 40.775 35.2549 41.0375 34.9756 41.125C34.6963 41.2125 34.4043 41.3 34.3408 41.3375C34.2646 41.375 34.5693 41.75 35.8008 42.9375L34.3408 44.375L32.665 42.7125C31.332 41.4 30.9766 40.9875 30.9766 40.7125C30.9766 40.525 31.459 39.4125 33.1348 36.125L34.0234 36.5625C34.5059 36.8 34.9121 37.025 34.9121 37.0625C34.9121 37.0875 34.6836 37.575 34.4043 38.125C34.125 38.675 33.8965 39.175 33.8965 39.25C33.8965 39.3125 34.1885 39.25 34.5566 39.1125C34.9248 38.9625 35.5977 38.6 36.0547 38.3C36.499 38.0125 37.083 37.525 37.3369 37.225C37.5781 36.925 37.9336 36.4625 38.124 36.1875C38.3145 35.9125 38.6064 35.2625 38.7969 34.75C39.0635 34 39.127 33.5625 39.1396 32.5625C39.1523 31.6 39.0889 31.1 38.8857 30.4375C38.7207 29.9125 38.3398 29.15 37.9336 28.5625C37.4893 27.9 36.9941 27.3625 36.4609 26.975C36.0293 26.6375 35.6611 26.3375 35.6484 26.3C35.6357 26.25 35.8389 25.8625 36.0928 25.425C36.3594 24.975 36.6006 24.625 36.626 24.625V24.625ZM45.8809 53.75C45.957 53.75 46.2236 54.1125 46.4902 54.5625C46.7568 55 46.96 55.3875 46.9346 55.4125C46.9219 55.4375 46.5664 55.675 46.1475 55.9375C45.7285 56.1875 44.7764 56.7 44.0527 57.0625C43.3164 57.425 42.1738 57.925 41.5137 58.1875C40.8408 58.4375 39.5586 58.8375 38.6572 59.0625C37.7432 59.2875 36.2324 59.575 35.293 59.6875C33.9727 59.85 33.0078 59.8875 31.167 59.8375C29.4912 59.7875 28.3232 59.6875 27.3584 59.5125C26.584 59.3625 25.416 59.1 24.7559 58.925C24.083 58.75 22.8262 58.325 21.9629 57.975C21.0869 57.6375 19.7412 57 18.9795 56.575C18.1543 56.125 17.583 55.725 17.5957 55.6125C17.5957 55.5125 17.8115 55.1125 18.5352 54L19.0684 54.3125C19.373 54.5 20.3506 55 21.2646 55.4375C22.166 55.8625 23.5371 56.4125 24.3115 56.6625C25.0732 56.9 26.2412 57.2125 26.9141 57.35C27.5742 57.4875 28.6787 57.6625 29.3516 57.7375C30.0371 57.8125 31.2432 57.875 32.0557 57.875C32.8555 57.875 34.1885 57.7875 35.001 57.675C35.8262 57.575 36.9814 57.375 37.5781 57.2375C38.1621 57.1 39.1904 56.8125 39.8633 56.6C40.5234 56.3875 41.7549 55.8875 42.5928 55.5C43.4307 55.1125 44.4844 54.55 44.9414 54.2625C45.3857 53.975 45.8174 53.75 45.8809 53.75Z" fill="white"/>
</svg>
