<svg width="95" height="96" viewBox="0 0 95 96" fill="none" xmlns="http://www.w3.org/2000/svg">
<path fill-rule="evenodd" clip-rule="evenodd" d="M46.665 0.5C48.1309 0.5 48.873 0.591346 50.1533 0.956731C51.0439 1.2125 52.25 1.65096 52.8252 1.94327C53.4189 2.23558 54.4766 2.92981 55.2002 3.47788C55.9238 4.04423 56.9258 5.04904 57.4453 5.74327C57.9834 6.41923 58.6143 7.3875 58.874 7.89904C59.1152 8.39231 59.5234 9.37885 59.7461 10.0913C59.9688 10.8221 60.1914 12.101 60.2471 13.1058C60.3213 14.3481 60.2656 15.2798 60.043 16.3942C59.8389 17.3625 59.4121 18.5683 58.9111 19.5913C58.4658 20.5048 57.7236 21.7106 57.2598 22.2769C56.7773 22.8615 55.8867 23.7385 55.2373 24.25C54.6064 24.7433 53.5117 25.4375 52.7881 25.7846C52.0645 26.1317 50.9883 26.5519 50.376 26.7529C49.5039 27.0087 48.6875 27.0817 46.665 27.0817C44.3271 27.0635 43.9189 27.0087 42.583 26.5702C41.7666 26.2779 40.5049 25.7115 39.7998 25.3096C39.0947 24.8894 37.9072 23.976 37.1836 23.2635C36.46 22.551 35.5322 21.3817 35.1055 20.6875C34.6973 19.9933 34.1221 18.751 33.8438 17.9471C33.5098 16.9058 33.3242 15.9558 33.25 14.6587C33.1943 13.3433 33.25 12.4115 33.4727 11.2788C33.6582 10.4202 34.1035 9.06827 34.4932 8.26442C34.8828 7.46058 35.6064 6.27308 36.1074 5.63365C36.6084 4.97596 37.5176 4.0625 38.1299 3.56923C38.7422 3.09423 39.7812 2.4 40.4492 2.07115C41.1172 1.72404 42.3604 1.23077 43.2324 0.975C44.4385 0.627885 45.2549 0.518269 46.665 0.5ZM43.7891 3.89808C43.2324 4.0625 42.2305 4.48269 41.5625 4.84808C40.8945 5.21346 39.8555 5.99904 39.2432 6.62019C38.6309 7.22308 37.8701 8.20962 37.5361 8.8125C37.2021 9.41538 36.7754 10.5663 36.5527 11.3702C36.3486 12.174 36.1816 13.2337 36.1816 13.7452C36.1816 14.2385 36.2744 15.1519 36.3857 15.7548C36.4971 16.3577 36.9238 17.5452 37.332 18.4038C37.9072 19.5548 38.4082 20.2673 39.3174 21.1625C40.208 22.0394 40.9688 22.5692 42.1191 23.1356C43.2324 23.6654 44.123 23.9577 45.1807 24.1038C46.3311 24.2683 47.0176 24.2683 48.2422 24.1038C49.374 23.9394 50.2461 23.6654 51.3408 23.1538C52.4727 22.624 53.2148 22.0942 54.1426 21.1808C55.0332 20.3221 55.6084 19.5365 56.0908 18.5865C56.4805 17.8375 56.9072 16.5952 57.0742 15.8462C57.2598 14.951 57.334 14.0375 57.2598 13.1971C57.2041 12.5029 57 11.3885 56.7959 10.7308C56.5918 10.0731 56.0908 9.03173 55.6641 8.39231C55.2559 7.77115 54.5879 6.93077 54.1797 6.52885C53.7715 6.12692 52.9922 5.50577 52.4541 5.15865C51.9346 4.81154 50.9141 4.31827 50.1904 4.08077C49.4111 3.80673 48.3164 3.5875 47.4072 3.53269C46.5908 3.49615 45.6816 3.49615 45.3662 3.53269C45.0508 3.5875 44.3457 3.75192 43.7891 3.89808ZM94.1094 51.0144L95 52.0192V76.6827L94.1094 77.6875H68.875L67.8916 76.774L67.9102 64.351C67.9287 54.65 67.9658 51.8548 68.1514 51.6173C68.2812 51.4346 68.5967 51.2154 68.8379 51.124C69.1348 51.0144 73.9961 50.9596 94.1094 51.0144ZM70.8789 74.6731H92.0312V54.0288H70.8789V74.6731ZM15.0107 51.1058C15.3818 51.1058 15.8271 51.1971 15.9941 51.325C16.1611 51.4529 19.4082 56.9885 23.1934 63.6202C28.3516 72.6817 30.0586 75.824 30.0586 76.2808C30.0586 76.6096 29.9102 77.0115 29.6875 77.2308C29.4834 77.4317 28.9639 77.6327 28.5371 77.7058C28.0918 77.7606 21.6904 77.7788 0.890625 77.6875L0.445313 77.1942C0.204102 76.9019 0 76.5 0 76.2808C0 76.0433 3.09863 70.4346 6.88379 63.8029C10.6689 57.1712 13.8975 51.599 14.0459 51.4346C14.2314 51.2337 14.6025 51.1058 15.0107 51.1058ZM4.08203 74.6731C21.0596 74.6731 25.9766 74.6548 25.9766 74.6365C25.9766 74.6 23.6387 70.4712 20.7627 65.4471C17.9053 60.4231 15.4561 56.1115 15.3447 55.8923C15.1406 55.4904 14.6768 56.2212 9.61133 65.0635L4.08203 74.6731ZM15.0293 80.7019C15.6045 80.7019 15.9385 80.9577 20.5957 85.5433L18.4619 87.6442L17.627 86.8221C17.1631 86.3654 16.7178 86 16.6436 86C16.5693 86 16.5137 88.1375 16.5137 95.5H13.5449V85.726L11.5967 87.6442L9.44434 85.5433L11.9307 83.1317C14.1387 80.9577 14.4727 80.7019 15.0293 80.7019ZM26.7002 2.50962C26.7559 2.50962 27.8135 3.51442 29.0752 4.73846C30.3184 5.98077 31.4131 7.18654 31.4873 7.44231C31.5801 7.69808 31.6357 8.06346 31.5801 8.26442C31.543 8.46538 30.4297 9.70769 26.7002 13.3798L24.585 11.2788L26.4404 9.45192L16.6064 9.36058V6.4375L26.4404 6.34615L24.585 4.51923L25.5869 3.51442C26.1436 2.96635 26.6445 2.50962 26.7002 2.50962ZM29.4092 14.951C29.502 14.9327 29.8545 15.5173 30.8008 17.4904L29.5391 18.1663C28.8525 18.5317 27.832 19.1346 27.2754 19.4817C26.7002 19.8288 25.624 20.5596 24.8633 21.126C24.084 21.674 22.6367 22.9163 21.6348 23.8663C20.6143 24.8346 19.3154 26.2048 18.7402 26.899C18.165 27.6115 17.3115 28.7077 16.8291 29.3654C16.3652 30.0231 15.4746 31.5029 14.8623 32.6538C14.25 33.8048 13.4893 35.376 13.1738 36.125C12.8584 36.874 12.3389 38.3538 12.042 39.4135C11.7266 40.4731 11.3184 42.2452 11.0957 43.3413C10.8545 44.6567 10.6689 46.575 10.4834 52.3846H10.0195C9.75977 52.3846 9.0918 52.4577 7.55176 52.6587L7.64453 48.7308C7.71875 45.8625 7.84863 44.2548 8.12695 42.7933C8.34961 41.6971 8.73926 39.9981 8.99902 39.0481C9.25879 38.0981 9.85254 36.3625 10.3164 35.2115C10.7617 34.0606 11.5225 32.4163 11.9863 31.5577C12.4502 30.699 13.3037 29.3106 13.8604 28.4519C14.417 27.5933 15.4375 26.2048 16.1426 25.3462C16.8291 24.4875 18.2949 22.9163 19.4082 21.8567C20.5215 20.7971 22.21 19.3538 23.1934 18.6596C24.1582 17.9471 25.5684 16.9971 26.3477 16.5404C27.1084 16.0837 28.0732 15.5356 28.4814 15.3346C28.8896 15.1154 29.2979 14.951 29.4092 14.951ZM64.0879 14.9327C64.1992 14.9327 65.0342 15.3529 65.9619 15.8644C66.8711 16.376 68.2998 17.2529 69.1162 17.8192C69.9326 18.3856 71.2686 19.3904 72.085 20.0663C72.9014 20.7423 74.1074 21.8567 74.7939 22.551C75.4619 23.2269 76.501 24.3779 77.0947 25.0721C77.6885 25.7846 78.7461 27.2096 79.4512 28.2692C80.1748 29.3288 81.1025 30.9 81.5664 31.7952C82.0117 32.6721 82.6611 34.0606 83.0137 34.901C83.3662 35.7231 83.9414 37.349 84.2939 38.5C84.6465 39.651 85.1104 41.624 85.3145 42.8846C85.5186 44.1452 85.7412 45.8077 85.9082 48H82.9395L82.8467 47.2327C82.791 46.7942 82.7168 45.9538 82.6426 45.351C82.5869 44.7481 82.3643 43.3962 82.1602 42.3365C81.9561 41.2769 81.4551 39.4317 81.0469 38.226C80.6387 37.0202 79.8223 35.0471 79.2285 33.8413C78.6348 32.6356 77.5771 30.8269 76.8906 29.8221C76.2041 28.8173 75.1279 27.374 74.4785 26.625C73.8477 25.876 72.6602 24.6337 71.8623 23.8846C71.0645 23.1173 69.8584 22.076 69.209 21.5827C68.541 21.0712 67.3721 20.2308 66.6113 19.7375C65.832 19.226 64.793 18.6048 64.292 18.349C63.7725 18.0933 63.1973 17.7827 63.0117 17.6365C62.6963 17.4173 62.6963 17.3442 63.2715 16.175C63.6055 15.4808 63.9766 14.9327 64.0879 14.9327ZM87.3926 19.8654H90.5469L90.5283 29.4567L92.4023 27.6298L94.5361 29.7308L92.0684 32.1423C89.8789 34.3163 89.5635 34.5538 88.9697 34.5721C88.376 34.5721 88.0977 34.3529 83.4033 29.7308L85.5186 27.6298L87.3926 29.4567V19.8654ZM43.3252 30.626L45.7744 33.0558C47.7227 34.974 48.2236 35.5952 48.2422 35.9971C48.2422 36.2712 47.5371 37.8971 45.0879 42.7019L43.7891 42.0625C43.0654 41.7154 42.4902 41.3865 42.4902 41.3317C42.4902 41.2769 42.8242 40.5827 43.2324 39.7788C43.6406 38.975 43.9746 38.2442 43.9746 38.1346C43.9746 38.025 43.6406 38.0798 43.1768 38.226C42.75 38.3904 42.0264 38.7375 41.5625 38.9933C41.0986 39.249 40.3193 39.8154 39.8184 40.2173C39.3174 40.6375 38.501 41.5875 38 42.3365C37.499 43.0856 36.9238 44.2 36.7383 44.8029C36.5527 45.4058 36.3301 46.5202 36.2559 47.2692C36.1631 48.3106 36.2002 48.9865 36.46 50.101C36.6455 50.9048 37.0908 52.1471 37.4619 52.8413C37.833 53.5538 38.5752 54.5587 39.1504 55.1433C39.707 55.6913 40.4492 56.349 41.4326 57.0433L40.709 58.2856C40.3008 58.9615 39.9482 59.5096 39.8926 59.5096C39.8369 59.5096 39.2617 59.1077 38.5938 58.6144C37.9258 58.1394 37.0352 57.3356 36.6084 56.8423C36.1816 56.349 35.5322 55.4538 35.1611 54.851C34.8086 54.2481 34.3076 53.225 34.0479 52.5673C33.8066 51.9096 33.5098 50.9413 33.417 50.4298C33.3057 49.9 33.2129 48.8038 33.2129 48C33.2129 47.1962 33.3242 45.9356 33.4912 45.2231C33.6396 44.4923 34.1406 43.1587 34.5859 42.2452C35.0498 41.3135 35.8848 40.0712 36.4971 39.3769C37.0908 38.6827 38.0371 37.8058 38.5938 37.3856C39.1504 36.9837 40.0781 36.4173 40.6348 36.1433C41.1914 35.851 41.9893 35.5221 42.3975 35.3942C42.8057 35.2663 43.1953 35.1202 43.2695 35.0471C43.3438 34.9923 42.917 34.4442 41.1914 32.7452L43.3252 30.626ZM53.5303 36.4904C53.5859 36.4904 54.0127 36.7462 54.4951 37.075C54.9775 37.4038 55.8867 38.1712 56.499 38.7923C57.1113 39.4135 57.8721 40.3635 58.2061 40.8933C58.54 41.4413 59.0225 42.3731 59.2637 42.976C59.5234 43.5788 59.8574 44.7298 60.043 45.5337C60.2656 46.575 60.3213 47.4702 60.2471 48.7308C60.1729 49.8452 59.9688 50.9779 59.6719 51.9279C59.4121 52.7317 58.874 53.901 58.4844 54.5404C58.1133 55.1798 57.3711 56.1846 56.8701 56.7692C56.3506 57.3538 55.5527 58.1029 55.1074 58.45C54.6436 58.7971 53.7158 59.3817 53.0664 59.7288C52.3984 60.0942 51.5264 60.4779 51.1182 60.6058C50.71 60.7337 50.2832 60.8615 50.1904 60.9163C50.0791 60.9712 50.5244 61.5192 52.3242 63.2548L50.1904 65.3558L47.7412 62.926C45.793 61.0077 45.2734 60.4048 45.2734 60.0029C45.2734 59.7288 45.9785 58.1029 48.4277 53.2981L49.7266 53.9375C50.4316 54.2846 51.0254 54.6135 51.0254 54.6683C51.0254 54.7048 50.6914 55.4173 50.2832 56.2212C49.875 57.025 49.541 57.7558 49.541 57.8654C49.541 57.9567 49.9678 57.8654 50.5059 57.6644C51.0439 57.4452 52.0273 56.9154 52.6953 56.4769C53.3447 56.0567 54.1982 55.3442 54.5693 54.9058C54.9219 54.4673 55.4414 53.7913 55.7197 53.3894C55.998 52.9875 56.4248 52.0375 56.7031 51.2885C57.0928 50.1923 57.1855 49.5529 57.2041 48.0913C57.2227 46.6846 57.1299 45.9538 56.833 44.9856C56.5918 44.2183 56.0352 43.1038 55.4414 42.2452C54.792 41.2769 54.0684 40.4913 53.2891 39.925C52.6582 39.4317 52.1201 38.9933 52.1016 38.9385C52.083 38.8654 52.3799 38.299 52.751 37.6596C53.1406 37.0019 53.4932 36.4904 53.5303 36.4904ZM67.0566 79.0577C67.168 79.0577 67.5576 79.5875 67.9473 80.2452C68.3369 80.8846 68.6338 81.451 68.5967 81.4875C68.5781 81.524 68.0586 81.8712 67.4463 82.2548C66.834 82.6202 65.4424 83.3692 64.3848 83.899C63.3086 84.4288 61.6387 85.1596 60.6738 85.5433C59.6904 85.9087 57.8164 86.4933 56.499 86.8221C55.1631 87.151 52.9551 87.5711 51.582 87.7356C49.6523 87.9731 48.2422 88.0279 45.5518 87.9548C43.1025 87.8817 41.3955 87.7356 39.9854 87.4798C38.8535 87.2606 37.1465 86.8769 36.1816 86.6212C35.1982 86.3654 33.3613 85.7442 32.0996 85.2327C30.8193 84.7394 28.8525 83.8077 27.7393 83.1865C26.5332 82.5288 25.6982 81.9442 25.7168 81.7798C25.7168 81.6337 26.0322 81.049 27.0898 79.4231L27.8691 79.8798C28.3145 80.1538 29.7432 80.8846 31.0791 81.524C32.3965 82.1452 34.4004 82.949 35.5322 83.3144C36.6455 83.6615 38.3525 84.1183 39.3359 84.3192C40.3008 84.5202 41.915 84.776 42.8984 84.8856C43.9004 84.9952 45.6631 85.0865 46.8506 85.0865C48.0195 85.0865 49.9678 84.9587 51.1553 84.7942C52.3613 84.6481 54.0498 84.3558 54.9219 84.1548C55.7754 83.9538 57.2783 83.5337 58.2617 83.2231C59.2266 82.9125 61.0264 82.1817 62.251 81.6154C63.4756 81.049 65.0156 80.2269 65.6836 79.8067C66.333 79.3865 66.9639 79.0577 67.0566 79.0577Z" fill="url(#paint0_linear_1142_136)"/>
<defs>
<linearGradient id="paint0_linear_1142_136" x1="47.5" y1="0.5" x2="47.5" y2="95.5" gradientUnits="userSpaceOnUse">
<stop stop-color="#D35FFF"/>
<stop offset="1" stop-color="#7F3999"/>
</linearGradient>
</defs>
</svg>
