<svg width="50" height="52" viewBox="0 0 50 52" fill="none" xmlns="http://www.w3.org/2000/svg">
<path d="M24.7867 0.448364L0.56543 8.97244L4.39256 40.7066L24.8125 51.9296L45.3375 40.5549L49.1634 8.82161L24.7867 0.448364Z" fill="#B3B3B3"/>
<path d="M46.7474 10.6556L24.7305 3.14725V49.2481L43.1819 39.0363L46.7474 10.6556Z" fill="#8DA60D"/>
<path d="M3.28282 10.791L6.56345 39.1721L24.7305 49.2481V3.14725L3.28282 10.791Z" fill="#D7FF01"/>
<path d="M30.791 27.689L24.7305 30.5233H18.3425L15.3395 38.0337L9.75471 38.1375L24.7305 4.82111L30.791 27.689ZM30.2049 26.2621L24.7705 15.5034L20.3127 26.0769H24.7301L30.2049 26.2621Z" fill="white"/>
<path d="M24.7305 4.82111L24.7705 15.5034L29.8282 26.0851H24.7409L24.7299 30.5164L31.764 30.5233L35.0512 38.1383L40.3952 38.2372L24.7305 4.82111Z" fill="#B3B3B3"/>
</svg>
