<svg width="57" height="14" viewBox="0 0 57 14" fill="none" xmlns="http://www.w3.org/2000/svg">
<path d="M50.7847 6.56823C44.7388 11.0785 35.9542 13.473 28.4002 13.473C17.8152 13.473 8.27654 9.51984 1.0725 2.94894C0.502671 2.42977 1.01724 1.7241 1.69759 2.13276C9.48988 6.69831 19.101 9.46458 29.0437 9.46458C35.7516 9.46458 43.1214 8.05439 49.9018 5.15804C50.9137 4.69412 51.777 5.82573 50.7847 6.56823ZM53.3024 3.67303C52.5299 2.67036 48.1935 3.19069 46.2272 3.43128C45.639 3.50496 45.5469 2.98578 46.0799 2.59553C49.5346 0.145839 55.2133 0.850356 55.8752 1.66769C56.5371 2.50344 55.691 8.23858 52.4574 10.9853C51.9612 11.4124 51.4835 11.189 51.7034 10.633C52.439 8.79575 54.0748 4.65613 53.3024 3.67303Z" fill="url(#paint0_linear_1142_220)"/>
<defs>
<linearGradient id="paint0_linear_1142_220" x1="56.0846" y1="7.189" x2="0.827637" y2="7.189" gradientUnits="userSpaceOnUse">
<stop stop-color="#D7FF01"/>
<stop offset="1" stop-color="#819901"/>
</linearGradient>
</defs>
</svg>
