<svg width="56" height="13" viewBox="0 0 56 13" fill="none" xmlns="http://www.w3.org/2000/svg">
<path d="M49.9571 5.6632C43.9111 10.1735 35.1265 12.5679 27.5726 12.5679C16.9875 12.5679 7.4489 8.61481 0.244865 2.04391C-0.324966 1.52474 0.189608 0.819067 0.869951 1.22773C8.66224 5.79328 18.2734 8.55955 28.2161 8.55955C34.9239 8.55955 42.2937 7.14936 49.0742 4.25301C50.086 3.78909 50.9494 4.9207 49.9571 5.6632ZM52.4747 2.768C51.7023 1.76533 47.3658 2.28566 45.3996 2.52626C44.8114 2.59993 44.7193 2.08075 45.2523 1.69051C48.7069 -0.75919 54.3857 -0.0546733 55.0476 0.762659C55.7095 1.59841 54.8634 7.33355 51.6298 10.0802C51.1336 10.5073 50.6559 10.284 50.8757 9.72799C51.6113 7.89072 53.2472 3.7511 52.4747 2.768Z" fill="#D7FF01"/>
</svg>
