<svg width="57" height="13" viewBox="0 0 57 13" fill="none" xmlns="http://www.w3.org/2000/svg">
<path d="M50.8267 5.87921C44.7808 10.3895 35.9962 12.7839 28.4422 12.7839C17.8571 12.7839 8.31853 8.83081 1.11449 2.25992C0.544663 1.74074 1.05924 1.03507 1.73958 1.44374C9.53187 6.00929 19.143 8.77555 29.0857 8.77555C35.7936 8.77555 43.1634 7.36537 49.9438 4.46902C50.9557 4.00509 51.819 5.1367 50.8267 5.87921ZM53.3443 2.98401C52.5719 1.98134 48.2354 2.50166 46.2692 2.74226C45.681 2.81593 45.5889 2.29676 46.1219 1.90651C49.5765 -0.543187 55.2553 0.16133 55.9172 0.978663C56.5791 1.81441 55.733 7.54955 52.4994 10.2963C52.0032 10.7233 51.5255 10.5 51.7454 9.94399C52.481 8.10672 54.1168 3.96711 53.3443 2.98401Z" fill="#D7FF01" fill-opacity="0.7"/>
</svg>
