<svg width="55" height="56" viewBox="0 0 55 56" fill="none" xmlns="http://www.w3.org/2000/svg">
<g clip-path="url(#clip0_853_551)">
<path fill-rule="evenodd" clip-rule="evenodd" d="M27.3857 0.166231C52.0842 0.154773 52.7817 0.154773 53.2276 0.372481C53.4792 0.487064 53.8794 0.796439 54.1195 1.05998C54.3482 1.31206 54.6227 1.72456 54.7141 1.95373C54.8742 2.34331 54.8857 4.97873 54.8857 24.8475C54.8857 42.3214 54.8514 47.4089 54.737 47.7527C54.6684 48.0048 54.394 48.4402 54.131 48.7266C53.8261 49.078 53.483 49.3225 53.1019 49.46C52.7931 49.5631 52.4272 49.6548 52.2786 49.6548C52.0385 49.6548 52.0385 49.6777 52.4958 50.5944C52.7474 51.1214 52.9875 51.7746 53.0218 52.061C53.0676 52.3704 53.0218 52.8058 52.9304 53.1381C52.8389 53.4589 52.5873 53.9058 52.3586 54.1694C52.1299 54.4329 51.7297 54.7537 51.4667 54.8912C51.1237 55.086 50.8035 55.1548 50.3118 55.1548C49.8202 55.1548 49.4886 55.086 49.157 54.8912C48.894 54.7537 48.5052 54.4329 48.2879 54.1808C48.0707 53.9287 47.4647 52.8173 45.9667 49.7121L23.9896 49.6548C6.74636 49.6089 1.93243 49.5631 1.68087 49.4485C1.50936 49.3798 1.17775 49.1391 0.93763 48.9329C0.70894 48.7152 0.400208 48.3027 0 47.4777V24.985C0 7.48811 0.0343035 2.40061 0.148649 2.05686C0.217256 1.80477 0.491684 1.38081 0.743243 1.10581C0.994802 0.842273 1.38358 0.521439 1.60083 0.395398C2.00104 0.177689 2.35551 0.166231 27.3857 0.166231ZM2.11538 2.27456C1.84096 2.54956 1.84096 2.57248 1.82952 5.02456V7.48811H53.0561V2.56102L52.4844 1.98811H2.38981L2.11538 2.27456ZM1.82952 47.2485L2.40125 47.8214H45.052C44.7204 47.0766 44 45.5641 43.2339 43.9829C42.4678 42.4131 41.8503 41.0152 41.8503 40.8891C41.8503 40.7631 41.9189 40.5569 42.0104 40.4308C42.0904 40.3048 42.3763 40.0985 42.6393 39.9725C42.9023 39.8464 43.1195 39.7089 43.1081 39.6631C43.1081 39.6173 42.9595 39.2391 42.7651 38.8266C42.4906 38.2423 42.3763 38.1048 42.2276 38.1506C42.1133 38.1964 41.5644 38.3225 40.9927 38.4485C40.3181 38.586 39.4834 38.6662 38.5343 38.6777C37.6767 38.6777 36.7162 38.6089 36.1331 38.5058C35.5956 38.4027 34.7723 38.185 34.3035 38.0246C33.8347 37.8641 33.0915 37.5433 32.6455 37.3256C32.211 37.0964 31.5364 36.6954 31.159 36.4433C30.7817 36.1798 30.0956 35.6069 29.6268 35.1714C29.158 34.7246 28.4719 33.9454 28.0946 33.4412C27.7287 32.9371 27.1913 32.0662 26.9168 31.4933C26.6538 30.9319 26.2994 30.0266 26.1393 29.4881C25.9906 28.961 25.7963 28.0558 25.7276 27.4829C25.6362 26.8527 25.6133 25.9819 25.659 25.2256L25.7276 23.9881H4.23077L3.65904 23.4152V11.7277L4.21933 11.1548H30.5301C31.1019 11.7277 31.1019 11.7621 31.1019 13.5037C31.1019 14.4891 31.1247 15.2798 31.159 15.2798C31.1933 15.2798 31.4563 15.1308 31.7651 14.9475C32.0624 14.7641 32.6913 14.4319 33.1601 14.2141C33.6289 13.985 34.5322 13.6641 35.1611 13.4923C36.2131 13.1944 36.4647 13.1714 38.3628 13.1714C39.9407 13.16 40.6154 13.2173 41.2557 13.3662C41.7017 13.4808 42.3992 13.6871 42.7994 13.836C43.1881 13.985 43.8399 14.2714 44.2516 14.4777C44.6632 14.6839 45.3721 15.1194 45.841 15.4402C46.3098 15.761 47.1331 16.4944 47.6705 17.0558C48.2193 17.6287 48.9283 18.5339 49.2599 19.061C49.5915 19.5996 50.0146 20.4246 50.2204 20.8944C50.4148 21.3756 50.7006 22.2464 50.8607 22.8423C51.1123 23.8048 51.1466 24.16 51.1466 25.8787C51.1466 27.6089 51.1123 27.9527 50.8607 28.9152C50.7006 29.5225 50.4148 30.3933 50.2204 30.8631C50.0146 31.3444 49.5915 32.1694 49.2599 32.6964C48.9283 33.235 48.1965 34.1516 47.6247 34.7475C47.053 35.3548 46.1726 36.111 45.6237 36.4777C45.0863 36.8329 44.5374 37.1652 44.4002 37.211C44.2516 37.2454 44.1372 37.3371 44.1372 37.3944C44.1372 37.4631 44.2973 37.8183 44.4802 38.1964C44.6746 38.5746 44.8462 38.8839 44.8805 38.8839C44.9148 38.8839 45.1435 38.7808 45.395 38.6548C45.6466 38.5287 45.9667 38.4256 46.1154 38.4256C46.2526 38.4256 46.4813 38.5173 46.6185 38.6319C46.7443 38.735 47.8306 40.8548 49.0197 43.3298L51.1694 47.8329C52.3929 47.8214 52.5416 47.7756 52.7817 47.535L53.0561 47.2485V9.32144H1.82952V47.2485ZM5.48857 14.8214H12.2349C12.7037 15.2912 12.8067 15.5319 12.8067 15.7381C12.8067 15.9558 12.7037 16.1964 12.5322 16.3683L12.2464 16.6548H5.48857V18.4881H21.3825C21.8514 18.9579 21.9543 19.1985 21.9543 19.4048C21.9543 19.6225 21.8514 19.8631 21.6798 20.035L21.394 20.3214H5.48857V22.1548L26.1279 22.1662C26.6195 20.8714 27.0083 20.0579 27.317 19.5194C27.6258 18.9923 28.1975 18.1787 28.5748 17.7204L29.2723 16.8839V12.9881H5.48857V14.8214ZM34.8753 15.486C34.5322 15.6121 33.8347 15.9214 33.3316 16.185C32.8285 16.4371 32.0052 16.9871 31.5021 17.3881C30.999 17.7891 30.3015 18.4766 29.9584 18.9006C29.6154 19.336 29.1123 20.0808 28.8493 20.5506C28.5748 21.0319 28.2204 21.8225 28.0603 22.3266C27.8888 22.8308 27.683 23.6329 27.6029 24.1027C27.5229 24.5839 27.4543 25.3516 27.4428 25.8214C27.4428 26.3027 27.5229 27.1391 27.6143 27.6891C27.7058 28.2391 27.9002 29.0183 28.026 29.4079C28.1632 29.7975 28.4262 30.4277 28.6206 30.8058C28.8035 31.1839 29.1123 31.7339 29.3067 32.0089C29.501 32.2954 29.8898 32.811 30.1757 33.1433C30.473 33.4871 31.0904 34.0829 31.5707 34.461C32.0509 34.8506 32.8742 35.3777 33.4002 35.6412C33.9262 35.9048 34.6237 36.2027 34.9324 36.3058C35.2526 36.4089 35.8701 36.5808 36.3046 36.6725C36.7505 36.7641 37.6767 36.8444 38.3628 36.8444C39.0603 36.8444 39.9293 36.7871 40.3067 36.7183C40.684 36.661 41.3243 36.4891 41.736 36.3631C42.1476 36.2371 42.9137 35.9048 43.4397 35.6412C43.9657 35.3777 44.8118 34.8277 45.315 34.4152C45.8295 34.0141 46.5728 33.2579 46.973 32.7537C47.3732 32.2496 47.9449 31.3214 48.2536 30.6912C48.5624 30.061 48.9168 29.11 49.0541 28.5714C49.1798 28.0444 49.3285 27.1162 49.3628 26.5089C49.4085 25.8673 49.3742 25.0308 49.2942 24.4464C49.2141 23.9194 48.9969 23.0141 48.8139 22.4412C48.6424 21.8798 48.2536 20.9975 47.9678 20.4933C47.6705 19.9891 47.1674 19.2444 46.8243 18.8319C46.4927 18.4308 45.9667 17.8808 45.6694 17.6287C45.3607 17.3652 44.8805 16.9985 44.5946 16.8152C44.3087 16.6204 43.7027 16.2766 43.2568 16.0475C42.7994 15.8183 41.9761 15.4975 41.4272 15.3256C40.5811 15.0735 40.158 15.0162 38.7058 14.9933C37.5395 14.9589 36.7505 15.0048 36.2474 15.1079C35.8358 15.1996 35.2183 15.3714 34.8753 15.486ZM44.0572 41.336C44.0343 41.3475 44.183 41.7141 44.3888 42.1496C44.5832 42.5964 44.7661 42.9746 44.789 42.986C44.8119 42.9975 45.1892 42.8371 45.6237 42.6079L46.4241 42.2069C45.8524 40.9694 45.6351 40.6027 45.5665 40.6141C45.5094 40.6141 45.1435 40.7746 44.7661 40.9694C44.3888 41.1642 44.0686 41.3246 44.0572 41.336ZM45.658 44.6933C45.6351 44.7162 46.5042 46.5725 47.579 48.8298C48.6538 51.0871 49.6486 53.0235 49.7744 53.1266C49.9116 53.2412 50.1746 53.3329 50.3461 53.3329C50.5291 53.3329 50.7807 53.2069 50.9522 53.035C51.1351 52.8402 51.2152 52.6454 51.2037 52.4162C51.1809 52.2329 50.3004 50.2506 49.2256 48.0048C48.1622 45.7704 47.236 43.9371 47.1674 43.9371C47.1102 43.9371 46.7443 44.0975 46.3669 44.2923C45.9896 44.4871 45.6694 44.6704 45.658 44.6933ZM4.5738 3.82144C4.79106 3.82144 5.01975 3.93602 5.2027 4.1079C5.38565 4.29123 5.48857 4.53186 5.48857 4.73811C5.48857 4.95581 5.38565 5.19644 5.21414 5.36831C5.03118 5.55165 4.80249 5.65477 4.58524 5.65477C4.35655 5.65477 4.12786 5.55165 3.94491 5.36831C3.76195 5.18498 3.65904 4.96727 3.67048 4.73811C3.67048 4.53186 3.78482 4.27977 3.94491 4.1079C4.11642 3.93602 4.35655 3.82144 4.5738 3.82144ZM8.23285 3.82144C8.4501 3.82144 8.67879 3.93602 8.86175 4.1079C9.0447 4.29123 9.14761 4.53186 9.14761 4.73811C9.14761 4.95581 9.0447 5.19644 8.87318 5.36831C8.69023 5.55165 8.46154 5.65477 8.24428 5.65477C8.01559 5.65477 7.7869 5.55165 7.60395 5.36831C7.421 5.18498 7.31809 4.96727 7.32952 4.73811C7.32952 4.53186 7.44387 4.27977 7.60395 4.1079C7.77547 3.93602 8.01559 3.82144 8.23285 3.82144ZM11.8919 3.82144C12.1091 3.82144 12.3378 3.93602 12.5208 4.1079C12.7037 4.29123 12.8067 4.53186 12.8067 4.73811C12.8067 4.95581 12.7037 5.19644 12.5322 5.36831C12.3493 5.55165 12.1206 5.65477 11.9033 5.65477C11.6746 5.65477 11.4459 5.55165 11.263 5.36831C11.08 5.18498 10.9771 4.96727 10.9886 4.73811C10.9886 4.53186 11.1029 4.27977 11.263 4.1079C11.4345 3.93602 11.6746 3.82144 11.8919 3.82144ZM38.3628 16.7808C39.2661 16.7808 39.895 16.8381 40.5925 17.01C41.1299 17.136 41.9761 17.4454 42.4792 17.6975C42.9823 17.9496 43.7141 18.4079 44.1143 18.7287C44.5031 19.0381 45.1091 19.6454 45.4636 20.0694C45.8181 20.4933 46.3212 21.3069 46.5956 21.8683C46.8701 22.4412 47.1902 23.2433 47.2931 23.6444C47.4418 24.1829 47.499 24.8246 47.499 25.8787C47.499 27.0819 47.4532 27.5516 47.2474 28.2621C47.1102 28.7548 46.8358 29.4766 46.6414 29.8662C46.447 30.2558 46.1268 30.8173 45.9324 31.0923C45.738 31.3787 45.315 31.8944 45.0062 32.2266C44.6861 32.5704 44.1143 33.0631 43.737 33.3381C43.3597 33.6131 42.6965 33.9912 42.2505 34.1975C41.816 34.3923 41.0613 34.6558 40.5925 34.7819C39.9865 34.9423 39.3462 35.011 38.42 35.011C37.448 35.011 36.8649 34.9423 36.1902 34.7704C35.6871 34.6329 34.9439 34.3694 34.5322 34.1746C34.1206 33.9912 33.4802 33.6131 33.1029 33.3381C32.7256 33.0631 32.1538 32.5704 31.8451 32.2266C31.5249 31.8944 31.0904 31.3558 30.8732 31.035C30.6674 30.7256 30.3129 30.1069 30.1071 29.66C29.9012 29.2246 29.6497 28.5256 29.5353 28.1131C29.3867 27.586 29.3295 26.9558 29.341 25.8787C29.341 24.6985 29.3867 24.2173 29.5925 23.5069C29.7297 23.0141 30.0042 22.2923 30.1985 21.9027C30.3929 21.5131 30.7703 20.8714 31.0447 20.4933C31.3077 20.1152 31.8565 19.5079 32.2568 19.1412C32.657 18.786 33.3202 18.2819 33.7318 18.0527C34.1435 17.8121 34.7609 17.5027 35.104 17.3652C35.447 17.2277 36.0416 17.0444 36.4189 16.9527C36.7963 16.8725 37.6767 16.7923 38.3628 16.7808ZM35.104 19.3819C34.578 19.6454 33.9491 20.0923 33.4688 20.5506C33.0343 20.9631 32.4854 21.6277 32.2339 22.0173C31.9938 22.4069 31.6507 23.1287 31.4792 23.6214C31.2162 24.3777 31.1705 24.6985 31.1705 25.8214C31.159 26.8985 31.2048 27.311 31.422 27.9985C31.5707 28.4798 31.8909 29.2016 32.131 29.6027C32.3711 30.0152 32.8399 30.6339 33.183 30.9777C33.5146 31.31 34.0177 31.7454 34.3035 31.9402C34.5894 32.135 35.1268 32.4214 35.5042 32.5933C35.8815 32.7652 36.4761 32.9714 36.8191 33.0516C37.1622 33.1319 37.9397 33.2006 38.5343 33.1891C39.369 33.1777 39.8378 33.1089 40.5353 32.8912C41.0385 32.7308 41.7703 32.3985 42.1705 32.1579C42.5707 31.9287 43.1996 31.4131 43.5769 31.035C43.9657 30.6569 44.4459 30.0725 44.6518 29.7173C44.869 29.3735 45.1778 28.6746 45.3378 28.1704C45.5322 27.5975 45.6694 26.8985 45.7037 26.2798C45.738 25.6266 45.7037 25.0308 45.578 24.4464C45.4865 23.9766 45.1892 23.1516 44.9262 22.6131C44.5489 21.8454 44.2516 21.4444 43.5197 20.7225C42.8222 20.0235 42.3877 19.6912 41.736 19.3819C41.2672 19.1527 40.5696 18.8891 40.1923 18.786C39.7807 18.6829 39.0489 18.6141 38.3628 18.6141C37.7339 18.6256 36.9335 18.6944 36.5904 18.786C36.2474 18.8777 35.5728 19.1412 35.104 19.3819ZM4.21933 25.8214H12.2349L12.5208 26.1079C12.7037 26.2912 12.8067 26.5319 12.8067 26.7381C12.8067 26.9558 12.7037 27.1964 12.2464 27.6548H4.23077L3.94491 27.3683C3.76195 27.185 3.65904 26.9673 3.67048 26.7381C3.67048 26.5319 3.78482 26.2798 3.94491 26.1079L4.21933 25.8214ZM4.21933 29.4881H21.3825L21.6684 29.7746C21.8514 29.9579 21.9543 30.1871 21.9543 30.4048C21.9543 30.611 21.8514 30.8631 21.394 31.3214H4.23077L3.94491 31.035C3.76195 30.8516 3.65904 30.6225 3.65904 30.4048C3.67048 30.1871 3.78482 29.935 3.94491 29.7746L4.21933 29.4881ZM4.21933 33.1548H12.2349L12.5208 33.4412C12.6923 33.6131 12.8067 33.8537 12.8067 34.0714C12.8067 34.2777 12.6923 34.5183 12.2464 34.9881H4.23077L3.94491 34.7016C3.76195 34.5069 3.65904 34.2891 3.65904 34.06C3.67048 33.8537 3.77339 33.6016 3.94491 33.4298L4.21933 33.1548ZM4.21933 36.8214H25.9563L26.2422 37.1079C26.4137 37.2912 26.5281 37.5204 26.5281 37.7381C26.5281 37.9444 26.4137 38.1964 25.9678 38.6548H4.23077L3.94491 38.3683C3.76195 38.185 3.65904 37.9558 3.65904 37.7381C3.67048 37.5204 3.77339 37.2683 3.94491 37.1079L4.21933 36.8214ZM4.21933 40.4881H12.2349L12.5208 40.7746C12.6923 40.9464 12.8067 41.1871 12.8067 41.4048C12.8067 41.611 12.6923 41.8517 12.2464 42.3214H4.23077L3.94491 42.035C3.76195 41.8517 3.65904 41.6225 3.65904 41.3933C3.65904 41.1871 3.77339 40.935 3.94491 40.7631L4.21933 40.4881ZM4.21933 44.1548H34.1892L34.4751 44.4412C34.6466 44.6246 34.7609 44.8652 34.7609 45.0714C34.7609 45.2892 34.6466 45.5298 34.2006 45.9881H4.23077L3.94491 45.7016C3.76195 45.5183 3.65904 45.2892 3.65904 45.0714C3.65904 44.8537 3.77339 44.6017 3.94491 44.4412L4.21933 44.1548ZM42.0676 22.1548C42.2848 22.1548 42.5249 22.2579 42.7079 22.4412C42.9823 22.7277 42.9938 22.7277 42.9938 24.9048C42.9938 27.0589 42.9823 27.0819 42.7079 27.3683C42.5249 27.5516 42.2963 27.6548 42.079 27.6548C41.8617 27.6548 41.6216 27.5402 41.4501 27.3683C41.1642 27.0819 41.1642 27.0704 41.1642 24.8933C41.1642 22.7506 41.1757 22.7048 41.4501 22.4298C41.6216 22.2579 41.8503 22.1548 42.0676 22.1548ZM34.7495 23.9881C34.9667 23.9881 35.2069 24.0912 35.3898 24.2746C35.6528 24.5381 35.6757 24.6298 35.6757 25.8214C35.6757 27.0016 35.6528 27.0933 35.3898 27.3683C35.2069 27.5516 34.9782 27.6548 34.7609 27.6548C34.5437 27.6548 34.3035 27.5402 34.132 27.3683C33.8576 27.0933 33.8462 27.0131 33.8462 25.81C33.8462 24.6298 33.869 24.5266 34.132 24.2631C34.3035 24.0912 34.5322 23.9881 34.7495 23.9881ZM38.4085 23.9881C38.6258 23.9881 38.8659 24.0912 39.0489 24.2746C39.3118 24.5381 39.3347 24.6298 39.3347 25.8214C39.3347 27.0016 39.3118 27.0933 39.0489 27.3683C38.8659 27.5516 38.6372 27.6548 38.42 27.6548C38.2027 27.6548 37.9626 27.5402 37.7911 27.3683C37.5166 27.0933 37.5052 27.0131 37.5052 25.81C37.5052 24.6298 37.5281 24.5266 37.7911 24.2631C37.9626 24.0912 38.1913 23.9881 38.4085 23.9881Z" fill="white"/>
</g>
<defs>
<clipPath id="clip0_853_551">
<rect width="55" height="55" fill="white" transform="translate(0 0.154785)"/>
</clipPath>
</defs>
</svg>
