<svg width="65" height="65" viewBox="0 0 65 65" fill="none" xmlns="http://www.w3.org/2000/svg">
<path d="M16.53 0.579364C17.1535 0.439559 18.0824 0.248916 18.566 0.147239C19.1895 0.0201433 20.1693 -0.0179854 21.8109 0.0074337C23.2234 0.0201433 24.5722 0.12182 25.183 0.236206C25.743 0.337883 26.5701 0.515817 27.0282 0.630203C27.4863 0.744589 28.288 0.99878 28.8097 1.17671C29.3314 1.36736 30.2477 1.73594 30.8457 2.00284C31.4438 2.28245 32.36 2.76541 32.8818 3.08315C33.4035 3.4136 34.2942 4.02366 34.8541 4.44307C35.4141 4.8752 36.3557 5.70132 36.9538 6.29867C37.5519 6.89602 38.379 7.83653 38.8117 8.39575C39.2443 8.95497 39.8297 9.79381 40.1224 10.2641C40.4023 10.747 40.8477 11.5223 41.0895 12.018C41.3312 12.5009 41.7257 13.4415 41.9675 14.0769C42.2093 14.7251 42.5274 15.7165 42.6674 16.2757C42.8074 16.8349 43.011 17.8771 43.1255 18.5888C43.2909 19.6946 43.3164 21.5883 43.3164 30.4723C43.3164 36.2933 43.3545 41.0975 43.4054 41.161C43.4691 41.2119 44.8561 39.9155 46.4977 38.2887C48.7245 36.0645 49.5899 35.2892 49.8698 35.2384C50.0734 35.2002 50.4297 35.2384 50.6333 35.3273C50.8369 35.4163 51.1169 35.6197 51.2441 35.7976C51.3587 35.9628 51.4605 36.3187 51.4605 36.611C51.4605 37.1064 51.3588 37.2082 47.1035 41.471L47.0957 41.4788C44.0544 44.5291 42.6292 45.8636 42.362 45.9271C42.1584 45.9907 41.8403 46.0034 41.6621 45.978C41.4585 45.9398 39.8551 44.4401 37.0429 41.644C33.8743 38.492 32.7036 37.2592 32.6018 36.9287C32.4873 36.5856 32.5 36.3949 32.64 36.0645C32.7418 35.823 32.9327 35.5688 33.0726 35.4799C33.2126 35.3909 33.4671 35.2892 33.6453 35.2384C33.8234 35.2002 34.1034 35.2257 34.2815 35.2892C34.4597 35.3655 35.9612 36.7762 40.6441 41.4406V31.184C40.6441 24.8419 40.5932 20.4444 40.5041 19.6819C40.4405 18.9955 40.2623 17.9152 40.1096 17.2925C39.9697 16.6697 39.6897 15.7165 39.4988 15.1954C39.3079 14.6743 38.9135 13.7592 38.6208 13.1618C38.3154 12.5645 37.7809 11.624 37.3992 11.0648C37.0301 10.5055 36.3303 9.60316 35.8467 9.06936C35.3759 8.53556 34.7014 7.84924 34.3451 7.54421C34.0016 7.23918 33.3653 6.7308 32.9454 6.41306C32.5255 6.09532 31.8383 5.63777 31.4184 5.38358C30.9984 5.12939 30.2858 4.7481 29.8277 4.51933C29.3696 4.29056 28.428 3.92198 27.7281 3.6805C27.0282 3.45173 26.0102 3.17212 25.4757 3.07044C24.9285 2.95605 23.8342 2.81625 23.0579 2.7527C22.1799 2.67644 21.0601 2.67644 20.1948 2.7527C19.4058 2.81625 18.3115 2.95605 17.777 3.07044C17.2298 3.17212 16.1864 3.46444 15.4483 3.71863C14.7103 3.96011 13.705 4.36682 13.2214 4.6083C12.7379 4.86249 11.758 5.43442 11.0581 5.90468C10.3583 6.36222 9.25117 7.2646 8.58947 7.88737C7.94049 8.52285 7.06245 9.46336 6.66797 9.98445C6.27349 10.5055 5.70086 11.3444 5.39546 11.8273C5.09005 12.3103 4.6574 13.1237 4.44107 13.6067C4.21202 14.0896 3.85572 15.0174 3.63939 15.6402C3.42306 16.263 3.15583 17.2289 3.05403 17.7754C2.93951 18.3092 2.79953 19.4022 2.7359 20.1902C2.67228 21.0036 2.65955 22.2111 2.72318 23.0118C2.7868 23.787 2.92678 24.8674 3.04131 25.4266C3.15583 25.9858 3.44851 27.0407 3.70301 27.7779C3.94479 28.515 4.32655 29.4555 4.53015 29.8749C4.74648 30.2943 5.11551 30.9807 5.37001 31.4001C5.62451 31.8195 6.14624 32.5948 6.55345 33.1159C6.94793 33.637 7.72416 34.5139 8.27134 35.0731C8.83125 35.6197 9.68383 36.3695 10.1674 36.7254C10.6509 37.0813 11.3381 37.5642 11.6944 37.7803C12.038 37.9963 12.8651 38.4539 13.5268 38.7843C14.354 39.2165 14.7739 39.5088 14.8884 39.763C14.9902 39.9536 15.0666 40.2332 15.0666 40.3985C15.0666 40.551 14.952 40.8687 14.8121 41.0975C14.6339 41.3771 14.4176 41.5423 14.074 41.6186C13.8195 41.6821 13.4632 41.6948 13.285 41.644C13.1069 41.5804 12.547 41.3263 12.038 41.0721C11.5417 40.8179 10.74 40.373 10.2692 40.0934C9.78563 39.8011 8.97122 39.2292 8.44949 38.8352C7.92776 38.4412 6.96065 37.5769 6.29894 36.916C5.63724 36.2551 4.77193 35.2892 4.37745 34.7681C3.98297 34.247 3.37216 33.3319 3.01586 32.7346C2.65955 32.1372 2.18872 31.2476 1.95967 30.7646C1.74334 30.2816 1.38704 29.4174 1.19616 28.8582C0.992561 28.2989 0.712608 27.3839 0.572631 26.8246C0.432655 26.2654 0.254503 25.3503 0.165427 24.7911C0.0763508 24.2319 0 22.7957 0 21.6137C0 20.4317 0.0763508 18.9955 0.165427 18.4363C0.254503 17.8771 0.432655 16.962 0.572631 16.4028C0.712608 15.8436 1.00529 14.9031 1.22161 14.3057C1.43794 13.7084 1.88332 12.6789 2.21417 12.018C2.54503 11.3571 3.02858 10.4674 3.29581 10.048C3.56304 9.62858 4.11022 8.8533 4.5047 8.3322C4.9119 7.81111 5.77721 6.85789 6.42619 6.20971C7.0879 5.56152 7.99139 4.76081 8.44949 4.41766C8.9076 4.0745 9.6202 3.57882 10.0401 3.31192C10.4601 3.04502 11.3126 2.56206 11.9489 2.25703C12.5852 1.93929 13.6032 1.49445 14.2394 1.26568C14.8757 1.0242 15.8937 0.71917 16.53 0.579364Z" fill="white"/>
<path d="M17.8406 23.5329C20.1948 21.1689 22.3072 19.1608 22.5108 19.0718C22.7271 18.9701 23.0325 18.932 23.2106 18.9701C23.3888 19.0082 23.6688 19.1481 23.8469 19.2751C24.0251 19.4022 26.0102 21.3468 28.2625 23.6091C30.5658 25.9223 32.3982 27.8541 32.4364 28.032C32.4873 28.21 32.4873 28.5023 32.4491 28.6929C32.4109 28.8963 32.22 29.1886 32.0292 29.3665C31.8256 29.5445 31.5583 29.697 31.4184 29.7224C31.2784 29.7478 30.9984 29.7097 30.7821 29.6589C30.5276 29.5826 29.4332 28.5913 24.3559 23.5201V33.7768C24.3559 40.1188 24.4068 44.5164 24.4959 45.2789C24.5595 45.9652 24.7377 47.0329 24.8904 47.6683C25.0303 48.2911 25.323 49.2697 25.5266 49.829C25.7302 50.3882 26.1756 51.3922 26.5192 52.0531C26.8628 52.714 27.5117 53.7689 27.9571 54.4044C28.4152 55.0272 29.2551 56.0312 29.8404 56.6159C30.4258 57.2005 31.342 58.0139 31.8637 58.4079C32.3855 58.8019 33.1617 59.323 33.5816 59.5772C34.0016 59.8314 34.6633 60.1873 35.045 60.3779C35.4268 60.5686 36.203 60.899 36.7629 61.1023C37.3228 61.3057 38.2136 61.5726 38.7353 61.7124C39.257 61.8395 40.1224 62.0174 40.6441 62.0937C41.1658 62.17 42.4002 62.2335 43.38 62.2335C44.3598 62.2335 45.6832 62.1445 46.3068 62.0429C46.9303 61.9412 47.7956 61.776 48.2155 61.6616C48.6355 61.5599 49.3481 61.3311 49.8062 61.1532C50.2643 60.988 51.0023 60.6829 51.4605 60.4669C51.9186 60.2635 52.6821 59.8568 53.1783 59.5518C53.6746 59.2595 54.5272 58.6494 55.0871 58.2173C55.647 57.7724 56.5123 56.9972 57.0086 56.4888C57.5049 55.9677 58.2175 55.1161 58.612 54.5951C59.0065 54.074 59.5791 53.1843 59.8972 52.6251C60.2281 52.0658 60.7116 51.0364 60.9916 50.3373C61.2588 49.6383 61.6024 48.6088 61.7424 48.0496C61.8823 47.4904 62.0732 46.5753 62.1623 46.0161C62.2386 45.4569 62.3023 44.1986 62.3023 43.22C62.3023 42.2032 62.2132 40.945 62.0987 40.2968C61.9969 39.6613 61.7551 38.6318 61.5769 38.0091C61.3861 37.3736 61.0679 36.4585 60.8643 35.9755C60.6607 35.4799 60.2026 34.5648 59.8463 33.942C59.4773 33.3065 58.9301 32.455 58.612 32.0356C58.2939 31.6161 57.7467 30.9552 57.4031 30.574C57.0468 30.1927 56.3596 29.5064 55.8634 29.0615C55.3671 28.6167 54.5018 27.9558 53.9419 27.5872C53.382 27.2186 52.3385 26.6213 51.6259 26.2654C50.6333 25.7697 50.2643 25.5283 50.1243 25.2359C50.0225 25.0199 49.9334 24.7403 49.9334 24.6005C49.9334 24.4607 50.0225 24.1683 50.1243 23.965C50.2261 23.7489 50.5061 23.4947 50.7606 23.393C51.0278 23.2787 51.3459 23.2405 51.5623 23.2787C51.7531 23.3295 52.3512 23.5837 52.8984 23.8506C53.4329 24.1302 54.26 24.5877 54.7435 24.8674C55.2144 25.1597 56.0542 25.7443 56.6141 26.1764C57.174 26.6086 58.1157 27.4347 58.7138 28.032C59.3119 28.6294 60.139 29.5699 60.5589 30.1291C60.9916 30.6883 61.6024 31.578 61.9205 32.0991C62.2514 32.6202 62.7222 33.5099 62.9767 34.0691C63.2312 34.6283 63.613 35.5434 63.8166 36.1026C64.0074 36.6618 64.2874 37.5769 64.4274 38.1362C64.5673 38.6954 64.7455 39.6105 64.8346 40.1697C64.9237 40.7289 65 42.127 65 43.2835C65 44.4401 64.9237 45.8636 64.8346 46.4609C64.7455 47.0583 64.5546 47.9988 64.4146 48.558C64.2747 49.1172 63.9693 50.0832 63.7402 50.7186C63.5112 51.3414 63.0912 52.3327 62.7986 52.9047C62.5186 53.4893 62.035 54.3409 61.7551 54.8111C61.4624 55.2941 60.9661 56.0185 60.648 56.4379C60.3299 56.8574 59.5409 57.7343 58.9174 58.3952C58.2811 59.0434 57.3013 59.9331 56.7414 60.3779C56.1815 60.81 55.3416 61.4074 54.8708 61.6997C54.3872 61.9793 53.5347 62.4623 52.962 62.7419C52.3767 63.0342 51.3841 63.4536 50.7606 63.6824C50.137 63.9112 49.1318 64.2162 48.5337 64.356C47.9356 64.5085 46.9049 64.7119 46.2431 64.839C45.3142 64.9915 44.538 65.0296 42.9346 64.9788C41.7766 64.9406 40.3769 64.8263 39.817 64.7246C39.257 64.6229 38.3408 64.4195 37.7809 64.267C37.221 64.1272 36.3303 63.8349 35.8085 63.6316C35.2868 63.4282 34.5106 63.1105 34.0906 62.9198C33.6707 62.7292 32.8436 62.2843 32.2455 61.9285C31.6474 61.5726 30.7312 60.9625 30.2095 60.5686C29.6877 60.1746 28.7334 59.3357 28.1098 58.713C27.4863 58.0902 26.621 57.1243 26.1883 56.565C25.7557 56.0058 25.1703 55.167 24.8776 54.684C24.5977 54.2138 24.1523 53.4131 23.8978 52.9047C23.6433 52.409 23.2488 51.4685 23.0198 50.8457C22.7907 50.2102 22.4853 49.2443 22.3326 48.6851C22.1926 48.1259 21.989 47.0837 21.8745 46.3592C21.7091 45.2662 21.6836 43.3471 21.6836 34.3868C21.6836 28.515 21.6455 23.7108 21.6073 23.7108C21.5691 23.7108 20.1821 25.0453 18.5278 26.6848C16.619 28.5658 15.3974 29.6716 15.1938 29.7097C15.0157 29.7351 14.6848 29.7224 14.4685 29.6589C14.2394 29.608 13.934 29.4047 13.794 29.2013C13.6286 28.9853 13.5268 28.6675 13.5395 28.3498C13.5395 27.8548 13.6538 27.74 17.8231 23.5505L17.8406 23.5329Z" fill="white"/>
</svg>
