<svg width="95" height="95" viewBox="0 0 95 95" fill="none" xmlns="http://www.w3.org/2000/svg">
<path d="M24.1592 0.846886C25.0705 0.642555 26.4282 0.363922 27.1349 0.215318C28.0462 0.0295622 29.4783 -0.0261644 31.8774 0.0109867C33.9419 0.0295622 35.9133 0.178166 36.806 0.345346C37.6243 0.49395 38.8332 0.754008 39.5027 0.921188C40.1723 1.08837 41.344 1.45988 42.1065 1.71994C42.869 1.99857 44.2081 2.53726 45.0822 2.92734C45.9563 3.33601 47.2954 4.04188 48.0579 4.50627C48.8205 4.98923 50.1224 5.88085 50.9407 6.49385C51.759 7.12541 53.1353 8.33282 54.0094 9.20587C54.8835 10.0789 56.0924 11.4535 56.7247 12.2708C57.3571 13.0882 58.2126 14.3141 58.6404 15.0014C59.0495 15.7073 59.7005 16.8404 60.0538 17.5649C60.4072 18.2707 60.9837 19.6453 61.3371 20.5741C61.6905 21.5215 62.1554 22.9703 62.36 23.7877C62.5646 24.605 62.8622 26.1282 63.0296 27.1684C63.2713 28.7845 63.3085 31.5522 63.3085 44.5365C63.3085 53.0441 63.3643 60.0657 63.4387 60.1586C63.5317 60.2329 65.5589 58.3382 67.9581 55.9605C71.2128 52.7098 72.4775 51.5767 72.8867 51.5024C73.1842 51.4466 73.705 51.5024 74.0025 51.6324C74.3001 51.7624 74.7093 52.0596 74.8953 52.3197C75.0627 52.5612 75.2114 53.0813 75.2114 53.5085C75.2114 54.2325 75.0628 54.3814 68.8436 60.6116L68.8322 60.6229C64.3872 65.0811 62.3042 67.0315 61.9137 67.1244C61.6161 67.2173 61.1511 67.2358 60.8908 67.1987C60.5932 67.143 58.2498 64.951 54.1396 60.8644C49.5086 56.2577 47.7976 54.4559 47.6488 53.9729C47.4814 53.4714 47.5 53.1927 47.7046 52.7098C47.8534 52.3568 48.1323 51.9853 48.3369 51.8553C48.5415 51.7253 48.9135 51.5767 49.1738 51.5024C49.4342 51.4466 49.8434 51.4838 50.1038 51.5767C50.3641 51.6881 52.5587 53.75 59.4029 60.5672V45.5768C59.4029 36.3076 59.3285 29.8804 59.1983 28.7659C59.1053 27.7628 58.845 26.1839 58.6218 25.2737C58.4172 24.3635 58.008 22.9703 57.7291 22.2087C57.4501 21.4471 56.8735 20.1097 56.4458 19.2367C55.9994 18.3636 55.2183 16.989 54.6603 16.1717C54.121 15.3544 53.0981 14.0355 52.3913 13.2553C51.7032 12.4752 50.7175 11.4721 50.1968 11.0263C49.6946 10.5805 48.7647 9.83744 48.1509 9.37305C47.5372 8.90867 46.5329 8.23995 45.9191 7.86844C45.3054 7.49693 44.2639 6.93966 43.5944 6.6053C42.9248 6.27094 41.5486 5.73225 40.5256 5.37931C39.5027 5.04496 38.0149 4.63629 37.2338 4.48769C36.434 4.32051 34.8346 4.11618 33.7001 4.0233C32.4168 3.91185 30.7801 3.91185 29.5155 4.0233C28.3624 4.11618 26.7629 4.32051 25.9818 4.48769C25.1821 4.63629 23.657 5.06353 22.5783 5.43504C21.4996 5.78798 20.0303 6.38239 19.3236 6.73533C18.6169 7.10684 17.1848 7.94274 16.1619 8.63003C15.139 9.29875 13.5209 10.6176 12.5538 11.5278C11.6053 12.4566 10.322 13.8312 9.7455 14.5928C9.16895 15.3544 8.33203 16.5804 7.88567 17.2862C7.43931 17.9921 6.80697 19.1809 6.4908 19.8868C6.15603 20.5927 5.63528 21.9487 5.31911 22.8589C5.00294 23.7691 4.61237 25.1808 4.46359 25.9796C4.2962 26.7598 4.09162 28.3572 3.99863 29.5089C3.90564 30.6978 3.88704 32.4624 3.98003 33.6327C4.07302 34.7658 4.2776 36.3447 4.44499 37.162C4.61237 37.9794 5.04013 39.5211 5.4121 40.5985C5.76547 41.6759 6.32341 43.0505 6.62099 43.6635C6.93716 44.2765 7.47651 45.2796 7.84847 45.8925C8.22044 46.5055 8.98297 47.6386 9.57811 48.4002C10.1547 49.1618 11.2892 50.4436 12.0889 51.2609C12.9072 52.0596 14.1533 53.1556 14.86 53.6757C15.5668 54.1958 16.5711 54.9017 17.0918 55.2175C17.594 55.5332 18.8029 56.202 19.77 56.6849C20.9789 57.3165 21.5926 57.7437 21.76 58.1152C21.9088 58.3939 22.0204 58.8025 22.0204 59.044C22.0204 59.2669 21.853 59.7313 21.6484 60.0657C21.388 60.4743 21.0718 60.7158 20.5697 60.8273C20.1977 60.9202 19.677 60.9387 19.4166 60.8644C19.1562 60.7715 18.3379 60.4 17.594 60.0285C16.8686 59.657 15.6969 59.0069 15.0088 58.5982C14.3021 58.171 13.1118 57.3351 12.3493 56.7592C11.5867 56.1834 10.1733 54.9203 9.20615 53.9543C8.23904 52.9884 6.97435 51.5767 6.39781 50.8151C5.82126 50.0535 4.92854 48.716 4.40779 47.843C3.88704 46.9699 3.1989 45.6696 2.86413 44.9638C2.54796 44.2579 2.02721 42.9948 1.74824 42.1774C1.45067 41.3601 1.0415 40.0227 0.836923 39.2054C0.632341 38.388 0.371966 37.0506 0.241778 36.2333C0.11159 35.4159 0 33.3169 0 31.5894C0 29.8619 0.11159 27.7628 0.241778 26.9455C0.371966 26.1282 0.632341 24.7907 0.836923 23.9734C1.0415 23.1561 1.46926 21.7815 1.78543 20.9085C2.10161 20.0354 2.75255 18.5308 3.2361 17.5649C3.71966 16.5989 4.42639 15.2986 4.81695 14.6857C5.20752 14.0727 6.00724 12.9396 6.58379 12.178C7.17894 11.4164 8.44362 10.0232 9.39213 9.07585C10.3592 8.12849 11.6797 6.95823 12.3493 6.4567C13.0188 5.95516 14.0603 5.23071 14.674 4.84062C15.2878 4.45054 16.5339 3.74467 17.4638 3.29886C18.3937 2.83447 19.8816 2.18432 20.8115 1.84996C21.7414 1.49703 23.2292 1.05122 24.1592 0.846886Z" fill="url(#paint0_linear_1327_224)"/>
<path d="M26.0748 34.3943C29.5155 30.9392 32.6028 28.0043 32.9004 27.8743C33.2165 27.7257 33.6629 27.67 33.9233 27.7257C34.1836 27.7814 34.5928 27.9857 34.8532 28.1715C35.1135 28.3572 38.0149 31.1993 41.3068 34.5057C44.6731 37.8865 47.3512 40.71 47.407 40.97C47.4814 41.2301 47.4814 41.6573 47.4256 41.936C47.3698 42.2332 47.0908 42.6604 46.8119 42.9205C46.5143 43.1805 46.1237 43.4034 45.9191 43.4406C45.7146 43.4777 45.3054 43.422 44.9892 43.3477C44.6173 43.2362 43.0178 41.7874 35.5971 34.3757V49.3662C35.5971 58.6354 35.6715 65.0625 35.8017 66.177C35.8947 67.1801 36.1551 68.7404 36.3782 69.6692C36.5828 70.5794 37.0106 72.0097 37.3081 72.8271C37.6057 73.6444 38.2567 75.1119 38.7588 76.0778C39.261 77.0437 40.2095 78.5855 40.8604 79.5143C41.53 80.4245 42.7574 81.8919 43.613 82.7464C44.4685 83.6009 45.8076 84.7897 46.5701 85.3655C47.3326 85.9414 48.4671 86.703 49.0809 87.0745C49.6946 87.446 50.6617 87.9661 51.2197 88.2448C51.7776 88.5234 52.9121 89.0063 53.7304 89.3036C54.5487 89.6008 55.8506 89.9909 56.6132 90.1952C57.3757 90.3809 58.6404 90.641 59.4029 90.7524C60.1654 90.8639 61.9695 90.9568 63.4015 90.9568C64.8336 90.9568 66.7678 90.8268 67.6791 90.6781C68.5904 90.5295 69.8551 90.2881 70.4689 90.1209C71.0826 89.9723 72.1241 89.6379 72.7937 89.3779C73.4632 89.1364 74.5419 88.6906 75.2114 88.3748C75.881 88.0776 76.9969 87.4832 77.7222 87.0373C78.4475 86.6101 79.6936 85.7185 80.5119 85.0869C81.3303 84.4368 82.595 83.3037 83.3203 82.5606C84.0456 81.799 85.0871 80.5545 85.6637 79.7929C86.2402 79.0313 87.0771 77.731 87.5421 76.9137C88.0257 76.0964 88.7324 74.5917 89.1415 73.5701C89.5321 72.5484 90.0343 71.0438 90.2388 70.2265C90.4434 69.4092 90.7224 68.0717 90.8526 67.2544C90.9642 66.4371 91.0572 64.5981 91.0572 63.1678C91.0572 61.6817 90.927 59.8428 90.7596 58.8954C90.6108 57.9666 90.2574 56.462 89.9971 55.5518C89.7181 54.623 89.2531 53.2856 88.9556 52.5797C88.658 51.8553 87.9884 50.5179 87.4677 49.6077C86.9283 48.6789 86.1286 47.4343 85.6637 46.8213C85.1987 46.2083 84.399 45.2424 83.8968 44.6851C83.3761 44.1279 82.3718 43.1248 81.6464 42.4746C80.9211 41.8245 79.6564 40.8586 78.8381 40.3199C78.0198 39.7812 76.4947 38.9081 75.4532 38.388C74.0025 37.6636 73.4632 37.3106 73.2586 36.8834C73.1098 36.5676 72.9796 36.159 72.9796 35.9546C72.9796 35.7503 73.1098 35.3231 73.2586 35.0259C73.4074 34.7101 73.8166 34.3386 74.1885 34.19C74.5791 34.0228 75.0441 33.9671 75.3602 34.0228C75.6392 34.0971 76.5133 34.4686 77.313 34.8587C78.0942 35.2673 79.3031 35.9361 80.0098 36.3447C80.6979 36.772 81.9254 37.6264 82.7437 38.258C83.5621 38.8896 84.9383 40.097 85.8125 40.97C86.6866 41.8431 87.8955 43.2177 88.5092 44.035C89.1415 44.8523 90.0343 46.1526 90.4992 46.9142C90.9828 47.6758 91.6709 48.9761 92.0429 49.7934C92.4148 50.6107 92.9728 51.9482 93.2704 52.7655C93.5493 53.5828 93.9585 54.9203 94.1631 55.7376C94.3677 56.5549 94.628 57.8923 94.7582 58.7097C94.8884 59.527 95 61.5703 95 63.2607C95 64.951 94.8884 67.0315 94.7582 67.9045C94.628 68.7776 94.3491 70.1522 94.1445 70.9695C93.9399 71.7868 93.4935 73.1986 93.1588 74.1273C92.824 75.0376 92.2103 76.4864 91.7825 77.3223C91.3733 78.1768 90.6666 79.4214 90.2574 80.1087C89.8297 80.8145 89.1043 81.8734 88.6394 82.4863C88.1744 83.0993 87.0213 84.381 86.11 85.347C85.1801 86.2943 83.748 87.5946 82.9297 88.2448C82.1114 88.8763 80.8839 89.7494 80.1958 90.1766C79.489 90.5853 78.243 91.2911 77.406 91.6998C76.5505 92.127 75.0998 92.74 74.1885 93.0744C73.2772 93.4088 71.808 93.8546 70.9338 94.0589C70.0597 94.2818 68.5533 94.579 67.5861 94.7648C66.2285 94.9877 65.094 95.0434 62.7506 94.9691C61.0581 94.9134 59.0123 94.7462 58.194 94.5976C57.3757 94.449 56.0366 94.1518 55.2183 93.9289C54.4 93.7245 53.0981 93.2973 52.3356 93.0001C51.573 92.7029 50.4385 92.2385 49.8248 91.9599C49.211 91.6812 48.0022 91.0311 47.128 90.511C46.2539 89.9909 44.9148 89.0992 44.1523 88.5234C43.3898 87.9475 41.9949 86.7216 41.0836 85.8114C40.1723 84.9012 38.9076 83.4894 38.2753 82.6721C37.6429 81.8548 36.7874 80.6288 36.3596 79.9229C35.9505 79.2356 35.2995 78.0654 34.9276 77.3223C34.5556 76.5979 33.9791 75.2233 33.6443 74.3131C33.3095 73.3843 32.8632 71.9726 32.64 71.1553C32.4354 70.3379 32.1378 68.8148 31.9704 67.7559C31.7287 66.1584 31.6915 63.3535 31.6915 50.2578C31.6915 41.6759 31.6357 34.6544 31.5799 34.6544C31.5241 34.6544 29.4969 36.6048 27.0791 39.001C24.2894 41.7502 22.5039 43.3663 22.2063 43.422C21.946 43.4591 21.4624 43.4406 21.1462 43.3477C20.8115 43.2734 20.3651 42.9762 20.1605 42.679C19.9188 42.3632 19.77 41.8988 19.7886 41.4344C19.7886 40.711 19.9555 40.5433 26.0491 34.4201L26.0748 34.3943Z" fill="url(#paint1_linear_1327_224)"/>
<defs>
<linearGradient id="paint0_linear_1327_224" x1="47.5" y1="0.00012207" x2="47.5" y2="95.0001" gradientUnits="userSpaceOnUse">
<stop stop-color="#D35FFF"/>
<stop offset="1" stop-color="#7F3999"/>
</linearGradient>
<linearGradient id="paint1_linear_1327_224" x1="47.5" y1="0.00012207" x2="47.5" y2="95.0001" gradientUnits="userSpaceOnUse">
<stop stop-color="#D35FFF"/>
<stop offset="1" stop-color="#7F3999"/>
</linearGradient>
</defs>
</svg>
