<svg width="32" height="42" viewBox="0 0 42 52" fill="none" xmlns="http://www.w3.org/2000/svg">
<path fill-rule="evenodd" clip-rule="evenodd" d="M39.4172 0C40.4174 0 41.2025 0.950974 41.1148 2.05614L37.7247 44.7651C37.6629 45.5446 37.1744 46.2013 36.4962 46.4166L21.0298 51.3288C20.7233 51.4262 20.3982 51.4262 20.0917 51.3288L4.62526 46.4166C3.94708 46.2013 3.45864 45.5446 3.39677 44.7651L0.00669826 2.05614C-0.0810257 0.950974 0.704109 0 1.70427 0H39.4172ZM10.6667 31.7963C10.6135 30.7134 11.3907 29.8029 12.3683 29.8029H13.8043C14.7197 29.8029 15.4715 30.6051 15.5072 31.6197L15.5168 31.8938C15.5442 32.6746 16.002 33.3563 16.6687 33.6089L20.0098 34.8753C20.3669 35.0106 20.7545 35.0106 21.1117 34.8753L24.4843 33.597C25.1352 33.3503 25.5886 32.6937 25.6338 31.9324L25.8014 29.1081C25.8661 28.0176 25.0862 27.0936 24.1009 27.0936H16.8205C15.9129 27.0936 15.1645 26.3044 15.1186 25.2989L15.0437 23.6609C14.9944 22.5807 15.7706 21.6749 16.7457 21.6749H24.5859C25.4782 21.6749 26.2195 20.9113 26.2854 19.9241L26.3948 18.2861C26.4679 17.1901 25.686 16.2562 24.6953 16.2562H11.2976C10.4059 16.2562 9.66498 15.4936 9.59825 14.5073L9.48745 12.8692C9.41326 11.7726 10.1954 10.8374 11.1868 10.8374H29.8387C30.8216 10.8374 31.6008 11.7573 31.5396 12.8454L31.0431 21.6749L30.2566 35.9752C30.2141 36.7472 29.7519 37.4127 29.0898 37.6552L21.0949 40.5824C20.748 40.7094 20.3735 40.7094 20.0266 40.5824L12.0393 37.6579C11.3734 37.4141 10.9101 36.7426 10.8719 35.9659L10.6667 31.7963Z" fill="#D7FF01"/>
</svg>
