<svg width="42" height="52" viewBox="0 0 42 52" fill="none" xmlns="http://www.w3.org/2000/svg">
<path fill-rule="evenodd" clip-rule="evenodd" d="M39.47 0.488037C40.4701 0.488037 41.2553 1.43901 41.1675 2.54418L37.7775 45.2532C37.7156 46.0327 37.2271 46.6893 36.549 46.9047L21.0826 51.8169C20.776 51.9142 20.451 51.9142 20.1444 51.8169L4.678 46.9047C3.99981 46.6893 3.51137 46.0327 3.4495 45.2532L0.0594326 2.54418C-0.0282913 1.43901 0.756843 0.488037 1.75701 0.488037H39.47ZM10.7195 32.2843C10.6662 31.2015 11.4434 30.291 12.4211 30.291H13.857C14.7724 30.291 15.5242 31.0931 15.5599 32.1077L15.5695 32.3818C15.597 33.1627 16.0547 33.8443 16.7214 34.097L20.0625 35.3633C20.4197 35.4987 20.8073 35.4987 21.1645 35.3633L24.537 34.0851C25.1879 33.8384 25.6413 33.1818 25.6865 32.4204L25.8541 29.5961C25.9189 28.5056 25.1389 27.5816 24.1537 27.5816H16.8732C15.9656 27.5816 15.2172 26.7925 15.1713 25.7869L15.0965 24.1489C15.0471 23.0687 15.8234 22.1629 16.7984 22.1629H24.6386C25.531 22.1629 26.2722 21.3993 26.3381 20.4122L26.4475 18.7742C26.5207 17.6781 25.7388 16.7442 24.748 16.7442H11.3504C10.4586 16.7442 9.71771 15.9817 9.65099 14.9953L9.54018 13.3573C9.466 12.2606 10.2481 11.3255 11.2395 11.3255H29.8915C30.8744 11.3255 31.6535 12.2453 31.5923 13.3335L31.0959 22.1629L30.3093 36.4632C30.2669 37.2353 29.8047 37.9007 29.1425 38.1432L21.1476 41.0704C20.8007 41.1974 20.4262 41.1974 20.0793 41.0704L12.0921 38.146C11.4261 37.9021 10.9628 37.2307 10.9246 36.4539L10.7195 32.2843Z" fill="url(#paint0_linear_1142_204)"/>
<defs>
<linearGradient id="paint0_linear_1142_204" x1="20.6135" y1="0.488037" x2="20.6135" y2="51.8899" gradientUnits="userSpaceOnUse">
<stop stop-color="#D7FF01"/>
<stop offset="1" stop-color="#819901"/>
</linearGradient>
</defs>
</svg>
