<svg width="43" height="53" viewBox="0 0 43 53" fill="none" xmlns="http://www.w3.org/2000/svg">
<path fill-rule="evenodd" clip-rule="evenodd" d="M40.3059 0.799072C41.3061 0.799072 42.0912 1.75005 42.0035 2.85522L38.6134 45.5642C38.5515 46.3437 38.0631 47.0003 37.3849 47.2157L21.9185 52.1279C21.6119 52.2253 21.2869 52.2253 20.9803 52.1279L5.51393 47.2157C4.83575 47.0003 4.34731 46.3437 4.28544 45.5642L0.89537 2.85522C0.807646 1.75005 1.59278 0.799072 2.59294 0.799072H40.3059ZM11.5554 32.5954C11.5021 31.5125 12.2794 30.602 13.257 30.602H14.693C15.6083 30.602 16.3602 31.4041 16.3958 32.4187L16.4055 32.6928C16.4329 33.4737 16.8907 34.1554 17.5573 34.408L20.8984 35.6743C21.2556 35.8097 21.6432 35.8097 22.0004 35.6743L25.373 34.3961C26.0239 34.1494 26.4773 33.4928 26.5225 32.7315L26.6901 29.9072C26.7548 28.8167 25.9748 27.8927 24.9896 27.8927H17.7092C16.8015 27.8927 16.0532 27.1035 16.0072 26.098L15.9324 24.46C15.883 23.3798 16.6593 22.4739 17.6344 22.4739H25.4746C26.3669 22.4739 27.1081 21.7104 27.1741 20.7232L27.2834 19.0852C27.3566 17.9892 26.5747 17.0552 25.5839 17.0552H12.1863C11.2946 17.0552 10.5536 16.2927 10.4869 15.3063L10.3761 13.6683C10.3019 12.5716 11.0841 11.6365 12.0755 11.6365H30.7274C31.7103 11.6365 32.4894 12.5563 32.4282 13.6445L31.9318 22.4739L31.1453 36.7743C31.1028 37.5463 30.6406 38.2118 29.9784 38.4542L21.9836 41.3815C21.6367 41.5085 21.2622 41.5085 20.9153 41.3815L12.928 38.457C12.262 38.2132 11.7987 37.5417 11.7605 36.7649L11.5554 32.5954Z" fill="#D7FF01" fill-opacity="0.7"/>
</svg>
