<svg width="55" height="56" viewBox="0 0 55 56" fill="none" xmlns="http://www.w3.org/2000/svg">
<g clip-path="url(#clip0_853_555)">
<path fill-rule="evenodd" clip-rule="evenodd" d="M15.9951 0.154785H54.4629L55 0.691895V32.2739L54.7314 32.5425C54.5166 32.7681 54.3662 32.811 53.2812 32.811V48.2798H53.8721C54.3555 48.2798 54.5059 48.3228 54.7314 48.5483C55 48.8169 55 48.8384 54.9678 50.353C54.9463 51.8784 54.9463 51.8999 54.5488 52.6948C54.3018 53.2104 53.9795 53.6616 53.6357 53.9731C53.3564 54.231 52.7656 54.6069 51.5625 55.1548H3.4375L2.65332 54.8003C2.23438 54.6069 1.64355 54.231 1.36426 53.9731C1.02051 53.6616 0.698242 53.1997 0.451172 52.6948C0.0537109 51.8999 0.0537109 51.8784 0.0214844 50.353C0 48.8491 0.0107422 48.8062 0.268555 48.5483C0.483398 48.3228 0.633789 48.2798 1.71875 48.2798V39.686H1.12793C0.644531 39.686 0.494141 39.6431 0 39.1489V21.3169L0.268555 21.0483C0.483398 20.8228 0.633789 20.7798 1.71875 20.7798V11.0044L2.24512 10.4673H15.4688L15.4795 0.681152L15.7373 0.42334L15.9951 0.154785ZM17.1875 7.02979H53.2812V1.87354H17.1875V7.02979ZM17.1875 31.0923H35.5566C36.083 31.6079 36.0938 31.6831 36.0938 32.8862V34.1538L39.1553 31.0923H53.2812V8.74854H17.1875V31.0923ZM3.4375 20.7798H5.15625V14.4419L5.68262 13.9048H15.4688V12.186H3.4375V20.7798ZM6.875 20.7798H15.4688V15.6235H6.875V20.7798ZM1.71875 37.9673H15.8447L18.0469 40.1694C18.0469 38.5903 18.0791 38.4722 18.3047 38.2358L18.5732 37.9673H27.5V32.811H16.0059L15.4688 32.2739V22.4985H1.71875V37.9673ZM49.8438 46.0239L49.3174 46.561H5.69336L5.15625 46.0239V39.686H3.4375V48.2798H20.0879C20.582 48.7632 20.625 48.9136 20.625 49.4077V49.9985H34.375C34.375 48.9243 34.418 48.7632 34.6328 48.5483L34.9014 48.2798H51.5625V32.811H49.8438V46.0239ZM29.2188 39.1489L28.6924 39.686H19.7656C19.7656 42.522 19.7549 42.5864 19.4971 42.855C19.3252 43.0269 19.1211 43.1128 18.8848 43.1128C18.5732 43.1128 18.3262 42.9087 16.8115 41.394L15.0928 39.686H6.875V44.8423H48.125V32.811H39.9395C35.8574 36.8501 35.5674 37.0972 35.2559 37.0972C35.0303 37.0972 34.8154 37.0112 34.6436 36.8394C34.375 36.5708 34.375 36.5493 34.375 34.6909V32.811H29.2188V39.1489ZM1.71875 50.6108C1.71875 50.9546 1.7832 51.4272 1.84766 51.6636C1.93359 51.9214 2.19141 52.2974 2.52441 52.6304C2.84668 52.9634 3.22266 53.2212 3.49121 53.2964C3.81348 53.3931 9.47461 53.4253 27.5 53.4253C45.5254 53.4253 51.1758 53.3931 51.5088 53.2964C51.7666 53.2212 52.1426 52.9634 52.4756 52.6304C52.8086 52.2974 53.0664 51.9214 53.1523 51.6636C53.2168 51.4272 53.2812 50.9546 53.2812 50.6108V49.9985H36.0938C36.0938 51.062 36.04 51.2231 35.8252 51.4487L35.5674 51.7173H19.4434C18.9492 51.2231 18.9062 51.0728 18.9062 50.5894V49.9985H1.71875V50.6108ZM18.9062 3.58154H20.625V5.30029H18.9062V3.58154ZM22.3438 3.58154H24.0625V5.30029H22.3438V3.58154ZM25.7812 3.58154H27.5V5.30029H25.7812V3.58154ZM35.2236 10.4565C37.2646 10.4565 37.2754 10.4565 37.5439 10.7251C37.7803 10.9614 37.8125 11.0796 37.8125 12.605L38.5645 12.9272L39.209 12.3364C39.7783 11.8208 39.8965 11.7563 40.1973 11.7993C40.4766 11.8423 40.8633 12.1646 41.9697 13.2817C43.0977 14.4097 43.3877 14.7642 43.3984 15.0005C43.3984 15.2046 43.2266 15.4731 42.2168 16.5796L42.5391 17.3315H43.3447C44.0537 17.3315 44.1826 17.3638 44.4189 17.6001C44.6875 17.8687 44.6875 17.8794 44.6875 19.9097C44.6875 21.9292 44.6875 21.9507 44.4189 22.2192C44.1826 22.4556 44.0645 22.4878 42.5391 22.4878L42.2168 23.2397L42.8076 23.8843C43.2266 24.3462 43.3984 24.6147 43.3984 24.8296C43.3984 25.0552 43.0977 25.4204 41.916 26.6021C40.7451 27.7729 40.3691 28.0737 40.1436 28.0737C39.9395 28.0737 39.6602 27.8911 38.5645 26.8921L37.8125 27.2144V28.02C37.8125 28.729 37.7803 28.8579 37.5439 29.0942C37.2861 29.3628 37.2754 29.3628 35.2344 29.3628C33.1934 29.3628 33.1934 29.3628 32.9248 29.0942C32.6885 28.8579 32.6562 28.7397 32.6562 27.2144L31.9043 26.8921L31.2598 27.4829C30.6904 27.9985 30.5723 28.063 30.2607 28.02C29.9922 27.9771 29.5947 27.6548 28.4883 26.5376C27.3711 25.4204 27.0703 25.0552 27.0703 24.8296C27.0703 24.6147 27.2422 24.3462 28.252 23.2397L27.9297 22.4878H27.124C26.4043 22.4878 26.2861 22.4556 26.0498 22.2192C25.7812 21.9507 25.7812 21.9507 25.7812 19.9097C25.792 17.8901 25.792 17.8579 26.0498 17.6001C26.2754 17.3638 26.3936 17.3315 27.9297 17.3315L28.252 16.5796L27.6611 15.9351C27.2422 15.4839 27.0703 15.2046 27.0703 15.0005C27.0703 14.7642 27.3711 14.3989 28.5527 13.228C29.7236 12.0571 30.0889 11.7456 30.3252 11.7456C30.5293 11.7456 30.8086 11.9282 31.9043 12.9272L32.6562 12.605V11.7993C32.667 11.0903 32.6992 10.9507 32.9248 10.7251C33.1826 10.4565 33.1934 10.4565 35.2236 10.4565ZM34.375 12.8521C34.375 13.2817 34.3105 13.604 34.2139 13.7544C34.1172 13.8833 33.7949 14.0659 33.4834 14.1733C33.1719 14.27 32.6885 14.4634 32.4092 14.603C32.1299 14.7427 31.8076 14.8608 31.6895 14.8608C31.5713 14.8608 31.2275 14.6353 30.9268 14.356L30.3896 13.8403L29.165 15.0649C29.9492 15.9028 30.1855 16.2466 30.1855 16.3647C30.1855 16.4829 30.0674 16.8052 29.9277 17.0952C29.7881 17.3745 29.5947 17.8579 29.498 18.1694C29.4014 18.4917 29.2188 18.7925 29.0791 18.8892C28.9287 18.9966 28.585 19.0503 28.166 19.0503H27.5V20.769C28.585 20.769 28.9287 20.8335 29.0791 20.9302C29.2188 21.0269 29.4014 21.3276 29.498 21.6606C29.5947 21.9614 29.7881 22.4448 29.9277 22.7349C30.0674 23.0142 30.1855 23.3364 30.1855 23.4546C30.1855 23.5728 29.9492 23.9165 29.6699 24.2173L29.165 24.7544L30.3896 25.979C31.2275 25.1841 31.5713 24.9585 31.6895 24.9585C31.8076 24.9585 32.1299 25.0767 32.4092 25.2163C32.6885 25.356 33.1719 25.5493 33.4834 25.646C33.8057 25.7427 34.1172 25.9253 34.2139 26.0649C34.3105 26.2153 34.375 26.5483 34.375 26.978V27.644H36.0938C36.0938 26.5483 36.1475 26.2153 36.2549 26.0649C36.3408 25.9253 36.6523 25.7427 36.9746 25.646C37.2861 25.5493 37.7695 25.356 38.0488 25.2163C38.3281 25.0767 38.6611 24.9585 38.7793 24.9585C38.8975 24.9585 39.2305 25.1841 39.5312 25.4741L40.0791 25.979L41.3037 24.7544C40.5088 23.9165 40.2832 23.5728 40.2832 23.4546C40.2832 23.3364 40.3906 23.0142 40.5303 22.7349C40.6699 22.4448 40.8633 21.9614 40.96 21.6606C41.0674 21.3276 41.2393 21.0269 41.3789 20.9302C41.5293 20.8335 41.873 20.769 42.292 20.769H42.9688V19.0503C41.873 19.0503 41.5293 18.9966 41.3789 18.8892C41.2393 18.7925 41.0674 18.4917 40.96 18.1694C40.8633 17.8579 40.6699 17.3745 40.5303 17.0952C40.3906 16.8052 40.2832 16.4829 40.2832 16.3647C40.2832 16.2466 40.5088 15.9028 40.7881 15.6128L41.3037 15.0649L40.0791 13.8403C39.2305 14.6353 38.8975 14.8608 38.7793 14.8608C38.6611 14.8608 38.3281 14.7427 38.0488 14.603C37.7695 14.4634 37.2861 14.27 36.9746 14.1733C36.6523 14.0767 36.3408 13.894 36.2549 13.7651C36.1475 13.604 36.0938 13.271 36.0938 12.8521V12.1753H34.375V12.8521ZM4.29688 24.2173H6.01562V25.936H4.29688V24.2173ZM7.73438 24.2173H13.75V25.936H7.73438V24.2173ZM4.29688 27.6548H13.75V29.3735H4.29688V27.6548ZM4.29688 31.0923H13.75V32.811H4.29688V31.0923ZM4.29688 34.5298H25.7812V36.2485H4.29688V34.5298ZM35.4492 15.6558C36.0615 15.688 36.416 15.7632 36.9531 16.0103C37.3291 16.1821 37.877 16.5474 38.167 16.8052C38.5 17.1167 38.8223 17.5679 39.0801 18.0835C39.4453 18.8354 39.4775 18.9429 39.4775 19.9204C39.4775 20.8872 39.4453 20.9946 39.0801 21.7466C38.8223 22.2622 38.5 22.7134 38.167 23.0249C37.877 23.2935 37.3291 23.6479 36.9531 23.8306C36.3301 24.1206 36.1475 24.1636 35.2344 24.1636C34.3213 24.1636 34.1387 24.1206 33.5156 23.8306C33.1289 23.6479 32.5811 23.2935 32.291 23.0249C31.958 22.7134 31.6357 22.2622 31.3779 21.7466C31.0127 20.9946 30.9912 20.8872 30.9912 19.9204C30.9912 18.9966 31.0234 18.8247 31.3135 18.2017C31.4961 17.8149 31.8398 17.2778 32.0762 17.02C32.3232 16.7515 32.7959 16.3755 33.1504 16.1929C33.4941 15.9995 33.9775 15.7954 34.2139 15.731C34.4502 15.6772 34.998 15.645 35.4492 15.6558ZM33.4512 18.1372C33.1289 18.4702 32.8604 18.8462 32.7852 19.1147C32.71 19.3511 32.6562 19.7056 32.6562 19.9204C32.6562 20.1245 32.71 20.4897 32.7852 20.7261C32.8604 20.9839 33.1289 21.3599 33.4512 21.6929C33.7842 22.0259 34.1602 22.2837 34.4287 22.3589C34.665 22.4341 35.0195 22.4878 35.2344 22.4878C35.4385 22.4878 35.8037 22.4341 36.04 22.3589C36.2979 22.2837 36.6738 22.0259 37.0068 21.6929C37.3398 21.3599 37.5977 20.9839 37.6729 20.7261C37.748 20.4897 37.8018 20.1245 37.8018 19.9204C37.8018 19.7056 37.748 19.3511 37.6729 19.1147C37.5977 18.8462 37.3398 18.4702 37.0068 18.1372C36.6738 17.8042 36.2979 17.5464 36.04 17.4712C35.8037 17.396 35.417 17.3423 35.1807 17.353C34.9443 17.353 34.5791 17.4175 34.375 17.4819C34.1602 17.5464 33.752 17.8364 33.4512 18.1372Z" fill="white"/>
</g>
<defs>
<clipPath id="clip0_853_555">
<rect width="55" height="55" fill="white" transform="translate(0 0.154785)"/>
</clipPath>
</defs>
</svg>
