<svg width="65" height="65" viewBox="0 0 65 65" fill="none" xmlns="http://www.w3.org/2000/svg">
<path fill-rule="evenodd" clip-rule="evenodd" d="M32.821 0C33.0962 0 33.332 0.117647 33.8823 0.764706V7.97059L33.5285 8.32353C33.3189 8.51471 33.0306 8.67647 32.8734 8.67647C32.7031 8.69118 32.4148 8.55882 31.8514 8.08824L31.799 0.676471L32.1135 0.338235C32.2969 0.132353 32.5852 0 32.821 0V0ZM32.7031 16.3676C33.3058 16.4118 33.843 16.5441 34.2753 16.7794C34.6422 16.9706 35.2056 17.4412 35.5594 17.8235C35.9 18.2059 36.2538 18.7647 36.3455 19.0441C36.4503 19.4265 36.5551 19.5441 36.6993 19.4706C36.8041 19.4118 37.1971 19.25 37.5509 19.0882C38.0488 18.8676 38.4156 18.8088 39.0577 18.8529C39.5293 18.8971 40.1713 19.0588 40.4989 19.2059C40.8264 19.3676 41.3505 19.7647 41.6781 20.1029C42.0056 20.4265 42.3856 20.9265 42.7918 21.7353L43.5124 21.3529C44.0758 21.0588 44.4427 20.9706 45.1502 20.9853C45.8839 20.9853 46.2377 21.0735 46.9059 21.4118C47.43 21.6765 47.9409 22.0882 48.2685 22.5C48.5698 22.8676 48.9236 23.4559 49.0677 23.8235C49.3298 24.4412 49.3429 24.7941 49.356 28.8235C49.3822 32.8971 49.4084 33.3235 49.7884 35.9559C49.998 37.4853 50.2469 39.4412 50.3386 40.2941C50.4173 41.1618 50.4566 42.7647 50.4173 43.9706C50.3779 45.4559 50.2731 46.4559 50.0766 47.2794C49.9325 47.9265 49.5132 49.1176 49.1463 49.9265C48.7926 50.7353 48.1768 51.8382 47.05 53.3824V64.2647L46.408 65H23.7281L23.073 64.2647V58.4118C23.073 53.5735 23.0468 52.4412 22.8764 51.8382C22.7585 51.4412 22.4572 50.7794 22.182 50.3971C21.92 50.0147 21.0552 49.0735 20.256 48.3235C19.4699 47.5588 18.3955 46.4559 17.8976 45.8676C17.3866 45.2647 16.7577 44.3824 16.4957 43.8971C16.2336 43.4118 15.8668 42.4853 15.6702 41.8382C15.4344 41.0588 15.2903 40.2206 15.251 39.3382C15.2117 38.6176 15.2772 36.5294 15.3951 34.7059C15.5392 32.4118 15.6833 31.1029 15.8537 30.4412C15.9978 29.9118 16.3646 29.0588 16.6791 28.5441C16.9936 28.0147 17.57 27.2941 17.9631 26.9412C18.3562 26.5735 19.103 26.0588 19.6009 25.7794C20.1119 25.5147 20.8194 25.2059 21.8283 24.9118L21.9069 23.2206C21.9724 21.8824 22.051 21.3824 22.313 20.7353C22.4834 20.2941 22.8371 19.6765 23.0861 19.3676C23.335 19.0441 23.9115 18.5882 24.3832 18.3382C25.1038 17.9412 25.379 17.8676 26.2306 17.8676C27.0691 17.8676 27.3443 17.9412 28.8117 18.75L29.2441 18.1324C29.4799 17.8088 29.9385 17.3382 30.2661 17.1176C30.6067 16.8824 31.0784 16.6176 31.3274 16.5147C31.6025 16.3971 32.1528 16.3382 32.7031 16.3676V16.3676ZM30.8426 19.5441C30.6853 19.7941 30.515 20.1471 30.4757 20.3382C30.4364 20.5147 30.4233 21.5882 30.4364 22.7206L30.4757 24.7794C31.537 24.9559 32.1266 25.1618 32.4803 25.3529C32.821 25.5441 33.3582 26.0294 33.6858 26.4265C34.0133 26.8235 34.3409 27.2794 34.4326 27.4412C34.5636 27.6618 34.5898 26.9706 34.5636 23.9412C34.5374 20.3529 34.5243 20.1471 34.2622 19.75C34.105 19.5294 33.843 19.2206 33.6726 19.0735C33.5023 18.9265 33.0699 18.7647 32.7031 18.7353C32.31 18.6912 31.8645 18.75 31.6025 18.8824C31.3536 18.9853 31.0129 19.2794 30.8426 19.5441V19.5441ZM24.5666 20.9559C24.4094 21.2059 24.226 21.6324 24.1342 21.9118C24.0556 22.1912 23.9901 22.9412 23.9901 23.5735C23.9901 24.1912 24.0556 24.7353 24.1211 24.7794C24.1998 24.8235 25.1693 24.8088 26.283 24.75L28.3138 24.6324C28.3138 22.3529 28.2614 22.0147 28.0125 21.4706C27.7898 21 27.5277 20.7059 27.1215 20.4706C26.8071 20.2941 26.3747 20.1471 26.152 20.1471C25.9424 20.1618 25.5493 20.2353 25.3003 20.3382C25.0514 20.4412 24.7238 20.7206 24.5666 20.9559V20.9559ZM36.9875 22.5C36.7124 23.1471 36.6993 23.2941 36.6993 27.5C36.6993 31.7794 36.6993 31.8529 37.0006 32.5C37.2233 32.9706 37.4854 33.2647 37.8916 33.5C38.206 33.6765 38.6253 33.8235 38.8349 33.8235C39.0314 33.8235 39.3852 33.7353 39.621 33.6324C39.8438 33.5147 40.2368 33.1912 40.4727 32.8971C40.7522 32.5343 40.9182 32.1471 40.9706 31.7353C41.0099 31.3824 41.023 29.25 40.9968 26.9853C40.9575 23.0147 40.9444 22.8529 40.6692 22.3088C40.4989 22 40.1451 21.6324 39.8438 21.4706C39.5555 21.3088 39.097 21.1765 38.8349 21.1765C38.5598 21.1765 38.1012 21.3235 37.8129 21.5147C37.4592 21.7353 37.184 22.0588 36.9875 22.5ZM43.722 23.9412C43.591 24.0735 43.4076 24.3676 43.3028 24.6029C43.1586 24.9118 43.1193 25.7941 43.1193 28.5294C43.1193 31.3676 43.1586 32.1471 43.3159 32.5C43.4207 32.7353 43.7089 33.1029 43.9448 33.3088C44.1675 33.5 44.6261 33.7059 44.9536 33.75C45.4253 33.8235 45.6612 33.7794 46.1328 33.5C46.5521 33.25 46.801 32.9706 47.0238 32.5C47.2989 31.8676 47.312 31.6765 47.312 28.5588C47.312 26.6176 47.2596 25.1324 47.1679 24.8971C47.1024 24.6618 46.8404 24.2647 46.6176 24C46.3818 23.7353 45.9887 23.4559 45.7398 23.3824C45.4908 23.2941 45.2288 23.2353 45.1502 23.2353C45.0847 23.25 44.7833 23.3382 44.4951 23.4706C44.2068 23.5882 43.8662 23.7941 43.722 23.9412V23.9412ZM21.1076 27.5735C20.7801 27.7059 20.256 28 19.9284 28.2353C19.6009 28.4559 19.1161 28.9265 18.8541 29.25C18.5789 29.5882 18.2383 30.1176 18.0941 30.4412C17.95 30.7647 17.7797 31.4706 17.7011 32.0294C17.6356 32.5735 17.5176 34.2353 17.4259 35.7353C17.3342 37.2353 17.308 38.8824 17.3473 39.4118C17.3866 39.9412 17.5438 40.7647 17.688 41.25C17.8452 41.7353 18.2383 42.5882 18.592 43.1471C19.0113 43.8529 19.7712 44.7206 21.0421 45.9559C22.051 46.9412 23.1647 48.1029 23.5184 48.5441C23.8591 48.9853 24.3177 49.7059 24.5142 50.1471C24.7107 50.5882 24.9073 51.1324 24.9597 51.3529L25.0383 51.7647H45.5432C46.5914 50.2206 47.0762 49.3677 47.2989 48.8529C47.5217 48.3529 47.8361 47.4265 47.9933 46.7941C48.2554 45.8088 48.2947 45.3235 48.2947 43.0147C48.2947 41 48.2161 39.8382 47.9933 38.1618C47.823 36.9412 47.6527 35.8235 47.6265 35.6618C47.561 35.3676 47.5348 35.3824 46.8797 35.7353C46.3425 36.0294 45.9887 36.1029 45.2157 36.1029C44.3771 36.1029 44.102 36.0294 43.3814 35.6324C42.9097 35.3824 42.4249 35.0294 42.307 34.8676L42.0712 34.5588C41.2064 35.3088 40.6692 35.6618 40.3024 35.8088C39.87 36 39.3328 36.1029 38.717 36.1029C37.9178 36.1029 37.6688 36.0294 36.9875 35.6176L36.1752 35.1471C35.6642 36.0588 35.2449 36.5294 34.9043 36.7647C34.5505 37.0147 34.0395 37.2941 33.7513 37.3824C33.463 37.4706 33.2141 37.5588 33.1879 37.5588C33.1748 37.5735 33.2534 38 33.3582 38.5294C33.4761 39.0588 33.6071 40.3824 33.6595 41.4853L33.7513 43.4853C32.9782 44.3235 32.821 44.3971 32.4803 44.3382C32.2445 44.2941 31.9432 44.1177 31.8121 43.9265C31.6287 43.6765 31.5763 43.3382 31.5763 42.3529C31.5894 41.6618 31.5239 40.6471 31.4584 40.0735C31.3798 39.5 31.2356 38.75 31.1308 38.3824C31.026 38.0147 30.6853 37.3824 30.3709 36.9853C29.9778 36.4853 29.5324 36.1176 28.9559 35.8235C28.4973 35.5882 27.6718 35.3088 27.1347 35.2059C26.5975 35.1029 25.3134 35.0147 24.2915 35C22.4703 35 22.4048 34.9853 22.0903 34.6324C21.8807 34.3971 21.7628 34.1029 21.7628 33.8235C21.7628 33.5588 21.8807 33.2353 22.0903 33.0147L22.4048 32.6471C30.4364 32.6471 30.9212 32.6176 31.3929 32.3676C31.6811 32.2353 32.0742 31.8971 32.2838 31.6471C32.4803 31.3824 32.7031 30.8971 32.7817 30.5441C32.8996 30.0882 32.8996 29.7647 32.7817 29.2647C32.69 28.8971 32.4803 28.4118 32.3231 28.1618C32.1659 27.9118 31.799 27.5882 31.5108 27.4265C31.0391 27.1471 30.7116 27.1324 27.0036 27.1029C24.8025 27.1029 22.7192 27.1471 22.3523 27.2059C21.9986 27.2794 21.4352 27.4412 21.1076 27.5735V27.5735ZM34.0395 32.8088C33.8037 33.2353 33.3582 33.7647 33.0306 34.0147C32.7031 34.2647 32.2314 34.5588 31.9825 34.6765C31.537 34.8824 31.537 34.8971 31.7859 35.0882C31.9301 35.2059 32.2445 35.2941 32.4803 35.2941C32.7031 35.2941 33.0962 35.2059 33.332 35.1029C33.5547 34.9853 33.9085 34.6912 34.1181 34.4412C34.3147 34.1765 34.5112 33.75 34.5505 33.4853C34.5898 33.2353 34.5898 32.7941 34.5374 32.5294L34.4588 32.0588L34.0395 32.8088ZM25.1693 62.6324H44.9536V54.1029H25.1693V62.6324ZM7.11449 34.9118L7.42895 35.3235C7.59927 35.5441 7.7434 35.8676 7.7434 36.0588C7.7434 36.2353 7.62548 36.5735 7.21931 37.1912H0.53719L0.262044 36.7941C0.11792 36.5735 0 36.25 0 36.0882C0.0131022 35.9265 0.104818 35.6471 0.222737 35.4559C0.340657 35.2647 0.563395 35.0588 0.707519 34.9853C0.864745 34.9118 2.3715 34.8676 7.11449 34.9118V34.9118ZM57.8069 35.7206H64.4759L64.738 36.1324C64.8821 36.3529 65 36.6765 65 36.8676C65 37.0441 64.8559 37.3824 64.3711 38H57.8986L57.5842 37.6029C57.4138 37.3824 57.2566 37.0441 57.2566 36.8529C57.2435 36.6618 57.3614 36.3235 57.5186 36.1176L57.8069 35.7206ZM17.0198 4.54412C17.2163 4.54412 17.4914 4.63235 17.6356 4.73529C17.7797 4.85294 18.592 6.29412 19.4437 7.94118C20.7146 10.3971 20.9897 11.0147 20.9242 11.3382C20.8849 11.5588 20.7277 11.8824 20.5836 12.0441C20.4394 12.2059 20.1643 12.3382 19.9677 12.3382C19.7581 12.3382 19.483 12.25 19.3388 12.1324C19.1947 12.0294 18.3824 10.5882 17.5307 8.94118C16.2598 6.47059 15.9847 5.86765 16.0502 5.52941C16.0895 5.30882 16.2467 5 16.3908 4.83824C16.535 4.67647 16.8101 4.54412 17.0198 4.54412V4.54412ZM48.5961 4.91177C48.6747 4.94118 48.8188 4.98529 48.8843 4.98529C48.9629 4.98529 49.1332 5.13235 49.2774 5.30882C49.4215 5.5 49.5394 5.82353 49.5394 6.04412C49.5394 6.29412 48.9629 7.57353 48.0851 9.27941C47.2858 10.8382 46.5259 12.2353 46.408 12.3676C46.2901 12.5147 46.0673 12.6618 45.9101 12.7059C45.7398 12.7353 45.4515 12.6912 45.255 12.5735C45.0454 12.4706 44.8488 12.2647 44.7964 12.1324C44.7309 12 44.6916 11.7059 44.7047 11.4853C44.7047 11.2353 45.3205 9.92647 46.2639 8.14706C47.1548 6.45588 47.954 5.13235 48.1244 5.02941C48.2947 4.92647 48.5043 4.86765 48.5961 4.91177V4.91177ZM5.45051 17.3382C5.71256 17.3382 6.72143 17.9265 8.46402 19.0735C10.5342 20.4265 11.1238 20.8824 11.2548 21.2353C11.412 21.6029 11.412 21.7353 11.2679 22.1029C11.1631 22.3235 10.9796 22.5735 10.8617 22.6471C10.7307 22.7206 10.4818 22.7794 10.2983 22.7794C10.1149 22.7794 8.83088 22.0441 7.45515 21.1324C6.06632 20.2353 4.84781 19.4265 4.743 19.3382C4.65128 19.25 4.52026 19.0294 4.45475 18.8382C4.38924 18.6471 4.38924 18.3529 4.48095 18.1029C4.54646 17.8824 4.71679 17.6176 4.83471 17.5147C4.95263 17.4118 5.22778 17.3382 5.45051 17.3382V17.3382ZM59.8639 17.9265C59.9426 17.9265 60.1784 18.0147 60.388 18.1176C60.5846 18.2353 60.7811 18.4265 60.8466 18.5588C60.899 18.6912 60.9383 18.9559 60.9383 19.1324C60.9383 19.3235 60.8597 19.6029 60.768 19.7647C60.6632 19.9265 59.3792 20.8382 57.9117 21.7941C55.7236 23.2206 55.1734 23.5147 54.8851 23.4559C54.6755 23.3971 54.4003 23.2206 54.2562 23.0294C54.1121 22.8529 53.9942 22.5294 53.9811 22.3382C53.9811 22.1324 54.0859 21.8088 54.2169 21.6324C54.3479 21.4412 55.6319 20.5294 57.0732 19.6029C58.5144 18.6765 59.7722 17.9265 59.8639 17.9265V17.9265ZM9.94457 49.3971C10.0232 49.3971 10.259 49.4853 10.4687 49.5882C10.6652 49.7059 10.8617 49.8971 10.9272 50.0294C10.9796 50.1618 11.0189 50.4265 11.0189 50.6029C11.0189 50.7941 10.9403 51.0735 10.8486 51.2353C10.7438 51.3971 9.45979 52.3088 7.99234 53.2647C5.80427 54.6912 5.25398 54.9853 4.96573 54.9265C4.7561 54.8676 4.48095 54.7059 4.33683 54.5441C4.1927 54.3824 4.07478 54.0588 4.07478 53.8382C4.06168 53.6177 4.1665 53.2941 4.29752 53.1029C4.42854 52.9265 5.71256 52.0147 7.1538 51.0882C8.59504 50.1471 9.85285 49.3971 9.94457 49.3971V49.3971ZM54.6886 50.1324C54.9113 50.1324 55.9595 50.7206 57.6366 51.8088C59.0516 52.7206 60.2832 53.5735 60.3749 53.6765C60.4535 53.7941 60.5322 54.0147 60.5453 54.1765C60.5584 54.3382 60.5715 54.5882 60.5584 54.7206C60.5584 54.8677 60.4142 55.1176 60.257 55.2794C60.0867 55.4412 59.7984 55.5735 59.6019 55.5735C59.3792 55.5735 58.2262 54.9118 56.7194 53.9412C55.3306 53.0294 54.0859 52.1912 53.968 52.0588C53.8369 51.9265 53.7059 51.6765 53.6666 51.4853C53.6273 51.3088 53.6928 50.9706 53.7976 50.7353C53.9024 50.5 54.0728 50.2647 54.1645 50.2206C54.2431 50.1912 54.4789 50.1471 54.6886 50.1324V50.1324ZM28.1566 56.6912C28.2352 56.7206 28.4056 56.75 28.5104 56.75C28.6152 56.75 28.8903 56.9412 29.1 57.1912C29.4275 57.5441 29.493 57.75 29.493 58.2941C29.493 58.8382 29.4275 59.0294 29.0476 59.4706C28.6676 59.9118 28.5235 59.9853 27.9994 59.9853C27.5146 59.9853 27.3312 59.8971 27.0298 59.5735C26.8333 59.3529 26.6368 58.9706 26.5844 58.7353C26.5451 58.4853 26.5582 58.0882 26.6237 57.8529C26.6761 57.6029 26.8333 57.2941 26.9643 57.1471C27.0953 57.0147 27.3836 56.8382 27.5932 56.7647C27.816 56.6912 28.0649 56.6471 28.1566 56.6912V56.6912Z" fill="white"/>
</svg>
