<svg width="95" height="96" viewBox="0 0 95 96" fill="none" xmlns="http://www.w3.org/2000/svg">
<path fill-rule="evenodd" clip-rule="evenodd" d="M12.2198 0.519153C13.369 0.5 13.7712 0.595766 14.7097 1.05544C15.3034 1.3619 16.0504 1.82157 16.376 2.07056C16.7016 2.33871 17.2571 3.10484 17.621 3.7752C18.253 4.9627 18.2722 5.07762 18.3871 9.69355H21.6431L22.0837 8.69758C22.3327 8.14214 22.8498 7.35685 23.2329 6.97379C23.6159 6.57157 24.4012 6.01613 24.9567 5.72883C25.8185 5.26915 26.1825 5.19254 27.5806 5.19254C29.0746 5.19254 29.3044 5.25 30.4345 5.8629C31.1048 6.22681 31.8901 6.83972 32.1966 7.20363C32.4839 7.56754 32.9052 8.27621 33.5181 9.69355H61.4819L61.9224 8.69758C62.1714 8.14214 62.6885 7.35685 63.0716 6.97379C63.4546 6.57157 64.2399 6.01613 64.7954 5.72883C65.6573 5.26915 66.0212 5.19254 67.4194 5.19254C68.9133 5.19254 69.1431 5.25 70.2732 5.8629C70.9435 6.22681 71.7288 6.83972 72.0353 7.20363C72.3226 7.56754 72.7439 8.27621 73.3568 9.69355H76.6129L76.6704 7.35685C76.7278 5.34577 76.8044 4.86694 77.2066 4.04335C77.4556 3.52621 78.0111 2.74093 78.4325 2.31956C78.8538 1.89819 79.6966 1.30444 80.3095 1.01714C81.1714 0.614919 81.6693 0.5 82.7419 0.5C83.8337 0.5 84.2933 0.595766 85.1935 1.05544C85.7873 1.3619 86.5534 1.82157 86.8599 2.07056C87.1663 2.33871 87.7409 3.10484 88.1048 3.7752C88.7369 4.9627 88.7561 5.07762 88.871 9.69355H89.9818C90.5756 9.69355 91.4183 9.80847 91.8206 9.94254C92.2419 10.0575 92.9314 10.4788 93.3528 10.8619C93.7933 11.2258 94.3296 11.9536 94.5786 12.4325C94.8085 12.9496 95 13.6966 95 14.1562C95 14.5968 94.8851 15.3054 94.7702 15.7268C94.6169 16.1865 94.1573 16.876 93.5635 17.4506C92.9889 18.0444 92.2994 18.504 91.8397 18.6573C91.4183 18.7722 90.5756 18.8871 88.871 18.8871L88.8135 21.2429C88.7561 23.503 88.7369 23.6179 88.1048 24.8054C87.7409 25.4758 87.1663 26.2419 86.8599 26.5101C86.5534 26.7591 85.8639 27.1996 85.3276 27.4677C84.5232 27.8891 84.121 27.9657 82.7419 27.9657C81.248 27.9849 81.0181 27.9274 79.8881 27.3145C79.2177 26.9506 78.4516 26.3952 78.1835 26.0696C77.9345 25.744 77.4939 25.0736 77.2258 24.5373C76.7853 23.6946 76.7278 23.3115 76.6129 18.8871H73.3568L72.8972 19.9022C72.6482 20.4385 72.1119 21.2429 71.7097 21.6452C71.3075 22.0665 70.5413 22.6028 69.0474 23.2732L68.9133 26.4909C68.8367 28.6935 68.6643 30.1875 68.3962 31.2409C68.1855 32.0837 67.7833 33.3861 67.5151 34.1139C67.0746 35.2631 67.0171 35.5887 67.3236 37.3317L68.377 37.5806C68.9516 37.7339 70.0242 38.1552 70.7712 38.5C71.6522 38.9405 72.5333 39.5726 73.3568 40.3962C74.0464 41.0665 74.87 42.1391 75.1956 42.752C75.5212 43.3649 75.9617 44.3609 76.1532 44.9355C76.4214 45.7016 76.5171 46.5444 76.5171 48C76.5171 49.628 76.4214 50.2601 76.0383 51.3518C75.7893 52.0988 75.1956 53.248 73.8931 55.1825L74.4486 56.7147C74.9083 58.0363 74.9849 58.5343 74.9849 60.2581C74.9849 61.7137 74.8891 62.5564 74.621 63.3226C74.4294 63.8972 73.9889 64.8931 73.6633 65.506C73.3377 66.1381 72.5524 67.1724 71.9204 67.8236C71.1734 68.5706 70.2732 69.2218 69.3347 69.7006C68.5494 70.1028 67.7833 70.4093 67.6683 70.4093C67.5343 70.4093 67.3811 70.6391 67.3236 70.9264C67.2661 71.2329 67.0746 71.9415 66.9022 72.5161C66.749 73.0907 66.4042 73.9526 66.1744 74.4314C65.9254 74.9103 65.4083 75.6956 65.006 76.1936C64.5847 76.6915 63.7802 77.4577 63.2056 77.9173C62.6119 78.377 61.6734 78.9516 61.0988 79.2006C60.5242 79.4496 59.6431 79.7561 58.2258 80.0816V86.498L59.2409 86.9385C59.7772 87.1875 60.5625 87.7046 60.9647 88.0877C61.3478 88.4708 61.9032 89.2561 62.1905 89.7923C62.6694 90.7117 62.7268 91.0373 62.8226 95.5H50.5645L50.622 93.1442C50.6603 91.0373 50.7177 90.7117 51.1966 89.7923C51.4839 89.2561 52.0393 88.4708 52.4415 88.0877C52.8246 87.7046 53.6099 87.1875 55.1613 86.498V80.0816L54.1653 79.8518C53.6099 79.7177 52.5564 79.3155 51.8095 78.9516C51.0625 78.5877 50.0282 77.879 49.4919 77.3619C48.9556 76.8639 48.3044 76.1361 47.5 75.1018L46.9829 75.7722C46.6956 76.1361 46.0444 76.8639 45.5081 77.3619C44.9718 77.879 43.9375 78.5877 43.1905 78.9516C42.4627 79.3155 41.3901 79.7177 39.8387 80.0816V86.498L40.8538 86.9385C41.3901 87.1875 42.1754 87.7046 42.5776 88.0877C42.9607 88.4708 43.5161 89.2561 43.8034 89.7923C44.2823 90.7117 44.3397 91.0373 44.4355 95.5H32.1774L32.2349 93.1442C32.2732 91.0373 32.3306 90.7117 32.8095 89.7923C33.0968 89.2561 33.6522 88.4708 34.0544 88.0877C34.4375 87.7046 35.2228 87.1875 36.7742 86.498V80.0816L35.7782 79.8518C35.2228 79.7177 34.246 79.3538 33.6139 79.0282C32.9819 78.7218 32.0433 78.1089 31.5071 77.6683C30.9899 77.2278 30.2046 76.4425 29.8024 75.8871C29.4002 75.3508 28.8639 74.4889 28.6149 73.9526C28.3659 73.4163 28.0403 72.5161 27.6189 70.8881L26.6038 70.6391C26.0292 70.505 25.1482 70.1986 24.6119 69.9496C24.0948 69.7006 23.1754 69.1452 22.6008 68.7046C22.0262 68.2641 21.2218 67.498 20.8004 67C20.3982 66.502 19.881 65.7167 19.6321 65.2379C19.4022 64.7591 19.0383 63.8972 18.8468 63.3226C18.5786 62.5564 18.4829 61.7137 18.4829 60.2581C18.4829 58.8024 18.5786 57.9597 18.8468 57.1935C19.0383 56.6189 19.3831 55.7954 19.5938 55.374C19.8044 54.9526 20.2258 54.2631 21.126 53.0756L20.6089 51.6391C20.3407 50.8538 20.0534 49.6089 19.9768 48.8619C19.9194 48.1149 19.9768 46.9274 20.0917 46.1804C20.2258 45.4143 20.6472 44.1502 21.0877 43.25C21.624 42.12 22.1603 41.3347 23.0413 40.4728C23.8266 39.6875 24.7268 39.0363 25.6653 38.5575C26.4506 38.1552 27.2167 37.8488 27.3508 37.8488C27.4657 37.8488 27.619 37.6189 27.6956 37.3317C27.753 37.0252 27.8488 36.5464 27.9446 36.2208C28.0403 35.7994 27.9637 35.3397 27.6189 34.497C27.37 33.8649 26.9486 32.5242 26.6804 31.5282C26.3165 30.1109 26.1825 29 25.9526 23.2732L24.995 22.8327C24.4778 22.5837 23.7117 22.0474 23.2903 21.6452C22.8881 21.2238 22.3518 20.4385 21.6431 18.8871H18.3871L18.3296 21.2429C18.2722 23.503 18.253 23.6179 17.621 24.8054C17.2571 25.4758 16.7016 26.2419 16.376 26.5101C16.0696 26.7591 15.38 27.1996 14.8438 27.4677C14.0393 27.8891 13.6371 27.9657 12.2581 27.9657C10.879 27.9657 10.4768 27.8891 9.67238 27.4677C9.15524 27.1996 8.46573 26.7591 8.14012 26.5101C7.83367 26.2419 7.25907 25.4758 6.89516 24.8054C6.2631 23.6179 6.24395 23.503 6.12903 18.8871H5.0373C4.4244 18.8871 3.58165 18.7722 3.17944 18.6381C2.75806 18.5232 2.06855 18.1018 1.64718 17.7188C1.20665 17.3548 0.670363 16.627 0.440524 16.1482C0.191532 15.631 0 14.8841 0 14.4244C0 13.9839 0.114919 13.2752 0.229839 12.8538C0.383065 12.3942 0.842742 11.7046 1.43649 11.13C2.01109 10.5363 2.7006 10.0766 3.16028 9.92339C3.58165 9.80847 4.4244 9.69355 6.12903 9.69355L6.18649 7.3377C6.24395 5.34577 6.32056 4.86694 6.72278 4.04335C6.97177 3.50706 7.52722 2.74093 7.94859 2.31956C8.36996 1.89819 9.19355 1.32359 9.76814 1.03629C10.5917 0.634073 11.1089 0.519153 12.2198 0.519153ZM9.8256 4.69456C9.59577 5.02016 9.34677 5.5756 9.28931 5.90121C9.23185 6.24597 9.19355 10.249 9.23185 14.8075C9.28931 22.8901 9.28931 23.0817 9.69153 23.6179C9.92137 23.9052 10.3427 24.3266 10.6109 24.5373C10.994 24.8246 11.4345 24.9204 12.2581 24.9204C13.0817 24.9204 13.5222 24.8246 13.9052 24.5373C14.1734 24.3266 14.5948 23.9052 14.8246 23.6179C15.2268 23.0817 15.2268 22.9476 15.2268 14.2903C15.2268 5.63306 15.2268 5.49899 14.8246 4.9627C14.5948 4.6754 14.2117 4.27319 13.9627 4.08165C13.7137 3.89012 13.0817 3.67944 12.5454 3.64113C11.9708 3.58367 11.3196 3.66028 10.9365 3.83266C10.5726 3.96673 10.0746 4.3498 9.8256 4.69456ZM80.3095 4.69456C80.0796 5.02016 79.8306 5.5756 79.7732 5.92036C79.7157 6.24597 79.6774 10.249 79.7157 14.8075C79.7732 22.8901 79.7732 23.0817 80.1754 23.6179C80.4052 23.9052 80.8266 24.3266 81.0948 24.5373C81.4778 24.8246 81.9183 24.9204 82.7419 24.9204C83.5655 24.9204 84.0061 24.8246 84.3891 24.5373C84.6573 24.3266 85.0786 23.9052 85.3085 23.6179C85.7107 23.0817 85.7107 22.9476 85.7107 14.2903C85.7107 5.63306 85.7107 5.49899 85.3085 4.9627C85.0786 4.6754 84.6956 4.27319 84.4466 4.08165C84.1976 3.89012 83.5655 3.67944 83.0292 3.64113C82.4546 3.58367 81.8034 3.66028 81.4204 3.83266C81.0564 3.96673 80.5585 4.3498 80.3095 4.69456ZM25.1482 9.29133C24.9183 9.61694 24.6502 10.1724 24.5927 10.5171C24.5353 10.8427 24.5161 12.7772 24.5544 14.8075C24.6119 18.1976 24.6502 18.5232 25.0141 19.0212C25.244 19.3085 25.6653 19.7298 25.9335 19.9405C26.3165 20.2278 26.7571 20.3236 27.5806 20.3236C28.4234 20.3236 28.8256 20.2278 29.247 19.9214C29.5343 19.6915 29.9556 19.2702 30.1663 19.002C30.5302 18.504 30.5494 18.1784 30.5494 14.2903C30.5494 10.3256 30.5302 10.0766 30.1472 9.55948C29.9173 9.27218 29.5343 8.86996 29.2853 8.67843C29.0363 8.4869 28.4042 8.27621 27.8679 8.2379C27.2933 8.18044 26.6421 8.25706 26.2591 8.42944C25.8952 8.56351 25.3972 8.94657 25.1482 9.29133ZM64.9869 9.29133C64.757 9.61694 64.4889 10.1724 64.4314 10.5171C64.374 10.8427 64.3548 12.7772 64.3931 14.8075C64.4506 18.1976 64.4889 18.5232 64.8528 19.0212C65.0827 19.3085 65.504 19.7298 65.7722 19.9405C66.1552 20.2278 66.5958 20.3236 67.4194 20.3236C68.2621 20.3236 68.6643 20.2278 69.0857 19.9214C69.373 19.6915 69.7943 19.2702 70.005 19.002C70.3689 18.504 70.3881 18.1784 70.3881 14.2903C70.3881 10.3256 70.3689 10.0766 69.9859 9.55948C69.756 9.27218 69.373 8.86996 69.124 8.67843C68.875 8.4869 68.2429 8.27621 67.7066 8.2379C67.1321 8.18044 66.4809 8.25706 66.0978 8.42944C65.7339 8.56351 65.2359 8.94657 64.9869 9.29133ZM3.06452 14.2903C3.06452 14.6542 3.2369 15.0373 3.54335 15.3438C3.94556 15.746 4.21371 15.8226 5.0756 15.8226H6.12903V12.7581C4.19456 12.7581 3.92641 12.8347 3.54335 13.2369C3.2752 13.505 3.08367 13.9264 3.06452 14.2903ZM18.3871 15.8226H21.4516V12.7581H18.3871V15.8226ZM33.7097 15.8226H61.2903V12.7581H33.7097V15.8226ZM73.5484 15.8226H76.6129V12.7581H73.5484V15.8226ZM88.871 15.8226C90.8054 15.8226 91.0736 15.746 91.4566 15.3438C91.7631 15.0565 91.9355 14.6351 91.9355 14.2903C91.9355 13.9264 91.7631 13.5433 91.4566 13.2369C91.0544 12.8347 90.7863 12.7581 89.9244 12.7581H88.871V15.8226ZM33.0776 19.9022C32.8286 20.4385 32.2732 21.2429 31.871 21.6452C31.4687 22.0665 30.6643 22.622 30.0897 22.8901L29.0554 23.3881C29.2278 28.0806 29.4002 29.8427 29.5917 30.5706C29.7641 31.2601 29.9365 31.8347 29.994 31.873C30.0323 31.8921 30.5302 31.4708 31.0857 30.9345C31.6794 30.3599 32.6946 29.6704 33.6139 29.2298C34.495 28.8085 35.7208 28.3871 36.4869 28.253C37.2722 28.1189 38.4214 28.0806 39.2258 28.1573C39.9728 28.2147 41.1411 28.4637 41.8115 28.7127C42.4627 28.9425 43.3821 29.3639 43.8609 29.6512C44.3397 29.9194 45.125 30.5323 45.6038 30.9728C46.0827 31.4325 46.6956 32.122 46.9829 32.4859L47.5 33.1562C48.3044 32.122 48.9173 31.4325 49.3962 30.9728C49.875 30.5323 50.6603 29.9194 51.1391 29.6512C51.6179 29.3639 52.5373 28.9425 53.2077 28.7127C53.8589 28.4637 55.0272 28.2147 55.7933 28.1573C56.5786 28.0806 57.7278 28.1189 58.5131 28.253C59.2792 28.3871 60.505 28.8085 61.3861 29.2298C62.2288 29.6321 63.3972 30.3982 63.9718 30.9345C64.5464 31.4708 65.0444 31.8921 65.0635 31.8538C65.0827 31.8347 65.2359 31.2601 65.4083 30.5706C65.5998 29.8427 65.7722 28.0806 65.8296 26.3569L65.9445 23.3881C64.3357 22.622 63.5504 22.0474 63.129 21.6452C62.7268 21.2238 62.1905 20.4385 61.9415 19.9022L61.4819 18.8871H33.5373L33.0776 19.9022ZM34.5907 32.1794C33.9778 32.505 33.1159 33.1754 32.6946 33.6542C32.254 34.1139 31.6603 35.0716 31.3538 35.7611C30.9325 36.6613 30.7409 37.4083 30.6643 38.5575L30.5494 40.128C29.5151 40.4345 29.0746 40.5302 28.9214 40.5302C28.7681 40.5302 28.0403 40.8175 27.2933 41.1814C26.4698 41.6028 25.627 42.1966 25.1099 42.7712C24.631 43.2883 23.999 44.2651 23.6734 44.9546C23.1754 46.0081 23.0988 46.4103 23.0796 47.8276C23.0796 48.7087 23.1946 49.8196 23.3286 50.2601L23.5585 51.0837C24.5353 50.5857 25.2823 50.2792 25.8569 50.0877C26.4315 49.8962 27.4083 49.6663 28.0212 49.5897L29.1129 49.4556V52.6159C27.3508 52.8075 26.4123 53.1139 25.6653 53.4778C24.9567 53.8417 24.0564 54.4929 23.5776 55.0292C23.0988 55.5464 22.4476 56.5232 22.1411 57.2127C21.6048 58.3236 21.5474 58.63 21.5474 60.2772C21.5474 62.001 21.5857 62.1925 22.256 63.5333C22.7157 64.4718 23.252 65.2379 23.8841 65.7933C24.3821 66.253 25.3206 66.8851 25.9526 67.1915C26.5847 67.498 27.2359 67.747 27.3891 67.747C27.5806 67.747 27.8169 67.2809 28.0978 66.3488C28.3276 65.5827 28.8639 64.4143 29.3044 63.7631C29.7258 63.1119 30.4919 62.1734 30.9899 61.6946C31.4879 61.1966 32.2732 60.5837 32.752 60.2964C33.2308 60.0282 34.131 59.6069 34.7631 59.377C35.3952 59.1472 36.4486 58.8982 37.1189 58.8024L38.3064 58.6492V61.8095C36.5444 62.001 35.6058 62.3075 34.8589 62.6714C34.1502 63.0353 33.25 63.6865 32.7712 64.2228C32.2923 64.7399 31.6411 65.7167 31.3347 66.4062C30.7984 67.5171 30.7409 67.8236 30.7409 69.4708C30.7409 71.0988 30.7984 71.4052 31.3347 72.5353C31.6411 73.2056 32.2923 74.1825 32.7712 74.6996C33.3075 75.2933 34.131 75.8679 35.0504 76.3276C36.3911 76.9788 36.5827 77.0363 38.3064 77.0363C39.9345 77.0363 40.2601 76.9597 41.371 76.4425C42.0605 76.1169 43.0373 75.4849 43.5544 75.0061C44.0907 74.5081 44.7419 73.627 45.1058 72.9184C45.4698 72.1714 45.7762 71.2137 45.8528 70.5625L45.9677 69.4708H49.0323C49.2238 71.2137 49.5302 72.1714 49.9133 72.9184C50.2772 73.627 50.9284 74.5081 51.4647 75.0061C51.9627 75.4849 52.9395 76.1169 53.629 76.4425C54.7399 76.9597 55.0655 77.0363 56.7127 77.0363C58.4173 77.0363 58.628 76.9788 59.9688 76.3276C60.8881 75.8679 61.6925 75.2933 62.248 74.6996C62.7077 74.1825 63.3589 73.2056 63.6653 72.5353C64.0867 71.6159 64.2591 70.8689 64.3357 69.7198L64.4506 68.1492C65.4849 67.8427 65.9254 67.747 66.0786 67.747C66.2319 67.747 66.9788 67.4597 67.7066 67.0958C68.5494 66.6744 69.373 66.0806 69.9093 65.506C70.3689 64.9889 71.0202 64.0121 71.3266 63.3417C71.8246 62.2692 71.9204 61.8669 71.9204 60.4688C71.9204 59.5686 71.8246 58.4577 71.6905 58.0171L71.4415 57.2127C70.4839 57.6915 69.7177 57.998 69.1431 58.1895C68.5686 58.3811 67.5917 58.6109 66.998 58.6875L65.8871 58.8407V55.6804C67.6492 55.4698 68.5877 55.1633 69.3347 54.7994C70.0625 54.4355 70.9436 53.7843 71.4415 53.248C71.9012 52.7308 72.5524 51.754 72.878 51.0837C73.3952 49.9536 73.4526 49.6472 73.4526 48.0192C73.4526 46.372 73.3952 46.0655 72.878 44.9546C72.5524 44.2651 71.9012 43.2883 71.4415 42.7712C70.9052 42.1966 70.0816 41.6028 69.2389 41.1814C68.5111 40.8175 67.7641 40.5302 67.6109 40.5302C67.4194 40.5302 67.1895 41.0091 66.9022 41.9284C66.6724 42.6946 66.1361 43.8629 65.7147 44.5141C65.2742 45.1653 64.5272 46.1038 64.0292 46.5827C63.5312 47.0806 62.7268 47.6935 62.248 47.9808C61.7692 48.249 60.8689 48.6704 60.2369 48.9002C59.6048 49.13 58.5514 49.379 57.9002 49.4748L56.6935 49.6472V46.4869C58.4556 46.2762 59.3942 45.9698 60.1411 45.6058C60.8689 45.2419 61.75 44.5907 62.248 44.0544C62.7077 43.5373 63.3589 42.5605 63.6845 41.8901C64.2016 40.7601 64.2591 40.4536 64.2591 38.8064C64.2591 37.0827 64.2208 36.8911 63.5696 35.5504C63.1099 34.631 62.5353 33.8266 61.9415 33.2712C61.4244 32.7923 60.4476 32.1603 59.7581 31.8347C58.6472 31.3175 58.3216 31.2601 56.6935 31.2601C55.0655 31.2601 54.7399 31.3175 53.629 31.8347C52.9395 32.1603 51.9627 32.7923 51.4647 33.2712C50.9284 33.7692 50.2772 34.6502 49.9133 35.378C49.5302 36.1058 49.2238 37.0635 49.1663 37.7147L49.0323 38.8256H45.9677C45.7762 37.0635 45.4698 36.1058 45.1058 35.378C44.7419 34.6502 44.0907 33.7692 43.5544 33.2712C43.0373 32.7923 42.0605 32.1603 41.371 31.8538C40.4325 31.4133 39.7812 31.2792 38.6895 31.2218C37.9042 31.2026 36.9083 31.2601 36.4869 31.3558C36.0655 31.4708 35.2228 31.8347 34.5907 32.1794ZM35.9889 90.3478C35.7974 90.5968 35.5675 91.0564 35.4526 91.3437C35.3377 91.631 35.2419 91.995 35.2419 92.1673C35.2419 92.3972 35.7208 92.4546 38.3639 92.4546H41.4667C41.2369 91.4778 41.0262 90.9798 40.8155 90.7308C40.624 90.4627 40.2601 90.0796 40.0111 89.8881C39.7621 89.6966 39.13 89.505 38.5938 89.4667C38.0575 89.4093 37.3488 89.4859 36.9849 89.62C36.6018 89.7732 36.1613 90.0988 35.9889 90.3478ZM54.376 90.3478C54.1845 90.5968 53.9546 91.0564 53.8397 91.3437C53.7248 91.631 53.629 91.995 53.629 92.1673C53.629 92.3972 54.1079 92.4546 56.751 92.4546H59.8538C59.624 91.4778 59.4133 90.9798 59.2026 90.7308C59.0111 90.4627 58.6472 90.0796 58.3982 89.8881C58.1492 89.6966 57.5171 89.505 56.9808 89.4667C56.4446 89.4093 55.7359 89.4859 55.372 89.62C54.9889 89.7732 54.5484 90.0988 54.376 90.3478ZM57.0383 34.2097C57.2107 34.2097 57.7853 34.3629 58.3216 34.5544C58.9472 34.7715 59.5218 35.1737 60.0454 35.7611C60.4667 36.2399 60.9264 36.9677 61.0605 37.3891C61.1754 37.8105 61.2903 38.4425 61.2903 38.8256C61.2903 39.1895 61.1754 39.8407 61.0605 40.2621C60.9264 40.7218 60.4476 41.3921 59.873 41.9859C59.2792 42.5796 58.6089 43.0393 58.13 43.1734C57.7087 43.3075 57.2107 43.4032 57.0383 43.4032C56.7318 43.4032 56.6935 43.2117 56.6935 41.9284C56.7127 40.4536 56.7127 40.4345 57.3256 40.1663C57.6704 39.994 58.0151 39.6492 58.13 39.3427C58.2577 38.998 58.2577 38.6468 58.13 38.2893C58.0151 37.9829 57.6704 37.6381 57.3256 37.4849C56.7127 37.1976 56.7127 37.1784 56.6935 35.7036C56.6935 34.4204 56.751 34.2097 57.0383 34.2097ZM41.4284 41.8327L42.3095 41.9667C42.7883 42.0433 43.5736 42.3115 44.0524 42.5413C44.5312 42.7903 45.1825 43.1925 45.4889 43.4607C45.8145 43.7097 46.3317 44.4375 46.6764 45.0696C47.002 45.6825 47.3276 46.6018 47.5 48.0192H44.5312L44.3206 47.1956C44.1673 46.6784 43.8417 46.1421 43.4012 45.7591C42.999 45.3952 42.4244 45.0887 41.371 44.9546L41.4284 41.8327ZM30.7026 43.3649L31.5837 43.499C32.0816 43.5756 32.8669 43.8246 33.3458 44.0736C33.8054 44.3034 34.4567 44.7056 34.7823 44.9738C35.0887 45.2419 35.625 45.9506 35.9506 46.5827C36.2954 47.1956 36.6018 48.1149 36.7933 49.5323H33.8246L33.5948 48.7087C33.4607 48.2107 33.1159 47.6744 32.6946 47.2722C32.2923 46.9083 31.7177 46.621 30.6643 46.4677L30.7026 43.3649ZM55.1996 52.5968H58.2258L58.1109 53.5161C58.0534 54.0141 57.8044 54.7994 57.5554 55.2782C57.3256 55.7571 56.9042 56.4083 56.6552 56.7147C56.3871 57.0403 55.6593 57.5575 55.0464 57.9022C54.4143 58.2278 53.495 58.5534 52.0968 58.7258V55.7571L52.9012 55.5464C53.4183 55.3931 53.9546 55.0675 54.3377 54.627C54.6825 54.2439 55.0272 53.631 55.0847 53.2671L55.1996 52.5968ZM47.5383 60.2581H50.5645L50.4496 61.1774C50.3921 61.6754 50.1431 62.4607 49.8942 62.9395C49.6643 63.4183 49.2429 64.0696 48.9939 64.376C48.7258 64.7016 47.998 65.2188 47.3851 65.5635C46.753 65.8891 45.8528 66.2147 44.4355 66.3871V63.4183L45.2399 63.2077C45.7571 63.0544 46.2933 62.7288 46.6764 62.2883C47.0212 61.9052 47.3659 61.2923 47.4234 60.9284L47.5383 60.2581ZM59.7964 60.2581H62.8226L62.7077 61.1774C62.6502 61.6754 62.4012 62.4607 62.1522 62.9395C61.9224 63.4183 61.501 64.0696 61.252 64.376C60.9839 64.7016 60.256 65.2188 59.6431 65.5635C59.0111 65.8891 58.1109 66.2147 56.6935 66.3871V63.4183L57.498 63.2077C58.0151 63.0544 58.5514 62.7288 58.9345 62.2883C59.2792 61.9052 59.624 61.2923 59.6814 60.9284L59.7964 60.2581ZM37.8851 64.874C38.2873 64.8548 38.3064 64.9123 38.3064 66.3488C38.3064 67.8236 38.3064 67.8236 37.6744 68.1109C37.3296 68.2833 36.9849 68.628 36.87 68.9345C36.7423 69.2792 36.7423 69.6304 36.87 69.9879C36.9849 70.2752 37.3296 70.6391 37.6744 70.7923C38.3064 71.0796 38.3064 71.0796 38.3064 72.5736C38.3064 73.8568 38.2681 74.0484 37.9808 74.0484C37.7893 74.0484 37.2913 73.9335 36.87 73.8185C36.4103 73.6653 35.7208 73.2056 35.1462 72.6119C34.5524 72.0373 34.0927 71.3478 33.9395 70.8881C33.8246 70.4667 33.7097 69.8155 33.7097 69.4516C33.7097 69.0877 33.8246 68.4365 33.9395 68.0151C34.0927 67.5554 34.5524 66.8659 35.1462 66.2913C35.6633 65.755 36.4103 65.2188 36.7742 65.1038C37.1381 64.9889 37.6361 64.8931 37.8851 64.874Z" fill="url(#paint0_linear_1142_135)"/>
<defs>
<linearGradient id="paint0_linear_1142_135" x1="47.5" y1="0.5" x2="47.5" y2="95.5" gradientUnits="userSpaceOnUse">
<stop stop-color="#D35FFF"/>
<stop offset="1" stop-color="#7F3999"/>
</linearGradient>
</defs>
</svg>
