<svg width="64" height="64" viewBox="0 0 64 64" fill="none" xmlns="http://www.w3.org/2000/svg">
<g clip-path="url(#clip0_1142_162)">
<path d="M62.9467 26.7676C62.777 26.6344 61.191 25.453 57.8453 25.453C56.9615 25.4569 56.0804 25.5314 55.2097 25.6762C54.5622 21.298 51.0076 19.2407 50.8432 19.1454L49.9451 18.6337L49.3537 19.4743C48.6136 20.6048 47.9596 21.7718 47.6423 23.0811C47.0432 25.581 47.4074 27.928 48.6945 29.9344C47.1385 30.7895 44.4872 30.8652 43.9833 30.8835H2.97057C1.89232 30.8848 1.01771 31.745 1.01118 32.8076C0.962882 36.3752 1.47198 40.0564 2.71602 43.4061C4.13759 47.0847 6.25363 49.7946 9.00539 51.4525C12.0887 53.3153 17.0988 54.3805 22.7786 54.3805C25.3437 54.3883 27.9048 54.1599 30.4269 53.6965C33.9331 53.0607 37.3076 51.8519 40.4092 50.1197C42.9651 48.659 45.2652 46.8014 47.222 44.6175C50.492 40.965 52.4397 36.8987 53.8886 33.2841C54.0831 33.2841 54.2776 33.2841 54.4656 33.2841C58.0463 33.2841 60.2472 31.8703 61.4612 30.6863C62.2679 29.9305 62.8984 29.0102 63.307 27.9907L63.5642 27.2492L62.9467 26.7676Z" fill="url(#paint0_linear_1142_162)"/>
<path d="M11.3485 29.5782H7.43234C6.71177 29.5782 6.12695 28.9934 6.12695 28.2728V24.3567C6.12695 23.6361 6.71177 23.0513 7.43234 23.0513H11.3485C12.0691 23.0513 12.6539 23.6361 12.6539 24.3567V28.2728C12.6539 28.9934 12.0691 29.5782 11.3485 29.5782Z" fill="url(#paint1_linear_1142_162)"/>
<path d="M19.1809 29.5782H15.2647C14.5442 29.5782 13.9594 28.9934 13.9594 28.2728V24.3567C13.9594 23.6361 14.5442 23.0513 15.2647 23.0513H19.1809C19.9015 23.0513 20.4863 23.6361 20.4863 24.3567V28.2728C20.4863 28.9934 19.9015 29.5782 19.1809 29.5782Z" fill="url(#paint2_linear_1142_162)"/>
<path d="M27.0132 29.5782H23.097C22.3764 29.5782 21.7916 28.9934 21.7916 28.2728V24.3567C21.7916 23.6361 22.3764 23.0513 23.097 23.0513H27.0132C27.7338 23.0513 28.3186 23.6361 28.3186 24.3567V28.2728C28.3186 28.9934 27.7338 29.5782 27.0132 29.5782Z" fill="url(#paint3_linear_1142_162)"/>
<path d="M34.8455 29.5782H30.9293C30.2087 29.5782 29.6239 28.9934 29.6239 28.2728V24.3567C29.6239 23.6361 30.2087 23.0513 30.9293 23.0513H34.8455C35.566 23.0513 36.1509 23.6361 36.1509 24.3567V28.2728C36.1509 28.9934 35.566 29.5782 34.8455 29.5782Z" fill="url(#paint4_linear_1142_162)"/>
<path d="M19.1809 21.7457H15.2647C14.5442 21.7457 13.9594 21.1609 13.9594 20.4403V16.5241C13.9594 15.8035 14.5442 15.2187 15.2647 15.2187H19.1809C19.9015 15.2187 20.4863 15.8035 20.4863 16.5241V20.4403C20.4863 21.1609 19.9015 21.7457 19.1809 21.7457Z" fill="url(#paint5_linear_1142_162)"/>
<path d="M27.0132 21.7457H23.097C22.3764 21.7457 21.7916 21.1609 21.7916 20.4403V16.5241C21.7916 15.8035 22.3764 15.2187 23.097 15.2187H27.0132C27.7338 15.2187 28.3186 15.8035 28.3186 16.5241V20.4403C28.3186 21.1609 27.7338 21.7457 27.0132 21.7457Z" fill="url(#paint6_linear_1142_162)"/>
<path d="M34.8455 21.7457H30.9293C30.2087 21.7457 29.6239 21.1609 29.6239 20.4403V16.5241C29.6239 15.8035 30.2087 15.2187 30.9293 15.2187H34.8455C35.566 15.2187 36.1509 15.8035 36.1509 16.5241V20.4403C36.1509 21.1609 35.566 21.7457 34.8455 21.7457Z" fill="url(#paint7_linear_1142_162)"/>
<path d="M34.8455 13.9134H30.9293C30.2087 13.9134 29.6239 13.3286 29.6239 12.608V8.6918C29.6239 7.97123 30.2087 7.38641 30.9293 7.38641H34.8455C35.566 7.38641 36.1509 7.97123 36.1509 8.6918V12.608C36.1509 13.3286 35.566 13.9134 34.8455 13.9134Z" fill="url(#paint8_linear_1142_162)"/>
<path d="M42.6779 29.5782H38.7617C38.0411 29.5782 37.4563 28.9934 37.4563 28.2728V24.3567C37.4563 23.6361 38.0411 23.0513 38.7617 23.0513H42.6779C43.3984 23.0513 43.9833 23.6361 43.9833 24.3567V28.2728C43.9833 28.9934 43.3984 29.5782 42.6779 29.5782Z" fill="url(#paint9_linear_1142_162)"/>
</g>
<defs>
<linearGradient id="paint0_linear_1142_162" x1="32.2861" y1="18.6337" x2="32.2861" y2="54.3807" gradientUnits="userSpaceOnUse">
<stop stop-color="#D7FF01"/>
<stop offset="1" stop-color="#819901"/>
</linearGradient>
<linearGradient id="paint1_linear_1142_162" x1="9.39043" y1="23.0513" x2="9.39043" y2="29.5782" gradientUnits="userSpaceOnUse">
<stop stop-color="#D7FF01"/>
<stop offset="1" stop-color="#819901"/>
</linearGradient>
<linearGradient id="paint2_linear_1142_162" x1="17.2228" y1="23.0513" x2="17.2228" y2="29.5782" gradientUnits="userSpaceOnUse">
<stop stop-color="#D7FF01"/>
<stop offset="1" stop-color="#819901"/>
</linearGradient>
<linearGradient id="paint3_linear_1142_162" x1="25.0551" y1="23.0513" x2="25.0551" y2="29.5782" gradientUnits="userSpaceOnUse">
<stop stop-color="#D7FF01"/>
<stop offset="1" stop-color="#819901"/>
</linearGradient>
<linearGradient id="paint4_linear_1142_162" x1="32.8874" y1="23.0513" x2="32.8874" y2="29.5782" gradientUnits="userSpaceOnUse">
<stop stop-color="#D7FF01"/>
<stop offset="1" stop-color="#819901"/>
</linearGradient>
<linearGradient id="paint5_linear_1142_162" x1="17.2228" y1="15.2187" x2="17.2228" y2="21.7457" gradientUnits="userSpaceOnUse">
<stop stop-color="#D7FF01"/>
<stop offset="1" stop-color="#819901"/>
</linearGradient>
<linearGradient id="paint6_linear_1142_162" x1="25.0551" y1="15.2187" x2="25.0551" y2="21.7457" gradientUnits="userSpaceOnUse">
<stop stop-color="#D7FF01"/>
<stop offset="1" stop-color="#819901"/>
</linearGradient>
<linearGradient id="paint7_linear_1142_162" x1="32.8874" y1="15.2187" x2="32.8874" y2="21.7457" gradientUnits="userSpaceOnUse">
<stop stop-color="#D7FF01"/>
<stop offset="1" stop-color="#819901"/>
</linearGradient>
<linearGradient id="paint8_linear_1142_162" x1="32.8874" y1="7.38641" x2="32.8874" y2="13.9134" gradientUnits="userSpaceOnUse">
<stop stop-color="#D7FF01"/>
<stop offset="1" stop-color="#819901"/>
</linearGradient>
<linearGradient id="paint9_linear_1142_162" x1="40.7198" y1="23.0513" x2="40.7198" y2="29.5782" gradientUnits="userSpaceOnUse">
<stop stop-color="#D7FF01"/>
<stop offset="1" stop-color="#819901"/>
</linearGradient>
<clipPath id="clip0_1142_162">
<rect width="62.6587" height="62.6587" fill="white" transform="translate(0.905396 0.859589)"/>
</clipPath>
</defs>
</svg>
