<svg width="53" height="38" viewBox="0 0 63 48" fill="none" xmlns="http://www.w3.org/2000/svg">
<path d="M62.0412 19.9079C61.8715 19.7748 60.2855 18.5934 56.9398 18.5934C56.056 18.5973 55.1749 18.6717 54.3042 18.8166C53.6567 14.4384 50.1021 12.3811 49.9376 12.2858L49.0395 11.7741L48.4482 12.6147C47.708 13.7452 47.054 14.9122 46.7368 16.2215C46.1377 18.7214 46.5019 21.0684 47.789 23.0748C46.2329 23.9299 43.5817 24.0056 43.0778 24.0238H2.06506C0.986802 24.0252 0.112191 24.8854 0.105664 25.948C0.0573642 29.5156 0.566466 33.1968 1.8105 36.5465C3.23207 40.225 5.34811 42.935 8.09988 44.5929C11.1832 46.4557 16.1933 47.5209 21.8731 47.5209C24.4381 47.5287 26.9993 47.3003 29.5213 46.8369C33.0276 46.2011 36.4021 44.9923 39.5037 43.2601C42.0596 41.7994 44.3597 39.9418 46.3165 37.7579C49.5865 34.1054 51.5341 30.0391 52.9831 26.4245C53.1776 26.4245 53.3721 26.4245 53.5601 26.4245C57.1408 26.4245 59.3417 25.0107 60.5557 23.8267C61.3624 23.0709 61.9929 22.1506 62.4015 21.1311L62.6587 20.3896L62.0412 19.9079Z" fill="#D7FF01"/>
<path d="M10.443 22.7186H6.52682C5.80625 22.7186 5.22143 22.1338 5.22143 21.4132V17.4971C5.22143 16.7765 5.80625 16.1917 6.52682 16.1917H10.443C11.1636 16.1917 11.7484 16.7765 11.7484 17.4971V21.4132C11.7484 22.1338 11.1636 22.7186 10.443 22.7186Z" fill="#D7FF01"/>
<path d="M18.2754 22.7186H14.3592C13.6387 22.7186 13.0538 22.1338 13.0538 21.4132V17.4971C13.0538 16.7765 13.6387 16.1917 14.3592 16.1917H18.2754C18.996 16.1917 19.5808 16.7765 19.5808 17.4971V21.4132C19.5808 22.1338 18.996 22.7186 18.2754 22.7186Z" fill="#D7FF01"/>
<path d="M26.1077 22.7186H22.1915C21.471 22.7186 20.8862 22.1338 20.8862 21.4132V17.4971C20.8862 16.7765 21.471 16.1917 22.1915 16.1917H26.1077C26.8283 16.1917 27.4131 16.7765 27.4131 17.4971V21.4132C27.4131 22.1338 26.8283 22.7186 26.1077 22.7186Z" fill="#D7FF01"/>
<path d="M33.9399 22.7186H30.0237C29.3032 22.7186 28.7184 22.1338 28.7184 21.4132V17.4971C28.7184 16.7765 29.3032 16.1917 30.0237 16.1917H33.9399C34.6605 16.1917 35.2453 16.7765 35.2453 17.4971V21.4132C35.2453 22.1338 34.6605 22.7186 33.9399 22.7186Z" fill="#D7FF01"/>
<path d="M18.2754 14.8861H14.3592C13.6387 14.8861 13.0538 14.3013 13.0538 13.5807V9.66452C13.0538 8.94395 13.6387 8.35913 14.3592 8.35913H18.2754C18.996 8.35913 19.5808 8.94395 19.5808 9.66452V13.5807C19.5808 14.3013 18.996 14.8861 18.2754 14.8861Z" fill="#D7FF01"/>
<path d="M26.1077 14.8861H22.1915C21.471 14.8861 20.8862 14.3013 20.8862 13.5807V9.66452C20.8862 8.94395 21.471 8.35913 22.1915 8.35913H26.1077C26.8283 8.35913 27.4131 8.94395 27.4131 9.66452V13.5807C27.4131 14.3013 26.8283 14.8861 26.1077 14.8861Z" fill="#D7FF01"/>
<path d="M33.9399 14.8861H30.0237C29.3032 14.8861 28.7184 14.3013 28.7184 13.5807V9.66452C28.7184 8.94395 29.3032 8.35913 30.0237 8.35913H33.9399C34.6605 8.35913 35.2453 8.94395 35.2453 9.66452V13.5807C35.2453 14.3013 34.6605 14.8861 33.9399 14.8861Z" fill="#D7FF01"/>
<path d="M33.9399 7.05378H30.0237C29.3032 7.05378 28.7184 6.46896 28.7184 5.74839V1.83222C28.7184 1.11164 29.3032 0.526825 30.0237 0.526825H33.9399C34.6605 0.526825 35.2453 1.11164 35.2453 1.83222V5.74839C35.2453 6.46896 34.6605 7.05378 33.9399 7.05378Z" fill="#D7FF01"/>
<path d="M41.7723 22.7186H37.8562C37.1356 22.7186 36.5508 22.1338 36.5508 21.4132V17.4971C36.5508 16.7765 37.1356 16.1917 37.8562 16.1917H41.7723C42.4929 16.1917 43.0777 16.7765 43.0777 17.4971V21.4132C43.0777 22.1338 42.4929 22.7186 41.7723 22.7186Z" fill="#D7FF01"/>
</svg>
