<svg width="63" height="63" viewBox="0 0 63 63" fill="none" xmlns="http://www.w3.org/2000/svg">
<g clip-path="url(#clip0_815_3)">
<path d="M62.2335 26.0786C62.0638 25.9454 60.4777 24.7641 57.132 24.7641C56.2483 24.768 55.3671 24.8424 54.4964 24.9873C53.849 20.609 50.2944 18.5517 50.1299 18.4564L49.2318 17.9447L48.6405 18.7854C47.9003 19.9158 47.2463 21.0829 46.9291 22.3922C46.3299 24.892 46.6941 27.2391 47.9812 29.2455C46.4252 30.1005 43.774 30.1762 43.2701 30.1945H2.25732C1.17906 30.1958 0.304451 31.056 0.297924 32.1186C0.249625 35.6863 0.758727 39.3675 2.00276 42.7171C3.42433 46.3957 5.54037 49.1057 8.29214 50.7635C11.3755 52.6263 16.3856 53.6915 22.0653 53.6915C24.6304 53.6994 27.1916 53.4709 29.7136 53.0075C33.2199 52.3718 36.5943 51.163 39.6959 49.4307C42.2519 47.97 44.552 46.1124 46.5088 43.9285C49.7788 40.276 51.7264 36.2097 53.1754 32.5951C53.3699 32.5951 53.5644 32.5951 53.7524 32.5951C57.333 32.5951 59.5339 31.1814 60.748 29.9974C61.5547 29.2416 62.1852 28.3213 62.5938 27.3017L62.8509 26.5603L62.2335 26.0786Z" fill="#D7FF01" fill-opacity="0.7"/>
<path d="M10.6353 28.8893H6.71909C5.99851 28.8893 5.4137 28.3044 5.4137 27.5839V23.6677C5.4137 22.9471 5.99851 22.3623 6.71909 22.3623H10.6353C11.3558 22.3623 11.9406 22.9471 11.9406 23.6677V27.5839C11.9406 28.3044 11.3558 28.8893 10.6353 28.8893Z" fill="#D7FF01" fill-opacity="0.7"/>
<path d="M18.4677 28.8893H14.5515C13.8309 28.8893 13.2461 28.3044 13.2461 27.5839V23.6677C13.2461 22.9471 13.8309 22.3623 14.5515 22.3623H18.4677C19.1882 22.3623 19.773 22.9471 19.773 23.6677V27.5839C19.773 28.3044 19.1882 28.8893 18.4677 28.8893Z" fill="#D7FF01" fill-opacity="0.7"/>
<path d="M26.2999 28.8893H22.3838C21.6632 28.8893 21.0784 28.3044 21.0784 27.5839V23.6677C21.0784 22.9471 21.6632 22.3623 22.3838 22.3623H26.2999C27.0205 22.3623 27.6053 22.9471 27.6053 23.6677V27.5839C27.6053 28.3044 27.0205 28.8893 26.2999 28.8893Z" fill="#D7FF01" fill-opacity="0.7"/>
<path d="M34.1322 28.8893H30.216C29.4955 28.8893 28.9106 28.3044 28.9106 27.5839V23.6677C28.9106 22.9471 29.4955 22.3623 30.216 22.3623H34.1322C34.8528 22.3623 35.4376 22.9471 35.4376 23.6677V27.5839C35.4376 28.3044 34.8528 28.8893 34.1322 28.8893Z" fill="#D7FF01" fill-opacity="0.7"/>
<path d="M18.4677 21.0567H14.5515C13.8309 21.0567 13.2461 20.4719 13.2461 19.7513V15.8352C13.2461 15.1146 13.8309 14.5298 14.5515 14.5298H18.4677C19.1882 14.5298 19.773 15.1146 19.773 15.8352V19.7513C19.773 20.4719 19.1882 21.0567 18.4677 21.0567Z" fill="#D7FF01" fill-opacity="0.7"/>
<path d="M26.2999 21.0567H22.3838C21.6632 21.0567 21.0784 20.4719 21.0784 19.7513V15.8352C21.0784 15.1146 21.6632 14.5298 22.3838 14.5298H26.2999C27.0205 14.5298 27.6053 15.1146 27.6053 15.8352V19.7513C27.6053 20.4719 27.0205 21.0567 26.2999 21.0567Z" fill="#D7FF01" fill-opacity="0.7"/>
<path d="M34.1322 21.0567H30.216C29.4955 21.0567 28.9106 20.4719 28.9106 19.7513V15.8352C28.9106 15.1146 29.4955 14.5298 30.216 14.5298H34.1322C34.8528 14.5298 35.4376 15.1146 35.4376 15.8352V19.7513C35.4376 20.4719 34.8528 21.0567 34.1322 21.0567Z" fill="#D7FF01" fill-opacity="0.7"/>
<path d="M34.1322 13.2245H30.216C29.4955 13.2245 28.9106 12.6396 28.9106 11.9191V8.0029C28.9106 7.28232 29.4955 6.69751 30.216 6.69751H34.1322C34.8528 6.69751 35.4376 7.28232 35.4376 8.0029V11.9191C35.4376 12.6396 34.8528 13.2245 34.1322 13.2245Z" fill="#D7FF01" fill-opacity="0.7"/>
<path d="M41.9646 28.8893H38.0484C37.3279 28.8893 36.743 28.3044 36.743 27.5839V23.6677C36.743 22.9471 37.3279 22.3623 38.0484 22.3623H41.9646C42.6852 22.3623 43.27 22.9471 43.27 23.6677V27.5839C43.27 28.3044 42.6852 28.8893 41.9646 28.8893Z" fill="#D7FF01" fill-opacity="0.7"/>
</g>
<defs>
<clipPath id="clip0_815_3">
<rect width="62.6587" height="62.6587" fill="white" transform="translate(0.192139 0.170654)"/>
</clipPath>
</defs>
</svg>
