<svg width="30" height="23" viewBox="0 0 30 23" fill="none" xmlns="http://www.w3.org/2000/svg">
<path d="M2.55556 2.5L12.0563 9.4184L12.0595 9.42093C13.1144 10.1669 13.6422 10.5401 14.2203 10.6843C14.7312 10.8118 15.2683 10.8118 15.7793 10.6843C16.3579 10.54 16.8872 10.1657 17.944 9.4184C17.944 9.4184 24.0379 4.90891 27.4444 2.5M1 17.2003V5.80029C1 4.12014 1 3.27943 1.33909 2.6377C1.63736 2.07321 2.11296 1.6146 2.69835 1.32698C3.36385 1 4.2357 1 5.97808 1H24.0225C25.7649 1 26.6349 1 27.3004 1.32698C27.8858 1.6146 28.363 2.07321 28.6612 2.6377C29 3.2788 29 4.11849 29 5.79537V17.2054C29 18.8822 29 19.7207 28.6612 20.3618C28.363 20.9263 27.8858 21.3857 27.3004 21.6733C26.6355 22 25.766 22 24.027 22H5.97297C4.23399 22 3.3632 22 2.69835 21.6733C2.11296 21.3857 1.63736 20.9263 1.33909 20.3618C1 19.7201 1 18.8805 1 17.2003Z" stroke="#D9D9D9" stroke-width="2" stroke-linecap="round" stroke-linejoin="round"/>
</svg>
