
<svg width="32" height="22" viewBox="0 0 32 22" fill="none" xmlns="http://www.w3.org/2000/svg">
<path fill-rule="evenodd" clip-rule="evenodd" d="M27.3724 0.244873C27.5533 0.244873 27.724 0.244909 27.8852 0.24515C26.2604 1.38864 24.503 2.63912 22.9634 3.73931C21.7473 4.60831 20.6641 5.38564 19.885 5.94573C19.4954 6.2258 19.1817 6.4516 18.9653 6.60745L18.7164 6.78681L18.6517 6.83347L18.647 6.83688C17.2116 7.82631 16.9052 7.99898 16.6304 8.06581C16.3044 8.14509 15.9594 8.14509 15.6334 8.06581C15.3596 7.99922 15.0554 7.8281 13.6282 6.84443L13.6229 6.84064L4.33438 0.245224C4.50898 0.244916 4.69468 0.244873 4.89271 0.244873H27.3724ZM20.9702 10.0932L19.7998 8.47135L20.9701 10.0932C20.9585 10.1016 20.9469 10.1098 20.9351 10.1179L20.7069 10.2756C19.6205 11.027 18.6657 11.6874 17.5756 11.9525C16.6285 12.1829 15.6353 12.1829 14.6882 11.9525C13.5988 11.6876 12.6459 11.0285 11.5614 10.2783L11.3336 10.1209C11.3178 10.1101 11.3022 10.0989 11.2867 10.0876L0.701061 2.57115C0.69165 2.96808 0.69104 3.45414 0.69104 4.07616V17.9246C0.69104 18.9802 0.692799 19.6439 0.736334 20.1448C0.777493 20.6183 0.844587 20.7619 0.871899 20.8123C1.03538 21.114 1.30824 21.3809 1.67097 21.5547C1.76729 21.6008 1.96676 21.6707 2.49801 21.7115C3.04914 21.7538 3.77211 21.7552 4.88635 21.7552H27.378C28.4923 21.7552 29.2148 21.7538 29.7655 21.7115C30.296 21.6707 30.4953 21.6009 30.5918 21.5547C30.9568 21.3798 31.2305 21.1119 31.3929 20.8123C31.42 20.7622 31.487 20.6191 31.5281 20.1465C31.5716 19.6466 31.5733 18.9844 31.5733 17.9308V4.07017C31.5733 3.44085 31.5727 2.951 31.5629 2.5519C29.6227 3.90597 27.2811 5.57024 25.289 6.9938C24.0766 7.8601 22.9966 8.63517 22.2197 9.19365C21.8313 9.47287 21.5187 9.6979 21.3033 9.85306L21.0558 10.0314L20.9917 10.0776L20.9755 10.0893L20.9714 10.0923L20.9704 10.093L20.9702 10.0932Z" fill="white" fill-opacity="0.5"/>
</svg>
