<svg width="35" height="26" viewBox="0 0 35 26" fill="none" xmlns="http://www.w3.org/2000/svg">
<path d="M1.57349 7.02888V18.9717C1.57349 20.7319 1.57349 21.6115 1.94891 22.2838C2.27914 22.8752 2.80569 23.3565 3.4538 23.6578C4.18989 24 5.15398 24 7.07928 24H27.0677C28.993 24 29.9557 24 30.6918 23.6578C31.3399 23.3565 31.8682 22.8752 32.1984 22.2838C32.5735 21.6122 32.5735 20.7338 32.5735 18.9771V7.02372C32.5735 5.26699 32.5735 4.38732 32.1984 3.71568C31.8682 3.12431 31.3399 2.64387 30.6918 2.34255C29.955 2 28.9918 2 27.0627 2H7.08493C5.15586 2 4.19061 2 3.4538 2.34255C2.80569 2.64387 2.27914 3.12431 1.94891 3.71568C1.57349 4.38798 1.57349 5.26871 1.57349 7.02888Z" fill="white" fill-opacity="0.5"/>
<path d="M3.29571 3.57143L13.8144 10.8193L13.8179 10.8219C14.9859 11.6034 15.5702 11.9944 16.2102 12.1455C16.7759 12.279 17.3706 12.279 17.9363 12.1455C18.5769 11.9943 19.1629 11.6022 20.3329 10.8193C20.3329 10.8193 27.0797 6.09505 30.8513 3.57143M1.57349 18.9717V7.02888C1.57349 5.26871 1.57349 4.38798 1.94891 3.71568C2.27914 3.12431 2.80569 2.64387 3.4538 2.34255C4.19061 2 5.15586 2 7.08493 2H27.0627C28.9918 2 29.955 2 30.6918 2.34255C31.3399 2.64387 31.8682 3.12431 32.1984 3.71568C32.5735 4.38732 32.5735 5.26699 32.5735 7.02372V18.9771C32.5735 20.7338 32.5735 21.6122 32.1984 22.2838C31.8682 22.8752 31.3399 23.3565 30.6918 23.6578C29.9557 24 28.993 24 27.0677 24H7.07928C5.15398 24 4.18989 24 3.4538 23.6578C2.80569 23.3565 2.27914 22.8752 1.94891 22.2838C1.57349 21.6115 1.57349 20.7319 1.57349 18.9717Z" stroke="#101010" stroke-width="1" stroke-linecap="round" stroke-linejoin="round"/>
</svg>
