<svg xmlns="http://www.w3.org/2000/svg" width="430" height="430" style="width:100%;height:100%;transform:translate3d(0,0,0);content-visibility:visible" viewBox="0 0 430 430"><defs><clipPath id="a"><path d="M0 0h430v430H0z"/></clipPath><clipPath id="f"><path d="M0 0h430v430H0z"/></clipPath><clipPath id="e"><path d="M0 0h430v430H0z"/></clipPath><clipPath id="d"><path d="M0 0h430v430H0z"/></clipPath><clipPath id="c"><path d="M0 0h430v430H0z"/></clipPath><clipPath id="b"><path d="M0 0h430v430H0z"/></clipPath></defs><g fill="none" clip-path="url(#a)"><g clip-path="url(#b)" style="display:none"><path class="secondary" style="display:none"/><path class="secondary" style="display:none"/><path class="primary" style="display:none"/></g><g clip-path="url(#c)" style="display:none"><path class="secondary" style="display:none"/><path class="secondary" style="display:none"/><path class="primary" style="display:none"/></g><g clip-path="url(#d)" style="display:none"><path class="primary" style="display:none"/><path class="secondary" style="display:none"/><path class="secondary" style="display:none"/><path class="secondary" style="display:none"/><path class="secondary" style="display:none"/></g><g clip-path="url(#e)" style="display:block"><path stroke="#FFF" stroke-width="18" d="M0-167.5c92.443 0 167.5 75.057 167.5 167.5S92.443 167.5 0 167.5-167.5 92.443-167.5 0-92.443-167.5 0-167.5z" class="primary" style="display:block" transform="translate(215 215)"/><path stroke="#D6FF01" stroke-linecap="round" stroke-linejoin="round" stroke-width="18" d="M68.894 85.757C50.011 100.929 26.016 110-.041 110c-60.772 0-110-49.228-110-110s49.228-110 110-110S110.041-60.773 110.041.082c0 0 .001 45.6-67.698 45.6" class="secondary" style="display:block" transform="translate(215.354 215.314)"/><path stroke="#D6FF01" stroke-linecap="round" stroke-linejoin="round" stroke-width="18" d="M46.424 45.471V-8.081c0-21.192-17.151-38.343-38.343-38.343H-8.081c-21.192 0-38.343 17.151-38.343 38.343V8.081c0 21.192 17.151 38.343 38.343 38.343q0 0 0 0h54.505z" class="secondary" style="display:block" transform="translate(212.146 214.731)"/><path class="secondary" style="display:none"/><path class="secondary" style="display:none"/></g><g clip-path="url(#f)" style="display:none"><path class="primary" style="display:none"/><path class="secondary" style="display:none"/><path class="secondary" style="display:none"/></g></g></svg>