<svg width="33" height="22" viewBox="0 0 33 22" fill="none" xmlns="http://www.w3.org/2000/svg">
<path d="M3.24015 2.42857L13.4195 9.01752L13.4229 9.01994C14.5532 9.73041 15.1187 10.0859 15.7381 10.2232C16.2855 10.3445 16.861 10.3445 17.4084 10.2232C18.0284 10.0857 18.5955 9.72925 19.7278 9.01752C19.7278 9.01752 26.257 4.72277 29.9068 2.42857M1.57349 16.4289V5.57171C1.57349 3.97156 1.57349 3.17089 1.9368 2.55971C2.25638 2.0221 2.76594 1.58533 3.39315 1.31141C4.10619 1 5.0403 1 6.90715 1H26.2405C28.1073 1 29.0394 1 29.7525 1.31141C30.3797 1.58533 30.891 2.0221 31.2105 2.55971C31.5735 3.17029 31.5735 3.96999 31.5735 5.56701V16.4337C31.5735 18.0307 31.5735 18.8293 31.2105 19.4398C30.891 19.9774 30.3797 20.415 29.7525 20.6889C29.0401 21 28.1085 21 26.2453 21H6.90167C5.03848 21 4.10549 21 3.39315 20.6889C2.76594 20.415 2.25638 19.9774 1.9368 19.4398C1.57349 18.8287 1.57349 18.029 1.57349 16.4289Z" stroke="white" stroke-opacity="0.5" stroke-width="1.58857" stroke-linecap="round" stroke-linejoin="round"/>
</svg>
