<svg width="25" height="20" viewBox="0 0 25 20" fill="none" xmlns="http://www.w3.org/2000/svg">
<path d="M2.56905 2.85134L10.1154 8.34652L10.1179 8.34853C10.9558 8.94106 11.375 9.23751 11.8342 9.35202C12.24 9.45324 12.6666 9.45324 13.0725 9.35202C13.532 9.2374 13.9525 8.9401 14.7919 8.34652C14.7919 8.34652 19.6322 4.7647 22.3379 2.85134M1.3335 14.5276V5.47271C1.3335 4.13819 1.3335 3.47043 1.60283 2.96071C1.83974 2.51235 2.2175 2.14808 2.68247 1.91963C3.21107 1.65991 3.90356 1.65991 5.28751 1.65991H19.6199C21.0039 1.65991 21.6949 1.65991 22.2235 1.91963C22.6885 2.14808 23.0675 2.51235 23.3044 2.96071C23.5735 3.46993 23.5735 4.13688 23.5735 5.4688V14.5316C23.5735 15.8635 23.5735 16.5295 23.3044 17.0387C23.0675 17.4871 22.6885 17.852 22.2235 18.0804C21.6954 18.3399 21.0048 18.3399 19.6235 18.3399H5.28345C3.90221 18.3399 3.21055 18.3399 2.68247 18.0804C2.2175 17.852 1.83974 17.4871 1.60283 17.0387C1.3335 16.529 1.3335 15.8621 1.3335 14.5276Z" stroke="white" stroke-opacity="0.5" stroke-width="1.58857" stroke-linecap="round" stroke-linejoin="round"/>
</svg>
