<svg width="29" height="20" viewBox="0 0 29 20" fill="none" xmlns="http://www.w3.org/2000/svg">
<path fill-rule="evenodd" clip-rule="evenodd" d="M12.2193 6.09833L4.39778 0.544556H24.2679C22.9605 1.46709 21.59 2.44275 20.3716 3.31336C19.2793 4.09394 18.3063 4.79219 17.6064 5.29529C17.2564 5.54687 16.9747 5.7497 16.7803 5.88971L16.5567 6.05084L16.4986 6.09277L16.4961 6.09455C15.1952 6.99124 14.9558 7.11779 14.7543 7.16681C14.4931 7.23032 14.2163 7.23032 13.9552 7.16681C13.7544 7.11798 13.5169 6.99271 12.2232 6.10108L12.2193 6.09833ZM22.6972 6.56784C24.3801 5.36529 26.3399 3.97197 28.0159 2.79934C28.0187 3.0761 28.019 3.39712 28.019 3.77631V16.2246C28.019 17.1745 28.0172 17.7589 27.9791 18.197C27.944 18.6012 27.889 18.7019 27.8818 18.7149L27.8815 18.7155C27.7571 18.9452 27.5439 19.1563 27.2532 19.2955C27.1989 19.3216 27.0483 19.3812 26.5835 19.4169C26.0986 19.4542 25.4588 19.4556 24.4549 19.4556H4.25497C3.25111 19.4556 2.61096 19.4542 2.1256 19.4169C1.66013 19.3812 1.50939 19.3215 1.45527 19.2955C1.16684 19.1573 0.954355 18.9473 0.828734 18.7155L0.82843 18.7149C0.821213 18.7017 0.766059 18.6007 0.730831 18.1954C0.692677 17.7564 0.690918 17.1707 0.690918 16.2191V3.78168C0.690918 3.40973 0.691186 3.09363 0.693793 2.82031L9.884 9.34593C9.89905 9.35694 9.91425 9.36774 9.9296 9.37833L10.1433 9.52602C11.1061 10.1924 11.9931 10.8062 13.0099 11.0535C13.8922 11.2681 14.8173 11.2681 15.6995 11.0535C16.7169 10.8061 17.6056 10.1911 18.5701 9.52357L18.7842 9.37556C18.796 9.36747 18.8076 9.35925 18.8192 9.3509L17.6489 7.72904L18.8192 9.35086L18.8195 9.3507L18.8203 9.35006L18.824 9.34743L18.8385 9.33693L18.8961 9.29546L19.1183 9.13531C19.3117 8.996 19.5924 8.79394 19.9412 8.54321C20.6388 8.04171 21.6086 7.34573 22.6972 6.56784Z" fill="white" fill-opacity="0.5"/>
</svg>
