<svg width="24" height="24" viewBox="0 0 24 24" fill="none" xmlns="http://www.w3.org/2000/svg">
<g opacity="0.5" clip-path="url(#clip0_1094_9)">
<path d="M22.4825 12C22.4825 17.8219 17.7629 22.5415 11.9409 22.5415C6.11898 22.5415 1.39938 17.8219 1.39938 12C1.39938 6.17807 6.11898 1.45846 11.9409 1.45846C17.7629 1.45846 22.4825 6.17807 22.4825 12Z" stroke="white" stroke-width="1.41691"/>
<path d="M13.4524 14.016H11.1558C10.3731 14.016 9.74022 13.3831 9.74022 12.6005V11.7194C9.74022 10.9368 10.3732 10.3038 11.1558 10.3038H12.0369C12.8195 10.3038 13.4524 10.9367 13.4524 11.7194V14.016Z" stroke="#D7FF01" stroke-width="1.34959" stroke-miterlimit="10" stroke-linecap="round" stroke-linejoin="round"/>
<path d="M11.5027 14.2541C17.3973 15.2012 17.3973 12.1793 17.3973 12.1793C17.6591 9.04488 15.1298 6.20349 11.8167 6.20349C8.50367 6.20349 5.81995 8.88721 5.81995 12.2003C5.81995 15.5133 8.50367 18.197 11.8167 18.197C13.2372 18.197 14.5454 17.7025 15.5748 16.8754" stroke="#D7FF01" stroke-width="1.34959" stroke-miterlimit="10" stroke-linecap="round" stroke-linejoin="round"/>
</g>
<defs>
<clipPath id="clip0_1094_9">
<rect width="22.5" height="22.5" fill="white" transform="translate(0.690918 0.75)"/>
</clipPath>
</defs>
</svg>
