<svg width="65" height="65" viewBox="0 0 65 65" fill="none" xmlns="http://www.w3.org/2000/svg">
<path fill-rule="evenodd" clip-rule="evenodd" d="M8.36089 0.0131048C9.14718 0 9.42238 0.0655242 10.0645 0.38004C10.4708 0.589718 10.9819 0.904234 11.2046 1.0746C11.4274 1.25806 11.8075 1.78226 12.0565 2.24093C12.4889 3.05343 12.502 3.13206 12.5806 6.29032H14.8085L15.1099 5.60887C15.2802 5.22883 15.6341 4.69153 15.8962 4.42944C16.1583 4.15423 16.6956 3.77419 17.0756 3.57762C17.6653 3.2631 17.9143 3.21069 18.871 3.21069C19.8931 3.21069 20.0504 3.25 20.8236 3.66935C21.2823 3.91835 21.8196 4.3377 22.0292 4.58669C22.2258 4.83569 22.5141 5.32056 22.9335 6.29032H42.0665L42.3679 5.60887C42.5383 5.22883 42.8921 4.69153 43.1542 4.42944C43.4163 4.15423 43.9536 3.77419 44.3337 3.57762C44.9234 3.2631 45.1724 3.21069 46.129 3.21069C47.1512 3.21069 47.3085 3.25 48.0817 3.66935C48.5403 3.91835 49.0776 4.3377 49.2873 4.58669C49.4839 4.83569 49.7722 5.32056 50.1915 6.29032H52.4194L52.4587 4.69153C52.498 3.31552 52.5504 2.9879 52.8256 2.4244C52.996 2.07056 53.376 1.53327 53.6643 1.24496C53.9526 0.956653 54.5292 0.550403 54.9486 0.353831C55.5383 0.078629 55.879 0 56.6129 0C57.3599 0 57.6744 0.0655242 58.2903 0.38004C58.6966 0.589718 59.2208 0.904234 59.4304 1.0746C59.6401 1.25806 60.0333 1.78226 60.2823 2.24093C60.7147 3.05343 60.7278 3.13206 60.8064 6.29032H61.5665C61.9728 6.29032 62.5494 6.36895 62.8246 6.46069C63.1129 6.53931 63.5847 6.82762 63.873 7.08972C64.1744 7.33871 64.5413 7.83669 64.7117 8.16431C64.8689 8.51814 65 9.02923 65 9.34375C65 9.64516 64.9214 10.13 64.8427 10.4183C64.7379 10.7329 64.4234 11.2046 64.0171 11.5978C63.624 12.004 63.1522 12.3185 62.8377 12.4234C62.5494 12.502 61.9728 12.5806 60.8064 12.5806L60.7671 14.1925C60.7278 15.7389 60.7147 15.8175 60.2823 16.63C60.0333 17.0887 59.6401 17.6129 59.4304 17.7964C59.2208 17.9667 58.749 18.2681 58.3821 18.4516C57.8317 18.7399 57.5564 18.7923 56.6129 18.7923C55.5907 18.8054 55.4335 18.7661 54.6603 18.3468C54.2016 18.0978 53.6774 17.7177 53.494 17.495C53.3236 17.2722 53.0222 16.8135 52.8387 16.4466C52.5373 15.87 52.498 15.6079 52.4194 12.5806H50.1915L49.877 13.2752C49.7067 13.6421 49.3397 14.1925 49.0645 14.4677C48.7893 14.756 48.2651 15.123 47.2429 15.5817L47.1512 17.7833C47.0988 19.2903 46.9808 20.3125 46.7974 21.0333C46.6532 21.6099 46.378 22.501 46.1946 22.999C45.8931 23.7853 45.8538 24.0081 46.0635 25.2006L46.7843 25.371C47.1774 25.4758 47.9113 25.7641 48.4224 26C49.0252 26.3014 49.628 26.7339 50.1915 27.2974C50.6633 27.756 51.2268 28.4899 51.4496 28.9093C51.6724 29.3286 51.9738 30.0101 52.1048 30.4032C52.2883 30.9274 52.3538 31.504 52.3538 32.5C52.3538 33.6139 52.2883 34.0464 52.0262 34.7933C51.8558 35.3044 51.4496 36.0907 50.5585 37.4143L50.9385 38.4627C51.253 39.3669 51.3054 39.7077 51.3054 40.8871C51.3054 41.8831 51.2399 42.4597 51.0565 42.9839C50.9254 43.377 50.624 44.0585 50.4012 44.4778C50.1784 44.9103 49.6411 45.6179 49.2087 46.0635C48.6976 46.5746 48.0817 47.0202 47.4395 47.3478C46.9022 47.623 46.378 47.8327 46.2994 47.8327C46.2077 47.8327 46.1028 47.9899 46.0635 48.1865C46.0242 48.3962 45.8931 48.881 45.7752 49.2742C45.6704 49.6673 45.4345 50.2571 45.2772 50.5847C45.1069 50.9123 44.753 51.4496 44.4778 51.7903C44.1895 52.131 43.6391 52.6552 43.246 52.9698C42.8397 53.2843 42.1976 53.6774 41.8044 53.8478C41.4113 54.0181 40.8085 54.2278 39.8387 54.4506V58.8407L40.5333 59.1421C40.9002 59.3125 41.4375 59.6663 41.7127 59.9284C41.9748 60.1905 42.3548 60.7278 42.5514 61.0948C42.879 61.7238 42.9183 61.9466 42.9839 65H34.5968L34.6361 63.3881C34.6623 61.9466 34.7016 61.7238 35.0292 61.0948C35.2258 60.7278 35.6058 60.1905 35.881 59.9284C36.1431 59.6663 36.6804 59.3125 37.7419 58.8407V54.4506L37.0605 54.2933C36.6804 54.2016 35.9597 53.9264 35.4486 53.6774C34.9375 53.4284 34.2298 52.9435 33.8629 52.5897C33.496 52.249 33.0504 51.751 32.5 51.0433L32.1462 51.502C31.9496 51.751 31.504 52.249 31.1371 52.5897C30.7702 52.9435 30.0625 53.4284 29.5514 53.6774C29.0534 53.9264 28.3196 54.2016 27.2581 54.4506V58.8407L27.9526 59.1421C28.3196 59.3125 28.8569 59.6663 29.1321 59.9284C29.3942 60.1905 29.7742 60.7278 29.9708 61.0948C30.2984 61.7238 30.3377 61.9466 30.4032 65H22.0161L22.0554 63.3881C22.0817 61.9466 22.121 61.7238 22.4486 61.0948C22.6452 60.7278 23.0252 60.1905 23.3004 59.9284C23.5625 59.6663 24.0998 59.3125 25.1613 58.8407V54.4506L24.4798 54.2933C24.0998 54.2016 23.4315 53.9526 22.999 53.7298C22.5665 53.5202 21.9244 53.1008 21.5575 52.7994C21.2036 52.498 20.6663 51.9607 20.3911 51.5806C20.1159 51.2137 19.749 50.624 19.5786 50.2571C19.4083 49.8901 19.1855 49.2742 18.8972 48.1603L18.2026 47.9899C17.8095 47.8982 17.2067 47.6885 16.8397 47.5181C16.4859 47.3478 15.8569 46.9677 15.4637 46.6663C15.0706 46.3649 14.5202 45.8407 14.2319 45.5C13.9567 45.1593 13.6028 44.622 13.4325 44.2944C13.2752 43.9667 13.0262 43.377 12.8952 42.9839C12.7117 42.4597 12.6462 41.8831 12.6462 40.8871C12.6462 39.8911 12.7117 39.3145 12.8952 38.7903C13.0262 38.3972 13.2621 37.8337 13.4062 37.5454C13.5504 37.2571 13.8387 36.7853 14.4546 35.9728L14.1008 34.9899C13.9173 34.4526 13.7208 33.6008 13.6683 33.0897C13.629 32.5786 13.6683 31.7661 13.747 31.255C13.8387 30.7308 14.127 29.8659 14.4284 29.25C14.7954 28.4768 15.1623 27.9395 15.7651 27.3498C16.3024 26.8125 16.9183 26.3669 17.5605 26.0393C18.0978 25.7641 18.622 25.5544 18.7137 25.5544C18.7923 25.5544 18.8972 25.3972 18.9496 25.2006C18.9889 24.9909 19.0544 24.6633 19.12 24.4405C19.1855 24.1522 19.1331 23.8377 18.8972 23.2611C18.7268 22.8286 18.4385 21.9113 18.255 21.2298C18.006 20.2601 17.9143 19.5 17.7571 15.5817L17.1018 15.2802C16.748 15.1099 16.2238 14.7429 15.9355 14.4677C15.6603 14.1794 15.2933 13.6421 14.8085 12.5806H12.5806L12.5413 14.1925C12.502 15.7389 12.4889 15.8175 12.0565 16.63C11.8075 17.0887 11.4274 17.6129 11.2046 17.7964C10.995 17.9667 10.5232 18.2681 10.1562 18.4516C9.60585 18.7399 9.33064 18.7923 8.3871 18.7923C7.44355 18.7923 7.16835 18.7399 6.61794 18.4516C6.26411 18.2681 5.79234 17.9667 5.56956 17.7964C5.35988 17.6129 4.96673 17.0887 4.71774 16.63C4.28528 15.8175 4.27218 15.7389 4.19355 12.5806H3.44657C3.02722 12.5806 2.4506 12.502 2.1754 12.4103C1.8871 12.3317 1.41532 12.0433 1.12702 11.7812C0.825605 11.5323 0.458669 11.0343 0.301411 10.7067C0.131048 10.3528 0 9.84173 0 9.52722C0 9.22581 0.078629 8.74093 0.157258 8.45262C0.262097 8.1381 0.576613 7.66633 0.982863 7.27319C1.37601 6.86694 1.84778 6.55242 2.1623 6.44758C2.4506 6.36895 3.02722 6.29032 4.19355 6.29032L4.23286 4.67843C4.27218 3.31552 4.3246 2.9879 4.5998 2.4244C4.77016 2.05746 5.1502 1.53327 5.43851 1.24496C5.72681 0.956653 6.29032 0.563508 6.68347 0.366935C7.24698 0.0917339 7.60081 0.0131048 8.36089 0.0131048V0.0131048ZM6.72278 2.86996C6.56552 3.09274 6.39516 3.47278 6.35585 3.69556C6.31653 3.93145 6.29032 6.67036 6.31653 9.78931C6.35585 15.3196 6.35585 15.4506 6.63105 15.8175C6.78831 16.0141 7.07661 16.3024 7.26008 16.4466C7.52218 16.6431 7.82359 16.7087 8.3871 16.7087C8.9506 16.7087 9.25202 16.6431 9.51411 16.4466C9.69758 16.3024 9.98589 16.0141 10.1431 15.8175C10.4183 15.4506 10.4183 15.3589 10.4183 9.43548C10.4183 3.5121 10.4183 3.42036 10.1431 3.05343C9.98589 2.85685 9.72379 2.58165 9.55343 2.4506C9.38306 2.31956 8.9506 2.1754 8.58367 2.14919C8.19052 2.10988 7.74496 2.1623 7.48286 2.28024C7.23387 2.37198 6.89314 2.63407 6.72278 2.86996V2.86996ZM54.9486 2.86996C54.7913 3.09274 54.621 3.47278 54.5817 3.70867C54.5423 3.93145 54.5161 6.67036 54.5423 9.78931C54.5817 15.3196 54.5817 15.4506 54.8569 15.8175C55.0141 16.0141 55.3024 16.3024 55.4859 16.4466C55.748 16.6431 56.0494 16.7087 56.6129 16.7087C57.1764 16.7087 57.4778 16.6431 57.7399 16.4466C57.9234 16.3024 58.2117 16.0141 58.3689 15.8175C58.6441 15.4506 58.6442 15.3589 58.6442 9.43548C58.6442 3.5121 58.6441 3.42036 58.3689 3.05343C58.2117 2.85685 57.9496 2.58165 57.7792 2.4506C57.6089 2.31956 57.1764 2.1754 56.8095 2.14919C56.4163 2.10988 55.9708 2.1623 55.7087 2.28024C55.4597 2.37198 55.1189 2.63407 54.9486 2.86996V2.86996ZM17.2067 6.01512C17.0494 6.2379 16.8659 6.61794 16.8266 6.85383C16.7873 7.07661 16.7742 8.4002 16.8004 9.78931C16.8397 12.1089 16.8659 12.3317 17.1149 12.6724C17.2722 12.869 17.5605 13.1573 17.744 13.3014C18.006 13.498 18.3075 13.5635 18.871 13.5635C19.4476 13.5635 19.7228 13.498 20.0111 13.2883C20.2077 13.131 20.496 12.8427 20.6401 12.6593C20.8891 12.3185 20.9022 12.0958 20.9022 9.43548C20.9022 6.72278 20.8891 6.55242 20.627 6.19859C20.4698 6.00202 20.2077 5.72681 20.0373 5.59577C19.8669 5.46472 19.4345 5.32056 19.0675 5.29435C18.6744 5.25504 18.2288 5.30746 17.9667 5.4254C17.7177 5.51714 17.377 5.77923 17.2067 6.01512ZM44.4647 6.01512C44.3075 6.2379 44.124 6.61794 44.0847 6.85383C44.0454 7.07661 44.0323 8.4002 44.0585 9.78931C44.0978 12.1089 44.124 12.3317 44.373 12.6724C44.5302 12.869 44.8185 13.1573 45.002 13.3014C45.2641 13.498 45.5655 13.5635 46.129 13.5635C46.7056 13.5635 46.9808 13.498 47.2692 13.2883C47.4657 13.131 47.754 12.8427 47.8982 12.6593C48.1472 12.3185 48.1603 12.0958 48.1603 9.43548C48.1603 6.72278 48.1472 6.55242 47.8851 6.19859C47.7278 6.00202 47.4657 5.72681 47.2954 5.59577C47.125 5.46472 46.6925 5.32056 46.3256 5.29435C45.9325 5.25504 45.4869 5.30746 45.2248 5.4254C44.9758 5.51714 44.6351 5.77923 44.4647 6.01512V6.01512ZM2.09677 9.43548C2.09677 9.68448 2.21472 9.94657 2.4244 10.1562C2.6996 10.4315 2.88306 10.4839 3.47278 10.4839H4.19355V8.3871C2.86996 8.3871 2.68649 8.43952 2.4244 8.71472C2.24093 8.89819 2.10988 9.18649 2.09677 9.43548ZM12.5806 10.4839H14.6774V8.3871H12.5806V10.4839ZM23.0645 10.4839H41.9355V8.3871H23.0645V10.4839ZM50.3226 10.4839H52.4194V8.3871H50.3226V10.4839ZM60.8064 10.4839C62.13 10.4839 62.3135 10.4315 62.5756 10.1562C62.7853 9.95968 62.9032 9.67137 62.9032 9.43548C62.9032 9.18649 62.7853 8.92439 62.5756 8.71472C62.3004 8.43952 62.1169 8.3871 61.5272 8.3871H60.8064V10.4839ZM22.6321 13.2752C22.4617 13.6421 22.0817 14.1925 21.8064 14.4677C21.5312 14.756 20.9808 15.1361 20.5877 15.3196L19.88 15.6603C19.998 18.871 20.1159 20.0766 20.247 20.5746C20.3649 21.0464 20.4829 21.4395 20.5222 21.4657C20.5484 21.4788 20.8891 21.1905 21.2692 20.8236C21.6754 20.4304 22.37 19.9587 22.999 19.6573C23.6018 19.369 24.4405 19.0806 24.9647 18.9889C25.502 18.8972 26.2883 18.871 26.8387 18.9234C27.3498 18.9627 28.1492 19.1331 28.6079 19.3034C29.0534 19.4607 29.6825 19.749 30.0101 19.9456C30.3377 20.129 30.875 20.5484 31.2026 20.8498C31.5302 21.1643 31.9496 21.6361 32.1462 21.8851L32.5 22.3437C33.0504 21.6361 33.4698 21.1643 33.7974 20.8498C34.125 20.5484 34.6623 20.129 34.9899 19.9456C35.3175 19.749 35.9466 19.4607 36.4052 19.3034C36.8508 19.1331 37.6502 18.9627 38.1744 18.9234C38.7117 18.871 39.498 18.8972 40.0353 18.9889C40.5595 19.0806 41.3982 19.369 42.001 19.6573C42.5776 19.9325 43.377 20.4567 43.7702 20.8236C44.1633 21.1905 44.504 21.4788 44.5171 21.4526C44.5302 21.4395 44.6351 21.0464 44.753 20.5746C44.8841 20.0766 45.002 18.871 45.0413 17.6915L45.12 15.6603C44.0191 15.1361 43.4819 14.7429 43.1935 14.4677C42.9183 14.1794 42.5514 13.6421 42.381 13.2752L42.0665 12.5806H22.9466L22.6321 13.2752ZM23.6673 21.6754C23.248 21.8982 22.6583 22.3569 22.37 22.6845C22.0685 22.999 21.6623 23.6542 21.4526 24.126C21.1643 24.7419 21.0333 25.253 20.9808 26.0393L20.9022 27.1139C20.1946 27.3236 19.8931 27.3891 19.7883 27.3891C19.6835 27.3891 19.1855 27.5857 18.6744 27.8347C18.1109 28.123 17.5343 28.5292 17.1804 28.9224C16.8528 29.2762 16.4204 29.9446 16.1976 30.4163C15.8569 31.1371 15.8044 31.4123 15.7913 32.3821C15.7913 32.9849 15.87 33.745 15.9617 34.0464L16.119 34.6099C16.7873 34.2692 17.2984 34.0595 17.6915 33.9284C18.0847 33.7974 18.753 33.6401 19.1724 33.5877L19.9194 33.496V35.6583C18.7137 35.7893 18.0716 35.999 17.5605 36.248C17.0756 36.497 16.4597 36.9425 16.1321 37.3095C15.8044 37.6633 15.3589 38.3317 15.1492 38.8034C14.7823 39.5635 14.7429 39.7732 14.7429 40.9002C14.7429 42.0796 14.7692 42.2107 15.2278 43.128C15.5423 43.7702 15.9093 44.2944 16.3417 44.6744C16.6825 44.9889 17.3246 45.4214 17.7571 45.631C18.1895 45.8407 18.6351 46.0111 18.7399 46.0111C18.871 46.0111 19.0326 45.6922 19.2248 45.0544C19.3821 44.5302 19.749 43.7308 20.0504 43.2853C20.3387 42.8397 20.8629 42.1976 21.2036 41.87C21.5444 41.5292 22.0817 41.1099 22.4093 40.9133C22.7369 40.7298 23.3528 40.4415 23.7853 40.2843C24.2177 40.127 24.9385 39.9567 25.3972 39.8911L26.2097 39.7863V41.9486C25.004 42.0796 24.3619 42.2893 23.8508 42.5383C23.3659 42.7873 22.75 43.2329 22.4224 43.5998C22.0948 43.9536 21.6492 44.622 21.4395 45.0937C21.0726 45.8538 21.0333 46.0635 21.0333 47.1905C21.0333 48.3044 21.0726 48.5141 21.4395 49.2873C21.6492 49.746 22.0948 50.4143 22.4224 50.7681C22.7893 51.1744 23.3528 51.5675 23.9819 51.8821C24.8992 52.3276 25.0302 52.3669 26.2097 52.3669C27.3236 52.3669 27.5464 52.3145 28.3065 51.9607C28.7782 51.7379 29.4466 51.3054 29.8004 50.9778C30.1673 50.6371 30.6129 50.0343 30.8619 49.5494C31.1109 49.0383 31.3206 48.3831 31.373 47.9375L31.4516 47.1905H33.5484C33.6794 48.3831 33.8891 49.0383 34.1512 49.5494C34.4002 50.0343 34.8458 50.6371 35.2127 50.9778C35.5534 51.3054 36.2218 51.7379 36.6935 51.9607C37.4536 52.3145 37.6764 52.3669 38.8034 52.3669C39.9698 52.3669 40.1139 52.3276 41.0312 51.8821C41.6603 51.5675 42.2107 51.1744 42.5907 50.7681C42.9052 50.4143 43.3508 49.746 43.5605 49.2873C43.8488 48.6583 43.9667 48.1472 44.0192 47.3609L44.0978 46.2863C44.8054 46.0766 45.1069 46.0111 45.2117 46.0111C45.3165 46.0111 45.8276 45.8145 46.3256 45.5655C46.9022 45.2772 47.4657 44.871 47.8327 44.4778C48.1472 44.124 48.5927 43.4556 48.8024 42.997C49.1431 42.2631 49.2087 41.9879 49.2087 41.0312C49.2087 40.4153 49.1431 39.6552 49.0514 39.3538L48.881 38.8034C48.2258 39.131 47.7016 39.3407 47.3085 39.4718C46.9153 39.6028 46.247 39.7601 45.8407 39.8125L45.0806 39.9173V37.755C46.2863 37.6109 46.9284 37.4012 47.4395 37.1522C47.9375 36.9032 48.5403 36.4577 48.881 36.0907C49.1956 35.7369 49.6411 35.0685 49.8639 34.6099C50.2177 33.8367 50.2571 33.627 50.2571 32.5131C50.2571 31.3861 50.2177 31.1764 49.8639 30.4163C49.6411 29.9446 49.1956 29.2762 48.881 28.9224C48.5141 28.5292 47.9506 28.123 47.374 27.8347C46.876 27.5857 46.3649 27.3891 46.2601 27.3891C46.129 27.3891 45.9718 27.7167 45.7752 28.3458C45.6179 28.87 45.251 29.6694 44.9627 30.1149C44.6613 30.5605 44.1502 31.2026 43.8095 31.5302C43.4687 31.871 42.9183 32.2903 42.5907 32.4869C42.2631 32.6704 41.6472 32.9587 41.2147 33.1159C40.7823 33.2732 40.0615 33.4435 39.6159 33.5091L38.7903 33.627V31.4647C39.996 31.3206 40.6381 31.1109 41.1492 30.8619C41.6472 30.6129 42.25 30.1673 42.5907 29.8004C42.9052 29.4466 43.3508 28.7782 43.5736 28.3196C43.9274 27.5464 43.9667 27.3367 43.9667 26.2097C43.9667 25.0302 43.9405 24.8992 43.495 23.9819C43.1804 23.3528 42.7873 22.8024 42.381 22.4224C42.0272 22.0948 41.3589 21.6623 40.8871 21.4395C40.127 21.0857 39.9042 21.0464 38.7903 21.0464C37.6764 21.0464 37.4536 21.0857 36.6935 21.4395C36.2218 21.6623 35.5534 22.0948 35.2127 22.4224C34.8458 22.7631 34.4002 23.3659 34.1512 23.8639C33.8891 24.3619 33.6794 25.0171 33.6401 25.4627L33.5484 26.2228H31.4516C31.3206 25.0171 31.1109 24.3619 30.8619 23.8639C30.6129 23.3659 30.1673 22.7631 29.8004 22.4224C29.4466 22.0948 28.7782 21.6623 28.3065 21.4526C27.6643 21.1512 27.2187 21.0595 26.4718 21.0202C25.9345 21.0071 25.253 21.0464 24.9647 21.1119C24.6764 21.1905 24.0998 21.4395 23.6673 21.6754V21.6754ZM24.624 61.4748C24.4929 61.6452 24.3357 61.9597 24.2571 62.1562C24.1784 62.3528 24.1129 62.6018 24.1129 62.7198C24.1129 62.877 24.4405 62.9163 26.249 62.9163H28.372C28.2147 62.248 28.0706 61.9073 27.9264 61.7369C27.7954 61.5534 27.5464 61.2913 27.376 61.1603C27.2056 61.0292 26.7732 60.8982 26.4062 60.872C26.0393 60.8327 25.5544 60.8851 25.3054 60.9768C25.0433 61.0816 24.7419 61.3044 24.624 61.4748V61.4748ZM37.2046 61.4748C37.0736 61.6452 36.9163 61.9597 36.8377 62.1562C36.7591 62.3528 36.6935 62.6018 36.6935 62.7198C36.6935 62.877 37.0212 62.9163 38.8296 62.9163H40.9526C40.7954 62.248 40.6512 61.9073 40.5071 61.7369C40.376 61.5534 40.127 61.2913 39.9567 61.1603C39.7863 61.0292 39.3538 60.8982 38.9869 60.872C38.62 60.8327 38.1351 60.8851 37.8861 60.9768C37.624 61.0816 37.3226 61.3044 37.2046 61.4748V61.4748ZM39.0262 23.0645C39.1441 23.0645 39.5373 23.1694 39.9042 23.3004C40.3323 23.4489 40.7255 23.7241 41.0837 24.126C41.372 24.4536 41.6865 24.9516 41.7782 25.2399C41.8569 25.5282 41.9355 25.9607 41.9355 26.2228C41.9355 26.4718 41.8569 26.9173 41.7782 27.2056C41.6865 27.5202 41.3589 27.9788 40.9657 28.3851C40.5595 28.7913 40.1008 29.1058 39.7732 29.1976C39.4849 29.2893 39.1441 29.3548 39.0262 29.3548C38.8165 29.3548 38.7903 29.2238 38.7903 28.3458C38.8034 27.3367 38.8034 27.3236 39.2228 27.1401C39.4587 27.0222 39.6946 26.7863 39.7732 26.5766C39.8605 26.3407 39.8605 26.1005 39.7732 25.8558C39.6946 25.6462 39.4587 25.4103 39.2228 25.3054C38.8034 25.1089 38.8034 25.0958 38.7903 24.0867C38.7903 23.2087 38.8296 23.0645 39.0262 23.0645ZM28.3458 28.2802L28.9486 28.372C29.2762 28.4244 29.8135 28.6079 30.1411 28.7651C30.4687 28.9355 30.9143 29.2107 31.124 29.3942C31.3468 29.5645 31.7006 30.0625 31.9365 30.495C32.1593 30.9143 32.3821 31.5433 32.5 32.5131H30.4687L30.3246 31.9496C30.2198 31.5958 29.997 31.2288 29.6956 30.9667C29.4204 30.7177 29.0272 30.5081 28.3065 30.4163L28.3458 28.2802ZM21.0071 29.3286L21.6099 29.4204C21.9506 29.4728 22.4879 29.6431 22.8155 29.8135C23.13 29.9708 23.5756 30.246 23.7984 30.4294C24.0081 30.6129 24.375 31.0978 24.5978 31.5302C24.8337 31.9496 25.0433 32.5786 25.1744 33.5484H23.1431L22.9859 32.9849C22.8942 32.6442 22.6583 32.2772 22.37 32.002C22.0948 31.753 21.7016 31.5565 20.9808 31.4516L21.0071 29.3286ZM37.7681 35.6452H39.8387L39.7601 36.2742C39.7208 36.6149 39.5504 37.1522 39.38 37.4798C39.2228 37.8075 38.9345 38.253 38.7641 38.4627C38.5806 38.6855 38.0827 39.0393 37.6633 39.2752C37.2308 39.498 36.6018 39.7208 35.6452 39.8387V37.8075L36.1956 37.6633C36.5494 37.5585 36.9163 37.3357 37.1784 37.0343C37.4143 36.7722 37.6502 36.3528 37.6895 36.1038L37.7681 35.6452ZM32.5262 40.8871H34.5968L34.5181 41.5161C34.4788 41.8569 34.3085 42.3942 34.1381 42.7218C33.9808 43.0494 33.6925 43.495 33.5222 43.7046C33.3387 43.9274 32.8407 44.2812 32.4214 44.5171C31.9889 44.7399 31.373 44.9627 30.4032 45.0806V43.0494L30.9536 42.9052C31.3075 42.8004 31.6744 42.5776 31.9365 42.2762C32.1724 42.0141 32.4083 41.5948 32.4476 41.3458L32.5262 40.8871ZM40.9133 40.8871H42.9839L42.9052 41.5161C42.8659 41.8569 42.6956 42.3942 42.5252 42.7218C42.3679 43.0494 42.0796 43.495 41.9093 43.7046C41.7258 43.9274 41.2278 44.2812 40.8085 44.5171C40.376 44.7399 39.7601 44.9627 38.7903 45.0806V43.0494L39.3407 42.9052C39.6946 42.8004 40.0615 42.5776 40.3236 42.2762C40.5595 42.0141 40.7954 41.5948 40.8347 41.3458L40.9133 40.8871ZM25.9214 44.0454C26.1966 44.0323 26.2097 44.0716 26.2097 45.0544C26.2097 46.0635 26.2097 46.0635 25.7772 46.2601C25.5413 46.378 25.3054 46.6139 25.2268 46.8236C25.1394 47.0595 25.1394 47.2997 25.2268 47.5444C25.3054 47.7409 25.5413 47.9899 25.7772 48.0948C26.2097 48.2913 26.2097 48.2913 26.2097 49.3135C26.2097 50.1915 26.1835 50.3226 25.9869 50.3226C25.8558 50.3226 25.5151 50.2439 25.2268 50.1653C24.9123 50.0605 24.4405 49.746 24.0474 49.3397C23.6411 48.9466 23.3266 48.4748 23.2218 48.1603C23.1431 47.872 23.0645 47.4264 23.0645 47.1774C23.0645 46.9284 23.1431 46.4829 23.2218 46.1946C23.3266 45.88 23.6411 45.4083 24.0474 45.0151C24.4012 44.6482 24.9123 44.2812 25.1613 44.2026C25.4103 44.124 25.751 44.0585 25.9214 44.0454Z" fill="white"/>
</svg>
