<svg width="95" height="95" viewBox="0 0 95 95" fill="none" xmlns="http://www.w3.org/2000/svg">
<path fill-rule="evenodd" clip-rule="evenodd" d="M7.0282 0.00210711C8.31015 -0.0164508 8.64457 0.0763388 11.3014 1.09702C12.8806 1.70944 19.5691 4.3261 38.1481 11.6379L38.7055 11.1925C39.0213 10.9327 39.6344 10.543 40.0989 10.3203C40.7492 10.0048 41.2508 9.91204 42.3284 9.9306C43.4431 9.9306 43.9076 10.0234 44.6508 10.4131C45.171 10.6729 45.8956 11.2482 46.2857 11.6936C46.6759 12.139 47.1218 12.937 47.289 13.438C47.4748 14.0319 47.5491 14.7 47.4748 15.2938C47.4191 15.8135 47.0846 16.8898 46.0442 19.191L46.7502 19.7477C47.1218 20.0447 47.9207 20.787 48.4966 21.3623C49.0912 21.9561 49.7414 22.7727 49.9458 23.181C50.1502 23.5892 50.3917 24.5542 50.5032 25.3151C50.6147 26.076 50.8562 27.0224 51.042 27.4122C51.2278 27.7833 51.525 28.5628 51.6922 29.1195C51.8594 29.6762 51.9895 30.6412 51.9895 31.2537C51.9895 31.9403 51.8223 32.8311 51.5436 33.5734C51.3021 34.2415 50.9677 35.1508 50.7819 35.6148C50.5403 36.2457 50.4846 36.7654 50.5775 37.6561C50.6332 38.3242 50.9305 39.6418 51.2463 40.5883C51.5436 41.5162 51.8037 42.4626 51.8037 42.6668C51.8037 42.9823 51.9338 43.0379 52.6398 43.0379C53.4201 43.0379 53.4758 43.0008 53.4758 42.5369C53.4758 42.2399 53.6059 41.1821 53.7545 40.1615C53.9031 39.1408 54.2933 37.4706 54.6091 36.4499C54.925 35.4292 55.5938 33.759 56.0955 32.7383C56.6157 31.7176 57.5261 30.2144 58.1206 29.3979C58.7337 28.5813 59.3468 27.7462 59.514 27.5421C59.7555 27.2266 59.7555 27.041 59.5883 26.3358C59.4583 25.8719 59.4211 25.1295 59.4769 24.6656C59.5512 24.1831 59.867 23.4408 60.2014 22.9026C60.6288 22.2716 61.0932 21.8448 61.7435 21.5107C62.4123 21.1767 62.9326 21.0468 63.6943 21.0654C64.3446 21.0839 64.9948 21.2324 65.4965 21.4736C65.9424 21.6963 66.3325 21.9747 66.3883 22.0675C66.444 22.1788 66.6112 22.2531 66.7598 22.2531C66.9085 22.2531 71.739 20.2674 87.94 13.4566H89.4263C90.6525 13.438 91.0798 13.5123 91.8416 13.902C92.3432 14.1432 93.0678 14.6443 93.4208 15.0155C93.7924 15.3681 94.294 16.0918 94.5355 16.5929C94.9071 17.3352 95 17.7992 95 18.9126C95 20.0447 94.9071 20.5086 94.4984 21.3252C94.2383 21.8819 93.6437 22.6799 93.1793 23.0882C92.4918 23.7191 90.6897 24.5357 81.7346 28.2844C71.7205 32.4785 71.1073 32.7568 71.1259 33.2022C71.1259 33.462 70.9401 34.0373 70.7358 34.5013C70.5314 34.9652 70.1784 35.5405 69.9554 35.7818C69.7325 36.023 69.138 36.4128 68.6178 36.654C68.1161 36.8953 67.3544 37.0994 66.9456 37.0808C66.5369 37.0808 65.868 36.9695 65.4593 36.821C65.0506 36.6726 64.679 36.5427 64.6233 36.5427C64.5675 36.5427 64.4189 37.2293 64.3074 38.0644C64.1774 38.9181 64.0101 40.3841 63.7872 43.0379H71.8691L72.3336 43.5019C72.5937 43.7617 72.798 44.17 72.798 44.4298C72.798 44.6896 72.1478 46.1742 69.9183 50.5539L69.7325 89.3585L69.0451 90.7504C68.6178 91.6411 68.0604 92.4206 67.4659 92.9587C66.9828 93.4041 65.9609 94.0537 63.8801 95.0001H31.181L29.8433 94.3877C29.1001 94.0537 28.0783 93.4041 27.5952 92.9587C27.0007 92.4206 26.4433 91.6411 25.3286 89.3585L25.1428 50.5539L23.7122 47.7331C22.9133 46.1742 22.263 44.6896 22.263 44.4298C22.263 44.17 22.4674 43.7617 23.1734 43.0379H32.2957C37.2935 43.0379 41.3994 42.9823 41.3994 42.908C41.3994 42.8152 41.1393 41.9616 40.8235 40.9966C40.4519 39.8645 40.2104 38.6768 40.1546 37.6561C40.0617 36.2828 40.1175 35.9117 40.5262 34.7797C40.7677 34.0745 41.1208 33.1094 41.3065 32.6455C41.5295 32.0702 41.5852 31.4949 41.5295 30.7897C41.4738 30.233 41.3251 29.5463 40.935 28.7854L40.0989 29.1566C39.6344 29.3607 38.8355 29.5834 38.3339 29.6391C37.7765 29.6948 36.9962 29.602 36.3831 29.435C35.7142 29.2494 35.0454 28.8782 34.4509 28.3401C33.9492 27.8947 33.3733 27.208 33.1689 26.7997C32.9831 26.3915 32.7788 25.6492 32.6301 24.2016L19.0488 18.8384C11.5615 15.8877 4.87303 13.2153 4.14844 12.8999C3.40528 12.5658 2.49491 11.9534 2.01185 11.4895C1.54738 11.0255 0.934267 10.1718 0.655581 9.59655C0.376895 8.98414 0.0982095 8.01913 0.0424724 7.3696C-0.0504229 6.51594 0.00531427 5.90353 0.246842 5.08698C0.432632 4.47457 0.748476 3.67658 0.990004 3.32398C1.21295 2.97137 1.84464 2.26617 2.40201 1.78367C2.95938 1.2826 3.88834 0.707308 4.52002 0.447497C5.30034 0.150571 6.04351 0.020665 7.0282 0.00210711ZM3.62823 4.71582C3.27523 5.19833 3.07086 5.77362 2.99654 6.38603C2.92223 7.07268 2.99654 7.53662 3.25665 8.14904C3.44244 8.61298 3.90691 9.2254 4.25992 9.50376C4.59434 9.80069 5.89487 10.4502 7.12109 10.9327L9.35058 11.8421C25.793 11.8606 30.0848 11.8049 29.9733 11.7122C29.8618 11.6194 27.1121 10.4873 23.8422 9.20684C20.5723 7.92634 15.7604 6.01487 13.1593 4.99419C9.64784 3.60234 8.12436 3.08272 7.30688 3.00849C6.32219 2.93426 6.06209 2.98993 5.17029 3.45388C4.59434 3.76937 3.94407 4.30755 3.62823 4.71582ZM40.4148 13.7535C40.2475 13.9948 39.1142 16.4444 37.888 19.191C36.6618 21.9376 35.6399 24.3872 35.6399 24.6285C35.6399 24.8512 35.7514 25.2594 35.9 25.5564C36.0301 25.8347 36.4574 26.2059 36.829 26.3915C37.2006 26.5585 37.7208 26.707 38.0181 26.707C38.2967 26.707 38.817 26.5214 39.1514 26.2987C39.7273 25.9275 40.0803 25.2409 42.1798 20.5828C43.4803 17.6693 44.5579 15.0897 44.5579 14.8299C44.5579 14.5701 44.4092 14.1432 44.1863 13.8649C43.9819 13.5679 43.5732 13.2153 43.2573 13.0669C42.9415 12.9184 42.5142 12.7885 42.2912 12.7885C42.0497 12.8071 41.6038 12.9184 41.288 13.0669C40.9721 13.1968 40.582 13.5123 40.4148 13.7535ZM25.9231 18.3373C30.1405 19.9704 33.6334 21.3066 33.6706 21.288C33.7077 21.2509 34.2651 20.0632 34.8968 18.6343C35.547 17.2053 36.1787 15.7578 36.3088 15.4423L36.5689 14.8299C18.8816 14.8484 17.4139 14.8856 17.804 15.0897C18.0642 15.2196 21.7242 16.6857 25.9417 18.3373H25.9231ZM82.3291 19.1539C82.2548 19.2281 84.4471 19.2838 87.1968 19.2838H92.1946C91.9902 18.2074 91.7672 17.6878 91.5815 17.428C91.3957 17.1682 90.9498 16.8156 90.5968 16.6486C90.2438 16.463 89.705 16.3145 89.4077 16.3145C89.1104 16.3331 87.4197 16.9269 85.6547 17.6693C83.9083 18.4116 82.4034 19.0611 82.3291 19.1539ZM43.9076 24.0161C43.0716 25.909 43.053 25.9832 43.3131 26.6698C43.4617 27.041 43.759 27.8204 43.9819 28.3772C44.2049 28.9339 44.4278 29.8989 44.4836 30.5113C44.5393 31.1237 44.4836 32.0888 44.3721 32.6455C44.242 33.2022 43.9262 34.1672 43.6475 34.7797C43.2388 35.689 43.1459 36.1529 43.1459 37.285C43.1645 38.3428 43.3131 39.1222 43.759 40.4955C44.0934 41.4791 44.3535 42.4626 44.3535 42.6668C44.3535 43.0194 44.4836 43.0379 46.583 43.0379C47.8092 43.0379 48.8125 42.9823 48.8125 42.908C48.8125 42.8152 48.5338 41.9616 48.2179 40.9966C47.7163 39.4563 47.6234 38.9737 47.6234 37.1922C47.6048 35.2436 47.642 35.0951 48.2551 33.759C48.7939 32.6269 48.9054 32.1444 48.9054 31.1609C48.9054 30.1958 48.7753 29.6948 48.3108 28.6555C47.995 27.9503 47.6792 26.8925 47.6048 26.3358C47.5491 25.7791 47.4562 25.1295 47.4005 24.9068C47.3633 24.6656 46.9732 24.0903 46.5273 23.6263C46.0999 23.1438 45.524 22.6057 45.2639 22.4201L44.7622 22.0675L43.9076 24.0161ZM71.386 23.6263C69.621 24.3872 68.2462 25.0739 68.2833 25.2038C68.3019 25.3151 68.7292 26.3915 69.2494 27.5977C69.8068 28.9154 70.2527 29.7505 70.4013 29.7319C70.5314 29.6948 74.4144 28.1174 79.0034 26.1873C83.611 24.2759 87.5312 22.6057 87.7356 22.4758C88.0329 22.3087 86.528 22.2716 81.3258 22.2716L74.5445 22.2902L71.386 23.6263ZM62.561 24.8512C62.338 25.2594 62.4867 25.7048 64.0659 29.4721C65.1063 31.9589 65.9609 33.7219 66.1839 33.8703C66.3883 34.0188 66.7227 34.1301 66.9271 34.1301C67.1314 34.1301 67.4844 33.9445 67.7074 33.7033C67.9489 33.4806 68.1347 33.1466 68.1347 32.961C68.1347 32.794 67.373 30.8268 66.444 28.5999C65.515 26.3915 64.6604 24.48 64.5489 24.3501C64.4189 24.2388 64.1588 24.0903 63.9544 24.0346C63.75 23.9789 63.4156 24.0346 63.1927 24.1645C62.9697 24.2759 62.691 24.5914 62.561 24.8512ZM60.6845 30.8268C60.4244 31.1609 59.9599 31.8475 59.6626 32.3671C59.3468 32.8682 58.9009 33.7033 58.678 34.2229C58.455 34.724 58.0648 35.6519 57.8419 36.2643C57.6004 36.8767 57.2288 38.2129 57.0244 39.2336C56.82 40.2542 56.5971 41.5162 56.5414 42.0544L56.4299 43.0379H60.8889C60.8889 41.7389 60.9818 40.5512 61.0747 39.549C61.1861 38.5655 61.4834 36.6169 61.7435 35.2436L62.2266 32.7383L61.149 30.2144L60.6845 30.8268ZM27.6324 48.9765H67.3915L68.8779 46.0072H26.146L27.6324 48.9765ZM28.1897 70.0768C28.1897 83.6427 28.2455 88.4121 28.4127 88.9688C28.5427 89.4142 29.0072 90.0637 29.5646 90.639C30.1405 91.2143 30.7908 91.6597 31.2553 91.7896C31.7941 91.9566 35.9744 92.0123 47.5119 92.0123C59.031 92.0123 63.2112 91.9566 63.7686 91.7896C64.2145 91.6597 64.8648 91.2143 65.4407 90.639C66.0167 90.0637 66.4626 89.4142 66.5926 88.9688C66.7598 88.4121 66.8156 83.6427 66.8156 70.0768L66.8342 51.9457H28.1897V70.0768ZM66.8156 1.44963H69.7882V4.41889H72.7609V7.38816H69.7882V10.3574H66.8156V7.38816H63.8429V4.41889H66.8156V1.44963ZM56.3184 11.8606C56.7272 11.8606 57.396 11.9534 57.8047 12.0648C58.2692 12.2132 58.9195 12.6586 59.4954 13.2339C60.0714 13.8092 60.5173 14.4587 60.6473 14.9041C60.7774 15.3124 60.8703 15.9434 60.8703 16.296C60.8703 16.6486 60.7774 17.2795 60.6473 17.6878C60.5173 18.0775 60.0714 18.7827 59.6626 19.2652C59.1548 19.822 58.5974 20.2117 57.9905 20.4344C57.4889 20.6014 56.7829 20.7499 56.4113 20.7499C56.0583 20.7499 55.4266 20.6385 55.0179 20.5272C54.572 20.3787 53.9217 19.9333 53.3458 19.358C52.7698 18.8013 52.3239 18.1518 52.1939 17.6878C52.0638 17.2795 51.9709 16.6486 51.9709 16.296C51.9709 15.9434 52.0638 15.3124 52.1939 14.9041C52.3239 14.4587 52.7698 13.7906 53.3458 13.2339C53.866 12.7143 54.572 12.1947 54.925 12.0833C55.2966 11.972 55.9097 11.8792 56.3184 11.8606ZM54.9436 16.296C54.9436 16.6486 55.0922 17.0197 55.3895 17.3167C55.6867 17.6136 56.0769 17.7806 56.4299 17.7806C56.7829 17.7806 57.1545 17.6136 57.4517 17.3167C57.7304 17.0383 57.8976 16.63 57.8976 16.296C57.8976 15.9434 57.7304 15.5722 57.4332 15.2753C57.1545 14.9784 56.7643 14.8113 56.4113 14.8113C56.0583 14.8113 55.6867 14.9784 55.3895 15.2753C55.1294 15.5351 54.9436 15.9434 54.9436 16.296ZM66.8156 13.3267H69.7882V16.296H66.8156V13.3267ZM16.2806 23.7191H19.2532V26.6884H22.2259V29.6577H19.2532V32.6269H16.2806V29.6577H13.3079V26.6884H16.2806V23.7191ZM31.0509 31.1609C31.4596 31.1609 32.1285 31.2537 32.5372 31.365C33.0017 31.5135 33.652 31.9589 34.2279 32.5341C34.8039 33.1094 35.2498 33.759 35.3798 34.2044C35.5099 34.6126 35.6028 35.2436 35.6028 35.5962C35.6028 35.9488 35.5099 36.5798 35.3798 36.988C35.2498 37.3778 34.8039 38.083 34.3951 38.5655C33.8873 39.1222 33.3299 39.5119 32.723 39.7346C32.2214 39.9016 31.5154 40.0501 31.1438 40.0501C30.7908 40.0501 30.1591 39.9388 29.7504 39.8274C29.3045 39.679 28.6542 39.2336 28.0783 38.6583C27.5023 38.1015 27.0564 37.452 26.9264 36.988C26.7963 36.5798 26.7034 35.9488 26.7034 35.5962C26.7034 35.2436 26.7963 34.6126 26.9264 34.2044C27.0564 33.759 27.5023 33.0909 28.0783 32.5341C28.5985 32.0145 29.3045 31.4949 29.6575 31.3836C30.0291 31.2722 30.6422 31.1794 31.0509 31.1609ZM29.6761 35.5962C29.6761 35.9488 29.8247 36.32 30.122 36.6169C30.4192 36.9138 30.8094 37.0808 31.1624 37.0808C31.5154 37.0808 31.887 36.9138 32.1842 36.6169C32.4629 36.3385 32.6301 35.9302 32.6301 35.5962C32.6301 35.2436 32.4629 34.8724 32.1656 34.5755C31.887 34.2786 31.4968 34.1116 31.1438 34.1116C30.7908 34.1116 30.4192 34.2786 30.122 34.5755C29.8618 34.8353 29.6761 35.2436 29.6761 35.5962ZM16.2806 35.5962H19.2532V38.5655H16.2806V35.5962ZM80.1925 38.5655H83.1651V41.5347H86.1378V44.504H83.1651V47.4733H80.1925V44.504H77.2198V41.5347H80.1925V38.5655ZM80.1925 50.4425H83.1651V53.4118H80.1925V50.4425ZM31.1438 54.8964H34.1165V57.8657H31.1438V54.8964ZM56.4113 57.8657H63.8429V60.835H56.4113V57.8657ZM31.1438 60.835H34.1165V87.5584H31.1438V60.835ZM54.925 63.8042H65.3293V66.7735H54.925V63.8042ZM56.4113 69.7428H63.8429V72.7121H56.4113V69.7428ZM54.925 75.6813H65.3293V78.6506H54.925V75.6813ZM56.4113 81.6199H63.8429V84.5891H56.4113V81.6199Z" fill="url(#paint0_linear_1142_138)"/>
<defs>
<linearGradient id="paint0_linear_1142_138" x1="47.5" y1="0.00012207" x2="47.5" y2="95.0001" gradientUnits="userSpaceOnUse">
<stop stop-color="#D35FFF"/>
<stop offset="1" stop-color="#7F3999"/>
</linearGradient>
</defs>
</svg>
