<svg width="65" height="65" viewBox="0 0 65 65" fill="none" xmlns="http://www.w3.org/2000/svg">
<path fill-rule="evenodd" clip-rule="evenodd" d="M4.80877 0.00135819C5.68589 -0.0113393 5.91471 0.0521483 7.73252 0.750512C8.81304 1.16953 13.3894 2.95988 26.1013 7.96271L26.4827 7.65797C26.6988 7.4802 27.1183 7.21355 27.4361 7.06118C27.881 6.84532 28.2242 6.78184 28.9615 6.79454C29.7243 6.79454 30.042 6.85802 30.5505 7.12467C30.9065 7.30244 31.4022 7.69606 31.6692 8.0008C31.9361 8.30554 32.2412 8.85153 32.3556 9.19437C32.4828 9.60069 32.5336 10.0578 32.4828 10.4641C32.4446 10.8197 32.2158 11.5561 31.5039 13.1306L31.987 13.5115C32.2412 13.7147 32.7878 14.2226 33.1819 14.6162C33.5887 15.0225 34.0336 15.5812 34.1734 15.8606C34.3133 16.1399 34.4785 16.8002 34.5548 17.3208C34.6311 17.8414 34.7963 18.489 34.9235 18.7556C35.0506 19.0096 35.254 19.5429 35.3684 19.9238C35.4828 20.3047 35.5718 20.965 35.5718 21.384C35.5718 21.8538 35.4574 22.4633 35.2667 22.9712C35.1014 23.4283 34.8726 24.0505 34.7455 24.3679C34.5802 24.7996 34.5421 25.1552 34.6057 25.7646C34.6438 26.2218 34.8472 27.1233 35.0633 27.7708C35.2667 28.4057 35.4446 29.0533 35.4446 29.193C35.4446 29.4088 35.5336 29.4469 36.0167 29.4469C36.5506 29.4469 36.5887 29.4215 36.5887 29.1041C36.5887 28.9009 36.6777 28.1772 36.7794 27.4788C36.8811 26.7804 37.148 25.6377 37.3642 24.9393C37.5803 24.2409 38.0379 23.0982 38.3811 22.3998C38.737 21.7014 39.3599 20.6729 39.7667 20.1142C40.1862 19.5555 40.6057 18.9842 40.7201 18.8445C40.8854 18.6286 40.8854 18.5017 40.771 18.0191C40.682 17.7017 40.6566 17.1938 40.6947 16.8764C40.7455 16.5462 40.9616 16.0383 41.1905 15.6701C41.4828 15.2384 41.8006 14.9463 42.2456 14.7178C42.7032 14.4892 43.0591 14.4004 43.5803 14.4131C44.0252 14.4257 44.4701 14.5273 44.8134 14.6924C45.1185 14.8448 45.3854 15.0352 45.4236 15.0987C45.4617 15.1749 45.5761 15.2257 45.6778 15.2257C45.7795 15.2257 49.0846 13.8671 60.1695 9.20707H61.1864C62.0254 9.19437 62.3178 9.24516 62.839 9.51181C63.1822 9.67687 63.678 10.0197 63.9195 10.2737C64.1737 10.5149 64.5169 11.0101 64.6822 11.3529C64.9364 11.8608 65 12.1783 65 12.9401C65 13.7147 64.9364 14.0321 64.6568 14.5908C64.4788 14.9717 64.072 15.5177 63.7542 15.7971C63.2839 16.2288 62.0508 16.7875 55.9236 19.3524C49.0719 22.222 48.6524 22.4125 48.6651 22.7172C48.6651 22.895 48.538 23.2886 48.3982 23.6061C48.2583 23.9235 48.0168 24.3171 47.8642 24.4822C47.7117 24.6473 47.3049 24.9139 46.949 25.079C46.6058 25.244 46.0846 25.3837 45.8049 25.371C45.5252 25.371 45.0676 25.2948 44.788 25.1933C44.5083 25.0917 44.254 25.0028 44.2159 25.0028C44.1778 25.0028 44.0761 25.4726 43.9998 26.044C43.9108 26.6281 43.7964 27.6312 43.6439 29.4469H49.1736L49.4914 29.7644C49.6694 29.9421 49.8092 30.2215 49.8092 30.3992C49.8092 30.577 49.3643 31.5928 47.8388 34.5894L47.7117 61.14L47.2414 62.0923C46.949 62.7017 46.5676 63.235 46.1608 63.6033C45.8303 63.908 45.1312 64.3524 43.7074 65H21.3343L20.4191 64.581C19.9106 64.3524 19.2114 63.908 18.8809 63.6033C18.4741 63.235 18.0928 62.7017 17.3301 61.14L17.2029 34.5894L16.2241 32.6594C15.6775 31.5928 15.2326 30.577 15.2326 30.3992C15.2326 30.2215 15.3724 29.9421 15.8555 29.4469H22.0971C25.5166 29.4469 28.3259 29.4088 28.3259 29.358C28.3259 29.2946 28.148 28.7105 27.9319 28.0502C27.6776 27.2756 27.5124 26.463 27.4742 25.7646C27.4107 24.825 27.4488 24.5711 27.7285 23.7965C27.8937 23.314 28.1353 22.6537 28.2624 22.3363C28.4149 21.9427 28.4531 21.5491 28.4149 21.0666C28.3768 20.6856 28.2751 20.2158 28.0081 19.6952L27.4361 19.9492C27.1183 20.0888 26.5717 20.2412 26.2285 20.2793C25.8471 20.3174 25.3132 20.2539 24.8937 20.1396C24.4361 20.0127 23.9784 19.7587 23.5717 19.3905C23.2284 19.0857 22.8344 18.6159 22.6945 18.3366C22.5674 18.0572 22.4276 17.5493 22.3259 16.5589L13.0334 12.8893C7.91049 10.8704 3.33418 9.042 2.83841 8.82614C2.32993 8.59758 1.70704 8.17857 1.37653 7.86113C1.05873 7.54369 0.639235 6.9596 0.448555 6.56598C0.257876 6.14696 0.067196 5.48669 0.02906 5.04228C-0.0344999 4.45819 0.00363608 4.03917 0.168892 3.48048C0.296012 3.06146 0.512115 2.51547 0.677371 2.27422C0.829915 2.03296 1.26212 1.55046 1.64348 1.22032C2.02484 0.877488 2.66044 0.483864 3.09265 0.306099C3.62655 0.102938 4.13503 0.0140557 4.80877 0.00135819V0.00135819ZM2.48247 3.22653C2.24094 3.55667 2.10111 3.95029 2.05027 4.36931C1.99942 4.83912 2.05027 5.15655 2.22823 5.57557C2.35535 5.89301 2.67315 6.31203 2.91468 6.50249C3.1435 6.70565 4.03333 7.15007 4.87233 7.4802L6.39776 8.10238C17.6479 8.11508 20.5843 8.07699 20.5081 8.0135C20.4318 7.95001 18.5504 7.17546 16.3131 6.29933C14.0758 5.4232 10.7834 4.11536 9.00372 3.41699C6.60116 2.46468 5.55877 2.10915 4.99944 2.05836C4.32571 2.00757 4.14774 2.04566 3.53757 2.3631C3.1435 2.57896 2.69858 2.94718 2.48247 3.22653V3.22653ZM27.6522 9.41023C27.5378 9.57529 26.7624 11.2514 25.9234 13.1306C25.0844 15.0098 24.3852 16.6859 24.3852 16.851C24.3852 17.0033 24.4615 17.2827 24.5632 17.4859C24.6522 17.6763 24.9445 17.9303 25.1988 18.0572C25.453 18.1715 25.809 18.2731 26.0124 18.2731C26.203 18.2731 26.559 18.1461 26.7878 17.9938C27.1819 17.7398 27.4234 17.27 28.8598 14.0829C29.7497 12.0894 30.487 10.3244 30.487 10.1467C30.487 9.96892 30.3853 9.67687 30.2327 9.48641C30.0929 9.28325 29.8132 9.042 29.5971 8.94042C29.381 8.83884 29.0887 8.74995 28.9361 8.74995C28.7709 8.76265 28.4658 8.83884 28.2497 8.94042C28.0336 9.0293 27.7666 9.24516 27.6522 9.41023V9.41023ZM17.7369 12.5465C20.6225 13.6639 23.0123 14.5781 23.0377 14.5654C23.0632 14.54 23.4445 13.7274 23.8767 12.7497C24.3217 11.772 24.7539 10.7816 24.8428 10.5657L25.0208 10.1467C12.919 10.1594 11.9148 10.1848 12.1817 10.3244C12.3597 10.4133 14.8639 11.4164 17.7496 12.5465H17.7369ZM56.3304 13.1052C56.2796 13.156 57.7796 13.1941 59.661 13.1941H63.0805C62.9407 12.4576 62.7881 12.1021 62.661 11.9243C62.5339 11.7466 62.2288 11.5053 61.9873 11.391C61.7457 11.2641 61.3771 11.1625 61.1737 11.1625C60.9703 11.1752 59.8135 11.5815 58.6059 12.0894C57.4109 12.5973 56.3813 13.0417 56.3304 13.1052ZM30.042 16.432C29.47 17.7271 29.4573 17.7779 29.6353 18.2477C29.737 18.5017 29.9404 19.035 30.0929 19.4159C30.2454 19.7968 30.398 20.4571 30.4361 20.8761C30.4743 21.2951 30.4361 21.9554 30.3598 22.3363C30.2709 22.7172 30.0548 23.3775 29.8641 23.7965C29.5844 24.4187 29.5209 24.7361 29.5209 25.5107C29.5336 26.2344 29.6353 26.7677 29.9404 27.7074C30.1692 28.3803 30.3471 29.0533 30.3471 29.193C30.3471 29.4342 30.4361 29.4469 31.8726 29.4469C32.7116 29.4469 33.398 29.4088 33.398 29.358C33.398 29.2946 33.2073 28.7105 32.9912 28.0502C32.648 26.9963 32.5844 26.6662 32.5844 25.4472C32.5717 24.114 32.5972 24.0124 33.0167 23.0982C33.3853 22.3236 33.4616 21.9935 33.4616 21.3205C33.4616 20.6602 33.3726 20.3174 33.0548 19.6063C32.8387 19.1238 32.6226 18.4001 32.5717 18.0191C32.5336 17.6382 32.47 17.1938 32.4319 17.0414C32.4065 16.8764 32.1395 16.4827 31.8344 16.1653C31.5421 15.8352 31.148 15.4669 30.97 15.34L30.6268 15.0987L30.042 16.432ZM48.8431 16.1653C47.6354 16.6859 46.6947 17.1557 46.7202 17.2446C46.7329 17.3208 47.0253 18.0572 47.3812 18.8826C47.7626 19.7841 48.0676 20.3555 48.1693 20.3428C48.2583 20.3174 50.9151 19.2381 54.055 17.9176C57.2076 16.6097 59.8898 15.4669 60.0296 15.3781C60.233 15.2638 59.2033 15.2384 55.644 15.2384L51.0041 15.2511L48.8431 16.1653ZM42.8049 17.0033C42.6523 17.2827 42.754 17.5874 43.8346 20.165C44.5464 21.8665 45.1312 23.0728 45.2837 23.1743C45.4235 23.2759 45.6524 23.3521 45.7922 23.3521C45.932 23.3521 46.1736 23.2251 46.3261 23.0601C46.4914 22.9077 46.6185 22.6791 46.6185 22.5522C46.6185 22.4379 46.0973 21.092 45.4617 19.5682C44.8261 18.0572 44.2413 16.7494 44.1651 16.6605C44.0761 16.5843 43.8981 16.4827 43.7583 16.4447C43.6184 16.4066 43.3896 16.4447 43.2371 16.5335C43.0845 16.6097 42.8939 16.8256 42.8049 17.0033V17.0033ZM41.521 21.092C41.343 21.3205 41.0252 21.7903 40.8218 22.1458C40.6057 22.4887 40.3006 23.0601 40.1481 23.4156C39.9955 23.7584 39.7286 24.3933 39.576 24.8123C39.4108 25.2313 39.1565 26.1456 39.0167 26.8439C38.8769 27.5423 38.7243 28.4057 38.6862 28.774L38.6099 29.4469H41.6608C41.6608 28.5581 41.7244 27.7455 41.7879 27.0598C41.8642 26.3868 42.0676 25.0536 42.2456 24.114L42.5761 22.3998L41.8388 20.6729L41.521 21.092ZM18.9064 33.5101H46.11L47.127 31.4785H17.8894L18.9064 33.5101ZM19.2877 47.9472C19.2877 57.2291 19.3258 60.4924 19.4403 60.8733C19.5292 61.178 19.847 61.6225 20.2284 62.0161C20.6225 62.4097 21.0674 62.7144 21.3852 62.8033C21.7538 62.9176 24.614 62.9557 32.5082 62.9557C40.3896 62.9557 43.2498 62.9176 43.6312 62.8033C43.9362 62.7144 44.3812 62.4097 44.7752 62.0161C45.1693 61.6225 45.4744 61.178 45.5634 60.8733C45.6778 60.4924 45.7159 57.2291 45.7159 47.9472L45.7286 35.5417H19.2877V47.9472ZM45.7159 0.991765H47.7498V3.02337H49.7838V5.05497H47.7498V7.08658H45.7159V5.05497H43.682V3.02337H45.7159V0.991765ZM38.5337 8.11508C38.8133 8.11508 39.2709 8.17857 39.5506 8.25475C39.8684 8.35633 40.3133 8.66107 40.7074 9.0547C41.1015 9.44832 41.4066 9.89273 41.4955 10.1975C41.5845 10.4768 41.6481 10.9085 41.6481 11.1498C41.6481 11.391 41.5845 11.8228 41.4955 12.1021C41.4066 12.3687 41.1015 12.8513 40.8218 13.1814C40.4744 13.5623 40.093 13.829 39.6777 13.9813C39.3345 14.0956 38.8515 14.1972 38.5972 14.1972C38.3557 14.1972 37.9235 14.121 37.6438 14.0448C37.3387 13.9432 36.8938 13.6385 36.4997 13.2449C36.1057 12.864 35.8006 12.4195 35.7116 12.1021C35.6226 11.8228 35.5591 11.391 35.5591 11.1498C35.5591 10.9085 35.6226 10.4768 35.7116 10.1975C35.8006 9.89273 36.1057 9.43562 36.4997 9.0547C36.8557 8.69916 37.3387 8.34363 37.5803 8.26745C37.8345 8.19126 38.254 8.12778 38.5337 8.11508V8.11508ZM37.593 11.1498C37.593 11.391 37.6947 11.645 37.8981 11.8482C38.1014 12.0513 38.3684 12.1656 38.6099 12.1656C38.8515 12.1656 39.1057 12.0513 39.3091 11.8482C39.4998 11.6577 39.6142 11.3783 39.6142 11.1498C39.6142 10.9085 39.4998 10.6546 39.2964 10.4514C39.1057 10.2483 38.8387 10.134 38.5972 10.134C38.3557 10.134 38.1014 10.2483 37.8981 10.4514C37.7201 10.6292 37.593 10.9085 37.593 11.1498ZM45.7159 9.11818H47.7498V11.1498H45.7159V9.11818ZM11.1393 16.2288H13.1732V18.2604H15.2072V20.292H13.1732V22.3236H11.1393V20.292H9.10542V18.2604H11.1393V16.2288ZM21.2454 21.3205C21.525 21.3205 21.9827 21.384 22.2623 21.4602C22.5801 21.5618 23.025 21.8665 23.4191 22.2601C23.8132 22.6537 24.1183 23.0982 24.2073 23.4029C24.2962 23.6822 24.3598 24.114 24.3598 24.3552C24.3598 24.5965 24.2962 25.0282 24.2073 25.3075C24.1183 25.5742 23.8132 26.0567 23.5335 26.3868C23.1861 26.7677 22.8047 27.0344 22.3894 27.1868C22.0462 27.301 21.5632 27.4026 21.3089 27.4026C21.0674 27.4026 20.6352 27.3264 20.3555 27.2503C20.0504 27.1487 19.6055 26.8439 19.2114 26.4503C18.8174 26.0694 18.5123 25.625 18.4233 25.3075C18.3343 25.0282 18.2708 24.5965 18.2708 24.3552C18.2708 24.114 18.3343 23.6822 18.4233 23.4029C18.5123 23.0982 18.8174 22.641 19.2114 22.2601C19.5674 21.9046 20.0504 21.5491 20.292 21.4729C20.5462 21.3967 20.9657 21.3332 21.2454 21.3205V21.3205ZM20.3047 24.3552C20.3047 24.5965 20.4064 24.8504 20.6098 25.0536C20.8132 25.2567 21.0801 25.371 21.3216 25.371C21.5632 25.371 21.8174 25.2567 22.0208 25.0536C22.2115 24.8631 22.3259 24.5838 22.3259 24.3552C22.3259 24.114 22.2115 23.86 22.0081 23.6569C21.8174 23.4537 21.5504 23.3394 21.3089 23.3394C21.0674 23.3394 20.8132 23.4537 20.6098 23.6569C20.4318 23.8346 20.3047 24.114 20.3047 24.3552ZM11.1393 24.3552H13.1732V26.3868H11.1393V24.3552ZM54.8686 26.3868H56.9025V28.4184H58.9364V30.45H56.9025V32.4816H54.8686V30.45H52.8346V28.4184H54.8686V26.3868ZM54.8686 34.5132H56.9025V36.5448H54.8686V34.5132ZM21.3089 37.5606H23.3428V39.5922H21.3089V37.5606ZM38.5972 39.5922H43.682V41.6239H38.5972V39.5922ZM21.3089 41.6239H23.3428V59.9083H21.3089V41.6239ZM37.5803 43.6555H44.699V45.6871H37.5803V43.6555ZM38.5972 47.7187H43.682V49.7503H38.5972V47.7187ZM37.5803 51.7819H44.699V53.8135H37.5803V51.7819ZM38.5972 55.8451H43.682V57.8767H38.5972V55.8451Z" fill="white"/>
</svg>
