<svg width="30" height="40" viewBox="0 0 37 57" fill="none" xmlns="http://www.w3.org/2000/svg">
<path d="M9.07739 56.189C14.0588 56.189 18.0774 52.0215 18.0774 46.8556V37.5223H9.07739C4.096 37.5223 0.0773926 41.6897 0.0773926 46.8556C0.0773926 52.0215 4.096 56.189 9.07739 56.189Z" fill="#A1CF0A"/>
<path d="M0.0773926 28.189C0.0773926 23.0231 4.096 18.8556 9.07739 18.8556H18.0774V37.5223H9.07739C4.096 37.5223 0.0773926 33.3549 0.0773926 28.189Z" fill="#D3FF59"/>
<path d="M0.0773926 9.5223C0.0773926 4.35641 4.096 0.188965 9.07739 0.188965H18.0774V18.8556H9.07739C4.096 18.8556 0.0773926 14.6882 0.0773926 9.5223Z" fill="#CFF21E"/>
<path d="M18.0774 0.188965H27.0774C32.0588 0.188965 36.0774 4.35641 36.0774 9.5223C36.0774 14.6882 32.0588 18.8556 27.0774 18.8556H18.0774V0.188965Z" fill="#E7FF62"/>
<path d="M36.0774 28.189C36.0774 33.3549 32.0588 37.5223 27.0774 37.5223C22.096 37.5223 18.0774 33.3549 18.0774 28.189C18.0774 23.0231 22.096 18.8556 27.0774 18.8556C32.0588 18.8556 36.0774 23.0231 36.0774 28.189Z" fill="#C9FE1A"/>
</svg>
