<svg width="30" height="29" viewBox="0 0 30 29" fill="none" xmlns="http://www.w3.org/2000/svg">
<path d="M12.7141 10.7536C12.3916 8.0417 12.0897 5.32983 11.8085 2.61795C11.6596 1.21867 12.0381 -0.0815598 13.7813 0.438527C14.0392 0.515977 14.2687 0.666225 14.4417 0.870807C14.6147 1.07539 14.7236 1.32541 14.7551 1.59016L15.8098 10.2768C15.847 10.5575 15.9585 10.5926 16.1446 10.3821C17.5135 8.82596 18.8453 7.26158 20.1397 5.68893C21.0495 4.58272 21.9717 4.51255 22.9064 5.47843C23.1088 5.6892 23.2274 5.96637 23.24 6.25809C23.2526 6.54981 23.1581 6.83611 22.9745 7.06345L18.7873 12.2581C18.7603 12.2898 18.7438 12.3287 18.7395 12.3698C18.7353 12.411 18.7436 12.4527 18.7635 12.4897C18.7833 12.5267 18.8138 12.5573 18.8512 12.5778C18.8885 12.5983 18.931 12.6077 18.9734 12.6048C21.8972 12.3696 24.85 12.0621 27.8318 11.6823C29.5811 11.4594 30.0961 13.5521 28.9608 14.5428C28.9003 14.5951 28.8266 14.6275 28.7499 14.6357L19.1781 15.7563C19.142 15.7596 19.1081 15.7738 19.0806 15.7971C19.0531 15.8205 19.0335 15.8518 19.0241 15.8872C19.0148 15.9225 19.0161 15.9603 19.0281 15.9954C19.04 16.0306 19.062 16.0616 19.0912 16.0845C20.7206 17.2815 22.3749 18.4992 24.0539 19.7375C26.0017 21.1739 24.1967 24.0096 22.1496 22.3689C20.4953 21.0398 18.7894 19.7787 17.0318 18.5858C16.8044 18.429 16.703 18.4888 16.7278 18.7654C17.0008 21.6011 17.3606 24.3852 17.8072 27.1177C18.1236 29.0681 15.0653 29.9906 14.7056 27.384C14.3375 24.6639 13.9962 21.9272 13.6819 19.174C13.676 19.1235 13.6553 19.0758 13.6225 19.0368C13.5897 18.9979 13.5463 18.9694 13.4974 18.9549C13.4486 18.9404 13.3965 18.9405 13.3477 18.9553C13.2989 18.97 13.2555 18.9987 13.2229 19.0378C11.8788 20.6063 10.5162 22.1976 9.13495 23.8115C8.35333 24.7278 7.51585 24.7836 6.62256 23.9787C6.37264 23.7533 6.21893 23.4409 6.19351 23.1065C6.16809 22.7721 6.27294 22.4413 6.48611 22.1831L10.4624 17.3537C10.8718 16.8543 10.756 16.6396 10.115 16.7098L1.10149 17.6757C0.973796 17.6888 0.84503 17.6676 0.728318 17.6143C0.611607 17.5609 0.511308 17.4774 0.437839 17.3723C-0.0956494 16.6046 -0.1392 15.7955 0.307441 14.9452C0.34965 14.8631 0.411943 14.7926 0.488726 14.7397C0.565509 14.6868 0.654568 14.6532 0.748007 14.6419L9.95369 13.5955C10.0051 13.5882 10.0533 13.5661 10.0923 13.5318C10.1313 13.4976 10.1595 13.4528 10.1733 13.4028C10.1871 13.3528 10.1861 13.2999 10.1703 13.2506C10.1544 13.2012 10.1243 13.1575 10.0839 13.1249C8.75021 12.0848 3.11757 8.87136 5.12125 6.78482C5.3476 6.54692 5.65434 6.40129 5.98209 6.37613C6.30983 6.35096 6.63533 6.44805 6.89547 6.64861L12.4412 10.9084C12.6563 11.0735 12.7472 11.0219 12.7141 10.7536Z" fill="#990DCE"/>
</svg>
