<svg width="55" height="56" viewBox="0 0 55 56" fill="none" xmlns="http://www.w3.org/2000/svg">
<g clip-path="url(#clip0_853_553)">
<path fill-rule="evenodd" clip-rule="evenodd" d="M51.2216 0.154785C51.834 0.154785 52.146 0.224113 52.7122 0.489869C53.1281 0.674743 53.6481 1.04449 53.9254 1.3218C54.1912 1.59911 54.5263 2.09596 54.9422 2.98567L55 33.721L53.7636 36.3785C53.0819 37.846 52.3886 39.1863 52.2038 39.3827C51.9149 39.6831 51.7994 39.7294 51.2447 39.7294C50.6901 39.7294 50.5746 39.6831 50.2857 39.3827C50.1008 39.1863 49.4076 37.846 47.4895 33.721V4.43H15.7143V7.23777C15.7143 9.91844 15.7027 10.0571 15.437 10.6117C15.2983 10.9237 14.9517 11.3859 14.6975 11.6285C14.4317 11.8596 14.0157 12.1485 13.7731 12.2525C13.4149 12.4142 12.8834 12.4605 7.62604 12.5182V27.3659L7.36029 27.6317C7.22163 27.7703 6.97898 27.8974 6.81722 27.8974C6.65545 27.8974 6.40125 27.7934 5.95062 27.4468V11.2472L14.501 2.6968L47.6628 2.70836L47.8361 2.32705C47.9286 2.11907 48.2405 1.69155 48.5294 1.37958C48.8414 1.03294 49.3267 0.686298 49.7426 0.489869C50.2742 0.235668 50.6092 0.16634 51.2101 0.154785L51.2216 0.154785ZM49.6386 2.75458C49.3151 3.14743 49.292 3.25142 49.2573 4.26823L49.2342 5.35436H53.2784C53.2784 3.6905 53.2206 3.34386 53.0588 3.04344C52.9433 2.8239 52.6544 2.47726 52.4118 2.29239C52.0882 2.02663 51.8456 1.9342 51.3834 1.91109C50.9674 1.88798 50.6786 1.9342 50.3897 2.09596C50.1702 2.22306 49.8235 2.51193 49.6386 2.75458ZM11.4506 8.16214C9.68277 9.94155 9.0126 10.681 9.1397 10.7273C9.23214 10.7619 10.1565 10.785 11.1849 10.7619C12.8603 10.7273 13.0798 10.7042 13.3802 10.4846C13.5536 10.3575 13.7731 10.1033 13.8424 9.94155C13.9464 9.72201 13.9811 9.05184 13.958 7.64218L13.9233 5.65479L11.4506 8.16214ZM49.2458 8.82075H53.2899V7.08756H49.2458V8.82075ZM49.2458 33.3166C50.7248 36.5518 51.1985 37.4878 51.2678 37.4878C51.3256 37.4878 51.8109 36.5518 52.3309 35.4079L53.2899 33.3166V10.5539H49.2458V33.3166ZM14.4664 26.2682C16.3498 26.2798 16.6502 26.3029 17.0662 26.4993C17.3435 26.638 17.6439 26.9268 17.8403 27.2157C18.083 27.6086 18.1639 27.909 18.2216 28.5792C18.2563 29.0644 18.3141 29.596 18.3372 29.7693C18.3718 30.0004 18.4989 30.1275 19.2038 30.4279L20.209 29.6191C20.9601 29.0298 21.3414 28.7987 21.688 28.7409C21.9422 28.7063 22.3235 28.7063 22.5546 28.7525C22.8666 28.8218 23.3172 29.2031 24.5536 30.4163C25.4433 31.2829 26.229 32.1611 26.3214 32.3691C26.4023 32.5771 26.4832 32.9006 26.4832 33.0855C26.4832 33.2819 26.4023 33.6285 26.2983 33.8712C26.1943 34.1023 25.813 34.68 24.75 35.9741L24.9233 36.3785C25.0504 36.7021 25.166 36.7945 25.4664 36.8407C25.6744 36.8638 26.2059 36.9216 26.6565 36.9678C27.1957 37.014 27.6271 37.1296 27.9506 37.3144C28.2857 37.5109 28.5168 37.7535 28.6786 38.0886C28.8865 38.5392 28.9097 38.7703 28.875 40.8386C28.8519 43.034 28.8403 43.1149 28.563 43.5193C28.4013 43.7504 28.0893 44.0392 27.8697 44.1663C27.6386 44.2934 27.1071 44.4205 26.6565 44.4668C26.2059 44.5014 25.6744 44.5592 25.4664 44.5939C25.166 44.6285 25.0504 44.7325 24.75 45.4489L26.4254 47.5403L37.9223 47.5056C49.1996 47.471 49.4191 47.471 49.7542 47.2399C49.9391 47.1128 50.1586 46.847 50.2395 46.639C50.355 46.3617 50.4013 45.5876 50.4013 43.8313C50.4013 41.4163 50.4013 41.4048 50.6786 41.1159C50.8403 40.9657 51.0945 40.8271 51.2563 40.8271C51.4181 40.8271 51.6838 40.9657 52.1344 41.4048V43.9237C52.1344 45.7955 52.0882 46.5813 51.9611 47.0088C51.8687 47.3323 51.6029 47.806 51.3603 48.0949C51.1176 48.3722 50.6323 48.7304 49.6502 49.2042L26.3099 49.2619L24.75 50.8334C23.8834 51.7 23.0168 52.4857 22.8088 52.5666C22.6008 52.659 22.2773 52.7283 22.0924 52.7283C21.896 52.7283 21.5494 52.6474 21.3067 52.555C21.0756 52.451 20.4979 52.0581 19.2038 50.9951L18.7994 51.1684C18.4758 51.3071 18.3834 51.4226 18.3372 51.7231C18.3141 51.931 18.2563 52.4626 18.2101 52.9016C18.1639 53.3523 18.0714 53.8491 17.9905 53.9993C17.9097 54.1611 17.6208 54.4846 16.8351 55.1663H14.4895C12.2594 55.1548 12.1323 55.1432 11.751 54.9006C11.5315 54.7504 11.2195 54.4268 11.0578 54.1726C10.8382 53.826 10.7573 53.5025 10.6996 52.8439C10.6649 52.3701 10.6071 51.8386 10.584 51.6653C10.5494 51.4342 10.4223 51.2955 9.72898 50.9951L8.8855 51.6884C8.42331 52.0581 7.85714 52.451 7.61449 52.555C7.3834 52.6474 7.0252 52.7283 6.84033 52.7283C6.6439 52.7283 6.32037 52.659 6.11239 52.5666C5.9044 52.4857 5.02625 51.6884 4.15966 50.8102C2.94642 49.5739 2.56512 49.1117 2.50735 48.7997C2.46113 48.5802 2.44957 48.1873 2.49579 47.9331C2.54201 47.5981 2.7731 47.2052 4.18277 45.4489L4.00945 45.0445C3.88235 44.7556 3.74369 44.6285 3.5126 44.5939C3.33928 44.5592 2.80777 44.513 2.33403 44.4783C1.66386 44.4205 1.35188 44.3397 0.970581 44.097C0.670161 43.9006 0.381295 43.5886 0.24264 43.3113C0.046211 42.9069 0.0231018 42.5949 0.0231018 40.7115C0.0231018 38.8281 0.046211 38.5277 0.24264 38.1117C0.381295 37.8344 0.670161 37.5224 0.970581 37.3376C1.35188 37.0949 1.66386 37.0025 2.33403 36.9563C2.80777 36.9216 3.33928 36.8638 3.5126 36.8407C3.74369 36.806 3.88235 36.6789 4.18277 35.9741L3.37394 34.9689C2.71533 34.16 2.54201 33.8481 2.48424 33.4321C2.44957 33.1548 2.47268 32.7388 2.54201 32.5077C2.63445 32.2304 3.16596 31.618 4.32142 30.4741C5.60398 29.2031 6.05461 28.8218 6.37814 28.7525C6.59768 28.7063 6.99054 28.7063 7.24474 28.7409C7.57982 28.7987 7.97268 29.0298 9.72898 30.4279L10.1334 30.2546C10.4223 30.1275 10.5494 30.0004 10.584 29.7693C10.6071 29.596 10.6649 29.0644 10.6996 28.5792C10.7573 27.909 10.8382 27.6086 11.0809 27.2273C11.2773 26.9268 11.5893 26.638 11.8666 26.4993C12.271 26.3029 12.5599 26.2682 14.4664 26.2682ZM12.3403 29.7115C12.2363 30.5781 12.1092 31.2367 12.0168 31.3176C11.9359 31.3985 11.4737 31.618 11 31.8144C10.5147 32.0224 9.99474 32.2189 9.84453 32.2766C9.68277 32.3229 9.45167 32.3229 9.32457 32.2766C9.19747 32.2189 8.61974 31.7913 8.05356 31.306C7.47583 30.8323 6.95587 30.4394 6.88655 30.4394C6.82877 30.4279 6.19327 31.0172 5.47688 31.7336C4.7605 32.45 4.18277 33.0855 4.18277 33.1432C4.18277 33.2126 4.39075 33.513 4.64495 33.8134C4.89915 34.1138 5.31512 34.6107 5.56932 34.9111C5.83508 35.2115 6.04306 35.5928 6.05461 35.743C6.05461 35.9048 5.86974 36.5056 5.62709 37.0718C5.38445 37.6495 5.13024 38.181 5.06092 38.2735C4.98003 38.3544 4.34453 38.4815 3.45482 38.5855C2.646 38.6779 1.92961 38.7819 1.87184 38.805C1.80251 38.8397 1.7563 39.6023 1.7563 40.7115C1.7563 41.8323 1.80251 42.5834 1.87184 42.618C1.92961 42.6527 2.646 42.7567 3.45482 42.8491C4.34453 42.9416 4.98003 43.0687 5.06092 43.1611C5.13024 43.242 5.38445 43.785 5.62709 44.3512C5.86974 44.9289 6.05461 45.5298 6.05461 45.68C6.04306 45.8418 5.83508 46.2231 5.56932 46.5235C5.31512 46.8239 4.89915 47.3208 4.64495 47.6212C4.39075 47.9216 4.18277 48.222 4.18277 48.2798C4.18277 48.3491 4.7605 48.9846 5.47688 49.701C6.19327 50.4174 6.82877 50.9951 6.8981 50.9951C6.95587 50.9951 7.47583 50.6023 8.05356 50.117C8.61974 49.6432 9.20903 49.2042 9.34768 49.1348C9.54411 49.0655 9.79831 49.1117 10.3876 49.3659C10.8151 49.5392 11.3466 49.7703 11.5546 49.8512C11.7742 49.9437 12.0052 50.0939 12.0746 50.1863C12.1555 50.2672 12.271 50.9836 12.3519 51.7693C12.4328 52.555 12.5252 53.2483 12.5599 53.306C12.5945 53.3754 13.3456 53.4216 14.4664 53.4216C15.5756 53.4216 16.3382 53.3754 16.3729 53.306C16.396 53.2483 16.5 52.5319 16.5924 51.7231C16.6964 50.8334 16.812 50.1979 16.9044 50.117C16.9968 50.0476 17.5746 49.7703 18.187 49.5046C19.0651 49.1348 19.3771 49.0539 19.5735 49.1348C19.7237 49.2042 20.3015 49.6432 20.8792 50.117C21.4454 50.6023 21.9653 50.9951 22.0347 50.9951C22.0924 50.9951 22.7279 50.4174 23.4443 49.701C24.1607 48.9846 24.7384 48.3491 24.7384 48.2798C24.7384 48.222 24.3456 47.7021 23.8718 47.1243C23.3865 46.5581 22.9475 45.9689 22.8897 45.8302C22.8088 45.6222 22.8897 45.3218 23.2594 44.4436C23.5136 43.8197 23.791 43.242 23.8603 43.1611C23.9412 43.0687 24.5767 42.9416 25.4664 42.8491C26.2752 42.7567 26.9916 42.6527 27.0609 42.618C27.1302 42.5834 27.1765 41.8323 27.1765 40.7115C27.1765 39.6023 27.1302 38.8397 27.0609 38.805C26.9916 38.7819 26.2752 38.6779 25.4664 38.5855C24.5767 38.4815 23.9412 38.3544 23.8603 38.2735C23.791 38.181 23.5136 37.6033 23.2594 36.9909C22.8897 36.1128 22.8088 35.8008 22.8897 35.6044C22.9475 35.4542 23.3865 34.8764 23.8718 34.2987C24.3456 33.7325 24.7384 33.2126 24.7384 33.1432C24.75 33.0855 24.1607 32.45 23.4443 31.7336C22.7279 31.0172 22.0924 30.4279 22.0347 30.4394C21.9653 30.4394 21.4454 30.8323 20.8792 31.306C20.3015 31.7913 19.7237 32.2304 19.5735 32.2882C19.3771 32.3691 19.0651 32.2882 18.187 31.9184C17.5746 31.6642 16.9968 31.3869 16.9044 31.3176C16.812 31.2367 16.6964 30.6012 16.5924 29.7115C16.5 28.9027 16.396 28.1863 16.3729 28.117C16.3382 28.0476 15.5756 28.0014 14.4664 28.0014C13.3571 28.0014 12.6061 28.0476 12.5714 28.117C12.5368 28.1863 12.4328 28.9027 12.3403 29.7115ZM18.1061 5.81655C18.4065 5.81655 18.5683 5.89743 18.7416 6.14008C18.8687 6.3134 18.9727 6.54449 18.9727 6.66004C18.9727 6.76403 18.8109 7.01823 18.626 7.2031C18.3487 7.48042 18.2101 7.53819 17.9559 7.49197C17.7826 7.45731 17.5515 7.31865 17.4359 7.16844C17.3204 7.02979 17.2279 6.77558 17.2279 6.60226C17.2279 6.42894 17.3435 6.17474 17.4706 6.04764C17.6092 5.90899 17.8519 5.81655 18.1061 5.81655ZM27.2342 5.81655C27.5347 5.81655 27.6964 5.89743 27.8697 6.14008C27.9968 6.3134 28.1008 6.54449 28.1008 6.66004C28.1008 6.76403 27.9391 7.01823 27.7542 7.2031C27.4769 7.48042 27.3382 7.53819 27.084 7.49197C26.9107 7.45731 26.6796 7.31865 26.5641 7.16844C26.4485 7.02979 26.3561 6.77558 26.3561 6.60226C26.3561 6.42894 26.4716 6.17474 26.5987 6.04764C26.7374 5.90899 26.98 5.81655 27.2342 5.81655ZM36.3624 5.81655C36.6628 5.81655 36.8246 5.89743 36.9979 6.14008C37.125 6.3134 37.229 6.54449 37.229 6.66004C37.229 6.76403 37.0672 7.01823 36.8823 7.2031C36.605 7.48042 36.4664 7.53819 36.2122 7.49197C36.0389 7.45731 35.8078 7.31865 35.6922 7.16844C35.5767 7.02979 35.4842 6.77558 35.4842 6.60226C35.4842 6.42894 35.5998 6.17474 35.7269 6.04764C35.8655 5.90899 36.1082 5.81655 36.3624 5.81655ZM45.4905 5.81655C45.791 5.81655 45.9527 5.89743 46.126 6.14008C46.2531 6.3134 46.3571 6.54449 46.3571 6.66004C46.3571 6.76403 46.1954 7.01823 46.0105 7.2031C45.7332 7.48042 45.5945 7.53819 45.3403 7.49197C45.167 7.45731 44.9359 7.31865 44.8204 7.16844C44.7048 7.02979 44.6124 6.77558 44.6124 6.60226C44.6124 6.42894 44.7279 6.17474 44.855 6.04764C44.9937 5.90899 45.2363 5.81655 45.4905 5.81655ZM42.8908 12.0676C43.6765 12.0676 44.5315 12.1138 44.7626 12.1716C45.0052 12.2409 45.3288 12.4489 45.7794 12.9804V20.4331C45.7794 26.8344 45.7447 27.9437 45.6061 28.2325C45.5021 28.4289 45.271 28.66 45.0861 28.7525C44.7857 28.9027 43.6187 28.9258 28.7941 28.9258L28.4013 28.556C28.1124 28.2787 27.9853 28.0361 27.9275 27.6548C27.8813 27.3775 27.8697 26.0487 27.8813 24.7084C27.916 22.6285 27.9506 22.2241 28.1239 21.9584C28.2395 21.785 28.4706 21.5539 28.6439 21.45C28.8865 21.2882 29.2678 21.242 31.8561 21.1726L31.9139 20.2252C31.9485 19.6243 32.041 19.1621 32.1681 18.9657C32.2836 18.7924 32.5147 18.5497 32.688 18.4458C32.9307 18.284 33.312 18.2378 35.9002 18.1684L35.958 17.1632C35.9926 16.4815 36.0735 16.0539 36.2122 15.8344C36.3277 15.6726 36.5588 15.43 36.7321 15.326C36.9748 15.1642 37.3445 15.118 40.0021 15.0602V14.3439C40.0021 13.9394 40.0483 13.4426 40.1061 13.2115C40.1754 12.992 40.3372 12.6916 40.4874 12.5529C40.626 12.4142 40.9034 12.2409 41.0998 12.1831C41.2847 12.1254 42.0935 12.0792 42.8908 12.0676ZM41.7122 20.5718L41.7353 27.1926H44.0462V13.7892C42.3708 13.7892 41.8393 13.8239 41.7931 13.8701C41.7353 13.9163 41.7006 16.9321 41.7122 20.5718ZM37.6681 22.0739L37.6912 27.1926H40.0021V16.7934C38.3267 16.7934 37.7952 16.8281 37.7489 16.8743C37.6912 16.9205 37.6565 19.2546 37.6681 22.0739ZM33.6239 23.6338L33.6471 27.1926H35.958V19.9132C34.2826 19.9132 33.751 19.9479 33.7048 19.9941C33.6471 20.0403 33.6124 21.6695 33.6239 23.6338ZM29.5798 25.1359L29.6029 27.1926H31.9139V22.9174C30.2384 22.9174 29.7069 22.9521 29.6607 22.9983C29.6029 23.0445 29.5683 24.0035 29.5798 25.1359ZM13.0105 14.9447C13.1723 14.9447 13.438 15.0834 13.5998 15.2336C13.75 15.3953 13.8886 15.638 13.8886 15.7882C13.8886 15.9268 13.7847 16.1926 13.6576 16.3659C13.4958 16.5855 13.3225 16.6779 13.0798 16.6779C12.8603 16.6779 12.6176 16.5739 12.4443 16.389C12.2826 16.2273 12.1555 15.9731 12.1555 15.8113C12.1555 15.6495 12.2826 15.3838 12.4443 15.2336C12.5945 15.0718 12.8487 14.9447 13.0105 14.9447ZM25.0966 14.9447L25.3739 15.2105C25.5357 15.3491 25.6628 15.5455 25.6744 15.638C25.6859 15.742 25.6859 15.9037 25.6859 16.0193C25.6744 16.1233 25.5704 16.3197 25.4433 16.4468C25.2122 16.6779 25.0504 16.6779 20.1281 16.6779C15.1943 16.6779 15.0326 16.6779 14.813 16.4468C14.6744 16.3197 14.5704 16.0539 14.5704 15.8229C14.5588 15.5224 14.6281 15.3722 14.8708 15.1873C15.1828 14.9563 15.3099 14.9447 25.0966 14.9447ZM25.0966 18.8733L25.3739 19.139C25.5357 19.2777 25.6628 19.4741 25.6744 19.5665C25.6859 19.6705 25.6859 19.8323 25.6859 19.9479C25.6744 20.0518 25.5704 20.2483 25.4433 20.3754C25.2122 20.6065 25.0504 20.6065 18.5105 20.6065C11.959 20.6065 11.7973 20.6065 11.5777 20.3754C11.4391 20.2483 11.3351 19.9825 11.3351 19.7514C11.3235 19.451 11.3928 19.3008 11.6355 19.1159C11.9475 18.8848 12.063 18.8733 25.0966 18.8733ZM13.2069 22.8018C14.3971 22.8018 14.4779 22.825 14.7552 23.0907C14.9055 23.2525 15.0441 23.4951 15.0441 23.6453C15.0441 23.784 14.9401 24.0497 14.813 24.2231C14.5819 24.535 14.5704 24.535 13.1954 24.535C11.959 24.535 11.7742 24.5119 11.5777 24.3039C11.4391 24.1768 11.3351 23.9111 11.3351 23.68C11.3235 23.3796 11.3928 23.2294 11.6355 23.0445C11.9128 22.8365 12.1208 22.8018 13.2069 22.8018ZM19.146 22.8134C21.4107 22.8018 21.584 22.8134 21.8844 23.0329C22.1271 23.2063 22.208 23.368 22.208 23.6684C22.208 23.9226 22.1155 24.1653 21.9769 24.3039C21.7573 24.5235 21.584 24.535 19.2038 24.535C17.7363 24.535 16.5578 24.4888 16.4307 24.4195C16.3036 24.3617 16.1418 24.1653 16.0725 23.992C15.9916 23.7724 15.9916 23.576 16.0725 23.3796C16.1418 23.2294 16.3036 23.0329 16.4538 22.9521C16.6271 22.8712 17.5168 22.8134 19.146 22.8134ZM23.9874 22.8018C24.1492 22.8018 24.4149 22.9405 24.5767 23.0907C24.7269 23.2525 24.8655 23.4951 24.8655 23.6453C24.8655 23.784 24.7615 24.0497 24.6344 24.2231C24.4727 24.4426 24.2994 24.535 24.0567 24.535C23.8372 24.535 23.5945 24.431 23.4212 24.2462C23.2594 24.0844 23.1323 23.8302 23.1323 23.6684C23.1323 23.5067 23.2594 23.2409 23.4212 23.0907C23.5714 22.9289 23.8256 22.8018 23.9874 22.8018ZM31.9601 33.4321C32.1218 33.4321 32.3876 33.5708 32.5494 33.721C32.6996 33.8827 32.8382 34.1485 32.8382 34.2987C32.8382 34.4605 32.7111 34.7262 32.5494 34.8764C32.3992 35.0382 32.1334 35.1653 31.9716 35.1653C31.8099 35.1653 31.5441 35.0382 31.3939 34.8764C31.2321 34.7147 31.105 34.4605 31.105 34.2987C31.105 34.1369 31.2321 33.8712 31.3939 33.721C31.5441 33.5592 31.7983 33.4321 31.9601 33.4321ZM44.104 33.4437L44.3582 33.6978C44.5199 33.8596 44.6239 34.0907 44.6239 34.2987C44.6124 34.4951 44.5084 34.7609 44.104 35.1768H39.1008C36.3508 35.1653 34.0168 35.1306 33.9128 35.0844C33.8088 35.0382 33.6586 34.8418 33.5777 34.6453C33.4853 34.4142 33.4737 34.2063 33.5431 34.0098C33.6008 33.8596 33.7395 33.6632 33.8435 33.5823C33.9937 33.4668 35.23 33.4321 44.104 33.4437ZM44.104 37.3722L44.3582 37.6264C44.5199 37.7882 44.6239 38.0193 44.6239 38.2273C44.6124 38.4237 44.5084 38.6894 44.104 39.1054H37.4832C33.8435 39.0939 30.7815 39.0592 30.6775 39.013C30.5735 38.9668 30.4233 38.7703 30.3424 38.5739C30.25 38.3428 30.2384 38.1348 30.3078 37.9384C30.3655 37.7882 30.5042 37.5918 30.6082 37.5109C30.7584 37.3953 32.3183 37.3607 44.104 37.3722ZM32.1103 41.2892C33.3466 41.2892 33.4275 41.3123 33.7048 41.5781C33.855 41.7399 33.9937 42.0056 33.9937 42.1558C33.9937 42.3176 33.8666 42.5834 33.7048 42.7336C33.4391 43.0109 33.3582 43.0224 32.145 43.0224C31.4401 43.0224 30.7815 42.9878 30.6775 42.9415C30.5735 42.8953 30.4233 42.6989 30.3424 42.5025C30.25 42.2714 30.2384 42.0634 30.3078 41.867C30.3655 41.7168 30.5042 41.5203 30.6082 41.4394C30.7353 41.347 31.2437 41.2892 32.1103 41.2892ZM35.4842 41.2892H38.0031C40.3487 41.2892 40.5336 41.3008 40.834 41.5203C41.0767 41.6936 41.1576 41.8554 41.1576 42.1558C41.1576 42.4678 41.0767 42.618 40.834 42.8029C40.5336 43.0224 40.3487 43.034 35.4958 43.0224L35.2069 42.7336C35.0452 42.5718 34.9181 42.3176 34.9181 42.1558C34.9181 41.9941 35.0452 41.7283 35.2069 41.5781L35.4842 41.2892ZM42.937 41.2892C43.0987 41.2892 43.3645 41.4163 43.5263 41.5781C43.6765 41.7399 43.8151 41.9941 43.8151 42.1558C43.8151 42.3176 43.6765 42.5718 43.5263 42.7336C43.3645 42.8953 43.1103 43.0224 42.9485 43.0224C42.7868 43.0224 42.521 42.8953 42.3708 42.7336C42.209 42.5718 42.0819 42.3176 42.0819 42.1443C42.0819 41.9825 42.209 41.7283 42.3708 41.5666C42.521 41.4163 42.7752 41.2892 42.937 41.2892ZM14.6975 33.5823C15.9338 33.617 16.2573 33.6747 16.9506 33.9405C17.3897 34.1138 17.9674 34.3911 18.2447 34.5644C18.5105 34.7378 18.7763 34.992 18.8456 35.1306C18.9149 35.2808 18.9727 35.4773 18.9727 35.5697C18.9727 35.6621 18.834 35.8701 18.6838 36.0319C18.5221 36.1936 18.2678 36.3208 18.1061 36.3208C17.9443 36.3208 17.4821 36.1359 17.0893 35.9279C16.6964 35.7084 16.084 35.4657 15.7374 35.3964C15.3792 35.3155 14.6397 35.2693 14.062 35.3039C13.1607 35.3386 12.895 35.4079 12.1555 35.7661C11.6008 36.0319 11.0347 36.4132 10.6187 36.8292C10.1681 37.2682 9.82142 37.7651 9.521 38.3659C9.09348 39.2441 9.09348 39.2672 9.09348 40.7115C9.09348 42.1558 9.09348 42.1674 9.521 43.0571C9.79831 43.6233 10.1796 44.1663 10.5956 44.5823C10.9884 44.9752 11.5431 45.368 12.063 45.6222C12.6523 45.9111 13.1376 46.0613 13.7153 46.1191C14.1544 46.1653 14.8592 46.1653 15.2752 46.1191C15.7489 46.0613 16.3151 45.888 16.8582 45.6222C17.3781 45.368 17.9328 44.9752 18.3372 44.5823C18.7416 44.1663 19.1229 43.6233 19.4002 43.0571C19.8277 42.1674 19.8393 42.1558 19.8393 40.7115C19.8393 39.2787 19.8277 39.2556 19.4002 38.3428C19.1113 37.742 18.9842 37.3376 19.0305 37.1873C19.0767 37.0602 19.1922 36.8638 19.2962 36.7483C19.4118 36.6327 19.6428 36.5403 19.8624 36.5518C20.0704 36.5518 20.3361 36.6443 20.4401 36.7483C20.5557 36.8638 20.7868 37.2451 20.9601 37.5918C21.1218 37.9384 21.3529 38.5623 21.4569 38.9783C21.6071 39.5445 21.6418 40.0529 21.5956 41.0581C21.5494 42.2021 21.4916 42.514 21.1796 43.3113C20.9832 43.8197 20.5441 44.5939 20.209 45.0445C19.8624 45.4951 19.25 46.1191 18.7878 46.4542C18.3487 46.7892 17.5746 47.2399 17.0662 47.4363C16.1649 47.7945 16.084 47.8176 14.4664 47.8176C12.8372 47.8176 12.7563 47.806 11.8666 47.4363C11.3582 47.2283 10.584 46.8008 10.1565 46.4888C9.72898 46.1653 9.1397 45.6107 8.85083 45.2409C8.56197 44.8827 8.18067 44.2703 7.98424 43.889C7.79936 43.5077 7.56827 42.8838 7.46428 42.5025C7.36029 42.1096 7.29096 41.3239 7.29096 40.7115C7.2794 40.0644 7.36029 39.325 7.46428 38.9205C7.56827 38.5392 7.77625 37.9615 7.92646 37.6495C8.06512 37.326 8.43487 36.7483 8.72373 36.3439C9.02415 35.951 9.55567 35.3848 9.92541 35.096C10.2952 34.8071 10.9076 34.4258 11.2889 34.2409C11.6702 34.056 12.2594 33.825 12.6176 33.721C13.0798 33.5939 13.646 33.5592 14.6975 33.5823ZM14.4086 37.0256C14.8823 37.014 15.4485 37.0834 15.7952 37.1989C16.1996 37.3376 16.5693 37.6033 17.0662 38.1002C17.5746 38.597 17.8288 38.9668 17.9674 39.3827C18.0714 39.6947 18.1639 40.2955 18.1639 40.7115C18.1639 41.1275 18.0714 41.7168 17.9674 42.0403C17.8288 42.4447 17.5746 42.8144 17.0662 43.3229C16.5693 43.8197 16.1996 44.0739 15.7952 44.2126C15.4716 44.3165 14.8708 44.409 14.4664 44.409C14.0504 44.409 13.4496 44.3165 13.1376 44.2126C12.7216 44.0739 12.3519 43.8197 11.855 43.3229C11.3582 42.8144 11.0924 42.4447 10.9538 42.0403C10.8498 41.7168 10.7573 41.1275 10.7573 40.7115C10.7573 40.2955 10.8498 39.6947 10.9538 39.3827C11.0924 38.9668 11.3582 38.597 11.855 38.1002C12.3057 37.6495 12.7332 37.3376 13.0798 37.2105C13.3571 37.118 13.958 37.0256 14.4086 37.0256ZM12.8025 39.6716C12.5483 39.9951 12.4905 40.2031 12.4905 40.7115C12.4905 41.1852 12.5599 41.451 12.7563 41.7514C12.9065 41.971 13.2069 42.2714 13.4265 42.4216C13.7153 42.6065 13.9926 42.6758 14.4664 42.6758C14.9286 42.6758 15.2059 42.6065 15.4947 42.4216C15.7143 42.2714 16.0147 41.971 16.1649 41.7514C16.3613 41.451 16.4307 41.1852 16.4307 40.7115C16.4307 40.2378 16.3613 39.972 16.1649 39.6716C16.0263 39.4521 15.7258 39.1516 15.5063 39.013C15.1943 38.805 14.9401 38.7357 14.4548 38.7472C13.9695 38.7472 13.7269 38.805 13.4611 39.013C13.2647 39.1516 12.9643 39.4521 12.8025 39.6716Z" fill="white"/>
</g>
<defs>
<clipPath id="clip0_853_553">
<rect width="55" height="55" fill="white" transform="translate(0 0.154785)"/>
</clipPath>
</defs>
</svg>
