<svg width="54" height="53" viewBox="0 0 54 53" fill="none" xmlns="http://www.w3.org/2000/svg">
<path d="M52.0947 23.8842L29.6541 1.44366C28.9657 0.755302 28.002 0.342285 27.0383 0.342285C26.0746 0.342285 25.1109 0.755302 24.4226 1.44366L19.604 6.26219L25.2486 11.9068C25.7993 11.6314 26.35 11.4937 27.0383 11.4937C29.3788 11.4937 31.1685 13.2835 31.1685 15.6239C31.1685 16.3123 31.0308 16.863 30.7555 17.4136L36.2624 22.9205C36.8131 22.6452 37.3638 22.5075 38.0521 22.5075C40.3925 22.5075 42.1823 24.2973 42.1823 26.6377C42.1823 28.9781 40.3925 30.7678 38.0521 30.7678C35.7117 30.7678 33.922 28.9781 33.922 26.6377C33.922 25.9493 34.0596 25.3986 34.335 24.8479L28.8281 19.3411C28.6904 19.3411 28.5527 19.4787 28.4151 19.4787V33.7966C30.0671 34.3473 31.1685 35.8617 31.1685 37.6515C31.1685 39.9919 29.3788 41.7816 27.0383 41.7816C24.6979 41.7816 22.9082 39.9919 22.9082 37.6515C22.9082 35.8617 24.0095 34.3473 25.6616 33.7966V19.3411C24.0095 18.7904 22.9082 17.276 22.9082 15.4862C22.9082 14.7979 23.0458 14.2472 23.3212 13.6965L17.6766 8.05193L1.98199 23.8842C1.29363 24.5726 0.880615 25.5363 0.880615 26.5C0.880615 27.4637 1.29363 28.4274 1.98199 29.1158L24.4226 51.5564C25.1109 52.2447 26.0746 52.6577 27.0383 52.6577C28.002 52.6577 28.9657 52.2447 29.6541 51.5564L52.0947 29.1158C52.783 28.4274 53.1961 27.4637 53.1961 26.5C53.1961 25.5363 52.783 24.5726 52.0947 23.8842Z" fill="#D7FF01" fill-opacity="0.7"/>
</svg>
