<svg width="53" height="53" viewBox="0 0 53 53" fill="none" xmlns="http://www.w3.org/2000/svg">
<path d="M51.5334 23.5732L29.0928 1.13263C28.4045 0.444267 27.4408 0.03125 26.4771 0.03125C25.5134 0.03125 24.5496 0.444267 23.8613 1.13263L19.0428 5.95116L24.6873 11.5957C25.238 11.3204 25.7887 11.1827 26.4771 11.1827C28.8175 11.1827 30.6072 12.9724 30.6072 15.3129C30.6072 16.0012 30.4696 16.5519 30.1942 17.1026L35.7011 22.6095C36.2518 22.3341 36.8025 22.1965 37.4908 22.1965C39.8313 22.1965 41.621 23.9862 41.621 26.3266C41.621 28.6671 39.8313 30.4568 37.4908 30.4568C35.1504 30.4568 33.3607 28.6671 33.3607 26.3266C33.3607 25.6383 33.4983 25.0876 33.7737 24.5369L28.2668 19.03C28.1291 19.03 27.9915 19.1677 27.8538 19.1677V33.4856C29.5058 34.0363 30.6072 35.5507 30.6072 37.3404C30.6072 39.6808 28.8175 41.4706 26.4771 41.4706C24.1366 41.4706 22.3469 39.6808 22.3469 37.3404C22.3469 35.5507 23.4483 34.0363 25.1003 33.4856V19.03C23.4483 18.4793 22.3469 16.9649 22.3469 15.1752C22.3469 14.4868 22.4846 13.9361 22.7599 13.3855L17.1153 7.74089L1.42071 23.5732C0.732353 24.2616 0.319336 25.2253 0.319336 26.189C0.319336 27.1527 0.732353 28.1164 1.42071 28.8047L23.8613 51.2453C24.5496 51.9337 25.5134 52.3467 26.4771 52.3467C27.4408 52.3467 28.4045 51.9337 29.0928 51.2453L51.5334 28.8047C52.2218 28.1164 52.6348 27.1527 52.6348 26.189C52.6348 25.2253 52.2218 24.2616 51.5334 23.5732Z" fill="url(#paint0_linear_1142_188)"/>
<defs>
<linearGradient id="paint0_linear_1142_188" x1="26.4771" y1="0.03125" x2="26.4771" y2="52.3467" gradientUnits="userSpaceOnUse">
<stop stop-color="#D7FF01"/>
<stop offset="1" stop-color="#819901"/>
</linearGradient>
</defs>
</svg>
