<svg width="53" height="53" viewBox="0 0 53 53" fill="none" xmlns="http://www.w3.org/2000/svg">
<path d="M51.2141 23.542L28.7735 1.10138C28.0851 0.413017 27.1214 0 26.1577 0C25.194 0 24.2303 0.413017 23.542 1.10138L18.7234 5.91991L24.368 11.5645C24.9187 11.2891 25.4694 11.1515 26.1577 11.1515C28.4981 11.1515 30.2879 12.9412 30.2879 15.2816C30.2879 15.97 30.1502 16.5207 29.8749 17.0714L35.3818 22.5782C35.9325 22.3029 36.4831 22.1652 37.1715 22.1652C39.5119 22.1652 41.3017 23.955 41.3017 26.2954C41.3017 28.6358 39.5119 30.4256 37.1715 30.4256C34.8311 30.4256 33.0413 28.6358 33.0413 26.2954C33.0413 25.607 33.179 25.0563 33.4543 24.5057L27.9475 18.9988C27.8098 18.9988 27.6721 19.1364 27.5344 19.1364V33.4543C29.1865 34.005 30.2879 35.5194 30.2879 37.3092C30.2879 39.6496 28.4981 41.4393 26.1577 41.4393C23.8173 41.4393 22.0276 39.6496 22.0276 37.3092C22.0276 35.5194 23.1289 34.005 24.781 33.4543V18.9988C23.1289 18.4481 22.0276 16.9337 22.0276 15.1439C22.0276 14.4556 22.1652 13.9049 22.4406 13.3542L16.796 7.70964L1.10138 23.542C0.413017 24.2303 0 25.194 0 26.1577C0 27.1214 0.413017 28.0851 1.10138 28.7735L23.542 51.2141C24.2303 51.9024 25.194 52.3154 26.1577 52.3154C27.1214 52.3154 28.0851 51.9024 28.7735 51.2141L51.2141 28.7735C51.9024 28.0851 52.3154 27.1214 52.3154 26.1577C52.3154 25.194 51.9024 24.2303 51.2141 23.542Z" fill="#D7FF01"/>
</svg>
