<svg width="54" height="53" viewBox="0 0 54 53" fill="none" xmlns="http://www.w3.org/2000/svg">
<path fill-rule="evenodd" clip-rule="evenodd" d="M27.3331 0.0289917C12.61 0.0289917 0.707764 12.0189 0.707764 26.8521C0.707764 38.7091 8.33392 48.7458 18.9134 52.2981C20.2361 52.5651 20.7206 51.7209 20.7206 51.0108C20.7206 50.389 20.677 48.2575 20.677 46.0366C13.2705 47.6356 11.7282 42.8391 11.7282 42.8391C10.5379 39.7304 8.77428 38.9315 8.77428 38.9315C6.35013 37.2883 8.95085 37.2883 8.95085 37.2883C11.6399 37.466 13.0509 40.0416 13.0509 40.0416C15.4309 44.1269 19.266 42.9726 20.8089 42.262C21.0291 40.53 21.7349 39.331 22.4842 38.665C16.577 38.0431 10.3619 35.734 10.3619 25.4308C10.3619 22.4998 11.4191 20.1018 13.0945 18.2368C12.8301 17.5708 11.9042 14.817 13.3593 11.1311C13.3593 11.1311 15.6075 10.4205 20.6765 13.8845C22.8467 13.2973 25.0848 12.9986 27.3331 12.9961C29.5812 12.9961 31.8729 13.3073 33.9891 13.8845C39.0587 10.4205 41.3068 11.1311 41.3068 11.1311C42.762 14.817 41.8355 17.5708 41.5711 18.2368C43.2906 20.1018 44.3043 22.4998 44.3043 25.4308C44.3043 35.734 38.0892 37.9984 32.1378 38.665C33.1079 39.5086 33.945 41.1071 33.945 43.6386C33.945 47.2356 33.9014 50.1225 33.9014 51.0103C33.9014 51.7209 34.3864 52.5651 35.7086 52.2986C46.2881 48.7452 53.9143 38.7091 53.9143 26.8521C53.9579 12.0189 42.0121 0.0289917 27.3331 0.0289917Z" fill="url(#paint0_linear_1142_180)"/>
<defs>
<linearGradient id="paint0_linear_1142_180" x1="27.3111" y1="0.0289917" x2="27.3111" y2="52.349" gradientUnits="userSpaceOnUse">
<stop stop-color="#D7FF01"/>
<stop offset="1" stop-color="#819901"/>
</linearGradient>
</defs>
</svg>
