<svg width="54" height="53" viewBox="0 0 54 53" fill="none" xmlns="http://www.w3.org/2000/svg">
<path fill-rule="evenodd" clip-rule="evenodd" d="M26.7572 0.0289917C12.034 0.0289917 0.131836 12.0189 0.131836 26.8521C0.131836 38.7091 7.75799 48.7458 18.3375 52.2981C19.6602 52.5651 20.1447 51.7209 20.1447 51.0108C20.1447 50.389 20.1011 48.2575 20.1011 46.0366C12.6946 47.6356 11.1522 42.8391 11.1522 42.8391C9.96196 39.7304 8.19835 38.9315 8.19835 38.9315C5.7742 37.2883 8.37493 37.2883 8.37493 37.2883C11.0639 37.466 12.4749 40.0416 12.4749 40.0416C14.855 44.1269 18.6901 42.9726 20.233 42.262C20.4532 40.53 21.1589 39.331 21.9083 38.665C16.0011 38.0431 9.78593 35.734 9.78593 25.4308C9.78593 22.4998 10.8432 20.1018 12.5185 18.2368C12.2542 17.5708 11.3283 14.817 12.7834 11.1311C12.7834 11.1311 15.0315 10.4205 20.1006 13.8845C22.2708 13.2973 24.5089 12.9986 26.7572 12.9961C29.0053 12.9961 31.297 13.3073 33.4132 13.8845C38.4828 10.4205 40.7309 11.1311 40.7309 11.1311C42.186 14.817 41.2595 17.5708 40.9952 18.2368C42.7147 20.1018 43.7284 22.4998 43.7284 25.4308C43.7284 35.734 37.5132 37.9984 31.5619 38.665C32.532 39.5086 33.3691 41.1071 33.3691 43.6386C33.3691 47.2356 33.3255 50.1225 33.3255 51.0103C33.3255 51.7209 33.8105 52.5651 35.1327 52.2986C45.7122 48.7453 53.3383 38.7091 53.3383 26.8521C53.3819 12.0189 41.4361 0.0289917 26.7572 0.0289917Z" fill="#D7FF01" fill-opacity="0.7"/>
</svg>
