<svg width="29" height="29" viewBox="0 0 29 29" fill="none" xmlns="http://www.w3.org/2000/svg">
<path fill-rule="evenodd" clip-rule="evenodd" d="M14.1784 0.666672C6.33811 0.666672 0 7.0515 0 14.9504C0 21.2644 4.06104 26.6091 9.69479 28.5008C10.3991 28.643 10.6572 28.1934 10.6572 27.8153C10.6572 27.4841 10.6339 26.3491 10.6339 25.1664C6.68985 26.0179 5.86853 23.4637 5.86853 23.4637C5.23469 21.8083 4.29554 21.3828 4.29554 21.3828C3.00464 20.5078 4.38957 20.5078 4.38957 20.5078C5.82152 20.6024 6.57289 21.974 6.57289 21.974C7.84028 24.1495 9.88256 23.5348 10.7042 23.1564C10.8214 22.2341 11.1973 21.5956 11.5963 21.2409C8.45061 20.9098 5.14095 19.6801 5.14095 14.1935C5.14095 12.6327 5.70398 11.3558 6.59611 10.3626C6.45535 10.008 5.96227 8.54149 6.73716 6.57874C6.73716 6.57874 7.93431 6.20029 10.6336 8.04492C11.7893 7.73226 12.9812 7.57321 14.1784 7.57187C15.3755 7.57187 16.5959 7.73758 17.7228 8.04492C20.4225 6.20029 21.6196 6.57874 21.6196 6.57874C22.3945 8.54149 21.9011 10.008 21.7604 10.3626C22.676 11.3558 23.2158 12.6327 23.2158 14.1935C23.2158 19.6801 19.9062 20.886 16.737 21.2409C17.2536 21.6902 17.6993 22.5414 17.6993 23.8895C17.6993 25.8049 17.6761 27.3422 17.6761 27.815C17.6761 28.1934 17.9344 28.643 18.6385 28.5011C24.2722 26.6088 28.3333 21.2644 28.3333 14.9504C28.3565 7.0515 21.9952 0.666672 14.1784 0.666672Z" fill="white"/>
</svg>
