<svg width="44" height="43" viewBox="0 0 54 53" fill="none" xmlns="http://www.w3.org/2000/svg">
<path fill-rule="evenodd" clip-rule="evenodd" d="M26.6253 0C11.9022 0 0 11.99 0 26.8232C0 38.6801 7.62615 48.7168 18.2056 52.2691C19.5284 52.5361 20.0129 51.6919 20.0129 50.9818C20.0129 50.36 19.9693 48.2285 19.9693 46.0076C12.5627 47.6066 11.0204 42.8101 11.0204 42.8101C9.83012 39.7015 8.06651 38.9025 8.06651 38.9025C5.64236 37.2593 8.24309 37.2593 8.24309 37.2593C10.9321 37.437 12.3431 40.0126 12.3431 40.0126C14.7231 44.0979 18.5583 42.9436 20.1012 42.233C20.3213 40.501 21.0271 39.302 21.7765 38.636C15.8692 38.0141 9.65409 35.705 9.65409 25.4018C9.65409 22.4708 10.7114 20.0728 12.3867 18.2078C12.1224 17.5418 11.1964 14.788 12.6516 11.1021C12.6516 11.1021 14.8997 10.3915 19.9687 13.8555C22.1389 13.2683 24.3771 12.9696 26.6253 12.9671C28.8734 12.9671 31.1652 13.2783 33.2814 13.8555C38.3509 10.3915 40.5991 11.1021 40.5991 11.1021C42.0542 14.788 41.1277 17.5418 40.8634 18.2078C42.5829 20.0728 43.5966 22.4708 43.5966 25.4018C43.5966 35.705 37.3814 37.9694 31.43 38.636C32.4001 39.4796 33.2372 41.0781 33.2372 43.6096C33.2372 47.2066 33.1936 50.0935 33.1936 50.9813C33.1936 51.6919 33.6787 52.5361 35.0008 52.2696C45.5803 48.7163 53.2065 38.6801 53.2065 26.8232C53.2501 11.99 41.3043 0 26.6253 0Z" fill="#D7FF01"/>
</svg>
