<svg width="23" height="24" viewBox="0 0 23 24" fill="none" xmlns="http://www.w3.org/2000/svg">
<path fill-rule="evenodd" clip-rule="evenodd" d="M11.5438 0.935059C5.31637 0.935059 0.282104 6.00643 0.282104 12.2804C0.282104 17.2955 3.50773 21.5408 7.98253 23.0433C8.54199 23.1562 8.74692 22.7991 8.74692 22.4988C8.74692 22.2358 8.72848 21.3342 8.72848 20.3948C5.59575 21.0712 4.94339 19.0424 4.94339 19.0424C4.43994 17.7275 3.69399 17.3896 3.69399 17.3896C2.66865 16.6946 3.76868 16.6946 3.76868 16.6946C4.90605 16.7697 5.50286 17.8592 5.50286 17.8592C6.50952 19.5871 8.13167 19.0989 8.78427 18.7983C8.8774 18.0657 9.17592 17.5586 9.49288 17.2769C6.9943 17.0139 4.36548 16.0372 4.36548 11.6792C4.36548 10.4395 4.81269 9.42523 5.5213 8.6364C5.4095 8.35471 5.01785 7.18991 5.63333 5.63092C5.63333 5.63092 6.58421 5.33033 8.72825 6.79549C9.64619 6.54715 10.5928 6.42081 11.5438 6.41975C12.4947 6.41975 13.464 6.55138 14.3591 6.79549C16.5034 5.33033 17.4542 5.63092 17.4542 5.63092C18.0697 7.18991 17.6778 8.35471 17.566 8.6364C18.2933 9.42523 18.7221 10.4395 18.7221 11.6792C18.7221 16.0372 16.0933 16.995 13.576 17.2769C13.9863 17.6337 14.3404 18.3098 14.3404 19.3806C14.3404 20.902 14.322 22.123 14.322 22.4985C14.322 22.7991 14.5271 23.1562 15.0864 23.0435C19.5612 21.5405 22.7868 17.2955 22.7868 12.2804C22.8052 6.00643 17.7525 0.935059 11.5438 0.935059Z" fill="white" fill-opacity="0.5"/>
</svg>
