<svg width="42" height="53" viewBox="0 0 42 53" fill="none" xmlns="http://www.w3.org/2000/svg">
<path d="M41.2774 1.16136C41.0897 0.930022 40.8198 0.799072 40.5382 0.799072H1.42067C1.13908 0.799072 0.869223 0.930022 0.681497 1.16136C0.489858 1.39271 0.395995 1.70262 0.423372 2.0169L3.94716 46.0725C3.98236 46.5352 4.27177 46.9193 4.67069 47.0503L20.7018 52.1573C20.7878 52.1878 20.8817 52.2009 20.9755 52.2009C21.0694 52.2009 21.1594 52.1878 21.2493 52.1573L37.2921 47.0503C37.691 46.9193 37.9765 46.5352 38.0156 46.0725L41.5355 2.0169C41.5629 1.70262 41.469 1.39271 41.2774 1.16136ZM32.9788 14.6315C32.901 15.6052 32.1701 16.3515 31.2943 16.3515H15.8532C14.8605 16.3515 14.0813 17.3013 14.1686 18.405L14.3198 20.3174C14.3969 21.2918 15.1281 22.039 16.0045 22.039H30.5387C31.5322 22.039 32.3116 22.9901 32.2232 24.0945L31.144 37.5784C31.0826 38.3458 30.6095 38.9945 29.9487 39.2173L21.0699 42.2113C21.0059 42.2329 20.9375 42.2323 20.8738 42.2095L12.0139 39.2138C11.3532 38.9905 10.8805 38.3414 10.8196 37.5739L10.5398 34.0496C10.4522 32.9457 11.2315 31.9955 12.2245 31.9955H13.9327C14.6805 31.9955 15.3044 32.6328 15.3705 33.4641C15.4266 34.1707 15.8903 34.7532 16.5123 34.8986L20.6804 35.8727C20.9111 35.9267 21.1494 35.9262 21.3799 35.8713L25.2746 34.944C25.9996 34.7714 26.5394 34.092 26.6062 33.268L26.91 29.5178C26.9995 28.4127 26.2198 27.4603 25.2256 27.4603H11.5598C10.6841 27.4603 9.95329 26.7143 9.87528 25.7409L8.85201 12.9728C8.7635 11.8683 9.543 10.9171 10.5365 10.9171H31.4268C32.4201 10.9171 33.1996 11.868 33.1114 12.9722L32.9788 14.6315Z" fill="#D7FF01" fill-opacity="0.7"/>
</svg>
