<svg width="42" height="52" viewBox="0 0 42 52" fill="none" xmlns="http://www.w3.org/2000/svg">
<path d="M40.8587 0.362293C40.671 0.13095 40.4011 0 40.1195 0H1.00197C0.720379 0 0.450522 0.13095 0.262796 0.362293C0.0711571 0.593636 -0.0227063 0.903549 0.00467081 1.21783L3.52846 45.2734C3.56366 45.7361 3.85307 46.1202 4.25199 46.2512L20.2831 51.3582C20.3691 51.3888 20.463 51.4019 20.5568 51.4019C20.6507 51.4019 20.7407 51.3888 20.8306 51.3582L36.8734 46.2512C37.2723 46.1202 37.5578 45.7361 37.5969 45.2734L41.1168 1.21783C41.1442 0.903549 41.0503 0.593636 40.8587 0.362293ZM32.5601 13.8324C32.4823 14.8061 31.7514 15.5524 30.8756 15.5524H15.4345C14.4418 15.5524 13.6626 16.5022 13.7499 17.6059L13.9011 19.5183C13.9782 20.4927 14.7094 21.2399 15.5858 21.2399H30.12C31.1135 21.2399 31.8929 22.1911 31.8045 23.2954L30.7253 36.7793C30.6639 37.5467 30.1908 38.1954 29.53 38.4182L20.6512 41.4122C20.5872 41.4338 20.5188 41.4332 20.4551 41.4104L11.5952 38.4148C10.9345 38.1914 10.4618 37.5423 10.4009 36.7749L10.1211 33.2505C10.0335 32.1467 10.8128 31.1964 11.8058 31.1964H13.514C14.2618 31.1964 14.8857 31.8338 14.9518 32.6651C15.0079 33.3716 15.4716 33.9541 16.0936 34.0995L20.2617 35.0737C20.4924 35.1276 20.7307 35.1271 20.9612 35.0722L24.8559 34.145C25.5809 33.9724 26.1207 33.2929 26.1875 32.4689L26.4913 28.7187C26.5808 27.6137 25.8011 26.6612 24.8069 26.6612H11.1411C10.2654 26.6612 9.53459 25.9152 9.45658 24.9418L8.43331 12.1737C8.34479 11.0693 9.12429 10.118 10.1178 10.118H31.0081C32.0014 10.118 32.7809 11.0689 32.6927 12.1732L32.5601 13.8324Z" fill="#D7FF01"/>
</svg>
