<svg width="42" height="52" viewBox="0 0 42 52" fill="none" xmlns="http://www.w3.org/2000/svg">
<path d="M41.5101 0.85033C41.3223 0.618987 41.0525 0.488037 40.7709 0.488037H1.65334C1.37175 0.488037 1.10189 0.618987 0.914163 0.85033C0.722524 1.08167 0.628661 1.39159 0.656038 1.70586L4.17982 45.7615C4.21502 46.2242 4.50444 46.6083 4.90336 46.7392L20.9344 51.8462C21.0205 51.8768 21.1143 51.8899 21.2082 51.8899C21.3021 51.8899 21.392 51.8768 21.482 51.8462L37.5248 46.7392C37.9237 46.6083 38.2092 46.2242 38.2483 45.7615L41.7682 1.70586C41.7956 1.39159 41.7017 1.08167 41.5101 0.85033ZM33.2115 14.3205C33.1337 15.2941 32.4028 16.0404 31.5269 16.0404H16.0859C15.0932 16.0404 14.314 16.9902 14.4012 18.0939L14.5525 20.0064C14.6295 20.9807 15.3607 21.728 16.2372 21.728H30.7714C31.7648 21.728 32.5443 22.6791 32.4559 23.7835L31.3767 37.2673C31.3153 38.0347 30.8421 38.6834 30.1813 38.9063L21.3026 41.9003C21.2386 41.9218 21.1702 41.9212 21.1065 41.8985L12.2466 38.9028C11.5859 38.6794 11.1132 38.0303 11.0523 37.2629L10.7725 33.7386C10.6849 32.6347 11.4642 31.6845 12.4571 31.6845H14.1654C14.9131 31.6845 15.5371 32.3218 15.6031 33.1531C15.6593 33.8597 16.1229 34.4421 16.745 34.5875L20.9131 35.5617C21.1438 35.6156 21.382 35.6151 21.6126 35.5603L25.5073 34.633C26.2323 34.4604 26.7721 33.781 26.8388 32.9569L27.1426 29.2068C27.2322 28.1017 26.4524 27.1493 25.4583 27.1493H11.7925C10.9168 27.1493 10.186 26.4033 10.1079 25.4299L9.08468 12.6617C8.99616 11.5573 9.77566 10.606 10.7692 10.606H31.6595C32.6528 10.606 33.4322 11.557 33.344 12.6612L33.2115 14.3205Z" fill="url(#paint0_linear_1142_200)"/>
<defs>
<linearGradient id="paint0_linear_1142_200" x1="21.2121" y1="0.488037" x2="21.2121" y2="51.8899" gradientUnits="userSpaceOnUse">
<stop stop-color="#D7FF01"/>
<stop offset="1" stop-color="#819901"/>
</linearGradient>
</defs>
</svg>
