<svg width="55" height="56" viewBox="0 0 55 56" fill="none" xmlns="http://www.w3.org/2000/svg">
<g clip-path="url(#clip0_853_549)">
<path fill-rule="evenodd" clip-rule="evenodd" d="M27.425 0.16571C28.4133 0.16571 29.423 0.197937 29.6701 0.251648C29.9279 0.305359 30.5617 0.434265 31.0988 0.530945C31.6252 0.627625 32.5275 0.85321 33.0861 1.03583C33.6447 1.21844 34.633 1.60516 35.2883 1.91669C35.9328 2.22821 36.9533 2.79755 37.5441 3.18427C38.1349 3.57098 39.048 4.26923 39.5851 4.73114C40.1115 5.2038 40.8742 5.96649 41.2824 6.43915C41.6799 6.9118 42.3244 7.76044 42.7004 8.31903C43.0764 8.87762 43.6457 9.89813 43.968 10.5749C44.2902 11.2516 44.6769 12.197 44.8381 12.6696C44.9885 13.1423 45.2141 13.9587 45.3215 14.4958C45.4396 15.0222 45.59 15.989 45.6652 16.6442C45.7404 17.3425 45.7619 18.3737 45.7189 19.1686C45.6867 19.9099 45.6115 20.8229 45.5471 21.2097C45.4826 21.5964 45.3107 22.3806 45.1711 22.9606C45.0207 23.53 44.7092 24.4968 44.4728 25.0983C44.2258 25.7106 43.7961 26.6345 43.4953 27.1716C43.2053 27.6979 42.6359 28.6003 42.2385 29.1481C41.841 29.7067 40.9494 30.738 40.2512 31.4362C39.5637 32.1345 38.801 33.0046 38.5646 33.3806C38.3176 33.7458 37.9846 34.4225 37.8127 34.8737C37.6301 35.3356 37.4152 36.1306 37.3293 36.6462C37.2111 37.3444 37.1682 38.4186 37.1682 40.7604C37.1682 43.2634 37.1359 44.069 37.007 44.5739C36.9103 44.9284 36.7277 45.4655 36.5881 45.7556C36.4484 46.0563 36.0939 46.5612 35.8039 46.8835C35.5031 47.2057 35.0305 47.6247 34.7404 47.8181C34.4504 48.0114 33.9133 48.2585 32.8713 48.6022V49.4616C32.8713 49.9343 32.8176 50.5788 32.7531 50.8903C32.6887 51.1911 32.4953 51.739 32.3342 52.0934C32.173 52.4479 31.7971 53.0065 31.507 53.3288C31.2062 53.6511 30.7336 54.07 30.4435 54.2634C30.1535 54.4567 29.5734 54.736 29.1652 54.8864C28.5851 55.0905 28.2092 55.155 27.5002 55.155C26.7912 55.155 26.4152 55.0905 25.8351 54.8864C25.4162 54.736 24.8469 54.4567 24.5568 54.2634C24.2668 54.07 23.7941 53.6511 23.4933 53.3288C23.2033 53.0065 22.8273 52.4479 22.6662 52.0934C22.5051 51.739 22.3117 51.1911 22.2473 50.8903C22.1828 50.5788 22.1291 49.9343 22.1291 48.6022L21.5598 48.4304C21.259 48.3337 20.7326 48.0974 20.4103 47.904C20.0881 47.7106 19.6047 47.3132 19.3361 47.0231C19.0676 46.7438 18.7453 46.3356 18.6164 46.1315C18.4875 45.9274 18.2726 45.4655 18.1437 45.111C17.9181 44.5095 17.8967 44.2409 17.8322 40.5993C17.7678 37.4733 17.7248 36.6032 17.5744 36.0876C17.4777 35.7331 17.2736 35.1315 17.1232 34.7448C16.9728 34.3581 16.6721 33.7565 16.4572 33.402C16.2424 33.0475 15.5334 32.2204 14.8781 31.5759C14.2228 30.9206 13.342 29.9323 12.923 29.3737C12.5041 28.8151 11.9455 27.9665 11.6662 27.4938C11.3976 27.0212 10.9787 26.1833 10.7424 25.6462C10.506 25.0983 10.173 24.1745 10.0012 23.6052C9.82928 23.0251 9.6037 22.069 9.49628 21.4782C9.35663 20.7048 9.30292 19.8454 9.30292 18.4167C9.29218 17.235 9.35663 16.1071 9.43182 15.6237C9.51776 15.1833 9.70038 14.3561 9.84003 13.7975C9.97968 13.239 10.2267 12.4333 10.3879 12.0251C10.5383 11.6061 10.925 10.7682 11.2365 10.1452C11.548 9.52216 12.0637 8.65204 12.3752 8.20087C12.6867 7.7497 13.2775 6.97626 13.6965 6.49286C14.1047 6.00946 14.8566 5.24677 15.3615 4.80634C15.8664 4.36591 16.7795 3.65692 17.4025 3.24872C18.0256 2.82977 18.8957 2.31415 19.3361 2.08856C19.7766 1.86298 20.6037 1.51923 21.1623 1.30438C21.7209 1.10028 22.4943 0.842468 22.881 0.745789C23.2678 0.649109 24.0412 0.477234 24.5998 0.369812C25.2873 0.240906 26.2004 0.176453 27.4142 0.16571H27.425ZM24.6105 2.5827C24.1057 2.66864 23.2892 2.862 22.7844 3.02313C22.2795 3.17352 21.3664 3.52802 20.7433 3.8288C20.1203 4.11884 19.132 4.67743 18.5412 5.06415C17.8215 5.54755 17.0373 6.20282 16.1779 7.07294C15.4152 7.83563 14.6096 8.7702 14.2228 9.33954C13.8683 9.86591 13.342 10.7682 13.0627 11.3268C12.7834 11.8854 12.3967 12.8307 12.1926 13.4216C11.9992 14.0124 11.7521 14.9577 11.6447 15.5163C11.5158 16.236 11.4621 17.0847 11.4621 18.363C11.4621 19.6413 11.5158 20.5007 11.6447 21.2097C11.7521 21.7682 12.0207 22.7888 12.2463 23.4655C12.4719 24.1423 12.8693 25.1091 13.1164 25.614C13.3635 26.1188 13.8683 26.9567 14.2336 27.4938C14.5881 28.0202 15.5226 29.1159 16.2961 29.9108C17.0588 30.7057 17.843 31.5759 18.0256 31.8444C18.2082 32.113 18.5627 32.736 18.799 33.2409C19.0461 33.7458 19.3469 34.487 19.4758 34.9059C19.5939 35.3141 19.7551 36.0231 19.8195 36.4636L19.9484 37.2692L22.1398 37.3229V20.3503C26.2863 12.0573 26.7805 11.1442 27.0168 11.0261C27.1672 10.9616 27.3928 10.8972 27.5109 10.8972C27.6291 10.8972 27.8547 10.9616 28.0051 11.0368C28.2414 11.1442 28.7355 12.0573 30.5832 15.7634L32.882 20.3503V37.3229L35.0842 37.2692C35.2131 36.2702 35.342 35.6149 35.4709 35.1745C35.5891 34.7341 35.8361 34.0251 36.0187 33.6169C36.1906 33.1979 36.5558 32.5212 36.8244 32.113C37.093 31.694 37.9523 30.7057 38.7258 29.9108C39.6174 28.987 40.4015 28.0632 40.8527 27.3864C41.2502 26.7956 41.7873 25.8503 42.0451 25.2917C42.3137 24.7331 42.6574 23.8845 42.8078 23.4118C42.9689 22.9391 43.1945 22.069 43.3234 21.4782C43.506 20.6081 43.5598 20.028 43.5598 18.4167C43.5598 16.7731 43.5168 16.236 43.3234 15.3552C43.1945 14.7643 42.9689 13.8942 42.8185 13.4216C42.6682 12.9489 42.3029 12.0788 42.0236 11.488C41.7443 10.8972 41.2394 10.0056 40.9064 9.50067C40.5734 8.99579 39.9826 8.22235 39.5851 7.78192C39.1984 7.34149 38.5324 6.67548 38.1027 6.2995C37.6838 5.92352 36.9533 5.36493 36.4807 5.04266C36.008 4.73114 35.1594 4.237 34.6008 3.96845C34.0422 3.68915 33.0969 3.30243 32.506 3.09833C31.9152 2.90497 30.9914 2.66864 30.465 2.57196C29.9279 2.47528 28.7678 2.3786 27.8869 2.35712C26.9953 2.33563 26.1037 2.34637 25.8996 2.36786C25.6955 2.40009 25.1154 2.49677 24.6105 2.5827ZM24.9328 19.4909H30.0891C28.2092 15.5807 27.6183 14.4421 27.5539 14.4421C27.4894 14.4421 26.8771 15.5807 26.1896 16.9665L24.9328 19.4909ZM24.2883 37.3229H26.4367C26.4367 29.7819 26.4689 28.8796 26.5871 28.6432C26.6623 28.4821 26.8557 28.2888 27.0168 28.2136C27.1672 28.1491 27.3928 28.0847 27.5109 28.0847C27.6291 28.0847 27.8547 28.1491 28.0051 28.2136C28.1662 28.2888 28.3596 28.4821 28.4348 28.6432C28.5529 28.8796 28.5851 29.7819 28.5851 33.1335V37.3229H30.7336V21.6393H24.2883V37.3229ZM19.9914 42.2643C22.9562 42.2643 23.5041 42.3073 23.7189 42.4147C23.8908 42.4899 24.0842 42.6833 24.1486 42.8444C24.2238 42.9948 24.2883 43.2204 24.2883 43.3386C24.2883 43.4567 24.2238 43.6823 24.1379 43.8434C24.0627 44.0153 23.8693 44.2087 23.7082 44.2731C23.5256 44.3698 22.881 44.4128 21.8176 44.4128C20.926 44.4128 20.2062 44.445 20.2062 44.488C20.2062 44.5417 20.3459 44.7995 20.5285 45.0788C20.7004 45.3688 21.0549 45.7448 21.3019 45.9274C21.5598 46.0993 22.0002 46.3249 22.301 46.4108C22.7307 46.529 23.7297 46.5612 27.5109 46.5612C31.2922 46.5612 32.2805 46.529 32.7209 46.4108C33.0109 46.3249 33.4621 46.0993 33.7092 45.9274C33.967 45.7448 34.3107 45.3688 34.4933 45.0788C34.676 44.7995 34.8156 44.5417 34.8156 44.488C34.8156 44.445 34.0851 44.4128 33.2043 44.4128C32.1408 44.4128 31.4963 44.3698 31.3137 44.2731C31.1525 44.2087 30.9592 44.0153 30.884 43.8434C30.798 43.6823 30.7336 43.4567 30.7336 43.3386C30.7336 43.2204 30.798 42.9948 30.884 42.8229C30.9592 42.6618 31.1525 42.4684 31.3137 42.3932C31.4963 42.3073 32.1623 42.2643 33.3117 42.2643H35.0305V39.4714H19.9914V42.2643ZM24.299 49.6442C24.342 50.3854 24.4064 50.7184 24.632 51.1804C24.7824 51.5026 25.0939 51.9323 25.3303 52.1364C25.5558 52.3405 25.9533 52.6091 26.2219 52.7272C26.5764 52.8884 26.9308 52.9528 27.5109 52.9528C28.091 52.9528 28.4455 52.8884 28.8 52.7272C29.0685 52.6091 29.466 52.3405 29.6916 52.1364C29.9172 51.9323 30.2394 51.5026 30.3898 51.1804C30.6154 50.7077 30.6799 50.4069 30.7014 49.6442L30.7336 48.7097H24.256L24.299 49.6442ZM3.52362 17.3425C5.62909 17.3425 6.30585 17.3747 6.53143 17.4821C6.69257 17.5681 6.88593 17.7614 6.96112 17.9118C7.03632 18.0729 7.10077 18.2878 7.10077 18.4059C7.10077 18.5241 7.03632 18.7497 6.96112 18.9108C6.88593 19.0612 6.69257 19.2546 6.53143 19.3405C6.30585 19.4479 5.61835 19.4802 3.55585 19.4802C1.62225 19.4802 0.784363 19.4479 0.591003 19.3513C0.429871 19.2761 0.236511 19.0827 0.161316 18.9216C0.0753784 18.7604 0.0109253 18.5134 0.0109253 18.3845C0.0109253 18.2556 0.0968628 18.03 0.1828 17.8903C0.27948 17.7399 0.451355 17.5681 0.580261 17.4821C0.762878 17.3747 1.47186 17.3425 3.52362 17.3425ZM51.4338 17.3425C53.5392 17.3425 54.216 17.3747 54.4416 17.4821C54.6027 17.5681 54.7961 17.7614 54.8713 17.9118C54.9465 18.0729 55.0109 18.2878 55.0109 18.4059C55.0109 18.5241 54.9465 18.7497 54.8713 18.9108C54.7961 19.0612 54.6027 19.2546 54.4416 19.3405C54.216 19.4479 53.5285 19.4802 51.466 19.4802C49.5324 19.4802 48.6945 19.4479 48.5012 19.3513C48.34 19.2761 48.1467 19.0827 48.0715 18.9216C47.9855 18.7604 47.9211 18.5134 47.9211 18.3845C47.9211 18.2556 48.007 18.03 48.093 17.8903C48.1896 17.7399 48.3615 17.5681 48.4904 17.4821C48.673 17.3747 49.382 17.3425 51.4338 17.3425ZM5.12421 4.4411C5.31757 4.4411 6.15546 4.8493 7.42303 5.57977C8.51874 6.20282 9.5285 6.83661 9.67889 6.97626C9.87225 7.18036 9.94745 7.35223 9.94745 7.68524C9.94745 8.03973 9.883 8.16864 9.59296 8.42645C9.38886 8.60907 9.1203 8.74872 8.94843 8.74872C8.76581 8.74872 7.88495 8.30829 6.67108 7.62079C5.57538 6.99774 4.54413 6.34247 4.383 6.15985C4.18964 5.94501 4.09296 5.73016 4.1037 5.50458C4.11086 5.28257 4.2326 5.04983 4.46893 4.80634C4.70526 4.57001 4.92011 4.4411 5.12421 4.4411ZM49.8762 4.4411C50.048 4.4411 50.3058 4.57001 50.4992 4.74188C50.6926 4.91376 50.8537 5.19305 50.8967 5.4079C50.9504 5.73016 50.9074 5.84833 50.6496 6.12762C50.4777 6.32098 49.6398 6.87958 48.7805 7.38446C47.9211 7.8786 47.0187 8.38348 46.7609 8.51239C46.5139 8.6413 46.1916 8.73798 46.0412 8.73798C45.8908 8.73798 45.6115 8.59833 45.4181 8.42645C45.1389 8.16864 45.0744 8.03973 45.0744 7.68524C45.0744 7.35223 45.1389 7.18036 45.343 6.97626C45.4933 6.83661 46.5031 6.20282 47.5881 5.57977C48.8019 4.88153 49.6935 4.4411 49.8762 4.4411ZM8.94843 28.0739C9.13104 28.0739 9.38886 28.2028 9.59296 28.3962C9.883 28.654 9.94745 28.7829 9.94745 29.1374C9.94745 29.4704 9.87225 29.6423 9.67889 29.8464C9.5285 29.986 8.51874 30.6198 7.42303 31.2429C6.19843 31.9411 5.31757 32.3815 5.13495 32.3815C4.97382 32.3815 4.70526 32.2526 4.5119 32.0807C4.31854 31.9089 4.16815 31.6296 4.12518 31.404C4.07147 31.0925 4.11444 30.9743 4.37225 30.6843C4.54413 30.4909 5.57538 29.8249 6.66034 29.2126C7.88495 28.5143 8.76581 28.0739 8.94843 28.0739ZM46.0412 28.0739C46.1916 28.0739 46.5353 28.1921 46.8146 28.3425C47.0939 28.4821 48.007 28.987 48.8342 29.4704C49.6613 29.9431 50.4777 30.5016 50.6496 30.6843C50.9074 30.9743 50.9504 31.0925 50.8967 31.404C50.8537 31.6296 50.6926 31.9089 50.4992 32.0807C50.3166 32.2526 50.048 32.3815 49.8762 32.3815C49.6935 32.3815 48.8127 31.9411 47.5988 31.2429C46.5031 30.6198 45.4933 29.986 45.343 29.8464C45.1389 29.6423 45.0744 29.4704 45.0744 29.1374C45.0744 28.7829 45.1389 28.6432 45.4289 28.3854C45.6223 28.2243 45.8908 28.0739 46.0412 28.0739ZM27.4787 23.7878C27.6183 23.7878 27.8547 23.8522 28.0158 23.9274C28.1769 24.0134 28.3703 24.2067 28.4455 24.3571C28.5207 24.5182 28.5851 24.7331 28.5851 24.8513C28.5851 24.9694 28.5207 25.2057 28.4348 25.3669C28.3488 25.528 28.1555 25.7214 28.0051 25.7966C27.8547 25.8718 27.6291 25.9255 27.5109 25.9255C27.3928 25.9255 27.1672 25.8718 27.0168 25.7966C26.8557 25.7214 26.6623 25.528 26.5871 25.3669C26.5012 25.2057 26.4367 24.9587 26.4367 24.8298C26.4367 24.7009 26.5226 24.4753 26.6086 24.3356C26.7053 24.1852 26.8771 24.0134 27.006 23.9274C27.1349 23.8522 27.3498 23.7878 27.4787 23.7878Z" fill="white"/>
</g>
<defs>
<clipPath id="clip0_853_549">
<rect width="55" height="55" fill="white" transform="translate(0 0.154785)"/>
</clipPath>
</defs>
</svg>
