<svg width="41" height="53" viewBox="0 0 41 53" fill="none" xmlns="http://www.w3.org/2000/svg">
<path d="M20.0898 27.6547C18.7838 25.5871 17.8364 23.8729 16.5239 20.6449C14.3045 15.1926 30.022 10.2658 23.6492 0.799072C26.4116 7.33853 13.734 11.3812 12.5562 16.8271C11.4793 21.8361 20.0833 27.6547 20.0898 27.6547Z" fill="#738803" fill-opacity="0.7"/>
<path d="M20.3882 17.8525C20.1369 21.0856 23.305 22.8089 23.3966 25.1707C23.4699 27.0931 21.5031 28.6955 21.5031 28.6955C21.5031 28.6955 25.0729 28.0068 26.1865 25.0743C27.4232 21.8181 23.7866 19.5886 24.1608 16.9813C24.5102 14.4909 32.053 9.85845 32.053 9.85845C32.053 9.85845 20.9548 10.5806 20.3882 17.8525Z" fill="#738803" fill-opacity="0.7"/>
<path d="M31.1265 27.8564C33.4217 27.3501 35.3572 28.7855 35.3572 30.4393C35.3572 34.1671 30.0953 37.6907 30.0953 37.6907C30.0953 37.6907 38.2413 36.7372 38.2413 30.6166C38.2413 26.5688 34.2409 25.5575 31.1265 27.8564ZM27.2596 30.8634C27.2596 30.8634 29.7996 29.0862 30.4761 28.4192C24.2433 29.7184 10.0123 29.8932 10.0123 28.7649C10.0123 27.7253 14.6016 26.6601 14.6016 26.6601C14.6016 26.6601 4.4299 26.5161 4.4299 29.4627C4.4299 32.5339 17.7448 32.7536 27.2596 30.8634Z" fill="#D7FF01" fill-opacity="0.7"/>
<path d="M25.6971 33.6595C19.7967 35.5858 8.92883 34.9703 12.148 32.3835C10.5803 32.3835 8.25622 33.621 8.25622 34.8109C8.25622 37.1972 20.01 39.0399 28.7095 35.546L25.6971 33.6595Z" fill="#D7FF01" fill-opacity="0.7"/>
<path d="M13.594 37.7305C11.4531 37.7305 10.0673 39.0849 10.0673 40.0718C10.0673 43.1443 22.8392 43.454 27.8995 40.3352L24.683 38.2381C20.9024 39.87 11.406 40.0949 13.594 37.7305Z" fill="#D7FF01" fill-opacity="0.7"/>
<path d="M36.6186 42.7331C36.6186 41.5303 35.2381 40.9636 34.7434 40.6925C37.659 47.5969 5.53958 47.061 5.53958 42.9849C5.53958 42.0584 7.90421 41.1512 10.0896 41.5804L8.23136 40.5023C3.87636 39.8315 0.918945 41.7115 0.918945 43.2278C0.918945 50.2992 36.6186 49.9587 36.6186 42.7331Z" fill="#D7FF01" fill-opacity="0.7"/>
<path d="M40.1767 45.2671C34.7513 50.5293 20.994 52.4465 7.15962 49.1954C20.994 54.9818 40.1113 51.723 40.1767 45.2671Z" fill="#D7FF01" fill-opacity="0.7"/>
</svg>
