<svg width="40" height="52" viewBox="0 0 40 52" fill="none" xmlns="http://www.w3.org/2000/svg">
<path d="M19.1709 26.8556C17.8649 24.788 16.9175 23.0738 15.605 19.8458C13.3856 14.3935 29.1031 9.46673 22.7302 0C25.4927 6.53946 12.815 10.5821 11.6373 16.028C10.5603 21.037 19.1643 26.8556 19.1709 26.8556Z" fill="#738803"/>
<path d="M19.4692 17.0535C19.218 20.2866 22.3861 22.0098 22.4777 24.3717C22.551 26.294 20.5841 27.8965 20.5841 27.8965C20.5841 27.8965 24.154 27.2077 25.2676 24.2753C26.5042 21.019 22.8676 18.7895 23.2419 16.1822C23.5913 13.6919 31.134 9.05938 31.134 9.05938C31.134 9.05938 20.0358 9.78156 19.4692 17.0535Z" fill="#738803"/>
<path d="M30.2075 27.0573C32.5028 26.551 34.4382 27.9864 34.4382 29.6402C34.4382 33.3681 29.1764 36.8916 29.1764 36.8916C29.1764 36.8916 37.3223 35.9381 37.3223 29.8176C37.3223 25.7697 33.322 24.7584 30.2075 27.0573ZM26.3406 30.0643C26.3406 30.0643 28.8806 28.2871 29.5572 27.6202C23.3243 28.9193 9.0934 29.0941 9.0934 27.9658C9.0934 26.9263 13.6826 25.861 13.6826 25.861C13.6826 25.861 3.51095 25.7171 3.51095 28.6636C3.51095 31.7348 16.8259 31.9545 26.3406 30.0643Z" fill="#D7FF01"/>
<path d="M24.7782 32.8605C18.8777 34.7867 8.00989 34.1712 11.229 31.5845C9.66133 31.5845 7.33727 32.8219 7.33727 34.0119C7.33727 36.3981 19.091 38.2408 27.7906 34.7469L24.7782 32.8605Z" fill="#D7FF01"/>
<path d="M12.675 36.9314C10.5342 36.9314 9.14836 38.2858 9.14836 39.2727C9.14836 42.3452 21.9202 42.6549 26.9805 39.5361L23.764 37.439C19.9835 39.071 10.4871 39.2958 12.675 36.9314Z" fill="#D7FF01"/>
<path d="M35.6997 41.934C35.6997 40.7312 34.3191 40.1645 33.8245 39.8934C36.74 46.7978 4.62064 46.2619 4.62064 42.1858C4.62064 41.2594 6.98526 40.3521 9.17061 40.7813L7.31241 39.7032C2.95742 39.0324 0 40.9124 0 42.4287C0 49.5002 35.6997 49.1596 35.6997 41.934Z" fill="#D7FF01"/>
<path d="M39.2577 44.468C33.8323 49.7302 20.0751 51.6474 6.24067 48.3963C20.0751 54.1828 39.1923 50.924 39.2577 44.468Z" fill="#D7FF01"/>
</svg>
