<svg width="41" height="52" viewBox="0 0 41 52" fill="none" xmlns="http://www.w3.org/2000/svg">
<path d="M19.979 27.3436C18.673 25.276 17.7256 23.5618 16.4131 20.3339C14.1937 14.8815 29.9112 9.95476 23.5383 0.488037C26.3008 7.02749 13.6231 11.0702 12.4454 16.5161C11.3684 21.5251 19.9724 27.3436 19.979 27.3436Z" fill="#738803"/>
<path d="M20.2773 17.5415C20.0261 20.7746 23.1942 22.4978 23.2858 24.8597C23.3591 26.7821 21.3922 28.3845 21.3922 28.3845C21.3922 28.3845 24.9621 27.6957 26.0757 24.7633C27.3123 21.5071 23.6757 19.2776 24.05 16.6703C24.3994 14.1799 31.9421 9.54741 31.9421 9.54741C31.9421 9.54741 20.844 10.2696 20.2773 17.5415Z" fill="#738803"/>
<path d="M31.0156 27.5454C33.3109 27.0391 35.2463 28.4744 35.2463 30.1283C35.2463 33.8561 29.9845 37.3796 29.9845 37.3796C29.9845 37.3796 38.1304 36.4261 38.1304 30.3056C38.1304 26.2578 34.1301 25.2465 31.0156 27.5454ZM27.1487 30.5523C27.1487 30.5523 29.6887 28.7751 30.3653 28.1082C24.1324 29.4074 9.90151 29.5821 9.90151 28.4539C9.90151 27.4143 14.4907 26.349 14.4907 26.349C14.4907 26.349 4.31906 26.2051 4.31906 29.1516C4.31906 32.2228 17.634 32.4426 27.1487 30.5523Z" fill="#D7FF01"/>
<path d="M25.5863 33.3485C19.6858 35.2748 8.81799 34.6592 12.0371 32.0725C10.4694 32.0725 8.14538 33.31 8.14538 34.4999C8.14538 36.8862 19.8991 38.7289 28.5987 35.2349L25.5863 33.3485Z" fill="#D7FF01"/>
<path d="M13.4831 37.4194C11.3423 37.4194 9.95647 38.7739 9.95647 39.7608C9.95647 42.8332 22.7283 43.1429 27.7886 40.0242L24.5721 37.927C20.7916 39.559 11.2952 39.7839 13.4831 37.4194Z" fill="#D7FF01"/>
<path d="M36.5078 42.422C36.5078 41.2193 35.1272 40.6526 34.6326 40.3814C37.5481 47.2858 5.42874 46.75 5.42874 42.6739C5.42874 41.7474 7.79337 40.8402 9.97871 41.2694L8.12052 40.1912C3.76552 39.5205 0.808105 41.4004 0.808105 42.9168C0.808105 49.9882 36.5078 49.6477 36.5078 42.422Z" fill="#D7FF01"/>
<path d="M40.0659 44.9561C34.6404 50.2182 20.8832 52.1355 7.04878 48.8844C20.8832 54.6708 40.0004 51.412 40.0659 44.9561Z" fill="#D7FF01"/>
</svg>
