<svg width="54" height="53" viewBox="0 0 54 53" fill="none" xmlns="http://www.w3.org/2000/svg">
<g opacity="0.8">
<path d="M26.8652 0.111816L18.0545 9.42097L9.22912 18.7155L0.477051 27.966V0.111816H26.8652Z" fill="#C6D60D" fill-opacity="0.7"/>
<path d="M26.8652 0.111816H26.8066L0.477051 27.922V27.966V28.0979V52.8881L13.2167 40.1485L22.2766 31.0886L31.3512 22.014L40.4258 12.9394L53.2534 0.111816H26.8652Z" fill="#F3F809" fill-opacity="0.7"/>
<path d="M13.2167 40.1485L0.477051 52.8881V28.0979L13.2167 40.1485Z" fill="#BEC757" fill-opacity="0.7"/>
<path d="M22.2766 31.0886L13.2167 40.1485L0.477051 28.0979V27.966L9.22912 18.7155L22.2766 31.0886Z" fill="#D1D363" fill-opacity="0.7"/>
<path d="M31.3512 22.014L22.2766 31.0886L9.22912 18.7155L18.0545 9.42097L31.3512 22.014Z" fill="#D6E063" fill-opacity="0.7"/>
<path d="M40.4258 12.9394L31.3512 22.014L18.0545 9.42097L26.8652 0.111816L40.4258 12.9394Z" fill="#DDEC36" fill-opacity="0.7"/>
<path d="M53.2534 0.111816L40.4258 12.9394L26.8652 0.111816H53.2534Z" fill="#F3F809" fill-opacity="0.7"/>
<path d="M8.55476 19.3898L3.39441 24.858L0.477051 22.1019V11.7519L8.55476 19.3898Z" fill="#AAD500" fill-opacity="0.7"/>
<path d="M13.7151 13.9216L8.55476 19.3898L0.477051 11.7519V1.38724L13.7151 13.9216Z" fill="#B7DA2B" fill-opacity="0.7"/>
<path d="M18.8901 8.46806L13.7151 13.9216L0.477051 1.38724V0.111816H10.0501L18.8901 8.46806Z" fill="#CBDE55" fill-opacity="0.7"/>
<path d="M24.0505 2.99985L18.8901 8.46806L10.0501 0.111816H26.8652L24.0505 2.99985Z" fill="#CCE36E" fill-opacity="0.7"/>
<path d="M25.3992 27.966L0.477051 52.8881L17.3655 52.8881H50.3213L25.3992 27.966Z" fill="#AAD500" fill-opacity="0.7"/>
<path d="M29.3281 52.8881H17.3655L8.92126 44.4586L14.9026 38.4773L29.3281 52.8881Z" fill="#B7DA2B" fill-opacity="0.7"/>
<path d="M41.32 52.8881H29.3281L14.9026 38.4773L20.8839 32.4959L41.32 52.8881Z" fill="#CBDE55" fill-opacity="0.7"/>
<path d="M53.2533 52.8881L41.32 52.8881L20.8839 32.4959L26.8652 26.5L53.2533 52.8881Z" fill="#CCE36E" fill-opacity="0.7"/>
</g>
</svg>
