<svg width="53" height="53" viewBox="0 0 53 53" fill="none" xmlns="http://www.w3.org/2000/svg">
<g opacity="0.8">
<path d="M26.3882 0L17.5774 9.30915L8.75207 18.6036L0 27.8542V0H26.3882Z" fill="#C6D60D"/>
<path d="M26.3882 0H26.3295L0 27.8102V27.8542V27.9861V52.7763L12.7396 40.0367L21.7995 30.9768L30.8741 21.9022L39.9487 12.8276L52.7763 0H26.3882Z" fill="#F3F809"/>
<path d="M12.7396 40.0367L0 52.7763V27.9861L12.7396 40.0367Z" fill="#BEC757"/>
<path d="M21.7995 30.9768L12.7396 40.0367L0 27.9861V27.8542L8.75207 18.6036L21.7995 30.9768Z" fill="#D1D363"/>
<path d="M30.8741 21.9022L21.7995 30.9768L8.75207 18.6036L17.5774 9.30915L30.8741 21.9022Z" fill="#D6E063"/>
<path d="M39.9487 12.8276L30.8741 21.9022L17.5774 9.30915L26.3882 0L39.9487 12.8276Z" fill="#DDEC36"/>
<path d="M52.7763 0L39.9487 12.8276L26.3882 0H52.7763Z" fill="#F3F809"/>
<path d="M8.07771 19.278L2.91736 24.7462L0 21.9901V11.6401L8.07771 19.278Z" fill="#AAD500"/>
<path d="M13.2381 13.8098L8.07771 19.278L0 11.6401V1.27543L13.2381 13.8098Z" fill="#B7DA2B"/>
<path d="M18.4131 8.35625L13.2381 13.8098L0 1.27543V0H9.57304L18.4131 8.35625Z" fill="#CBDE55"/>
<path d="M23.5734 2.88804L18.4131 8.35625L9.57304 0H26.3882L23.5734 2.88804Z" fill="#CCE36E"/>
<path d="M24.9221 27.8542L0 52.7763L16.8884 52.7763H49.8443L24.9221 27.8542Z" fill="#AAD500"/>
<path d="M28.851 52.7763H16.8884L8.44421 44.3468L14.4255 38.3654L28.851 52.7763Z" fill="#B7DA2B"/>
<path d="M40.843 52.7763H28.851L14.4255 38.3654L20.4068 32.3841L40.843 52.7763Z" fill="#CBDE55"/>
<path d="M52.7763 52.7763L40.843 52.7763L20.4068 32.3841L26.3881 26.3882L52.7763 52.7763Z" fill="#CCE36E"/>
</g>
</svg>
