<svg width="54" height="54" viewBox="0 0 54 54" fill="none" xmlns="http://www.w3.org/2000/svg">
<g opacity="0.8">
<path d="M27.1667 0.800812L18.356 10.11L9.53064 19.4045L0.778564 28.655V0.800812H27.1667Z" fill="#C6D60D"/>
<path d="M27.1667 0.800812H27.1081L0.778564 28.611V28.655V28.7869V53.5771L13.5182 40.8375L22.5781 31.7776L31.6527 22.703L40.7273 13.6284L53.5549 0.800812H27.1667Z" fill="#F3F809"/>
<path d="M13.5182 40.8375L0.778564 53.5771V28.7869L13.5182 40.8375Z" fill="#BEC757"/>
<path d="M22.5781 31.7776L13.5182 40.8375L0.778564 28.7869V28.655L9.53064 19.4045L22.5781 31.7776Z" fill="#D1D363"/>
<path d="M31.6527 22.703L22.5781 31.7776L9.53064 19.4045L18.356 10.11L31.6527 22.703Z" fill="#D6E063"/>
<path d="M40.7273 13.6284L31.6527 22.703L18.356 10.11L27.1667 0.800812L40.7273 13.6284Z" fill="#DDEC36"/>
<path d="M53.5549 0.800812L40.7273 13.6284L27.1667 0.800812H53.5549Z" fill="#F3F809"/>
<path d="M8.85627 20.0788L3.69592 25.547L0.778564 22.7909V12.4409L8.85627 20.0788Z" fill="#AAD500"/>
<path d="M14.0166 14.6106L8.85627 20.0788L0.778564 12.4409V2.07624L14.0166 14.6106Z" fill="#B7DA2B"/>
<path d="M19.1916 9.15706L14.0166 14.6106L0.778564 2.07624V0.800812H10.3516L19.1916 9.15706Z" fill="#CBDE55"/>
<path d="M24.352 3.68885L19.1916 9.15706L10.3516 0.800812H27.1667L24.352 3.68885Z" fill="#CCE36E"/>
<path d="M25.7007 28.655L0.778564 53.5771L17.667 53.5771H50.6229L25.7007 28.655Z" fill="#AAD500"/>
<path d="M29.6296 53.5771H17.667L9.22277 45.1476L15.2041 39.1662L29.6296 53.5771Z" fill="#B7DA2B"/>
<path d="M41.6216 53.5771H29.6296L15.2041 39.1662L21.1854 33.1849L41.6216 53.5771Z" fill="#CBDE55"/>
<path d="M53.5549 53.5771L41.6216 53.5771L21.1854 33.1849L27.1667 27.189L53.5549 53.5771Z" fill="#CCE36E"/>
</g>
</svg>
