<svg width="23" height="24" viewBox="0 0 23 24" fill="none" xmlns="http://www.w3.org/2000/svg">
<path d="M21.3388 0.747681H2.15665C1.71605 0.747681 1.29349 0.922709 0.981942 1.23426C0.67039 1.54581 0.495361 1.96837 0.495361 2.40897V21.5911C0.495361 22.0317 0.67039 22.4543 0.981942 22.7658C1.29349 23.0774 1.71605 23.2524 2.15665 23.2524H21.3388C21.7794 23.2524 22.202 23.0774 22.5135 22.7658C22.8251 22.4543 23.0001 22.0317 23.0001 21.5911V2.40897C23.0001 1.96837 22.8251 1.54581 22.5135 1.23426C22.202 0.922709 21.7794 0.747681 21.3388 0.747681ZM7.20303 19.9189H3.8195V9.17133H7.20303V19.9189ZM5.50892 7.68196C5.12512 7.67979 4.75055 7.56399 4.4325 7.34915C4.11446 7.13432 3.86717 6.83009 3.72186 6.47485C3.57656 6.11961 3.53974 5.72929 3.61605 5.35314C3.69236 4.97699 3.87839 4.63188 4.15065 4.36136C4.42292 4.09084 4.76921 3.90703 5.14584 3.83314C5.52247 3.75924 5.91255 3.79857 6.26685 3.94615C6.62114 4.09374 6.92378 4.34297 7.13657 4.66239C7.34936 4.98181 7.46276 5.35711 7.46246 5.74092C7.46608 5.99788 7.41793 6.25294 7.32087 6.4909C7.22382 6.72885 7.07986 6.94483 6.89756 7.12596C6.71526 7.30709 6.49836 7.44967 6.25979 7.54519C6.02121 7.64071 5.76585 7.68723 5.50892 7.68196ZM19.6744 19.9283H16.2924V14.0567C16.2924 12.3251 15.5564 11.7906 14.6062 11.7906C13.6028 11.7906 12.6182 12.547 12.6182 14.1005V19.9283H9.2347V9.17915H12.4885V10.6685H12.5323C12.8589 10.0074 14.0029 8.87752 15.7486 8.87752C17.6365 8.87752 19.676 9.99807 19.676 13.28L19.6744 19.9283Z" fill="white" fill-opacity="0.5"/>
</svg>
