<svg width="29" height="29" viewBox="0 0 29 29" fill="none" xmlns="http://www.w3.org/2000/svg">
<path d="M26.9085 0.666672H2.75824C2.20352 0.666672 1.67153 0.887031 1.27929 1.27927C0.887047 1.67152 0.666687 2.20351 0.666687 2.75822V26.9085C0.666687 27.4632 0.887047 27.9952 1.27929 28.3874C1.67153 28.7796 2.20352 29 2.75824 29H26.9085C27.4632 29 27.9952 28.7796 28.3874 28.3874C28.7797 27.9952 29 27.4632 29 26.9085V2.75822C29 2.20351 28.7797 1.67152 28.3874 1.27927C27.9952 0.887031 27.4632 0.666672 26.9085 0.666672ZM9.11159 24.8031H4.85176V11.272H9.11159V24.8031ZM6.97872 9.39688C6.49552 9.39416 6.02395 9.24836 5.62353 8.97789C5.2231 8.70741 4.91178 8.32438 4.72883 7.87714C4.54589 7.42989 4.49953 6.93848 4.59561 6.46492C4.69169 5.99135 4.9259 5.55686 5.26868 5.21627C5.61145 4.87569 6.04744 4.64428 6.52161 4.55124C6.99578 4.45821 7.48689 4.50772 7.93295 4.69353C8.37901 4.87934 8.76003 5.19312 9.02793 5.59527C9.29583 5.99742 9.4386 6.46992 9.43822 6.95313C9.44277 7.27664 9.38215 7.59776 9.25996 7.89734C9.13778 8.19693 8.95653 8.46885 8.72701 8.69689C8.4975 8.92493 8.22442 9.10444 7.92406 9.2247C7.6237 9.34496 7.3022 9.40352 6.97872 9.39688ZM24.813 24.8149H20.5551V17.4227C20.5551 15.2426 19.6284 14.5697 18.4321 14.5697C17.1689 14.5697 15.9293 15.522 15.9293 17.4778V24.8149H11.6695V11.2818H15.766V13.1569H15.8211C16.2323 12.3247 17.6726 10.9021 19.8704 10.9021C22.2472 10.9021 24.815 12.3129 24.815 16.4448L24.813 24.8149Z" fill="white"/>
</svg>
