<svg width="53" height="61" viewBox="0 0 53 61" fill="none" xmlns="http://www.w3.org/2000/svg">
<path d="M52.4055 45.1826V15.1968L26.617 0.202454L0.828613 15.1968V45.1826L26.617 60.1755L52.4055 45.1826Z" fill="url(#paint0_linear_1142_184)"/>
<path d="M38.154 14.7341C36.2795 14.7341 34.7607 16.275 34.7607 18.1766V33.7038L19.8089 16.7349L19.6311 16.5256C17.9426 14.6487 16.0126 14.7341 15.0801 14.7341C13.2057 14.7341 11.6869 16.275 11.6869 18.1766V41.5858C11.6869 43.4875 13.2057 45.0284 15.0801 45.0284C16.9545 45.0284 18.4733 43.4875 18.4733 41.5858V25.9443L33.7808 43.3319L33.9301 43.5274C35.6023 45.2115 37.8757 45.0284 38.154 45.0284C40.0284 45.0284 41.5472 43.4875 41.5472 41.5858V18.1766C41.5472 16.275 40.0284 14.7341 38.154 14.7341Z" fill="#101010"/>
<defs>
<linearGradient id="paint0_linear_1142_184" x1="26.617" y1="0.202454" x2="26.617" y2="60.1755" gradientUnits="userSpaceOnUse">
<stop stop-color="#D7FF01"/>
<stop offset="1" stop-color="#819901"/>
</linearGradient>
</defs>
</svg>
