<svg width="42" height="50" viewBox="0 0 52 60" fill="none" xmlns="http://www.w3.org/2000/svg">
<path d="M51.5768 44.9802V14.9943L25.7884 0L0 14.9943V44.9802L25.7884 59.9731L51.5768 44.9802Z" fill="#D7FF01"/>
<path d="M37.3253 14.5316C35.4509 14.5316 33.9321 16.0725 33.9321 17.9742V33.5014L18.9803 16.5324L18.8025 16.3231C17.114 14.4462 15.184 14.5316 14.2515 14.5316C12.3771 14.5316 10.8583 16.0725 10.8583 17.9742V41.3834C10.8583 43.285 12.3771 44.8259 14.2515 44.8259C16.1259 44.8259 17.6447 43.285 17.6447 41.3834V25.7419L32.9522 43.1294L33.1015 43.325C34.7737 45.0091 37.0471 44.8259 37.3253 44.8259C39.1998 44.8259 40.7186 43.285 40.7186 41.3834V17.9742C40.7186 16.0725 39.1998 14.5316 37.3253 14.5316Z" fill="#101010"/>
</svg>
