<svg width="52" height="61" viewBox="0 0 52 61" fill="none" xmlns="http://www.w3.org/2000/svg">
<path d="M51.8979 45.4936V15.5077L26.1095 0.513428L0.321045 15.5077V45.4936L26.1095 60.4865L51.8979 45.4936Z" fill="#D7FF01" fill-opacity="0.7"/>
<path d="M37.6464 15.0451C35.772 15.0451 34.2532 16.5859 34.2532 18.4876V34.0148L19.3013 17.0459L19.1235 16.8365C17.4351 14.9597 15.505 15.0451 14.5725 15.0451C12.6981 15.0451 11.1793 16.5859 11.1793 18.4876V41.8968C11.1793 43.7985 12.6981 45.3393 14.5725 45.3393C16.447 45.3393 17.9658 43.7985 17.9658 41.8968V26.2553L33.2732 43.6429L33.4225 43.8384C35.0947 45.5225 37.3681 45.3393 37.6464 45.3393C39.5208 45.3393 41.0396 43.7985 41.0396 41.8968V18.4876C41.0396 16.5859 39.5208 15.0451 37.6464 15.0451Z" fill="#101010"/>
</svg>
