<svg width="358" height="358" viewBox="0 0 358 358" fill="none" xmlns="http://www.w3.org/2000/svg">
<path d="M188.545 279.376C216.473 277.936 240.043 267.184 259.254 247.12C278.465 227.057 288.077 202.915 288.091 174.696C288.106 145.605 277.937 120.871 257.583 100.497C237.229 80.1224 212.506 69.9278 183.414 69.913C155.195 69.8987 131.044 79.4867 110.961 98.6771C90.8783 117.867 80.1024 141.426 78.6337 169.354L115.295 158.463C119.085 142.755 127.237 129.886 139.751 119.856C152.266 109.826 166.814 104.815 183.397 104.823C202.597 104.833 219.031 111.678 232.697 125.358C246.363 139.038 253.191 155.478 253.181 174.679C253.173 191.261 248.147 205.804 238.104 218.309C228.061 230.813 215.184 238.952 199.473 242.726L188.545 279.376ZM167.564 348.313C170.182 348.896 172.8 349.188 175.418 349.19L183.273 349.193C207.419 349.206 230.113 344.635 251.354 335.482C272.596 326.329 291.075 313.902 306.793 298.2C322.51 282.499 334.957 264.032 344.131 242.799C353.306 221.567 357.899 198.878 357.912 174.732C357.924 150.586 353.353 127.892 344.2 106.65C335.047 85.4085 322.62 66.9289 306.918 51.2114C291.217 35.4939 272.75 23.0479 251.517 13.8732C230.285 4.69857 207.596 0.105123 183.45 0.0928854C159.304 0.0806482 136.61 4.65109 115.368 13.8042C94.1265 22.9574 75.647 35.3847 59.9295 51.0863C44.212 66.7878 31.7659 85.2548 22.5913 106.487C13.4166 127.719 8.82317 150.409 8.81093 174.555L8.80695 182.409C8.80563 185.028 9.0952 187.646 9.67571 190.265L43.7183 179.809L43.721 174.572C43.7408 135.59 57.2851 102.577 84.3541 75.5357C111.423 48.4941 144.449 34.9832 183.432 35.0029C222.415 35.0227 255.427 48.5671 282.469 75.6361C309.51 102.705 323.021 135.731 323.001 174.714C322.982 213.697 309.437 246.709 282.368 273.751C255.299 300.792 222.273 314.303 183.29 314.283L178.054 314.281L167.564 348.313ZM34.4642 357.846L109.122 283.263L130.908 349.167L183.361 174.643L8.78439 226.92L74.6661 248.772L0.00800451 323.354L34.4642 357.846Z" fill="url(#paint0_linear_1350_272)"/>
<defs>
<linearGradient id="paint0_linear_1350_272" x1="179.086" y1="0.0906738" x2="178.905" y2="357.919" gradientUnits="userSpaceOnUse">
<stop stop-color="#990DCE"/>
<stop offset="1" stop-color="#99349F"/>
</linearGradient>
</defs>
</svg>
