<svg width="53" height="53" viewBox="0 0 53 53" fill="none" xmlns="http://www.w3.org/2000/svg">
<path d="M27.0028 0.342386C24.862 0.349269 23.3779 0.53788 21.5841 0.847641C16.2866 1.77004 15.3215 3.70708 15.3215 7.27691V12.7328H27.7117V15.4863H8.86211C5.23316 15.4863 2.05714 17.1962 1.05078 21.2946C-0.0863693 25.9989 -0.137307 28.9451 1.05078 33.8572C1.95251 37.5206 3.93907 40.2672 7.5694 40.2672H12.5695V33.2404C12.5695 29.1571 16.2673 25.1233 20.5048 25.1233H30.4665C33.9399 25.1233 37.3499 22.5598 37.3499 19.0974V7.27691C37.3499 3.9191 34.9284 1.40796 31.5431 0.844887C31.6271 0.836627 29.1256 0.334126 27.0028 0.342386ZM20.1413 5.84925C21.2716 5.84925 22.2064 6.78129 22.2064 7.91708C22.2064 9.06389 21.2716 9.9794 20.1413 9.9794C18.989 9.9794 18.0763 9.06526 18.0763 7.91708C18.0763 6.78542 18.989 5.84925 20.1413 5.84925Z" fill="#D7FF01" fill-opacity="0.7"/>
<path d="M25.6687 52.6576C27.8095 52.6507 29.2936 52.4621 31.0874 52.1524C36.3849 51.23 37.3499 49.2929 37.3499 45.7231V40.2672H24.9597V37.5137H43.8108C47.4397 37.5137 50.6157 35.8039 51.6221 31.7054C52.7592 27.0011 52.8102 24.055 51.6221 19.1428C50.719 15.4794 48.7324 12.7328 45.1021 12.7328H40.102V19.7596C40.102 23.8429 36.4042 27.8767 32.1667 27.8767H22.205C18.7316 27.8767 15.3215 30.4402 15.3215 33.9026V45.7231C15.3215 49.0809 17.7431 51.592 21.1284 52.1551C21.0444 52.1634 23.5459 52.6659 25.6687 52.6576ZM32.5315 47.1508C31.4013 47.1508 30.4665 46.2187 30.4665 45.0829C30.4665 43.9361 31.4013 43.0206 32.5315 43.0206C33.6838 43.0206 34.5966 43.9348 34.5966 45.0829C34.5966 46.2146 33.6824 47.1508 32.5315 47.1508Z" fill="#D7FF01" fill-opacity="0.7"/>
</svg>
