<svg width="53" height="53" viewBox="0 0 53 53" fill="none" xmlns="http://www.w3.org/2000/svg">
<path d="M26.824 0.00010073C24.6833 0.00698431 23.1992 0.195595 21.4054 0.505356C16.1079 1.42776 15.1428 3.3648 15.1428 6.93462V12.3906H27.533V15.144H8.6834C5.05445 15.144 1.87843 16.8539 0.872065 20.9524C-0.26508 25.6566 -0.316018 28.6028 0.872065 33.5149C1.7738 37.1783 3.76036 39.9249 7.39069 39.9249H12.3908V32.8981C12.3908 28.8148 16.0886 24.781 20.3261 24.781H30.2878C33.7612 24.781 37.1712 22.2176 37.1712 18.7551V6.93462C37.1712 3.57681 34.7496 1.06568 31.3644 0.502602C31.4483 0.494342 28.9469 -0.00815957 26.824 0.00010073ZM19.9626 5.50697C21.0929 5.50697 22.0277 6.43901 22.0277 7.5748C22.0277 8.7216 21.0929 9.63712 19.9626 9.63712C18.8103 9.63712 17.8976 8.72298 17.8976 7.5748C17.8976 6.44314 18.8103 5.50697 19.9626 5.50697Z" fill="#D7FF01"/>
<path d="M25.49 52.3153C27.6308 52.3085 29.1149 52.1198 30.9087 51.8101C36.2062 50.8877 37.1712 48.9506 37.1712 45.3808V39.9249H24.781V37.1715H43.632C47.261 37.1715 50.437 35.4616 51.4434 31.3631C52.5805 26.6588 52.6315 23.7127 51.4434 18.8005C50.5403 15.1371 48.5537 12.3906 44.9234 12.3906H39.9232V19.4173C39.9232 23.5007 36.2255 27.5344 31.988 27.5344H22.0263C18.5529 27.5344 15.1428 30.0979 15.1428 33.5603V45.3808C15.1428 48.7386 17.5644 51.2498 20.9497 51.8128C20.8657 51.8211 23.3672 52.3236 25.49 52.3153ZM32.3528 46.8085C31.2226 46.8085 30.2878 45.8764 30.2878 44.7407C30.2878 43.5938 31.2226 42.6783 32.3528 42.6783C33.5051 42.6783 34.4179 43.5925 34.4179 44.7407C34.4179 45.8723 33.5037 46.8085 32.3528 46.8085Z" fill="#D7FF01"/>
</svg>
