<svg width="53" height="53" viewBox="0 0 53 53" fill="none" xmlns="http://www.w3.org/2000/svg">
<path d="M27.3731 0.0313507C25.2324 0.0382343 23.7483 0.226845 21.9545 0.536606C16.657 1.45901 15.6919 3.39605 15.6919 6.96587V12.4218H28.0821V15.1752H9.23247C5.60352 15.1752 2.4275 16.8851 1.42114 20.9836C0.283992 25.6878 0.233054 28.634 1.42114 33.5461C2.32287 37.2096 4.30943 39.9561 7.93976 39.9561H12.9399V32.9294C12.9399 28.846 16.6377 24.8123 20.8751 24.8123H30.8369C34.3103 24.8123 37.7203 22.2488 37.7203 18.7864V6.96587C37.7203 3.60806 35.2987 1.09693 31.9134 0.533852C31.9974 0.525592 29.496 0.0230904 27.3731 0.0313507ZM20.5117 5.53822C21.642 5.53822 22.5767 6.47026 22.5767 7.60605C22.5767 8.75285 21.642 9.66837 20.5117 9.66837C19.3594 9.66837 18.4467 8.75423 18.4467 7.60605C18.4467 6.47439 19.3594 5.53822 20.5117 5.53822Z" fill="url(#paint0_linear_1142_192)"/>
<path d="M26.0391 52.3466C28.1799 52.3397 29.6639 52.1511 31.4578 51.8413C36.7553 50.9189 37.7203 48.9819 37.7203 45.4121V39.9561H25.3301V37.2027H44.1811C47.8101 37.2027 50.9861 35.4928 51.9925 31.3943C53.1296 26.6901 53.1805 23.7439 51.9925 18.8318C51.0893 15.1684 49.1028 12.4218 45.4725 12.4218H40.4723V19.4486C40.4723 23.5319 36.7745 27.5657 32.5371 27.5657H22.5753C19.102 27.5657 15.6919 30.1291 15.6919 33.5916V45.4121C15.6919 48.7699 18.1135 51.281 21.4988 51.8441C21.4148 51.8523 23.9162 52.3549 26.0391 52.3466ZM32.9019 46.8397C31.7716 46.8397 30.8369 45.9077 30.8369 44.7719C30.8369 43.6251 31.7716 42.7096 32.9019 42.7096C34.0542 42.7096 34.9669 43.6237 34.9669 44.7719C34.9669 45.9036 34.0528 46.8397 32.9019 46.8397Z" fill="url(#paint1_linear_1142_192)"/>
<defs>
<linearGradient id="paint0_linear_1142_192" x1="26.7068" y1="0.03125" x2="26.7068" y2="52.3467" gradientUnits="userSpaceOnUse">
<stop stop-color="#D7FF01"/>
<stop offset="1" stop-color="#819901"/>
</linearGradient>
<linearGradient id="paint1_linear_1142_192" x1="26.7068" y1="0.03125" x2="26.7068" y2="52.3467" gradientUnits="userSpaceOnUse">
<stop stop-color="#D7FF01"/>
<stop offset="1" stop-color="#819901"/>
</linearGradient>
</defs>
</svg>
