<svg width="53" height="53" viewBox="0 0 53 53" fill="none" xmlns="http://www.w3.org/2000/svg">
<path d="M52.7702 25.9099C52.8604 20.3785 51.6049 13.8007 48.9891 6.08323L46.9383 0.03125L44.1525 5.78595C44.0034 6.09361 43.8334 6.39478 43.6555 6.69206C39.0792 2.79242 33.1414 0.420695 26.636 0.420695C12.1891 0.420695 0.478271 12.0443 0.478271 26.3837C0.478271 40.7231 12.1891 52.3467 26.636 52.3467C41.0829 52.3467 52.7937 40.7231 52.7937 26.3837C52.7937 26.224 52.7728 26.0695 52.7702 25.9099Z" fill="url(#paint0_linear_1142_176)"/>
<path d="M46.7578 37.4933C42.6733 43.0779 35.4433 43.3778 28.6384 43.2596H17.2349C23.0262 41.1917 26.4725 40.6997 29.992 38.8459C36.6204 35.3864 43.1729 27.8169 44.537 19.9423C42.0128 27.5183 34.363 34.0272 27.392 36.6741C22.6156 38.4825 13.9887 40.2376 13.9887 40.2376L13.6395 40.0493C7.76712 37.1168 7.58925 24.0652 18.2655 19.8514C22.9399 18.0041 27.4116 19.0193 32.4613 17.7835C37.8524 16.4697 44.0884 12.3208 46.6257 6.91145C49.4665 15.5662 52.8853 29.1176 46.7578 37.4933ZM15.7387 45.1355C15.3699 45.5898 14.8062 45.8559 14.2176 45.8559C13.1412 45.8559 12.2623 44.9771 12.2623 43.9087C12.2623 42.8403 13.1478 41.9615 14.2176 41.9615C14.6636 41.9615 15.1031 42.1147 15.4483 42.3977C16.2854 43.0714 16.4162 44.3047 15.7387 45.1355Z" fill="#101010"/>
<defs>
<linearGradient id="paint0_linear_1142_176" x1="26.636" y1="0.03125" x2="26.636" y2="52.3467" gradientUnits="userSpaceOnUse">
<stop stop-color="#D7FF01"/>
<stop offset="1" stop-color="#819901"/>
</linearGradient>
</defs>
</svg>
