<svg width="54" height="53" viewBox="0 0 54 53" fill="none" xmlns="http://www.w3.org/2000/svg">
<path d="M53.1255 26.2209C53.2158 20.6895 51.9602 14.1118 49.3444 6.39426L47.2937 0.342285L44.5079 6.09698C44.3588 6.40465 44.1887 6.70582 44.0109 7.00309C39.4346 3.10345 33.4968 0.73173 26.9913 0.73173C12.5444 0.73173 0.833618 12.3554 0.833618 26.6947C0.833618 41.0341 12.5444 52.6577 26.9913 52.6577C41.4383 52.6577 53.1491 41.0341 53.1491 26.6947C53.1491 26.5351 53.1281 26.3806 53.1255 26.2209Z" fill="#D7FF01" fill-opacity="0.7"/>
<path d="M47.1132 37.8043C43.0286 43.3889 35.7986 43.6888 28.9937 43.5707H17.5903C23.3816 41.5027 26.8279 41.0107 30.3474 39.157C36.9757 35.6974 43.5283 28.1279 44.8924 20.2533C42.3682 27.8293 34.7183 34.3382 27.7473 36.9852C22.9709 38.7935 14.3441 40.5486 14.3441 40.5486L13.9949 40.3604C8.12247 37.4278 7.94459 24.3762 18.6209 20.1624C23.2953 18.3152 27.7669 19.3303 32.8167 18.0945C38.2078 16.7808 44.4438 12.6319 46.9811 7.22248C49.8218 15.8772 53.2406 29.4286 47.1132 37.8043ZM16.094 45.4465C15.7252 45.9009 15.1615 46.167 14.573 46.167C13.4966 46.167 12.6177 45.2881 12.6177 44.2198C12.6177 43.1514 13.5031 42.2725 14.573 42.2725C15.019 42.2725 15.4584 42.4257 15.8037 42.7087C16.6407 43.3824 16.7715 44.6157 16.094 45.4465Z" fill="#101010"/>
</svg>
