<svg width="53" height="53" viewBox="0 0 53 53" fill="none" xmlns="http://www.w3.org/2000/svg">
<path d="M52.2919 25.8786C52.3821 20.3472 51.1266 13.7695 48.5108 6.05198L46.46 0L43.6742 5.7547C43.5251 6.06236 43.3551 6.36353 43.1772 6.66081C38.601 2.76117 32.6631 0.389445 26.1577 0.389445C11.7108 0.389445 0 12.0131 0 26.3524C0 40.6918 11.7108 52.3154 26.1577 52.3154C40.6046 52.3154 52.3154 40.6918 52.3154 26.3524C52.3154 26.1928 52.2945 26.0383 52.2919 25.8786Z" fill="#D7FF01"/>
<path d="M46.2795 37.462C42.195 43.0467 34.965 43.3465 28.1601 43.2284H16.7566C22.548 41.1604 25.9942 40.6684 29.5138 38.8147C36.1421 35.3551 42.6946 27.7856 44.0588 19.911C41.5345 27.487 33.8847 33.996 26.9137 36.6429C22.1373 38.4512 13.5105 40.2063 13.5105 40.2063L13.1613 40.0181C7.28885 37.0855 7.11098 24.0339 17.7873 19.8202C22.4616 17.9729 26.9333 18.988 31.983 17.7522C37.3742 16.4385 43.6102 12.2896 46.1475 6.8802C48.9882 15.535 52.407 29.0863 46.2795 37.462ZM15.2604 45.1042C14.8916 45.5586 14.3279 45.8247 13.7393 45.8247C12.663 45.8247 11.7841 44.9458 11.7841 43.8775C11.7841 42.8091 12.6695 41.9302 13.7393 41.9302C14.1853 41.9302 14.6248 42.0834 14.9701 42.3664C15.8071 43.0402 15.9379 44.2734 15.2604 45.1042Z" fill="#101010"/>
</svg>
