<svg width="41" height="42" viewBox="0 0 51 52" fill="none" xmlns="http://www.w3.org/2000/svg">
<path d="M4.91805 0C2.81929 0 1.16082 1.12266 0.37553 3.06659C0.127664 3.66706 0.00231939 4.30385 2.89201e-06 4.96039C-0.00231361 7.13562 1.38755 8.90121 2.22149 9.95728C2.36743 10.1419 2.49875 10.3063 2.63774 10.5049L3.01327 11.0069C3.38622 11.4999 3.81094 12.059 3.9453 12.3394C3.98931 12.4679 4.04751 12.6932 4.12627 12.9782C4.48996 14.2983 5.16873 16.7517 6.24822 18.6186C6.68373 19.3709 7.29662 20.3165 7.73676 20.9824C7.44256 22.4684 6.94499 25.2056 6.94499 26.8691C6.94499 29.7897 7.54547 32.1352 8.85429 34.2801C9.33844 35.0464 10.8159 37.3832 13.3154 37.3832C14.2026 37.3832 15.6768 37.0336 16.0753 34.814C17.8474 37.1201 20.844 40.0117 25.477 42.0561C25.477 42.0561 16.792 31.8351 15.2654 25.4636C15.2654 25.4636 13.6041 27.1621 12.1933 30.6294C11.7717 29.5593 11.578 28.3528 11.578 26.8691C11.578 25.4042 12.2169 22.1294 12.4648 20.9915L12.6819 20.0013L12.1119 19.1662C12.1026 19.1498 10.9357 17.4507 10.2523 16.2684C9.47399 14.9226 8.89997 12.8401 8.59187 11.7233C8.4413 11.1789 8.32302 10.7849 8.21182 10.5186C7.80644 9.63306 7.21283 8.85536 6.69162 8.16844L6.40206 7.78055C6.25612 7.56794 6.0633 7.32155 5.84555 7.04585C5.42163 6.50847 4.63246 5.50708 4.65563 4.86456L4.91352 4.68202L4.91805 4.6729C6.75967 4.6729 9.13195 5.99146 10.0261 6.48912C10.318 6.65033 10.5325 6.76172 10.646 6.81312L11.0486 6.99109L11.8404 7.01847C12.8759 7.04183 16.0231 7.11609 18.247 8.01329C22.3032 9.6488 24.5458 11.2859 26.8253 14.2742C32.2088 21.335 34.1951 30.4789 34.2137 30.57L34.5032 31.8889L35.7701 32.3041C35.8141 32.3205 39.3596 33.5155 42.6653 36.6393C38.5072 37.6767 37.0595 39.7196 37.0595 39.7196C37.0595 39.7196 38.1622 41.8878 43.4299 45.2687C46.6151 47.3131 48.3525 48.7733 50.9585 51.4019C50.9585 51.4019 48.3541 45.5603 44.7148 40.9061C47.4854 40.0112 50.8907 39.5462 50.8907 39.5462L48.7823 36.5983C45.3122 31.7455 40.6586 29.2964 38.444 28.3431C37.6749 25.3852 35.3522 17.7912 30.4991 11.4267C27.7216 7.78417 24.7661 5.60587 19.9663 3.66895C17.1239 2.52409 13.7062 2.38752 12.1843 2.35014C10.8523 1.61182 7.89243 0 4.91805 0ZM14.3288 9.34579C14.3288 9.34579 13.3154 9.34579 12.1571 9.63785L15.3423 14.0141C16.211 12.8506 16.211 11.4906 16.211 11.4906C16.211 11.4906 15.633 9.9299 14.3288 9.34579Z" fill="url(#paint0_linear_1355_1563)"/>
<defs>
<linearGradient id="paint0_linear_1355_1563" x1="-2.32103" y1="-6.26168" x2="66.9859" y2="69.4085" gradientUnits="userSpaceOnUse">
<stop stop-color="#D7FF01"/>
<stop offset="1" stop-color="#708503"/>
</linearGradient>
</defs>
</svg>
