<svg width="52" height="53" viewBox="0 0 52 53" fill="none" xmlns="http://www.w3.org/2000/svg">
<path d="M5.59285 0.799072C3.4941 0.799072 1.83563 1.92174 1.05033 3.86566C0.802469 4.46613 0.677124 5.10292 0.674808 5.75946C0.672491 7.93469 2.06236 9.70028 2.8963 10.7564C3.04224 10.9409 3.17355 11.1054 3.31254 11.304L3.68807 11.8059C4.06103 12.2989 4.48574 12.8581 4.6201 13.1384C4.66411 13.2669 4.72232 13.4923 4.80108 13.7773C5.16477 15.0974 5.84354 17.5508 6.92303 19.4176C7.35853 20.17 7.97143 21.1156 8.41156 21.7815C8.11737 23.2675 7.61979 26.0047 7.61979 27.6682C7.61979 30.5888 8.22027 32.9343 9.52909 35.0791C10.0132 35.8455 11.4907 38.1822 13.9902 38.1822C14.8774 38.1822 16.3516 37.8327 16.7501 35.6131C18.5222 37.9191 21.5188 40.8107 26.1518 42.8551C26.1518 42.8551 17.4668 32.6342 15.9402 26.2627C15.9402 26.2627 14.2789 27.9612 12.8681 31.4284C12.4465 30.3584 12.2528 29.1519 12.2528 27.6682C12.2528 26.2033 12.8917 22.9284 13.1396 21.7906L13.3568 20.8003L12.7867 19.9652C12.7774 19.9489 11.6105 18.2497 10.9271 17.0675C10.1488 15.7217 9.57477 13.6392 9.26668 12.5224C9.11611 11.978 8.99782 11.584 8.88663 11.3177C8.48124 10.4321 7.88764 9.65443 7.36642 8.96751L7.07686 8.57963C6.93092 8.36701 6.73811 8.12062 6.52036 7.84492C6.09644 7.30754 5.30727 6.30615 5.33043 5.66363L5.58833 5.48109L5.59285 5.47197C7.43447 5.47197 9.80675 6.79053 10.7009 7.28819C10.9928 7.44941 11.2073 7.56079 11.3208 7.61219L11.7234 7.79016L12.5152 7.81754C13.5507 7.84091 16.6979 7.91516 18.9218 8.81236C22.978 10.4479 25.2206 12.085 27.5001 15.0733C32.8836 22.1341 34.8699 31.278 34.8885 31.3691L35.178 32.6879L36.4449 33.1032C36.4889 33.1196 40.0344 34.3146 43.3401 37.4384C39.182 38.4758 37.7343 40.5187 37.7343 40.5187C37.7343 40.5187 38.837 42.6869 44.1047 46.0677C47.2899 48.1121 49.0273 49.5724 51.6333 52.2009C51.6333 52.2009 49.0289 46.3594 45.3896 41.7052C48.1602 40.8103 51.5655 40.3453 51.5655 40.3453L49.4571 37.3973C45.987 32.5445 41.3334 30.0955 39.1188 29.1422C38.3497 26.1842 36.027 18.5902 31.1739 12.2258C28.3964 8.58324 25.4409 6.40494 20.6411 4.46803C17.7987 3.32317 14.381 3.18659 12.8591 3.14921C11.5271 2.41089 8.56724 0.799072 5.59285 0.799072ZM15.0036 10.1449C15.0036 10.1449 13.9902 10.1449 12.8319 10.4369L16.0171 14.8132C16.8858 13.6496 16.8858 12.2896 16.8858 12.2896C16.8858 12.2896 16.3078 10.729 15.0036 10.1449Z" fill="url(#paint0_linear_246_257)" fill-opacity="0.7"/>
<defs>
<linearGradient id="paint0_linear_246_257" x1="-1.64622" y1="-5.46261" x2="67.6607" y2="70.2076" gradientUnits="userSpaceOnUse">
<stop stop-color="#D7FF01"/>
<stop offset="1" stop-color="#708503"/>
</linearGradient>
</defs>
</svg>
