<svg width="52" height="52" viewBox="0 0 52 52" fill="none" xmlns="http://www.w3.org/2000/svg">
<path d="M5.61971 0.488068C3.52095 0.488068 1.86248 1.61073 1.07719 3.55466C0.829324 4.15512 0.70398 4.79191 0.701663 5.44846C0.699347 7.62369 2.08921 9.38928 2.92315 10.4454C3.06909 10.6299 3.20041 10.7944 3.3394 10.993L3.71493 11.4949C4.08788 11.9879 4.5126 12.5471 4.64696 12.8274C4.69097 12.9559 4.74917 13.1813 4.82793 13.4663C5.19162 14.7864 5.87039 17.2398 6.94989 19.1066C7.38539 19.859 7.99828 20.8046 8.43842 21.4705C8.14422 22.9564 7.64665 25.6937 7.64665 27.3572C7.64665 30.2778 8.24713 32.6233 9.55595 34.7681C10.0401 35.5345 11.5175 37.8712 14.017 37.8712C14.9042 37.8712 16.3785 37.5217 16.7769 35.3021C18.549 37.6081 21.5457 40.4997 26.1787 42.5441C26.1787 42.5441 17.4936 32.3232 15.9671 25.9517C15.9671 25.9517 14.3057 27.6502 12.895 31.1174C12.4734 30.0473 12.2797 28.8409 12.2797 27.3572C12.2797 25.8923 12.9186 22.6174 13.1664 21.4796L13.3836 20.4893L12.8135 19.6542C12.8043 19.6379 11.6374 17.9387 10.954 16.7565C10.1757 15.4107 9.60163 13.3282 9.29353 12.2114C9.14296 11.667 9.02468 11.273 8.91348 11.0066C8.5081 10.1211 7.91449 9.34342 7.39328 8.65651L7.10372 8.26862C6.95778 8.056 6.76496 7.80962 6.54721 7.53392C6.12329 6.99654 5.33412 5.99515 5.35729 5.35263L5.61518 5.17009L5.61971 5.16096C7.46133 5.16096 9.83361 6.47952 10.7278 6.97719C11.0197 7.1384 11.2341 7.24978 11.3476 7.30119L11.7503 7.47916L12.5421 7.50654C13.5775 7.5299 16.7248 7.60416 18.9486 8.50135C23.0048 10.1369 25.2475 11.774 27.5269 14.7623C32.9105 21.823 34.8968 30.967 34.9153 31.0581L35.2049 32.3769L36.4717 32.7922C36.5157 32.8086 40.0613 34.0036 43.3669 37.1274C39.2088 38.1648 37.7612 40.2077 37.7612 40.2077C37.7612 40.2077 38.8638 42.3759 44.1316 45.7567C47.3168 47.8011 49.0541 49.2614 51.6602 51.8899C51.6602 51.8899 49.0557 46.0484 45.4165 41.3942C48.187 40.4993 51.5923 40.0343 51.5923 40.0343L49.4839 37.0863C46.0138 32.2335 41.3602 29.7845 39.1456 28.8312C38.3766 25.8732 36.0538 18.2792 31.2008 11.9148C28.4233 8.27224 25.4677 6.09394 20.6679 4.15702C17.8256 3.01216 14.4079 2.87559 12.8859 2.83821C11.5539 2.09989 8.5941 0.488068 5.61971 0.488068ZM15.0305 9.83386C15.0305 9.83386 14.017 9.83386 12.8588 10.1259L16.044 14.5022C16.9127 13.3386 16.9127 11.9786 16.9127 11.9786C16.9127 11.9786 16.3347 10.418 15.0305 9.83386Z" fill="url(#paint0_linear_1142_216)"/>
<defs>
<linearGradient id="paint0_linear_1142_216" x1="-1.61937" y1="-5.77361" x2="67.6875" y2="69.8966" gradientUnits="userSpaceOnUse">
<stop stop-color="#D7FF01"/>
<stop offset="1" stop-color="#708503"/>
</linearGradient>
</defs>
</svg>
