<svg width="64" height="63" viewBox="0 0 64 63" fill="none" xmlns="http://www.w3.org/2000/svg">
<path d="M31.2423 1.13994C31.4524 0.756861 31.7422 0.495966 32.1115 0.357267C32.2368 0.309724 32.3746 0.310512 32.5005 0.359489C32.6264 0.408466 32.7323 0.502463 32.7993 0.624763L42.8764 19.0916C43.2196 19.7194 43.7297 20.2347 44.3474 20.5776L62.9449 30.9405C63.0319 30.9895 63.1047 31.0621 63.1555 31.1504C63.2064 31.2386 63.2332 31.3391 63.2332 31.4411C63.2332 31.5431 63.2064 31.6426 63.1555 31.729C63.1047 31.8154 63.0319 31.8853 62.9449 31.9312L44.185 42.2544C43.5614 42.597 43.0443 43.1195 42.695 43.7602L32.7037 62.1082C32.2898 62.8677 31.8759 62.8677 31.462 62.1082L20.9932 42.8785C20.8807 42.6775 20.7152 42.5128 20.5156 42.403L1.11578 31.7033C1.04384 31.6636 0.983655 31.6044 0.941693 31.532C0.899732 31.4596 0.877563 31.3767 0.877563 31.2922C0.877563 31.2077 0.899732 31.1248 0.941693 31.0523C0.983655 30.9799 1.04384 30.9207 1.11578 30.881L20.1335 20.5083C20.7752 20.1591 21.3034 19.6216 21.6522 18.9628C24.7343 13.1308 27.931 7.18987 31.2423 1.13994Z" fill="#990DCE"/>
</svg>
