<svg width="52" height="52" viewBox="0 0 52 52" fill="none" xmlns="http://www.w3.org/2000/svg">
<path d="M50.1936 0.488037H1.23948C0.562688 0.488037 0.015625 1.03632 0.015625 1.71189V50.666C0.015625 51.3416 0.562688 51.8899 1.23948 51.8899H50.1936C50.8704 51.8899 51.4175 51.3416 51.4175 50.666V1.71189C51.4175 1.03632 50.8704 0.488037 50.1936 0.488037ZM30.612 27.9574H24.4927V46.9945H19.5973V27.9574H13.478V23.7413H30.612V27.9574ZM31.9839 45.9077V40.8189C31.9839 40.8189 34.7633 42.9141 38.0983 42.9141C41.4333 42.9141 41.3048 40.7332 41.3048 40.4346C41.3048 37.2697 31.8554 37.2697 31.8554 30.2583C31.8554 20.7232 45.6238 24.4854 45.6238 24.4854L45.4524 29.0185C45.4524 29.0185 43.143 27.4789 40.535 27.4789C37.9269 27.4789 36.9858 28.7187 36.9858 30.0441C36.9858 33.4648 46.5208 33.1233 46.5208 40.0075C46.5221 50.611 31.9839 45.9077 31.9839 45.9077Z" fill="url(#paint0_linear_1142_211)"/>
<defs>
<linearGradient id="paint0_linear_1142_211" x1="25.7166" y1="0.488037" x2="25.7166" y2="51.8899" gradientUnits="userSpaceOnUse">
<stop stop-color="#D7FF01"/>
<stop offset="1" stop-color="#819901"/>
</linearGradient>
</defs>
</svg>
