<svg width="42" height="42" viewBox="0 0 52 52" fill="none" xmlns="http://www.w3.org/2000/svg">
<path d="M50.178 0H1.22385C0.547063 0 0 0.548286 0 1.22385V50.178C0 50.8536 0.547063 51.4019 1.22385 51.4019H50.178C50.8548 51.4019 51.4019 50.8536 51.4019 50.178V1.22385C51.4019 0.548286 50.8548 0 50.178 0ZM30.5963 27.4694H24.4771V46.5064H19.5817V27.4694H13.4624V23.2532H30.5963V27.4694ZM31.9683 45.4197V40.3309C31.9683 40.3309 34.7477 42.4261 38.0827 42.4261C41.4177 42.4261 41.2892 40.2452 41.2892 39.9466C41.2892 36.7817 31.8398 36.7817 31.8398 29.7702C31.8398 20.2352 45.6081 23.9973 45.6081 23.9973L45.4368 28.5305C45.4368 28.5305 43.1274 26.9909 40.5193 26.9909C37.9113 26.9909 36.9702 28.2306 36.9702 29.5561C36.9702 32.9767 46.5052 32.6353 46.5052 39.5195C46.5064 50.1229 31.9683 45.4197 31.9683 45.4197Z" fill="#D7FF01"/>
</svg>
