<svg width="53" height="53" viewBox="0 0 53 53" fill="none" xmlns="http://www.w3.org/2000/svg">
<path d="M51.0979 0.799072H2.14378C1.46698 0.799072 0.919922 1.34736 0.919922 2.02293V50.9771C0.919922 51.6526 1.46698 52.2009 2.14378 52.2009H51.0979C51.7747 52.2009 52.3218 51.6526 52.3218 50.9771V2.02293C52.3218 1.34736 51.7747 0.799072 51.0979 0.799072ZM31.5163 28.2685H25.397V47.3055H20.5016V28.2685H14.3823V24.0523H31.5163V28.2685ZM32.8882 46.2187V41.1299C32.8882 41.1299 35.6676 43.2252 39.0026 43.2252C42.3376 43.2252 42.2091 41.0443 42.2091 40.7457C42.2091 37.5808 32.7597 37.5808 32.7597 30.5693C32.7597 21.0343 46.5281 24.7964 46.5281 24.7964L46.3567 29.3295C46.3567 29.3295 44.0473 27.7899 41.4393 27.7899C38.8312 27.7899 37.8901 29.0297 37.8901 30.3551C37.8901 33.7758 47.4251 33.4344 47.4251 40.3185C47.4264 50.922 32.8882 46.2187 32.8882 46.2187Z" fill="#D7FF01" fill-opacity="0.7"/>
</svg>
