<svg width="52" height="32" viewBox="0 0 52 32" fill="none" xmlns="http://www.w3.org/2000/svg">
<path d="M26.0496 0.770386C19.1952 0.770386 14.9112 4.1965 13.1976 11.0487C15.768 7.62261 18.7668 6.33849 22.194 7.19421C24.1496 7.68259 25.5473 9.10166 27.0949 10.6717C29.6139 13.2282 32.5302 16.1884 38.9015 16.1884C45.7559 16.1884 50.0399 12.7623 51.7535 5.90902C49.1831 9.33513 46.1843 10.6203 42.7571 9.7646C40.8025 9.27623 39.4049 7.85716 37.8573 6.28708C35.3372 3.72954 32.4199 0.770386 26.0496 0.770386ZM13.1976 16.1884C6.34327 16.1884 2.05929 19.6145 0.345703 26.4678C2.91609 23.0417 5.91488 21.7565 9.34206 22.6133C11.2966 23.1028 12.6943 24.5208 14.2419 26.0898C16.7619 28.6473 19.6793 31.6075 26.0496 31.6075C32.9039 31.6075 37.1879 28.1814 38.9015 21.3281C36.3311 24.7542 33.3323 26.0394 29.9052 25.1826C27.9495 24.6943 26.5519 23.2752 25.0043 21.7062C22.4853 19.1487 19.569 16.1884 13.1976 16.1884Z" fill="url(#paint0_linear_1142_228)"/>
<defs>
<linearGradient id="paint0_linear_1142_228" x1="26.0496" y1="0.770386" x2="26.0496" y2="31.6075" gradientUnits="userSpaceOnUse">
<stop stop-color="#D7FF01"/>
<stop offset="1" stop-color="#819901"/>
</linearGradient>
</defs>
</svg>
