<svg width="52" height="31" viewBox="0 0 52 31" fill="none" xmlns="http://www.w3.org/2000/svg">
<path d="M25.7039 0C18.8495 0 14.5655 3.42611 12.8519 10.2783C15.4223 6.85223 18.4211 5.5681 21.8483 6.42383C23.8039 6.9122 25.2016 8.33127 26.7492 9.90135C29.2681 12.4578 32.1845 15.418 38.5558 15.418C45.4102 15.418 49.6942 11.9919 51.4078 5.13863C48.8374 8.56475 45.8386 9.84994 42.4114 8.99422C40.4568 8.50584 39.0592 7.08677 37.5116 5.5167C34.9915 2.95916 32.0742 0 25.7039 0ZM12.8519 15.418C5.99757 15.418 1.71359 18.8442 0 25.6975C2.57039 22.2713 5.56917 20.9861 8.99636 21.8429C10.9509 22.3324 12.3486 23.7504 13.8962 25.3194C16.4162 27.8769 19.3336 30.8372 25.7039 30.8372C32.5582 30.8372 36.8422 27.411 38.5558 20.5577C35.9854 23.9839 32.9866 25.2691 29.5595 24.4123C27.6038 23.9239 26.2062 22.5048 24.6586 20.9358C22.1396 18.3783 19.2233 15.418 12.8519 15.418Z" fill="#D7FF01"/>
</svg>
