<svg width="52" height="31" viewBox="0 0 52 31" fill="none" xmlns="http://www.w3.org/2000/svg">
<path d="M26.2288 0.0814209C19.3744 0.0814209 15.0904 3.50753 13.3768 10.3598C15.9472 6.93365 18.946 5.64952 22.3732 6.50525C24.3288 6.99362 25.7265 8.41269 27.2741 9.98277C29.7931 12.5392 32.7094 15.4995 39.0807 15.4995C45.9351 15.4995 50.2191 12.0734 51.9327 5.22006C49.3623 8.64617 46.3635 9.93136 42.9363 9.07564C40.9817 8.58726 39.5841 7.16819 38.0365 5.59812C35.5164 3.04058 32.5991 0.0814209 26.2288 0.0814209ZM13.3768 15.4995C6.52247 15.4995 2.23849 18.9256 0.524902 25.7789C3.09529 22.3528 6.09407 21.0676 9.52126 21.9244C11.4758 22.4138 12.8735 23.8318 14.4211 25.4008C16.9411 27.9583 19.8585 30.9186 26.2288 30.9186C33.0831 30.9186 37.3671 27.4925 39.0807 20.6392C36.5103 24.0653 33.5115 25.3505 30.0844 24.4937C28.1287 24.0053 26.7311 22.5862 25.1835 21.0172C22.6645 18.4597 19.7482 15.4995 13.3768 15.4995Z" fill="#D7FF01" fill-opacity="0.7"/>
</svg>
