<svg width="55" height="56" viewBox="0 0 55 56" fill="none" xmlns="http://www.w3.org/2000/svg">
<g clip-path="url(#clip0_853_547)">
<path fill-rule="evenodd" clip-rule="evenodd" d="M27.5 0.154785C28.0801 0.154785 28.123 0.17627 30.0781 1.49756C31.1738 2.23877 32.1406 2.84033 32.2266 2.84033C32.3125 2.84033 33.376 2.61475 34.5898 2.34619C36.4912 1.92725 36.8564 1.87354 37.2217 1.97021C37.458 2.02393 37.7695 2.17432 37.9199 2.28174C38.0703 2.3999 38.7793 3.34522 39.5098 4.38721C40.2295 5.4292 40.8525 6.27783 40.8955 6.27783C40.9492 6.27783 41.9482 6.42822 43.1299 6.61084C44.3115 6.79346 45.3965 6.98682 45.5469 7.05127C45.6973 7.10498 45.9336 7.25537 46.0625 7.38428C46.2021 7.51318 46.3848 7.74951 46.4707 7.91064C46.5566 8.08252 46.8682 9.18896 47.7061 12.562L49.5 13.5825C50.4775 14.1411 51.4658 14.7319 51.6914 14.9038C51.9492 15.0864 52.1641 15.3657 52.2715 15.645C52.4326 16.0854 52.4326 16.2358 52.1641 18.4165C52.0029 19.6841 51.8848 20.769 51.874 20.8335C51.874 20.8872 52.5186 21.7358 53.3027 22.7134C54.0869 23.6909 54.7959 24.6577 54.8818 24.8618C54.9678 25.0767 55.0107 25.4204 54.9785 25.6675C54.9463 25.936 54.5166 26.8599 53.8398 28.106C53.2383 29.2231 52.7441 30.1685 52.7441 30.2329C52.7441 30.2866 53.0664 31.3394 53.4531 32.564C54.0439 34.4224 54.1514 34.8735 54.0977 35.2495C54.0547 35.5718 53.915 35.8511 53.625 36.1519C53.4102 36.3989 52.54 37.1831 50.1768 39.2026L50.123 39.9546C50.0908 40.3628 50.0371 41.3296 49.9941 42.103C49.9619 42.8657 49.8867 43.6821 49.833 43.9077C49.7793 44.1226 49.6074 44.4556 49.4463 44.6382C49.2744 44.8315 49.0273 45.0356 48.877 45.1108C48.7266 45.186 47.7383 45.5513 46.6748 45.9165C45.6113 46.2925 44.6875 46.6255 44.6338 46.6685C44.5693 46.7114 44.1182 47.6353 43.624 48.7202C43.1299 49.8052 42.625 50.8364 42.4961 51.0083C42.3779 51.1909 42.0557 51.4272 41.7871 51.5347C41.3359 51.728 41.1318 51.7388 36.5771 51.5884L35.0195 53.146C34.1602 53.9946 33.3008 54.8003 33.1074 54.9292C32.8711 55.0796 32.5918 55.1548 32.2266 55.1548C31.9365 55.1548 31.582 55.0903 31.4531 55.0044C31.3135 54.9292 30.3789 54.5103 27.5537 53.2964L25.5664 54.1343C24.4707 54.5854 23.5361 55.0044 23.4717 55.0581C23.418 55.1118 23.1172 55.1548 22.8057 55.1548C22.4082 55.1548 22.1289 55.0903 21.8818 54.9292C21.6992 54.8003 20.8398 53.9946 18.4229 51.5884L16.0059 51.6636C13.6748 51.7388 13.5674 51.7388 13.127 51.5132C12.8799 51.395 12.5898 51.1587 12.4717 50.9868C12.3643 50.8257 11.8809 49.8267 11.3975 48.7632C10.9141 47.6997 10.4629 46.7759 10.3877 46.7114C10.3125 46.6362 9.53906 46.3354 8.64746 46.0239C7.7666 45.7124 6.78906 45.3794 6.49902 45.272C6.1875 45.1538 5.81152 44.9067 5.61816 44.6919C5.4248 44.4771 5.2207 44.1226 5.16699 43.897C5.11328 43.6821 5.03808 42.8657 5.00586 42.103C4.96289 41.3296 4.90918 40.3628 4.82324 39.2026L3.29785 37.9028C2.45996 37.1831 1.58984 36.3989 1.375 36.1519C1.08496 35.8403 0.945311 35.5718 0.902342 35.2495C0.848631 34.8735 0.956053 34.4224 1.54687 32.5747C1.93359 31.3394 2.25586 30.2866 2.25586 30.2329C2.25586 30.1685 1.76172 29.2231 1.16015 28.106C0.569334 26.9995 0.0537094 25.9253 0.0214828 25.7212C-1.52634e-06 25.5171 0.032225 25.1519 0.118163 24.9155C0.2041 24.6685 0.848631 23.7554 1.68652 22.7134C2.48144 21.7358 3.11523 20.8657 3.11523 20.7798C3.11523 20.6938 2.98633 19.6304 2.83594 18.4165C2.62109 16.7192 2.57812 16.1284 2.66406 15.8384C2.72851 15.6343 2.8789 15.3442 2.98633 15.1938C3.10449 15.0435 4.11426 14.3882 7.29394 12.562L7.8418 10.3599C8.14258 9.146 8.44336 8.06104 8.50781 7.94287C8.57226 7.82471 8.74414 7.59912 8.90527 7.42725C9.05566 7.26611 9.32422 7.0835 9.50683 7.02979C9.67871 6.97607 10.7852 6.78271 11.9453 6.6001C13.1162 6.42822 14.0937 6.27783 14.126 6.27783C14.1582 6.27783 14.7705 5.4292 15.4902 4.38721C16.2207 3.34522 16.9297 2.3999 17.0801 2.28174C17.2305 2.17432 17.542 2.02393 17.7783 1.97021C18.1436 1.87354 18.5088 1.9165 20.4102 2.34619C21.624 2.61475 22.6875 2.84033 22.7734 2.84033C22.8594 2.84033 23.8262 2.23877 24.9219 1.5083C26.8555 0.197754 26.9199 0.165527 27.5 0.154785ZM23.042 4.41943C22.6445 4.45166 21.9463 4.34424 20.3027 3.979C18.2187 3.50635 18.0898 3.49561 17.9609 3.66748C17.875 3.7749 17.2949 4.61279 16.6611 5.52588C16.0273 6.43896 15.3613 7.31982 15.1895 7.47021C15.0176 7.62061 14.7275 7.771 14.5557 7.81397C14.373 7.85693 13.2881 8.02881 12.1387 8.21143C10.9893 8.39404 10.0117 8.57666 9.97949 8.61963C9.93652 8.6626 9.67871 9.64014 9.39941 10.7896C9.12012 11.939 8.79785 13.0669 8.69043 13.2817C8.57226 13.5073 8.35742 13.7759 8.18555 13.8833C8.02441 14.0015 7.10058 14.5386 6.13379 15.0972C5.16699 15.6558 4.33984 16.1499 4.28613 16.2144C4.24316 16.2681 4.3291 17.3638 4.49023 18.6313C4.72656 20.5542 4.74805 21.0161 4.64062 21.3706C4.56543 21.6499 4.00683 22.4341 3.06152 23.5942C2.2666 24.5933 1.61133 25.4312 1.61133 25.4741C1.61133 25.5278 2.10547 26.4731 2.70703 27.6011C3.40527 28.9009 3.81348 29.7925 3.8457 30.0718C3.87793 30.394 3.7168 31.0386 3.17969 32.7036C2.79297 33.9175 2.4707 34.938 2.4707 34.981C2.4707 35.0347 3.27637 35.7544 4.27539 36.603C5.39258 37.5591 6.13379 38.2788 6.25195 38.5044C6.3916 38.7837 6.4668 39.4497 6.56347 41.1899C6.63867 42.5757 6.73535 43.5425 6.81055 43.6177C6.875 43.6821 7.74512 44.0151 8.75488 44.3589C9.7539 44.7026 10.7959 45.0894 11.0537 45.2075C11.333 45.3364 11.6338 45.5942 11.7734 45.8091C11.9023 46.0132 12.418 47.0767 12.9121 48.1509L13.8037 50.1274C17.2949 49.9985 18.5088 50.0093 18.7451 50.0522C19.1104 50.1167 19.4219 50.3745 20.8936 51.8354C21.8389 52.77 22.6553 53.5327 22.7197 53.5435C22.7734 53.5435 23.7832 53.1353 24.9541 52.6304C26.4365 51.9858 27.1992 51.7173 27.5 51.7173C27.8008 51.7173 28.5635 51.9858 30.0566 52.6304C31.2168 53.1353 32.2158 53.5435 32.2803 53.5435C32.334 53.5327 33.1611 52.77 34.1064 51.8354C35.5781 50.3745 35.8896 50.1167 36.2549 50.0522C36.4912 50.0093 37.6943 49.9985 38.9404 50.0522L41.1963 50.1274C42.7646 46.6792 43.248 45.7446 43.4521 45.5513C43.71 45.2935 44.2471 45.0571 45.9228 44.4771C47.1045 44.0688 48.125 43.6821 48.1895 43.6177C48.2646 43.5425 48.3613 42.5757 48.4365 41.1899C48.5332 39.4497 48.6084 38.7837 48.748 38.5044C48.8662 38.2788 49.6074 37.5591 50.7246 36.603C51.7236 35.7544 52.5293 35.0347 52.5293 34.981C52.5293 34.938 52.207 33.939 51.8311 32.7573C51.4443 31.5757 51.1328 30.4155 51.1328 30.1792C51.1328 29.8354 51.3691 29.3091 52.2607 27.6548C52.8838 26.5054 53.3887 25.5278 53.3887 25.4741C53.3887 25.4312 52.7334 24.5933 51.9385 23.605C50.9932 22.4341 50.4346 21.6499 50.3594 21.3706C50.2519 21.0161 50.2734 20.5542 50.5098 18.6313C50.6709 17.3638 50.7568 16.2681 50.7139 16.2144C50.6602 16.1499 49.833 15.6558 48.8662 15.0972C47.8994 14.5386 46.9756 13.9907 46.8037 13.8833C46.6426 13.7759 46.4277 13.5073 46.3096 13.2817C46.2021 13.0669 45.8799 11.939 45.6006 10.7896C45.3213 9.64014 45.0635 8.6626 45.0205 8.60889C44.9883 8.56592 44.0107 8.3833 42.8613 8.21143C41.7119 8.02881 40.6162 7.85693 40.4443 7.81397C40.2617 7.771 39.9824 7.62061 39.8105 7.47021C39.6387 7.31982 38.9404 6.396 38.2637 5.41846C37.5869 4.44092 37.0068 3.61377 36.9639 3.5708C36.9316 3.51709 35.9111 3.71045 34.6973 3.979C33.3115 4.29053 32.3125 4.45166 32.001 4.43018C31.582 4.39795 31.2275 4.21533 29.5303 3.0874C28.4453 2.35693 27.5322 1.76611 27.5 1.76611C27.4678 1.76611 26.5762 2.34619 25.5127 3.06592C23.8369 4.18311 23.5039 4.36572 23.042 4.41943ZM27.8223 6.86865C29.9492 6.90088 30.4004 6.93311 31.582 7.18018C32.3232 7.34131 33.4297 7.64209 34.0527 7.84619C34.6758 8.05029 35.7607 8.50147 36.4697 8.84522C37.1787 9.18897 38.3389 9.86572 39.0478 10.3384C39.7568 10.811 40.7666 11.5845 41.3037 12.0571C41.8301 12.5298 42.582 13.271 42.958 13.7007C43.334 14.1411 43.9033 14.8286 44.2041 15.2476C44.5156 15.6558 44.9668 16.3218 45.2139 16.7192C45.4502 17.1274 45.8691 17.8687 46.1269 18.3843C46.3848 18.9106 46.7715 19.8022 46.9863 20.3823C47.2012 20.9517 47.4912 21.9185 47.6416 22.52C47.792 23.1323 47.9853 24.1851 48.082 24.8618C48.2109 25.7964 48.2432 26.6021 48.2002 28.1919C48.168 29.3628 48.0713 30.6626 47.9853 31.146C47.8994 31.6187 47.7168 32.4136 47.5879 32.9185C47.459 33.4233 47.1797 34.2935 46.9756 34.8521C46.7607 35.4106 46.4062 36.2593 46.1699 36.7319C45.9336 37.2046 45.5361 37.9136 45.2891 38.311C45.0205 38.7622 44.7412 39.0737 44.5801 39.1382C44.4082 39.2026 44.2041 39.1919 43.9893 39.106C43.8066 39.0308 43.6348 38.8911 43.5811 38.7944C43.5381 38.6978 43.5059 38.5151 43.5059 38.397C43.5059 38.2788 43.6992 37.8599 43.9463 37.4517C44.1826 37.0542 44.5908 36.2915 44.8486 35.7651C45.0957 35.228 45.4824 34.2935 45.6865 33.6704C45.8906 33.0474 46.1699 32.0054 46.2988 31.3608C46.4707 30.5337 46.5566 29.6206 46.5996 28.2993C46.6318 27.1392 46.5996 26.0112 46.5244 25.3452C46.4492 24.7544 46.2881 23.8306 46.1699 23.3042C46.0518 22.7671 45.7832 21.854 45.5791 21.2632C45.375 20.6724 45.0635 19.8774 44.8809 19.4907C44.709 19.104 44.3223 18.3843 44.0215 17.8794C43.7207 17.3745 43.1514 16.5259 42.7539 15.9995C42.3564 15.4624 41.4541 14.4741 40.7559 13.7974C39.918 12.981 39.0586 12.272 38.2422 11.7349C37.5654 11.2837 36.502 10.6606 35.8789 10.3491C35.2559 10.0483 34.1924 9.60791 33.5156 9.38232C32.8389 9.15674 31.7969 8.8667 31.2061 8.74854C30.4326 8.57666 29.5732 8.50147 28.1445 8.4585C26.834 8.41553 25.792 8.43701 25.083 8.53369C24.4922 8.60889 23.5469 8.78076 22.9883 8.92041C22.4297 9.04932 21.6025 9.28564 21.1621 9.42529C20.5605 9.61865 20.2812 9.66162 20.0557 9.59717C19.8945 9.54346 19.7119 9.40381 19.6582 9.28564C19.5937 9.16748 19.5508 8.96338 19.5508 8.82373C19.5508 8.69482 19.6582 8.47998 19.7871 8.34033C19.9268 8.21143 20.4961 7.95361 21.0547 7.78174C21.6133 7.59912 22.6553 7.34131 23.3643 7.19092C24.0732 7.05127 24.8252 6.91162 25.0293 6.89014C25.2334 6.85791 26.4902 6.84717 27.8223 6.86865ZM16.9512 9.84424C17.209 9.86572 17.3916 9.9624 17.5527 10.1772C17.7353 10.4136 17.7568 10.521 17.6709 10.7573C17.6064 10.9292 17.166 11.3267 16.543 11.7778C15.9844 12.1753 15.1787 12.8091 14.7705 13.1636C14.3516 13.5288 13.6426 14.2378 13.1807 14.7534C12.7187 15.2583 11.999 16.1821 11.5801 16.8052C11.1611 17.4282 10.5703 18.438 10.2588 19.061C9.94726 19.6841 9.51758 20.6724 9.31347 21.2632C9.10937 21.854 8.79785 22.9175 8.63672 23.6265C8.33594 24.8726 8.32519 25.0229 8.32519 27.6548C8.32519 30.2866 8.33594 30.4478 8.63672 31.6831C8.79785 32.3921 9.10937 33.4341 9.31347 33.9927C9.51758 34.5513 9.96875 35.5396 10.3018 36.1948C10.6348 36.8394 11.1396 37.7095 11.4082 38.1284C11.6875 38.5366 12.3105 39.3638 12.8047 39.9546C13.2988 40.5454 14.1689 41.437 14.7275 41.9204C15.2861 42.4145 16.2637 43.1772 16.9189 43.6069C17.5635 44.0474 18.6592 44.6597 19.3359 44.9927C20.0127 45.3149 21.0332 45.7339 21.5918 45.9165C22.1504 46.0991 23.0957 46.3569 23.6865 46.4858C24.6211 46.6899 25.0937 46.7222 27.3389 46.7222C29.6162 46.7222 30.0566 46.6899 31.1523 46.4751C31.8291 46.3355 32.8926 46.0454 33.5156 45.8413C34.1387 45.6372 35.0732 45.2612 35.6103 45.0142C36.1367 44.7671 36.9853 44.3052 37.4902 43.9937C37.9951 43.6714 38.6934 43.1987 39.0478 42.9302C39.4023 42.6509 40.0791 42.0601 40.5518 41.6196C41.0244 41.1685 41.5078 40.7817 41.626 40.7388C41.7441 40.7065 42.0019 40.7495 42.1953 40.8247C42.4209 40.9321 42.5605 41.0718 42.6035 41.2651C42.6357 41.437 42.6357 41.6733 42.6035 41.8022C42.5713 41.9419 42.0449 42.4897 41.4434 43.0161C40.8311 43.5532 39.8965 44.2944 39.3701 44.6812C38.833 45.0571 37.8018 45.6802 37.0605 46.0562C36.3193 46.4429 35.2559 46.9263 34.6973 47.1304C34.1387 47.3452 33.1934 47.6353 32.6025 47.7856C32.0117 47.936 31.0234 48.1294 30.4004 48.2261C29.7559 48.312 28.4883 48.3872 27.4463 48.3872C26.3613 48.3872 25.1582 48.3228 24.4922 48.2153C23.8691 48.1294 22.8164 47.9146 22.1611 47.7427C21.4951 47.5601 20.4531 47.2271 19.8516 46.98C19.2393 46.7437 18.2832 46.3032 17.7246 46.0024C17.166 45.7017 16.3389 45.2183 15.8984 44.9175C15.458 44.6167 14.7275 44.0796 14.2871 43.7251C13.8467 43.3599 13.0518 42.6294 12.5254 42.103C11.999 41.5659 11.2256 40.6743 10.8066 40.1157C10.377 39.5571 9.83984 38.7515 9.59277 38.3433C9.35644 37.9243 8.95898 37.2046 8.72265 36.7319C8.48633 36.2593 8.12109 35.4106 7.91699 34.8521C7.70215 34.2935 7.41211 33.3481 7.26172 32.7573C7.11133 32.1665 6.91797 31.1782 6.83203 30.5552C6.72461 29.8784 6.66015 28.6753 6.66015 27.5474C6.66015 26.4194 6.72461 25.2378 6.82129 24.5933C6.91797 24.0024 7.12207 22.9819 7.29394 22.3374C7.46582 21.6821 7.80957 20.6509 8.0459 20.0278C8.29297 19.4048 8.74414 18.438 9.04492 17.8794C9.3457 17.3208 9.91504 16.3755 10.3232 15.7847C10.7207 15.1938 11.4512 14.2485 11.9453 13.6899C12.4502 13.1313 13.3311 12.2612 13.9219 11.7778C14.502 11.2837 15.3398 10.6392 15.7803 10.3491C16.4248 9.91943 16.6504 9.82275 16.9512 9.84424ZM28.3916 11.8638C28.7568 11.8638 29.251 11.9604 29.6269 12.1001C29.9922 12.2397 30.4541 12.5298 30.7656 12.8198C31.0449 13.0884 31.4102 13.5503 31.8506 14.3882V17.8794C31.8506 19.8022 31.8936 21.4351 31.9365 21.4995C31.9902 21.6069 32.9141 21.6392 35.9648 21.6392C39.1123 21.6392 40.0146 21.6714 40.4443 21.7896C40.7451 21.8862 41.1748 22.1118 41.4111 22.3159C41.6475 22.5093 41.9482 22.9067 42.0879 23.1753C42.2598 23.5405 42.3242 23.8735 42.3242 24.3462C42.3242 24.7759 42.249 25.1841 42.1201 25.4526C42.0127 25.689 41.8193 25.9897 41.4648 26.3657L41.7334 26.9028C41.9268 27.3003 42.002 27.6118 42.002 28.0845C42.002 28.439 41.9268 28.9116 41.8408 29.1265C41.7441 29.3521 41.4541 29.7495 40.6914 30.5015L40.8633 30.8452C40.9707 31.0601 41.0352 31.4683 41.0352 31.8657C41.0352 32.2847 40.96 32.7144 40.8418 32.9722C40.7344 33.2085 40.4551 33.5845 39.7998 34.2183L39.9932 34.5835C40.1113 34.8306 40.1758 35.1958 40.1758 35.6255C40.1758 36.0444 40.1006 36.4634 39.9717 36.7319C39.8643 36.9683 39.6172 37.3228 39.4131 37.5269C39.209 37.7202 38.8975 37.9673 38.7256 38.064C38.4678 38.2036 37.9736 38.2466 36.1475 38.2681C34.0957 38.3003 33.8701 38.2895 33.6338 38.1069C33.4512 37.9673 33.376 37.8062 33.376 37.5376C33.376 37.269 33.4512 37.0972 33.666 36.9146C33.9346 36.689 34.0312 36.6782 35.9326 36.6782C37.8984 36.6782 37.9199 36.6782 38.2422 36.4097C38.5 36.1948 38.5645 36.0552 38.5645 35.7114C38.5645 35.4751 38.5107 35.1851 38.457 35.0669C38.3926 34.9487 38.1992 34.7769 38.0273 34.6909C37.8447 34.605 37.415 34.5298 37.0605 34.5298C36.5557 34.5298 36.373 34.4868 36.2012 34.3149C36.0723 34.186 35.9863 33.9604 35.9863 33.7241C35.9863 33.4341 36.0615 33.2944 36.2871 33.1333C36.5342 32.9399 36.7383 32.9077 37.6836 32.9185C38.6934 32.9185 38.8008 32.897 39.1016 32.6499C39.3594 32.4351 39.4238 32.2954 39.4238 31.9517C39.4238 31.7153 39.3701 31.4253 39.3164 31.3071C39.252 31.189 39.0586 31.0171 38.8867 30.9312C38.7041 30.8452 38.2744 30.77 37.9199 30.77C37.415 30.77 37.2324 30.7271 37.0605 30.5552C36.9316 30.4263 36.8457 30.2007 36.8457 29.9644C36.8457 29.6743 36.9209 29.5347 37.1465 29.3735C37.3936 29.1802 37.5977 29.1479 38.5967 29.1587C39.7568 29.1587 39.7676 29.1587 40.0791 28.8364C40.3047 28.6001 40.3906 28.4067 40.3906 28.1382C40.3906 27.9341 40.3369 27.6655 40.2832 27.5474C40.2187 27.4292 40.0254 27.2573 39.8535 27.1714C39.6709 27.0854 39.2412 27.0103 38.8867 27.0103C38.3818 27.0103 38.1992 26.9673 38.0273 26.7954C37.8984 26.6665 37.8125 26.4409 37.8125 26.2046C37.8125 25.9146 37.8877 25.7749 38.1133 25.6138C38.3496 25.4312 38.5644 25.3882 39.2412 25.3989C39.9717 25.3989 40.1113 25.3667 40.3906 25.1304C40.6484 24.9155 40.7129 24.7759 40.7129 24.4321C40.7129 24.1958 40.6592 23.9058 40.6055 23.7876C40.541 23.6694 40.3477 23.4976 40.1758 23.4116C39.9072 23.272 39.1768 23.2505 31.6357 23.2505L31.2061 22.9927C30.959 22.8423 30.6582 22.5308 30.2393 21.8003L30.2715 18.4165C30.3037 16.0425 30.2715 14.936 30.1855 14.7104C30.1211 14.5278 29.9385 14.2485 29.7773 14.0767C29.6162 13.9048 29.3262 13.7007 29.1436 13.6255C28.9502 13.5396 28.6387 13.4751 28.4668 13.4751C28.2842 13.4751 28.123 13.5396 28.0908 13.604C28.0693 13.6792 27.9941 14.7534 27.9297 15.9995C27.8545 17.7505 27.7686 18.481 27.5645 19.2759C27.4248 19.8345 27.1348 20.6616 26.9092 21.1021C26.6836 21.5425 26.3506 22.1226 26.168 22.3911C25.9854 22.6597 25.502 23.229 25.083 23.6587C24.6748 24.0991 24.0625 24.6255 23.7402 24.8403C23.418 25.0444 22.9453 25.2915 22.2363 25.5063V35.8188L22.5371 35.937C22.6982 36.0015 23.2891 36.1733 23.8477 36.3237C24.7822 36.5815 25.1152 36.6138 30.7441 36.7319L30.9482 37.0005C31.0664 37.1509 31.1631 37.3872 31.1631 37.5376C31.1631 37.688 31.0449 37.9136 30.6689 38.3003L27.6611 38.2573C24.6963 38.2144 24.6318 38.2144 23.3643 37.8813C22.6553 37.688 22.0752 37.5376 22.0752 37.5376C22.0752 37.5269 22.0107 37.6665 21.9463 37.8276C21.8711 37.9888 21.6777 38.2573 21.5166 38.4185C21.3447 38.5796 21.0332 38.7837 20.8184 38.8696C20.4961 39.0093 19.9697 39.0415 18.3906 39.0415C16.5215 39.0415 16.3496 39.0308 15.9092 38.8052C15.6406 38.6655 15.2754 38.3755 14.7705 37.731L14.749 33.3911C14.7168 29.1802 14.7275 29.0405 14.9316 28.8364C15.0498 28.7183 15.2646 28.6216 15.415 28.6216C15.5654 28.6216 15.7803 28.6646 15.8984 28.729C16.0166 28.7827 16.1562 29.019 16.2207 29.2339C16.2852 29.4702 16.3281 31.2319 16.3174 33.4019C16.3174 36.3452 16.3496 37.1938 16.457 37.2905C16.5645 37.3872 17.1016 37.4194 20.3457 37.3765L20.4853 37.1079C20.5928 36.8931 20.6143 35.4321 20.5928 30.2759C20.5713 23.8735 20.5605 23.7017 20.3564 23.4761C20.1523 23.2612 20.0449 23.2397 18.4229 23.2397C16.9082 23.2397 16.6826 23.272 16.5322 23.4331C16.3926 23.5835 16.3389 23.895 16.3174 24.7759C16.2744 25.7964 16.2422 25.9575 16.0381 26.1616C15.9092 26.2905 15.6621 26.4087 15.4902 26.4087C15.3076 26.4194 15.0713 26.3228 14.9424 26.2046C14.7275 26.0005 14.7061 25.8823 14.7168 24.5933C14.7168 23.3042 14.7383 23.1646 14.9854 22.7349C15.1572 22.4556 15.4473 22.1763 16.2744 21.6929H20.5713L21.0869 21.9829C21.3984 22.1763 21.6885 22.4556 21.8604 22.7349C22 22.9927 22.1289 23.3257 22.1289 23.4868C22.1289 23.6587 22.1934 23.7876 22.2686 23.7876C22.333 23.7876 22.5371 23.7017 22.7197 23.5835C22.8916 23.4761 23.2998 23.1538 23.6221 22.8638C23.9336 22.5737 24.417 22.0474 24.6855 21.6929C24.9541 21.3384 25.3086 20.7583 25.4697 20.4038C25.6416 20.0493 25.8779 19.3726 25.9961 18.8999C26.1572 18.2769 26.2432 17.439 26.3184 15.8384C26.3828 14.6245 26.4473 13.4751 26.4795 13.2817C26.5117 13.0991 26.6406 12.7876 26.7803 12.605C26.9199 12.4116 27.1992 12.1753 27.4033 12.0679C27.6396 11.939 27.9941 11.8638 28.3916 11.8638Z" fill="white"/>
</g>
<defs>
<clipPath id="clip0_853_547">
<rect width="55" height="55" fill="white" transform="translate(0 0.154785)"/>
</clipPath>
</defs>
</svg>
