<svg width="1263" height="232" viewBox="0 0 1263 232" fill="none" xmlns="http://www.w3.org/2000/svg">
<path d="M19.1466 3.25451L28.9026 101.2L33.8066 52.2271L38.7106 3.25451H57.8573L38.0324 147.848V228.9H19.877V147.848L0 3.25451H19.1466Z" fill="white" fill-opacity="0.04"/>
<path d="M117.28 99.185V133.28C117.28 149.501 116.601 163.759 115.245 176.053C113.889 188.348 111.958 198.68 109.454 207.049C106.95 215.314 103.976 221.565 100.533 225.801C97.1244 229.934 93.3333 232 89.1597 232C84.9512 232 81.1254 229.934 77.6821 225.801C74.2389 221.565 71.2651 215.314 68.7609 207.049C66.2568 198.68 64.3264 188.348 62.97 176.053C61.6136 163.759 60.9353 149.501 60.9353 133.28V99.185C60.9353 82.9641 61.6136 68.6546 62.97 56.2565C64.3264 43.8584 66.2394 33.5266 68.7088 25.2612C71.213 16.9958 74.1867 10.745 77.63 6.50902C81.0732 2.27299 84.8991 0.154977 89.1075 0.154977C93.2812 0.154977 97.0896 2.27299 100.533 6.50902C104.011 10.745 106.985 16.9958 109.454 25.2612C111.923 33.5266 113.836 43.8584 115.193 56.2565C116.584 68.6546 117.28 82.9641 117.28 99.185ZM99.1765 133.28V98.8751C99.1765 88.7499 98.9678 80.1229 98.5504 72.994C98.133 65.8651 97.507 60.0793 96.6723 55.6366C95.8375 51.1939 94.7941 47.9394 93.542 45.8731C92.2899 43.8067 90.8118 42.7735 89.1075 42.7735C87.3337 42.7735 85.8208 43.8067 84.5687 45.8731C83.3166 47.9394 82.2732 51.1939 81.4384 55.6366C80.6385 60.0793 80.0472 65.8651 79.6646 72.994C79.282 80.1229 79.0907 88.7499 79.0907 98.8751V133.28C79.0907 143.302 79.282 151.877 79.6646 159.006C80.0472 166.032 80.6385 171.817 81.4384 176.363C82.2732 180.909 83.334 184.267 84.6208 186.437C85.9077 188.503 87.4207 189.536 89.1597 189.536C90.8291 189.536 92.2899 188.503 93.542 186.437C94.8289 184.267 95.8723 180.909 96.6723 176.363C97.507 171.817 98.133 166.032 98.5504 159.006C98.9678 151.877 99.1765 143.302 99.1765 133.28Z" fill="white" fill-opacity="0.04"/>
<path d="M160.06 3.25451H177.954V156.836C177.954 174.4 176.893 188.762 174.772 199.92C172.65 210.975 169.676 219.085 165.851 224.251C162.025 229.417 157.503 232 152.286 232C147.104 232 142.582 229.417 138.722 224.251C134.861 219.085 131.835 210.975 129.644 199.92C127.488 188.762 126.41 174.4 126.41 156.836V3.25451H144.356V156.836C144.356 166.135 144.635 173.212 145.191 178.068C145.782 182.821 146.669 186.024 147.852 187.677C149.034 189.33 150.512 190.156 152.286 190.156C154.095 190.156 155.573 189.33 156.721 187.677C157.868 186.024 158.703 182.821 159.225 178.068C159.781 173.212 160.06 166.135 160.06 156.836V3.25451Z" fill="white" fill-opacity="0.04"/>
<path d="M188.388 3.25451H214.369C219.447 3.25451 223.847 5.83745 227.568 11.0033C231.29 16.1692 234.142 23.8147 236.124 33.9399C238.142 44.065 239.15 56.5665 239.15 71.4442C239.15 84.3589 238.594 95.1556 237.481 103.834C236.403 112.513 234.872 119.694 232.89 125.376C230.907 130.955 228.577 135.553 225.899 139.169L220.108 149.242H199.709L199.605 107.244H213.952C215.587 107.244 216.943 106.004 218.021 103.524C219.099 101.045 219.899 97.5319 220.421 92.986C220.978 88.3367 221.256 82.8092 221.256 76.4035C221.256 69.8945 220.995 64.3153 220.473 59.666C219.952 55.0167 219.186 51.4522 218.178 48.9726C217.204 46.493 215.934 45.2532 214.369 45.2532H206.231V228.9H188.388V3.25451ZM222.038 228.9L208.578 129.096L227.464 128.786L241.185 226.576V228.9H222.038Z" fill="white" fill-opacity="0.04"/>
<path d="M308.955 152.497H326.797C326.832 169.441 325.719 183.906 323.458 195.89C321.232 207.772 318.085 216.761 314.015 222.856C309.946 228.952 305.181 232 299.721 232C295.303 232 291.391 229.727 287.982 225.181C284.574 220.635 281.704 214.023 279.374 205.344C277.044 196.665 275.287 186.179 274.105 173.884C272.922 161.486 272.331 147.434 272.331 131.73V100.27C272.331 84.6689 272.957 70.6693 274.209 58.2712C275.496 45.8731 277.305 35.3347 279.635 26.656C282 17.9773 284.852 11.365 288.191 6.81897C291.565 2.27299 295.321 0 299.46 0C305.268 0 310.172 3.25451 314.172 9.76353C318.206 16.1692 321.302 25.4678 323.458 37.6593C325.615 49.7475 326.762 64.2636 326.901 81.2077H309.059C309.233 71.3926 309.024 63.6954 308.433 58.1162C307.842 52.4338 306.798 48.456 305.303 46.183C303.842 43.8067 301.894 42.6186 299.46 42.6186C297.79 42.6186 296.382 43.6001 295.234 45.5631C294.086 47.5262 293.164 50.7807 292.469 55.3267C291.773 59.7693 291.269 65.6584 290.956 72.994C290.643 80.3295 290.486 89.3182 290.486 99.9599V131.73C290.486 142.578 290.608 151.67 290.852 159.006C291.095 166.342 291.547 172.282 292.208 176.828C292.904 181.271 293.843 184.474 295.025 186.437C296.243 188.4 297.808 189.381 299.721 189.381C301.738 189.381 303.459 188.4 304.885 186.437C306.311 184.371 307.39 180.703 308.12 175.434C308.85 170.061 309.129 162.415 308.955 152.497Z" fill="#D7FF01" fill-opacity="0.5"/>
<path d="M389.924 99.185V133.28C389.924 149.501 389.245 163.759 387.889 176.053C386.533 188.348 384.602 198.68 382.098 207.049C379.594 215.314 376.62 221.565 373.177 225.801C369.768 229.934 365.977 232 361.804 232C357.595 232 353.769 229.934 350.326 225.801C346.883 221.565 343.909 215.314 341.405 207.049C338.901 198.68 336.97 188.348 335.614 176.053C334.258 163.759 333.579 149.501 333.579 133.28V99.185C333.579 82.9641 334.258 68.6546 335.614 56.2565C336.97 43.8584 338.883 33.5266 341.353 25.2612C343.857 16.9958 346.831 10.745 350.274 6.50902C353.717 2.27299 357.543 0.154977 361.751 0.154977C365.925 0.154977 369.734 2.27299 373.177 6.50902C376.655 10.745 379.629 16.9958 382.098 25.2612C384.567 33.5266 386.48 43.8584 387.837 56.2565C389.228 68.6546 389.924 82.9641 389.924 99.185ZM371.82 133.28V98.8751C371.82 88.7499 371.612 80.1229 371.194 72.994C370.777 65.8651 370.151 60.0793 369.316 55.6366C368.481 51.1939 367.438 47.9394 366.186 45.8731C364.934 43.8067 363.456 42.7735 361.751 42.7735C359.978 42.7735 358.465 43.8067 357.213 45.8731C355.961 47.9394 354.917 51.1939 354.082 55.6366C353.282 60.0793 352.691 65.8651 352.309 72.994C351.926 80.1229 351.735 88.7499 351.735 98.8751V133.28C351.735 143.302 351.926 151.877 352.309 159.006C352.691 166.032 353.282 171.817 354.082 176.363C354.917 180.909 355.978 184.267 357.265 186.437C358.552 188.503 360.065 189.536 361.804 189.536C363.473 189.536 364.934 188.503 366.186 186.437C367.473 184.267 368.516 180.909 369.316 176.363C370.151 171.817 370.777 166.032 371.194 159.006C371.612 151.877 371.82 143.302 371.82 133.28Z" fill="#D7FF01" fill-opacity="0.5"/>
<path d="M420.548 228.9H406.618L406.723 187.057H420.548C423.156 187.057 425.278 185.352 426.913 181.943C428.582 178.533 429.817 172.902 430.617 165.05C431.417 157.095 431.817 146.505 431.817 133.28V98.7201C431.817 88.8016 431.591 80.4329 431.138 73.6139C430.721 66.7949 430.06 61.3191 429.156 57.1864C428.252 53.0537 427.052 50.0574 425.556 48.1977C424.061 46.2347 422.287 45.2532 420.235 45.2532H406.357V3.25451H420.235C424.687 3.25451 428.721 5.42418 432.338 9.76353C435.99 13.9996 439.138 20.3019 441.781 28.6707C444.425 36.9361 446.459 46.9579 447.885 58.7361C449.311 70.5144 450.024 83.9457 450.024 99.0301V133.28C450.024 148.261 449.311 161.692 447.885 173.574C446.459 185.352 444.425 195.374 441.781 203.639C439.173 211.905 436.06 218.207 432.443 222.546C428.86 226.782 424.895 228.9 420.548 228.9ZM417.052 3.25451V228.9H399.21V3.25451H417.052Z" fill="#D7FF01" fill-opacity="0.5"/>
<path d="M504.073 187.057V228.9H470.84V187.057H504.073ZM477.049 3.25451V228.9H459.206V3.25451H477.049ZM499.743 92.831V133.28H470.84V92.831H499.743ZM504.23 3.25451V45.2532H470.84V3.25451H504.23Z" fill="#D7FF01" fill-opacity="0.5"/>
<path d="M554.679 3.25451V228.9H536.888V3.25451H554.679Z" fill="white" fill-opacity="0.04"/>
<path d="M597.824 168.925C597.824 165.412 597.702 162.261 597.459 159.471C597.25 156.578 596.815 153.892 596.154 151.412C595.528 148.933 594.572 146.453 593.285 143.973C591.998 141.39 590.276 138.704 588.12 135.914C585.407 132.608 582.746 128.889 580.138 124.756C577.529 120.52 575.182 115.613 573.095 110.033C571.043 104.351 569.391 97.7386 568.139 90.1964C566.887 82.5509 566.261 73.6656 566.261 63.5404C566.261 53.8285 566.887 45.0982 568.139 37.3494C569.426 29.4972 571.182 22.8332 573.408 17.3574C575.669 11.7782 578.329 7.5422 581.39 4.6493C584.451 1.65308 587.79 0.154977 591.407 0.154977C596.207 0.154977 600.432 3.04787 604.084 8.83367C607.771 14.5161 610.64 22.6266 612.692 33.165C614.779 43.6001 615.823 55.9466 615.823 70.2044H598.032C598.032 64.5219 597.789 59.511 597.302 55.1717C596.815 50.8323 596.05 47.4228 595.007 44.9432C593.998 42.4636 592.659 41.2238 590.989 41.2238C589.494 41.2238 588.224 42.257 587.181 44.3233C586.172 46.3897 585.407 49.1792 584.885 52.692C584.364 56.1015 584.103 59.8726 584.103 64.0053C584.103 67.4148 584.364 70.5144 584.885 73.3039C585.407 75.9902 586.12 78.5215 587.024 80.8978C587.964 83.2741 589.042 85.5471 590.259 87.7168C591.511 89.8864 592.85 92.0044 594.276 94.0708C597.719 97.8936 600.763 102.181 603.406 106.934C606.084 111.583 608.328 116.904 610.136 122.896C611.945 128.786 613.301 135.501 614.205 143.043C615.144 150.586 615.614 159.109 615.614 168.615C615.614 178.74 615.058 187.728 613.945 195.58C612.866 203.433 611.284 210.097 609.197 215.572C607.11 220.945 604.589 225.026 601.632 227.816C598.711 230.605 595.407 232 591.72 232C588.346 232 585.025 230.554 581.755 227.661C578.521 224.664 575.582 220.118 572.938 214.023C570.33 207.824 568.243 199.92 566.678 190.311C565.113 180.599 564.33 169.079 564.33 155.751H582.277C582.277 162.364 582.451 167.943 582.799 172.489C583.146 177.035 583.686 180.703 584.416 183.492C585.181 186.179 586.155 188.142 587.337 189.381C588.52 190.518 589.981 191.086 591.72 191.086C593.32 191.086 594.554 190.105 595.424 188.142C596.328 186.075 596.954 183.389 597.302 180.083C597.65 176.673 597.824 172.954 597.824 168.925Z" fill="white" fill-opacity="0.04"/>
<path d="M663.976 3.25451L673.732 101.2L683.54 3.25451H702.687L682.862 147.848V228.9H664.707V147.848L644.83 3.25451H663.976Z" fill="white" fill-opacity="0.04"/>
<path d="M762.109 99.185V133.28C762.109 149.501 761.431 163.759 760.075 176.053C758.718 188.348 756.788 198.68 754.284 207.049C751.779 215.314 748.806 221.565 745.362 225.801C741.954 229.934 738.163 232 733.989 232C729.781 232 725.955 229.934 722.512 225.801C719.068 221.565 716.095 215.314 713.591 207.049C711.086 198.68 709.156 188.348 707.8 176.053C706.443 163.759 705.765 149.501 705.765 133.28V99.185C705.765 82.9641 706.443 68.6546 707.8 56.2565C709.156 43.8584 711.069 33.5266 713.538 25.2612C716.042 16.9958 719.016 10.745 722.46 6.50902C725.903 2.27299 729.729 0.154977 733.937 0.154977C738.111 0.154977 741.919 2.27299 745.362 6.50902C748.841 10.745 751.814 16.9958 754.284 25.2612C756.753 33.5266 758.666 43.8584 760.022 56.2565C761.414 68.6546 762.109 82.9641 762.109 99.185ZM744.006 133.28V98.8751C744.006 88.7499 743.797 80.1229 743.38 72.994C742.963 65.8651 742.337 60.0793 741.502 55.6366C740.667 51.1939 739.624 47.9394 738.372 45.8731C737.119 43.8067 735.641 42.7735 733.937 42.7735C732.163 42.7735 730.65 43.8067 729.398 45.8731C728.146 47.9394 727.103 51.1939 726.268 55.6366C725.468 60.0793 724.877 65.8651 724.494 72.994C724.112 80.1229 723.92 88.7499 723.92 98.8751V133.28C723.92 143.302 724.112 151.877 724.494 159.006C724.877 166.032 725.468 171.817 726.268 176.363C727.103 180.909 728.163 184.267 729.45 186.437C730.737 188.503 732.25 189.536 733.989 189.536C735.659 189.536 737.119 188.503 738.372 186.437C739.658 184.267 740.702 180.909 741.502 176.363C742.337 171.817 742.963 166.032 743.38 159.006C743.797 151.877 744.006 143.302 744.006 133.28Z" fill="white" fill-opacity="0.04"/>
<path d="M804.889 3.25451H822.784V156.836C822.784 174.4 821.723 188.762 819.601 199.92C817.48 210.975 814.506 219.085 810.68 224.251C806.854 229.417 802.333 232 797.116 232C791.933 232 787.412 229.417 783.551 224.251C779.691 219.085 776.665 210.975 774.474 199.92C772.317 188.762 771.239 174.4 771.239 156.836V3.25451H789.186V156.836C789.186 166.135 789.464 173.212 790.021 178.068C790.612 182.821 791.499 186.024 792.681 187.677C793.864 189.33 795.342 190.156 797.116 190.156C798.924 190.156 800.403 189.33 801.55 187.677C802.698 186.024 803.533 182.821 804.054 178.068C804.611 173.212 804.889 166.135 804.889 156.836V3.25451Z" fill="white" fill-opacity="0.04"/>
<path d="M833.218 3.25451H859.199C864.277 3.25451 868.677 5.83745 872.398 11.0033C876.12 16.1692 878.972 23.8147 880.954 33.9399C882.971 44.065 883.98 56.5665 883.98 71.4442C883.98 84.3589 883.423 95.1556 882.311 103.834C881.232 112.513 879.702 119.694 877.719 125.376C875.737 130.955 873.407 135.553 870.729 139.169L864.938 149.242H844.539L844.435 107.244H858.782C860.416 107.244 861.773 106.004 862.851 103.524C863.929 101.045 864.729 97.5319 865.251 92.986C865.807 88.3367 866.085 82.8092 866.085 76.4035C866.085 69.8945 865.825 64.3153 865.303 59.666C864.781 55.0167 864.016 51.4522 863.007 48.9726C862.033 46.493 860.764 45.2532 859.199 45.2532H851.06V228.9H833.218V3.25451ZM866.868 228.9L853.408 129.096L872.294 128.786L886.015 226.576V228.9H866.868Z" fill="white" fill-opacity="0.04"/>
<path d="M961.923 187.057V228.9H929.994V187.057H961.923ZM936.255 3.25451V228.9H918.413V3.25451H936.255Z" fill="#990DCE" fill-opacity="0.5"/>
<path d="M1014.51 187.057V228.9H981.278V187.057H1014.51ZM987.487 3.25451V228.9H969.644V3.25451H987.487ZM1010.18 92.831V133.28H981.278V92.831H1010.18ZM1014.67 3.25451V45.2532H981.278V3.25451H1014.67Z" fill="#990DCE" fill-opacity="0.5"/>
<path d="M1075.39 108.329V202.554C1074.21 205.964 1072.47 209.993 1070.18 214.643C1067.88 219.292 1064.99 223.373 1061.52 226.886C1058.07 230.295 1054 232 1049.31 232C1044.96 232 1041.05 230.037 1037.57 226.111C1034.09 222.185 1031.12 216.244 1028.65 208.289C1026.21 200.23 1024.34 190.156 1023.01 178.068C1021.69 165.877 1021.03 151.464 1021.03 134.83V97.4803C1021.03 80.9494 1021.69 66.5366 1023.01 54.2418C1024.37 41.947 1026.27 31.8219 1028.7 23.8664C1031.14 15.9109 1034.02 9.97016 1037.36 6.04409C1040.7 2.0147 1044.4 0 1048.47 0C1054.56 0 1059.55 3.04787 1063.45 9.14362C1067.38 15.2394 1070.32 24.0214 1072.26 35.4896C1074.21 46.8546 1075.24 60.6475 1075.34 76.8684H1058.23C1058.09 68.293 1057.67 61.4224 1056.98 56.2565C1056.28 51.0906 1055.29 47.4228 1054 45.2532C1052.72 42.9802 1051.08 41.8437 1049.1 41.8437C1047.5 41.8437 1046.07 42.7735 1044.82 44.6333C1043.6 46.493 1042.56 49.5925 1041.69 53.9319C1040.86 58.1679 1040.21 63.8504 1039.76 70.9793C1039.34 78.1082 1039.14 86.8386 1039.14 97.1703V134.83C1039.14 145.058 1039.34 153.737 1039.76 160.866C1040.18 167.995 1040.82 173.677 1041.69 177.913C1042.56 182.149 1043.73 185.249 1045.19 187.212C1046.65 189.175 1048.46 190.156 1050.61 190.156C1051.93 190.156 1053.03 189.64 1053.9 188.607C1054.77 187.573 1055.5 186.385 1056.09 185.042C1056.68 183.699 1057.17 182.769 1057.55 182.253V145.678H1048.47V108.329H1075.39Z" fill="#990DCE" fill-opacity="0.5"/>
<path d="M1113.74 50.6774L1099.6 228.9H1080.4L1103.83 3.25451H1115.83L1113.74 50.6774ZM1124.8 228.9L1110.66 50.6774L1108.31 3.25451H1120.52L1144 228.9H1124.8ZM1125.37 144.748V186.747H1092.45V144.748H1125.37Z" fill="#990DCE" fill-opacity="0.5"/>
<path d="M1183.96 152.497H1201.8C1201.84 169.441 1200.73 183.906 1198.46 195.89C1196.24 207.772 1193.09 216.761 1189.02 222.856C1184.95 228.952 1180.19 232 1174.73 232C1170.31 232 1166.4 229.727 1162.99 225.181C1159.58 220.635 1156.71 214.023 1154.38 205.344C1152.05 196.665 1150.29 186.179 1149.11 173.884C1147.93 161.486 1147.34 147.434 1147.34 131.73V100.27C1147.34 84.6689 1147.96 70.6693 1149.22 58.2712C1150.5 45.8731 1152.31 35.3347 1154.64 26.656C1157.01 17.9773 1159.86 11.365 1163.2 6.81897C1166.57 2.27299 1170.33 0 1174.47 0C1180.27 0 1185.18 3.25451 1189.18 9.76353C1193.21 16.1692 1196.31 25.4678 1198.46 37.6593C1200.62 49.7475 1201.77 64.2636 1201.91 81.2077H1184.07C1184.24 71.3926 1184.03 63.6954 1183.44 58.1162C1182.85 52.4338 1181.8 48.456 1180.31 46.183C1178.85 43.8067 1176.9 42.6186 1174.47 42.6186C1172.8 42.6186 1171.39 43.6001 1170.24 45.5631C1169.09 47.5262 1168.17 50.7807 1167.48 55.3267C1166.78 59.7693 1166.28 65.6584 1165.96 72.994C1165.65 80.3295 1165.49 89.3182 1165.49 99.9599V131.73C1165.49 142.578 1165.61 151.67 1165.86 159.006C1166.1 166.342 1166.55 172.282 1167.21 176.828C1167.91 181.271 1168.85 184.474 1170.03 186.437C1171.25 188.4 1172.81 189.381 1174.73 189.381C1176.74 189.381 1178.47 188.4 1179.89 186.437C1181.32 184.371 1182.4 180.703 1183.13 175.434C1183.86 170.061 1184.14 162.415 1183.96 152.497Z" fill="#990DCE" fill-opacity="0.5"/>
<path d="M1224.29 3.25451L1234.05 101.2L1243.85 3.25451H1263L1243.18 147.848V228.9H1225.02V147.848L1205.14 3.25451H1224.29Z" fill="#990DCE" fill-opacity="0.5"/>
</svg>
