<svg width="1408" height="299" viewBox="0 0 1408 299" fill="none" xmlns="http://www.w3.org/2000/svg">
<g clip-path="url(#clip0_1355_2420)">
<g opacity="0.7">
<path d="M21.3448 4.62926L32.2207 143.948L37.6878 74.2886L43.1549 4.62926H64.4996L42.3988 210.301V325.591H22.159V210.301L0 4.62926H21.3448Z" fill="white" fill-opacity="0.04"/>
<path d="M130.744 141.082V189.579C130.744 212.652 129.988 232.933 128.476 250.421C126.964 267.909 124.812 282.605 122.02 294.509C119.228 306.266 115.913 315.157 112.075 321.182C108.275 327.061 104.049 330 99.3958 330C94.7042 330 90.4391 327.061 86.6005 321.182C82.7619 315.157 79.4468 306.266 76.6551 294.509C73.8634 282.605 71.7115 267.909 70.1993 250.421C68.6872 232.933 67.9311 212.652 67.9311 189.579V141.082C67.9311 118.009 68.6872 97.6553 70.1993 80.02C71.7115 62.3848 73.844 47.6887 76.597 35.9319C79.3887 24.175 82.7038 15.2839 86.5424 9.25852C90.3809 3.23313 94.646 0.220441 99.3376 0.220441C103.99 0.220441 108.236 3.23313 112.075 9.25852C115.952 15.2839 119.267 24.175 122.02 35.9319C124.773 47.6887 126.906 62.3848 128.418 80.02C129.969 97.6553 130.744 118.009 130.744 141.082ZM110.563 189.579V140.641C110.563 126.239 110.33 113.968 109.865 103.828C109.399 93.6874 108.701 85.4576 107.771 79.1383C106.84 72.819 105.677 68.1897 104.281 65.2505C102.885 62.3113 101.238 60.8417 99.3376 60.8417C97.3602 60.8417 95.6735 62.3113 94.2777 65.2505C92.8818 68.1897 91.7186 72.819 90.7881 79.1383C89.8963 85.4576 89.2371 93.6874 88.8106 103.828C88.3841 113.968 88.1708 126.239 88.1708 140.641V189.579C88.1708 203.834 88.3841 216.032 88.8106 226.172C89.2371 236.166 89.8963 244.395 90.7881 250.862C91.7186 257.328 92.9012 262.104 94.3358 265.19C95.7704 268.13 97.4571 269.599 99.3958 269.599C101.257 269.599 102.885 268.13 104.281 265.19C105.716 262.104 106.879 257.328 107.771 250.862C108.701 244.395 109.399 236.166 109.865 226.172C110.33 216.032 110.563 203.834 110.563 189.579Z" fill="white" fill-opacity="0.04"/>
<path d="M178.435 4.62926H198.384V223.086C198.384 248.069 197.202 268.497 194.837 284.369C192.471 300.094 189.156 311.63 184.891 318.978C180.626 326.326 175.586 330 169.77 330C163.992 330 158.952 326.326 154.648 318.978C150.344 311.63 146.971 300.094 144.528 284.369C142.124 268.497 140.922 248.069 140.922 223.086V4.62926H160.929V223.086C160.929 236.313 161.239 246.379 161.86 253.287C162.519 260.047 163.508 264.603 164.826 266.954C166.144 269.305 167.792 270.481 169.77 270.481C171.786 270.481 173.434 269.305 174.713 266.954C175.993 264.603 176.923 260.047 177.505 253.287C178.125 246.379 178.435 236.313 178.435 223.086V4.62926Z" fill="white" fill-opacity="0.04"/>
<path d="M210.016 4.62926H238.98C244.641 4.62926 249.546 8.30327 253.695 15.6513C257.843 22.9993 261.023 33.8744 263.233 48.2766C265.482 62.6787 266.606 80.4609 266.606 101.623C266.606 119.993 265.986 135.351 264.745 147.695C263.543 160.04 261.837 170.254 259.627 178.337C257.417 186.273 254.819 192.812 251.834 197.956L245.378 212.285H222.637L222.521 152.545H238.515C240.337 152.545 241.849 150.782 243.051 147.255C244.253 143.727 245.145 138.731 245.727 132.265C246.347 125.651 246.657 117.789 246.657 108.677C246.657 99.4188 246.367 91.483 245.785 84.8697C245.203 78.2565 244.35 73.1864 243.226 69.6593C242.14 66.1323 240.725 64.3687 238.98 64.3687H229.907V325.591H210.016V4.62926ZM247.53 325.591L232.524 183.627L253.578 183.186L268.875 322.285V325.591H247.53Z" fill="white" fill-opacity="0.04"/>
<path d="M344.425 216.914H364.315C364.354 241.015 363.113 261.59 360.593 278.637C358.112 295.538 354.603 308.323 350.066 316.994C345.53 325.665 340.218 330 334.13 330C329.206 330 324.844 326.767 321.044 320.301C317.244 313.834 314.046 304.429 311.448 292.084C308.85 279.739 306.892 264.823 305.574 247.335C304.255 229.699 303.596 209.713 303.596 187.375V142.625C303.596 120.434 304.294 100.521 305.69 82.8858C307.125 65.2505 309.141 50.2605 311.739 37.9158C314.375 25.5711 317.555 16.1657 321.277 9.6994C325.038 3.23313 329.225 0 333.839 0C340.315 0 345.782 4.62926 350.241 13.8878C354.738 22.9993 358.189 36.2258 360.593 53.5671C362.997 70.7615 364.277 91.4095 364.432 115.511H344.541C344.735 101.55 344.502 90.6012 343.843 82.6653C343.184 74.5825 342.021 68.9245 340.353 65.6914C338.725 62.3113 336.554 60.6212 333.839 60.6212C331.978 60.6212 330.408 62.0174 329.128 64.8096C327.849 67.6019 326.822 72.2311 326.046 78.6974C325.271 85.0167 324.708 93.3935 324.359 103.828C324.01 114.262 323.836 127.047 323.836 142.184V187.375C323.836 202.806 323.972 215.738 324.243 226.172C324.514 236.607 325.019 245.057 325.755 251.523C326.531 257.842 327.578 262.398 328.896 265.19C330.253 267.983 331.998 269.379 334.13 269.379C336.379 269.379 338.298 267.983 339.888 265.19C341.478 262.251 342.68 257.034 343.494 249.539C344.308 241.897 344.619 231.022 344.425 216.914Z" fill="#D7FF01" fill-opacity="0.5"/>
<path d="M434.689 141.082V189.579C434.689 212.652 433.933 232.933 432.421 250.421C430.909 267.909 428.757 282.605 425.965 294.509C423.174 306.266 419.858 315.157 416.02 321.182C412.22 327.061 407.994 330 403.341 330C398.649 330 394.384 327.061 390.546 321.182C386.707 315.157 383.392 306.266 380.6 294.509C377.809 282.605 375.657 267.909 374.144 250.421C372.632 232.933 371.876 212.652 371.876 189.579V141.082C371.876 118.009 372.632 97.6553 374.144 80.02C375.657 62.3848 377.789 47.6887 380.542 35.9319C383.334 24.175 386.649 15.2839 390.488 9.25852C394.326 3.23313 398.591 0.220441 403.283 0.220441C407.936 0.220441 412.181 3.23313 416.02 9.25852C419.897 15.2839 423.212 24.175 425.965 35.9319C428.718 47.6887 430.851 62.3848 432.363 80.02C433.914 97.6553 434.689 118.009 434.689 141.082ZM414.508 189.579V140.641C414.508 126.239 414.275 113.968 413.81 103.828C413.344 93.6874 412.647 85.4576 411.716 79.1383C410.785 72.819 409.622 68.1897 408.226 65.2505C406.83 62.3113 405.183 60.8417 403.283 60.8417C401.305 60.8417 399.619 62.3113 398.223 65.2505C396.827 68.1897 395.664 72.819 394.733 79.1383C393.841 85.4576 393.182 93.6874 392.756 103.828C392.329 113.968 392.116 126.239 392.116 140.641V189.579C392.116 203.834 392.329 216.032 392.756 226.172C393.182 236.166 393.841 244.395 394.733 250.862C395.664 257.328 396.846 262.104 398.281 265.19C399.716 268.13 401.402 269.599 403.341 269.599C405.202 269.599 406.83 268.13 408.226 265.19C409.661 262.104 410.824 257.328 411.716 250.862C412.647 244.395 413.344 236.166 413.81 226.172C414.275 216.032 414.508 203.834 414.508 189.579Z" fill="#D7FF01" fill-opacity="0.5"/>
<path d="M468.829 325.591H453.3L453.417 266.072H468.829C471.737 266.072 474.102 263.647 475.925 258.798C477.786 253.948 479.162 245.939 480.054 234.77C480.946 223.454 481.392 208.39 481.392 189.579V140.421C481.392 126.313 481.14 114.409 480.636 104.709C480.171 95.01 479.434 87.2211 478.426 81.3427C477.418 75.4643 476.08 71.2024 474.413 68.5571C472.745 65.7649 470.768 64.3687 468.48 64.3687H453.01V4.62926H468.48C473.443 4.62926 477.941 7.71543 481.973 13.8878C486.045 19.9132 489.554 28.8778 492.5 40.7816C495.447 52.5384 497.715 66.7936 499.305 83.5471C500.895 100.301 501.69 119.405 501.69 140.862V189.579C501.69 210.888 500.895 229.993 499.305 246.894C497.715 263.647 495.447 277.902 492.5 289.659C489.592 301.416 486.122 310.381 482.09 316.553C478.096 322.578 473.676 325.591 468.829 325.591ZM464.933 4.62926V325.591H445.042V4.62926H464.933Z" fill="#D7FF01" fill-opacity="0.5"/>
<path d="M561.944 266.072V325.591H524.896V266.072H561.944ZM531.817 4.62926V325.591H511.926V4.62926H531.817ZM557.116 132.044V189.579H524.896V132.044H557.116ZM562.118 4.62926V64.3687H524.896V4.62926H562.118Z" fill="#D7FF01" fill-opacity="0.5"/>
<path d="M618.359 4.62926V325.591H598.526V4.62926H618.359Z" fill="white" fill-opacity="0.04"/>
<path d="M666.458 240.281C666.458 235.284 666.322 230.802 666.05 226.834C665.818 222.719 665.333 218.898 664.596 215.371C663.899 211.844 662.832 208.317 661.398 204.79C659.963 201.116 658.044 197.295 655.64 193.327C652.616 188.624 649.649 183.333 646.741 177.455C643.833 171.43 641.216 164.449 638.89 156.513C636.602 148.43 634.76 139.025 633.364 128.297C631.969 117.422 631.271 104.783 631.271 90.3808C631.271 76.5665 631.969 64.1483 633.364 53.1263C634.799 41.9572 636.757 32.4783 639.239 24.6894C641.759 16.7535 644.725 10.7281 648.137 6.61323C651.549 2.35137 655.272 0.220441 659.304 0.220441C664.655 0.220441 669.366 4.33534 673.437 12.5651C677.547 20.648 680.746 32.1844 683.033 47.1743C685.36 62.0174 686.523 79.5792 686.523 99.8597H666.69C666.69 91.7769 666.419 84.6493 665.876 78.477C665.333 72.3046 664.48 67.4549 663.317 63.9279C662.193 60.4008 660.7 58.6373 658.839 58.6373C657.171 58.6373 655.756 60.1069 654.593 63.0461C653.468 65.9853 652.615 69.9532 652.034 74.9499C651.452 79.7996 651.161 85.1637 651.161 91.0421C651.161 95.8918 651.452 100.301 652.034 104.269C652.615 108.09 653.41 111.69 654.418 115.07C655.465 118.45 656.667 121.683 658.024 124.77C659.42 127.856 660.913 130.868 662.503 133.808C666.341 139.245 669.734 145.344 672.681 152.104C675.666 158.717 678.167 166.286 680.183 174.81C682.2 183.186 683.712 192.739 684.72 203.467C685.767 214.195 686.29 226.319 686.29 239.84C686.29 254.242 685.67 267.027 684.429 278.196C683.227 289.365 681.463 298.844 679.137 306.633C676.81 314.275 673.999 320.08 670.703 324.048C667.446 328.016 663.763 330 659.653 330C655.892 330 652.189 327.943 648.544 323.828C644.938 319.566 641.662 313.1 638.715 304.429C635.807 295.611 633.481 284.369 631.736 270.701C629.991 256.887 629.119 240.501 629.119 221.543H649.126C649.126 230.949 649.32 238.884 649.707 245.351C650.095 251.817 650.696 257.034 651.51 261.002C652.363 264.823 653.449 267.615 654.767 269.379C656.086 270.995 657.714 271.804 659.653 271.804C661.436 271.804 662.813 270.407 663.782 267.615C664.79 264.676 665.488 260.855 665.876 256.152C666.264 251.303 666.458 246.012 666.458 240.281Z" fill="white" fill-opacity="0.04"/>
<path d="M740.205 4.62926L751.081 143.948L762.015 4.62926H783.36L761.259 210.301V325.591H741.019V210.301L718.86 4.62926H740.205Z" fill="white" fill-opacity="0.04"/>
<path d="M849.604 141.082V189.579C849.604 212.652 848.848 232.933 847.336 250.421C845.824 267.909 843.672 282.605 840.88 294.509C838.088 306.266 834.773 315.157 830.935 321.182C827.135 327.061 822.908 330 818.256 330C813.564 330 809.299 327.061 805.46 321.182C801.622 315.157 798.307 306.266 795.515 294.509C792.723 282.605 790.571 267.909 789.059 250.421C787.547 232.933 786.791 212.652 786.791 189.579V141.082C786.791 118.009 787.547 97.6553 789.059 80.02C790.571 62.3848 792.704 47.6887 795.457 35.9319C798.249 24.175 801.564 15.2839 805.402 9.25852C809.241 3.23313 813.506 0.220441 818.197 0.220441C822.85 0.220441 827.096 3.23313 830.935 9.25852C834.812 15.2839 838.127 24.175 840.88 35.9319C843.633 47.6887 845.765 62.3848 847.278 80.02C848.829 97.6553 849.604 118.009 849.604 141.082ZM829.422 189.579V140.641C829.422 126.239 829.19 113.968 828.725 103.828C828.259 93.6874 827.561 85.4576 826.631 79.1383C825.7 72.819 824.537 68.1897 823.141 65.2505C821.745 62.3113 820.097 60.8417 818.197 60.8417C816.22 60.8417 814.533 62.3113 813.138 65.2505C811.742 68.1897 810.578 72.819 809.648 79.1383C808.756 85.4576 808.097 93.6874 807.671 103.828C807.244 113.968 807.031 126.239 807.031 140.641V189.579C807.031 203.834 807.244 216.032 807.671 226.172C808.097 236.166 808.756 244.395 809.648 250.862C810.578 257.328 811.761 262.104 813.196 265.19C814.63 268.13 816.317 269.599 818.256 269.599C820.117 269.599 821.745 268.13 823.141 265.19C824.576 262.104 825.739 257.328 826.631 250.862C827.561 244.395 828.259 236.166 828.725 226.172C829.19 216.032 829.422 203.834 829.422 189.579Z" fill="white" fill-opacity="0.04"/>
<path d="M897.295 4.62926H917.244V223.086C917.244 248.069 916.062 268.497 913.697 284.369C911.331 300.094 908.016 311.63 903.751 318.978C899.486 326.326 894.445 330 888.629 330C882.852 330 877.812 326.326 873.508 318.978C869.204 311.63 865.831 300.094 863.388 284.369C860.984 268.497 859.782 248.069 859.782 223.086V4.62926H879.789V223.086C879.789 236.313 880.099 246.379 880.72 253.287C881.379 260.047 882.368 264.603 883.686 266.954C885.004 269.305 886.652 270.481 888.629 270.481C890.646 270.481 892.294 269.305 893.573 266.954C894.853 264.603 895.783 260.047 896.365 253.287C896.985 246.379 897.295 236.313 897.295 223.086V4.62926Z" fill="white" fill-opacity="0.04"/>
<path d="M928.876 4.62926H957.84C963.501 4.62926 968.406 8.30327 972.555 15.6513C976.703 22.9993 979.883 33.8744 982.093 48.2766C984.342 62.6787 985.466 80.4609 985.466 101.623C985.466 119.993 984.846 135.351 983.605 147.695C982.403 160.04 980.697 170.254 978.487 178.337C976.277 186.273 973.679 192.812 970.694 197.956L964.238 212.285H941.497L941.381 152.545H957.375C959.197 152.545 960.709 150.782 961.911 147.255C963.113 143.727 964.005 138.731 964.587 132.265C965.207 125.651 965.517 117.789 965.517 108.677C965.517 99.4188 965.226 91.483 964.645 84.8697C964.063 78.2565 963.21 73.1864 962.086 69.6593C961 66.1323 959.585 64.3687 957.84 64.3687H948.767V325.591H928.876V4.62926ZM966.39 325.591L951.384 183.627L972.438 183.186L987.734 322.285V325.591H966.39Z" fill="white" fill-opacity="0.04"/>
<path d="M1072.36 266.072V325.591H1036.76V266.072H1072.36ZM1043.74 4.62926V325.591H1023.85V4.62926H1043.74Z" fill="#990DCE" fill-opacity="0.5"/>
<path d="M1130.98 266.072V325.591H1093.93V266.072H1130.98ZM1100.86 4.62926V325.591H1080.97V4.62926H1100.86ZM1126.16 132.044V189.579H1093.93V132.044H1126.16ZM1131.16 4.62926V64.3687H1093.93V4.62926H1131.16Z" fill="#990DCE" fill-opacity="0.5"/>
<path d="M1198.86 154.088V288.116C1197.54 292.966 1195.6 298.697 1193.04 305.311C1190.48 311.924 1187.26 317.729 1183.39 322.725C1179.55 327.575 1175.01 330 1169.78 330C1164.93 330 1160.57 327.208 1156.69 321.623C1152.81 316.039 1149.5 307.589 1146.74 296.273C1144.03 284.81 1141.94 270.481 1140.46 253.287C1138.99 235.945 1138.25 215.444 1138.25 191.784V138.657C1138.25 115.144 1138.99 94.6426 1140.46 77.1543C1141.98 59.666 1144.09 45.2639 1146.8 33.9479C1149.52 22.6319 1152.73 14.1817 1156.46 8.59719C1160.18 2.86573 1164.31 0 1168.85 0C1175.63 0 1181.19 4.33534 1185.54 13.006C1189.92 21.6767 1193.2 34.1683 1195.37 50.481C1197.54 66.6466 1198.68 86.2659 1198.8 109.339H1179.72C1179.57 97.1409 1179.1 87.3681 1178.33 80.02C1177.55 72.672 1176.44 67.4549 1175.01 64.3687C1173.58 61.1356 1171.75 59.519 1169.54 59.519C1167.76 59.519 1166.17 60.8417 1164.77 63.487C1163.42 66.1323 1162.25 70.5411 1161.28 76.7134C1160.35 82.7388 1159.64 90.8216 1159.13 100.962C1158.67 111.102 1158.43 123.52 1158.43 138.216V191.784C1158.43 206.333 1158.67 218.677 1159.13 228.818C1159.6 238.958 1160.32 247.041 1161.28 253.066C1162.25 259.092 1163.55 263.5 1165.18 266.293C1166.81 269.085 1168.83 270.481 1171.23 270.481C1172.7 270.481 1173.92 269.746 1174.89 268.277C1175.86 266.807 1176.68 265.117 1177.34 263.206C1178 261.296 1178.54 259.973 1178.97 259.238V207.214H1168.85V154.088H1198.86Z" fill="#990DCE" fill-opacity="0.5"/>
<path d="M1241.6 72.0842L1225.84 325.591H1204.44L1230.55 4.62926H1243.93L1241.6 72.0842ZM1253.93 325.591L1238.17 72.0842L1235.55 4.62926H1249.16L1275.34 325.591H1253.93ZM1254.57 205.892V265.631H1217.87V205.892H1254.57Z" fill="#990DCE" fill-opacity="0.5"/>
<path d="M1319.89 216.914H1339.78C1339.82 241.015 1338.58 261.59 1336.06 278.637C1333.57 295.538 1330.07 308.323 1325.53 316.994C1320.99 325.665 1315.68 330 1309.59 330C1304.67 330 1300.31 326.767 1296.51 320.301C1292.71 313.834 1289.51 304.429 1286.91 292.084C1284.31 279.739 1282.35 264.823 1281.04 247.335C1279.72 229.699 1279.06 209.713 1279.06 187.375V142.625C1279.06 120.434 1279.76 100.521 1281.15 82.8858C1282.59 65.2505 1284.6 50.2605 1287.2 37.9158C1289.84 25.5711 1293.02 16.1657 1296.74 9.6994C1300.5 3.23313 1304.69 0 1309.3 0C1315.78 0 1321.24 4.62926 1325.7 13.8878C1330.2 22.9993 1333.65 36.2258 1336.06 53.5671C1338.46 70.7615 1339.74 91.4095 1339.89 115.511H1320C1320.2 101.55 1319.96 90.6012 1319.31 82.6653C1318.65 74.5825 1317.48 68.9245 1315.82 65.6914C1314.19 62.3113 1312.02 60.6212 1309.3 60.6212C1307.44 60.6212 1305.87 62.0174 1304.59 64.8096C1303.31 67.6019 1302.28 72.2311 1301.51 78.6974C1300.73 85.0167 1300.17 93.3935 1299.82 103.828C1299.47 114.262 1299.3 127.047 1299.3 142.184V187.375C1299.3 202.806 1299.43 215.738 1299.71 226.172C1299.98 236.607 1300.48 245.057 1301.22 251.523C1301.99 257.842 1303.04 262.398 1304.36 265.19C1305.72 267.983 1307.46 269.379 1309.59 269.379C1311.84 269.379 1313.76 267.983 1315.35 265.19C1316.94 262.251 1318.14 257.034 1318.96 249.539C1319.77 241.897 1320.08 231.022 1319.89 216.914Z" fill="#990DCE" fill-opacity="0.5"/>
<path d="M1364.85 4.62926L1375.72 143.948L1386.66 4.62926H1408L1385.9 210.301V325.591H1365.66V210.301L1343.5 4.62926H1364.85Z" fill="#990DCE" fill-opacity="0.5"/>
</g>
</g>
<defs>
<clipPath id="clip0_1355_2420">
<rect width="1408" height="299" fill="white"/>
</clipPath>
</defs>
</svg>
